<?xml version="1.0" encoding="utf-8"?>
<!-- Generator: Adobe Illustrator 23.0.1, SVG Export Plug-In . SVG Version: 6.00 Build 0)  -->
<svg version="1.1" id="Layer_1" xmlns="http://www.w3.org/2000/svg" xmlns:xlink="http://www.w3.org/1999/xlink" x="0px" y="0px"
	 viewBox="0 0 186 48.4" style="enable-background:new 0 0 186 48.4;" xml:space="preserve">
<style type="text/css">
	.st0{enable-background:new    ;}
</style>
<g id="Group_5" transform="translate(591.541 58.6)">
	<g class="st0">
		<path d="M-590.1-40.5L-590.1-40.5c0-4,3.1-7.3,7.2-7.3c2.6,0,4.3,1.1,5.6,2.5l-1.4,1.5c-1.1-1.2-2.3-2.1-4.2-2.1
			c-2.8,0-5,2.4-5,5.4v0.1c0,3,2.2,5.4,5.1,5.4c1.8,0,3.2-0.9,4.3-2.1l1.3,1.2c-1.4,1.6-3.1,2.7-5.7,2.7
			C-587-33.3-590.1-36.6-590.1-40.5z"/>
		<path d="M-574.9-37.6L-574.9-37.6c0-3,2.4-4.6,6-4.6c1.8,0,3,0.2,4.3,0.6v-0.4c0-2.5-1.5-3.8-4.1-3.8c-1.6,0-2.9,0.4-4.2,1
			l-0.6-1.7c1.5-0.7,3-1.2,5.1-1.2c2,0,3.5,0.5,4.5,1.5c1,1,1.5,2.3,1.5,4.1v8.5h-2.1v-2.1c-1,1.2-2.6,2.4-5,2.4
			C-572.3-33.3-574.9-34.8-574.9-37.6z M-564.6-38.7V-40c-1-0.3-2.4-0.6-4.1-0.6c-2.6,0-4.1,1.1-4.1,2.8v0.1c0,1.8,1.6,2.8,3.5,2.8
			C-566.7-35-564.6-36.5-564.6-38.7z"/>
		<path d="M-558.2-47.6h2.1v2.8c1.1-1.7,2.8-3.1,5.3-3.1c3.3,0,6.7,2.6,6.7,7.2v0.1c0,4.6-3.3,7.3-6.7,7.3c-2.6,0-4.3-1.4-5.3-3v7
			h-2.1V-47.6z M-546.2-40.5L-546.2-40.5c0-3.3-2.3-5.5-4.9-5.5c-2.6,0-5,2.2-5,5.4v0.1c0,3.2,2.5,5.4,5,5.4
			C-548.4-35.2-546.2-37.2-546.2-40.5z"/>
		<path d="M-539.5-37.3v-8.4h-1.9v-1.8h1.9v-4.2h2.1v4.2h4.4v1.8h-4.4v8.2c0,1.7,0.9,2.3,2.3,2.3c0.7,0,1.3-0.1,2-0.5v1.8
			c-0.7,0.4-1.5,0.6-2.5,0.6C-537.8-33.4-539.5-34.5-539.5-37.3z"/>
		<path d="M-529.3-52.9h2.4v2.3h-2.4V-52.9z M-529.1-47.6h2.1v14h-2.1V-47.6z"/>
		<path d="M-523.6-47.6h2.3l4.7,11.6l4.7-11.6h2.2l-6.1,14.1h-1.8L-523.6-47.6z"/>
		<path d="M-501-35.1c1.9,0,3.3-0.8,4.4-2l1.3,1.2c-1.4,1.6-3.1,2.6-5.8,2.6c-3.8,0-7-2.9-7-7.3c0-4,2.8-7.3,6.7-7.3
			c4.1,0,6.5,3.3,6.5,7.4c0,0.2,0,0.4,0,0.7H-506C-505.7-36.8-503.5-35.1-501-35.1z M-497-41.4c-0.2-2.5-1.7-4.7-4.5-4.7
			c-2.4,0-4.2,2-4.5,4.7H-497z"/>
	</g>
	<g class="st0">
		<path d="M-484.9-33.3c-4.3,0-7.5-3.3-7.5-7.5v-0.1c0-4.1,3.2-7.5,7.6-7.5c2.7,0,4.4,0.9,5.8,2.4l-2.5,2.7c-0.9-1-1.8-1.6-3.3-1.6
			c-2.1,0-3.5,1.8-3.5,3.9v0.1c0,2.2,1.4,4,3.7,4c1.4,0,2.3-0.6,3.3-1.5l2.4,2.4C-480.4-34.4-482-33.3-484.9-33.3z"/>
		<path d="M-469.6-33.3c-4.5,0-7.8-3.3-7.8-7.5v-0.1c0-4.2,3.3-7.5,7.9-7.5c4.5,0,7.8,3.3,7.8,7.5v0.1
			C-461.7-36.6-465.1-33.3-469.6-33.3z M-465.8-40.8c0-2.1-1.5-4-3.8-4c-2.3,0-3.8,1.8-3.8,3.9v0.1c0,2.1,1.5,4,3.8,4
			C-467.2-36.8-465.8-38.6-465.8-40.8L-465.8-40.8z"/>
		<path d="M-458.6-33.6v-19.7h4.1v19.7H-458.6z"/>
		<path d="M-443.5-33.3c-4.5,0-7.8-3.3-7.8-7.5v-0.1c0-4.2,3.3-7.5,7.9-7.5c4.5,0,7.8,3.3,7.8,7.5v0.1
			C-435.6-36.6-439-33.3-443.5-33.3z M-439.7-40.8c0-2.1-1.5-4-3.8-4c-2.3,0-3.8,1.8-3.8,3.9v0.1c0,2.1,1.5,4,3.8,4
			C-441.1-36.8-439.7-38.6-439.7-40.8L-439.7-40.8z"/>
		<path d="M-423.6-33.6v-2.1c-0.9,1.2-2.2,2.3-4.2,2.3c-3.1,0-4.9-2.1-4.9-5.4v-9.4h4.1v8.1c0,1.9,0.9,2.9,2.5,2.9
			c1.6,0,2.6-1,2.6-2.9v-8.1h4.1v14.5H-423.6z"/>
		<path d="M-407.4-44c-2.7,0-4.4,1.6-4.4,5.1v5.3h-4.1v-14.5h4.1v2.9c0.8-2,2.2-3.3,4.6-3.2v4.3H-407.4z"/>
	</g>
	<g class="st0">
		<path d="M-539.2-17.6L-539.2-17.6c0-2.5,1.9-4.6,4.5-4.6c1.7,0,2.7,0.7,3.5,1.6l-0.9,0.9c-0.7-0.7-1.5-1.3-2.7-1.3
			c-1.8,0-3.1,1.5-3.1,3.4v0c0,1.9,1.4,3.4,3.2,3.4c1.1,0,2-0.6,2.7-1.3l0.8,0.8c-0.9,1-1.9,1.7-3.6,1.7
			C-537.3-13-539.2-15.1-539.2-17.6z"/>
		<path d="M-529.7-17.6L-529.7-17.6c0-2.5,1.9-4.6,4.6-4.6c2.6,0,4.6,2.1,4.6,4.6v0c0,2.5-2,4.6-4.6,4.6
			C-527.8-13-529.7-15.1-529.7-17.6z M-521.9-17.6L-521.9-17.6c0-1.9-1.4-3.5-3.3-3.5c-1.9,0-3.2,1.5-3.2,3.4v0
			c0,1.9,1.4,3.4,3.2,3.4C-523.3-14.2-521.9-15.7-521.9-17.6z"/>
		<path d="M-519-14.4l0.7-0.9c1,0.7,2,1.1,3,1.1c1.1,0,1.8-0.5,1.8-1.4v0c0-0.9-1-1.2-2.2-1.5c-1.4-0.4-2.9-0.9-2.9-2.5v0
			c0-1.5,1.3-2.5,3-2.5c1.1,0,2.3,0.4,3.2,1l-0.6,1c-0.8-0.5-1.8-0.8-2.6-0.8c-1,0-1.7,0.5-1.7,1.3v0c0,0.8,1.1,1.2,2.3,1.5
			c1.4,0.4,2.8,0.9,2.8,2.5v0c0,1.7-1.4,2.6-3.1,2.6C-516.6-13.1-518-13.6-519-14.4z"/>
		<path d="M-509.8-22h1.3v1.5c0.6-0.9,1.4-1.7,2.8-1.7c1.4,0,2.3,0.8,2.8,1.8c0.6-1,1.6-1.8,3.1-1.8c2,0,3.3,1.4,3.3,3.5v5.4h-1.3
			v-5.1c0-1.7-0.8-2.7-2.3-2.7c-1.3,0-2.4,1-2.4,2.7v5.1h-1.3v-5.2c0-1.6-0.9-2.6-2.3-2.6c-1.4,0-2.4,1.2-2.4,2.8v5h-1.3V-22z"/>
		<path d="M-489.7-14.2c1.2,0,2.1-0.5,2.8-1.2l0.8,0.7c-0.9,1-2,1.6-3.6,1.6c-2.4,0-4.4-1.9-4.4-4.6c0-2.5,1.8-4.6,4.2-4.6
			c2.6,0,4.1,2.1,4.1,4.7c0,0.1,0,0.3,0,0.5h-7C-492.6-15.2-491.3-14.2-489.7-14.2z M-487.1-18.1c-0.2-1.6-1.1-3-2.8-3
			c-1.5,0-2.7,1.3-2.9,3H-487.1z"/>
		<path d="M-483.1-15.6v-5.3h-1.2V-22h1.2v-2.7h1.3v2.7h2.8v1.2h-2.8v5.1c0,1.1,0.6,1.5,1.5,1.5c0.4,0,0.8-0.1,1.3-0.3v1.1
			c-0.5,0.2-1,0.4-1.6,0.4C-482-13.1-483.1-13.8-483.1-15.6z"/>
		<path d="M-476.6-25.4h1.5v1.4h-1.5V-25.4z M-476.5-22h1.3v8.8h-1.3V-22z"/>
		<path d="M-472.7-17.6L-472.7-17.6c0-2.5,1.9-4.6,4.5-4.6c1.7,0,2.7,0.7,3.5,1.6l-0.9,0.9c-0.7-0.7-1.5-1.3-2.7-1.3
			c-1.8,0-3.1,1.5-3.1,3.4v0c0,1.9,1.4,3.4,3.2,3.4c1.1,0,2-0.6,2.7-1.3l0.8,0.8c-0.9,1-1.9,1.7-3.6,1.7
			C-470.8-13-472.7-15.1-472.7-17.6z"/>
		<path d="M-463.2-14.4l0.7-0.9c1,0.7,2,1.1,3,1.1c1.1,0,1.8-0.5,1.8-1.4v0c0-0.9-1-1.2-2.2-1.5c-1.4-0.4-2.9-0.9-2.9-2.5v0
			c0-1.5,1.3-2.5,3-2.5c1.1,0,2.3,0.4,3.2,1l-0.6,1c-0.8-0.5-1.8-0.8-2.6-0.8c-1,0-1.7,0.5-1.7,1.3v0c0,0.8,1.1,1.2,2.3,1.5
			c1.4,0.4,2.8,0.9,2.8,2.5v0c0,1.7-1.4,2.6-3.1,2.6C-460.8-13.1-462.2-13.6-463.2-14.4z"/>
	</g>
</g>
</svg>
