<svg xmlns="http://www.w3.org/2000/svg" viewBox="0 0 1134.03 417.82"><defs><style>.cls-1{fill:#fff;}.cls-2{fill:#84a4d6;}.cls-3{fill:#1b62ae;}</style></defs><title>Asset 1</title><g id="Layer_2" data-name="Layer 2"><g id="Layer_1-2" data-name="Layer 1"><path class="cls-1" d="M11.15,330.28c-.67,1-2.91.82-6.74-.4s-5.17-2.64-4-4.26a5.48,5.48,0,0,1,1.21-1.53,8.89,8.89,0,0,0,1.75-2.57q10.06-21.75,20.29-44.25t18.19-44.2c.25-.9.19-1.32-.24-1.28-5.09.78-11,1.89-17.68,3.37s-13,3.1-18.8,4.89c-1.23.37-1.78-1-1.62-4.26s2.22-5.55,6.16-7q7-2.64,23-5.48t33.5-5.18Q83.68,215.8,99,214.3t20.84-1.5a4.63,4.63,0,0,1,4.75,3.2c.82,2.12.72,3.24-.26,3.32q-6.09.63-16.38,1.77c-6.89.74-13.81,1.55-20.82,2.42s-13.46,1.76-19.28,2.63a89,89,0,0,0-11.72,2.26,4,4,0,0,0-2.42,1.91q-6.58,13-13.9,30T26.19,292.62Q20,308,15.75,318.8C12.92,326,11.4,329.86,11.15,330.28Z"/><path class="cls-1" d="M77.8,228.73c.62-1.68,2.41-1.16,5.39,1.48s4.34,4.32,4.09,4.9c-.11.22-.32.59-.6,1.12a9.35,9.35,0,0,1-2.12,2.34c-1.42,1.23-3.74,4.62-7,10.17s-6.46,11.67-9.85,18.62q-5.52,11.06-9.57,21.1c-1.34,3.38-2.78,6.91-4.24,10.61A56.73,56.73,0,0,0,51,308c-.09.35-.05.57.13.67s.37-.08.6-.6q2.23-4.29,6.55-11.82t8-13.64c2.41-4.1,4.52-7.52,6.3-10.3a26.8,26.8,0,0,1,3.93-5.17c.83-.73,3-.17,6.52,1.67s5.81,3.64,6.91,5.29q.3.58-1.7,4.45c-1.32,2.59-2.81,5.65-4.46,9.24-1.36,2.9-2.55,5.71-3.54,8.44a39.1,39.1,0,0,0-2,8.19c-.25,1.75-.21,2.78.09,3.14s.66.19,1.07-.47a41.56,41.56,0,0,1,3-3.56c1.55-1.71,3.32-3.57,5.31-5.56s4.1-4.05,6.21-6a59.13,59.13,0,0,1,5.26-4.49,7.67,7.67,0,0,1,2.06-1.11c.61-.19.8-.11.55.21-1.16,1.55-2.8,3.58-4.94,6.08s-3.65,4.42-4.54,5.7q-4.31,5.94-7.51,10.2a67.87,67.87,0,0,0-6,9.44c-.61,1.14-1.82,1-3.57-.42a13.44,13.44,0,0,1-4-6q-2.31-5.81.43-16.31a75.41,75.41,0,0,1,5.64-15.86c.75-1.42.91-2.17.48-2.27s-.71-.09-.85,0A60.38,60.38,0,0,0,69,287q-4.17,6.17-7.91,12.7T54.3,311.9c-2,3.83-3.48,6.6-4.43,8.35-.38.61-1,.64-1.94.12a19.53,19.53,0,0,1-4.18-2.78c-1-.94-1.39-2.59-1-4.89a67,67,0,0,1,2.9-10.76c1.46-4.12,2.86-8,4.23-11.56s2.86-7.15,4.45-10.81,3.3-7.33,5-11,3.4-7.27,5.15-10.83,3.41-7,5-10.46,3.11-6.63,4.52-9.76S76.71,231.45,77.8,228.73Z"/><path class="cls-1" d="M105,297.09c-.58,4.91-.21,8.73,1,11.53s3,3.68,5.35,2.48a26.7,26.7,0,0,0,6.88-5.44c2.37-2.46,5-5.44,7.82-8.88,2.65-3.2,5.09-6.25,7.32-9.12s4.28-5.38,6.13-7.52c.27-.25.37-.07.33.52a3.87,3.87,0,0,1-.19,1.41c-.58,1.39-2,4.28-4.41,8.64q-3.23,5.93-12.47,17.13c-4.2,5.07-8.24,8.52-12,10.36s-7.24,1.25-10.55-1.72a14.9,14.9,0,0,1-3.54-5.57A21.36,21.36,0,0,1,94.93,303a38.16,38.16,0,0,1,5.46-21.56c4.29-7.45,9.38-12.37,15.26-14.7q9-3.72,12.78,2.93,3.66,6.66-1.32,14.75c-3.29,5.39-6.83,9.16-10.53,11.28-3.88,2.26-7.31,2.69-10.23,1.28a4.31,4.31,0,0,0-.45-.25C105.37,296.5,105.07,296.62,105,297.09Zm17.38-16.31c2.19-3.91,3.08-6.65,2.67-8.18a2.4,2.4,0,0,0-3-1.92,14.53,14.53,0,0,0-5.85,2.94,22.94,22.94,0,0,0-5.58,6.46A41.69,41.69,0,0,0,106,291.84c-.12.43,0,.73.26.91q4.2,2.56,9.17-2.89A55.14,55.14,0,0,0,122.41,280.78Z"/><path class="cls-1" d="M209.28,205.88c.07-1.86,1.83-1.75,5.24.36s4.93,3.71,4.56,4.77a5,5,0,0,1-1.55,2.81,8,8,0,0,0-1.91,3.13c-2.13,3.94-5.27,10.75-9.48,20.47s-8.59,20.15-13.19,31.3S184,290.64,180,301s-7,18.2-8.84,23.45c-.16.33-.05.46.36.39a148.89,148.89,0,0,1,30.64-1.71q15.4.77,23.42,3.36a7,7,0,0,1,5.11,5.51c.53,2.68.59,4,.23,3.91a109.11,109.11,0,0,0-14.31-2.51q-8.65-1-18.15-1.25c-6.33-.15-12.56,0-18.7.41a75.83,75.83,0,0,0-15.8,2.57,14.13,14.13,0,0,1-9,3.32q-1.8,0-5.28-2.92t2.11-5.33a60.22,60.22,0,0,1,8-2.81,5.82,5.82,0,0,1,.45-1c.18-.31.38-.68.6-1.05q2.06-3.9,9.86-22.71T187,262.72q8.59-21.12,15.37-38.47T209.28,205.88Z"/><path class="cls-1" d="M220.14,297.09c-.59,4.91-.23,8.73,1.06,11.53s3,3.68,5.33,2.48a26.93,26.93,0,0,0,6.9-5.44c2.35-2.46,4.95-5.44,7.81-8.88,2.64-3.2,5.09-6.25,7.31-9.12s4.3-5.38,6.16-7.52c.24-.25.34-.07.3.52a4.47,4.47,0,0,1-.17,1.41c-.59,1.39-2.05,4.28-4.43,8.64q-3.21,5.93-12.47,17.13-6.31,7.61-12,10.36t-10.55-1.72a14.53,14.53,0,0,1-3.52-5.57A20.82,20.82,0,0,1,210,303a38.24,38.24,0,0,1,5.45-21.56c4.3-7.45,9.38-12.37,15.26-14.7q9-3.72,12.78,2.93t-1.29,14.75q-5,8.09-10.56,11.28c-3.88,2.26-7.31,2.69-10.24,1.28a2,2,0,0,0-.42-.25C220.47,296.5,220.18,296.62,220.14,297.09Zm17.39-16.31c2.18-3.91,3.07-6.65,2.65-8.18a2.38,2.38,0,0,0-3-1.92,14.35,14.35,0,0,0-5.83,2.94,22.54,22.54,0,0,0-5.6,6.46,42,42,0,0,0-4.66,11.76c-.11.43,0,.73.26.91,2.82,1.71,5.89.74,9.18-2.89A56.47,56.47,0,0,0,237.53,280.78Z"/><path class="cls-1" d="M257.37,297.09c-.59,4.91-.22,8.73,1.06,11.53s3,3.68,5.34,2.48a27.07,27.07,0,0,0,6.89-5.44c2.35-2.46,5-5.44,7.81-8.88,2.64-3.2,5.08-6.25,7.31-9.12s4.3-5.38,6.16-7.52c.24-.25.34-.07.31.52a3.83,3.83,0,0,1-.2,1.41c-.56,1.39-2,4.28-4.4,8.64q-3.21,5.93-12.48,17.13c-4.2,5.07-8.22,8.52-12,10.36s-7.24,1.25-10.56-1.72a14.9,14.9,0,0,1-3.55-5.57,21.35,21.35,0,0,1-1.77-7.93,38.07,38.07,0,0,1,5.45-21.56c4.3-7.45,9.38-12.37,15.26-14.7,6-2.48,10.25-1.5,12.78,2.93s2,9.36-1.29,14.75-6.83,9.16-10.55,11.28q-5.84,3.39-10.24,1.28a2.34,2.34,0,0,0-.45-.25C257.7,296.5,257.41,296.62,257.37,297.09Zm17.37-16.31c2.2-3.91,3.09-6.65,2.67-8.18a2.38,2.38,0,0,0-3-1.92,14.41,14.41,0,0,0-5.83,2.94,22.54,22.54,0,0,0-5.6,6.46,42.32,42.32,0,0,0-4.66,11.76c-.12.43,0,.73.26.91,2.83,1.71,5.86.74,9.18-2.89A55,55,0,0,0,274.74,280.78Z"/><path class="cls-1" d="M301.18,308.23c-1.48,2.39-2.8,4.66-3.94,6.82s-1.86,3.57-2.14,4.3c-.7,1.4-2.25.94-4.65-1.41a12,12,0,0,1-3.67-8.82,91.6,91.6,0,0,1,1-15.35c.36-2.86.89-6.11,1.57-9.75s1.51-8.16,2.52-13.53c.23-1.67,2.07-1.16,5.48,1.5s5.07,4.3,4.94,4.89c-.05.26-.12.61-.23,1.05a9.19,9.19,0,0,1-1.27,2.4,38.68,38.68,0,0,0-5.58,14.05,41.45,41.45,0,0,0-.86,13.77c0,.81.3.84.8.08q5.52-7.5,10.7-15.3a82.34,82.34,0,0,0,8.54-16.69,10.47,10.47,0,0,0,.62-2.78,27.36,27.36,0,0,1,.43-3.16q.44-2.51,5.52,1.5c3.38,2.67,5,4.29,5,4.9,0,.24-.14.61-.25,1.06a11.55,11.55,0,0,1-1.3,2.38,33.31,33.31,0,0,0-5.09,15.54,40.33,40.33,0,0,0,.18,10.76c.09,1,.38,1.13.88.44,2.85-3.55,5.66-7.27,8.43-11.2a126.58,126.58,0,0,0,10.18-17,49.5,49.5,0,0,0,5.21-18.06c0-.48,1.39-.1,4.18,1.08s3.19,4.12,1.16,8.76a83.41,83.41,0,0,1-8.72,15.32q-5.19,7.18-10.08,14.48c-2,3-4.09,6.33-6.33,10.14s-3.6,6.29-4.09,7.39c-.71,1.54-2,1.3-3.87-.7a25.52,25.52,0,0,1-3.46-4.28,9.88,9.88,0,0,1-1.12-4.54c-.24-3.16-.36-5.76-.36-7.78s.09-4.49.29-7.38c0-.86-.17-.94-.67-.26-1.71,2.47-3.38,5-5.05,7.67S302.72,305.7,301.18,308.23Z"/><path class="cls-1" d="M371.44,309.69a14.65,14.65,0,0,1,.23-7.1,83.29,83.29,0,0,1,2.79-8.69c.12-.72-.08-.81-.62-.27a111.44,111.44,0,0,0-11.35,15.68l-7.07,11.58c-.46.68-1.91.28-4.34-1.16a16,16,0,0,1-5.41-4.85A11.13,11.13,0,0,1,344,309a38.54,38.54,0,0,1,.5-7.39,53,53,0,0,1,1.69-7.36c.73-2.34,1.35-4.27,1.9-5.81a72.92,72.92,0,0,1,11.54-21.1q7.26-9.28,13.15-10c2.5-.26,4.51,1,6.09,3.67s2.25,7.41,2,14.1c1.12,0,2.93.63,5.4,1.87,2.82,1.49,3.6,2.87,2.36,4.15-2.07,2.08-4.2,5.89-6.38,11.39a79.74,79.74,0,0,0-2.61,7.73,26.29,26.29,0,0,0-1.12,7.1c0,.56.19.51.56-.13a41.2,41.2,0,0,1,3.87-4.43c2.05-2.17,4.3-4.41,6.74-6.77,2-1.95,4-3.79,6-5.49a43.38,43.38,0,0,1,4.76-3.71q2.73-1.74,1.86-.44a66.61,66.61,0,0,1-4.78,6.2c-2.15,2.52-3.67,4.42-4.53,5.69q-2.92,4.28-7.72,10.81c-3.22,4.35-5.09,7.11-5.62,8.31-.91,1.92-2.44,1.51-4.57-1.26S371.75,311.28,371.44,309.69Zm5.33-24.37c.36-2,.65-4.28.85-6.7a34.23,34.23,0,0,0,0-6.72c-.54-4.7-2-6.82-4.45-6.4a9.21,9.21,0,0,0-4.91,3.1,34.15,34.15,0,0,0-4.35,6,58.91,58.91,0,0,0-3.6,7.14q-1.55,3.68-2.42,6.17a90.45,90.45,0,0,0-2.85,9.46,78.51,78.51,0,0,0-1.56,8.13q-1,8.06,1.06,5.69c1.55-1.79,3.24-3.79,5.12-6s3.81-4.48,5.8-6.78,3.9-4.58,5.84-6.83S375.06,287.25,376.77,285.32Z"/><path class="cls-1" d="M412.87,302.21a9.42,9.42,0,0,0-.49,3.71c.07.77.34.8.8.13.91-1.4,3.73-4.5,8.45-9.27a134.89,134.89,0,0,1,10.11-9.41c3.43-3,5.07-4,4.91-3.14s-1.71,3-4.48,6.48c-.75.84-1.4,1.62-1.95,2.32s-1.07,1.33-1.52,1.89l-2.17,2.69q-3,3.64-7.83,10.68-4.71,6.57-5.45,8.44c-1,2.21-2.67,1.54-4.91-2.05s-3.37-6-3.28-7.47a17.38,17.38,0,0,1,.19-2.5,57.82,57.82,0,0,1,4.27-15.16,59.83,59.83,0,0,1,5.4-10.75c.3-.47.27-.81-.07-1a8.39,8.39,0,0,1-2.47-2.18.42.42,0,0,0-.63.07c-.53.63-1,1.26-1.51,1.85l-1.58,2q-2.07,2.5-4.11,5.18c-1.72,2.18-3.22,3.93-4.46,5.25-.75.85-1.48,1.69-2.2,2.53s-1.43,1.64-2.16,2.39c-2.93,3.16-5.13,4.45-6.62,3.84-.33-.13.84-2,3.54-5.62.91-1.28,2.31-3.16,4.22-5.63,1.65-2.14,3-4,4.14-5.7.68-.9,1.37-1.82,2.12-2.8s1.42-2,2.06-3,1.26-2,1.94-3a7.91,7.91,0,0,0,1.28-3.39c.16-1.67.28-3.13.34-4.38a10.53,10.53,0,0,1,.89-3.75,29.71,29.71,0,0,1,2.11-3.74,11.91,11.91,0,0,1,3.91-3.61c.5-.3,1.21-.13,2.12.51a22.35,22.35,0,0,0,3.21,1.85c2.4,1.21,3.24,2.47,2.49,3.77A34.56,34.56,0,0,1,420.4,264a10.71,10.71,0,0,0-2.07,2.5c-1.28,2.12-1.11,4.34.49,6.65a17.41,17.41,0,0,0,2.61,3.25l1.72,1.82a9.11,9.11,0,0,0,1.27,1.25c.79.78.87,1.42.28,2a7.63,7.63,0,0,1-1.83,1.23,7.28,7.28,0,0,0-2.92,2.95,50.6,50.6,0,0,0-4.09,7.75A62.49,62.49,0,0,0,412.87,302.21Z"/><path class="cls-1" d="M484.36,229.88c.58-1.62,2.36-1.15,5.33,1.46s4.34,4.28,4.1,4.87a2,2,0,0,0-.24.48c-.1.19-.18.42-.32.66a11.39,11.39,0,0,1-2.16,2.3,28.89,28.89,0,0,0-4.35,6.08q-2.24,3.66-6.15,11.27c-2.32,4.56-4.47,9-6.45,13.42-2.19,4.7-4.25,9.4-6.15,14.14s-3.43,8.83-4.59,12.28a55.09,55.09,0,0,0-2.54,9.73c-.13,1.53.23,1.66,1.06.38a35.77,35.77,0,0,1,4.59-5.06q3-3.06,7.76-7.36c2.31-2.08,4.7-4.13,7.14-6.13a4.79,4.79,0,0,1,2.06-1.25c.4,0,.52.1.35.34a48.23,48.23,0,0,1-4.47,5.77,64.11,64.11,0,0,0-4.47,5.57c-2.1,2.94-4.38,6.05-6.82,9.36a102.16,102.16,0,0,0-6.44,9.75c-.76,1.28-2.18,1-4.23-.89a17.86,17.86,0,0,1-3.91-4.16,8.47,8.47,0,0,1-.37-5.5,91.35,91.35,0,0,1,3-11.38c.3-.94.09-1-.67-.24a72.81,72.81,0,0,0-10.92,13.92c-1.82,2.86-3.3,5.19-4.44,7s-1.95,3.11-2.44,3.86-1.91.37-4.35-1.08a15.42,15.42,0,0,1-5.4-4.85c-1.61-2.32-2.16-5.92-1.61-10.82a53.38,53.38,0,0,1,3.16-13.75c1.5-4.05,4.31-9,8.51-14.91s8.76-8.7,13.77-8.43,7.89,5.3,8.81,14.77c.12,1.15.37,1.28.74.37,1.7-4.21,3.69-8.8,6-13.73q2.55-5.72,6.26-13.63c1-2.18,2-4.35,3-6.53s1.95-4.3,2.94-6.39Q482.14,235.37,484.36,229.88Zm-27.79,59.29a48.3,48.3,0,0,0-.32-11.15q-.93-5.29-4.66-4.66-7,1.33-11.92,13.74t-4.95,19.07c-.09,4.85.59,6.47,2,4.8.91-1.1,2.35-2.82,4.34-5.12.78-.83,1.57-1.7,2.35-2.59l2.43-2.65c.88-1,1.76-1.95,2.71-2.91s1.83-1.93,2.75-3C453.12,292.81,454.85,291,456.57,289.17Z"/><path class="cls-1" d="M508.7,330.28c-.67,1-2.93.82-6.75-.4s-5.16-2.64-4-4.26a5.2,5.2,0,0,1,1.2-1.53,9.54,9.54,0,0,0,1.76-2.57q10.05-21.75,20.27-44.25t18.22-44.2c.23-.9.16-1.32-.25-1.28-5.1.78-11,1.89-17.7,3.37s-13,3.1-18.79,4.89c-1.25.37-1.78-1-1.62-4.26s2.21-5.55,6.13-7q7-2.64,23-5.48t33.52-5.18q17.49-2.34,32.75-3.84t20.86-1.5a4.65,4.65,0,0,1,4.74,3.2c.82,2.12.72,3.24-.27,3.32-4,.42-9.53,1-16.38,1.77s-13.81,1.55-20.83,2.42-13.42,1.76-19.27,2.63a89.77,89.77,0,0,0-11.72,2.26,4,4,0,0,0-2.41,1.91q-6.6,13-13.91,30t-13.56,32.33Q517.51,308,513.28,318.8T508.7,330.28Z"/><path class="cls-1" d="M555.1,297.09c-.59,4.91-.23,8.73,1,11.53s3,3.68,5.34,2.48a26.73,26.73,0,0,0,6.89-5.44c2.37-2.46,5-5.44,7.81-8.88,2.65-3.2,5.1-6.25,7.33-9.12s4.28-5.38,6.15-7.52c.24-.25.34-.07.29.52a4.19,4.19,0,0,1-.17,1.41c-.58,1.39-2,4.28-4.41,8.64q-3.23,5.93-12.47,17.13c-4.23,5.07-8.23,8.52-12,10.36s-7.24,1.25-10.55-1.72a14.78,14.78,0,0,1-3.54-5.57A21.58,21.58,0,0,1,545,303a38.32,38.32,0,0,1,5.45-21.56c4.3-7.45,9.39-12.37,15.28-14.7,6-2.48,10.24-1.5,12.77,2.93s2,9.36-1.31,14.75-6.83,9.16-10.53,11.28c-3.9,2.26-7.3,2.69-10.26,1.28a1.9,1.9,0,0,0-.43-.25C555.44,296.5,555.14,296.62,555.1,297.09Zm17.38-16.31c2.19-3.91,3.06-6.65,2.67-8.18a2.42,2.42,0,0,0-3-1.92,14.56,14.56,0,0,0-5.84,2.94,23,23,0,0,0-5.59,6.46A42,42,0,0,0,556,291.84a.73.73,0,0,0,.24.91c2.83,1.71,5.88.74,9.19-2.89A55.71,55.71,0,0,0,572.48,280.78Z"/><path class="cls-1" d="M608,309.69a14.67,14.67,0,0,1,.25-7.1,76.51,76.51,0,0,1,2.78-8.69c.12-.72-.09-.81-.62-.27a108.33,108.33,0,0,0-11.35,15.68q-5.72,9.35-7.07,11.58c-.46.68-1.91.28-4.36-1.16a15.83,15.83,0,0,1-5.39-4.85,11,11,0,0,1-1.69-5.86,37.81,37.81,0,0,1,.52-7.39,50.3,50.3,0,0,1,1.69-7.36c.73-2.34,1.37-4.27,1.89-5.81a73,73,0,0,1,11.56-21.1q7.23-9.28,13.14-10c2.48-.26,4.52,1,6.09,3.67s2.25,7.41,2,14.1c1.12,0,2.92.63,5.41,1.87,2.8,1.49,3.6,2.87,2.34,4.15-2,2.08-4.18,5.89-6.38,11.39q-1.49,3.76-2.61,7.73a26.29,26.29,0,0,0-1.12,7.1c0,.56.19.51.57-.13a40.52,40.52,0,0,1,3.88-4.43c2-2.17,4.28-4.41,6.72-6.77,2-1.95,4-3.79,6-5.49a44.44,44.44,0,0,1,4.75-3.71q2.73-1.74,1.86-.44a64.1,64.1,0,0,1-4.76,6.2,72.18,72.18,0,0,0-4.54,5.69q-2.94,4.28-7.73,10.81a66.82,66.82,0,0,0-5.62,8.31c-.91,1.92-2.44,1.51-4.56-1.26S608.36,311.28,608,309.69Zm5.32-24.37c.39-2,.65-4.28.87-6.7a35.85,35.85,0,0,0,0-6.72c-.54-4.7-2-6.82-4.46-6.4a9.21,9.21,0,0,0-4.91,3.1,34.63,34.63,0,0,0-4.34,6,60.4,60.4,0,0,0-3.6,7.14c-1,2.45-1.84,4.51-2.42,6.17a83.68,83.68,0,0,0-2.84,9.46,76.24,76.24,0,0,0-1.57,8.13q-1,8.06,1.06,5.69l5.13-6c1.88-2.21,3.81-4.48,5.79-6.78s3.89-4.58,5.85-6.83S611.67,287.25,613.36,285.32Z"/><path class="cls-1" d="M680.7,306c-.13,1.13,0,1.76.4,1.85s.77-.13,1.14-.63c.65-.82,1.87-2.3,3.63-4.47s3.64-4.22,5.62-6.22a116.61,116.61,0,0,1,9.63-8.68q5-3.91,4.46-2.71a22.24,22.24,0,0,1-4.57,6.31,50.41,50.41,0,0,0-4.75,5.52l-7.82,10.94a94.22,94.22,0,0,0-6.25,10.16c-.51.9-1.37,1-2.62.27a11.76,11.76,0,0,1-3.53-3.52,9.14,9.14,0,0,1-1.64-4.54,31,31,0,0,1-.15-4.93,42,42,0,0,1,1.88-10.58q1.71-5.65,3.38-9.82c.51-1.2.56-1.79.19-1.76a1.74,1.74,0,0,0-.75.16,57.49,57.49,0,0,0-13.34,16.24A101.33,101.33,0,0,0,658,316.27c-.48,1.38-.67,2-.56,2v.12a4.39,4.39,0,0,1-4-.84,5.13,5.13,0,0,1-2.51-3.3c-.75-4.24.35-10,3.29-17.32a130.21,130.21,0,0,1,7.44-16.15c.71-1.23.92-1.95.62-2.14s-.49-.22-.62-.1q-8.13,6.27-15.38,18.62t-11.18,19.18a12.45,12.45,0,0,0-1,2.5c-.33,1-.68,1.53-1,1.53a9.87,9.87,0,0,1-4.35-1.36c-1.73-.92-2.42-2.47-2-4.64a87.59,87.59,0,0,1,4.64-16.79q2.91-7.33,9.12-22.67,1-2.51,5.22,1.47c2.8,2.63,4.09,4.25,3.84,4.85-.12.21-.28.55-.49,1a14,14,0,0,1-1.8,2.42A51.43,51.43,0,0,0,640,296.1a72.93,72.93,0,0,0-4.48,12c-.09.25-.07.41,0,.47s.32-.09.56-.47q2.37-4.37,6-10.71t7.41-12.45q3.75-6.07,6.83-10.73a36.08,36.08,0,0,1,4.28-5.7c.87-.73,3.15-.09,6.82,1.91s5.46,4,5.28,5.88q-.09,1.35-4.54,8.32a90.19,90.19,0,0,0-7.61,14.84c-.2.43-.22.71-.06.83s.36,0,.62-.44a181.71,181.71,0,0,1,9.92-15.9q5.48-7.83,7.59-9.82c.73-.72,2.64-.08,5.69,2s5.13,3.87,6.21,5.53c.42.67-1,3.6-4.31,8.76A34.5,34.5,0,0,0,680.7,306Z"/><path class="cls-1" d="M118.64,398.73a29.08,29.08,0,0,1-7.9,1c-7.68,0-12.32-3.33-12.32-8.61,0-3.89,2.29-7.6,6.45-10a22.73,22.73,0,0,1,11.49-2.77,17.86,17.86,0,0,1,6.6,1l-1.22,2a18,18,0,0,0-6-.85,16.39,16.39,0,0,0-8.7,2.34,9.46,9.46,0,0,0-4.65,7.87c0,3.69,2.49,6.76,9.24,6.76a21.48,21.48,0,0,0,6.51-.89Z"/><path class="cls-1" d="M135.86,399.36a26.28,26.28,0,0,1,.49-3.82h-.08a10.24,10.24,0,0,1-8.48,4.18c-3.88,0-6.27-2.09-6.27-4.92,0-5.18,5.59-10.62,15.07-10.62a31.83,31.83,0,0,1,5.86.55l-2.21,7.77a22.9,22.9,0,0,0-.9,6.86Zm2.37-12.94a11.66,11.66,0,0,0-2.55-.21c-5.65,0-10.28,4-10.28,8.12,0,1.67.85,3.3,3.69,3.3,3.16,0,6.86-2.78,7.89-6.74Z"/><path class="cls-1" d="M144.12,399.36l6.08-21.76H154l-6.08,21.76Z"/><path class="cls-1" d="M153.58,399.36l2.95-10.52c.45-1.65.76-3.1,1-4.32h3.3l-.6,2.79h.14a10.57,10.57,0,0,1,7.66-3.13c3.34,0,4.92,1.44,5.1,3.32a10.6,10.6,0,0,1,8-3.32c2.54,0,5.32,1.1,5.32,3.89a11,11,0,0,1-.34,2.53l-2.44,8.76H180l2.35-8.55a6.46,6.46,0,0,0,.32-1.94c0-1.56-.86-2.57-3.29-2.57a7.55,7.55,0,0,0-6.85,5.46l-2.1,7.6H166.8l2.44-8.71a6.34,6.34,0,0,0,.28-1.81c0-1.25-.5-2.54-3.25-2.54a8,8,0,0,0-7,5.63l-2.05,7.43Z"/><path class="cls-1" d="M189.25,399.36l4.14-14.84h3.75L193,399.36Zm7-17.56c-1.31,0-2.21-.72-2.21-1.67s1.17-1.81,2.57-1.81,2.35.7,2.35,1.67-1.18,1.81-2.66,1.81Z"/><path class="cls-1" d="M198.8,399.36l2.89-10.52a43,43,0,0,0,1-4.32h3.38l-.59,2.92h.1a11.09,11.09,0,0,1,8.11-3.26c2.58,0,5.51,1,5.51,4.12a10.41,10.41,0,0,1-.39,2.39l-2.46,8.67H212.7l2.4-8.59a8.46,8.46,0,0,0,.26-1.9c0-1.46-.86-2.57-3.43-2.57a8.31,8.31,0,0,0-7.45,5.86l-2,7.2Z"/><path class="cls-1" d="M222.27,402.75a15.77,15.77,0,0,0,5.76,1c3.71,0,6.6-1.26,7.86-5.28l.73-2.24h-.09a10,10,0,0,1-7.59,3.15c-4.42,0-6.67-2.51-6.67-5.15,0-5.06,5.4-10,13.84-10a25.6,25.6,0,0,1,7,1l-3.39,12.28c-.86,3.16-2.13,5.32-4.38,6.67a16,16,0,0,1-7.62,1.6,17.93,17.93,0,0,1-6.54-1Zm16.79-16a12.87,12.87,0,0,0-3.62-.51c-5.46,0-9.26,3.9-9.26,7.58,0,1.65.87,3.56,4.2,3.56a8.2,8.2,0,0,0,7.26-5.69Z"/><path class="cls-1" d="M261.92,381l-1,3.56h5.24l-.6,2h-5.22l-2,7.25a7.61,7.61,0,0,0-.45,2.36c0,.89.64,1.44,2.07,1.44a9.16,9.16,0,0,0,1.76-.13l-.17,2a11.7,11.7,0,0,1-2.89.29c-3.3,0-4.6-1.37-4.6-2.9a10.13,10.13,0,0,1,.49-2.8l2.13-7.51h-3.13l.55-2h3.1l.78-2.72Z"/><path class="cls-1" d="M265.57,399.36l6.09-21.76h3.76l-2.72,9.52h.1a10.91,10.91,0,0,1,7.79-2.94c2.48,0,5.43,1,5.43,4a9.08,9.08,0,0,1-.37,2.48l-2.44,8.71h-3.73l2.43-8.59a7.81,7.81,0,0,0,.27-2c0-1.35-.94-2.43-3.38-2.43a8.23,8.23,0,0,0-7.44,5.63l-2,7.43Z"/><path class="cls-1" d="M304.6,398.54a21.72,21.72,0,0,1-7.22,1.18c-5.78,0-8.3-2.71-8.3-6,0-4.47,4.88-9.54,11.92-9.54,4.14,0,6.4,1.7,6.4,3.84,0,3.91-6.44,4.9-14.52,4.82a4.28,4.28,0,0,0,.45,2.81c.84,1.36,2.61,2,4.88,2a16.9,16.9,0,0,0,5.85-1Zm-.81-10.49c0-1.2-1.35-1.87-3.34-1.87a7.68,7.68,0,0,0-7.12,4.69c5.87.05,10.46-.48,10.46-2.8Z"/><path class="cls-1" d="M319.36,399.36l-1.49-20.68h3.75l.66,12.4c.1,2.68.06,4.08,0,5.39h.1a57.93,57.93,0,0,1,3.12-5.23l8.43-12.56h4l.62,11.92a50.18,50.18,0,0,1,.05,5.82h.09c.9-1.77,1.8-3.43,3-5.31l8.22-12.43h3.93l-14.12,20.68h-4L335,387.61a28,28,0,0,1,.07-5.94h-.12a48.06,48.06,0,0,1-3.08,5.43l-8.49,12.26Z"/><path class="cls-1" d="M351.17,399.36l4.15-14.84h3.75l-4.15,14.84Zm7-17.56c-1.31,0-2.21-.72-2.21-1.67s1.18-1.81,2.58-1.81,2.33.7,2.33,1.67-1.17,1.81-2.66,1.81Z"/><path class="cls-1" d="M360.73,399.36l2.89-10.52a36.09,36.09,0,0,0,1-4.32H368l-.58,2.92h.09a11.09,11.09,0,0,1,8.11-3.26c2.57,0,5.51,1,5.51,4.12a10.46,10.46,0,0,1-.4,2.39l-2.44,8.67h-3.69l2.38-8.59a7.91,7.91,0,0,0,.27-1.9c0-1.46-.86-2.57-3.42-2.57a8.31,8.31,0,0,0-7.45,5.86l-2,7.2Z"/><path class="cls-1" d="M407.2,377.6l-4.82,17.08a29.81,29.81,0,0,0-.9,4.68h-3.43l.58-2.94h-.09a10.55,10.55,0,0,1-7.9,3.3c-4.18,0-6.49-2.37-6.49-5.41,0-5.29,5.78-10.13,13.5-10.13a14.13,14.13,0,0,1,3.86.52l1.94-7.1Zm-6.32,9.25a8.43,8.43,0,0,0-3.55-.64c-5.25,0-9.29,3.8-9.29,7.75,0,1.79.9,3.67,4.1,3.67a8,8,0,0,0,7.3-5.59Z"/><path class="cls-1" d="M407.08,396.82a13,13,0,0,0,4.69.92c2.52,0,4.15-1.1,4.15-2.41s-.78-1.9-3.08-2.77c-2.52-.94-3.91-2.25-3.91-3.77,0-2.61,3.29-4.61,7.93-4.61a12.7,12.7,0,0,1,4.51.73l-1,1.94a10.45,10.45,0,0,0-3.76-.67c-2.29,0-3.92,1-3.92,2.23,0,1.09,1,1.75,3,2.48,2.45,1,4.06,2.25,4.06,3.93,0,3.14-3.69,4.9-8.35,4.9a13.74,13.74,0,0,1-5.41-1Z"/><path class="cls-1" d="M439.06,399.72c-5.45,0-8.53-2.77-8.53-6.12,0-4.9,5-9.42,12.1-9.42,5.91,0,8.56,3,8.56,6.17,0,4.6-4.78,9.37-12.08,9.37Zm.45-2a7.87,7.87,0,0,0,7.76-7.34c0-1.72-1.17-4.14-5.09-4.14a7.73,7.73,0,0,0-7.81,7.3c0,2.42,2,4.18,5.09,4.18Z"/><path class="cls-1" d="M453.55,399.36l3.56-12.85h-2.89l.55-2h2.92l.18-.8a8.36,8.36,0,0,1,3.56-5.16,10.36,10.36,0,0,1,5.21-1.32,8.69,8.69,0,0,1,3,.4l-.82,2a7.27,7.27,0,0,0-2.19-.27c-3,0-4.43,2-5.07,4.4l-.18.72h4.86l-.58,2h-4.81l-3.57,12.85Z"/><path class="cls-1" d="M493.52,398.73a28.82,28.82,0,0,1-7.89,1c-7.68,0-12.32-3.33-12.32-8.61,0-3.89,2.31-7.6,6.45-10a22.77,22.77,0,0,1,11.5-2.77,17.68,17.68,0,0,1,6.58,1l-1.21,2a17.85,17.85,0,0,0-6-.85,16.51,16.51,0,0,0-8.71,2.34,9.49,9.49,0,0,0-4.65,7.87c0,3.69,2.49,6.76,9.27,6.76a21.41,21.41,0,0,0,6.48-.89Z"/><path class="cls-1" d="M496.56,399.36l6.08-21.76h3.74l-2.71,9.52h.09a11,11,0,0,1,7.8-2.94c2.5,0,5.42,1,5.42,4a9.47,9.47,0,0,1-.36,2.48l-2.43,8.71h-3.75l2.44-8.59a8.26,8.26,0,0,0,.27-2c0-1.35-.94-2.43-3.38-2.43a8.23,8.23,0,0,0-7.44,5.63l-2.05,7.43Z"/><path class="cls-1" d="M534.35,399.36a30.94,30.94,0,0,1,.48-3.82h-.08a10.23,10.23,0,0,1-8.48,4.18c-3.87,0-6.27-2.09-6.27-4.92,0-5.18,5.61-10.62,15.07-10.62a31.77,31.77,0,0,1,5.87.55l-2.21,7.77a22.58,22.58,0,0,0-.9,6.86Zm2.39-12.94a11.88,11.88,0,0,0-2.57-.21c-5.64,0-10.29,4-10.29,8.12,0,1.67.86,3.3,3.72,3.3,3.14,0,6.85-2.78,7.88-6.74Z"/><path class="cls-1" d="M542.61,399.36l2.9-10.52a42.67,42.67,0,0,0,1-4.32h3.38l-.58,2.92h.07a11.18,11.18,0,0,1,8.14-3.26c2.56,0,5.5,1,5.5,4.12a9.51,9.51,0,0,1-.41,2.39l-2.44,8.67h-3.69l2.38-8.59a7.91,7.91,0,0,0,.27-1.9c0-1.46-.85-2.57-3.42-2.57a8.29,8.29,0,0,0-7.43,5.86l-2,7.2Z"/><path class="cls-1" d="M566.08,402.75a15.71,15.71,0,0,0,5.77,1c3.69,0,6.58-1.26,7.85-5.28l.72-2.24h-.09a10,10,0,0,1-7.58,3.15c-4.43,0-6.67-2.51-6.67-5.15,0-5.06,5.41-10,13.84-10a25.27,25.27,0,0,1,7,1l-3.37,12.28c-.86,3.16-2.13,5.32-4.39,6.67a16,16,0,0,1-7.61,1.6,18.07,18.07,0,0,1-6.55-1Zm16.77-16a12.63,12.63,0,0,0-3.59-.51c-5.47,0-9.25,3.9-9.25,7.58-.06,1.65.84,3.56,4.18,3.56a8.2,8.2,0,0,0,7.26-5.69Z"/><path class="cls-1" d="M604.42,398.54a21.75,21.75,0,0,1-7.21,1.18c-5.78,0-8.31-2.71-8.31-6,0-4.47,4.88-9.54,11.9-9.54,4.16,0,6.42,1.7,6.42,3.84,0,3.91-6.45,4.9-14.53,4.82a4.34,4.34,0,0,0,.45,2.81c.86,1.36,2.62,2,4.87,2a16.89,16.89,0,0,0,5.87-1Zm-.81-10.49c0-1.2-1.36-1.87-3.34-1.87a7.71,7.71,0,0,0-7.13,4.69c5.86.05,10.47-.48,10.47-2.8Z"/><path class="cls-2" d="M969.74,413.88s42.18,10,66.74-1.92c4.16-3.81-26.42-12.41-91.29-6.68-44.49,7.17-108.62,9.31-65.34-6.21,0,0,65.08-3.73,107,1,38.45,4.3,72.3-2.39,80.17-4.78,0,0-62.79,5-105.2,0-40.78-4.78-127.68-4-99.64,19.58,22.37,9,72.76-6.68,89.44-7.65,0,0,69.06-4.76,78.79,3.84C1029.76,414.72,999.42,416.74,969.74,413.88Z"/><path class="cls-2" d="M843.86,381.47s17.73-6.15,28,1.16c1.75,2.35-11.1,7.6-38.37,4.1-18.69-4.38-45.64-5.7-27.45,3.81,0,0,27.36,2.28,45-.59,16.15-2.64,30.36,1.46,33.68,2.91,0,0-26.39-3-44.2,0-17.14,2.94-53.66,2.45-41.87-12,9.4-5.48,30.57,4.1,37.58,4.69,0,0,29,2.9,33.1-2.35C869.08,381,856.32,379.71,843.86,381.47Z"/><path class="cls-2" d="M1093.15,379.4s17.72-6.14,28,1.16c1.74,2.34-11.1,7.6-38.37,4.1-18.7-4.39-45.63-5.7-27.45,3.79,0,0,27.34,2.29,45-.59,16.15-2.62,30.38,1.46,33.68,2.93,0,0-26.39-3-44.19,0-17.15,2.92-53.66,2.46-41.88-12,9.4-5.5,30.57,4.09,37.59,4.67,0,0,29,2.94,33.1-2.33C1118.36,378.89,1105.59,377.63,1093.15,379.4Z"/><path class="cls-3" d="M761.84,97.81s9.4,197.39,150.5,270.79C912.34,368.6,755.34,371.63,761.84,97.81Z"/><path class="cls-3" d="M759.83,149.76,693.31,33.41s-44.69,158.24,49,288.09c0,0,15.12,18.7,64.51,17.15,0,0-119.94-42.08-112.89-289.31Z"/><path class="cls-3" d="M673.81,0s36.28,24.41,82.66,101.28L727.23,76.35S691.27,16.1,673.81,0Z"/><path class="cls-1" d="M1002.62,342.8l58.21,21.3s-26.71,39.73-60.22,31.41-74.83-11.16-78.87-11.94,65.27-5.72,94.74-7.79,44.35-11.95,15.63-17.4-34.77-7.79-34.77-7.79Z"/><path class="cls-1" d="M774.09,342.28l100.78,32.21S811.39,369.28,774.09,342.28Z"/><path class="cls-3" d="M792.75,120S949,262.82,991.8,309c0,0,70,69.59-103.81,65.45,0,0,71-6.93,83.81-13.52s44-19.72,18.13-45S794.25,122.57,792.75,120Z"/></g></g></svg>