<svg xmlns="http://www.w3.org/2000/svg" viewBox="0 0 287.37 67.33"><defs><style>.cls-1{fill:#fff;}</style></defs><title>Asset 3</title><g id="Layer_2" data-name="Layer 2"><g id="Layer_1-2" data-name="Layer 1"><path class="cls-1" d="M251.77-527.89l-2.21,10c-14.61-.74-33.47,3.1-50.19,9.29L195-489.65l-12.48,3.52,4-16.94a91.77,91.77,0,0,0-14.88,8.8l-2.89,12L156-478.67l11.9-50.88,12.72-3.54-6.08,26a118,118,0,0,1,14.53-7.43L194.42-537l12.43-3.47L202-519.56c17.18-6,36.5-10,49.79-8.33m-29-7.9c.28-2.35-.82-5.62-5.11-5.62-3.68,0-7.12,2.83-8.18,8.39s1.13,8.35,4.94,8.35c3.59,0,6.08-2.41,7.35-5.86h-3c-.73,1.94-2.09,3-3.74,3-2.54,0-3.05-2.57-2.51-5.43.86-4.49,3.18-5.56,4.62-5.56,2.46,0,2.58,1.8,2.63,2.75Zm1.34,2.66c-.38,2-.13,5.32,5.09,5.32,1.26,0,5.73-.42,6.64-5.21.54-2.86-1.08-3.74-2.93-4.27l-3.3-1c-.57-.15-1.44-.42-1.2-1.66a2.65,2.65,0,0,1,2.86-1.9c2.61,0,2.52,1.68,2.47,2.38h2.87c.35-1.94-.22-5.13-4.6-5.13-4.65,0-6.1,3.12-6.44,4.89-.67,3.51,1.45,4.08,3.65,4.67l1.46.41c1.44.39,2.45.72,2.22,2-.33,1.68-2,2.06-3.39,2.06-2.61,0-2.69-1.68-2.54-2.57Zm14.53-1.44c-.37,2-.12,5.31,5.11,5.31,1.25,0,5.72-.42,6.63-5.2.55-2.85-1.08-3.74-2.93-4.28l-3.31-1c-.57-.16-1.43-.42-1.2-1.66a2.68,2.68,0,0,1,2.86-1.9c2.61,0,2.53,1.68,2.47,2.39h2.88c.35-1.95-.21-5.14-4.6-5.14-4.65,0-6.1,3.12-6.44,4.9-.67,3.5,1.45,4.07,3.65,4.67l1.46.39c1.43.41,2.45.74,2.21,2-.31,1.68-2,2.06-3.38,2.06-2.61,0-2.69-1.69-2.54-2.57Z" transform="translate(-156 546)"/><path class="cls-1" d="M271.3-497.34a17.29,17.29,0,0,1-6.74-6.54,18.47,18.47,0,0,1-2.48-9.56,18.5,18.5,0,0,1,2.48-9.57,17.29,17.29,0,0,1,6.74-6.54,19.45,19.45,0,0,1,9.45-2.32,17.93,17.93,0,0,1,9.28,2.19,16.78,16.78,0,0,1,5.86,5.86l-6.5,3.2a9.67,9.67,0,0,0-3.5-3.7,9.39,9.39,0,0,0-5.14-1.47,10.07,10.07,0,0,0-5.55,1.6,11,11,0,0,0-3.92,4.43,14,14,0,0,0-1.42,6.32,13.91,13.91,0,0,0,1.42,6.31,11,11,0,0,0,3.92,4.43,10.07,10.07,0,0,0,5.55,1.6,9.52,9.52,0,0,0,5.17-1.44,9.47,9.47,0,0,0,3.47-3.73l6.5,3.15q-5.07,8.1-15.14,8.1A19.45,19.45,0,0,1,271.3-497.34Z" transform="translate(-156 546)"/><path class="cls-1" d="M315.56-498.38a9.21,9.21,0,0,1-3.49,2.46,12,12,0,0,1-4.67.9,9.9,9.9,0,0,1-4.24-1,8.33,8.33,0,0,1-3.39-2.91,8.13,8.13,0,0,1-1.33-4.69,7.78,7.78,0,0,1,1.33-4.68,7.87,7.87,0,0,1,3.36-2.7,10.86,10.86,0,0,1,4.27-.86,13.56,13.56,0,0,1,4.75.8,8,8,0,0,1,3.41,2.35v-3.63a4.48,4.48,0,0,0-1.55-3.57,6.06,6.06,0,0,0-4.1-1.33,10.82,10.82,0,0,0-7.53,3l-2.56-4.37a16.05,16.05,0,0,1,5.2-2.68,20.39,20.39,0,0,1,6.06-.9,13.42,13.42,0,0,1,8.11,2.29q3.13,2.3,3.14,7.47v16.64h-6.77Zm0-6.49a5.12,5.12,0,0,0-2.27-1.51,9.33,9.33,0,0,0-3.17-.53,6,6,0,0,0-3.47,1,3,3,0,0,0-1.39,2.59,2.91,2.91,0,0,0,1.39,2.53,6.18,6.18,0,0,0,3.47.92,9.1,9.1,0,0,0,3.17-.54,5,5,0,0,0,2.27-1.5Z" transform="translate(-156 546)"/><path class="cls-1" d="M328.13-521.47h6.77v3.52a11.3,11.3,0,0,1,3.63-3,9.58,9.58,0,0,1,4.58-1.2v6.29a8.7,8.7,0,0,0-1.86-.21,8.81,8.81,0,0,0-3.63.87A6,6,0,0,0,334.9-513v17.33h-6.77Z" transform="translate(-156 546)"/><path class="cls-1" d="M346.42-515.4a12.79,12.79,0,0,1,4.74-4.89,13.08,13.08,0,0,1,6.88-1.82,12.55,12.55,0,0,1,6.72,1.79,12,12,0,0,1,4.56,5,16.11,16.11,0,0,1,1.63,7.39v1.49H351.8a7.35,7.35,0,0,0,2.3,4.65,7.15,7.15,0,0,0,5.12,1.86,10.76,10.76,0,0,0,3.76-.7,8.87,8.87,0,0,0,3.12-1.86l3,4.21a13,13,0,0,1-4.69,2.4,20.32,20.32,0,0,1-5.92.85,14.7,14.7,0,0,1-7-1.68,12.28,12.28,0,0,1-4.93-4.76,13.81,13.81,0,0,1-1.79-7.13A13.75,13.75,0,0,1,346.42-515.4Zm7.14,0a7,7,0,0,0-1.82,4.08h12.65a6.76,6.76,0,0,0-1.73-4.05A5.78,5.78,0,0,0,358-517.2,5.71,5.71,0,0,0,353.56-515.42Z" transform="translate(-156 546)"/><path class="cls-1" d="M375.37-515.4a12.89,12.89,0,0,1,4.75-4.89,13.08,13.08,0,0,1,6.88-1.82,12.55,12.55,0,0,1,6.72,1.79,12,12,0,0,1,4.56,5,16.11,16.11,0,0,1,1.63,7.39v1.49H380.76a7.34,7.34,0,0,0,2.29,4.65,7.18,7.18,0,0,0,5.12,1.86,10.68,10.68,0,0,0,3.76-.7,8.69,8.69,0,0,0,3.12-1.86l3,4.21a13,13,0,0,1-4.69,2.4,20.37,20.37,0,0,1-5.92.85,14.68,14.68,0,0,1-7-1.68,12.3,12.3,0,0,1-4.94-4.76,13.9,13.9,0,0,1-1.78-7.13A13.74,13.74,0,0,1,375.37-515.4Zm7.15,0a7,7,0,0,0-1.83,4.08h12.66a6.78,6.78,0,0,0-1.74-4.05A5.75,5.75,0,0,0,387-517.2,5.71,5.71,0,0,0,382.52-515.42Z" transform="translate(-156 546)"/><path class="cls-1" d="M404.08-521.47h6.77v3.52a11.52,11.52,0,0,1,3.63-3,9.59,9.59,0,0,1,4.59-1.2v6.29a8.79,8.79,0,0,0-1.87-.21,8.81,8.81,0,0,0-3.63.87,6.08,6.08,0,0,0-2.72,2.12v17.33h-6.77Z" transform="translate(-156 546)"/><path class="cls-1" d="M423.63-503.44a13.73,13.73,0,0,0,4.06,2.45,12.62,12.62,0,0,0,4.85,1.07,5.33,5.33,0,0,0,3.23-.82,2.67,2.67,0,0,0,1.09-2.26,2.43,2.43,0,0,0-1.28-2.21,15,15,0,0,0-3.89-1.38,37.27,37.27,0,0,1-5.12-1.23,8.34,8.34,0,0,1-3.52-2.23,5.9,5.9,0,0,1-1.5-4.27,6.73,6.73,0,0,1,1.25-3.9,8.53,8.53,0,0,1,3.66-2.84,14,14,0,0,1,5.65-1.05,16.76,16.76,0,0,1,10.4,3.34l-2.72,4.55a9.51,9.51,0,0,0-3.28-2.13,11.19,11.19,0,0,0-4.34-.85,5.57,5.57,0,0,0-3,.67,2.08,2.08,0,0,0-1.1,1.85,1.89,1.89,0,0,0,1.2,1.77,18.4,18.4,0,0,0,3.71,1.15,34.21,34.21,0,0,1,5.17,1.33,8.82,8.82,0,0,1,3.63,2.47,6.68,6.68,0,0,1,1.55,4.65,7.37,7.37,0,0,1-1.31,4.26,8.53,8.53,0,0,1-3.84,3,15.24,15.24,0,0,1-6,1.07,20.55,20.55,0,0,1-6.43-1,14.48,14.48,0,0,1-5.09-2.75Z" transform="translate(-156 546)"/></g></g></svg>