<?xml version="1.0" encoding="utf-8"?>
<!-- Generator: Adobe Illustrator 24.0.0, SVG Export Plug-In . SVG Version: 6.00 Build 0)  -->
<svg version="1.1" id="Layer_1" xmlns="http://www.w3.org/2000/svg" xmlns:xlink="http://www.w3.org/1999/xlink" x="0px" y="0px"
	 viewBox="0 0 661.9 237.1" style="enable-background:new 0 0 661.9 237.1;" xml:space="preserve">
<style type="text/css">
	.st0{fill:#FCCBBC;}
	.st1{fill:#F5B257;}
	.st2{fill:#C06218;}
	.st3{fill:#D17256;}
	.st4{fill:#E47957;}
</style>
<title>logo-picnics-inthecity</title>
<g id="Layer_2_1_">
	<g id="Capa_1">
		<path class="st0" d="M26.3,105.2H0V2.5h29.3c11.4,0,19.5,0.6,24.2,1.7c4.3,1,8.3,3,11.7,5.8C69,13,72,17,73.9,21.5
			c2.1,5,3.1,10.4,3,15.8c0.1,5.5-0.9,11-3,16.1c-1.7,4.6-4.7,8.6-8.6,11.5c-3,2.3-6.5,4-10.3,4.8c-3.6,1-9.9,1.5-18.8,1.5h-9.9
			V105.2z M26.3,48.7h5.3c6.7,0,11.4-1,14.1-2.9c2.7-1.8,4-4.9,4-9.3c0-4.2-1.3-7.3-3.9-9.1s-7.2-2.8-13.9-2.8h-5.6V48.7z"/>
		<path class="st1" d="M106.2,105.2V2.5h28.3v102.7H106.2z"/>
		<path class="st2" d="M225.5,82.9c-1.1,0.1-2.2,0.2-3.2,0.2c-7.9,0-14.3-2.7-19.4-8.1c-5.1-5.4-7.6-12.2-7.6-20.6
			c0-2.7,0.3-5.5,0.8-8.2c0.5-2.5,1.3-4.9,2.4-7.2c1.1-2.2,2.6-4.3,4.2-6.2c5.1-5.5,11.6-8.2,19.6-8.2c0.7,0,1.4,0,2.1,0.1
			c1.2-1.6,3.1-2.5,5.1-2.4c5.9-0.1,11.7,1.7,16.5,5.1v-21c-4.3-2.1-8.7-3.7-13.3-4.9c-4.4-1-8.8-1.5-13.3-1.5
			c-6.9-0.1-13.8,1.2-20.3,3.7c-6.3,2.5-11.9,6.4-16.5,11.3c-2.6,2.7-4.9,5.6-7,8.7c-1.8,2.8-3.3,5.8-4.4,8.9
			c-2.7,6.8-4,14.1-3.9,21.4c-0.1,9.2,1.9,18.2,6,26.5c4.1,7.8,10.1,14.5,17.5,19.4c4,2.8,8.4,4.8,13.1,6.1c5.1,1.4,10.3,2,15.6,2
			c4.5,0,9-0.6,13.3-1.6c4.6-1.1,9.1-2.8,13.3-4.9V82.1c-4,3.1-9,4.4-14.5,4.7C228.9,86.8,226.5,85.3,225.5,82.9z"/>
		<path class="st3" d="M276.1,105.2V2.5h27L342,55.3c1.4,2.1,2.6,4.3,3.7,6.5c1.9,3.7,3.8,7.6,5.6,11.6c-0.7-5.4-1.1-9.1-1.2-11.3
			c-0.3-3.4-0.4-6.3-0.4-8.9V2.5h26.9v102.7h-26.9l-38.8-53.1c-1.4-2.1-2.6-4.3-3.7-6.6c-1.7-3-3.6-6.8-5.6-11.4
			c0.5,3.7,0.9,7.4,1.3,11.4c0.2,4.4,0.3,7.4,0.3,8.9v50.7H276.1z"/>
		<path class="st4" d="M413.7,105.2V2.5h28.3v102.7H413.7z"/>
		<path class="st0" d="M530.7,83.1c-0.3,0-0.7,0-1,0c-7.9,0-14.3-2.7-19.4-8.1c-5.1-5.4-7.6-12.2-7.6-20.6c0-2.7,0.3-5.5,0.8-8.2
			c0.5-2.5,1.3-4.9,2.4-7.2c1.1-2.2,2.6-4.3,4.2-6.2c3.8-4.2,8.9-6.9,14.4-7.8c0.5-3,3.2-5,6.2-4.7c7.1,0.3,15.9,0.7,22.6,4.2V6.5
			c-4.3-2.1-8.7-3.7-13.2-4.9c-4.4-1-8.9-1.5-13.3-1.5c-6.9-0.1-13.8,1.2-20.3,3.7c-6.3,2.5-11.9,6.4-16.5,11.3
			c-2.6,2.7-4.9,5.6-7,8.7c-1.8,2.8-3.3,5.8-4.5,8.9c-2.7,6.8-4,14.1-3.9,21.4c-0.1,9.2,1.9,18.2,6,26.5
			c4.1,7.8,10.1,14.5,17.5,19.4c4,2.8,8.4,4.8,13,6.1c5.1,1.4,10.3,2,15.6,2c4.5,0,9-0.6,13.3-1.6c4.6-1.1,9-2.8,13.3-4.8V82.2
			c-4.7,2.6-9.3,5.2-14.6,6.3C534.5,89.5,531.4,86.4,530.7,83.1z"/>
		<path class="st1" d="M649.5,59.9c-1.2-3.4-3.1-6.4-5.6-9c-3.7-3.8-11.2-7.2-22.6-10.2c-0.2-0.1-0.4-0.1-0.6-0.2
			c-0.2,0-0.3-0.1-0.5-0.1c-5.3-1.4-8.9-2.9-10.8-4.4c-1.8-1.5-2.8-3.8-2.7-6.2c-0.1-2.5,1.1-4.8,3.2-6.2c2.4-1.7,5.3-2.6,8.2-2.5
			c0.8,0,1.7,0.1,2.5,0.1c1-2.4,3.4-4.4,6.1-4.1c4.6,0.4,9.3,0.7,13.7,2.2c0.5,0.2,1,0.4,1.4,0.7l4.7-10.8c-4.4-3-9.3-5.3-14.4-6.9
			c-5.2-1.6-10.7-2.4-16.1-2.4c-10.5,0-19,3.1-25.5,9.3s-9.8,14.2-9.9,24c0,7.6,2.1,13.6,6.3,18s11.3,7.9,21.2,10.5
			c7.3,2,12.1,3.9,14.2,5.7c2.1,2.1,3.2,5,3,7.9c0,3-1.3,5.8-3.7,7.7c-2.6,2.1-5.9,3.1-9.2,3c-4.3-0.1-8.4-1.3-12-3.5
			c-4.6-2.9-8.8-6.5-12.3-10.6l-12.6,20.8c4.9,4.8,10.6,8.7,17,11.5c6.2,2.5,12.9,3.7,19.6,3.6c11.9,0,21.4-3.3,28.6-9.9
			c7.2-6.6,10.8-15.4,10.7-26.3C651.4,67.7,650.8,63.7,649.5,59.9z"/>
		<path class="st2" d="M36.9,105.2H10.6V2.5h29.3c11.4,0,19.5,0.6,24.2,1.7c4.3,1,8.3,3,11.7,5.8c3.8,3.1,6.7,7.1,8.6,11.6
			c2.1,5,3.1,10.4,3,15.8c0.1,5.5-0.9,11-3,16.1c-1.7,4.6-4.7,8.6-8.6,11.5c-3,2.3-6.6,4-10.3,4.8c-3.6,1-9.9,1.5-18.8,1.5h-9.8
			V105.2z M36.9,48.7h5.3c6.7,0,11.4-1,14.1-2.9c2.7-1.8,4-4.9,4-9.3c0-4.2-1.3-7.3-3.9-9.1s-7.2-2.8-13.9-2.8h-5.6V48.7z"/>
		<path class="st3" d="M116.9,105.2V2.5h28.3v102.7H116.9z"/>
		<path class="st4" d="M256.6,6.5v30.6c-3.3-3.7-7.1-6.9-11.4-9.5c-3.8-1.9-8.1-2.9-12.4-2.9c-8,0-14.5,2.7-19.6,8.2
			c-1.7,1.9-3.1,3.9-4.2,6.2c-1.1,2.3-2,4.7-2.4,7.2c-0.5,2.7-0.8,5.4-0.8,8.2c0,8.2,2.5,15.1,7.6,20.6s11.5,8.2,19.4,8.1
			c4.3,0,8.5-1,12.4-3c3.6-1.8,7.3-5,11.4-9.4v30.7c-4.2,2.1-8.7,3.7-13.3,4.8c-4.4,1.1-8.8,1.6-13.3,1.6c-5.3,0-10.5-0.6-15.6-2
			c-4.7-1.2-9.1-3.3-13.1-6.1c-7.4-4.9-13.4-11.6-17.5-19.4c-4.1-8.2-6.1-17.3-6-26.5c-0.1-7.3,1.3-14.6,3.9-21.4
			c1.2-3.1,2.7-6.1,4.5-8.9c2.1-3.1,4.4-6,7-8.7c4.6-4.9,10.3-8.7,16.5-11.2c6.4-2.5,13.3-3.8,20.3-3.7c4.5,0,8.9,0.5,13.3,1.5
			C247.9,2.8,252.3,4.4,256.6,6.5z"/>
		<path class="st1" d="M286.7,105.2V2.5h27l38.8,52.8c1.4,2.1,2.6,4.3,3.7,6.5c1.9,3.7,3.8,7.6,5.6,11.6c-0.7-5.4-1.1-9.2-1.2-11.3
			c-0.3-3.4-0.4-6.3-0.4-8.9V2.5h26.9v102.7h-26.9l-38.8-53.1c-1.4-2.1-2.6-4.3-3.7-6.6c-1.7-3-3.5-6.8-5.6-11.4
			c0.5,3.7,0.9,7.4,1.3,11.4c0.2,4.4,0.3,7.4,0.3,8.9v50.7H286.7z"/>
		<path class="st0" d="M424.3,105.2V2.5h28.3v102.7H424.3z"/>
		<path class="st2" d="M564,6.5v30.6c-3.3-3.7-7.1-6.9-11.4-9.5c-3.8-1.9-8.1-2.9-12.3-2.9c-8,0-14.5,2.7-19.6,8.2
			c-1.7,1.9-3.1,3.9-4.2,6.2c-1.1,2.3-1.9,4.7-2.4,7.2c-0.5,2.7-0.8,5.4-0.8,8.2c0,8.2,2.5,15.1,7.6,20.6s11.5,8.2,19.4,8.1
			c4.3,0,8.5-1,12.3-3c3.5-1.8,7.3-5,11.4-9.4v30.7c-4.2,2.1-8.7,3.7-13.3,4.8c-4.4,1.1-8.8,1.6-13.3,1.6c-5.3,0-10.5-0.6-15.6-2
			c-4.7-1.2-9.1-3.3-13-6.1c-7.4-4.9-13.4-11.6-17.5-19.4c-4.1-8.2-6.1-17.3-6-26.5c-0.1-7.3,1.3-14.6,3.9-21.4
			c1.2-3.1,2.6-6.1,4.5-8.9c2.1-3.1,4.4-6,7-8.7c4.6-4.9,10.3-8.7,16.5-11.2c6.4-2.5,13.3-3.8,20.3-3.7c4.5,0,8.9,0.5,13.3,1.5
			C555.3,2.8,559.7,4.4,564,6.5z"/>
		<path class="st3" d="M598.7,72c3.5,4.1,7.7,7.7,12.3,10.6c3.6,2.2,7.8,3.4,12,3.5c3.3,0.1,6.6-0.9,9.2-3c2.3-1.8,3.7-4.7,3.7-7.7
			c0.2-2.9-0.9-5.8-3-7.9c-2.2-1.8-6.9-3.7-14.2-5.7c-10-2.7-17.1-6.2-21.2-10.5s-6.3-10.3-6.3-18c0-9.8,3.3-17.8,9.9-24
			c6.5-6.2,15-9.3,25.5-9.3c5.5-0.1,10.9,0.7,16.1,2.3c5.1,1.6,10,3.9,14.4,6.9l-8.8,20.2c-2.9-2.6-6.2-4.7-9.8-6.2
			c-3.1-1.3-6.5-2-9.9-2c-2.9-0.1-5.8,0.8-8.2,2.5c-2,1.4-3.2,3.7-3.2,6.2c0,2.4,1,4.6,2.8,6.1c1.9,1.5,5.5,3,10.8,4.4
			c0.2,0,0.3,0.1,0.5,0.1c0.2,0,0.4,0.1,0.6,0.2c11.4,3.1,18.9,6.5,22.6,10.3c2.5,2.6,4.4,5.6,5.6,9c1.3,3.8,1.9,7.8,1.8,11.8
			c0,10.9-3.6,19.7-10.7,26.3s-16.7,10-28.6,9.9c-6.7,0.1-13.3-1.1-19.6-3.5c-6.3-2.8-12-6.7-17-11.5L598.7,72z"/>
		<path class="st2" d="M118.1,186.5c-4.2,0-7.9-1.7-11.3-5.2c-3.3-3.4-5.1-8-5-12.8c0.1-4.5,1.2-9,3.4-13c2.4-4.5,5.5-8.6,9.4-12
			c4.4-3.9,9.5-6.8,15-8.8c6.1-2.3,12.7-3.4,19.2-3.4c2.5,0,5.1,0.2,7.6,0.5c2.5,0.3,5.3,0.7,8.1,1.2c2.9,0.5,5.2,0.8,7,1
			c3.3-1.7,7.1-2.7,10.8-2.7c1.1,0,2.2,0.3,3.2,1c0.9,0.5,1.4,1.4,1.4,2.4c0,1.4-0.6,2.7-1.6,3.7c-1.3,1-2.9,1.6-4.5,1.5
			c-2.6,0-5.1-0.2-7.7-0.6c-3.8,3.4-6.9,7.5-9.5,11.9c-3.1,5.1-5.8,10.4-8.2,15.9c-2.3,5.5-4.8,11.1-7.4,17
			c-2.6,5.9-5.1,11.1-7.5,15.7c-2.1,4.2-4.9,8-8.2,11.3c-3.1,3-6.2,4.4-9.5,4.4c-2.8,0-5.5-1.2-7.4-3.4c-2.1-2.3-3.1-4.5-3.1-6.7
			c0-0.7,0.1-1.5,0.4-2.2c0.3-0.6,0.6-0.9,0.9-0.9c0.3,0.1,0.5,0.3,0.8,0.5c0.4,0.4,0.9,0.5,1.4,0.6c1.4,0,2.7-0.2,4-0.6
			c1.6-0.6,3.2-1.5,4.5-2.6c2-1.7,3.8-3.6,5.4-5.7c2.3-3.2,4.4-6.6,6.3-10.1c2.5-4.4,5.1-9.6,7.9-15.7c6.5-14.2,13.6-24.4,21.2-30.7
			c-6.2-1.1-12.4-1.7-18.7-1.9c-5.6,0.1-11.1,1.8-15.8,4.9c-5,3.2-9.2,7.4-12.2,12.5c-2.9,4.5-4.4,9.8-4.5,15.1
			c-0.1,2.4,0.5,4.7,1.9,6.6c1.2,1.6,3.2,2.6,5.3,2.5c3.1-0.1,6.1-1.5,8.1-3.9c2.4-2.6,3.6-5,3.6-7.2c0-0.7,0.5-0.8,1.4-0.2
			c1.4,0.7,2.2,2.1,2.1,3.6c0,3.5-1.8,7.1-5.3,10.8C127.7,184.5,123,186.5,118.1,186.5z"/>
		<path class="st2" d="M174.8,201.2c0-1.8,0.3-3.7,0.8-5.4c1.1-3.2,2.4-6.3,3.9-9.2c3.6-8.5,4.3-12.9,1.9-13.2c-1.5,0-3.4,1-5.8,2.9
			c-2.8,2.4-5.2,5.2-7.1,8.4l-11.2,24c-0.2,0.4-0.6,0.7-1,0.6h-8.8c-0.2,0-0.4-0.1-0.5-0.3c-0.1-0.2-0.1-0.4,0-0.6l18-38.5
			c0.2-0.4,0.6-0.7,1.1-0.7h8.8c0.2,0,0.4,0.1,0.5,0.3c0.1,0.2,0.1,0.4,0,0.6L174,173c1.3-1.2,2.9-2.1,4.5-2.9
			c1.2-0.5,2.4-0.9,3.7-1.1c1.1-0.1,2.3-0.2,3.4-0.2c2.2-0.1,4.3,0.7,5.9,2.1c1.4,1.3,2.2,3.2,2.2,5.1c0,2.1-0.5,4.3-1.3,6.2
			c-3,6.3-5,10.9-6.1,13.5c-0.9,1.8-1.4,3.8-1.6,5.8c0,1.3,0.5,2,1.5,2c1.5,0,3.8-1.6,6.9-4.9c3.4-3.6,6.4-7.5,8.9-11.7
			c0.1-0.3,0.3-0.3,0.6-0.1l2.3,2.5c0.1,0.2,0.1,0.5,0,0.6c-2.2,3.7-4.6,7.2-7.3,10.6c-1.7,2.3-3.8,4.3-6.2,5.9
			c-1.5,1-3.1,1.7-4.8,2.2c-1.5,0.3-2.9,0.5-4.4,0.5c-2,0.1-4-0.7-5.4-2.1C175.4,205.5,174.7,203.4,174.8,201.2z"/>
		<path class="st2" d="M243.6,186.5c-4.2,0-7.9-1.7-11.3-5.2c-3.3-3.4-5.1-8-5-12.8c0-3.7,0.7-7.3,2-10.8c1.5-3.9,3.6-7.6,6.3-10.8
			c3-3.6,6.4-6.8,10.2-9.5c4.4-3,9.3-5.3,14.5-6.8c6-1.7,12.2-2.6,18.5-2.6c3.2,0,9.3,0.3,18.2,0.9c8.9,0.6,17.2,0.9,24.7,0.9
			c1.4,0,2.8-0.2,4.1-0.8c0.9-0.4,1.7-0.9,2.5-1.5c0.5-0.5,0.9-0.8,1.2-0.8c0.4,0,0.8,0.3,0.9,0.7c0.3,0.5,0.4,1,0.4,1.5
			c0,1.1-0.2,2.1-0.5,3.1c-0.4,1.2-0.9,2.4-1.6,3.5c-0.8,1.3-1.9,2.3-3.2,3c-1.5,0.8-3.3,1.2-5,1.2c-4-0.1-7.9-0.7-11.8-1.6
			c-4.9-1.1-10.3-2.2-16.2-3.3c-5.6-1.1-11.3-1.6-17.1-1.6c-5.1,0-10.1,1.1-14.7,3.4c-4.4,2.1-8.3,5-11.5,8.6
			c-3,3.4-5.4,7.3-7.2,11.4c-1.7,3.8-2.6,7.9-2.6,12c-0.1,2.4,0.5,4.7,1.9,6.6c1.2,1.6,3.2,2.6,5.2,2.5c3.1-0.1,6.1-1.5,8.1-3.9
			c2.4-2.6,3.6-5,3.6-7.2c0-0.7,0.5-0.8,1.4-0.2c1.4,0.7,2.2,2.1,2.1,3.6c0,3.5-1.8,7.1-5.3,10.8
			C253.1,184.5,248.5,186.5,243.6,186.5z M248.3,215.5c-2.8,0-5.6-1.2-7.4-3.4c-2.1-2.3-3.1-4.5-3.1-6.7c0-0.7,0.1-1.5,0.4-2.2
			c0.3-0.6,0.6-0.9,0.9-0.9c0.3,0.1,0.5,0.3,0.8,0.5c0.4,0.4,0.9,0.5,1.4,0.6c3.2,0.1,6.2-1,8.5-3.2c2-1.7,3.8-3.6,5.4-5.7
			c2.4-3.2,4.5-6.6,6.4-10.2c2.4-4.4,5.1-9.6,7.8-15.7c4.5-10,9-17.2,13.5-21.7c4.5-4.5,9-6.7,13.7-6.7c1.7,0,2.7,0.6,3.2,1.8
			c0.3,0.7,0.2,1-0.3,1c-2.5,0-4.9,1.3-7.4,4c-2.7,3.1-5,6.6-6.7,10.4c-2,4.2-4.1,8.9-6.2,14.1c-2.1,5.2-4.2,10.4-6.5,15.5
			c-2.2,5.2-4.5,9.9-6.9,14.1c-2.1,3.9-4.8,7.4-8,10.4C255.2,214,251.8,215.4,248.3,215.5L248.3,215.5z"/>
		<path class="st2" d="M332.7,190.1c-2.2,3.7-4.6,7.2-7.3,10.6c-1.7,2.3-3.8,4.2-6.1,5.9c-1.5,1-3.1,1.7-4.8,2.2
			c-1.5,0.3-3,0.5-4.5,0.5c-2,0.1-4-0.7-5.4-2.1c-1.4-1.6-2.1-3.7-2-5.9c0-1.8,0.3-3.7,0.8-5.4c0.5-1.7,1.8-4.8,3.9-9.2
			c3.6-8.5,4.3-12.9,1.9-13.2c-1.5,0-3.4,1-5.9,3c-2.8,2.4-5.3,5.3-7.2,8.5l-11,23.7c-0.2,0.4-0.6,0.7-1,0.6h-8.8
			c-0.2,0-0.3-0.1-0.4-0.2c-0.1-0.2-0.1-0.4-0.1-0.6l29.4-62.9c0.2-0.5,0.6-0.8,1.1-0.8h8.6c0.2,0,0.4,0.1,0.5,0.3
			c0.1,0.2,0.1,0.4,0,0.6l-12.8,27.4c1.3-1.2,2.9-2.3,4.5-3c1.2-0.5,2.4-0.9,3.7-1.1c1.1-0.1,2.3-0.2,3.5-0.2
			c2.2-0.1,4.3,0.7,5.9,2.1c1.4,1.3,2.2,3.2,2.2,5.1c0,2.1-0.5,4.3-1.3,6.2c-3,6.3-5,10.9-6.1,13.5c-0.9,1.8-1.4,3.8-1.6,5.8
			c0,1.3,0.5,2,1.5,2c1.5,0,3.8-1.6,7-4.9c3.4-3.6,6.4-7.5,8.9-11.7c0.1-0.2,0.3-0.2,0.5,0l2.3,2.5
			C332.9,189.7,332.9,189.9,332.7,190.1z"/>
		<path class="st2" d="M362.3,175.3c0,3.3-1.5,6.3-4.5,9c-2.9,2.7-6.3,4.7-10.1,6c-3.3,1.2-6.8,2-10.4,2.2c-0.3,1.3-0.4,2.5-0.4,3.8
			c-0.1,1.8,0.4,3.6,1.3,5.2c0.9,1.3,2.4,2.1,4.1,2c1.5,0,2.9-0.2,4.3-0.6c1.9-0.5,3.8-1.3,5.6-2.2c2.6-1.3,4.9-3.1,7-5.1
			c2.6-2.6,4.9-5.5,6.8-8.6c0.1-0.3,0.3-0.3,0.5-0.1l2.2,2.5c0.1,0.2,0.1,0.5,0,0.6c-2,3.3-4.4,6.5-7,9.4c-1.9,2.2-4,4.2-6.4,5.9
			c-1.8,1.3-3.9,2.4-6,3.1c-1.6,0.6-3.4,1.1-5.1,1.4c-1.5,0.2-2.9,0.2-4.4,0.2c-4.3,0-7.5-1.4-9.7-4.2c-2.3-3.1-3.4-6.8-3.3-10.7
			c0.1-4.4,1.3-8.6,3.5-12.4c2.3-4.2,5.6-7.9,9.5-10.6c3.5-2.7,7.8-4.1,12.2-4.2c2.6-0.1,5.2,0.5,7.4,1.8
			C361.4,171,362.4,173.1,362.3,175.3z M353.1,172.1c-2.3,0-5,1.6-7.9,4.9c-2.9,3.3-5.3,7.2-6.8,11.4c6.7-1.7,11.5-5.1,14.5-10
			c1.8-2.9,2.2-4.9,1.2-6C353.8,172.2,353.5,172.1,353.1,172.1z"/>
		<path class="st2" d="M406.8,162c-7.5-1.5-13.4-3.8-17.7-6.9c-4.3-3.2-6.5-6.4-6.5-9.8c0.1-2.2,1.1-4.2,2.8-5.5
			c1.9-1.6,3.5-2.5,5-2.5c0.5,0,0.8,0.4,0.8,1.1c0,3.4,1.6,7,4.7,10.6s7.8,6.2,14,7.7c5-7.8,11.5-14.5,19.1-19.8
			c7.6-5.1,15-7.7,22.4-7.7c2.1,0,4.2,0.3,6.2,1c2.1,0.7,3.9,2,5.4,3.7c1.6,1.8,2.4,4.1,2.4,6.5c-0.1,3-1.2,5.9-3.2,8.3
			c-2.4,3-5.3,5.5-8.7,7.4c-4.3,2.4-8.9,4.2-13.6,5.4c-5.7,1.4-11.5,2.1-17.4,2.1c-0.9,0-1.9,0-3.1-0.1c-3.8,7.1-5.9,15.1-6,23.2
			c0,7.1,1.6,12.6,4.6,16.4c3.1,3.9,6.9,5.8,11.3,5.8c5.5,0,10.9-1.9,16.4-5.7c5.4-3.8,10.5-9.2,15-16.2c0.1-0.2,0.3-0.2,0.5,0
			l2.4,2.5c0.2,0.2,0.3,0.4,0.1,0.6c-5.5,9.3-11.4,16.3-17.6,21c-5.9,4.6-13.2,7.1-20.7,7.1c-8,0-14.2-2.9-18.7-8.6
			s-6.8-13.3-6.8-22.8C400,178.8,402.2,170.5,406.8,162z M451.9,134.9c-4,0-8.9,2.2-14.6,6.6c-5.9,4.6-11,10.3-14.9,16.6
			c4.5-0.1,8.9-0.8,13.1-2.1c3.7-1.1,7.3-2.7,10.6-4.9c2.6-1.7,4.9-3.9,6.8-6.4c1.5-1.8,2.5-4.1,2.6-6.5c0-0.9-0.3-1.8-0.9-2.4
			C453.8,135.2,452.9,134.8,451.9,134.9L451.9,134.9z"/>
		<path class="st2" d="M464.8,209.2c-2.2,0-4.3-0.8-5.8-2.4c-1.6-1.6-2.4-3.8-2.4-6c0.2-3,0.8-5.9,1.9-8.7c1.3-3.5,4.5-11,9.8-22.3
			c0.2-0.4,0.6-0.7,1.1-0.7h8.8c0.2,0,0.4,0.1,0.5,0.3c0.1,0.2,0.1,0.4,0,0.6c-5.5,11.9-9,19.7-10.4,23.3s-2.1,6.4-2.1,8.2
			c0,1.3,0.5,2,1.5,2s3.2-1.5,6-4.5c3.4-3.8,6.5-7.9,9.1-12.2c0.2-0.2,0.4-0.2,0.5,0s1,1.1,2.3,2.5c0.2,0.2,0.3,0.4,0.1,0.6
			c-2.7,4.4-5.1,7.9-7.1,10.6c-1.6,2.2-3.4,4.2-5.6,5.8c-1.3,1-2.7,1.8-4.3,2.3C467.6,209.1,466.2,209.3,464.8,209.2z M473.4,159.1
			c0.3-1.7,1.2-3.2,2.4-4.4c1.2-1.2,2.7-2,4.3-2.4c1.3-0.3,2.8,0.1,3.8,1c1,1,1.3,2.4,1,3.8c-0.3,1.7-1.2,3.2-2.4,4.4
			c-1.1,1.2-2.7,2.1-4.3,2.4c-1.3,0.3-2.8-0.1-3.8-1C473.5,161.9,473.1,160.4,473.4,159.1L473.4,159.1z"/>
		<path class="st2" d="M487.3,167.5h4.4c1.5-3.1,4.2-9.1,8.3-17.9c0.2-0.5,0.6-0.8,1.1-0.8h8.6c0.2,0,0.4,0.1,0.5,0.3
			c0.1,0.2,0.1,0.4,0,0.6c-3.9,8.4-6.6,14.3-8.2,17.7h5.8c0.2,0,0.4,0.1,0.5,0.3c0.1,0.2,0.1,0.4,0,0.6l-1.8,3.8
			c-0.2,0.4-0.6,0.7-1.1,0.7h-6c-4.8,10.5-7.8,17.3-9,20.3c-1,2.4-1.6,4.9-1.8,7.5c0,1.3,0.5,2,1.6,2c1.8,0,4.2-1.3,7-4
			c3.6-3.5,6.7-7.5,9.3-11.8c0.1-0.2,0.3-0.2,0.5,0s0.6,0.7,1.3,1.4l1,1.1c0.1,0.2,0.1,0.5,0,0.6c-2.1,3.7-4.5,7.2-7.1,10.6
			c-1.7,2.2-3.6,4.2-5.9,5.8c-1.4,1-3,1.8-4.6,2.3c-1.6,0.4-3.2,0.5-4.8,0.5c-2.2,0-4.4-1-5.8-2.7c-1.6-1.8-2.4-4.1-2.4-6.5
			c0.1-2.7,0.6-5.4,1.6-8c1.1-3,3.9-9.4,8.4-19.2H485c-0.2,0-0.4-0.1-0.5-0.3c-0.1-0.1-0.1-0.3-0.1-0.5l1.8-3.9
			C486.4,167.7,486.9,167.5,487.3,167.5z"/>
		<path class="st2" d="M552.6,189.4c0.2,0.1,0.3,0.4,0.1,0.6c0,0,0,0,0,0c-4.6,7.8-9.2,13.8-13.7,17.9c-4.3,3.9-9.3,7.1-14.7,9.3
			c-1.9,3.7-4.1,7.2-6.5,10.6c-1.6,2.3-3.6,4.3-5.9,6c-1.6,1.1-3.4,2-5.2,2.6c-1.8,0.4-3.7,0.6-5.6,0.6c-3,0.1-6-0.8-8.4-2.7
			c-2.2-1.7-3.4-4.4-3.3-7.2c0-1.3,0.3-2.7,0.9-3.8c0.6-1.1,1.4-2,2.4-2.8c1.3-1,2.8-1.7,4.4-2.1c2-0.7,3.9-1.2,5.7-1.6
			c1.8-0.4,4.4-0.9,7.7-1.6c1.9-0.4,3.6-0.8,5-1.2c0.3-0.6,1.2-2.6,2.8-6l1.6-3.5c-3.4,3.1-6.8,4.7-10.2,4.7
			c-2.1,0.1-4.1-0.8-5.5-2.4c-1.5-1.7-2.2-3.9-2.1-6.1c0-1.6,0.2-3.2,0.5-4.7c0.8-2.9,1.8-5.7,3-8.5c1.7-4.2,4.3-10.1,7.9-17.8
			c0.2-0.4,0.6-0.7,1-0.7h8.8c0.2,0,0.4,0.1,0.5,0.3c0.1,0.2,0.1,0.4,0,0.6c-5.5,11.9-9,19.7-10.4,23.3c-1.4,3.6-2.1,6.4-2.1,8.2
			c0,1.3,0.5,2,1.6,2c1.5,0,3.6-1.5,6.3-4.4c3.4-3.8,6.4-7.9,8.9-12.3l8-17.1c0.2-0.4,0.6-0.7,1.1-0.7h8.7c0.2,0,0.4,0.1,0.5,0.3
			c0.1,0.2,0.1,0.4,0,0.6l-17.7,38c-0.2,0.5-0.4,0.9-0.5,1.2c8-4.4,15.1-11.9,21.5-22.2c0.2-0.3,0.4-0.3,0.5-0.1L552.6,189.4z
			 M499.4,230.1c4.6,0,8.8-3.1,12.6-9.3c-0.4,0.1-0.8,0.2-1.4,0.3c-3.9,0.9-7.8,2-11.6,3.2c-1.8,0.7-2.6,1.7-2.6,3.1
			c0,0.7,0.3,1.4,0.8,1.9C497.8,229.9,498.6,230.2,499.4,230.1L499.4,230.1z"/>
	</g>
</g>
</svg>
