<?xml version="1.0" encoding="utf-8"?>
<!-- Generator: Adobe Illustrator 22.0.1, SVG Export Plug-In . SVG Version: 6.00 Build 0)  -->
<svg version="1.1" id="Layer_1" xmlns="http://www.w3.org/2000/svg" xmlns:xlink="http://www.w3.org/1999/xlink" x="0px" y="0px"
	 viewBox="0 0 374 248" style="enable-background:new 0 0 374 248;" xml:space="preserve">
<style type="text/css">
	.st0{fill:#FFFFFF;}
</style>
<g>
	<g>
		<g>
			<g>
				<path class="st0" d="M173.3,137.3c2.5,0.9,3.9,1.4,4.2,1.4c0.8,0,1.4-0.3,1.8-0.9c0.5-0.6,0.7-1.2,0.9-1.9h1.7v13.8h-1.5
					c-1.4-3-2.9-5.4-4.4-7.1c-2.8-3.2-5.9-4.8-9.4-4.8c-4,0-6.8,1.7-8.4,5.1c-1.7,3.4-2.5,8-2.5,13.7c0,4.2,0.5,7.7,1.5,10.4
					c1.8,5.1,5.2,7.7,10.1,7.7c3,0,5.8-0.8,8.4-2.5c1.5-1,3.3-2.5,5.3-4.7l1.8,1.5c-2.3,2.6-4.3,4.4-6.1,5.6
					c-3.1,2.1-6.6,3.1-10.4,3.1c-5.8,0-10.7-1.7-14.6-5.2c-4.4-3.8-6.5-9-6.5-15.4s2.1-11.6,6.3-15.6c3.9-3.7,8.7-5.6,14.4-5.6
					C168.3,135.9,170.8,136.4,173.3,137.3z"/>
				<path class="st0" d="M183.4,175.1c1.1-0.1,1.9-0.4,2.4-0.9c0.5-0.4,0.8-1.3,0.8-2.7v-30c0-1.2-0.2-2-0.6-2.5s-1.3-0.8-2.5-0.9
					v-1.4h11.4v16.6c1.2-1.5,2.5-2.6,3.8-3.4s2.8-1.2,4.5-1.2c2.3,0,4.1,0.7,5.6,2s2.2,3.6,2.2,6.7v14.2c0,1.3,0.2,2.2,0.7,2.6
					c0.5,0.4,1.2,0.7,2.3,1v1.4h-14v-1.4c1.1-0.2,1.8-0.5,2.2-0.9s0.6-1.2,0.6-2.5v-14.3c0-1.3-0.1-2.4-0.4-3
					c-0.5-1.2-1.4-1.8-2.7-1.8c-1,0-2.1,0.5-3.2,1.4c-1.1,0.9-1.6,1.6-1.6,1.9v15.8c0,1.3,0.2,2.1,0.6,2.5c0.4,0.4,1.1,0.7,2.2,0.9
					v1.4h-14.2L183.4,175.1L183.4,175.1z"/>
				<path class="st0" d="M213,175.1c1-0.2,1.7-0.4,2.1-0.8c0.6-0.5,0.8-1.5,0.8-2.8v-17.3c0-1.2-0.2-2-0.6-2.5
					c-0.4-0.4-1.2-0.8-2.4-1v-1.4h11.2v22.4c0,1.3,0.2,2.1,0.6,2.5c0.4,0.4,1.1,0.6,2.2,0.9v1.4h-14L213,175.1L213,175.1z
					 M216.9,137.2c0.9-0.9,2-1.3,3.2-1.3c1.3,0,2.3,0.4,3.2,1.3c0.9,0.9,1.3,2,1.3,3.2c0,1.3-0.5,2.3-1.3,3.2
					c-0.9,0.9-2,1.3-3.2,1.3c-1.3,0-2.4-0.4-3.2-1.3c-0.9-0.9-1.3-2-1.3-3.2C215.5,139.2,216,138.1,216.9,137.2z"/>
				<path class="st0" d="M226.2,175.1c1-0.2,1.8-0.6,2.2-1s0.6-1.3,0.6-2.6v-30c0-1.3-0.2-2.1-0.6-2.5c-0.4-0.4-1.1-0.7-2.2-1v-1.4
					h11.1v34.9c0,1.3,0.2,2.2,0.6,2.6c0.4,0.4,1.2,0.7,2.3,1v1.4h-14.1L226.2,175.1L226.2,175.1z"/>
				<path class="st0" d="M243.2,152.7c2.2-2.7,4.9-4,8-4c1.6,0,2.9,0.4,4.2,1.2c0.7,0.5,1.7,1.3,2.8,2.5v-10.8
					c0-1.5-0.3-2.4-0.9-2.8c-0.6-0.4-1.8-0.6-3.6-0.7v-1.4h12.7v34c0,1.2,0.2,2,0.7,2.5s1.4,0.7,2.7,0.9v1.4
					c-3.3,0.3-5.5,0.6-6.4,0.7c-1,0.2-2.7,0.6-5.1,1.2v-3.9c-1.1,1.1-2.1,2-3.1,2.5c-1.5,0.9-3,1.3-4.7,1.3c-2.9,0-5.4-1.2-7.5-3.7
					c-2.1-2.4-3.2-5.8-3.2-9.9C239.9,159.1,241,155.4,243.2,152.7z M256.7,172.3c1-1.1,1.5-1.9,1.5-2.4v-14.4c0-0.5-0.4-1.2-1.3-2.1
					c-0.9-0.9-2-1.4-3.4-1.4c-2.1,0-3.5,1.5-4.3,4.4c-0.4,1.6-0.6,3.8-0.6,6.6c0,3,0.2,5.3,0.6,6.9c0.7,2.8,2.1,4.2,4.1,4.2
					C254.5,174,255.7,173.4,256.7,172.3z"/>
				<path class="st0" d="M269.1,175.1c1.1-0.1,1.9-0.4,2.4-0.8c0.4-0.4,0.7-1.2,0.7-2.3l0.1-1.7v-16c0-1.2-0.2-2.1-0.6-2.5
					s-1.3-0.7-2.5-0.9v-1.4h11.1v4.6c1.3-1.6,2.5-2.9,3.7-3.9s2.7-1.4,4.3-1.4c1.2,0,2.3,0.4,3.3,1.2s1.5,1.9,1.5,3.4
					c0,1.1-0.3,2.1-1,2.8s-1.6,1.1-2.7,1.1c-1.3,0-2.3-0.6-3.3-1.8c-0.9-1.2-1.6-1.8-1.9-1.8c-0.8,0-1.6,0.5-2.4,1.4
					s-1.2,2.4-1.2,4.2v11.2c0,1.9,0.3,3.2,0.9,3.6c0.6,0.5,1.7,0.8,3.4,1v1.4h-15.7L269.1,175.1L269.1,175.1z"/>
				<path class="st0" d="M294.9,152.4c2.4-2.5,5.3-3.8,8.7-3.8c1.9,0,3.8,0.5,5.5,1.5s3,2.4,3.9,4.2c0.7,1.4,1.2,3.1,1.4,5.3
					c0.1,1,0.2,1.8,0.2,2.3h-15c0.1,2.4,0.5,4.4,1.2,6.1c1.1,3.2,3.2,4.9,6.1,4.9c1.4,0,2.7-0.4,3.9-1.3c0.7-0.5,1.7-1.4,2.8-2.6
					l1.4,0.8c-1.8,3-3.9,5.1-6.3,6.3c-1.6,0.8-3.3,1.1-5.4,1.1c-2.9,0-5.6-1.1-8.2-3.4c-2.5-2.3-3.8-5.9-3.8-10.9
					C291.3,158.4,292.5,154.9,294.9,152.4z M307.4,159.8c0-3.4-0.3-5.9-0.8-7.2c-0.5-1.4-1.5-2.1-3-2.1s-2.6,0.8-3.2,2.4
					c-0.6,1.6-0.9,3.9-1,6.9L307.4,159.8L307.4,159.8z"/>
				<path class="st0" d="M313.9,175.1c1.1-0.1,1.9-0.4,2.4-0.9c0.5-0.4,0.8-1.3,0.8-2.7v-17.3c0-1.2-0.2-2-0.6-2.5s-1.3-0.8-2.5-0.9
					v-1.4h11.1v4.2c0.9-1.4,2.1-2.6,3.6-3.5c1.4-0.9,3.1-1.4,4.8-1.4c2.5,0,4.5,0.7,5.9,2s2.1,3.6,2.1,6.9v14.3
					c0,1.3,0.2,2.2,0.7,2.5c0.5,0.4,1.2,0.6,2.3,0.8v1.4h-13.9v-1.4c1.1-0.2,1.8-0.5,2.2-0.9c0.4-0.4,0.6-1.2,0.6-2.5v-14.3
					c0-1.3-0.1-2.4-0.4-3c-0.5-1.2-1.4-1.8-2.7-1.8c-1,0-2,0.4-2.8,1.1c-0.9,0.7-1.5,1.5-2,2.2v15.8c0,1.3,0.2,2.1,0.6,2.5
					s1.1,0.7,2.2,0.9v1.4h-14.2v-1.5H313.9z"/>
			</g>
			<path class="st0" d="M354.4,167.6h1.6c0.6,2.8,1.6,4.8,3.2,5.9c1.6,1.2,3.2,1.7,4.8,1.7c1.5,0,2.6-0.3,3.3-1
				c0.7-0.7,1.1-1.6,1.1-2.7c0-1.1-0.4-2-1.1-2.7c-0.4-0.4-1.1-0.8-2-1.3l-4.4-2.1c-2.3-1.1-3.9-2.4-4.9-3.7s-1.5-2.9-1.5-4.7
				c0-2.3,0.8-4.3,2.4-5.9c1.6-1.7,3.8-2.5,6.7-2.5c1.3,0,2.6,0.2,4,0.6c1.4,0.4,2.3,0.6,2.6,0.6c0.5,0,0.8-0.1,1-0.3
				s0.4-0.5,0.5-0.9h1.3v8.5h-1.5c-0.6-2-1.5-3.6-2.8-4.8s-2.8-1.8-4.5-1.8c-1.3,0-2.3,0.4-2.9,1.1c-0.6,0.7-1,1.5-1,2.4
				c0,0.7,0.3,1.4,0.9,2.1c0.6,0.7,1.6,1.4,3.2,2.2l3.2,1.6c2,1,3.5,1.9,4.4,2.8c1.5,1.5,2.3,3.4,2.3,5.7c0,2.2-0.8,4.2-2.4,6.1
				c-1.6,1.9-4,2.8-7.1,2.8c-0.8,0-1.6-0.1-2.4-0.2c-0.8-0.2-1.8-0.5-3-0.9l-1-0.4c-0.4-0.1-0.6-0.2-0.7-0.2s-0.2,0-0.3,0
				c-0.3,0-0.6,0.1-0.9,0.4c-0.2,0.3-0.5,0.7-0.8,1.3h-1.4L354.4,167.6L354.4,167.6z"/>
		</g>
		<path class="st0" d="M344.4,155.1c1.8-1.2,3.1-2.3,4-3.2c1.6-1.6,2.4-3.1,2.4-4.6c0-0.4-0.1-0.7-0.3-1c-0.2-0.2-0.5-0.4-0.9-0.4
			c-0.7,0.1-1.1,0.1-1.3,0.1c-1.3,0-2.3-0.4-3.2-1.3c-0.8-0.9-1.2-2-1.2-3.3c0-1.5,0.4-2.7,1.3-3.6c0.9-0.9,2.1-1.4,3.6-1.4
			c1.7,0,3.1,0.6,4.2,1.8s1.7,2.9,1.7,5c0,3.1-1.2,5.8-3.5,8.4c-1.5,1.6-3.6,3.1-6.3,4.6L344.4,155.1z"/>
	</g>
	<g>
		<g>
			<path class="st0" d="M35.3,152.8c2.4-2.5,5.3-3.8,8.7-3.8c1.9,0,3.8,0.5,5.5,1.5s3,2.4,3.9,4.2c0.7,1.4,1.2,3.1,1.4,5.3
				c0.1,1,0.2,1.8,0.2,2.3H40.1c0.1,2.4,0.5,4.4,1.2,6.1c1.2,3.2,3.2,4.9,6.1,4.9c1.4,0,2.7-0.4,3.9-1.3c0.7-0.5,1.7-1.4,2.8-2.6
				l1.4,0.8c-1.8,3-3.9,5.1-6.3,6.3c-1.6,0.7-3.3,1.1-5.4,1.1c-2.9,0-5.6-1.1-8.2-3.4c-2.5-2.3-3.8-5.9-3.8-10.9
				C31.7,158.8,32.9,155.3,35.3,152.8z M47.9,160.2c0-3.4-0.3-5.9-0.8-7.2c-0.5-1.4-1.5-2.1-3-2.1s-2.6,0.8-3.2,2.4
				c-0.6,1.6-0.9,3.9-1,6.9L47.9,160.2L47.9,160.2z"/>
			<path class="st0" d="M54.9,175.5c1-0.2,1.8-0.5,2.5-1s1.8-1.6,3.2-3.3c0.6-0.7,1.4-1.8,2.4-3.1c1-1.3,1.8-2.4,2.4-3.2l-7.6-11.6
				c-0.6-0.9-1.1-1.5-1.5-1.8c-0.4-0.2-0.9-0.4-1.6-0.5v-1.4h14.7v1.4c-1.4,0.2-2.2,0.3-2.4,0.4c-0.2,0.1-0.3,0.3-0.3,0.7
				s0.5,1.4,1.5,3s1.9,2.9,2.6,3.9c2-2.5,3.3-4.2,3.7-4.9c0.5-0.7,0.7-1.3,0.7-1.7c0-0.6-0.2-0.9-0.7-1.1c-0.5-0.2-1.2-0.2-2.3-0.3
				v-1.4h9.9v1.4c-0.7,0.1-1.3,0.3-1.8,0.5c-0.9,0.4-1.6,1-2.3,1.8l-6.1,7.5l8.8,13.4c0.2,0.3,0.4,0.6,0.7,0.7
				c0.3,0.2,0.6,0.3,1.1,0.5v1.4H68.4v-1.4c0.8,0,1.5-0.1,2-0.3s0.7-0.5,0.7-1c0-0.3-0.2-0.9-0.6-1.6c-0.2-0.4-0.6-1.1-1.1-1.9
				c-0.3-0.4-0.7-1.1-1.2-1.8c-0.5-0.8-1-1.5-1.5-2.2c-1.3,1.6-2.2,2.8-2.9,3.7c-1.3,1.8-1.9,3-1.9,3.5c0,0.6,0.2,1,0.7,1.2
				s1.2,0.3,2.2,0.3v1.4h-9.9V175.5L54.9,175.5z"/>
			<path class="st0" d="M86.4,165c2.6-1.6,6.6-3.1,12.1-4.7V156c0-1.7-0.4-3-1.1-3.9c-0.7-0.8-2.1-1.3-3.9-1.3
				c-1.1,0-1.9,0.2-2.6,0.6c-0.7,0.4-1,0.9-1,1.5c0,0.2,0,0.4,0.1,0.6c0.1,0.2,0.2,0.3,0.3,0.5l0.3,0.4c0.3,0.3,0.5,0.7,0.6,1.1
				c0.2,0.4,0.2,0.8,0.2,1.3c0,1.1-0.4,2-1.1,2.6s-1.6,0.9-2.6,0.9c-1.1,0-2.1-0.3-2.9-1s-1.2-1.6-1.2-2.9c0-2.3,1.1-4,3.2-5.4
				c2.1-1.3,4.8-2,7.9-2c3.3,0,6.1,0.6,8.4,1.9c2.2,1.3,3.3,3.7,3.3,7.2v14.3c0,0.4,0.1,0.8,0.3,1.1c0.2,0.3,0.5,0.4,0.7,0.4
				s0.4,0,0.6-0.1s0.5-0.3,0.9-0.7l0.9,1.2c-1.2,1.3-2.4,2.3-3.8,2.8c-0.9,0.3-1.8,0.5-2.8,0.5c-1.7,0-3-0.5-3.8-1.5
				c-0.5-0.6-0.8-1.4-1-2.6c-1.6,1.6-3.5,2.8-5.5,3.5c-1.3,0.4-2.5,0.6-3.7,0.6c-1.6,0-3.1-0.5-4.5-1.5s-2.1-2.6-2.1-4.8
				C82.6,168.7,83.9,166.6,86.4,165z M96.7,172.6c0.5-0.3,1-0.9,1.6-1.6v-8.7c-1.6,0.4-3,1-4.2,1.8c-2,1.4-3,3.2-3,5.4
				c0,1.3,0.3,2.3,0.9,2.9c0.6,0.7,1.2,1,2,1C95,173.5,95.9,173.2,96.7,172.6z"/>
			<path class="st0" d="M109.6,168h1.6c0.6,2.8,1.6,4.8,3.2,5.9c1.6,1.2,3.2,1.7,4.8,1.7c1.5,0,2.6-0.3,3.3-1
				c0.7-0.7,1.1-1.6,1.1-2.7c0-1.1-0.4-2-1.1-2.7c-0.4-0.4-1.1-0.8-2-1.3l-4.4-2.1c-2.3-1.1-3.9-2.4-4.9-3.7s-1.5-2.9-1.5-4.7
				c0-2.3,0.8-4.3,2.4-5.9c1.6-1.7,3.8-2.5,6.7-2.5c1.3,0,2.6,0.2,4,0.6c1.4,0.4,2.3,0.6,2.6,0.6c0.5,0,0.8-0.1,1-0.3
				s0.4-0.5,0.5-0.9h1.3v8.5h-1.5c-0.6-2-1.5-3.6-2.8-4.8s-2.8-1.8-4.5-1.8c-1.3,0-2.3,0.4-2.9,1.1c-0.6,0.7-1,1.5-1,2.4
				c0,0.7,0.3,1.4,0.9,2.1c0.6,0.7,1.6,1.4,3.2,2.2l3.2,1.6c2,1,3.5,1.9,4.4,2.8c1.5,1.5,2.3,3.4,2.3,5.7c0,2.2-0.8,4.2-2.4,6.1
				c-1.6,1.9-4,2.8-7.1,2.8c-0.8,0-1.6-0.1-2.4-0.2c-0.8-0.2-1.8-0.5-3-0.9l-1-0.4c-0.4-0.1-0.6-0.2-0.7-0.2s-0.2,0-0.3,0
				c-0.3,0-0.6,0.1-0.9,0.4c-0.2,0.3-0.5,0.7-0.8,1.3h-1.4L109.6,168L109.6,168z"/>
		</g>
		<path class="st0" d="M1.5,137H37l0.1,11.9h-1.7c-0.6-4.3-2.1-7.1-4.8-8.7c-1.5-0.8-3.7-1.3-6.6-1.4V170c0,2.2,0.4,3.6,1.1,4.3
			c0.8,0.7,2.3,1.1,4.8,1.1v1.5H8.7v-1.5c2.3,0,3.9-0.4,4.6-1.1c0.8-0.7,1.1-2.2,1.1-4.3v-31.1c-2.9,0.1-5.1,0.5-6.6,1.4
			C5,141.8,3.4,144.7,3,149H1.4L1.5,137z"/>
	</g>
</g>
<g>
	<g>
		<path class="st0" d="M155.8,91.5c9.4,8.1,18.3,12.4,31.9,12.7l0,0c14-0.1,23-4.4,32.5-12.7l24.6-25.4c1.5-1.5,3.6-2.4,5.8-2.4
			c4.6,0,8.3,3.7,8.3,8.3c0,2.3-0.9,4.4-2.4,5.9l-32.7,31.4c-9.1,7.4-21.9,11.2-36.2,11.2c-14.2,0-27.1-3.7-36.2-11.2L119.3,78
			c-1.5-1.5-2.4-3.6-2.4-5.9c0-4.6,3.7-8.3,8.3-8.3c2.3,0,4.3,0.9,5.8,2.4L155.8,91.5z"/>
		<path class="st0" d="M172.8,67.9c3.7,4,9,6.5,14.8,6.5c5.9,0,11.2-2.5,14.9-6.6l21.6-21.7c1.5-1.6,3.7-2.6,6-2.6
			c4.6,0,8.3,3.7,8.3,8.3c0,2.3-0.9,4.4-2.4,5.9L217,77c-9.6,9.2-15.2,15.3-29.4,15.1c-13.7-0.2-19.2-5.9-28.6-15l-19.2-19.4
			c-1.5-1.5-2.4-3.6-2.4-5.9c0-4.6,3.7-8.3,8.3-8.3c2.4,0,4.5,1,6,2.6L172.8,67.9z"/>
		<path class="st0" d="M160,37.3c-1.5-1.5-2.5-3.6-2.5-5.9c0-4.6,3.7-8.3,8.3-8.3c2.2,0,4.3,0.9,5.8,2.3l13.2,13.8
			c0.7,0.7,1.7,1.2,2.8,1.2s2-0.4,2.7-1.1L204,25.4c1.5-1.4,3.5-2.3,5.8-2.3c4.6,0,8.3,3.7,8.3,8.3c0,2.3-0.9,4.4-2.5,5.9
			l-23.5,23.2c-1.1,1.2-2.7,1.9-4.4,1.9c-1.8,0-3.3-0.7-4.5-1.9L160,37.3z"/>
		<g>
			<circle class="st0" cx="187.7" cy="13" r="10.9"/>
			<path class="st0" d="M187.7,13"/>
		</g>
	</g>
</g>
<g>
	<path class="st0" d="M83.5,232.7c1.6-0.1,2.7-0.3,3.3-0.7c1.1-0.6,1.6-1.8,1.6-3.5V200c0-1.7-0.5-2.8-1.5-3.4
		c-0.6-0.3-1.8-0.6-3.5-0.8v-1.5h20v1.5c-1.7,0.1-2.9,0.3-3.6,0.7c-1.1,0.6-1.7,1.8-1.7,3.5v12.2h14.1V200c0-1.7-0.5-2.9-1.6-3.5
		c-0.6-0.4-1.9-0.6-3.6-0.7v-1.5h20v1.5c-1.7,0.1-2.9,0.4-3.5,0.7c-1.1,0.6-1.6,1.7-1.6,3.4v28.6c0,1.7,0.6,2.9,1.7,3.5
		c0.7,0.4,1.8,0.6,3.4,0.6v1.5h-20v-1.5c1.7-0.1,2.9-0.3,3.6-0.7c1.1-0.6,1.6-1.8,1.6-3.5V215h-14v13.6c0,1.8,0.6,2.9,1.8,3.6
		c0.7,0.3,1.9,0.6,3.5,0.6v1.5h-20V232.7L83.5,232.7z"/>
	<path class="st0" d="M131.1,210.4c2.5-2.7,5.7-4.1,9.5-4.1c3.9,0,7.1,1.4,9.6,4.2s3.7,6.2,3.7,10.2c0,3.9-1.2,7.3-3.7,10.2
		c-2.5,2.8-5.7,4.2-9.6,4.2c-3.8,0-7-1.4-9.5-4.1c-2.5-2.8-3.8-6.2-3.8-10.3C127.4,216.6,128.6,213.2,131.1,210.4z M136.6,229.4
		c0.7,2.6,2,3.8,4,3.8c1.9,0,3.1-1,3.7-2.9c0.6-2,0.9-5.1,0.9-9.6c0-4.4-0.3-7.6-0.9-9.5c-0.6-2-1.8-3-3.7-3c-2,0-3.3,1.3-4,3.8
		c-0.4,1.7-0.7,4.6-0.7,8.7C136,224.9,136.2,227.7,136.6,229.4z"/>
	<path class="st0" d="M154.8,225.3h1.6c0.6,2.8,1.6,4.8,3.2,5.9c1.6,1.2,3.2,1.7,4.8,1.7c1.5,0,2.6-0.3,3.3-1s1.1-1.6,1.1-2.7
		c0-1.1-0.4-2-1.1-2.7c-0.4-0.4-1.1-0.8-2-1.3l-4.4-2.1c-2.3-1.1-3.9-2.4-4.9-3.7s-1.5-2.9-1.5-4.7c0-2.3,0.8-4.3,2.4-5.9
		c1.6-1.7,3.8-2.5,6.7-2.5c1.3,0,2.6,0.2,4,0.6c1.4,0.4,2.3,0.6,2.6,0.6c0.5,0,0.8-0.1,1-0.3s0.4-0.5,0.5-0.9h1.3v8.5h-1.5
		c-0.6-2-1.5-3.6-2.8-4.8s-2.8-1.8-4.5-1.8c-1.3,0-2.3,0.4-2.9,1.1c-0.6,0.7-1,1.5-1,2.4c0,0.7,0.3,1.4,0.9,2.1
		c0.6,0.7,1.6,1.4,3.2,2.2l3.2,1.6c2,1,3.5,1.9,4.4,2.8c1.5,1.5,2.3,3.4,2.3,5.7c0,2.2-0.8,4.2-2.4,6.1c-1.6,1.9-4,2.8-7.1,2.8
		c-0.8,0-1.6-0.1-2.4-0.2c-0.8-0.2-1.8-0.5-3-0.9l-1-0.4c-0.4-0.1-0.6-0.2-0.7-0.2c-0.1,0-0.2,0-0.3,0c-0.3,0-0.6,0.1-0.9,0.4
		c-0.2,0.3-0.5,0.7-0.8,1.3h-1.4L154.8,225.3L154.8,225.3z"/>
	<path class="st0" d="M175.1,245c1.3-0.1,2.1-0.4,2.6-0.9s0.7-1.3,0.7-2.6v-29.6c0-1.2-0.2-2.1-0.6-2.5c-0.4-0.4-1.3-0.7-2.5-0.9
		v-1.4h11.3v3.9c0.8-1.3,1.6-2.3,2.4-3c1.4-1.1,3.1-1.7,5.3-1.7c3.1,0,5.6,1.2,7.7,3.5c2,2.3,3.1,5.8,3.1,10.4
		c0,4.3-1.1,7.8-3.3,10.6s-4.9,4.2-8,4.2c-1.6,0-3.1-0.5-4.6-1.4c-0.8-0.5-1.6-1.2-2.4-2.1v5c0,2.7,0,4.1,0.1,4.5
		c0.1,1.5,0.5,2.6,1.2,3.2c0.7,0.6,1.8,0.9,3.3,1v1.2h-16.1L175.1,245L175.1,245z M195.6,227.5c0.4-1.6,0.6-3.8,0.6-6.7
		c0-3.4-0.3-6.1-0.9-8.1c-0.6-2-1.9-3-3.8-3c-1.3,0-2.4,0.6-3.4,1.7c-1,1.1-1.5,1.9-1.5,2.4v14.3c0,0.6,0.5,1.3,1.4,2.2
		c1,0.9,2,1.4,3.2,1.4C193.5,231.8,194.9,230.3,195.6,227.5z"/>
	<path class="st0" d="M205.6,232.8c1-0.2,1.7-0.4,2.1-0.8c0.6-0.5,0.9-1.5,0.9-2.8v-17.3c0-1.2-0.2-2-0.6-2.5
		c-0.4-0.4-1.2-0.8-2.4-1V207h11.2v22.4c0,1.3,0.2,2.1,0.6,2.5c0.4,0.4,1.1,0.6,2.2,0.9v1.4h-14V232.8z M209.4,194.9
		c0.9-0.9,2-1.3,3.2-1.3s2.3,0.4,3.2,1.3s1.3,2,1.3,3.2c0,1.3-0.5,2.3-1.3,3.2c-0.9,0.9-2,1.3-3.2,1.3c-1.3,0-2.4-0.4-3.2-1.3
		c-0.9-0.9-1.3-2-1.3-3.2C208.1,196.9,208.5,195.8,209.4,194.9z"/>
	<path class="st0" d="M219.6,209.6V208c0.5-0.5,1.2-1,1.9-1.7c1-0.9,2-1.9,2.9-2.9c1.8-2,3.4-4.1,4.9-6.3h1.5v10h5.6v2.6h-5.6v17.8
		c0,0.8,0.1,1.5,0.4,2.1c0.4,0.9,1,1.3,1.9,1.3c0.8,0,1.4-0.3,1.9-0.8s1-1.3,1.6-2.3l1.4,0.7c-0.7,1.6-1.5,2.9-2.5,4
		c-1.7,1.8-3.7,2.7-6.2,2.7c-1.4,0-2.6-0.3-3.6-0.8c-2-1-3-2.8-3-5.4v-19.1L219.6,209.6L219.6,209.6z"/>
	<path class="st0" d="M241.4,222.3c2.6-1.6,6.6-3.1,12.1-4.7v-4.3c0-1.7-0.4-3-1.1-3.9c-0.7-0.8-2.1-1.3-3.9-1.3
		c-1.1,0-1.9,0.2-2.6,0.6c-0.7,0.4-1,0.9-1,1.5c0,0.2,0,0.4,0.1,0.6c0.1,0.2,0.2,0.3,0.3,0.5l0.3,0.4c0.3,0.3,0.5,0.7,0.6,1.1
		c0.2,0.4,0.2,0.8,0.2,1.2c0,1.1-0.4,2-1.1,2.6c-0.7,0.6-1.6,0.9-2.6,0.9c-1.1,0-2.1-0.3-2.9-1c-0.8-0.7-1.2-1.6-1.2-2.9
		c0-2.3,1.1-4,3.2-5.4s4.8-2,7.9-2c3.3,0,6.1,0.6,8.4,1.9c2.2,1.3,3.3,3.7,3.3,7.2v14.3c0,0.4,0.1,0.8,0.3,1.1
		c0.2,0.3,0.5,0.4,0.7,0.4s0.4,0,0.6-0.1s0.5-0.3,0.9-0.7l0.9,1.2c-1.2,1.3-2.4,2.3-3.8,2.8c-0.9,0.3-1.8,0.5-2.8,0.5
		c-1.7,0-3-0.5-3.8-1.5c-0.5-0.6-0.8-1.4-1-2.6c-1.6,1.6-3.5,2.8-5.5,3.5c-1.3,0.4-2.5,0.6-3.7,0.6c-1.6,0-3.1-0.5-4.5-1.5
		s-2.1-2.6-2.1-4.8C237.6,226,238.9,223.9,241.4,222.3z M251.7,230c0.5-0.3,1-0.9,1.6-1.6v-8.7c-1.6,0.4-3,1-4.2,1.8
		c-2,1.4-3,3.2-3,5.4c0,1.3,0.3,2.3,0.9,2.9c0.6,0.7,1.2,1,2,1C250,230.8,250.9,230.5,251.7,230z"/>
	<path class="st0" d="M264.3,232.8c1-0.2,1.8-0.6,2.2-1c0.4-0.4,0.6-1.3,0.6-2.6v-30c0-1.3-0.2-2.1-0.6-2.5s-1.1-0.7-2.2-1v-1.4
		h11.1v34.9c0,1.3,0.2,2.2,0.6,2.6c0.4,0.4,1.2,0.7,2.3,1v1.4h-14.1v-1.4H264.3z"/>
</g>
<g>
	<path class="st0" d="M286.3,200.9c-3.3,0-6-2.7-6-6s2.7-6,6-6s6,2.7,6,6S289.6,200.9,286.3,200.9z M286.3,189.7
		c-2.9,0-5.2,2.4-5.2,5.2c0,2.9,2.3,5.2,5.2,5.2c2.9,0,5.2-2.4,5.2-5.2C291.5,192.1,289.2,189.7,286.3,189.7z M284,193.1
		c0-0.7,0-1.3-0.8-1.3v-0.3h3.5c1.5,0,2.6,0.6,2.6,1.8c0,0.9-0.7,1.6-1.5,1.8l1.1,1.9c0.2,0.4,0.5,1,1,1v0.3h-2l-1.7-3.1h-0.4v1.5
		c0,0.9,0,1.3,1,1.3v0.3h-3.6V198c0.9,0,0.9-0.4,0.9-1.3L284,193.1L284,193.1z M285.7,194.7c0.1,0,0.3,0.1,0.5,0.1
		c0.9,0,1.3-0.7,1.3-1.5c0-0.6-0.2-1.4-1.4-1.4h-0.4V194.7z"/>
</g>
</svg>
