<?xml version="1.0" encoding="utf-8"?>
<!-- Generator: Adobe Illustrator 23.0.4, SVG Export Plug-In . SVG Version: 6.00 Build 0)  -->
<svg version="1.1" id="Layer_1" xmlns="http://www.w3.org/2000/svg" xmlns:xlink="http://www.w3.org/1999/xlink" x="0px" y="0px"
	 viewBox="0 0 217.5 21" style="enable-background:new 0 0 217.5 21;" xml:space="preserve">
<style type="text/css">
	.st0{fill:#FFFFFF;}
</style>
<path class="st0" d="M13.8,13.6V0.3H9.3v13.1c0,2.3-1,3.4-2.7,3.4c-1.5-0.1-2.8-0.8-3.7-2L0,17.9c1.6,2,4.1,3.1,6.6,3
	C10.9,20.9,13.8,18.6,13.8,13.6z M40.3,20.6L31.6,0.2h-4.1l-8.7,20.4h4.6l1.9-4.6h8.6l1.9,4.6H40.3z M32.2,12.1h-5.4l2.7-6.6
	L32.2,12.1z M63.9,20.6l-5-7.2c2.7-0.9,4.5-3.5,4.3-6.3V7c0-4.2-2.9-6.7-7.7-6.7h-9.3v20.3h4.5v-6.5h3.5l4.3,6.5H63.9z M58.8,7.3
	c0,1.7-1.2,2.9-3.4,2.9h-4.5V4.4h4.4C57.4,4.4,58.8,5.4,58.8,7.3L58.8,7.3z M87.8,20.6l-5-7.2c2.7-0.9,4.5-3.5,4.3-6.3V7
	c0-4.2-2.9-6.7-7.7-6.7h-9.3v20.3h4.5v-6.5h3.5l4.3,6.5H87.8z M82.7,7.3c0,1.7-1.2,2.9-3.4,2.9h-4.5V4.4h4.4
	C81.3,4.4,82.7,5.4,82.7,7.3L82.7,7.3z M114.8,10.5L114.8,10.5c0-5.8-4.6-10.5-10.4-10.5c-0.1,0-0.3,0-0.4,0
	c-5.8-0.2-10.6,4.4-10.8,10.2c0,0.1,0,0.2,0,0.3v0.1c0,5.7,4.6,10.4,10.4,10.4c0.1,0,0.3,0,0.4,0c5.8,0.2,10.6-4.4,10.8-10.2
	C114.8,10.7,114.8,10.6,114.8,10.5z M110.1,10.6c0.1,3.4-2.5,6.2-5.8,6.3c-0.1,0-0.2,0-0.3,0c-3.4,0-6.2-2.8-6.2-6.2
	c0-0.1,0-0.1,0-0.2v-0.1c-0.1-3.4,2.5-6.2,5.8-6.3c0.1,0,0.2,0,0.3,0c3.4,0,6.2,2.8,6.2,6.2C110.1,10.4,110.1,10.4,110.1,10.6
	L110.1,10.6z M140.4,10.5L140.4,10.5c0-5.8-4.4-10.1-10.8-10.1h-7.9v20.3h7.9C136,20.6,140.4,16.2,140.4,10.5z M135.7,10.6
	c0.2,3.2-2.3,5.9-5.5,6.1c-0.2,0-0.4,0-0.6,0h-3.5V4.4h3.5c3.2-0.2,6,2.3,6.1,5.5C135.7,10.1,135.7,10.3,135.7,10.6L135.7,10.6z
	 M173.4,20.6v-4.1h-10.1V0.3h-4.5v20.3H173.4z M195.1,20.6v-4h-11v-4.3h9.6v-4h-9.6V4.3H195v-4h-15.3v20.3H195.1z M217.5,20.6v-4
	h-11v-4.3h9.6v-4h-9.6V4.3h10.9v-4H202v20.3H217.5z"/>
</svg>
