<?xml version="1.0" encoding="utf-8"?>
<!-- Generator: Adobe Illustrator 22.0.0, SVG Export Plug-In . SVG Version: 6.00 Build 0)  -->
<svg version="1.1" id="Layer_1" xmlns="http://www.w3.org/2000/svg" xmlns:xlink="http://www.w3.org/1999/xlink" x="0px" y="0px"
	 viewBox="0 0 2617.9 383.2" style="enable-background:new 0 0 2617.9 383.2;" xml:space="preserve">
<style type="text/css">
	.st0{fill:#00953B;}
	.st1{fill:#FFFFFF;}
</style>
<title>Asset 7</title>
<g id="Layer_2_1_">
	<g id="Layer_1-2">
		<path class="st0" d="M545.1,102.9L532.5,160c-83-4.2-191.1,17.5-286,52.7L218.9,328l-73.1,20.4l26.7-104.2
			c-31.6,15.4-59.9,32.2-83.1,49.8l-16.4,68.9L0,383.2L75,90.8l69.3-26.6L106.9,221c22.7-14,50.9-28.4,82.5-42.1L220.9,56l69.2-26.6
			l-28.9,121.5C358.8,116.8,469.6,93.4,545.1,102.9 M380.6,58c1.6-13.4-4.6-32-29-32c-20.9,0-40.4,16.1-46.5,47.7
			c-6,31.2,6.4,47.5,28.1,47.5c20.4,0,34.5-13.7,41.7-33.3h-17c-4.2,11-11.9,17-21.3,17c-14.4,0-17.4-14.6-14.3-30.8
			c4.9-25.5,18.1-31.6,26.2-31.6c14,0,14.7,10.2,15,15.6L380.6,58z M388.2,73.1c-2.1,11.2-0.7,30.2,29,30.2
			c7.1,0,32.6-2.4,37.7-29.6c3.1-16.3-6.1-21.3-16.7-24.3L419.4,44c-3.2-0.9-8.2-2.4-6.8-9.4c1.5-8.2,9.8-10.8,16.2-10.8
			c14.8,0,14.3,9.6,14,13.5h16.3c2-11-1.2-29.2-26.1-29.2c-26.4,0-34.7,17.7-36.6,27.8c-3.8,19.9,8.3,23.2,20.8,26.5l8.3,2.3
			c8.2,2.3,13.9,4.2,12.6,11.2c-1.8,9.5-11.2,11.7-19.2,11.7c-14.8,0-15.3-9.5-14.4-14.6H388.2z M470.8,64.9
			c-2.1,11.2-0.7,30.2,29,30.2c7.1,0,32.5-2.4,37.7-29.6c3.1-16.2-6.1-21.2-16.6-24.3L502,35.9c-3.2-0.9-8.1-2.4-6.8-9.4
			c1.6-8.2,9.8-10.8,16.2-10.8c14.8,0,14.4,9.6,14,13.6h16.3C543.8,18.1,540.6,0,515.7,0c-26.4,0-34.7,17.7-36.6,27.8
			c-3.8,19.9,8.2,23.2,20.8,26.6l8.3,2.2c8.1,2.3,13.9,4.2,12.6,11.2c-1.8,9.6-11.2,11.7-19.2,11.7c-14.8,0-15.3-9.6-14.4-14.6
			L470.8,64.9z"/>
		<rect x="726.8" y="47.9" class="st1" width="6" height="278.4"/>
		<path class="st1" d="M922,53.3h8.9v103.9H922V53.3z"/>
		<path class="st1" d="M1004.1,106.2c0-6.9-1.6-11.7-4.7-14.6s-7.6-4.3-13.5-4.3c-4.9,0-9.6,1.3-13.9,3.7c-4.2,2.2-7.8,5.3-10.6,9.2
			v56.9h-8.1V82h8.1v11.4c3.4-3.8,7.5-7,12-9.3c4.6-2.6,9.8-3.9,15.1-4c15.8,0,23.7,8.2,23.7,24.5v52.7h-8.1L1004.1,106.2z"/>
		<path class="st1" d="M1085.1,106.2c0-6.9-1.6-11.7-4.7-14.6s-7.6-4.3-13.6-4.3c-4.9,0-9.6,1.3-13.9,3.7c-4.2,2.2-7.8,5.3-10.6,9.2
			v56.9h-8.1V82h8.1v11.4c3.4-3.8,7.5-7,12-9.3c4.6-2.6,9.8-3.9,15.1-4c15.8,0,23.7,8.2,23.7,24.5v52.7h-8.1L1085.1,106.2z"/>
		<path class="st1" d="M1128.2,154.1c-5.5-3.5-9.9-8.4-12.7-14.3c-3.1-6.3-4.6-13.2-4.5-20.1c-0.1-6.9,1.5-13.8,4.5-20.1
			c2.9-5.8,7.2-10.7,12.7-14.2c5.7-3.5,12.2-5.4,18.9-5.2c6.8-0.1,13.4,1.7,19.2,5.2c5.5,3.5,9.9,8.4,12.7,14.2
			c3,6.3,4.5,13.1,4.4,20.1c0.1,7-1.4,13.9-4.4,20.1c-2.8,5.9-7.2,10.8-12.7,14.3c-5.7,3.6-12.4,5.4-19.2,5.2
			C1140.4,159.4,1133.8,157.6,1128.2,154.1z M1161.9,147.7c4.2-3,7.5-7.2,9.5-11.9c2.2-5.1,3.3-10.6,3.3-16.1c0.1-5.5-1.1-11-3.3-16
			c-2-4.7-5.3-8.8-9.5-11.8c-4.3-3-9.5-4.6-14.8-4.5c-5.2-0.1-10.4,1.5-14.7,4.5c-4.2,3-7.5,7.1-9.5,11.8c-2.2,5-3.3,10.5-3.3,16
			c0,5.5,1.1,11,3.3,16.1c2,4.8,5.3,8.9,9.5,11.9c4.3,3,9.4,4.6,14.7,4.5C1152.4,152.2,1157.6,150.7,1161.9,147.7L1161.9,147.7z"/>
		<path class="st1" d="M1189.6,82h9l27.4,65.7l27.1-65.7h9.2l-31.8,75.2h-9.2L1189.6,82z"/>
		<path class="st1" d="M1320.8,148.4c-6.5,7.3-15.1,10.9-25.6,10.9c-4.4,0-8.8-1-12.8-3c-4-1.9-7.4-4.9-9.8-8.7c-5-8.3-5-18.7,0-27
			c2.4-3.7,5.8-6.7,9.8-8.6c4-1.9,8.4-2.9,12.8-2.9c10.6,0,19.1,3.6,25.6,10.8v-15.4c0-5.5-1.9-9.8-5.8-12.9
			c-3.8-3.1-8.7-4.7-14.5-4.7c-4.4-0.1-8.7,0.8-12.7,2.7c-4.1,2-7.8,4.9-10.8,8.4l-4.5-5.6c3.6-4,8-7.1,12.8-9.3
			c5.1-2.1,10.6-3.1,16.1-3c8.1,0,14.7,2,19.8,6.1s7.6,10.1,7.6,18.1v53h-8.1L1320.8,148.4z M1320.8,126.2c-2.6-3.3-6-6-9.9-7.6
			c-4.1-1.7-8.4-2.6-12.8-2.6c-6.1,0-11.1,1.7-14.9,5.2c-3.7,3.3-5.8,8.1-5.7,13.1c-0.1,5,2,9.7,5.7,13c3.8,3.4,8.7,5.1,14.9,5.1
			c4.4,0,8.8-0.8,12.9-2.6c3.8-1.6,7.2-4.2,9.8-7.5V126.2z"/>
		<path class="st1" d="M1356.3,155c-2.5-2.9-3.7-6.9-3.7-12.1V89.2h-12.5V82h12.5V61.4h8.3V82h15.3v7.2h-15.3v52.6
			c-0.1,2.7,0.6,5.3,2,7.5c1.3,1.9,3.5,3,5.8,2.8c1.6,0,3.3-0.3,4.8-1c1.4-0.6,2.6-1.5,3.7-2.6l3.1,6.2c-1.6,1.5-3.4,2.6-5.5,3.4
			c-2.4,0.8-4.8,1.2-7.3,1.1C1362.5,159.3,1358.8,157.9,1356.3,155z"/>
		<path class="st1" d="M1390.5,67.7c-2.4-2.5-2.4-6.4,0.1-8.8c1.1-1.1,2.7-1.8,4.3-1.8c3.4,0,6.2,2.8,6.2,6.2c0,1.6-0.6,3.2-1.8,4.4
			c-1.1,1.2-2.8,1.9-4.4,1.9C1393.2,69.5,1391.6,68.9,1390.5,67.7z M1390.8,82h8.1v75.2h-8.1V82z"/>
		<path class="st1" d="M1409.5,82h9l27.4,65.7L1473,82h9.2l-31.8,75.2h-9.2L1409.5,82z"/>
		<path class="st1" d="M1493.2,99.8c3-5.8,7.5-10.8,13-14.4c11.5-7.1,26.1-7.1,37.6,0.1c5.3,3.6,9.6,8.6,12.2,14.4
			c2.9,6.3,4.3,13.2,4.2,20.1v2.2h-62.9c0.2,5.3,1.7,10.5,4.1,15.3c2.3,4.5,5.9,8.3,10.2,10.9c4.6,2.7,9.8,4.1,15.1,4
			c4.6,0,9.2-0.9,13.5-2.6c4.2-1.8,8-4.4,11.1-7.8l4.2,5.3c-7.8,8-17.6,12-29.4,12c-6.8,0.1-13.6-1.6-19.5-5.1
			c-5.7-3.3-10.3-8.2-13.4-14.1c-3.3-6.3-5-13.4-4.8-20.5C1488.4,112.7,1490,105.9,1493.2,99.8z M1510.1,91.2
			c-4,2.7-7.1,6.4-9.3,10.7c-2.1,4.2-3.3,8.7-3.5,13.4h54.7c-0.1-4.6-1.2-9.2-3.2-13.3c-2-4.4-5.2-8.1-9.2-10.8
			c-4.4-2.9-9.7-4.4-15-4.2C1519.5,86.9,1514.4,88.3,1510.1,91.2z"/>
		<path class="st1" d="M1615.6,136.5c3.9,4.5,8.6,8.1,13.9,10.8c5.7,2.9,12.1,4.4,18.5,4.3c9.7,0,16.7-2.2,21-6.6
			c4.1-4,6.5-9.4,6.5-15.1c0-4.8-1.3-8.7-3.8-11.7c-2.6-3.1-5.9-5.5-9.6-7c-3.8-1.6-10.7-3.3-20.5-5.1c-4-2.1-8.2-4-12.4-5.7
			c-4.3-1.7-8.2-4.5-11.3-8c-3.1-3.5-4.7-8.2-4.7-13.9c-0.1-5.1,1.5-10.1,4.5-14.2c3.2-4.2,7.4-7.4,12.3-9.3
			c5.5-2.3,11.4-3.4,17.3-3.3c14.8,0,26.6,4.7,35.2,14.2l-5.9,6.6c-3.5-4.3-8-7.6-13.1-9.8c-5.3-2.2-10.9-3.3-16.7-3.3
			c-7,0-12.7,1.8-17.4,5.4c-4.4,3.3-7,8.5-6.9,14c-0.1,3.5,1.2,7,3.6,9.5c2.5,2.6,5.6,4.6,9,5.8c4.8,1.8,9.6,3.3,14.6,4.5
			c6.3,1.7,12.4,3.8,18.4,6.3c4.6,2,8.7,5.1,11.9,9.1c3.3,4,4.9,9.3,4.9,15.8c0,4.9-1.2,9.7-3.6,14.1c-2.4,4.5-6.3,8.2-11.8,11.1
			s-12.7,4.4-21.5,4.4c-7.5,0.1-15-1.3-22-4.2c-6.2-2.6-11.7-6.7-16-11.8L1615.6,136.5z"/>
		<path class="st1" d="M1715.5,154.1c-5.5-3.5-9.9-8.4-12.7-14.3c-3.1-6.3-4.6-13.2-4.5-20.1c-0.1-7,1.4-13.8,4.5-20.1
			c2.9-5.8,7.2-10.7,12.7-14.2c5.7-3.5,12.2-5.4,18.9-5.2c6.8-0.1,13.4,1.7,19.2,5.2c5.5,3.5,9.9,8.4,12.7,14.2
			c3,6.3,4.5,13.1,4.4,20.1c0.1,7-1.4,13.9-4.4,20.1c-2.8,5.9-7.2,10.8-12.7,14.3c-5.8,3.6-12.4,5.4-19.2,5.2
			C1727.8,159.4,1721.2,157.6,1715.5,154.1z M1749.3,147.7c4.2-3,7.5-7.2,9.5-11.9c2.2-5.1,3.3-10.6,3.3-16.1c0-5.5-1.1-11-3.3-16
			c-2-4.7-5.3-8.8-9.5-11.8c-4.3-3-9.5-4.6-14.8-4.5c-5.2-0.1-10.4,1.5-14.6,4.5c-4.2,3-7.5,7.1-9.5,11.8c-2.2,5-3.3,10.5-3.3,16
			c0,5.5,1.1,11,3.3,16.1c2,4.8,5.3,8.9,9.5,11.9c4.3,3,9.4,4.6,14.6,4.5C1739.8,152.3,1744.9,150.7,1749.3,147.7L1749.3,147.7z"/>
		<path class="st1" d="M1791.2,89.2h-12.5V82h12.5v-6.9c0-7.4,1.8-13.2,5.4-17.3c3.6-4.1,8.6-6.2,15-6.2c3.5-0.1,7,0.7,10.1,2.4
			l-2.5,6.5c-2.1-1.2-4.5-1.8-6.8-1.7c-4.3,0-7.5,1.4-9.7,4.2c-2.2,2.8-3.3,6.9-3.3,12.2V82h15.3v7.2h-15.3v68.1h-8.1L1791.2,89.2z"
			/>
		<path class="st1" d="M1832,155c-2.5-2.9-3.7-6.9-3.7-12.1V89.2h-12.5V82h12.5V61.4h8.2V82h15.3v7.2h-15.3v52.6
			c-0.1,2.7,0.6,5.3,2,7.5c1.3,1.9,3.5,3,5.8,2.8c1.6,0,3.3-0.3,4.8-1c1.4-0.6,2.6-1.5,3.7-2.6l3.1,6.2c-1.6,1.5-3.4,2.6-5.4,3.4
			c-2.4,0.8-4.8,1.2-7.3,1.1C1838.2,159.3,1834.5,157.9,1832,155z"/>
		<path class="st1" d="M1909.9,92.9l-21.2,64.3h-7.8L1856.5,82h8.7l19.9,63.9l21.2-63.9h7l21.2,63.9l20-63.9h8.7l-24.5,75.2h-7.8
			L1909.9,92.9z"/>
		<path class="st1" d="M2023.2,148.4c-6.5,7.3-15.1,10.9-25.6,10.9c-4.4,0-8.8-1-12.8-3c-12.4-6.5-17.2-21.8-10.7-34.2
			c0.3-0.5,0.5-1,0.8-1.4c2.4-3.7,5.8-6.7,9.8-8.6c4-1.9,8.3-2.9,12.8-2.9c10.6,0,19.1,3.6,25.6,10.8v-15.3c0-5.5-1.9-9.8-5.8-12.9
			c-3.8-3.1-8.7-4.7-14.5-4.7c-4.4-0.1-8.7,0.8-12.7,2.7c-4.1,2-7.8,4.9-10.8,8.4l-4.5-5.6c3.6-4,8-7.1,12.8-9.3
			c5.1-2.1,10.6-3.1,16.1-3c8.1,0,14.7,2,19.8,6.1s7.6,10.1,7.6,18.1v53h-8.1L2023.2,148.4z M2023.2,126.2c-2.6-3.3-6-6-9.9-7.6
			c-4.1-1.7-8.4-2.6-12.8-2.6c-6.1,0-11.1,1.7-14.9,5.2c-3.7,3.3-5.8,8.1-5.7,13.1c-0.1,5,2,9.7,5.7,13c3.8,3.4,8.7,5.1,14.9,5.1
			c4.4,0,8.8-0.8,12.9-2.6c3.8-1.6,7.2-4.2,9.8-7.5L2023.2,126.2z"/>
		<path class="st1" d="M2053.4,82h8.1v12.9c3.2-4.2,7.1-7.9,11.5-10.8c4.1-2.6,9-4,13.9-4v7.9c-1.3-0.2-2.7-0.3-4.1-0.3
			c-3.7,0-7.8,1.4-12.2,4.3s-7.4,6-9.2,9.4v55.8h-8.1L2053.4,82z"/>
		<path class="st1" d="M2100.1,99.8c3-5.8,7.5-10.8,13-14.4c11.5-7.1,26.1-7.1,37.6,0.1c5.3,3.6,9.6,8.6,12.2,14.4
			c2.9,6.3,4.3,13.2,4.2,20.1v2.2h-62.9c0.2,5.3,1.7,10.5,4.1,15.3c2.3,4.5,5.9,8.3,10.2,10.9c4.6,2.7,9.8,4.1,15.1,4
			c4.6,0,9.2-0.9,13.5-2.6c4.2-1.8,8-4.4,11.1-7.8l4.2,5.3c-7.8,8-17.6,12-29.4,12c-6.8,0.1-13.6-1.6-19.5-5.1
			c-5.7-3.3-10.3-8.2-13.4-14.1c-3.3-6.3-5-13.4-4.8-20.5C2095.2,112.7,2096.9,105.9,2100.1,99.8z M2117,91.2
			c-4,2.7-7.1,6.4-9.3,10.7c-2.1,4.2-3.3,8.7-3.5,13.4h54.7c-0.1-4.6-1.2-9.2-3.2-13.3c-2-4.4-5.2-8.1-9.2-10.8
			c-4.4-2.9-9.7-4.4-15-4.2C2126.3,86.9,2121.3,88.3,2117,91.2L2117,91.2z"/>
		<path class="st1" d="M2224.8,89.2h-12.5V82h12.5v-6.9c0-7.4,1.8-13.2,5.4-17.3s8.6-6.2,15-6.2c3.5-0.1,7,0.7,10.1,2.4l-2.5,6.5
			c-2.1-1.2-4.5-1.8-6.9-1.7c-4.3,0-7.5,1.4-9.7,4.2c-2.2,2.8-3.4,6.9-3.4,12.2V82h15.3v7.2h-15.3v68.1h-8.1L2224.8,89.2z"/>
		<path class="st1" d="M2273.1,154.1c-5.5-3.5-9.9-8.4-12.7-14.3c-3.1-6.3-4.6-13.2-4.5-20.1c-0.1-7,1.4-13.8,4.5-20.1
			c2.9-5.8,7.2-10.7,12.7-14.2c5.7-3.5,12.2-5.4,18.9-5.2c6.8-0.1,13.4,1.7,19.2,5.2c5.5,3.5,9.9,8.4,12.7,14.2
			c3,6.3,4.5,13.1,4.4,20.1c0.1,7-1.4,13.9-4.4,20.1c-2.8,5.9-7.2,10.8-12.7,14.3c-5.8,3.6-12.4,5.4-19.2,5.2
			C2285.4,159.4,2278.8,157.6,2273.1,154.1z M2306.9,147.7c4.2-3,7.5-7.2,9.5-11.9c2.2-5.1,3.3-10.6,3.3-16.1c0-5.5-1.1-11-3.3-16
			c-2-4.7-5.3-8.8-9.5-11.8c-4.3-3-9.5-4.6-14.8-4.5c-5.2-0.1-10.4,1.5-14.6,4.5c-4.2,3-7.5,7.1-9.5,11.8c-2.2,5-3.3,10.5-3.3,16
			c0,5.5,1.1,11,3.3,16.1c2,4.8,5.3,8.9,9.5,11.9c4.3,3,9.4,4.6,14.6,4.5C2297.4,152.3,2302.6,150.7,2306.9,147.7L2306.9,147.7z"/>
		<path class="st1" d="M2346.1,82h8.1v12.9c3.2-4.2,7.1-7.9,11.5-10.8c4.1-2.6,9-4,13.9-4v7.9c-1.3-0.2-2.7-0.3-4-0.3
			c-3.7,0-7.8,1.4-12.1,4.3s-7.4,6-9.2,9.4v55.8h-8.1L2346.1,82z"/>
		<path class="st1" d="M2435,155c-2.5-2.9-3.7-6.9-3.7-12.1V89.2h-12.5V82h12.5V61.4h8.3V82h15.3v7.2h-15.3v52.6
			c-0.1,2.7,0.6,5.3,2,7.5c1.3,1.9,3.5,3,5.8,2.8c1.6,0,3.3-0.3,4.8-1c1.4-0.6,2.6-1.5,3.7-2.6l3.1,6.2c-1.6,1.5-3.4,2.6-5.5,3.4
			c-2.4,0.8-4.8,1.2-7.3,1.1C2441.2,159.3,2437.5,157.9,2435,155z"/>
		<path class="st1" d="M2520.2,105.9c0-6.9-1.6-11.7-4.7-14.4c-3.1-2.8-7.6-4.1-13.6-4.1c-4.9,0.1-9.6,1.3-13.9,3.8
			c-4.2,2.2-7.8,5.3-10.6,9.2v57h-8.1V53.3h8.1v40c3.4-3.8,7.5-7,12-9.3c4.6-2.6,9.8-3.9,15.1-4c7.8,0,13.7,1.9,17.7,5.8
			s6,10,6,18.3v53h-8.1L2520.2,105.9z"/>
		<path class="st1" d="M2550.8,99.8c3-5.8,7.5-10.8,13-14.4c11.5-7.1,26.1-7.1,37.6,0.1c5.3,3.6,9.6,8.6,12.2,14.4
			c2.9,6.3,4.3,13.2,4.2,20.1v2.2h-62.9c0.2,5.3,1.7,10.5,4.1,15.3c2.3,4.5,5.9,8.3,10.2,10.9c4.6,2.7,9.8,4.1,15.1,4
			c4.6,0,9.2-0.9,13.5-2.6c4.2-1.8,8-4.4,11.2-7.8l4.2,5.3c-7.8,8-17.6,12-29.4,12c-6.8,0.1-13.6-1.6-19.5-5.1
			c-5.7-3.3-10.3-8.2-13.4-14.1c-3.3-6.3-5-13.4-4.8-20.5C2546,112.7,2547.6,105.9,2550.8,99.8z M2567.7,91.2
			c-4,2.7-7.1,6.4-9.3,10.7c-2.1,4.2-3.3,8.7-3.5,13.4h54.7c-0.1-4.6-1.2-9.2-3.2-13.3c-2-4.4-5.2-8.1-9.2-10.8
			c-4.4-2.9-9.7-4.4-15-4.2C2577.1,86.8,2572,88.3,2567.7,91.2z"/>
		<path class="st1" d="M941.3,308.3c-8.2-4.4-15-11-19.7-19.1c-9.7-17.4-9.7-38.5,0-55.9c4.7-8.1,11.5-14.7,19.7-19.1
			c8.5-4.6,18-6.9,27.6-6.8c10.9,0,19.9,2.1,27.1,6.4c7.1,4.2,13,10.1,17.1,17.2l-19,9.4c-2.4-4.5-5.9-8.2-10.2-10.8
			c-4.5-2.8-9.7-4.3-15-4.3c-5.7-0.1-11.4,1.6-16.2,4.7c-4.9,3.2-8.9,7.7-11.5,12.9c-5.5,11.7-5.5,25.2,0,36.9
			c2.6,5.3,6.5,9.7,11.5,12.9c4.8,3.1,10.5,4.7,16.2,4.7c5.3,0.1,10.6-1.4,15.1-4.2c4.3-2.6,7.8-6.4,10.1-10.9l19,9.2
			c-9.9,15.8-24.6,23.7-44.2,23.7C959.3,315.2,949.8,312.9,941.3,308.3z"/>
		<path class="st1" d="M1036.7,309.8c-5.9-3.4-10.7-8.4-13.9-14.4c-6.4-12.5-6.4-27.3,0-39.8c3.2-6,8-11,13.9-14.4
			c6.4-3.6,13.6-5.5,21-5.3c8.1,0,15.2,1.8,21.2,5.3c5.9,3.4,10.7,8.4,13.9,14.4c6.4,12.5,6.4,27.3,0,39.8c-3.2,6-8,11-13.9,14.4
			c-6,3.5-13.1,5.3-21.2,5.3C1050.3,315.2,1043,313.4,1036.7,309.8z M1071.8,292.9c3.5-4.7,5.2-10.5,5.2-17.5
			c0-6.8-1.7-12.6-5.2-17.3c-3.2-4.6-8.5-7.2-14.1-7.1c-5.6-0.2-10.8,2.5-14,7.1c-3.4,4.7-5.1,10.4-5.1,17.3c0,7,1.7,12.8,5.1,17.5
			c3.2,4.6,8.4,7.2,14,7C1063.3,300.1,1068.6,297.5,1071.8,292.9L1071.8,292.9z"/>
		<path class="st1" d="M1159.9,265.7c0-5.2-1.2-8.9-3.6-11.2c-2.4-2.3-5.8-3.4-10.3-3.4c-3.5,0-6.9,0.8-9.9,2.6
			c-2.8,1.6-5.3,3.7-7.2,6.3v50.6h-19.8v-72.8h19.8v9.8c6.7-7.5,16.3-11.8,26.3-11.7c8.1,0,14.2,2.1,18.3,6.4
			c4.1,4.3,6.2,10.1,6.2,17.6v53.1h-19.8L1159.9,265.7z"/>
		<path class="st1" d="M1198.2,290.5c3.5,3.1,7.5,5.5,11.8,7.2c4.5,2,9.3,3,14.2,3.1c4.2,0,7.3-0.8,9.4-2.4c2.1-1.5,3.3-4,3.2-6.6
			c0.1-2.7-1.4-5.2-3.7-6.4c-3.6-1.9-7.4-3.2-11.4-4c-5.1-0.9-10.1-2.1-15-3.6c-3.9-1.3-7.4-3.5-10.3-6.5c-2.9-3-4.4-7.2-4.4-12.5
			c0-4.1,1.3-8.1,3.7-11.4c2.7-3.7,6.4-6.6,10.7-8.3c5.2-2.2,10.9-3.2,16.5-3.1c11.6,0,21.8,3.2,30.4,9.8l-7.9,13.3
			c-2.7-2.7-6-4.8-9.6-6.2c-4-1.7-8.3-2.5-12.7-2.5c-3-0.1-6,0.6-8.7,2c-2,1.1-3.2,3.1-3.2,5.4c0,2.3,1.2,4,3.5,5.2
			c3.5,1.5,7.1,2.6,10.8,3.4c5.1,0.9,10.2,2.2,15.1,3.9c4.1,1.5,7.7,3.9,10.6,7.2c3,3.3,4.5,7.9,4.5,13.6c0,4.4-1.3,8.8-3.8,12.4
			c-2.8,3.9-6.7,6.9-11.2,8.7c-5.6,2.2-11.5,3.3-17.5,3.1c-6.4,0-12.7-1-18.8-2.9c-5.4-1.7-10.5-4.4-14.9-8L1198.2,290.5z"/>
		<path class="st1" d="M1276.7,309.6c-3.6-3.7-5.5-9-5.5-15.9v-40.8h-12.5v-15.1h12.5v-20.6h20v20.6h15.3v15.1h-15.3v37.8
			c-0.1,2.3,0.6,4.7,1.9,6.6c1.1,1.7,3,2.7,5,2.6c1.4,0,2.7-0.2,4.1-0.6c1-0.3,2-0.8,2.8-1.6l4.2,13.1c-3.6,2.8-9.1,4.1-16.5,4.1
			C1285.7,315.1,1280.4,313.3,1276.7,309.6z"/>
		<path class="st1" d="M1316.9,237.8h19.8v10.3c2.9-3.6,6.5-6.5,10.6-8.6c4.1-2.3,8.7-3.5,13.4-3.5v18.4c-1.8-0.4-3.6-0.6-5.4-0.6
			c-3.7,0.1-7.3,0.9-10.6,2.5c-3.7,1.7-6.4,3.8-8,6.2v50.6h-19.8L1316.9,237.8z"/>
		<path class="st1" d="M1420.7,303.6c-3.2,3.4-6.9,6.2-11.1,8.2c-4.8,2.3-10,3.4-15.3,3.4c-8.1,0-14.2-2.1-18.2-6.2
			c-4.1-4.2-6.1-10-6.1-17.5v-53.5h19.8v47.7c0,5.2,1.2,8.9,3.6,11.1c2.4,2.2,5.8,3.3,10.3,3.3c3.4,0,6.8-0.9,9.8-2.6
			c2.9-1.6,5.3-3.8,7.3-6.4v-53.2h19.8v75.2h-19.8V303.6z"/>
		<path class="st1" d="M1457.3,255.1c3.3-5.9,8.3-10.8,14.2-14.1c6.3-3.4,13.4-5.2,20.6-5.1c7.1,0,13.1,1.1,18.1,3.3
			c4.5,1.8,8.5,4.7,11.7,8.4l-12.9,11.6c-3.6-5.4-8.9-8.1-15.9-8.1c-5.7-0.2-11.1,2.3-14.7,6.7c-3.8,4.5-5.7,10.4-5.7,17.7
			c0,7.3,1.9,13.2,5.7,17.8c3.6,4.5,9,7,14.7,6.8c6.3,0.1,12.3-2.9,15.9-8.1l12.9,11.5c-3.2,3.7-7.1,6.5-11.6,8.4
			c-4.9,2.2-11,3.4-18.2,3.4c-7.2,0.1-14.3-1.6-20.6-5.1c-5.9-3.3-10.8-8.1-14.2-14C1450.5,283.2,1450.5,267.9,1457.3,255.1
			L1457.3,255.1z"/>
		<path class="st1" d="M1541,309.6c-3.6-3.7-5.4-9-5.4-15.9v-40.8h-12.5v-15.1h12.5v-20.6h19.9v20.6h15.3v15.1h-15.3v37.8
			c-0.1,2.3,0.6,4.7,1.9,6.6c1.1,1.7,3,2.6,5,2.6c1.4,0,2.7-0.2,4-0.6c1-0.3,2-0.8,2.8-1.6l4.2,13.1c-3.6,2.8-9.1,4.1-16.5,4.1
			C1549.9,315.1,1544.6,313.3,1541,309.6z"/>
		<path class="st1" d="M1582.7,224.6c-4.6-4.6-4.6-12.1,0-16.8s12.1-4.6,16.8,0l0,0c4.6,4.6,4.6,12.1,0,16.8
			c-4.6,4.6-12,4.7-16.6,0.1C1582.7,224.7,1582.7,224.7,1582.7,224.6z M1581.2,237.8h19.8v75.2h-19.8L1581.2,237.8z"/>
		<path class="st1" d="M1631.3,309.8c-5.9-3.4-10.7-8.4-13.9-14.4c-6.4-12.5-6.4-27.3,0-39.8c3.2-6,8-11,13.9-14.4
			c6.4-3.6,13.6-5.5,21-5.3c8.1,0,15.2,1.8,21.2,5.3c5.9,3.4,10.7,8.4,13.9,14.4c6.4,12.5,6.4,27.3,0,39.8c-3.2,6-8,11-13.9,14.4
			c-6,3.5-13.1,5.3-21.2,5.3C1645,315.2,1637.7,313.4,1631.3,309.8z M1666.5,292.9c3.5-4.7,5.2-10.5,5.2-17.5
			c0-6.8-1.7-12.6-5.2-17.3c-3.2-4.6-8.5-7.2-14.1-7.1c-5.6-0.2-10.8,2.5-14,7.1c-3.4,4.7-5.1,10.4-5.1,17.3c0,7,1.7,12.8,5.1,17.5
			c3.2,4.6,8.4,7.2,14,7C1658,300.1,1663.3,297.5,1666.5,292.9L1666.5,292.9z"/>
		<path class="st1" d="M1754.6,265.7c0-5.2-1.2-8.9-3.6-11.2c-2.4-2.3-5.8-3.4-10.3-3.4c-3.5,0-6.9,0.8-9.9,2.6
			c-2.8,1.6-5.3,3.7-7.2,6.3v50.6h-19.8v-72.8h19.8v9.8c3-3.5,6.7-6.3,10.9-8.2c4.8-2.3,10.1-3.5,15.4-3.4c8.1,0,14.2,2.1,18.3,6.4
			c4.1,4.3,6.2,10.1,6.2,17.6v53.1h-19.8L1754.6,265.7z"/>
		<path class="st1" d="M1828.1,209.1h22.1v103.9h-22.1V209.1z"/>
		<path class="st1" d="M1918,265.7c0-5.2-1.2-8.9-3.6-11.2c-2.4-2.3-5.8-3.4-10.3-3.4c-3.5,0-6.9,0.8-9.9,2.6
			c-2.8,1.6-5.3,3.7-7.2,6.3v50.6h-19.8v-72.8h19.8v9.8c6.7-7.5,16.3-11.8,26.3-11.7c8.1,0,14.2,2.1,18.3,6.4
			c4.1,4.3,6.2,10.1,6.2,17.6v53.1H1918V265.7z"/>
		<path class="st1" d="M2006,303.4c-2.8,3.6-6.3,6.6-10.4,8.6c-4,2-8.4,3-12.9,3c-6,0.1-12-1.5-17.1-4.7c-5.2-3.3-9.4-8-11.9-13.6
			c-2.9-5.9-4.3-13-4.3-21.2c-0.2-7.2,1.3-14.4,4.3-21c2.6-5.6,6.7-10.4,11.8-13.8c5.1-3.3,11.1-4.9,17.2-4.8c4.4,0,8.8,1,12.8,3
			c4.1,2,7.7,4.9,10.4,8.6v-38.3h20v103.9h-20V303.4z M2006,260.6c-1.8-2.9-4.3-5.3-7.3-6.9c-3-1.7-6.4-2.7-9.8-2.7
			c-5.4-0.1-10.5,2.4-13.7,6.8c-3.5,4.5-5.3,10.5-5.3,17.8c0,7.2,1.8,13.1,5.3,17.6c3.2,4.4,8.3,6.9,13.8,6.8c3.4,0,6.8-1,9.8-2.7
			c3-1.6,5.5-4,7.3-6.9L2006,260.6z"/>
		<path class="st1" d="M2093.3,303.6c-3.2,3.4-6.9,6.2-11.1,8.2c-4.8,2.3-10,3.4-15.4,3.4c-8.1,0-14.2-2.1-18.2-6.2
			c-4.1-4.2-6.1-10-6.1-17.5v-53.5h19.8v47.7c0,5.2,1.2,8.9,3.6,11.1c2.4,2.2,5.8,3.3,10.3,3.3c3.4,0,6.8-0.9,9.8-2.6
			c2.9-1.6,5.4-3.8,7.3-6.4v-53.2h19.8v75.2h-19.8L2093.3,303.6z"/>
		<path class="st1" d="M2131.6,290.5c3.5,3.1,7.5,5.5,11.8,7.2c4.5,2,9.3,3,14.2,3.1c4.2,0,7.3-0.8,9.4-2.4c2.1-1.5,3.3-4,3.2-6.6
			c0.1-2.7-1.4-5.2-3.7-6.4c-3.6-1.9-7.4-3.2-11.4-4c-5.1-0.9-10.1-2.1-15-3.6c-3.9-1.3-7.4-3.5-10.3-6.5c-2.9-3-4.4-7.2-4.4-12.5
			c0-4.1,1.3-8.1,3.7-11.4c2.7-3.7,6.4-6.6,10.7-8.3c5.2-2.2,10.9-3.2,16.5-3.1c11.6,0,21.8,3.2,30.4,9.8l-7.9,13.3
			c-2.7-2.7-6-4.8-9.6-6.2c-4-1.7-8.3-2.5-12.7-2.5c-3-0.1-6,0.6-8.6,2c-2,1.1-3.2,3.1-3.2,5.4c0,2.3,1.2,4,3.5,5.2
			c3.5,1.5,7.1,2.6,10.8,3.4c5.1,0.9,10.2,2.2,15.1,3.9c4.1,1.5,7.7,3.9,10.6,7.2c3,3.3,4.5,7.9,4.5,13.6c0,4.4-1.3,8.8-3.8,12.4
			c-2.8,3.9-6.7,6.9-11.2,8.7c-5.6,2.2-11.5,3.3-17.5,3.1c-6.4,0-12.7-1-18.8-2.9c-5.4-1.7-10.5-4.4-14.9-8L2131.6,290.5z"/>
		<path class="st1" d="M2210.1,309.6c-3.6-3.7-5.5-9-5.5-15.9v-40.8h-12.5v-15.1h12.5v-20.6h20v20.6h15.3v15.1h-15.3v37.8
			c-0.1,2.3,0.6,4.7,1.9,6.6c1.1,1.7,3,2.7,5,2.6c1.4,0,2.7-0.2,4.1-0.6c1-0.3,2-0.8,2.8-1.6l4.2,13.1c-3.6,2.8-9.1,4.1-16.5,4.1
			C2219.1,315.1,2213.8,313.3,2210.1,309.6z"/>
		<path class="st1" d="M2250.3,237.8h19.8v10.3c2.9-3.6,6.5-6.5,10.6-8.6c4.1-2.3,8.7-3.5,13.4-3.5v18.4c-1.8-0.4-3.6-0.6-5.4-0.6
			c-3.7,0.1-7.3,0.9-10.6,2.5c-3.7,1.7-6.4,3.8-8,6.2v50.6h-19.8L2250.3,237.8z"/>
		<path class="st1" d="M2309.9,328.5c2.3,0.1,4.5-0.3,6.5-1.3c1.8-1,3.1-2.5,3.9-4.3l2.8-6.6l-30.5-78.5h21.2l19.6,52.4l19.6-52.4
			h21.4l-35.4,87.6c-2.6,6.7-6.2,11.3-10.9,13.9s-10.5,4.1-17.6,4.3c-1.5,0-3.2-0.1-5.1-0.3c-1.6-0.1-3.1-0.3-4.7-0.7l3-15.4
			C2305.6,328.1,2307.7,328.5,2309.9,328.5z"/>
	</g>
</g>
</svg>
