<?xml version="1.0" encoding="utf-8"?>
<!-- Generator: Adobe Illustrator 23.0.4, SVG Export Plug-In . SVG Version: 6.00 Build 0)  -->
<svg version="1.1" id="Layer_1" xmlns="http://www.w3.org/2000/svg" xmlns:xlink="http://www.w3.org/1999/xlink" x="0px" y="0px"
	 viewBox="0 0 264 58" style="enable-background:new 0 0 264 58;" xml:space="preserve">
<style type="text/css">
	.st0{fill:#FFFFFF;}
	.st1{fill:#00953B;}
</style>
<title>Asset 1</title>
<g>
	<g id="Layer_3">
		<path class="st0" d="M6,23.2c-1.8-1-3.4-2.5-4.4-4.4c-1.1-2-1.6-4.2-1.6-6.4C0,10.2,0.5,8,1.6,6c1-1.9,2.5-3.4,4.4-4.4
			C7.9,0.5,9.9,0,12.1,0c1.8,0,3.7,0.4,5.3,1.2c1.5,0.8,2.8,1.9,3.8,3.3l-2.5,1.4c-1.5-2.2-4-3.5-6.6-3.5c-1.6,0-3.2,0.4-4.6,1.3
			C6.1,4.6,5,5.8,4.2,7.2C3.4,8.8,3,10.6,3,12.4c0,1.8,0.4,3.5,1.2,5.1C5,19,6.1,20.2,7.5,21c1.4,0.9,3,1.3,4.6,1.3
			c1.3,0,2.6-0.3,3.8-1c1.1-0.6,2.1-1.5,2.8-2.5l2.5,1.4c-2.1,2.9-5.5,4.6-9.1,4.5C9.9,24.8,7.9,24.3,6,23.2z"/>
		<path class="st0" d="M25.5,6.1c0.9-1.8,2.4-3.4,4.1-4.4c1.9-1.1,4-1.7,6.1-1.6c2.1,0,4.3,0.5,6.1,1.6c1.8,1.1,3.2,2.6,4.2,4.4
			c1,2,1.5,4.1,1.5,6.3c0,2.2-0.5,4.4-1.5,6.3c-1,1.8-2.4,3.4-4.2,4.4c-1.8,1.1-4,1.7-6.1,1.6c-2.2,0-4.3-0.5-6.1-1.6
			c-1.8-1.1-3.2-2.6-4.1-4.4c-1-2-1.5-4.1-1.5-6.3C24,10.2,24.5,8,25.5,6.1z M43.4,7.3c-0.7-1.4-1.7-2.7-3-3.5C37.5,2,34,2,31.2,3.7
			c-1.3,0.9-2.4,2.1-3,3.5c-0.7,1.6-1.1,3.4-1.1,5.1c0,1.8,0.3,3.5,1.1,5.1c2,4.2,7.1,6,11.3,4c0.3-0.1,0.6-0.3,0.8-0.5
			c1.3-0.9,2.4-2.1,3-3.6c0.7-1.6,1.1-3.3,1.1-5.1C44.5,10.6,44.1,8.9,43.4,7.3z"/>
		<path class="st0" d="M55.1,5v19.3h-3V0.4h3l13.7,18.9V0.4h2.9v23.9h-2.8L55.1,5z"/>
		<path class="st0" d="M77.6,18.9c0.9,1,2,1.8,3.2,2.4c1.3,0.7,2.8,1,4.2,1c1.5,0.1,3.1-0.4,4.2-1.4c0.9-0.8,1.4-2,1.3-3.2
			c0-0.9-0.3-1.7-0.8-2.4c-0.5-0.6-1.2-1.1-2-1.4c-1.1-0.4-2.1-0.8-3.2-1.1c-1.4-0.3-2.8-0.8-4.2-1.3c-1-0.4-2-1-2.7-1.9
			c-0.8-0.9-1.2-2.1-1.1-3.3c0-1.2,0.4-2.4,1.1-3.3c0.8-1,1.8-1.8,3-2.3C81.9,0.3,83.3,0,84.7,0c3.1-0.2,6.2,1,8.4,3.1l-1.8,2.2
			c-0.8-1-1.9-1.7-3.1-2.2c-1.2-0.5-2.5-0.7-3.8-0.7C83.2,2.4,82,2.8,81,3.5c-0.9,0.7-1.4,1.7-1.4,2.8c0,0.7,0.3,1.4,0.8,1.9
			c0.5,0.5,1.2,0.9,1.9,1.2c0.7,0.3,1.8,0.6,3.1,1c1.5,0.4,2.9,0.8,4.3,1.4c1.1,0.5,2.1,1.2,2.8,2.1c0.8,1.1,1.2,2.4,1.2,3.8
			c0,1.2-0.3,2.4-0.9,3.5c-0.7,1.1-1.7,2-2.9,2.6c-1.6,0.7-3.3,1.1-5,1c-1.8,0-3.6-0.3-5.2-0.9c-1.5-0.6-2.8-1.5-3.9-2.6L77.6,18.9z
			"/>
		<path class="st0" d="M103.7,2.8h-7.5V0.4h18v2.4h-7.5v21.5h-3L103.7,2.8z"/>
		<path class="st0" d="M125.7,14.8H121v9.5h-2.9V0.4h9.5c1.3,0,2.7,0.3,3.8,0.9c1.1,0.6,2,1.4,2.6,2.5c0.6,1.2,1,2.5,0.9,3.8
			c0,1.3-0.3,2.5-0.8,3.6c-0.5,1-1.3,1.8-2.2,2.4c-0.9,0.6-2,0.9-3.1,1l6.4,9.8h-3.5L125.7,14.8z M130.6,4.2
			c-0.9-0.9-2.1-1.4-3.4-1.3H121v9.5h6.2c1.3,0,2.5-0.4,3.4-1.4c0.9-0.9,1.4-2.2,1.4-3.4C132,6.3,131.5,5.1,130.6,4.2z"/>
		<path class="st0" d="M139.6,0.4h2.9v14.7c-0.1,1.9,0.5,3.8,1.7,5.3c2.8,2.6,7.1,2.6,9.9,0c1.2-1.5,1.8-3.4,1.7-5.3V0.4h3V15
			c0.1,2.6-0.7,5.2-2.5,7.2c-1.6,1.7-4,2.6-7.2,2.6s-5.6-0.9-7.2-2.6c-1.7-2-2.6-4.5-2.5-7.1L139.6,0.4z"/>
		<path class="st0" d="M169.5,23.2c-1.8-1-3.3-2.5-4.4-4.4c-1.1-2-1.6-4.2-1.6-6.4c0-2.2,0.5-4.4,1.6-6.4c1-1.8,2.5-3.4,4.4-4.4
			c1.9-1.1,4-1.6,6.1-1.6c1.8,0,3.7,0.4,5.3,1.2c1.5,0.8,2.8,1.9,3.8,3.3l-2.5,1.4c-1.5-2.2-4-3.5-6.6-3.5c-1.6,0-3.2,0.4-4.6,1.3
			c-1.4,0.9-2.5,2.1-3.2,3.5c-0.8,1.6-1.2,3.4-1.2,5.1c0,1.8,0.4,3.5,1.2,5.1c0.7,1.5,1.9,2.7,3.2,3.5c1.4,0.9,3,1.3,4.6,1.3
			c1.3,0,2.6-0.3,3.8-1c1.1-0.6,2.1-1.5,2.8-2.5l2.5,1.4c-2.1,2.9-5.5,4.6-9.1,4.5C173.5,24.8,171.4,24.3,169.5,23.2z"/>
		<path class="st0" d="M194.4,2.8h-7.5V0.4h18v2.4h-7.6v21.5h-3L194.4,2.8z"/>
		<path class="st0" d="M208.7,0.4h3v23.9h-3V0.4z"/>
		<path class="st0" d="M217.7,6.1c0.9-1.8,2.4-3.4,4.1-4.4c1.9-1.1,4-1.7,6.1-1.6c2.1,0,4.3,0.5,6.1,1.6c1.8,1.1,3.2,2.6,4.1,4.4
			c1,2,1.5,4.1,1.5,6.3c0,2.2-0.5,4.4-1.5,6.3c-0.9,1.8-2.4,3.4-4.1,4.4c-1.8,1.1-4,1.7-6.1,1.6c-2.2,0-4.3-0.5-6.1-1.6
			c-1.8-1.1-3.2-2.6-4.1-4.4c-1-2-1.5-4.1-1.5-6.3C216.2,10.2,216.7,8,217.7,6.1z M235.6,7.3c-0.7-1.4-1.7-2.7-3.1-3.5
			c-2.8-1.7-6.3-1.7-9.2,0c-1.3,0.9-2.4,2.1-3,3.5c-0.7,1.6-1.1,3.4-1.1,5.1c0,1.8,0.3,3.5,1.1,5.1c1.3,3,4.3,4.9,7.6,4.9
			c1.6,0,3.2-0.4,4.6-1.3c1.3-0.9,2.4-2.1,3.1-3.6c0.7-1.6,1.1-3.3,1.1-5.1C236.7,10.6,236.4,8.9,235.6,7.3z"/>
		<path class="st0" d="M247.3,5v19.3h-2.9V0.4h3L261,19.3V0.4h3v23.9h-2.8L247.3,5z"/>
		<path class="st1" d="M1,29.3h6.2V58H1V29.3z"/>
		<path class="st1" d="M18.1,38.7V58H12V29.3h6.3l13.3,18.6V29.3h6.1V58h-5.9L18.1,38.7z"/>
		<path class="st1" d="M49.2,34.2h-8.4v-4.9h22.9v4.9h-8.4V58h-6.2V34.2z"/>
		<path class="st1" d="M66.8,29.3h20.3v4.9H72.9v6.6h13.9v4.9H72.9v7.4h14.2V58H66.8V29.3z"/>
		<path class="st1" d="M101.6,47.7h-4.5V58H91V29.3h13.4c1.8,0,3.5,0.4,5.1,1.2c1.4,0.7,2.6,1.9,3.4,3.3c0.8,1.5,1.2,3.1,1.2,4.8
			c0.1,2.1-0.6,4.1-1.8,5.7c-1.1,1.4-2.7,2.4-4.5,2.8l6.5,11h-7L101.6,47.7z M106.6,35.4c-0.8-0.8-1.9-1.2-3.1-1.2h-6.4v8.6h6.4
			c1.1,0,2.3-0.4,3.1-1.2C108.3,39.9,108.3,37.1,106.6,35.4L106.6,35.4z"/>
		<path class="st1" d="M124,38.7V58h-6.1V29.3h6.3l13.3,18.6V29.3h6.1V58h-5.9L124,38.7z"/>
		<path class="st1" d="M163,44.8h-8l-1.1,3.1h-4.2l7-18h4.8l6.9,18h-4.2L163,44.8z M155.9,41.7h6.1l-3-8.3L155.9,41.7z"/>
		<path class="st1" d="M180,35.5l-3.1,12.4h-4.1l-5.2-18h4.3l3.1,13l3.4-13h3l3.4,13l3.1-13h4.3l-5.1,18h-4.1L180,35.5z"/>
		<path class="st1" d="M205,44.8h-8.1l-1.1,3.1h-4.2l7-18h4.8l6.9,18h-4.2L205,44.8z M197.9,41.7h6.1l-3-8.3L197.9,41.7z"/>
		<path class="st1" d="M219.1,41.4h-2.8v6.5h-3.8v-18h8.4c1.1,0,2.2,0.2,3.2,0.7c0.9,0.5,1.6,1.2,2.1,2.1c0.5,0.9,0.7,2,0.7,3
			c0.1,1.3-0.4,2.6-1.1,3.6c-0.7,0.9-1.7,1.5-2.8,1.7l4.1,6.9h-4.4L219.1,41.4z M222.3,33.7c-0.5-0.5-1.2-0.8-1.9-0.8h-4v5.4h4
			c1.4,0.1,2.6-1,2.7-2.5c0-0.1,0-0.1,0-0.2C223.1,34.9,222.8,34.2,222.3,33.7z"/>
		<path class="st1" d="M230.4,29.9h7.1c1.7,0,3.4,0.3,5,1.1c1.4,0.7,2.6,1.8,3.4,3.2c1.6,2.9,1.6,6.5,0,9.4c-0.8,1.4-2,2.4-3.4,3.2
			c-1.6,0.8-3.3,1.2-5,1.1h-7.1V29.9z M237.5,44.8c1.1,0,2.1-0.3,3-0.8c0.9-0.5,1.5-1.3,2-2.1c0.5-0.9,0.7-2,0.7-3
			c0.1-1.6-0.5-3.1-1.5-4.3c-1.1-1.1-2.6-1.8-4.2-1.7h-3.3v11.9L237.5,44.8z"/>
		<path class="st1" d="M251.2,42.7c0.7,0.7,1.6,1.3,2.5,1.8c1,0.5,2.1,0.7,3.2,0.7c0.8,0.1,1.7-0.2,2.3-0.7c0.5-0.4,0.8-1.1,0.8-1.7
			c0-0.7-0.3-1.3-0.9-1.7c-0.9-0.5-1.8-0.9-2.8-1.1c-1.2-0.3-2.3-0.6-3.4-0.9c-0.9-0.3-1.7-0.8-2.3-1.5c-0.7-0.8-1-1.8-1-2.8
			c0-0.9,0.3-1.9,0.8-2.6c0.6-0.8,1.4-1.5,2.4-1.9c1.1-0.5,2.4-0.7,3.6-0.7c2.5-0.1,5,0.7,7,2.3l-2.1,2.7c-0.7-0.6-1.5-1.1-2.4-1.5
			c-0.9-0.3-1.8-0.5-2.7-0.5c-0.7-0.1-1.4,0.1-2,0.5c-0.4,0.3-0.7,0.9-0.7,1.4c0,0.6,0.3,1.1,0.8,1.3c0.9,0.4,1.8,0.7,2.8,0.9
			c1.2,0.3,2.3,0.6,3.4,1c0.9,0.3,1.8,0.9,2.4,1.6c0.7,0.8,1.1,1.9,1,3c0.1,1.6-0.6,3.2-1.9,4.2c-1.5,1.2-3.4,1.7-5.4,1.6
			c-1.5,0-3-0.2-4.4-0.7c-1.2-0.4-2.3-1.1-3.2-1.9L251.2,42.7z"/>
		<path class="st0" d="M149.8,51h3.2c0.4,0,0.9,0.1,1.2,0.3c0.3,0.2,0.6,0.5,0.8,0.8c0.2,0.3,0.3,0.7,0.3,1.1c0,0.4-0.1,0.7-0.3,1.1
			c-0.2,0.3-0.5,0.6-0.8,0.8c-0.4,0.2-0.8,0.3-1.2,0.3h-1.7v2.4h-1.4L149.8,51z M153.5,52.4c-0.2-0.2-0.4-0.3-0.7-0.3h-1.5v2h1.5
			c0.3,0,0.5-0.1,0.7-0.3C153.9,53.5,153.9,52.8,153.5,52.4L153.5,52.4z"/>
		<path class="st0" d="M159.3,55.4h-1.1v2.4h-1.4V51h3.2c0.4,0,0.8,0.1,1.2,0.3c0.3,0.2,0.6,0.4,0.8,0.8c0.2,0.3,0.3,0.7,0.3,1.1
			c0,0.5-0.1,1-0.4,1.3c-0.3,0.3-0.6,0.6-1.1,0.7l1.5,2.6h-1.6L159.3,55.4z M160.4,52.5c-0.2-0.2-0.5-0.3-0.7-0.3h-1.5v2h1.5
			c0.6,0,1-0.4,1.1-0.9C160.8,53,160.7,52.7,160.4,52.5L160.4,52.5z"/>
		<path class="st0" d="M163.9,51h4.8v1.2h-3.4v1.5h3.3v1.2h-3.3v1.7h3.4v1.2h-4.8V51z"/>
		<path class="st0" d="M170.8,55.9c0.3,0.3,0.6,0.5,0.9,0.7c0.4,0.2,0.8,0.3,1.2,0.2c0.3,0,0.6-0.1,0.9-0.3c0.2-0.2,0.3-0.4,0.3-0.7
			c0-0.3-0.1-0.5-0.3-0.6c-0.3-0.2-0.6-0.3-1-0.4c-0.4-0.1-0.9-0.2-1.3-0.3c-0.3-0.1-0.6-0.3-0.9-0.6c-0.3-0.3-0.4-0.7-0.4-1
			c0-0.4,0.1-0.7,0.3-1c0.2-0.3,0.5-0.6,0.9-0.7c0.4-0.2,0.9-0.3,1.4-0.3c1,0,1.9,0.3,2.6,0.9l-0.8,1c-0.3-0.2-0.6-0.4-0.9-0.5
			c-0.3-0.1-0.7-0.2-1-0.2c-0.3,0-0.5,0.1-0.7,0.2c-0.2,0.1-0.3,0.3-0.3,0.5c0,0.2,0.1,0.4,0.3,0.5c0.3,0.1,0.7,0.3,1,0.3
			c0.4,0.1,0.9,0.2,1.3,0.4c0.3,0.1,0.6,0.3,0.9,0.6c0.3,0.3,0.4,0.7,0.4,1.1c0,0.6-0.2,1.2-0.7,1.6c-0.6,0.4-1.3,0.6-2,0.6
			c-0.6,0-1.1-0.1-1.6-0.3c-0.4-0.1-0.9-0.3-1.2-0.6L170.8,55.9z"/>
		<path class="st0" d="M177.1,51h4.8v1.2h-3.4v1.5h3.3v1.2h-3.3v1.7h3.4v1.2h-4.8V51z"/>
		<path class="st0" d="M185.1,53.3v4.5h-1.4V51h1.5l3.1,4.4V51h1.4v6.8h-1.4L185.1,53.3z"/>
		<path class="st0" d="M193.2,52.2h-2V51h5.4v1.2h-2v5.6h-1.4V52.2z"/>
		<path class="st0" d="M198.1,51h4.8v1.2h-3.3v1.5h3.3v1.2h-3.3v1.7h3.3v1.2h-4.8L198.1,51z"/>
		<path class="st0" d="M204.7,51h2.7c0.6,0,1.3,0.1,1.9,0.4c0.5,0.3,1,0.7,1.3,1.2c0.6,1.1,0.6,2.4,0,3.5c-0.3,0.5-0.7,0.9-1.3,1.2
			c-0.6,0.3-1.2,0.4-1.9,0.4h-2.7V51z M207.3,56.6c0.4,0,0.8-0.1,1.1-0.3c0.3-0.2,0.6-0.5,0.7-0.8c0.2-0.3,0.3-0.7,0.2-1.1
			c0-0.6-0.2-1.2-0.6-1.6c-0.4-0.4-1-0.7-1.6-0.6h-1.2v4.5L207.3,56.6z"/>
		<path class="st0" d="M217.6,51h3.6c0.4,0,0.7,0.1,1.1,0.2c0.3,0.1,0.5,0.4,0.7,0.6c0.2,0.3,0.2,0.6,0.2,0.8c0,0.4-0.1,0.7-0.3,1
			c-0.2,0.3-0.5,0.5-0.8,0.5c0.4,0.1,0.7,0.3,0.9,0.6c0.3,0.3,0.4,0.7,0.4,1.1c0,0.5-0.2,1-0.5,1.3c-0.4,0.4-0.9,0.5-1.4,0.5h-3.7
			V51z M220.8,53.7c0.2,0,0.4-0.1,0.6-0.2c0.1-0.1,0.2-0.4,0.2-0.6c0-0.2-0.1-0.4-0.2-0.6c-0.2-0.2-0.4-0.2-0.6-0.2H219v1.6
			L220.8,53.7z M220.9,56.6c0.4,0,0.8-0.3,0.9-0.7c0,0,0-0.1,0-0.1c0-0.2-0.1-0.4-0.2-0.6c-0.2-0.2-0.4-0.3-0.6-0.2H219v1.7H220.9z"
			/>
		<path class="st0" d="M226.5,55l-2.6-4h1.6l1.7,2.7l1.7-2.7h1.6l-2.5,4v2.8h-1.4L226.5,55z"/>
		<path class="st0" d="M240.8,54.9h-3.2v3h-1.4V51h1.4v2.7h3.2V51h1.4v6.8h-1.4V54.9z"/>
		<path class="st0" d="M245.6,57.5c-0.5-0.3-1-0.7-1.3-1.2c-0.3-0.6-0.5-1.2-0.5-1.8c0-0.6,0.1-1.3,0.5-1.8c0.3-0.5,0.7-1,1.3-1.2
			c0.5-0.3,1.2-0.5,1.8-0.5c0.6,0,1.2,0.1,1.8,0.4c0.5,0.3,0.8,0.7,1.1,1.1l-1.2,0.6c-0.2-0.3-0.4-0.5-0.7-0.7
			c-0.3-0.2-0.6-0.3-1-0.3c-0.4,0-0.7,0.1-1.1,0.3c-0.3,0.2-0.6,0.5-0.7,0.8c-0.2,0.4-0.3,0.8-0.3,1.2c0,0.4,0.1,0.8,0.3,1.2
			c0.3,0.7,1,1.1,1.8,1.1c0.4,0,0.7-0.1,1-0.3c0.3-0.2,0.5-0.4,0.7-0.7l1.2,0.6c-0.6,1-1.7,1.6-2.9,1.5
			C246.8,57.9,246.2,57.8,245.6,57.5z"/>
		<path class="st0" d="M252.1,55.9c0.3,0.3,0.6,0.5,0.9,0.7c0.4,0.2,0.8,0.3,1.2,0.2c0.3,0,0.6-0.1,0.9-0.3c0.2-0.2,0.3-0.4,0.3-0.7
			c0-0.3-0.1-0.5-0.3-0.6c-0.3-0.2-0.6-0.3-1-0.4c-0.4-0.1-0.9-0.2-1.3-0.3c-0.3-0.1-0.6-0.3-0.9-0.6c-0.3-0.3-0.4-0.7-0.4-1
			c0-0.4,0.1-0.7,0.3-1c0.2-0.3,0.5-0.6,0.9-0.7c0.4-0.2,0.9-0.3,1.4-0.3c1,0,1.9,0.3,2.6,0.9l-0.8,1c-0.3-0.2-0.6-0.4-0.9-0.5
			c-0.3-0.1-0.7-0.2-1-0.2c-0.3,0-0.5,0.1-0.7,0.2c-0.2,0.1-0.3,0.3-0.3,0.5c0,0.2,0.1,0.4,0.3,0.5c0.3,0.1,0.7,0.3,1,0.3
			c0.4,0.1,0.9,0.2,1.3,0.4c0.3,0.1,0.6,0.3,0.9,0.6c0.3,0.3,0.4,0.7,0.4,1.1c0,0.6-0.2,1.2-0.7,1.6c-0.6,0.4-1.3,0.6-2,0.6
			c-0.6,0-1.1-0.1-1.6-0.3c-0.4-0.2-0.9-0.4-1.2-0.7L252.1,55.9z"/>
		<path class="st0" d="M258.8,55.9c0.3,0.3,0.6,0.5,0.9,0.7c0.4,0.2,0.8,0.3,1.2,0.2c0.3,0,0.6-0.1,0.9-0.3c0.2-0.2,0.3-0.4,0.3-0.7
			c0-0.3-0.1-0.5-0.3-0.6c-0.3-0.2-0.6-0.3-1-0.4c-0.4-0.1-0.9-0.2-1.3-0.3c-0.3-0.1-0.6-0.3-0.9-0.6c-0.3-0.3-0.4-0.7-0.4-1
			c0-0.4,0.1-0.7,0.3-1c0.2-0.3,0.5-0.6,0.9-0.7c0.4-0.2,0.9-0.3,1.4-0.3c1,0,1.9,0.3,2.6,0.9l-0.8,1c-0.3-0.2-0.6-0.4-0.9-0.5
			c-0.3-0.1-0.7-0.2-1-0.2c-0.3,0-0.5,0.1-0.7,0.2c-0.2,0.1-0.3,0.3-0.2,0.5c0,0.2,0.1,0.4,0.3,0.5c0.3,0.1,0.7,0.3,1,0.3
			c0.4,0.1,0.9,0.2,1.3,0.4c0.3,0.1,0.6,0.3,0.9,0.6c0.3,0.3,0.4,0.7,0.4,1.1c0,0.6-0.2,1.2-0.7,1.6c-0.6,0.4-1.3,0.6-2,0.6
			c-0.6,0-1.1-0.1-1.6-0.3c-0.5-0.1-0.9-0.3-1.3-0.6L258.8,55.9z"/>
	</g>
</g>
</svg>
