<?xml version="1.0" encoding="UTF-8"?>
<svg id="Layer_1" data-name="Layer 1" xmlns="http://www.w3.org/2000/svg" viewBox="0 0 1159.147 1124.633">
  <defs>
    <style>
      .cls-1 {
        fill: #1e364f;
        stroke: #1e364f;
        stroke-width: 7px;
      }

      .cls-1, .cls-2 {
        stroke-linecap: round;
        stroke-linejoin: round;
      }

      .cls-2 {
        stroke: #f3662b;
        stroke-width: 3px;
      }

      .cls-2, .cls-3 {
        fill: #f3662b;
      }

      .cls-4 {
        fill: #153851;
      }

      .cls-4, .cls-3 {
        stroke-width: 0px;
      }
    </style>
  </defs>
  <g>
    <path class="cls-1" d="m170.445,431.757l-4.569-2.482c-6.397-3.474-11.75-6.872-16.06-10.199-2.722-2.07-4.817-4.021-6.288-5.855-1.469-1.833-2.403-3.745-2.802-5.737-.591-1.996-.329-4.024.788-6.081.992-1.828,2.264-3.306,3.814-4.438,1.552-1.129,3.165-1.88,4.846-2.25,1.522-.258,3.345-.255,5.468.011,2.126.266,4.088.643,5.896,1.13l5.865,2.001c14.017,5.244,26.052,10.596,36.105,16.055l.343.187c3.809,2.068,7.27,4.047,10.387,5.936,3.726,2.223,7.497,4.811,11.313,7.771,1.89,1.422,3.443,2.831,4.655,4.229,1.215,1.398,2.334,2.968,3.36,4.709,1.873,3.088,2.024,6.08.453,8.974-5.749,10.587-26.939,5.934-63.575-13.958Zm60.186,7.532c-.871-1.754-2.419-3.581-4.643-5.479-4.669-4.112-9.474-7.708-14.411-10.784-4.03-2.385-7.987-4.633-11.872-6.742l-.456-.248-11.487-6.089c-4.196-2.08-9.773-4.518-16.738-7.314-4.977-1.911-10.42-3.239-16.328-3.984-2.316-.271-4.35-.068-6.099.608-1.748.678-3.017,1.741-3.803,3.188-.703,1.296-.713,2.77-.032,4.42.681,1.652,1.96,3.383,3.838,5.19,4.358,4.143,8.666,7.468,12.926,9.978,3.608,2.255,7.394,4.458,11.353,6.607l5.598,3.04c5.104,2.771,11.847,5.793,20.229,9.062,5.282,2.079,9.998,3.653,14.149,4.725,4.153,1.071,7.898,1.528,11.24,1.369,3.493-.075,5.776-1.103,6.852-3.085.661-1.217.558-2.704-.314-4.46Z"/>
    <path class="cls-1" d="m275.993,380.969c-1.776.777-3.557,1.155-5.343,1.13-1.721.034-3.59-.227-5.609-.782-2.02-.555-3.928-1.244-5.726-2.066-2.817-1.22-6.063-3.08-9.735-5.578l-3.262-2.381c-.665-.555-1.113-.898-1.34-1.032-.229-.132-.374-.228-.441-.283-3.539-2.385-11.073-7.964-22.607-16.734-11.532-8.768-20.395-15.733-26.585-20.896l-.699-.582-.799-.666c-1.73-1.443-2.18-2.664-1.348-3.663,1.166-1.397,2.547-1.431,4.145-.099l.699.583.716.766c7.723,6.438,17.053,13.824,27.991,22.153,10.938,8.332,18.934,14.206,23.98,17.624,3.207,2.11,6.675,4.042,10.402,5.795,2.507,1.189,4.723,2.05,6.648,2.582,1.925.533,3.771.689,5.534.468,2.064-.311,3.567-1.03,4.512-2.164.942-1.13,1.524-2.367,1.74-3.711.217-1.342.087-2.606-.391-3.795-.344-1.075-.973-2.25-1.889-3.521-.913-1.27-1.877-2.383-2.887-3.338-.609-.62-1.68-1.57-3.212-2.848l-11.382-9.49c-5.059-4.217-11.396-9.272-19.005-15.168l-13.114-10.257-8.653-6.876c-3.894-2.908-6.806-5.166-8.737-6.777-.731-.609-1.132-1.281-1.197-2.014-.066-.732.121-1.364.566-1.897.443-.532,1.018-.815,1.723-.849.704-.031,1.424.256,2.155.866l7.589,6.327c3.329,2.775,6.352,5.24,9.069,7.393l8.986,7.492c6.458,5.384,12.171,10.036,17.141,13.952,4.982,4.043,10.534,8.614,16.658,13.72,1.665,1.388,3.074,2.677,4.227,3.862,1.154,1.189,2.263,2.564,3.328,4.13,1.265,1.731,2.155,3.404,2.671,5.019s.666,3.293.456,5.035c-.323,1.876-1.122,3.579-2.398,5.109-1.277,1.532-2.804,2.685-4.578,3.461Z"/>
    <path class="cls-1" d="m332.302,322.733c-.748-.228-1.421-.711-2.025-1.45l-7.322-8.958-7.323-8.958-13.366-15.939c-6.069-7.015-10.558-12.3-13.466-15.857l-2.285-3.001-5.349-6.542c-5.924-7.247-8.953-10.814-9.087-10.706l-11.374,9.298c-.538.439-1.133.703-1.788.79-.656.091-1.175-.102-1.56-.572-.438-.536-.64-.988-.603-1.354.036-.365.437-.971,1.198-1.819.774-.968,2.034-2.166,3.779-3.593l10.065-8.228,10.989-9.151c.805-.658,1.469-.976,1.989-.955.522.022,1.029.334,1.522.938.823,1.006.597,2.031-.677,3.073l-4.53,3.702-4.429,3.62-.823.841,4.873,5.756,6.417,7.851,33.405,40.864,6.829,8.354,6.189,7.366.164.201c.439.538.775,1.019,1.01,1.441.234.425.334.818.297,1.185.073.5-.126.943-.595,1.326-.672.549-1.381.708-2.127.479Z"/>
    <path class="cls-1" d="m392.329,280.27l-.721-1.384c-.084-.345-.245-.751-.485-1.213l-.301-.576-9.343-12.869c-2.06-2.64-3.506-4.573-4.341-5.801-3.494-5.019-7.349-10.634-11.561-16.845-3.339-4.905-8.898-12.954-16.682-24.145l-1.728-2.471c-5.678-8.085-9.007-12.409-9.984-12.976.03-.504.196-1.03.497-1.578.302-.547.683-.941,1.144-1.182,1.153-.601,2.04-.818,2.664-.655.622.166,1.195.747,1.715,1.745l.541,1.037.601,1.153.66,1.268c15.476,23.895,30.227,46.112,44.252,66.656l.23-.12c-.93-2.349-3.652-8.699-8.166-19.052l-1.511-3.464c-4.549-10.04-6.924-15.352-7.126-15.931-.972-2.425-2.271-6.047-3.902-10.866l-3.481-10.06-2.417-5.483c-.405-.962-.757-1.779-1.059-2.454-.302-.671-.494-1.183-.578-1.53l-.665-1.56c-.039-.075-.042-.221-.007-.436.035-.214.129-.457.277-.732,1.076-.56,1.908-.649,2.496-.273.352.11.635.281.852.509.217.231.427.536.627.92l.771.918c2.891,3.675,10.069,13.42,21.535,29.238,11.466,15.819,18.889,26.318,22.27,31.494l.466.05-20.06-48.916c-1.367-2.999-3.271-7.872-5.708-14.615-2.556-6.78-4.873-12.168-6.955-16.166l-.717-1.093-.54-1.038c-.521-.998-.66-1.829-.42-2.492.242-.662.899-1.274,1.977-1.836.461-.24,1.04-.297,1.74-.175.7.126,1.171.417,1.411.879.4.769.357,1.719-.127,2.851.116.038.275.248.476.632.24.461.433.973.577,1.531.146.562.238.975.282,1.245,2.758,7.359,7.026,18.085,12.804,32.175l10.127,25.067,3.823,9.589,4.683,12.365,2.486,6.18c.48.923.706,1.686.678,2.286-.03.602-.467,1.122-1.312,1.562-1.23.641-2.2.56-2.911-.242-.396-.381-1.108-1.376-2.143-2.988l-1.017-1.669c-8.01-10.875-21.749-30.494-41.215-58.857l-.467-.05-.055.175.06.116,27.029,65.953,1.081,2.075c1.562,2.998,1.688,4.837.383,5.518-1.461.761-2.632.295-3.512-1.396Z"/>
    <path class="cls-1" d="m473.547,247.109c-.901-.142-1.507-.753-1.824-1.836l-.694-2.37c-.278-.641-.538-1.377-.782-2.209l-.073-.25-5.209-18.252-15.213-51.489c-1.559-5.322-2.994-9.914-4.305-13.775-.292-.999-.328-1.89-.106-2.679.221-.786.663-1.277,1.33-1.473l7.734-2.265c1.164-.342,2.062-.514,2.693-.518.903.006,1.528.591,1.869,1.755.195.667.104,1.279-.274,1.842-.377.562-.846.971-1.402,1.224l-2.121.62-2.032.46-2.033.46c-.583.17-.947.392-1.094.659-.147.27-.135.695.035,1.276,1.146,3.91,2.221,7.433,3.229,10.567l3.106,10.605,4.565,15.596c.05.167.155.226.322.176l.126-.036.124-.037c2.03-.773,4.251-1.516,6.664-2.222,1.33-.39,2.168-.002,2.508,1.161.244.833.262,1.438.057,1.812-.207.378-.642.662-1.307.857l-7.112,2.082c-.332.098-.438.354-.315.771l5.656,18.392c1.846,5.69,3.866,12.278,6.059,19.764l1.351,4.616,5.365-1.571,5.24-1.534,1.122-.328c1.498-.438,2.405-.116,2.722.964.39,1.332.247,2.23-.429,2.699-.901.624-2.892,1.389-5.968,2.289l-5.239,1.535c-1.996.584-3.445.805-4.345.661Z"/>
    <path class="cls-1" d="m541.032,232.167c-.452-.468-.727-1.088-.824-1.861l-.261-2.063-.392-3.096c-.683-5.417-1.67-11.494-2.957-18.233-1.256-7.18-2.198-13.262-2.828-18.25-.585-4.644-1.936-13.6-4.047-26.875-2.036-11.972-3.429-20.925-4.178-26.858-.054-.429.095-.818.442-1.169.349-.35.781-.558,1.297-.622,1.548-.196,2.402.351,2.566,1.641,2.008,15.909,3.641,27.801,4.896,35.678l3.561,23.006c.455,3.611,1.457,9.47,3.004,17.572l2.794,15.896c.032.258.177.37.435.338.096.076.661.047,1.693-.083l7.996-1.009c1.116-.142,1.774.562,1.97,2.109.087.689.031,1.286-.166,1.79-.199.504-.556.791-1.071.856l-.887.243-1.031.129c-1.795.313-5.272.798-10.432,1.448-.603.076-1.129-.119-1.581-.586Z"/>
    <path class="cls-1" d="m608.332,228.587c-.371-.535-.542-1.191-.512-1.972l.077-2.078.115-3.117c.203-5.457.215-11.613.037-18.472-.074-7.288-.019-13.443.169-18.467.174-4.677.294-13.734.362-27.176-.068-12.144.01-21.204.231-27.18.017-.433.226-.793.626-1.083.401-.288.861-.424,1.381-.404,1.56.059,2.313.737,2.267,2.036-.598,16.023-.915,28.022-.952,36l-.216,23.277c-.137,3.638-.098,9.581.116,17.827l.179,16.138c-.011.261.116.395.375.405.082.09.645.153,1.685.192l8.054.3c1.124.042,1.661.843,1.602,2.401-.025.694-.177,1.274-.454,1.739-.278.466-.677.69-1.195.671l-.916.096-1.038-.038c-1.822.018-5.331-.068-10.528-.263-.606-.021-1.094-.301-1.464-.834Z"/>
    <path class="cls-1" d="m691.861,152.2l-10.275,45.925-3.804,18.198-3.685,17.624c-.061.29-.216.551-.441.744l-.133.113c-.32.273-.75.38-1.161.288l-.658-.159c-.778-.188-1.426-.721-1.761-1.447h0c.786-2.442.821-2.48,1.39-5.018l4.812-22.104,4.686-22.131,3.718-16.619,2.697-12.052c.709-3.571,1.556-7.556,2.541-11.953.113-.508.173-.982.186-1.424l.282-1.27c.228-1.015.657-1.651,1.294-1.908.634-.258,1.544-.255,2.729.011.507.113,1.021.495,1.541,1.144.521.65.799,1.291.836,1.92l-.116,13.028c-.143,6.187-.13,10.896.035,14.129.205,7.419.677,19.601,1.413,36.551.074,7.772.295,14.299.663,19.581.107,1.539,2.298,1.71,2.637.205l.028-.125c1.834-8.203,3.564-15.542,5.191-22.018l5.193-22.018c.814-3.635,1.594-6.925,2.341-9.867l2.187-9.769,3.875-17.916c.687-1.089,1.708-1.482,3.062-1.18.676.151.74,1.454.192,3.906-.247,1.1-.49,1.978-.725,2.636-.15.678-.28,1.158-.389,1.444-.11.288-.173.474-.191.557l-1.815,8.119c-2.519,11.249-4.805,21.262-6.856,30.039-2.07,8.861-4.346,18.832-6.825,29.911-.474,2.114-1.347,5.427-2.623,9.937l-2.496,9.966c-.548,2.452-1.923,3.433-4.122,2.94-.591-.132-1.075-.552-1.45-1.257-.375-.704-.562-1.458-.56-2.257l.154-2.441c.002-.036.003-.076.002-.113-.02-.882-.013-1.479.025-1.791.011-.095.02-.189.015-.284-1.88-35.943-2.545-75.584-2.545-75.584"/>
    <path class="cls-1" d="m753.855,259.543c-.607-.683-.687-1.54-.244-2.577l.97-2.272c.191-.671.457-1.405.798-2.203l.101-.238,7.567-17.408,20.942-49.438c2.174-5.102,3.981-9.56,5.422-13.376.407-.957.944-1.668,1.616-2.137.67-.467,1.324-.566,1.963-.293l7.414,3.162c1.116.476,1.918.912,2.41,1.31.693.578.805,1.427.328,2.542-.273.64-.732,1.056-1.381,1.25-.648.195-1.27.213-1.86.054l-2.032-.867-1.863-.936-1.862-.935c-.559-.239-.98-.3-1.263-.186-.285.114-.546.451-.783,1.008-1.599,3.748-3.004,7.152-4.217,10.216l-4.333,10.164-6.375,14.947c-.068.16-.023.272.137.342l.119.051.12.051c2.059.69,4.246,1.528,6.56,2.515,1.274.543,1.675,1.374,1.198,2.49-.34.798-.709,1.275-1.106,1.436-.399.161-.916.104-1.554-.168l-6.816-2.907c-.319-.136-.563-.004-.732.395l-7.309,17.8c-2.188,5.568-4.81,11.94-7.87,19.115l-1.887,4.424,5.142,2.193,5.023,2.142,1.076.459c1.435.612,1.93,1.438,1.488,2.473-.543,1.276-1.225,1.88-2.045,1.813-1.091-.091-3.114-.764-6.062-2.021l-5.023-2.143c-1.913-.815-3.172-1.564-3.775-2.246Z"/>
    <path class="cls-1" d="m813.385,292.609c-.622-.557-1.215-1.275-1.78-2.156-.591-1.001-.846-2.043-.767-3.126.563-.873,1.246-1.052,2.048-.534.801.517,1.653,1.431,2.564,2.739.786,1.335,1.582,2.261,2.384,2.778,1.601,1.034,3.498,1.331,5.692.891,2.193-.44,4.334-1.48,6.428-3.122,4.135-3.209,7.237-6.414,9.308-9.618,2.303-3.566,4.121-7.499,5.454-11.799,1.33-4.298,2.194-8.589,2.59-12.874.151-1.037.31-2.637.472-4.803.529-4.815.98-8.55,1.352-11.198.369-2.649.989-5.448,1.861-8.393,1.096-3.936,2.867-7.794,5.313-11.58,1.552-2.403,3.426-4.467,5.626-6.194,2.197-1.726,4.65-2.85,7.36-3.37,2.9-.499,5.48-.02,7.739,1.438.873.564,1.703,1.592,2.496,3.083.789,1.491.974,2.564.551,3.22-.377.583-.782.732-1.22.45-.437-.282-.902-.84-1.395-1.675-.42-.787-.921-1.369-1.504-1.745-1.675-1.082-3.55-1.415-5.621-1-2.074.415-3.99,1.345-5.746,2.788-1.498,1.198-2.835,2.71-4.01,4.528-1.834,2.84-3.364,6.007-4.587,9.497-1.225,3.491-2.063,6.946-2.518,10.367l-1.326,10.44-.391,2.999c-.492,4.118-.98,7.467-1.458,10.045-.481,2.579-1.252,5.331-2.314,8.256-1.411,3.939-3.126,7.475-5.147,10.604-2.727,4.223-6.593,7.812-11.599,10.77-2.457,1.407-5.019,2.176-7.684,2.312-2.667.134-5.092-.504-7.275-1.914-1.31-.847-2.276-1.548-2.897-2.104Z"/>
    <path class="cls-1" d="m868.882,333.633c-.522-.651-.988-1.458-1.4-2.42-.418-1.086-.497-2.156-.238-3.21.7-.769,1.402-.832,2.107-.188.704.643,1.395,1.685,2.074,3.126.557,1.446,1.188,2.49,1.894,3.134,1.407,1.284,3.229,1.891,5.467,1.82,2.234-.072,4.519-.743,6.854-2.017,4.609-2.481,8.199-5.129,10.771-7.946,2.861-3.136,5.304-6.714,7.33-10.733,2.023-4.02,3.585-8.108,4.685-12.27.32-.996.742-2.549,1.258-4.658,1.32-4.662,2.382-8.269,3.186-10.82.803-2.552,1.878-5.209,3.226-7.97,1.731-3.699,4.116-7.213,7.154-10.542,1.928-2.112,4.117-3.838,6.573-5.178,2.453-1.339,5.059-2.042,7.816-2.106,2.943-.012,5.408.888,7.394,2.699.769.7,1.417,1.852,1.952,3.453.532,1.602.537,2.69.012,3.266-.469.514-.893.593-1.277.243-.384-.351-.752-.979-1.098-1.883-.285-.845-.684-1.502-1.195-1.969-1.473-1.346-3.267-1.983-5.378-1.917-2.115.066-4.158.666-6.13,1.799-1.676.936-3.244,2.204-4.703,3.805-2.277,2.496-4.311,5.366-6.094,8.606-1.785,3.24-3.185,6.509-4.197,9.809l-3.036,10.076-.879,2.894c-1.169,3.979-2.203,7.202-3.101,9.666-.901,2.464-2.117,5.05-3.648,7.759-2.043,3.652-4.319,6.854-6.83,9.606-3.388,3.713-7.795,6.614-13.221,8.703-2.654.981-5.308,1.315-7.959,1.008-2.653-.309-4.938-1.338-6.859-3.09-1.152-1.052-1.989-1.903-2.508-2.555Z"/>
  </g>
  <g>
    <path class="cls-2" d="m389.01,932.746c.347-2.664.617-5.026.812-7.085.283-2.856.425-4.284.708-7.141.337-2.588.505-3.882.842-6.471.173-1.9.416-4.049.729-6.447.929-7.137,1.598-13.7,2.008-19.686.104-1.141.156-1.711.261-2.852.18-3.09.399-5.621.656-7.593.153-.159.231-.238.384-.396.088-.123.26-.292.509-.502.096-.177.328-.316.613-.449.153-.071.428-.174.81-.26,2.666-.6,5.03-.718,7.09-.356,2.06.363,3.679,1.136,4.856,2.319,2.284,2.329,3.184,5.358,2.699,9.086-.312,2.397-1.184,4.973-2.614,7.725-1.431,2.753-3.419,5.39-5.855,7.911-2.571,2.661-5.29,4.554-8.156,5.56-.37,3.527-.556,5.291-.926,8.817-.133,1.706-.2,2.558-.333,4.263-.362,5.046-.778,9.379-1.25,13.001-.111.853-.364,1.517-.758,1.994-.395.477-1.089.827-2.078,1.05-.914.206-1.25-.623-1.007-2.487Zm8.877-30.696c.158-.086.453-.36.883-.82.349-.296.523-.444.873-.74,5.402-4.577,8.444-9.476,9.124-14.697.388-2.982-.09-5.563-1.432-7.744-.741-1.125-1.939-1.877-3.588-2.255-1.652-.378-3.66-.3-6.021.232-.396,3.036-.759,7.539-1.093,13.508-.334,5.97-.698,10.473-1.094,13.509.083.043.125.065.208.108.692-.207,1.406-.575,2.14-1.102Z"/>
    <path class="cls-2" d="m439.955,923.984c-.201-.162-.273-.455-.218-.882.05-.384.075-.575.125-.958.103-.229.18-.532.229-.904.953-7.294,1.771-16.454,2.467-27.469-.32.072-.479.108-.8.18-.869.196-1.303.293-2.171.489s-1.303.293-2.171.489c-4.267.961-7.696,1.624-8.03,2.042-1.18,1.478-.827,8.646-.969,14.256-.163,6.393-.453,11.142-.855,14.231-.104.799-.575,1.292-1.413,1.481-1.143.258-1.654.005-1.569-.732.295-2.552.563-6.164.896-10.71.333-4.546.635-8.433.781-11.539.562-11.949,1.142-24.033,2.572-35.946.063-.527.599-.91,1.589-1.133.458-.103.808-.092,1.049.035.241.126.304.358.187.695-.308,2.365-.461,3.547-.77,5.912-.187,1.438-.351,4.112-.49,8.021-.05,1.066-.075,1.599-.125,2.666-.237,2.949-.392,4.716-.468,5.301-.204,1.566-.306,2.349-.51,3.916-.18,1.386-.081,2.035.301,1.948,1.745-.455,2.618-.683,4.363-1.137.922-.27,1.384-.405,2.306-.675,3.836-1.07,6.022-1.667,6.556-1.787.054-.074.081-.112.135-.186.305-2.343.698-6.803,1.187-13.374.497-6.675.899-11.164,1.197-13.454.083-.64.657-1.079,1.725-1.32.532-.12.979-.13,1.335-.029.354.1.514.312.472.631-1.483,11.328-2.625,22.743-3.663,34.097-1.129,12.36-1.829,20.008-2.196,22.831-.058.447-.087.671-.146,1.119-.056.427-.238.829-.545,1.208-.31.38-.692.622-1.148.724-.611.138-1.015.124-1.215-.036Z"/>
    <path class="cls-2" d="m467.053,917.763c-.251-.331-.348-.736-.285-1.216.222-1.704.669-4.286,1.342-7.748.495-3.121.742-4.681,1.237-7.802.097-.745.179-1.873.083-3.199-.084-1.163-.152-2.24-.041-3.092.118-.906.035-2.118-.197-3.601-.249-1.583-.304-2.775-.207-3.522.083-.639-.102-2.07-.55-4.296-.166-.428-.268-.78-.306-1.055-.038-.274-.09-.458-.15-.548-.111-1.422-.434-3.194-.768-5.179-.76-4.511-1.377-8.337-2.242-10.896-.771-2.279-1.156-3.9-1.038-4.807.048-.372.317-.73.806-1.073.488-.343,1.036-.582,1.646-.72.515.132.773.198,1.288.33-.084,2.346.388,6.388,1.415,12.129,1.028,5.74,1.94,8.96,2.736,9.66.187-.3.875-2.708,2.048-7.209,1.042-4.001,2.302-8.045,3.794-12.101,1.369-3.72,2.705-5.728,4-6.02.38-.086.684-.141.909-.167.225-.024.407,0,.545.071s.188.269.146.588c-.062.48-.289,1.074-.676,1.781-.267.68-.399,1.021-.665,1.701-1.809,5.03-2.713,7.545-4.521,12.574-.584,1.632-1.174,3.615-1.772,5.945-.6,2.333-1.011,4.352-1.232,6.056-.062.48-.075.902-.052,1.253.026.403,0,.853-.062,1.332-.336.542-.505.812-.842,1.354-.033.255-.05.383-.083.639-.071,1.226-.106,1.839-.177,3.065.004.65.006.976.01,1.626-.049,2.08-.142,3.651-.281,4.716-1.096,8.417-1.874,13.814-2.33,16.191.125.065.188.098.312.163-.014.107.013.179.083.214l-.042.32c-.083.639-.366,1.234-.842,1.779-.479.546-1.137.916-1.974,1.104-.457.103-.813-.012-1.065-.342Z"/>
    <path class="cls-2" d="m494.369,912.85c-.714.083-1.487.098-2.275.008-.859-.098-1.499-.413-1.88-.895.083-.639.542-1.053,1.382-1.242.837-.188,1.924-.279,3.126-.162,1.128.11,2.163.133,3.002-.056,1.675-.377,3.28-1.204,4.815-2.48,1.534-1.277,2.782-2.772,3.746-4.489,1.919-3.379,3.031-6.241,3.336-8.584.34-2.61.15-5.126-.57-7.55-.72-2.422-1.804-4.609-3.25-6.559-.306-.5-.838-1.233-1.6-2.199-1.558-2.234-2.735-3.987-3.531-5.254-.795-1.267-1.443-2.751-1.983-4.362-.716-2.136-.952-4.62-.591-7.39.229-1.758.849-3.538,1.86-5.344,1.011-1.805,2.47-3.511,4.374-5.057,2.041-1.657,4.277-2.748,6.639-3.28.914-.206,1.985-.201,3.215.013,1.229.215,1.813.561,1.75,1.04-.056.427-.312.69-.769.793-.457.103-1.066.12-1.776.013-.641-.097-1.282-.099-1.891.039-1.754.395-3.355,1.195-4.805,2.4-1.452,1.207-2.564,2.56-3.351,4.013-.668,1.235-1.106,2.525-1.279,3.855-.271,2.078-.168,4.138.305,6.175.474,2.039,1.233,3.871,2.279,5.497,1.296,1.973,1.944,2.959,3.24,4.933.369.568.555.852.924,1.42,1.301,1.93,2.294,3.543,2.975,4.835.682,1.294,1.2,2.814,1.573,4.532.501,2.309.619,4.618.321,6.908-.402,3.09-1.955,6.49-4.655,10.2-1.344,1.803-3.033,3.398-5.061,4.786-2.03,1.388-4.187,2.339-6.472,2.854-1.372.309-2.415.505-3.127.588Z"/>
    <path class="cls-2" d="m530.917,902.64c-.534.12-.994.094-1.376-.078-.384-.172-.556-.418-.515-.737.09-.691.782-1.185,2.078-1.477,1.783-.401,2.674-.602,4.457-1.004.797-6.125,1.468-13.867,2.217-22.991.602-7.334,1.123-13.178,1.375-17.372.258-1.641.387-2.461.645-4.101.274-2.109.412-3.164.687-5.273.347-2.662.492-4.349.438-5.062-1.6.361-2.4.541-4,.901-.763.172-1.095-.115-.998-.861.062-.479.427-.967,1.06-1.324.514-.291,1.974-.678,4.26-1.192,1.28-.289,1.92-.433,3.2-.721,1.136-.203,2.579-.503,4.332-.898.609-.137,1.093-.156,1.45-.055.354.1.511.338.462.71-.042.319-.194.638-.457.956-.263.318-.624.528-1.081.63-.534.121-.988.198-1.361.229-.548.124-.823.186-1.371.309-.457.103-.686.154-1.143.257-.762.172-1.227.329-1.392.469-.108.148-.162.222-.27.371-.541,4.155-1.139,12.433-1.792,24.834-.604,11.459-1.24,19.746-1.905,24.86-.117.895-.175,1.342-.292,2.237-.167.71-.298,1.437-.395,2.183,1.646-.371,2.468-.556,4.114-.927,1.751-.395,2.58-.219,2.482.526-.042.319-.254.665-.634,1.034s-.762.599-1.143.685c-2.469.556-3.702.834-6.171,1.39-1.821.359-4.143.856-6.96,1.491Z"/>
    <path class="cls-2" d="m571.037,893.523c-2.21-.639-3.715-1.594-4.508-2.862-.735-1.176-1.096-5.363-1.084-12.553.011-7.189.254-12.595.726-16.218.22-1.694.331-2.541.551-4.234.083-1.208.222-2.558.417-4.049.361-2.77.899-5.654,1.757-8.384.432-1.377,1.026-2.635,1.647-3.707.619-1.07,1.446-2.16,2.478-3.272,1.911-2.188,4.595-3.947,8.011-5.295,1.79-.707,3.756-1.312,5.89-1.792,1.446-.326,2.877-.364,4.285-.113,1.408.251,2.062.777,1.958,1.576-.077.586-.726,1.016-1.943,1.291-.458.103-1.335.137-2.556.033-1.075-.091-2.099-.07-3.012.136-2.134.481-4.097,1.221-5.891,2.219-1.794,1-3.253,2.119-4.374,3.351-.948,1.042-1.826,2.377-2.629,4.005-.805,1.629-1.345,3.263-1.725,4.731-.35,1.353-.725,3.007-.967,4.872-.188,1.779-.281,2.669-.469,4.449-.091,1.262-.232,2.638-.426,4.129-.479,3.676-.649,8.964-.512,15.86.137,6.897.627,10.805,1.473,11.689.771.807,2.034,1.274,3.755,1.403,1.718.129,3.57-.029,5.552-.475,3.504-.789,6.271-2.161,8.301-4.119.769-.794,1.534-1.277,2.296-1.448.686-.155.98.142.883.887-.125.959-.654,1.894-1.585,2.801-.932.908-2.147,1.712-3.641,2.41-2.536,1.294-5.251,2.269-8.145,2.92-2.134.48-4.306.4-6.514-.239Z"/>
    <path class="cls-2" d="m623.192,881.852c-.384-.172-.553-.444-.504-.818.545-4.187.818-6.28,1.363-10.467.083-.64-1.785-.788-5.599-.445-3.815.343-6.981.797-9.495,1.363-.154.035-.452.49-.899,1.366-.447.876-.772,1.519-.972,1.925-1.352,2.994-2.728,6.173-4.126,9.539-.32.754-.48,1.132-.8,1.886-.209.461-.617.759-1.226.896-.611.138-1.146.128-1.604-.026-.461-.155-.667-.418-.618-.792.054-.074.081-.111.135-.185.004-.032.006-.048.01-.08.711-1.711,1.066-2.567,1.778-4.279,1.24-2.709,2.367-5.343,3.356-7.892,1.118-2.879,1.915-4.774,2.401-5.659.838-1.896,2.629-6.565,5.374-14.007.411-1.117.617-1.675,1.029-2.792,3.048-8.648,5.162-14.153,6.132-16.427.564-1.323,1.479-3.409,2.796-6.137.519-1.15,1.182-2.392,2.016-3.557.753-1.051,1.434-1.641,1.891-1.744,1.218-.274,2.132-.205,2.524.207.32.335.566,2.897.741,7.512.176,4.613.248,9.303.221,14.065-.097,5.171-.145,7.758-.242,12.929-.298,2.291-.518,5.705-.667,10.232-.15,4.583-.379,8.024-.678,10.313-.017.128-.025.191-.042.319-.076.586-.247,1.197-.55,1.675-.308.485-1.112.871-2.255,1.128-.61.137-1.108.12-1.49-.052Zm1.317-15.653c.43-3.302.751-7.758.963-13.364.212-5.604.176-10.648.257-14.754.035-1.778.053-3.812-.113-5.946-.021-1.205-.03-1.809-.051-3.014-.007.054-.045-.223-.114-.827-.042-.363-.062-.544-.104-.908-.764,1.31-1.565,3.067-2.406,5.273-.842,2.207-1.752,4.791-2.729,7.75-2.862,8.35-5.201,14.667-7.016,18.953-.553,1.18-.83,1.769-1.383,2.949-1.489,2.921-2.324,5.074-2.504,6.459-.025.191-.037.287-.062.479,3.253-.009,7.053-.503,11.396-1.482.274-.062.412-.092.686-.154.221.003.484-.031.789-.1,1.523-.343,2.321-.781,2.39-1.314Z"/>
    <path class="cls-2" d="m647.822,876.691c-.302-.242-.421-.604-.358-1.082.066-.512.1-.768.167-1.279.1-.767.149-1.151.25-1.917.437-3.356.695-7.143.906-11.217.226-4.36.618-8.153,1.021-11.244.375-2.876.975-8.455,1.603-16.571.564-7.295,1.01-12.869,1.489-16.545.035-.266.236-.53.603-.794.367-.264.779-.447,1.236-.55,1.371-.309,2.005-.064,1.901.735-1.283,9.855-2.129,17.207-2.539,22.055-.516,5.669-.774,8.504-1.291,14.173-.292,2.237-.538,5.835-.74,10.792-.242,3.901-.363,5.852-.604,9.753-.021.16.083.214.311.163.068.037.561-.049,1.476-.255,2.834-.639,4.25-.958,7.085-1.596.989-.223,1.423.145,1.298,1.104-.056.426-.217.812-.483,1.156-.267.343-.629.568-1.085.671-.324.104-.486.156-.811.26-.366.083-.548.124-.914.206-1.607.413-4.696,1.136-9.267,2.166-.534.12-.951.059-1.252-.184Z"/>
    <path class="cls-2" d="m706.746,863.301c-.33-.314-.456-.763-.379-1.35.37-2.845.556-4.267.926-7.111.371-2.844.556-4.267.926-7.111.574-5.093.861-7.639,1.436-12.732.514-5.648.955-9.883,1.322-12.707.166-.938.25-1.406.416-2.343.271-2.077.406-3.116.676-5.194.749-5.752,1.047-8.611.895-8.577-5.166,1.164-7.748,1.746-12.913,2.909-.611.137-1.149.155-1.615.054-.468-.102-.677-.339-.628-.711.055-.426.208-.745.458-.957.249-.21.898-.469,1.88-.811,1.075-.375,2.621-.823,4.602-1.27,4.572-1.03,6.856-1.544,11.428-2.574,5.032-1.165,7.548-1.747,12.581-2.912.914-.206,1.529-.241,1.844-.105.314.136.441.443.378.923-.104.799-.881,1.362-2.327,1.688-2.057.463-3.085.695-5.142,1.158-2.011.453-3.018.68-5.028,1.133-.416.125-.624.187-1.039.312-.196,1.843-.293,2.765-.489,4.608-.325,2.493-.487,3.74-.812,6.232-1.408,10.813-2.816,21.626-4.224,32.439-.345,2.653-.518,3.979-.863,6.633-.262,2.354-.394,3.531-.655,5.886-.008.064-.013.096-.021.16-.056.427-.142.795-.255,1.104-.115.311-.336.57-.545.782-.265.268-.663.538-1.195.657-.762.172-1.308.101-1.636-.213Z"/>
    <path class="cls-2" d="m754.433,853.14c-.202-.162-.274-.455-.218-.882.05-.384.075-.575.125-.958.103-.229.18-.532.229-.904.948-7.296,1.772-16.454,2.468-27.469-.32.072-.48.108-.8.18-.869.196-1.303.293-2.172.489-.868.196-1.303.293-2.171.489-4.267.961-7.696,1.624-8.03,2.042-1.18,1.477-.827,8.645-.969,14.257-.162,6.392-.453,11.142-.854,14.23-.104.799-.576,1.292-1.413,1.481-1.143.258-1.653.005-1.568-.732.295-2.552.562-6.164.896-10.71.333-4.546.635-8.432.781-11.539.562-11.951,1.151-24.022,2.573-35.946.063-.527.598-.91,1.589-1.133.458-.103.808-.092,1.05.035.241.126.303.358.187.695-.308,2.365-.462,3.547-.77,5.912-.187,1.438-.351,4.112-.49,8.021-.05,1.066-.075,1.599-.125,2.666-.236,2.949-.392,4.716-.468,5.301-.204,1.566-.306,2.349-.51,3.916-.181,1.386-.082,2.035.301,1.948,1.745-.455,2.618-.683,4.363-1.137.922-.27,1.384-.405,2.306-.675,3.836-1.07,6.022-1.667,6.556-1.787.054-.074.081-.112.135-.186.305-2.343.698-6.802,1.187-13.374.497-6.676.898-11.164,1.197-13.454.083-.64.657-1.079,1.726-1.32.532-.12.979-.13,1.334-.029.354.1.514.312.472.631-1.483,11.328-2.625,22.743-3.663,34.097-1.13,12.36-1.829,20.008-2.196,22.831-.059.447-.087.671-.146,1.119-.056.427-.238.829-.545,1.208-.31.38-.691.622-1.148.724-.611.138-1.014.124-1.215-.036Z"/>
    <path class="cls-2" d="m777.163,847.67c-.693-.077-.994-.46-.904-1.153.079-.607.119-.911.198-1.518-.021-.409.004-.879.073-1.413.008-.064.013-.096.021-.16.653-4.677.98-7.015,1.633-11.691,1.394-10.991,2.788-21.982,4.183-32.973.443-3.408.686-6.426.926-8.818.062-.623.341-1.213.779-1.726.436-.512.958-.837,1.568-.975,2.834-.638,4.251-.958,7.085-1.596,1.066-.24,1.863-.37,2.379-.381.735-.016,1.062.355.965,1.101-.055.427-.329.824-.82,1.193-.492.37-1.009.642-1.548.813-.777.175-1.166.263-1.943.438-.727.133-1.09.199-1.817.333-.728.133-1.091.199-1.818.332-.534.12-.905.269-1.112.444-.208.176-.335.451-.384.823-.326,2.505-.583,4.76-.771,6.766-.354,2.717-.531,4.075-.884,6.792-.52,3.995-.78,5.992-1.3,9.987-.014.107.054.143.208.108.045-.01.069-.016.114-.026.046-.01.068-.015.114-.025,1.917-.535,3.981-1.052,6.191-1.55,1.218-.274,1.78-.039,1.683.707-.069.534-.25.923-.541,1.169-.292.248-.741.438-1.35.576-2.605.587-3.908.88-6.513,1.467-.306.069-.475.237-.51.503-.524,4.709-.787,7.064-1.311,11.773-.327,3.641-.801,7.859-1.425,12.652-.154,1.183-.231,1.774-.385,2.957,1.966-.443,2.948-.664,4.914-1.107,1.92-.432,2.88-.648,4.799-1.081.412-.093.617-.139,1.028-.231,1.372-.309,2.012-.116,1.922.575-.111.853-.52,1.436-1.226,1.75-.941.418-2.824.946-5.642,1.581-1.919.433-2.879.649-4.799,1.081-1.829.412-3.091.579-3.781.502Z"/>
    <path class="cls-2" d="m823.849,836.261c-.365-1.283-.548-1.924-.914-3.207-1.489-4.473-2.455-8.378-3.052-11.489-.326-1.698-.79-4.141-1.277-7.235-.565-3.592-1.151-6.488-1.754-8.679-.482.295-.723.442-1.205.737-.619.326-.929.488-1.548.814-1.259,10.237-2.518,20.474-3.777,30.71-.062.479-.093.719-.156,1.198-.139,1.065-.894,1.753-2.266,2.062-.61.137-1.088.115-1.433-.065-.348-.18-.495-.457-.446-.83.062-.479.093-.719.156-1.198.932-6.477,1.398-9.715,2.33-16.192.495-3.121.742-4.681,1.237-7.802,1.517-9.389,2.704-17.361,3.557-23.913.537-4.123.805-6.185,1.342-10.308.062-.479.78-.874,2.151-1.183,1.98-.446,3.78-.489,5.396-.13s2.837,1.067,3.662,2.122c1.717,2.147,2.375,4.766,1.973,7.855-.319,2.451-1.429,5.285-3.326,8.505-.561.902-1.252,1.949-2.073,3.143s-1.523,2.038-2.104,2.529c1.065,3.742,2.567,9.531,4.505,17.366,1.399,5.269,2.099,7.903,3.498,13.172.054.143.056.427,0,.853-.062.479-.25.923-.562,1.329-.312.406-.735.67-1.268.79-1.524.343-2.407.025-2.648-.955Zm-6.237-33.884c1.578-1.337,2.772-2.427,3.418-3.252.636-.812,1.233-2.087,1.808-3.665.574-1.574.938-2.951,1.091-4.124.285-2.184.042-4.301-.726-6.351-.361-1.211-1.021-2.111-1.979-2.695-.959-.585-2.087-.732-3.381-.441-.091.021-.137.031-.229.051-.084.072-.202.124-.353.158-1.174,9.013-1.76,13.519-2.934,22.532.609-.137,1.703-.875,3.283-2.213Z"/>
    <path class="cls-2" d="m861.906,828.076c-.384-.172-.553-.444-.504-.817.545-4.187.818-6.28,1.363-10.467.083-.64-1.785-.788-5.599-.445-3.815.343-6.981.797-9.495,1.363-.154.035-.452.49-.899,1.367-.447.876-.772,1.519-.972,1.925-1.352,2.994-2.728,6.173-4.126,9.539-.32.754-.48,1.132-.8,1.886-.209.461-.617.759-1.226.896-.611.138-1.146.129-1.605-.026-.461-.155-.667-.418-.618-.792.054-.074.081-.111.134-.185.004-.032.006-.048.011-.08.711-1.711,1.066-2.567,1.777-4.279,1.24-2.709,2.368-5.343,3.357-7.891,1.118-2.879,1.915-4.774,2.401-5.66.838-1.896,2.629-6.565,5.374-14.007.411-1.117.617-1.675,1.029-2.792,3.048-8.648,5.162-14.153,6.132-16.427.564-1.323,1.479-3.409,2.796-6.136.519-1.151,1.181-2.392,2.016-3.557.753-1.051,1.434-1.641,1.891-1.744,1.218-.274,2.132-.205,2.525.207.32.335.565,2.897.741,7.511.176,4.613.248,9.303.221,14.065-.097,5.172-.145,7.758-.242,12.93-.298,2.291-.518,5.704-.666,10.231-.15,4.583-.379,8.024-.678,10.313-.017.128-.025.191-.042.319-.077.586-.247,1.197-.551,1.675-.308.485-1.112.871-2.255,1.128-.61.137-1.108.12-1.49-.052Zm1.317-15.653c.43-3.302.751-7.758.964-13.363.213-5.604.176-10.648.257-14.755.035-1.778.053-3.812-.113-5.946-.021-1.205-.03-1.808-.051-3.014-.007.054-.046-.222-.114-.827-.042-.363-.062-.544-.104-.908-.763,1.311-1.564,3.067-2.406,5.273-.842,2.207-1.752,4.791-2.728,7.75-2.862,8.35-5.201,14.667-7.016,18.953-.553,1.18-.83,1.769-1.383,2.949-1.489,2.921-2.324,5.074-2.504,6.459-.025.191-.037.287-.062.479,3.254-.008,7.054-.503,11.396-1.482.274-.062.412-.092.686-.154.221.003.484-.031.789-.1,1.523-.343,2.32-.781,2.39-1.314Z"/>
    <path class="cls-2" d="m884.953,821.023c.347-2.664.617-5.026.812-7.086.283-2.856.425-4.284.708-7.14.337-2.589.506-3.883.843-6.471.173-1.9.416-4.049.728-6.447.929-7.137,1.599-13.7,2.008-19.687.104-1.14.156-1.71.261-2.851.18-3.09.399-5.621.656-7.593.154-.159.231-.238.385-.396.088-.123.259-.292.509-.502.096-.177.327-.316.613-.449.153-.071.428-.174.811-.26,2.665-.6,5.03-.719,7.09-.356,2.06.363,3.679,1.136,4.856,2.318,2.284,2.329,3.185,5.359,2.699,9.086-.312,2.397-1.185,4.973-2.614,7.724-1.431,2.753-3.419,5.39-5.855,7.912-2.571,2.662-5.29,4.554-8.156,5.56-.371,3.527-.556,5.291-.926,8.817-.133,1.706-.2,2.558-.333,4.263-.362,5.046-.778,9.379-1.249,13.001-.111.853-.364,1.517-.758,1.994-.395.477-1.089.827-2.079,1.05-.914.206-1.25-.623-1.007-2.487Zm8.878-30.696c.158-.087.453-.36.883-.82.349-.296.524-.444.873-.74,5.402-4.577,8.444-9.476,9.124-14.697.388-2.983-.09-5.563-1.432-7.744-.741-1.125-1.939-1.877-3.589-2.255-1.652-.378-3.659-.3-6.021.232-.395,3.036-.759,7.539-1.093,13.508-.333,5.97-.698,10.473-1.093,13.509.083.043.125.065.208.108.692-.207,1.406-.575,2.14-1.102Z"/>
    <path class="cls-2" d="m923.343,814.972c-.251-.331-.348-.736-.285-1.216.222-1.704.669-4.286,1.342-7.748.495-3.121.742-4.681,1.237-7.802.097-.745.179-1.873.083-3.199-.084-1.163-.152-2.24-.041-3.092.118-.906.035-2.118-.197-3.601-.249-1.583-.304-2.775-.207-3.521.083-.639-.102-2.071-.55-4.296-.166-.428-.268-.781-.306-1.056-.038-.274-.09-.458-.15-.548-.111-1.422-.434-3.195-.768-5.178-.76-4.511-1.377-8.337-2.242-10.896-.771-2.28-1.156-3.901-1.038-4.808.048-.372.316-.73.805-1.073.488-.342,1.036-.582,1.646-.719.515.132.773.198,1.288.33-.083,2.346.389,6.389,1.416,12.129,1.028,5.74,1.94,8.96,2.736,9.661.187-.301.875-2.708,2.048-7.209,1.042-4.001,2.302-8.045,3.794-12.101,1.369-3.72,2.705-5.728,4-6.02.38-.085.684-.141.909-.166.225-.024.407-.001.545.07.138.072.188.269.146.588-.062.479-.289,1.073-.676,1.781-.266.681-.398,1.021-.665,1.701-1.809,5.029-2.713,7.544-4.521,12.574-.584,1.632-1.174,3.615-1.772,5.945-.599,2.333-1.011,4.352-1.232,6.056-.062.479-.074.903-.052,1.253.026.402,0,.853-.063,1.332-.336.542-.505.812-.841,1.354-.034.255-.05.383-.083.639-.071,1.226-.106,1.839-.177,3.065.004.65.006.976.01,1.626-.049,2.08-.143,3.651-.281,4.716-1.096,8.417-1.874,13.814-2.33,16.191.125.065.187.098.312.163-.014.108.013.179.083.214-.017.128-.025.191-.042.319-.083.639-.366,1.234-.842,1.779-.479.546-1.137.916-1.974,1.104-.457.103-.813-.012-1.065-.342Z"/>
  </g>
  <g>
    <path class="cls-2" d="m560.778,986.764c-.598-.144-.886-.366-.862-.672l.221-2.838c.066-.854.169-1.656.31-2.406l.31-2.405c.047-.61.062-1.078.048-1.406-.017-.325-.134-.615-.359-.868-.223-.253-.582-.357-1.072-.313-.492.045-1.358.196-2.598.459l-2.742.76c-1.254.447-2.174.731-2.751.854-2.398.508-3.546.119-3.446-1.162.038-.487.145-.84.326-1.058.18-.219.559-.39,1.139-.513l3.217-.59,3.333-.525c3.389-.718,5.104-1.32,5.142-1.809.081-1.037.075-2.536-.015-4.499l.109-4.523c.057-.731.261-1.284.616-1.66.354-.375,1.029-.668,2.02-.878,1.489-.315,2.193.047,2.112,1.084l-.568,1.02-.03,3.518-.037,3.608c-.066.855.155,1.378.669,1.568.513.192,1.391.156,2.631-.106l3.734-.971,3.728-.88c2.562-.542,3.802-.264,3.716.834-.076.978-.817,1.614-2.222,1.912-1.406.298-2.642.5-3.707.603-1.07.169-2.348.408-3.836.723l-.621.132c-1.901.403-3.134.83-3.698,1.278-.564.45-.896,1.346-1.001,2.688-.1,1.281-.036,2.527.196,3.738.28,1.623.396,2.738.349,3.349-.033.427-.309.83-.826,1.209-.517.38-1.147.648-1.892.806-.495.105-1.043.086-1.642-.058Z"/>
    <path class="cls-2" d="m599.009,994.651c1.258-5.727,2.251-13.229,2.974-22.505.318-4.087,1.046-10.304,2.185-18.646,1.173-7.749,1.94-13.943,2.302-18.582.043-.549.427-1.049,1.155-1.505.726-.453,1.542-.776,2.454-.969,2.893-.612,6.058-1.042,9.491-1.29,3.435-.244,5.121.028,5.059.82-.081,1.038-1.568,1.863-4.462,2.476-1.771-.225-4.063-.041-6.873.554l-1.495.407c-.253.114-.446.245-.58.393-.134.149-.252.354-.353.615-.205.523-.396.894-.573,1.11-.214,2.746-.635,6.018-1.254,9.808-.695,3.689-1.15,6.937-1.369,9.743l-.249,3.204c-.02.244.635.195,1.963-.146,4.216-.893,6.286-.852,6.21.125-.038.488-.38.966-1.026,1.432-.646.467-1.341.779-2.085.938-.496.104-1.193.162-2.087.172-.812-.009-1.51.049-2.086.172-1.489.314-2.351,1.969-2.583,4.957l-.807,10.344c-.114,1.463-.159,3.604-.133,6.419.019,2.876-.029,5.048-.143,6.512-.19,2.439-1.277,3.871-3.262,4.291l-2.373-.848Zm37.021-8.647c-.415.088-.748.189-1.001.303l-.991.209c-1.819.386-2.952.326-3.401-.18.034-.427.392-.862,1.078-1.309l.656-.588,3.596-.762.524-.471.312-.877.209-1.125c.29-3.722.426-7.021.406-9.897l.017-3.335.271-6.629c.186-2.381.588-5.976,1.208-10.789l1.074-10.669c.361-4.636.431-8.132.208-10.486-.729-.024-1.963.146-3.698.514l-1.371.38c-.501.167-1.043.311-1.62.433-1.571.332-2.315-.02-2.234-1.059.02-.242.409-.564,1.173-.968.763-.4,1.393-.654,1.889-.76,3.142-.665,6.272-1.206,9.396-1.629,1.896-.341,3.775-.468,5.641-.384,1.459.052,2.162.413,2.11,1.084-.01.123-.152.393-.429.812l-2.867.786c-.551-.243-1.734-.173-3.553.212l-.642.406c.205.496.204,2.087-.005,4.771-.314,4.028-.642,7.668-.975,10.919l-1.097,10.945c-.214,2.745-.309,6.037-.281,9.871-.1,4.403-.237,7.733-.413,9.99l-.093,1.19c-.116.444-.2,1.002-.253,1.674-.109,1.404-.052,2.232.173,2.483l-.139.209c-.048.611.838.724,2.657.339.744-.158,1.367-.319,1.866-.485l1.86-.394c2.397-.508,3.563-.335,3.497.52-.043.549-.325,1.044-.848,1.484-.521.44-1.197.749-2.023.924-.744.157-1.402.237-1.97.236-.658.081-1.357.198-2.102.355-.495.105-1.252.415-2.268.93-1.021.576-1.778.917-2.273,1.021-1.903.403-2.996.335-3.277-.207Z"/>
    <path class="cls-2" d="m674.003,977.606l.14-3.361c-.007-.957.038-2.047.133-3.269.048-.609.129-1.137.245-1.582l.253-1.674c.048-.609-.062-1.307-.324-2.092.319-4.087.496-11.598.536-22.529.011-10.563.123-17.759.341-21.586-5.128,1.086-8.55,1.72-10.272,1.903-1.63.046-2.417-.267-2.365-.939.465-.759,1.276-1.261,2.435-1.506,2.48-.524,6.067-1.162,10.76-1.917,4.275-.604,7.859-1.214,10.755-1.826l2.604-.552,2.611-.643c1.488-.315,2.201-.074,2.14.718-.028.366-.32.713-.874,1.04-.555.329-1.203.569-1.947.728-1.655.35-3.386.658-5.193.919l-5.319.946c-.332.07-.503.196-.518.38-.097.2-.183.789-.259,1.765-.462,5.92-.665,14.784-.609,26.595-.062,12.256-.303,21.101-.727,26.53-.033.428-.416.898-1.147,1.413s-1.428.842-2.088.981l-1.308-.442Z"/>
    <path class="cls-2" d="m736.483,965.46c-.262-.305-.487-.797-.678-1.477-.045-.471-.177-.863-.396-1.177l.146-.301c-.438-2.728-1.57-5.938-3.396-9.634l-1.86-4.286c-.157-.087-.821-1.477-1.992-4.171l-.821-1.985c-6.118-15.39-10.074-23.583-11.865-24.586-.792,1.788-1.288,3.995-1.492,6.617-.11,1.405-.164,2.616-.162,3.636l-.153,3.543-.296,2.223c-.136.69-.233,1.432-.295,2.224-.104,1.343-.114,2.486-.022,3.426l.019,2.876-.372.078c-.794,10.192-.942,15.745-.443,16.658l-.642,8.239c.29.419.407,1.024.346,1.817-.038.488-.301.963-.782,1.426-.484.462-1.057.763-1.718.902-1.736.368-2.475-1.096-2.218-4.392l.475-2.981c.237-.95.399-1.975.484-3.072.229-2.93.447-7.296.654-13.102.21-5.806.429-10.173.656-13.102.139-1.77.474-4.512,1.007-8.226.529-3.652.862-6.363,1.001-8.134l.092-1.189c.233-2.989,1.13-5.101,2.688-6.33l.352.195,1.255-.446c.324-.007.682.098,1.072.313.311.176.455.415.432.72l.205.496c-.01.123.019.267.09.432.983,4.054,3.485,9.494,7.508,16.325,4.07,7.239,6.579,12.08,7.527,14.52.659,1.962,1.175,3.713,1.542,5.255,1.166,4.855,2.714,8.458,4.646,10.809l.27-.327c2.957-13.948,5.204-30.777,6.74-50.488l-.038-1.071c-.06-.287-.069-.675-.031-1.163.101-1.282.728-2.045,1.886-2.29.744-.158,1.362-.019,1.858.416.494.437.715.989.663,1.66l-.478,6.133-.677.864c-.452,5.798-1.649,15.414-3.591,28.845-1.942,13.436-3.372,20.82-4.287,22.153l-2.139.812-.007.092-.116-.065-1.262.536c-.663.141-1.123.059-1.383-.246Z"/>
    <path class="cls-2" d="m766.969,958.467l.093-1.189c.104-.323.177-.697.21-1.125l-.468-.262c.76-1.422,1.189-2.741,1.284-3.963.109-1.403.143-3.391.1-5.963l.223-5.987c.237-3.051.719-7.653,1.441-13.809.753-5.5,1.279-10.143,1.574-13.926l.18-5.44c-.037-1.612.022-3.426.18-5.438.071-.915.412-1.631,1.022-2.152.607-.518,1.534-.91,2.774-1.172.825-.175,1.473-.133,1.941.128.159.028,1.35-.105,3.567-.395,2.051-.255,3.809-.356,5.268-.305,1.542.034,2.294.325,2.251.874-.048.61-.883,1.388-2.5,2.329-4.622-.161-7.926-.032-9.91.388l-.662.681c.038.531-.021,1.835-.184,3.909-.204,2.625-.471,4.991-.797,7.101-.25,2.154-.476,4.542-.68,7.165-.133,1.709.377,2.44,1.535,2.195l1.992-.512c.665-.199,1.371-.381,2.115-.538,3.224-.683,4.794-.474,4.709.625-.053.672-.304,1.28-.753,1.824-.45.546-1.088.905-1.913,1.08-1.24.263-2.173.221-2.796-.128l-3.932.383-.62.131-.657.589-.021.274c.084,1.003-.021,3.396-.315,7.179-.186,2.38-.397,4.556-.631,6.525l-.63,6.524c-.186,2.38-.252,4.795-.198,7.243-.028,1.388.313,2.229,1.021,2.529.71.301,2.057.24,4.04-.18l2.239-.564c.749-.217,1.576-.423,2.487-.615,2.396-.508,3.564-.365,3.503.428-.086,1.099-1.947,2.032-5.584,2.803l-10.169,2.152c-1.489.315-2.267-.15-2.331-1.396Z"/>
    <path class="cls-2" d="m801.237,952.248c-.796-.222-1.214-.599-1.254-1.13l.678-.864c.33-.069,1.066-.136,2.211-.198.89.053,1.624.017,2.204-.106,1.817-.384,3.471-1.259,4.96-2.625,1.489-1.364,2.673-2.981,3.55-4.848,1.404-3.417,2.217-6.53,2.436-9.337.328-4.211-1.057-8.358-4.152-12.444-1.933-2.351-3.412-4.229-4.441-5.632-1.028-1.402-1.914-3.074-2.657-5.019-.88-2.273-1.229-4.569-1.049-6.89.172-2.197,1.118-4.947,2.839-8.252.854-1.561,1.998-2.928,3.43-4.103,1.434-1.172,2.936-1.927,4.506-2.259,1.074-.228,2.106-.176,3.099.154.99.33,1.462.803,1.415,1.41-.038.49-.597.847-1.67,1.074-.331.07-.735.066-1.219-.012-.481-.078-.93-.073-1.342.014-1.24.263-2.386.865-3.434,1.808-1.051.941-1.867,2.046-2.455,3.31-1.167,2.468-1.825,4.649-1.973,6.54-.09,1.159.023,2.305.342,3.438.053.349.112.638.177.863.063.228.091.401.081.522l.602,1.673.492,1.517.862,1.438c.216.375.454.701.718.974.262.275.507.538.731.79l1.339,1.608c.3.296.936,1.017,1.904,2.162.967,1.145,1.845,2.386,2.637,3.717.726,1.107,1.252,2.181,1.579,3.222.325,1.042.591,2.32.799,3.836.128,1.475.122,3.126-.021,4.957-.229,2.929-.981,5.789-2.254,8.578-1.727,3.368-4.043,5.958-6.949,7.772-1.628,1.065-3.476,1.816-5.541,2.254l-.635.313c-.901.071-1.749-.005-2.544-.226Zm17.116-61.552c.005-.061-.035-.082-.116-.064l-.008.091.124-.026Z"/>
    <path class="cls-2" d="m832.985,945.528c-.796-.221-1.215-.599-1.254-1.13l.678-.863c.329-.07,1.066-.136,2.21-.198.891.053,1.625.017,2.205-.106,1.816-.385,3.471-1.259,4.96-2.625,1.489-1.364,2.672-2.981,3.55-4.848,1.403-3.417,2.216-6.531,2.435-9.338.328-4.211-1.056-8.357-4.152-12.444-1.933-2.35-3.411-4.228-4.44-5.631-1.029-1.402-1.914-3.074-2.658-5.019-.879-2.273-1.229-4.57-1.048-6.89.172-2.197,1.118-4.947,2.838-8.253.854-1.561,1.998-2.928,3.431-4.102,1.434-1.173,2.935-1.927,4.506-2.259,1.073-.228,2.105-.177,3.099.153.989.33,1.462.803,1.415,1.411-.038.489-.597.847-1.671,1.074-.33.069-.735.066-1.219-.013-.48-.077-.929-.072-1.342.015-1.239.263-2.385.865-3.434,1.808-1.05.941-1.867,2.046-2.454,3.31-1.167,2.468-1.825,4.648-1.973,6.539-.09,1.159.022,2.306.342,3.438.053.348.112.637.176.862.063.228.091.401.081.522l.602,1.674.492,1.516.863,1.438c.215.375.453.701.718.974.262.274.507.538.73.79l1.339,1.607c.301.296.937,1.017,1.905,2.163.966,1.145,1.845,2.386,2.637,3.717.725,1.107,1.251,2.181,1.579,3.222.324,1.042.591,2.32.799,3.836.128,1.474.121,3.126-.021,4.957-.229,2.929-.981,5.788-2.253,8.578-1.728,3.368-4.044,5.958-6.949,7.772-1.628,1.064-3.476,1.816-5.541,2.254l-.635.313c-.901.071-1.75-.005-2.544-.227Zm17.116-61.552c.005-.061-.035-.081-.116-.064l-.008.091.124-.026Z"/>
  </g>
  <g>
    <path class="cls-4" d="m885.266,628.116c.005-.487.244-1.139.362-1.604,1.088-2.811,3.962-3.601,6.441-4.907,5.968-3.014,9.379.281,11.585,5.492,3.169,7.584,4.692,14.814,7.198,22.392,2.116,7.161,6.679,14.192,14.616,15.337,1.887.035,3.982.07,5.857-.091,13.476-.995,25.976-7.26,36.916-15.025,2.234-1.601,4.421-3.279,6.55-5.028,2.372-1.778,4.036-4.283,7.276-4.698,1.764-.327,3.394,1.305,3.078,3.066-.575,3.448-3.156,5.042-5.313,7.303-2.144,2.041-4.374,3.99-6.698,5.832-11.779,9.353-25.828,16.33-40.977,17.933-2.223.259-4.729.297-6.981.31-12.652.322-24.252-7.485-27.258-20.03-.651-2.506-1.27-5.261-1.67-7.8-.991-5.543-1.067-11.432-1.465-16.943-.046-.597-.111-1.149-.168-1.575-.031-.418-.163-.683.208-.491.118.095,1.125.355,1.379.221-1.774.08-3.756.911-5.549,1.532-1.216.496-2.805.406-4.09-.085-.546-.163-1.397-.423-1.298-1.142h0Z"/>
    <path class="cls-4" d="m869.019,608.977c.011-.054.021-.109.034-.163-5.014-1.382-10.029-2.765-15.043-4.147-2.635,18.668-6.712,37.066-8.708,55.853-.759,7.141-3.269,19.399,2.575,25.145,10.005,9.839,20.311-9.335,24.498-15.87,4.375-6.827,8.643-13.729,13.297-20.373,2.142-3.058,4.35-6.059,6.819-8.864,2.011-2.285,4.498-4.713,6.089-5.746,8.391-5.446.581-18.958-7.874-13.47-10.568,6.86-17.729,18.718-24.444,29.066-3.398,5.237-6.67,10.557-10.115,15.765-1.089,1.646-3.111,4.612-3.717,5.38.388-.491-1,1.125-1.197,1.382-1.132,1.472-.271.345.418.103,5.807-2.048,5.924,2.145,8.393,3.386,1.196.602-.392.461-.025-.591-.387,1.11.097,1.395.057-.123-.024-.928-.054-1.853-.046-2.782.036-4.289.46-8.582.919-12.842,1.121-10.401,2.785-20.811,4.591-31.518,1.11-6.581,2.581-13.147,3.514-19.754.588-4.166-1.019-8.378-5.448-9.595-3.932-1.08-8.652,1.324-9.595,5.448-.012.054-.023.109-.034.163-1.972,9.803,13.061,13.997,15.043,4.147h0Z"/>
    <path class="cls-4" d="m807.842,609.809c-.049.221-.192.801-.248.994-.013.124-.06.351-.063.443,0,0-.033.5-.033.5-.217,3.977-1.449,7.805-3.019,11.413-1.582,3.791-3.01,7.633-4.449,11.456-4.783,13.658-15.085,41.529-4.801,53.578.393.449.873.856,1.327,1.242,0,0,.099.086.099.086.004.004.061.051.021.021-.826-.694-2.66-1.02-3.259-.719,4.559-2.595,8.085-6.946,11.845-10.998,5.46-6.225,10.568-12.893,15.534-19.571,7.421-10.195,14.58-20.624,21.356-31.261,4.166-6.828,8.723-13.598,11.999-20.859.781-3.08,3.911-4.943,6.991-4.161,3.387.832,5.238,4.584,3.904,7.793-3.542,8.169-8.769,15.699-13.387,23.254-9.181,14.508-18.749,28.722-29.009,42.499-5.442,7.115-10.568,13.915-17.234,20.249-4.104,3.976-11.017,8.528-16.686,4.06-19.795-14.884-11.661-50.794-5.499-70.932,1.3-4.215,2.827-8.335,4.377-12.437,1.132-3.096,2.575-6.099,4.596-8.73.473-.663,1.071-1.29,1.639-1.87.097-.102.187-.155.279-.232.053-.051.065-.01.101-.02l.024.002c.021-.029.011.015-.027.141-.051.189-.091.381-.121.572,2.64-9.003,15.713-5.715,13.741,3.49h0Z"/>
    <path class="cls-4" d="m807.034,492.074c-8.519,14.461-18.898,27.334-26.19,42.31-7.539,14.562-16.14,30.367-23.601,44.815-6.712,12.746-14.557,32.487-20.382,45.911,0,0-10.092,23.392-10.092,23.392-3.236,7.165-6.256,14.594-8.033,22.343-2.697,11.494-6.385,30.994-2.293,41.871.433.892,1.212,1.813,2.083,2.056.376.092,1.331.016,2.582-.549,2.893-1.308,5.778-3.802,8.197-6.196,8.495-8.524,15.692-19.858,22.165-30.328,6.977-10.138,13.93-20.431,20.136-31.004,4.227-7.174,8.093-14.704,12.292-22.167,4.181-7.455,8.603-14.75,13.112-21.958.744-1.189,2.312-1.55,3.5-.807,1.134.709,1.515,2.166.904,3.331-8.176,15.002-14.672,30.274-22.041,45.772-5.651,11.489-12.041,22.597-18.483,33.612-6.534,11.443-13.309,22.741-22.355,32.512-4.464,4.63-9.501,9.194-16.164,10.836-13.004,2.793-20.371-8.591-21.661-19.986-.699-4.802-.829-9.383-.748-13.91.397-13.622,2.364-26.708,6.254-39.754.664-2.051,1.514-4.795,2.458-6.692,9.186-20.381,18.915-43.85,27.954-64.216,9.289-19.33,19.993-37.726,30.388-56.388,8.022-15.374,19.777-28.776,31.476-41.263,4.435-4.495,11.701.864,8.539,6.457h0Z"/>
    <path class="cls-4" d="m649.401,710.908c-.062-.171.158,4.875-1.359,5.525.115-.049.191-.25.299-.319.294-.187.528-.544.796-.774,1.158-.995,2.25-2.084,3.375-3.117,3.977-3.652,7.925-7.335,11.815-11.08,14.177-13.651,27.686-27.991,40.661-42.786,31.541-35.965,60.794-74.421,82.922-116.967,5.438-10.456,10.414-21.144,15.014-31.993,2.41-5.683,9.526-17.373,4.18-23.065-5.297-5.642-13.771,2.856-8.485,8.485-.518-1.189-1.035-2.378-1.553-3.567.146-.89.139-.938-.02-.143-.309.537-.41,1.484-.597,2.079-.472,1.502-1.031,2.982-1.594,4.452-1.467,3.831-3.084,7.602-4.733,11.357-4.515,10.275-9.375,20.39-14.656,30.294-11.3,21.193-24.346,41.419-38.594,60.744-24.665,33.455-52.285,65.114-82.318,93.86-3.912,3.745-7.893,7.414-11.877,11.082-2.48,2.284-6.284,5.179-4.848,9.122,2.622,7.199,14.223,4.09,11.571-3.19h0Z"/>
    <path class="cls-4" d="m662.351,633.436c4.829-16.694-16.845-25.81-28.375-15.07-11.305,10.53-10.429,28.161-4.829,41.229,3.145,7.339,7.691,13.648,12.88,19.675,3.252,3.777,5.518,6.384,5.276,10.805-.212,3.862-3.19,8.406-5.804,11.616-1.425,1.75-3.003,3.406-4.656,4.941-.502.466-1.013.919-1.536,1.361,1.924-1.626.978-.654.371-.383,1.514-.41,3.028-.819,4.542-1.229l-.079-.003c-11.586-.398-11.57,17.602,0,18,7.455.256,14.691-10.245,18.318-15.473,5.885-8.482,8.648-18.737,5.183-28.739-2.021-5.835-6.057-10.227-9.972-14.863-4.001-4.737-7.523-10.27-9.351-16.231-1.45-4.726-2.068-9.962.009-14.612.381-.852,1.092-1.634,1.455-2.47.899-2.067,1.551-.112-.337-.277-1.198-.105,1.834.116,1.663.21,1.273.421.906-.005-1.101-1.278-.153-3.936-.492-4.601-1.014-1.995-3.225,11.149,14.139,15.909,17.357,4.785h0Z"/>
    <path class="cls-4" d="m645.179,657.284c5.893-6.262,12.647-13.084,16.202-21.053,1.979-4.436,1.286-9.673-3.229-12.314-3.84-2.246-10.323-1.232-12.314,3.229-1.132,2.538-2.686,4.857-4.34,7.082-1.744,2.346-6.134,7.231-9.048,10.328-7.935,8.431,4.769,21.185,12.728,12.728h0Z"/>
    <path class="cls-4" d="m587.177,649.742c-4.944,12.551-10.371,22.656-14.14,34.918-2.801,8.661-4.682,17.627-5.997,26.637-.268,2.063-1.504,9.262.49,9.727.205.024.452-.021.659-.052.049.001.087-.015.079-.062.05-.292-.228-.595-.429-.517-.255.04-.256.168-.248.227,0,0,.005.004.005.004l.064-.065.138-.142c21.289-22.049,44.525-45.036,66.251-66.765,2.982-2.98,5.952-5.971,9.121-8.778,3.364-2.921,8.177,1.432,5.505,5.076-4.362,5.768-11.47,13.795-16.187,19.44-16.613,19.553-34.535,40.835-51.401,59.984-.381.403-1.306,1.519-1.688,1.933-4.433,5.155-12.967,7.279-18.927,3.254-1.698-1.106-2.981-2.71-4.044-4.398-1.828-2.931-3.204-6.188-3.63-9.437-.697-5.292.096-9.541.679-14.474,1.568-13.035,4.533-26.002,8.672-38.438,2.561-7.941,5.773-15.89,7.91-23.715,1.276-4.82,6.217-7.693,11.038-6.417,5.2,1.337,8.089,7.089,6.08,12.062h0Z"/>
    <path class="cls-4" d="m524.163,644.475c-6.786,17.267-13.077,60.162-8.522,77.862,1.03,3.744,3.018,7.949,7.272,7.264,2.383-2.134,5.176-4.58,7.329-7.278,8.045-9.74,14.507-21.152,20.383-32.357,4.202-8.004,14.689-27.025,18.489-34.908,1.863-3.78,3.539-7.481,4.651-11.512.563-2.074,2.71-3.295,4.781-2.72,1.921.533,3.102,2.42,2.797,4.344-.698,4.633-2.291,9.194-3.949,13.512-3.325,8.365-7.034,16.389-10.812,24.496-3.786,7.932-7.577,16.331-11.771,24.065-4.473,8.126-9.604,15.682-15.79,22.701-2.473,2.726-5.129,5.504-8.316,7.662-4.08,2.239-9.756,3.599-14.496,2.054-8.889-2.868-12.927-11.747-15.434-19.729-5.268-18.269-4.055-37.716.257-56.026,2.489-9.471,5.435-18.452,11.597-26.606,5.185-6.306,14.865-.19,11.534,7.177h0Z"/>
    <path class="cls-4" d="m468.273,532.474c.272-.198.531-.417.777-.647.061-.062-.015.015-.049.049l-.339.35-.865.94c-19.682,22.921-35.146,49.882-45.282,78.29-10.818,29.918-13.069,60.947-8.911,92.285,1.301,9.627,5.004,33.755,13.769,37.601,17.508,1.226,48.961-44.471,58.645-59.078,7.752-11.792,15.191-23.887,21.831-36.337.931-1.74,1.803-3.529,2.591-5.319,3.331-6.91,13.512-2.982,11.383,4.373-3.122,8.12-7.425,15.593-11.467,23.231-14.772,26.244-44.386,77.594-72.688,88.858-12.977,5.041-24.416-.582-31.158-12.11-7.034-11.94-9.822-25.425-12.007-38.479-9.045-52.686,2.618-102.655,28.814-148.658,8.319-14.499,17.704-28.47,28.834-41.009,0,0,.723-.762.723-.762l.494-.495.335-.319c.324-.295.663-.579,1.011-.845,12.332-8.507,25.202,8.589,13.561,18.081h0Z"/>
    <path class="cls-4" d="m135.737,645.486c168.483-18.53,334.901-52.021,500.938-85.743,36.649-8.813,73.334-18.132,110.297-25.744,55.529-11.657,111.744-20.618,168.175-26.575,37.631-4.017,75.384-6.905,113.193-8.61,3.486-.157,6.439,2.541,6.596,6.027.157,3.485-2.541,6.438-6.026,6.596-112.669,5.134-224.828,20.531-334.526,46.713-20.747,4.774-41.233,10.246-62.101,14.745-164.204,33.039-328.053,69.103-494.436,90.298-4.883.637-9.357-2.805-9.994-7.688-.651-4.95,2.92-9.486,7.883-10.017h0Z"/>
    <path class="cls-4" d="m866.382,481.912c15.443,0,15.468-24,0-24s-15.468,24,0,24h0Z"/>
  </g>
  <path class="cls-3" d="m642.015,506.01c-2.705,1.595-6.262.454-8.821-1.366l-21.827-17.324c-11.876-8.323-22.418-18.402-31.266-29.892l-15.955-20.719c.124.899-12.014-11.64-16.955-29.428-4.892-17.611,14.821-17.797,27.529-11.859,6.01,2.808,21.843,16.144,31.467,20.556,3.835,1.758,8.371.612,10.976-2.706,3.762-4.792,6.42-7.407,12.474-14.603,7.506-8.921,30.11-18.019,37.129-12.847,5.253,3.871,9.927,11.185,12.141,14.823,1.976,3.247,5.193,18.765,1.835,27.529-4.576,11.945-19.061,48.601-24.047,59.388-4.159,8.998-4.147,12.235-14.682,18.447Z"/>
  <path class="cls-4" d="m268.961,830.33c-26.041-46.891-36.971-103.339-25.245-156.112,20.521-86.839,99.308-157.68,188.665-165.81,11.843-.629,13.491,16.275,1.647,17.863-16.248,1.295-32.29,4.912-47.612,10.558-46.062,17.115-84.596,52.709-107.729,95.833-23.584,43.196-25.569,95.359-10.393,141.704,4.681,14.444,10.653,28.539,18.366,41.61.487.81,1.031,1.697,1.446,2.324,3.449,5.207,2.024,12.225-3.183,15.674-5.355,3.57-12.685,1.894-15.963-3.643h0Z"/>
</svg>