<?xml version="1.0" encoding="utf-8"?>
<!-- Generator: Adobe Illustrator 23.0.0, SVG Export Plug-In . SVG Version: 6.00 Build 0)  -->
<svg version="1.1" id="Layer_1" xmlns="http://www.w3.org/2000/svg" xmlns:xlink="http://www.w3.org/1999/xlink" x="0px" y="0px"
	 viewBox="0 0 478 56.2" style="enable-background:new 0 0 478 56.2;" xml:space="preserve">
<style type="text/css">
	.st0{fill:#FFFFFF;}
</style>
<g id="Group_53" transform="translate(9564 1629.1)">
	<g id="Group_51">
		<g id="Group_50">
			<g id="Group_48">
				<path id="Path_79" class="st0" d="M-9511.9-1590.8c2-1.1,3.2-3.2,3.2-5.5v-3.8c0.2-3.7-2.6-7-6.4-7.2c-0.2,0-0.5,0-0.7,0h-18.4
					v33.9h18.7c3.8,0.2,6.9-2.7,7.1-6.5c0-0.2,0-0.5,0-0.7v-4.6C-9508.2-1587.6-9509.6-1589.9-9511.9-1590.8z M-9526.9-1600.5h9.3
					c0.8-0.1,1.6,0.4,1.7,1.2c0,0.2,0,0.3,0,0.5v2.3c0,1.4-0.4,2.4-1.7,2.4h-9.3V-1600.5z M-9515.5-1581.9c0.1,0.8-0.4,1.6-1.2,1.7
					c-0.2,0-0.3,0-0.5,0h-9.7v-7.3h9.1c1.7,0,2.3,0.2,2.3,1.6C-9515.5-1585.9-9515.5-1581.9-9515.5-1581.9z"/>
				<path id="Path_80" class="st0" d="M-9485.4-1582c0.1,0.8-0.4,1.6-1.2,1.7c-0.2,0-0.3,0-0.5,0h-7.7c-0.8,0.1-1.6-0.4-1.7-1.2
					c0-0.2,0-0.3,0-0.5v-25.3h-7.2v26.7c-0.2,3.7,2.7,6.9,6.4,7.1c0.2,0,0.4,0,0.7,0h11.3c3.7,0.2,6.9-2.7,7.1-6.4
					c0-0.2,0-0.4,0-0.7v-26.7h-7.2V-1582z"/>
				<rect id="Rectangle_18" x="-9472.4" y="-1607.3" class="st0" width="7.2" height="33.9"/>
				<path id="Path_81" class="st0" d="M-9452.1-1607.3h-7.3v33.9h23.7v-6.9h-16.4V-1607.3z"/>
				<path id="Path_82" class="st0" d="M-9411.5-1607.3h-18.9v33.9h18.9c3.8,0.2,6.9-2.7,7.1-6.5c0-0.2,0-0.5,0-0.7v-19.5
					c0.2-3.8-2.7-7-6.5-7.2C-9411.1-1607.3-9411.3-1607.3-9411.5-1607.3z M-9411.6-1582c0.1,0.8-0.4,1.6-1.2,1.7c-0.2,0-0.3,0-0.5,0
					h-9.8v-20h9.8c0.8-0.1,1.6,0.4,1.7,1.2c0,0.2,0,0.3,0,0.5V-1582z"/>
				<path id="Path_83" class="st0" d="M-9560.1-1607h-3.9v7.3h3.9v19h-3.9v7.3h15.1v-7.3h-3.9v-19h3.9v-7.3H-9560.1z"/>
			</g>
			<g id="Group_49">
				<path id="Path_84" class="st0" d="M-9380.2-1607.4l-11.7,34h7.5l2.4-7.6h11.7l2.4,7.6h7.8l-11.7-34
					C-9371.8-1607.4-9380.2-1607.4-9380.2-1607.4z M-9380-1587.5l3.9-12.5l3.8,12.5H-9380z"/>
				<path id="Path_85" class="st0" d="M-9339.3-1587.5l-9.4-19.9h-8v34h6.9v-22.7l7.8,17.3h5.3l7.8-17.3v22.7h6.9v-34h-8
					L-9339.3-1587.5z"/>
				<path id="Path_86" class="st0" d="M-9261.1-1592.9v-7.3c0.2-3.7-2.6-7-6.4-7.2c-0.2,0-0.5,0-0.7,0h-18.5v34h7.2v-12.3h5.8
					l5.8,12.2h7.8l-5.9-12.5C-9263-1586.8-9261.1-1589.4-9261.1-1592.9z M-9268.3-1594.2c0.1,0.8-0.4,1.6-1.2,1.7
					c-0.2,0-0.3,0-0.5,0h-9.4v-8h9.4c0.8-0.1,1.6,0.4,1.7,1.2c0,0.2,0,0.3,0,0.5V-1594.2z"/>
				<rect id="Rectangle_19" x="-9255.3" y="-1607.4" class="st0" width="7.2" height="34"/>
				<path id="Path_87" class="st0" d="M-9223.7-1607.4h-11.5c-3.7-0.2-6.9,2.7-7.1,6.4c0,0.2,0,0.4,0,0.7v19.7
					c-0.2,3.7,2.7,6.9,6.4,7.1c0.2,0,0.4,0,0.7,0h11.5c3.7,0.2,6.9-2.7,7.1-6.4c0-0.2,0-0.4,0-0.7v-5.8h-7.2v4.4
					c0.1,0.8-0.4,1.6-1.2,1.7c-0.2,0-0.3,0-0.5,0h-7.8c-0.8,0.1-1.6-0.4-1.7-1.2c0-0.2,0-0.3,0-0.5v-16.8c-0.1-0.8,0.4-1.6,1.2-1.7
					c0.2,0,0.3,0,0.5,0h7.8c0.8-0.1,1.6,0.4,1.7,1.2c0,0.2,0,0.3,0,0.5v4.4h7.2v-5.8c0.3-3.7-2.5-6.9-6.3-7.2
					C-9223.1-1607.4-9223.4-1607.4-9223.7-1607.4z"/>
				<path id="Path_88" class="st0" d="M-9194.9-1607.4h-8.5l-11.7,34h7.5l2.4-7.6h11.7l2.4,7.6h7.8L-9194.9-1607.4z M-9203.1-1587.5
					l3.9-12.5l3.8,12.5H-9203.1z"/>
				<path id="Path_89" class="st0" d="M-9310.4-1587h15.9v-6.8h-15.9v-6.8h18.6v-6.8h-25.4v6.8l0,0v6.8l0,0v6.8l0,0v13.6h25.5v-6.8
					h-18.7V-1587z"/>
			</g>
		</g>
	</g>
	<g id="Group_52">
		<path id="Path_90" class="st0" d="M-9119.1-1594.4c-8.5,0-16.7,2.2-22.8,6.1l-4.1,2.7h27c8.2-0.6,12-4.5,17.2-8.7L-9119.1-1594.4z
			"/>
		<path id="Path_91" class="st0" d="M-9152.5-1581.4l-13.1,8.5h27.3c10-0.6,13.2-3.7,20.6-8.5H-9152.5z"/>
		<path id="Path_92" class="st0" d="M-9086-1607.6"/>
		<path id="Path_93" class="st0" d="M-9129.6-1607.6h-2.6c-10.3,0.1-22.4,10.7-22.4,10.7l7.8-10.7l-7-21.5l-7,21.4h-22.5l18.3,13.4
			l-7,21.4l0,0l5.7-4.2c0-0.1,0-0.1,0.1-0.1l0,0c7.7-5.7,20.6-15.2,22.1-16.1c4.1-2.6,8.6-4.3,13.3-5.1c2.6-0.4,5.3-0.5,7.9-0.5h20
			c8-0.6,11.7-4.5,16.8-8.6L-9129.6-1607.6L-9129.6-1607.6z"/>
	</g>
</g>
</svg>
