<svg id="Layer_1" data-name="Layer 1" xmlns="http://www.w3.org/2000/svg" viewBox="0 0 953.48 177.88"><defs><style>.cls-1{fill:#2b3f58;}.cls-2{fill:#b3472c;}.cls-3{fill:#8b9da2;}</style></defs><path class="cls-1" d="M610.16,37.53q-4.81-4.72-4.81-13.42V2.51h11V23.78q0,9.34,7.41,9.35t7.35-9.35V2.51H642v21.6q0,8.69-4.81,13.42t-13.5,4.73Q615,42.26,610.16,37.53Z"/><path class="cls-1" d="M687.64,2.51v39h-9.08l-17.2-20.76V41.48h-10.8v-39h9.07l17.21,20.77V2.51Z"/><path class="cls-1" d="M696.55,2.51h11v39h-11Z"/><path class="cls-1" d="M756,2.51l-16.7,39H728.39l-16.64-39h11.91L734.24,27.9,745,2.51Z"/><path class="cls-1" d="M790.64,33v8.51H759.35v-39h30.57V11H770.26V17.6h17.32v8.24H770.26V33Z"/><path class="cls-1" d="M814.92,31.13h-6V41.48h-11v-39H815.7a22.21,22.21,0,0,1,9.18,1.75,13.65,13.65,0,0,1,6,5A13.72,13.72,0,0,1,833,16.93a13.57,13.57,0,0,1-2,7.38,13.32,13.32,0,0,1-5.65,4.93l8.41,12.24H822Zm5.23-18.43A7.61,7.61,0,0,0,815,11.2H808.9V22.61H815a7.67,7.67,0,0,0,5.12-1.48,5.22,5.22,0,0,0,1.73-4.2A5.31,5.31,0,0,0,820.15,12.7Z"/><path class="cls-1" d="M844.7,41.09A22.26,22.26,0,0,1,837.47,38l3.61-8.13a23.37,23.37,0,0,0,6.07,2.78,23,23,0,0,0,6.8,1.06q6.34,0,6.34-3.17A2.62,2.62,0,0,0,858.48,28a32.51,32.51,0,0,0-5.81-1.7,55.36,55.36,0,0,1-7.35-2,12.48,12.48,0,0,1-5.07-3.48,9.42,9.42,0,0,1-2.12-6.46,11.16,11.16,0,0,1,2-6.43A13,13,0,0,1,845.9,3.4a24,24,0,0,1,9.49-1.67,33.89,33.89,0,0,1,7.58.86,23.3,23.3,0,0,1,6.57,2.54l-3.4,8.18a22.73,22.73,0,0,0-10.8-3,9,9,0,0,0-4.79,1,2.92,2.92,0,0,0-1.5,2.53,2.51,2.51,0,0,0,1.78,2.34,32.49,32.49,0,0,0,5.73,1.62,52.82,52.82,0,0,1,7.38,2A12.68,12.68,0,0,1,869,23.25a9.26,9.26,0,0,1,2.14,6.43A11,11,0,0,1,869.2,36a13.4,13.4,0,0,1-5.84,4.54,23.73,23.73,0,0,1-9.47,1.69A36,36,0,0,1,844.7,41.09Z"/><path class="cls-1" d="M903.44,33.91H887l-3.06,7.57H872.65l17.21-39h10.85l17.26,39H906.5Zm-3.23-8.13-5-12.47-5,12.47Z"/><path class="cls-1" d="M922.21,2.51h11V32.74h18.6v8.74H922.21Z"/><path class="cls-1" d="M596.8,106.62a19.32,19.32,0,0,1-7.65-7.21,21,21,0,0,1,0-20.94,19.32,19.32,0,0,1,7.65-7.21,23,23,0,0,1,11-2.59,23.64,23.64,0,0,1,9.63,1.89A18.65,18.65,0,0,1,624.56,76l-7,6.35a11.74,11.74,0,0,0-14.84-3.18,9.69,9.69,0,0,0-3.84,3.93,13.13,13.13,0,0,0,0,11.64,9.66,9.66,0,0,0,3.84,3.92,11.36,11.36,0,0,0,5.66,1.39,11.53,11.53,0,0,0,9.18-4.56l7,6.34a18.45,18.45,0,0,1-7.13,5.46,23.64,23.64,0,0,1-9.63,1.89A23.16,23.16,0,0,1,596.8,106.62Z"/><path class="cls-1" d="M638.28,106.59a19.93,19.93,0,0,1,0-35.3,24.87,24.87,0,0,1,22.22,0,19.93,19.93,0,0,1,0,35.3,25,25,0,0,1-22.22,0Zm16.45-7.91a10,10,0,0,0,3.79-3.92,12.88,12.88,0,0,0,0-11.64,10,10,0,0,0-3.79-3.93,11,11,0,0,0-10.69,0,10.07,10.07,0,0,0-3.78,3.93,12.88,12.88,0,0,0,0,11.64A10,10,0,0,0,644,98.68a11,11,0,0,0,10.69,0Z"/><path class="cls-1" d="M715,69.45v39H706L688.75,87.66v20.76H678v-39H687l17.2,20.77V69.45Z"/><path class="cls-1" d="M732.24,78.19h-12V69.45h34.91v8.74H743.26v30.23h-11Z"/><path class="cls-1" d="M777.45,98.07h-6v10.35h-11v-39h17.82a22.21,22.21,0,0,1,9.18,1.75,14.19,14.19,0,0,1,6.16,20,13.41,13.41,0,0,1-5.66,4.93l8.41,12.24h-11.8Zm5.23-18.43a7.61,7.61,0,0,0-5.12-1.5h-6.13V89.55h6.13a7.67,7.67,0,0,0,5.12-1.48,5.22,5.22,0,0,0,1.73-4.2A5.31,5.31,0,0,0,782.68,79.64Z"/><path class="cls-1" d="M811.27,106.59a19.93,19.93,0,0,1,0-35.3,24.87,24.87,0,0,1,22.22,0,19.94,19.94,0,0,1,0,35.3,25,25,0,0,1-22.22,0Zm16.45-7.91a10,10,0,0,0,3.79-3.92,12.88,12.88,0,0,0,0-11.64,10,10,0,0,0-3.79-3.93,11,11,0,0,0-10.69,0,10,10,0,0,0-3.78,3.93,12.8,12.8,0,0,0,0,11.64A10,10,0,0,0,817,98.68a11,11,0,0,0,10.69,0Z"/><path class="cls-1" d="M850.94,69.45h11V99.68h18.6v8.74H850.94Z"/><path class="cls-1" d="M575.56,175a22.64,22.64,0,0,1-7.24-3.12l3.62-8.13a23.37,23.37,0,0,0,6.07,2.78,23,23,0,0,0,6.8,1.06q6.35,0,6.34-3.17a2.62,2.62,0,0,0-1.81-2.48,33.28,33.28,0,0,0-5.82-1.7,55.6,55.6,0,0,1-7.34-2,12.29,12.29,0,0,1-5.07-3.48,9.42,9.42,0,0,1-2.12-6.46,11.18,11.18,0,0,1,2-6.43,13.11,13.11,0,0,1,5.82-4.54,24,24,0,0,1,9.49-1.67,33.17,33.17,0,0,1,7.57.87,23.06,23.06,0,0,1,6.57,2.53L597,147.19a22.71,22.71,0,0,0-10.8-3,9.06,9.06,0,0,0-4.79,1,2.93,2.93,0,0,0-1.5,2.53,2.51,2.51,0,0,0,1.78,2.34,32.23,32.23,0,0,0,5.73,1.62,54.24,54.24,0,0,1,7.38,2,12.68,12.68,0,0,1,5.07,3.45,9.26,9.26,0,0,1,2.14,6.43,11,11,0,0,1-2,6.35,13.3,13.3,0,0,1-5.85,4.54,23.63,23.63,0,0,1-9.46,1.7A36,36,0,0,1,575.56,175Z"/><path class="cls-1" d="M628.23,161.39v14h-11V161.22l-14.87-24.83H614l9.24,15.48,9.24-15.48h10.69Z"/><path class="cls-1" d="M650.73,175a22.54,22.54,0,0,1-7.24-3.12l3.62-8.13A24.75,24.75,0,0,0,660,167.57q6.35,0,6.35-3.17a2.64,2.64,0,0,0-1.81-2.48,33.83,33.83,0,0,0-5.82-1.7,56.24,56.24,0,0,1-7.35-2,12.29,12.29,0,0,1-5.07-3.48,9.41,9.41,0,0,1-2.11-6.46,11.18,11.18,0,0,1,2-6.43,13,13,0,0,1,5.81-4.54,24,24,0,0,1,9.5-1.67,33.24,33.24,0,0,1,7.57.87,23.18,23.18,0,0,1,6.57,2.53l-3.4,8.18a22.71,22.71,0,0,0-10.8-3,9.06,9.06,0,0,0-4.79,1,2.93,2.93,0,0,0-1.5,2.53,2.51,2.51,0,0,0,1.78,2.34,32.4,32.4,0,0,0,5.74,1.62,54.47,54.47,0,0,1,7.37,2,12.68,12.68,0,0,1,5.07,3.45,9.22,9.22,0,0,1,2.14,6.43,11,11,0,0,1-1.95,6.35,13.27,13.27,0,0,1-5.84,4.54,23.72,23.72,0,0,1-9.47,1.7A36,36,0,0,1,650.73,175Z"/><path class="cls-1" d="M691.09,145.13h-12v-8.74H714v8.74H702.12v30.24h-11Z"/><path class="cls-1" d="M750.55,166.85v8.52H719.26v-39h30.57v8.52H730.18v6.57h17.31v8.24H730.18v7.13Z"/><path class="cls-1" d="M793,175.37l-.11-20.66-10,16.81H778l-10-16.25v20.1H757.79v-39h9.08l13.69,22.5,13.37-22.5H803l.11,39Z"/><path class="cls-1" d="M816.53,175a22.64,22.64,0,0,1-7.24-3.12l3.62-8.13a23.37,23.37,0,0,0,6.07,2.78,23,23,0,0,0,6.79,1.06c4.24,0,6.35-1.06,6.35-3.17a2.62,2.62,0,0,0-1.81-2.48,33.28,33.28,0,0,0-5.82-1.7,56.24,56.24,0,0,1-7.35-2,12.32,12.32,0,0,1-5.06-3.48,9.42,9.42,0,0,1-2.12-6.46,11.18,11.18,0,0,1,1.95-6.43,13.11,13.11,0,0,1,5.82-4.54,24,24,0,0,1,9.49-1.67,33.17,33.17,0,0,1,7.57.87,23.06,23.06,0,0,1,6.57,2.53L838,147.19a22.71,22.71,0,0,0-10.8-3,9.06,9.06,0,0,0-4.79,1,2.94,2.94,0,0,0-1.51,2.53,2.52,2.52,0,0,0,1.79,2.34,32.23,32.23,0,0,0,5.73,1.62,54.24,54.24,0,0,1,7.38,2,12.68,12.68,0,0,1,5.07,3.45,9.26,9.26,0,0,1,2.14,6.43,11,11,0,0,1-2,6.35,13.3,13.3,0,0,1-5.85,4.54,23.63,23.63,0,0,1-9.46,1.7A36,36,0,0,1,816.53,175Z"/><path class="cls-2" d="M252.27,132.54l-24.44.12L248,57.06H186l-22.65,84.69A27.19,27.19,0,0,0,189.63,176l73.48-.09a51.72,51.72,0,0,0,32-11.11h0A51.7,51.7,0,0,0,313,137.72l8.15-29.94H259Z"/><path class="cls-2" d="M335.6,13.85a27.25,27.25,0,0,0-22-11.16H240A51.43,51.43,0,0,0,208.08,13.8h0a51.4,51.4,0,0,0-17.74,27L188.93,46h86.49l-6.69,24.63,62.17.12,9-33.83A27.23,27.23,0,0,0,335.6,13.85Z"/><polygon class="cls-2" points="70.04 121.58 101.86 2.69 39.81 2.69 7.98 121.58 70.04 121.58"/><path class="cls-2" d="M126.3,2.69,91.51,132.54l-16.13.08h0l-8.27,0v0H5l-2.44,9.13A27.19,27.19,0,0,0,28.88,176l73.53-.09a51.58,51.58,0,0,0,31.88-11.07h0a51.66,51.66,0,0,0,17.89-27.16l36.17-135Z"/><polygon class="cls-3" points="567.71 3.17 522.08 175.8 510.66 175.8 556.31 3.07 567.71 3.17"/><path class="cls-2" d="M400.88,2.69a51.41,51.41,0,0,0-49.66,38.08L349.81,46H498.34L510,2.69Z"/><path class="cls-2" d="M457.09,67.68H393.5l2.85-10.62H346.87l-5.24,19.71A27.26,27.26,0,0,0,346,99.84h0A27.29,27.29,0,0,0,368,111H431.5l-5.82,21.66h-99L315,176H424a51.57,51.57,0,0,0,31.92-11.07h0a51.51,51.51,0,0,0,17.87-27.11L483.42,102a27.26,27.26,0,0,0-26.33-34.34Z"/></svg>