<?xml version="1.0" encoding="utf-8"?>
<!-- Generator: Adobe Illustrator 24.2.0, SVG Export Plug-In . SVG Version: 6.00 Build 0)  -->
<svg version="1.1" id="Layer_1" xmlns="http://www.w3.org/2000/svg" xmlns:xlink="http://www.w3.org/1999/xlink" x="0px" y="0px"
	 viewBox="0 0 216.4 120" style="enable-background:new 0 0 216.4 120;" xml:space="preserve">
<style type="text/css">
	.st0{fill:#174DA1;}
</style>
<g id="Layer_2_1_">
	<g id="Layer_1-2">
		<polygon class="st0" points="119.9,73.9 131,73.9 121.5,48.4 112.8,25 101.7,25 83.2,73.9 94.1,73.9 97.9,63 97.9,62.8 109,62.8 
			112.2,55 100.7,55 100.7,55 107.1,37 107.2,37 113.4,55 116.2,63 119.9,73.9 		"/>
		<path class="st0" d="M62.2,119.6C62.2,119.4,62.2,119.6,62.2,119.6c-1.2-26.3,12.9-31.9,38.6-15.6c0.7,0.5,0.4,0.2,0.5,0.3
			C71.5,84.9,54.4,50.1,54,7.7c0.4,42,0.6,72.6-0.5,90.2c-0.5-39-23-12.9-53.5,4.5C35,81.8,54.3,45.2,53.8,0
			c0.5,47.3,22.4,85.4,60.6,105.6C80.3,87.6,62.3,92.8,62.2,119.6L62.2,119.6z"/>
		<polygon class="st0" points="62.1,119.5 62.2,119.5 62.2,120 62.1,119.5 		"/>
		<path class="st0" d="M171.1,40.7c0-2-0.3-3.9-0.9-5.8c-0.6-1.9-1.6-3.6-2.9-5c-1.5-1.5-3.2-2.7-5.2-3.5c-2.5-0.9-5.1-1.4-7.8-1.3
			h-22v48.8h10.7V56.4l0,0V48l0,0V33.4h8.4c1.2,0,2.4,0.1,3.6,0.3c1.1,0.2,2.1,0.5,3,1.1c0.9,0.6,1.6,1.3,2.1,2.2
			c0.6,1.2,0.8,2.5,0.8,3.8c0.1,1.3-0.2,2.6-0.8,3.8c-0.5,0.9-1.2,1.7-2.1,2.2c-0.9,0.5-1.9,0.9-3,1.1c-0.5,0.1-1.1,0.1-1.6,0.2
			h-8.9l3.6,8.4h6l0,0h0.3c2.7,0.1,5.3-0.4,7.8-1.4c2-0.8,3.8-2,5.2-3.5c1.3-1.4,2.3-3.1,2.9-5C170.8,44.7,171.1,42.7,171.1,40.7
			L171.1,40.7z"/>
		<path class="st0" d="M216.4,47.6h-22.5l3.2,8.1h9.3c-0.1,0.8-0.2,1.7-0.4,2.5c-0.6,2.4-2,4.5-3.9,6c-1.9,1.4-4.3,2.1-6.6,2.1
			c-2.1,0.1-4.3-0.4-6.1-1.4c-1.7-0.9-3.1-2.2-4.1-3.8c-1.1-1.6-1.8-3.5-2.3-5.4c-0.5-2-0.7-4-0.7-6h-10.7c0,3.4,0.5,6.7,1.6,9.9
			c1,3,2.6,5.8,4.7,8.2c2.1,2.4,4.7,4.2,7.6,5.5c3.2,1.4,6.6,2,10.1,2c2.5,0,4.9-0.4,7.3-1.1c2.3-0.7,4.4-1.9,6.4-3.3
			c1.9-1.5,3.5-3.3,4.7-5.4c0.5-0.9,1-1.9,1.3-2.9l0,0c0.3-0.7,0.5-1.5,0.6-2.3c0-0.1,0.1-0.2,0.1-0.4l0.1-0.8
			c0.1-0.3,0.1-0.6,0.1-1l0,0C216.3,54.5,216.4,51,216.4,47.6L216.4,47.6z M205.8,41.4H216c-0.4-5.1-2.9-9.7-6.9-12.8
			c-1.9-1.5-4.1-2.6-6.4-3.3c-2.4-0.8-4.8-1.1-7.3-1.1c-3.5,0-6.9,0.6-10.1,2c-2.9,1.2-5.5,3.1-7.6,5.5c-2.1,2.4-3.7,5.2-4.7,8.2
			c-1.1,3.2-1.6,6.5-1.6,9.9h10.7c0-2,0.2-4,0.7-6c0.4-1.9,1.2-3.7,2.3-5.4c1-1.6,2.5-2.9,4.1-3.8c1.9-1,4-1.5,6.1-1.4
			c2.4-0.1,4.7,0.7,6.6,2.1C204,36.8,205.3,38.9,205.8,41.4L205.8,41.4z"/>
	</g>
</g>
</svg>
