<svg xmlns="http://www.w3.org/2000/svg" viewBox="0 0 637.73 212"><title>client-hcss</title><g id="Layer_2" data-name="Layer 2"><g id="Layer_1-2" data-name="Layer 1"><path d="M219.1,70.94l-5.06,23c-33.37-1.69-76.8,7-115,21.18L88,161.4l-29.37,8.18L69.37,127.7a204.35,204.35,0,0,0-33.39,20l-6.6,27.71L0,183.58,30.15,66.07,58,55.37l-15,63A268.13,268.13,0,0,1,76.1,101.49L88.8,52.06l27.82-10.7L105,90.21c39.23-13.71,83.75-23.1,114.11-19.27M153,52.9C153.62,47.53,151.1,40,141.29,40c-8.4,0-16.25,6.48-18.68,19.18-2.4,12.54,2.58,19.08,11.29,19.08,8.2,0,13.89-5.52,16.78-13.41h-6.84c-1.67,4.44-4.77,6.83-8.55,6.83-5.79,0-7-5.87-5.73-12.4,2-10.27,7.25-12.7,10.54-12.7,5.64,0,5.9,4.11,6,6.28ZM156,59c-.87,4.49-.29,12.14,11.63,12.14,2.88,0,13.09-1,15.17-11.89,1.24-6.54-2.46-8.55-6.7-9.77l-7.54-2.18c-1.3-.35-3.29-1-2.73-3.79.62-3.29,3.92-4.34,6.53-4.34,6,0,5.76,3.84,5.64,5.44h6.55c.81-4.44-.49-11.72-10.49-11.72-10.62,0-13.94,7.13-14.72,11.18-1.52,8,3.33,9.32,8.35,10.66l3.33.92c3.29.91,5.59,1.66,5.05,4.51-.74,3.84-4.49,4.69-7.73,4.69-6,0-6.14-3.82-5.8-5.85Zm33.19-3.3c-.84,4.51-.28,12.14,11.66,12.14,2.86,0,13.07-1,15.16-11.89,1.25-6.51-2.47-8.54-6.68-9.76L201.78,44c-1.3-.36-3.28-.95-2.74-3.79.64-3.28,4-4.34,6.53-4.34,6,0,5.78,3.84,5.65,5.47h6.56c.8-4.47-.48-11.75-10.51-11.75-10.6,0-13.92,7.13-14.7,11.18-1.52,8,3.32,9.31,8.34,10.68l3.33.89c3.27.93,5.59,1.69,5.06,4.52-.73,3.84-4.5,4.7-7.73,4.7-6,0-6.14-3.85-5.8-5.87Z" style="fill:#fff"/><rect x="263.5" width="2" height="212" style="fill:#fff"/><path d="M310.74,25.39h5.81V52.67h-5.81Z" style="fill:#fff"/><path d="M334.34,40.23a3.89,3.89,0,0,0-.94-2.94,3.76,3.76,0,0,0-2.7-.9,5.12,5.12,0,0,0-2.6.68,6.37,6.37,0,0,0-1.9,1.65V52H321V32.91h5.19v2.58a9.11,9.11,0,0,1,6.92-3.07,6.37,6.37,0,0,1,4.8,1.68,6.38,6.38,0,0,1,1.62,4.62v14h-5.2Z" style="fill:#fff"/><path d="M357.21,40.23a3.93,3.93,0,0,0-.94-2.94,3.76,3.76,0,0,0-2.7-.9,5.09,5.09,0,0,0-2.6.68,6.25,6.25,0,0,0-1.9,1.65V52h-5.2V32.91h5.2v2.58A9.06,9.06,0,0,1,356,32.42a6.38,6.38,0,0,1,4.81,1.68,6.42,6.42,0,0,1,1.61,4.62v14h-5.19Z" style="fill:#fff"/><path d="M370.38,51.81A9.49,9.49,0,0,1,366.74,48a11,11,0,0,1-1.27-5.25,10.82,10.82,0,0,1,1.27-5.2,9.42,9.42,0,0,1,3.64-3.77,11.66,11.66,0,0,1,11.08,0,9.42,9.42,0,0,1,3.64,3.77,10.82,10.82,0,0,1,1.27,5.2A11,11,0,0,1,385.1,48a9.49,9.49,0,0,1-3.64,3.77,11.74,11.74,0,0,1-11.08,0Zm9.22-4.43A7.44,7.44,0,0,0,381,42.79a7.4,7.4,0,0,0-1.37-4.55,4.61,4.61,0,0,0-7.38,0,7.52,7.52,0,0,0-1.35,4.55,7.56,7.56,0,0,0,1.35,4.59,4.61,4.61,0,0,0,7.38,0Z" style="fill:#fff"/><path d="M386.58,32.91h5.56l5.15,13.75,5.16-13.75h5.6l-7.93,19.76h-5.61Z" style="fill:#fff"/><path d="M421.43,50.62a7.09,7.09,0,0,1-2.68,1.89,9.25,9.25,0,0,1-3.58.69,7.46,7.46,0,0,1-3.25-.74,6.34,6.34,0,0,1-2.6-2.23,6.24,6.24,0,0,1-1-3.59A5.82,5.82,0,0,1,411.9,41a8.41,8.41,0,0,1,3.27-.65,10.3,10.3,0,0,1,3.64.61,6.15,6.15,0,0,1,2.62,1.8V40a3.43,3.43,0,0,0-1.19-2.74,4.66,4.66,0,0,0-3.15-1,8.27,8.27,0,0,0-5.77,2.33l-2-3.35a12.4,12.4,0,0,1,4-2.06,15.56,15.56,0,0,1,4.64-.69,10.32,10.32,0,0,1,6.22,1.76q2.42,1.76,2.41,5.73V52.67h-5.19Zm0-5a4,4,0,0,0-1.74-1.15,7.12,7.12,0,0,0-2.43-.41,4.56,4.56,0,0,0-2.66.73,2.28,2.28,0,0,0-1.07,2,2.2,2.2,0,0,0,1.07,1.93,4.71,4.71,0,0,0,2.66.71,7.12,7.12,0,0,0,2.43-.41,4,4,0,0,0,1.74-1.15Z" style="fill:#fff"/><path d="M433.41,51.76A5.7,5.7,0,0,1,432,47.59V36.88h-3.27v-4H432v-5.4h5.24v5.4h4v4h-4v9.94a2.88,2.88,0,0,0,.49,1.73,1.51,1.51,0,0,0,1.31.68,3.32,3.32,0,0,0,1.06-.16,1.84,1.84,0,0,0,.74-.41l1.1,3.45a7.1,7.1,0,0,1-4.34,1.09A5.65,5.65,0,0,1,433.41,51.76Z" style="fill:#fff"/><path d="M444.35,29.46a3,3,0,0,1-.92-2.19,3,3,0,0,1,.92-2.19,3,3,0,0,1,2.19-.92,3.07,3.07,0,0,1,3.11,3.11,3,3,0,0,1-.9,2.19,3,3,0,0,1-2.21.92A3,3,0,0,1,444.35,29.46ZM444,32.91h5.19V52.67H444Z" style="fill:#fff"/><path d="M450.67,32.91h5.57l5.15,13.75,5.15-13.75h5.61l-7.94,19.76h-5.6Z" style="fill:#fff"/><path d="M473.7,37.57a10,10,0,0,1,3.64-3.75,10.12,10.12,0,0,1,5.28-1.4,9.72,9.72,0,0,1,5.15,1.37,9.33,9.33,0,0,1,3.5,3.85,12.44,12.44,0,0,1,1.25,5.66v1.15H477.83A5.65,5.65,0,0,0,479.59,48a5.51,5.51,0,0,0,3.93,1.43,8.41,8.41,0,0,0,2.88-.53,6.9,6.9,0,0,0,2.4-1.43l2.29,3.23a10.19,10.19,0,0,1-3.6,1.84,15.87,15.87,0,0,1-4.54.65,11.28,11.28,0,0,1-5.4-1.29,9.51,9.51,0,0,1-3.79-3.65,10.7,10.7,0,0,1-1.37-5.47A10.59,10.59,0,0,1,473.7,37.57Zm5.48,0a5.46,5.46,0,0,0-1.4,3.14h9.71a5.26,5.26,0,0,0-1.33-3.12,4.47,4.47,0,0,0-3.54-1.38A4.39,4.39,0,0,0,479.18,37.55Z" style="fill:#fff"/><path d="M312.05,86.28a12.21,12.21,0,0,0,3.78,2.66,11.64,11.64,0,0,0,4.89,1,5.13,5.13,0,0,0,3.5-1.09,3.34,3.34,0,0,0,1.25-2.61,2.82,2.82,0,0,0-1.35-2.54,15.78,15.78,0,0,0-4.18-1.65,48.6,48.6,0,0,1-5.19-1.4,8.76,8.76,0,0,1-3.5-2.27,5.93,5.93,0,0,1-1.49-4.25,6.64,6.64,0,0,1,1.27-4,8.38,8.38,0,0,1,3.62-2.81,13.43,13.43,0,0,1,5.46-1,15.88,15.88,0,0,1,10.63,3.49L327.51,74a10.73,10.73,0,0,0-3.66-2.23A11.88,11.88,0,0,0,319.7,71a4.71,4.71,0,0,0-3,.82,2.61,2.61,0,0,0-1,2.17A2.12,2.12,0,0,0,317,76a23.11,23.11,0,0,0,4.17,1.38,38,38,0,0,1,5.17,1.5,9,9,0,0,1,3.56,2.48,6.46,6.46,0,0,1,1.5,4.47,8,8,0,0,1-2.81,6.35c-1.86,1.62-4.57,2.42-8.11,2.42a19.38,19.38,0,0,1-6.65-1.05,14.2,14.2,0,0,1-4.89-2.93Z" style="fill:#fff"/><path d="M338,93.23a9.56,9.56,0,0,1-3.64-3.77,11,11,0,0,1-1.27-5.25,10.93,10.93,0,0,1,1.27-5.2A9.49,9.49,0,0,1,338,75.24a11.68,11.68,0,0,1,11.09,0A9.49,9.49,0,0,1,352.71,79a10.93,10.93,0,0,1,1.27,5.2,11,11,0,0,1-1.27,5.25,9.56,9.56,0,0,1-3.64,3.77,11.75,11.75,0,0,1-11.09,0Zm9.23-4.43a8.31,8.31,0,0,0,0-9.14,4.39,4.39,0,0,0-3.71-1.85,4.33,4.33,0,0,0-3.68,1.85,8.41,8.41,0,0,0,0,9.14,4.31,4.31,0,0,0,3.68,1.86A4.38,4.38,0,0,0,347.21,88.8Z" style="fill:#fff"/><path d="M358.15,78.3h-3.27v-4h3.27V73.27A6.81,6.81,0,0,1,360,68.21a6.5,6.5,0,0,1,4.81-1.85,8.19,8.19,0,0,1,3.76.79l-1.06,3.58a3.17,3.17,0,0,0-1.68-.4,2.25,2.25,0,0,0-1.8.76,3.31,3.31,0,0,0-.66,2.22v1h4v4h-4V94.09h-5.23Z" style="fill:#fff"/><path d="M372,93.18A5.66,5.66,0,0,1,370.58,89V78.3h-3.27v-4h3.27v-5.4h5.24v5.4h4v4h-4v9.94a2.86,2.86,0,0,0,.49,1.73,1.53,1.53,0,0,0,1.31.69,3.27,3.27,0,0,0,1.06-.17,1.77,1.77,0,0,0,.74-.41l1.1,3.45a7.08,7.08,0,0,1-4.33,1.09A5.62,5.62,0,0,1,372,93.18Z" style="fill:#fff"/><path d="M395.74,80.63l-4.17,13.46H386l-6-19.76h5.4l3.68,13.3,4.34-13.3H398l4.34,13.3,3.68-13.3h5.4l-6,19.76h-5.52Z" style="fill:#fff"/><path d="M425.07,92.05a7.18,7.18,0,0,1-2.68,1.88,9.25,9.25,0,0,1-3.58.69,7.46,7.46,0,0,1-3.25-.74,6.34,6.34,0,0,1-2.6-2.23,6.24,6.24,0,0,1-1-3.59,6,6,0,0,1,1-3.59,5.9,5.9,0,0,1,2.58-2.07,8.24,8.24,0,0,1,3.27-.66,10.26,10.26,0,0,1,3.64.61,6.15,6.15,0,0,1,2.62,1.8V81.37a3.43,3.43,0,0,0-1.19-2.74,4.66,4.66,0,0,0-3.15-1A8.29,8.29,0,0,0,415,79.94l-2-3.35a12.4,12.4,0,0,1,4-2.06,15.61,15.61,0,0,1,4.64-.69,10.32,10.32,0,0,1,6.22,1.76q2.41,1.75,2.41,5.73V94.09h-5.19Zm0-5a4,4,0,0,0-1.74-1.15,7.12,7.12,0,0,0-2.43-.41,4.56,4.56,0,0,0-2.66.73,2.28,2.28,0,0,0-1.07,2,2.2,2.2,0,0,0,1.07,1.93,4.71,4.71,0,0,0,2.66.71,7.12,7.12,0,0,0,2.43-.41,4,4,0,0,0,1.74-1.15Z" style="fill:#fff"/><path d="M434.6,74.33h5.19V77a8.8,8.8,0,0,1,2.79-2.27,7.36,7.36,0,0,1,3.51-.92v4.83a6.53,6.53,0,0,0-1.43-.16,6.81,6.81,0,0,0-2.78.66,4.73,4.73,0,0,0-2.09,1.63V94.09H434.6Z" style="fill:#fff"/><path d="M448.55,79a9.85,9.85,0,0,1,3.64-3.75,10.05,10.05,0,0,1,5.27-1.4,9.75,9.75,0,0,1,5.16,1.37,9.4,9.4,0,0,1,3.5,3.85,12.43,12.43,0,0,1,1.24,5.66v1.15H452.68a5.58,5.58,0,0,0,1.76,3.56,5.51,5.51,0,0,0,3.93,1.43,8.45,8.45,0,0,0,2.88-.53,6.85,6.85,0,0,0,2.39-1.43l2.29,3.23a10,10,0,0,1-3.6,1.84,15.48,15.48,0,0,1-4.54.65,11.28,11.28,0,0,1-5.4-1.29,9.35,9.35,0,0,1-3.78-3.65,10.7,10.7,0,0,1-1.37-5.47A10.48,10.48,0,0,1,448.55,79ZM454,79a5.36,5.36,0,0,0-1.4,3.14h9.7A5.2,5.2,0,0,0,461,79a4.44,4.44,0,0,0-3.54-1.38A4.37,4.37,0,0,0,454,79Z" style="fill:#fff"/><path d="M312.05,117.64h-3.27v-1.88h3.27V114a6.69,6.69,0,0,1,1.43-4.55,5,5,0,0,1,3.93-1.62,5.16,5.16,0,0,1,2.66.63l-.66,1.7a3.54,3.54,0,0,0-1.8-.45,3,3,0,0,0-2.55,1.11,5,5,0,0,0-.88,3.19v1.8h4v1.88h-4v17.87h-2.13Z" style="fill:#fff"/><path d="M324.75,134.67a9.19,9.19,0,0,1-3.33-3.75,11.56,11.56,0,0,1-1.19-5.29,11.4,11.4,0,0,1,1.19-5.26,9.26,9.26,0,0,1,3.33-3.73,9,9,0,0,1,5-1.38,9.15,9.15,0,0,1,5,1.38,9,9,0,0,1,3.33,3.73,11.65,11.65,0,0,1,1.17,5.26,11.81,11.81,0,0,1-1.17,5.29,8.91,8.91,0,0,1-3.33,3.75,9.14,9.14,0,0,1-5,1.37A9,9,0,0,1,324.75,134.67Zm8.86-1.68a7.43,7.43,0,0,0,2.49-3.13,10.45,10.45,0,0,0,.86-4.23,10.28,10.28,0,0,0-.86-4.2,7.44,7.44,0,0,0-2.49-3.11,6.51,6.51,0,0,0-3.89-1.17,6.43,6.43,0,0,0-3.84,1.17,7.38,7.38,0,0,0-2.5,3.11,10.28,10.28,0,0,0-.86,4.2,10.45,10.45,0,0,0,.86,4.23,7.38,7.38,0,0,0,2.5,3.13,6.43,6.43,0,0,0,3.84,1.17A6.51,6.51,0,0,0,333.61,133Z" style="fill:#fff"/><path d="M343.92,115.76H346v3.39a11.82,11.82,0,0,1,3-2.82,6.67,6.67,0,0,1,3.64-1.07v2.09a5.63,5.63,0,0,0-1.06-.08,5.87,5.87,0,0,0-3.19,1.12,6.79,6.79,0,0,0-2.42,2.46v14.66h-2.12Z" style="fill:#fff"/><path d="M367.23,134.92a4.71,4.71,0,0,1-1-3.18v-14.1H363v-1.88h3.27v-5.4h2.17v5.4h4v1.88h-4v13.81a3.4,3.4,0,0,0,.51,2,1.72,1.72,0,0,0,1.53.74,3.15,3.15,0,0,0,1.25-.26,2.87,2.87,0,0,0,1-.68l.82,1.62a4.64,4.64,0,0,1-1.43.9,5.4,5.4,0,0,1-1.93.3A3.63,3.63,0,0,1,367.23,134.92Z" style="fill:#fff"/><path d="M389.6,122c0-1.8-.4-3.06-1.22-3.79a5.24,5.24,0,0,0-3.56-1.08,7.57,7.57,0,0,0-3.64,1,7.8,7.8,0,0,0-2.78,2.42v15h-2.13V108.23h2.13v10.51a10.46,10.46,0,0,1,3.15-2.43,8.33,8.33,0,0,1,4-1,6.42,6.42,0,0,1,4.65,1.54q1.57,1.53,1.57,4.8v13.91H389.6Z" style="fill:#fff"/><path d="M397.64,120.43a9.74,9.74,0,0,1,3.42-3.77,9.36,9.36,0,0,1,9.88,0,9.11,9.11,0,0,1,3.21,3.78,12.44,12.44,0,0,1,1.1,5.28v.57H398.73a9.6,9.6,0,0,0,1.08,4,7.27,7.27,0,0,0,2.68,2.87,7.45,7.45,0,0,0,4,1.05,9.07,9.07,0,0,0,3.53-.69,8.46,8.46,0,0,0,2.93-2.05l1.1,1.4a10.32,10.32,0,0,1-7.73,3.14,9.81,9.81,0,0,1-5.11-1.33,9.33,9.33,0,0,1-3.52-3.69,11.23,11.23,0,0,1-1.27-5.39A11,11,0,0,1,397.64,120.43Zm4.44-2.25a7.3,7.3,0,0,0-2.43,2.81,8.69,8.69,0,0,0-.92,3.52h14.35a8.48,8.48,0,0,0-.84-3.5,6.74,6.74,0,0,0-6.36-4A6.48,6.48,0,0,0,402.08,118.18Z" style="fill:#fff"/><path d="M435.54,134.26a12.83,12.83,0,0,1-5-5,15.67,15.67,0,0,1,0-14.66,12.9,12.9,0,0,1,5-5,13.86,13.86,0,0,1,6.95-1.78,12.41,12.41,0,0,1,10,4.7l-2,1.27a9.34,9.34,0,0,0-3.46-2.88,10.09,10.09,0,0,0-4.6-1.09,10.91,10.91,0,0,0-9.79,5.84,13.85,13.85,0,0,0,0,12.54,11,11,0,0,0,4.07,4.33,10.88,10.88,0,0,0,5.72,1.55,10.08,10.08,0,0,0,4.6-1.08,9.46,9.46,0,0,0,3.46-2.89l2,1.23a12.42,12.42,0,0,1-10,4.74A13.86,13.86,0,0,1,435.54,134.26Z" style="fill:#fff"/><path d="M459.73,134.67a9.19,9.19,0,0,1-3.33-3.75,11.69,11.69,0,0,1-1.19-5.29,11.53,11.53,0,0,1,1.19-5.26,9.26,9.26,0,0,1,3.33-3.73,9,9,0,0,1,5-1.38,9,9,0,0,1,8.37,5.11,11.64,11.64,0,0,1,1.16,5.26,11.8,11.8,0,0,1-1.16,5.29,9,9,0,0,1-3.33,3.75,9.2,9.2,0,0,1-5,1.37A9,9,0,0,1,459.73,134.67Zm8.86-1.68a7.43,7.43,0,0,0,2.49-3.13,10.29,10.29,0,0,0,.86-4.23,10.12,10.12,0,0,0-.86-4.2,7.44,7.44,0,0,0-2.49-3.11,6.51,6.51,0,0,0-3.89-1.17,6.43,6.43,0,0,0-3.84,1.17,7.53,7.53,0,0,0-2.5,3.11,10.28,10.28,0,0,0-.86,4.2,10.45,10.45,0,0,0,.86,4.23,7.53,7.53,0,0,0,2.5,3.13,6.43,6.43,0,0,0,3.84,1.17A6.51,6.51,0,0,0,468.59,133Z" style="fill:#fff"/><path d="M492.23,122.11a4.21,4.21,0,0,0-4.78-5,7.46,7.46,0,0,0-3.64,1,7.78,7.78,0,0,0-2.78,2.41v14.93H478.9V115.76H481v3a10.54,10.54,0,0,1,3.14-2.43,8.37,8.37,0,0,1,4-1q6.23,0,6.22,6.43v13.82h-2.13Z" style="fill:#fff"/><path d="M499.72,131.34a7.76,7.76,0,0,0,2.7,2.09,8.34,8.34,0,0,0,3.68.81,6.07,6.07,0,0,0,3.86-1.11,3.55,3.55,0,0,0,1.42-2.93,2.82,2.82,0,0,0-.74-2,4.82,4.82,0,0,0-1.84-1.2c-.74-.28-1.72-.59-2.95-.93a35,35,0,0,1-3.64-1.06,6,6,0,0,1-2.33-1.55,3.94,3.94,0,0,1-1-2.81,4.75,4.75,0,0,1,1.9-3.83,7.92,7.92,0,0,1,5.14-1.55,9,9,0,0,1,7.07,2.91l-1.18,1.51a6.43,6.43,0,0,0-2.44-1.9,8,8,0,0,0-3.45-.72,5.89,5.89,0,0,0-3.6,1,3.06,3.06,0,0,0-1.35,2.55,2.25,2.25,0,0,0,.69,1.72,4.74,4.74,0,0,0,1.72,1,28.77,28.77,0,0,0,2.86.82,30,30,0,0,1,3.75,1.15,6.36,6.36,0,0,1,2.43,1.75,4.6,4.6,0,0,1,1,3.14,5.25,5.25,0,0,1-1.92,4.18,8.17,8.17,0,0,1-5.48,1.64,11.39,11.39,0,0,1-4.28-.75,9.35,9.35,0,0,1-3.33-2.35Z" style="fill:#fff"/><path d="M519.52,134.92a4.66,4.66,0,0,1-1-3.18v-14.1h-3.28v-1.88h3.28v-5.4h2.16v5.4h4v1.88h-4v13.81a3.4,3.4,0,0,0,.51,2,1.74,1.74,0,0,0,1.54.74,3.18,3.18,0,0,0,1.25-.26,2.87,2.87,0,0,0,1-.68l.82,1.62a4.57,4.57,0,0,1-1.44.9,5.34,5.34,0,0,1-1.92.3A3.63,3.63,0,0,1,519.52,134.92Z" style="fill:#fff"/><path d="M528.56,115.76h2.12v3.39a11.82,11.82,0,0,1,3-2.82,6.67,6.67,0,0,1,3.64-1.07v2.09a5.63,5.63,0,0,0-1.06-.08,5.87,5.87,0,0,0-3.19,1.12,6.87,6.87,0,0,0-2.42,2.46v14.66h-2.12Z" style="fill:#fff"/><path d="M554,132.61a11.63,11.63,0,0,1-3.23,2.45,8.25,8.25,0,0,1-3.89,1,6.38,6.38,0,0,1-4.66-1.53,6.53,6.53,0,0,1-1.56-4.82V115.76h2.13v13.47q0,2.76,1.23,3.84a5.18,5.18,0,0,0,3.56,1.09,7.66,7.66,0,0,0,3.62-.94,8.15,8.15,0,0,0,2.8-2.34V115.76h2.13v19.75H554Z" style="fill:#fff"/><path d="M562,120.39a9.16,9.16,0,0,1,8.4-5.13,8.8,8.8,0,0,1,4,.85,9.21,9.21,0,0,1,3,2.47L576,119.89a6.33,6.33,0,0,0-5.4-2.74,7,7,0,0,0-3.94,1.11,7.18,7.18,0,0,0-2.6,3,10.12,10.12,0,0,0-.9,4.32A10.26,10.26,0,0,0,564,130a7.12,7.12,0,0,0,2.6,3.07,7,7,0,0,0,3.94,1.11,6.36,6.36,0,0,0,5.4-2.78l1.48,1.31a9,9,0,0,1-3,2.51,8.8,8.8,0,0,1-4,.84,9.1,9.1,0,0,1-8.4-5.14,11.48,11.48,0,0,1-1.21-5.27A11.32,11.32,0,0,1,562,120.39Z" style="fill:#fff"/><path d="M582.75,134.92a4.71,4.71,0,0,1-1-3.18v-14.1H578.5v-1.88h3.27v-5.4h2.17v5.4h4v1.88h-4v13.81a3.4,3.4,0,0,0,.51,2,1.73,1.73,0,0,0,1.54.74,3.1,3.1,0,0,0,1.24-.26,2.68,2.68,0,0,0,1-.68l.82,1.62a4.42,4.42,0,0,1-1.43.9,5.38,5.38,0,0,1-1.92.3A3.67,3.67,0,0,1,582.75,134.92Z" style="fill:#fff"/><path d="M591.71,112a1.55,1.55,0,0,1-.49-1.14,1.67,1.67,0,0,1,1.64-1.64,1.58,1.58,0,0,1,1.16.47,1.65,1.65,0,0,1,0,2.31,1.53,1.53,0,0,1-1.16.49A1.57,1.57,0,0,1,591.71,112Zm.08,3.77h2.13v19.75h-2.13Z" style="fill:#fff"/><path d="M603.1,134.67a9.19,9.19,0,0,1-3.33-3.75,11.69,11.69,0,0,1-1.19-5.29,11.53,11.53,0,0,1,1.19-5.26,9.26,9.26,0,0,1,3.33-3.73,9,9,0,0,1,5-1.38,9,9,0,0,1,8.37,5.11,11.78,11.78,0,0,1,1.16,5.26,11.94,11.94,0,0,1-1.16,5.29,9,9,0,0,1-3.34,3.75,9.14,9.14,0,0,1-5,1.37A9,9,0,0,1,603.1,134.67ZM612,133a7.43,7.43,0,0,0,2.49-3.13,10.29,10.29,0,0,0,.86-4.23,10.12,10.12,0,0,0-.86-4.2,7.44,7.44,0,0,0-2.49-3.11,6.51,6.51,0,0,0-3.89-1.17,6.43,6.43,0,0,0-3.84,1.17,7.53,7.53,0,0,0-2.5,3.11,10.28,10.28,0,0,0-.86,4.2,10.45,10.45,0,0,0,.86,4.23,7.53,7.53,0,0,0,2.5,3.13,6.43,6.43,0,0,0,3.84,1.17A6.51,6.51,0,0,0,612,133Z" style="fill:#fff"/><path d="M635.6,122.11a4.22,4.22,0,0,0-4.78-5,7.52,7.52,0,0,0-3.65,1,7.87,7.87,0,0,0-2.78,2.41v14.93h-2.12V115.76h2.12v3a10.46,10.46,0,0,1,3.15-2.43,8.34,8.34,0,0,1,4-1q6.22,0,6.22,6.43v13.82H635.6Z" style="fill:#fff"/><path d="M311.44,149.65h2.33v27.28h-2.33Z" style="fill:#fff"/><path d="M333,163.53a4.21,4.21,0,0,0-4.78-5,7.46,7.46,0,0,0-3.64,1,7.78,7.78,0,0,0-2.78,2.41v14.93h-2.13V157.18h2.13v3a10.7,10.7,0,0,1,3.14-2.43,8.35,8.35,0,0,1,4-1q6.23,0,6.22,6.42v13.82H333Z" style="fill:#fff"/><path d="M355.49,173.78a8.76,8.76,0,0,1-2.92,2.64,7.79,7.79,0,0,1-3.95,1.05,8.39,8.39,0,0,1-4.62-1.28,8.26,8.26,0,0,1-3.11-3.62,14.06,14.06,0,0,1,0-10.95,8.27,8.27,0,0,1,7.73-4.93,7.78,7.78,0,0,1,3.86,1,8.92,8.92,0,0,1,3,2.7V149.65h2.17v27.28h-2.17Zm0-11.59a7.89,7.89,0,0,0-6.5-3.62,6,6,0,0,0-5.06,2.41,10.95,10.95,0,0,0,0,12.21,6.06,6.06,0,0,0,5.06,2.39,7.51,7.51,0,0,0,3.8-1,7.23,7.23,0,0,0,2.7-2.51Z" style="fill:#fff"/><path d="M376.8,174a11.63,11.63,0,0,1-3.23,2.45,8.24,8.24,0,0,1-3.89,1,6.4,6.4,0,0,1-4.66-1.54c-1-1-1.55-2.63-1.55-4.82V157.18h2.12v13.47c0,1.84.41,3.12,1.23,3.85a5.24,5.24,0,0,0,3.56,1.08,7.63,7.63,0,0,0,3.62-.94,8.06,8.06,0,0,0,2.8-2.34V157.18h2.13v19.75H376.8Z" style="fill:#fff"/><path d="M384.29,172.76a7.76,7.76,0,0,0,2.7,2.09,8.32,8.32,0,0,0,3.68.82,6.09,6.09,0,0,0,3.86-1.12,3.57,3.57,0,0,0,1.42-2.93,2.82,2.82,0,0,0-.74-2,4.9,4.9,0,0,0-1.84-1.2c-.74-.28-1.72-.59-2.95-.93a32.7,32.7,0,0,1-3.64-1.06,6.09,6.09,0,0,1-2.33-1.54,4,4,0,0,1-1-2.81,4.75,4.75,0,0,1,1.9-3.84,7.9,7.9,0,0,1,5.13-1.54,9,9,0,0,1,7.08,2.9l-1.18,1.51a6.51,6.51,0,0,0-2.44-1.9,8,8,0,0,0-3.46-.71,5.84,5.84,0,0,0-3.59,1,3,3,0,0,0-1.35,2.55,2.25,2.25,0,0,0,.69,1.72,4.74,4.74,0,0,0,1.72,1,28,28,0,0,0,2.86.82,30,30,0,0,1,3.75,1.15A6.47,6.47,0,0,1,397,168.5a4.6,4.6,0,0,1,1,3.14,5.25,5.25,0,0,1-1.92,4.18,8.17,8.17,0,0,1-5.48,1.65,11.39,11.39,0,0,1-4.28-.76,9.35,9.35,0,0,1-3.33-2.35Z" style="fill:#fff"/><path d="M404.08,176.34a4.71,4.71,0,0,1-1-3.18v-14.1h-3.27v-1.88h3.27v-5.4h2.17v5.4h4v1.88h-4v13.81a3.4,3.4,0,0,0,.51,2,1.73,1.73,0,0,0,1.54.74,2.94,2.94,0,0,0,1.24-.26,2.81,2.81,0,0,0,1-.68l.81,1.62a4.63,4.63,0,0,1-1.43.91,5.38,5.38,0,0,1-1.92.3A3.67,3.67,0,0,1,404.08,176.34Z" style="fill:#fff"/><path d="M413.12,157.18h2.13v3.39a11.82,11.82,0,0,1,3-2.82,6.66,6.66,0,0,1,3.64-1.06v2.08a5.63,5.63,0,0,0-1.06-.08,5.87,5.87,0,0,0-3.19,1.12,6.79,6.79,0,0,0-2.42,2.46v14.66h-2.13Z" style="fill:#fff"/><path d="M441.35,157.18l-10.23,24.09q-1.56,3.67-5.07,3.68a7.24,7.24,0,0,1-2.09-.28l.37-1.93a3.06,3.06,0,0,0,.82.25,6.11,6.11,0,0,0,.9.08,2.79,2.79,0,0,0,1.72-.53,4.79,4.79,0,0,0,1.27-1.89l1.55-3.52-8.34-19.95h2.37l7.2,17.26,7.11-17.26Z" style="fill:#fff"/></g></g></svg>