<svg xmlns="http://www.w3.org/2000/svg" viewBox="18381 177 273.852 150"><defs><style>.a{fill:#fff;}</style></defs><g transform="translate(18381.172 177)"><g transform="translate(-0.173 3.005)"><path class="a" d="M234.282,56.2a3.468,3.468,0,1,1-3.582,3.467,3.659,3.659,0,0,1,3.582-3.467m2.658,3.582a2.714,2.714,0,0,0-2.658-2.773,2.644,2.644,0,0,0-2.658,2.773,2.714,2.714,0,0,0,2.658,2.773A2.876,2.876,0,0,0,236.94,59.782Zm-2.889.231h-.578v1.733h-.693V57.7h1.5c1.04,0,1.5.347,1.5,1.156a1.14,1.14,0,0,1-1.04,1.156l1.04,1.733h-.809Zm.116-.578c.462,0,.924,0,.924-.578,0-.462-.462-.578-.924-.578h-.809v1.156Z" transform="translate(36.102 5.741)"/><path class="a" d="M22.1,49.981c-1.156-.578-1.156-2.08-3.351-2.773a6.612,6.612,0,0,0-7.974,3.351C8.232,54.834,10.2,65.466,22.33,66.275c13.405.809,18.606-8.667,17.8-16.757-.347-4.276-2.658-8.2-10.632-10.4l-6.587-1.965A39.181,39.181,0,0,1,11.93,32.531C8.347,30.219,6.036,25.6,6.152,20.743c0-10.516,8.32-17.912,20.223-17.8a29.873,29.873,0,0,1,10.978,2.08,4.956,4.956,0,0,0,1.965.693A2.955,2.955,0,0,0,41.4,4.449l.809-1.04a1.819,1.819,0,0,1,1.5-.809c.924,0,1.387.693,1.387,1.965l-.116,19.3c0,1.849-.347,2.427-1.387,2.427-.924,0-1.156-.347-1.618-1.733C39.318,14.85,34,9.765,26.606,9.765c-6.125,0-11.094,3.814-11.094,8.667,0,4.507,2.2,7.049,11.9,9.707l6.356,1.849s12.481,2.889,15.37,13.752c1.965,7.049,1.618,18.028-7.049,24.961C27.762,80.142,10.543,73.9,5,67.777c-6.587-7.4-8.2-20.57,3.12-26.81a14.816,14.816,0,0,1,13.521-.231c2.658,1.271,3.929,4.16,3.351,7.4-.347,2.427-1.849,2.542-2.889,1.849" transform="translate(0.173 -2.6)"/><path class="a" d="M57.036,26.325V23.551c0-2.427-.809-3.351-3.236-3.351H46.289c-.809,0-2.658,0-2.658,1.849,0,1.04.578,1.618,1.733,2.542,2.542,2.08,2.889,2.773,2.889,5.663l-.116,22.419c0,2.889-.347,3.582-3,5.663-1.156.924-1.733,1.5-1.733,2.427,0,1.965,1.733,1.965,2.773,1.965l12.712.116c.809,0,2.658,0,2.658-1.849,0-1.04-.462-1.618-1.733-2.542-2.542-2.08-2.889-2.774-2.889-5.663l.116-12.25c0-7.743,3.236-12.134,8.9-12.134,4.854,0,7.049,2.889,7.049,8.9l-.116,15.6c0,2.773-.347,3.467-3,5.547-1.156.924-1.733,1.5-1.733,2.427,0,1.965,1.733,1.965,2.773,1.965l12.943.116c.809,0,2.658,0,2.658-1.849,0-1.04-.578-1.618-1.733-2.542-2.542-2.08-2.889-2.773-2.889-5.663L82,35.685c0-5.894-1.271-9.476-4.507-12.134A15.018,15.018,0,0,0,68.015,20.2c-4.622,0-7.627,1.271-11.441,5.085-.116.231-.347.347-.693.693l1.156.347" transform="translate(6.954 0.139)"/><path class="a" d="M201.536,10.273c0-2.311-1.04-2.773-3-2.773h-7.743c-.809,0-2.658,0-2.658,1.849,0,1.04.578,1.618,1.618,2.542,2.658,2.08,3,2.773,3,5.547l-.231,38.136c0,2.889-.347,3.582-3,5.547-1.156.924-1.618,1.5-1.618,2.427,0,1.965,1.618,1.965,2.658,1.965l12.712.116c1.04,0,2.658,0,2.658-1.849,0-.924-.462-1.5-1.618-2.542-2.658-2.08-3-2.773-3-5.778l.231-45.185" transform="translate(29.441 -1.837)"/><path class="a" d="M105.993,57.489c1.04,3.929,3.7,6.009,7.4,6.009a8.609,8.609,0,0,0,8.436-8.667,2.116,2.116,0,0,0-1.965-2.311,2.477,2.477,0,0,0-1.733,1.04l-.578.693a1.975,1.975,0,0,1-1.5.809c-.924,0-1.849-.231-1.849-3.236V50.093l.116-16.525c0-6.24-1.618-9.707-5.663-11.787a20.287,20.287,0,0,0-9.592-2.08c-9.014-.116-15.485,4.391-15.6,10.4,0,4.045,2.773,7.165,6.587,7.165,2.427,0,4.391-1.156,4.391-2.658a1.408,1.408,0,0,0-.578-1.271l-1.04-.693c-.347-.231-.462-.809-.462-1.5,0-2.08,2.658-3.7,6.125-3.7,3.929,0,6.125,1.849,6.125,4.969,0,3-1.156,4.045-8.783,5.547l-3.12.693C84.96,40.27,80.8,44.546,80.8,51.133c0,7.627,4.969,12.25,13.405,12.365,5.663,0,9.361-1.5,12.827-5.663l-1.04-.347m-8.32-1.618c-4.969.578-7.049-2.2-6.934-5.663.116-3.582,4.276-4.276,7.974-4.969,4.622-.809,6.587-2.2,6.587-2.2S106.224,54.947,97.672,55.871Z" transform="translate(12.774 0.061)"/><g transform="translate(132.519 20.223)"><path class="a" d="M140.039,20.1a16.473,16.473,0,0,0-11.9,4.738V23.451a2.451,2.451,0,0,0-2.773-2.773h-8.2c-.693,0-2.658,0-2.658,1.965,0,1.04.462,1.618,1.733,2.542,2.542,2.08,2.889,2.773,2.889,5.663l-.231,42.065c0,1.156-.231,4.391-1.5,5.663-.231.231-1.387.925-1.387,2.08a1.914,1.914,0,0,0,.578,1.5c1.156,1.271,2.658.809,4.507.809h.578c1.618,0,7.049,0,7.743.116a2.379,2.379,0,0,0,2.311-2.889c-.231-1.733-2.08-1.733-2.658-2.889a13.238,13.238,0,0,1-.924-5.316c-.116-2.889,0-9.361,0-12.481A15.147,15.147,0,0,0,139,63.667c10.747.116,18.606-9.245,18.721-22.188-.116-12.25-7.512-21.263-17.681-21.379m-2.08,35.478c-6.009,0-10.054-5.2-10.054-12.712,0-8.436,4.276-14.33,10.285-14.33,5.894,0,9.476,5.316,9.476,13.752C147.551,49.915,143.506,55.578,137.959,55.578Z" transform="translate(-114.5 -20.1)"/><path class="a" d="M176.839,20.2a16.473,16.473,0,0,0-11.9,4.738V23.551a2.451,2.451,0,0,0-2.773-2.773h-8.2c-.693,0-2.658,0-2.658,1.965,0,1.04.462,1.618,1.733,2.542,2.542,2.08,2.889,2.773,2.889,5.663l-.231,42.065c0,1.156-.116,4.391-1.5,5.663a2.734,2.734,0,0,0-1.387,2.08,1.914,1.914,0,0,0,.578,1.5c1.156,1.271,2.658.809,4.507.925h8.32a2.286,2.286,0,0,0,2.311-2.774c-.231-1.733-2.08-1.733-2.658-2.889-.809-1.5-.809-4.16-1.04-5.316-.116-2.889.116-9.361.116-12.481a15.147,15.147,0,0,0,10.863,4.16c10.747,0,18.606-9.245,18.721-22.188-.116-12.365-7.512-21.379-17.681-21.495m-2.08,35.478c-6.009,0-10.054-5.2-9.938-12.712,0-8.436,4.276-14.33,10.17-14.33s9.476,5.316,9.476,13.752C184.351,50.015,180.306,55.678,174.759,55.678Z" transform="translate(-108.773 -20.084)"/></g><path class="a" d="M211.961,43.981l24.384.116c2.773,0,3.236-1.271,3.236-3.929,0-11.556-6.7-19.068-17.334-19.068-11.325-.116-19.53,9.476-19.646,22.535-.116,11.787,7.512,19.646,19.877,20.455a19.425,19.425,0,0,0,14.1-4.507,9.507,9.507,0,0,0,3.351-7.049,5.829,5.829,0,0,0-6.009-6.009,5.2,5.2,0,0,0-3.467,1.156,1.914,1.914,0,0,0-.578,1.5,1.239,1.239,0,0,0,.231.693v.116l.116.116.116.116.578.462a2.192,2.192,0,0,1,.462,1.387c0,2.773-3.351,4.738-7.858,4.738-6.7,0-10.863-4.622-10.863-12.018V43.173l-.693.809m10.4-15.37c7.743,0,7.743,8.436,7.743,8.436l-16.294-.116S214.619,28.5,222.361,28.612Z" transform="translate(31.729 0.279)"/></g><g transform="translate(50.874 0)"><path class="a" d="M52.2.562C52.436.1,52.552.1,53.129.1c.462,0,.693,0,.809.347l5.547,12.712c.578,1.387.809,1.387,1.5,1.618.462.116.578.116.578,1.04,0,.347-.116.347-.347.347a22.107,22.107,0,0,0-2.889-.231c-1.5,0-2.774.231-3.12.231a.306.306,0,0,1-.347-.347v-.693c0-.231,0-.347.462-.462.578-.116.693-.231.693-.462a9.089,9.089,0,0,0-.462-1.387l-.924-2.2H49.316l-.924,2.311a4.144,4.144,0,0,0-.462,1.271c0,.231.347.462.924.462.462,0,.462.231.462.809,0,.462-.116.578-.347.578-.347,0-1.387-.231-2.311-.231s-2.08.231-2.311.231A.306.306,0,0,1,44,15.7c0-.924.116-1.04.462-1.04.809-.116,1.04-.231,1.733-1.5Zm0,3.814L50.24,9.229h4.045Z" transform="translate(-44 0.016)"/><path class="a" d="M61.649,3.089c0-1.156-.347-1.387-.809-1.5-.809-.116-.924-.231-.924-.462V.547c0-.347.116-.347.347-.347s1.618.231,3.12.231S66.271.2,66.618.2a.306.306,0,0,1,.347.347v.578c0,.231-.116.347-.924.462-.578.116-1.04.347-1.04,1.5v9.592c0,1.156.347,1.849,1.733,1.849h1.156c1.849,0,1.965,0,2.658-1.733.116-.347.231-.347.809-.347.347,0,.925.116.925.347,0,.347-.693,2.542-.809,3.351-1.965-.116-4.622-.231-6.818-.231-2.658,0-4.045.231-4.507.231A.306.306,0,0,1,59.8,15.8v-.693c0-.231.116-.231,1.04-.347.578-.116.924-.347.924-1.5V3.089Z" transform="translate(-41.541 0.031)"/><path class="a" d="M72.949,3.089c0-1.156-.347-1.387-.809-1.5-.809-.116-.924-.231-.924-.462V.547c0-.347.116-.347.347-.347s1.618.231,3.12.231S77.571.2,77.918.2a.306.306,0,0,1,.347.347v.578c0,.231-.116.347-.924.462-.578.116-1.04.347-1.04,1.5v9.592c0,1.156.347,1.849,1.733,1.849h1.156c1.849,0,1.965,0,2.658-1.733.116-.347.231-.347.809-.347.347,0,.925.116.925.347,0,.347-.693,2.542-.809,3.351-1.965-.116-4.622-.231-6.818-.231-2.658,0-4.045.231-4.507.231A.306.306,0,0,1,71.1,15.8v-.693c0-.231.116-.231,1.04-.347.578-.116.924-.347.924-1.5V3.089Z" transform="translate(-39.783 0.031)"/><path class="a" d="M89.549.662c0-.347.231-.462.693-.462.578,0,1.156,0,1.387.231l9.938,11.21V4.014c0-1.849-.347-2.311-1.271-2.427-.693-.116-.809-.116-.809-.462V.431c0-.231.231-.231.347-.231a24.073,24.073,0,0,0,2.542.231A24.26,24.26,0,0,0,104.8.2a.306.306,0,0,1,.347.347v.578c0,.231-.116.462-.693.462-.924.116-1.156.231-1.156,1.618V15.685c0,.231-.116.462-.809.462-.924,0-1.156,0-1.733-.578L91.282,4.938v7.4c0,1.733.231,2.311,1.156,2.427.809.116.924.116.924.809v.347c0,.231-.231.231-.347.231a24.073,24.073,0,0,0-2.542-.231,24.259,24.259,0,0,0-2.427.231A.306.306,0,0,1,87.7,15.8v-.578c0-.231.116-.347.809-.462.578-.116,1.04-.347,1.04-1.618V.662Z" transform="translate(-37.199 0.031)"/><path class="a" d="M110,.562c.231-.462.347-.462.924-.462.462,0,.693,0,.809.347l5.547,12.712c.578,1.387.809,1.387,1.5,1.618.462.116.578.116.578,1.04,0,.347-.116.347-.347.347a22.107,22.107,0,0,0-2.889-.231c-1.5,0-2.774.231-3.12.231a.306.306,0,0,1-.347-.347v-.693c0-.231,0-.347.462-.462.578-.116.693-.231.693-.462a9.088,9.088,0,0,0-.462-1.387l-.924-2.2h-5.316l-.925,2.311a4.144,4.144,0,0,0-.462,1.271c0,.231.347.462.925.462.462,0,.462.231.462.809,0,.462-.116.578-.347.578-.347,0-1.387-.231-2.311-.231s-2.08.231-2.311.231a.306.306,0,0,1-.347-.347c0-.924.116-1.04.462-1.04.809-.116,1.04-.231,1.733-1.5Zm.116,3.814-1.965,4.854H112.2Z" transform="translate(-35.005 0.016)"/><path class="a" d="M121.771,2.2h-3.12a1.354,1.354,0,0,0-1.387.693c-.231.462-.347.693-1.271.693-.578,0-.693-.116-.693-.231,0-.231.116-.462.116-.693l.578-2.2c.116-.347.231-.462.809-.462s.578.462,1.271.462h10.4a2.731,2.731,0,0,0,1.5-.231A1.105,1.105,0,0,1,130.785,0c.462,0,.693.116.693.231s-.578,2.889-.693,3.12-.231.231-.693.231-.578-.116-.693-.578c-.231-.809-.578-.924-1.5-.924h-2.889V13.174c0,1.156.462,1.387,1.04,1.5.809.116.925.231.925.462v.578c0,.347-.116.347-.347.347s-1.733-.231-3.236-.231-3,.231-3.236.231a.306.306,0,0,1-.347-.347v-.578c0-.231.116-.231.924-.462.693-.116,1.04-.347,1.04-1.5V2.2Z" transform="translate(-32.904 0)"/><path class="a" d="M135.738,4.376a31.063,31.063,0,0,0,.462,6.587c.462,2.08,1.387,3.814,3.7,3.814a4.012,4.012,0,0,0,3.467-2.542c.693-1.733.693-4.622.693-6.356V3.451c0-1.5-.231-1.733-1.387-1.849a.423.423,0,0,1-.462-.462V.562a.306.306,0,0,1,.347-.347c.693,0,1.5.231,2.542.231A20.851,20.851,0,0,0,147.41.216c.116,0,.231,0,.347.231v.924c0,.231-.231.231-.578.231-.809.116-1.156.462-1.156,1.271l-.116,3.236a22.145,22.145,0,0,1-1.04,6.818,5.556,5.556,0,0,1-5.316,3.351c-2.2,0-4.276-.578-5.431-2.542-.924-1.5-1.156-3.929-1.271-5.663l-.231-5.085c0-1.156-.231-1.271-1.04-1.5-.462-.116-.578-.231-.578-.462,0-.578.116-.924.347-.924.462,0,1.618.231,3.351.231,1.156,0,2.773-.231,3.12-.231a.369.369,0,0,1,.347.347V1.14a.306.306,0,0,1-.347.347c-1.618.231-1.733.462-1.733,1.618V4.376Z" transform="translate(-30.461 0.016)"/><path class="a" d="M148.849,3.089c0-1.156-.347-1.387-.578-1.387l-.693-.116C147,1.356,147,1.24,147,1.009V.547c0-.347.231-.347.347-.347.231,0,.693.116,1.156.116a10.574,10.574,0,0,0,1.965.116A8.746,8.746,0,0,0,152.2.316c.578,0,1.271-.116,1.849-.116,2.889,0,5.2.693,5.2,3.929a4.663,4.663,0,0,1-2.773,4.045l4.622,5.894c1.156,1.5,1.733,1.387,1.733,1.733,0,.462-.693.578-1.387.578-2.658,0-4.16-1.618-5.547-3.582l-2.427-3.582H152.2v4.045c0,1.156.347,1.387.809,1.5.809.116.925.231.925.462V15.8c0,.347-.116.347-.347.347s-1.618-.231-3.12-.231-2.889.231-3.12.231A.306.306,0,0,1,147,15.8v-.578c0-.231.116-.231.924-.462.578-.116.809-.347.809-1.5V3.089Zm3.236,4.622h.809a2.851,2.851,0,0,0,3-3,2.618,2.618,0,0,0-2.889-2.889c-.809,0-1.04.116-1.04.578V7.712Z" transform="translate(-27.971 0.031)"/><path class="a" d="M167.2.562c.231-.462.347-.462.925-.462.462,0,.693,0,.809.347l5.547,12.712c.578,1.387.809,1.387,1.5,1.618.462.116.578.116.578,1.04,0,.347-.116.347-.347.347a22.106,22.106,0,0,0-2.889-.231c-1.5,0-2.773.231-3.12.231a.306.306,0,0,1-.347-.347v-.693c0-.231,0-.347.462-.462.578-.116.693-.231.693-.462a9.09,9.09,0,0,0-.462-1.387l-.925-2.2h-5.316l-.924,2.311a4.143,4.143,0,0,0-.462,1.271c0,.231.347.462.924.462.462,0,.462.231.462.809,0,.462-.116.578-.347.578-.347,0-1.387-.231-2.311-.231s-2.08.231-2.311.231A.306.306,0,0,1,159,15.7c0-.924.116-1.04.462-1.04.809-.116,1.156-.231,1.733-1.5Zm.116,3.814-1.965,4.854H169.4Z" transform="translate(-26.103 0.016)"/><path class="a" d="M176.749,3.089c0-1.156-.347-1.387-.809-1.5-.809-.116-.924-.231-.924-.462V.547c0-.347.116-.347.347-.347s1.618.231,3.12.231S181.371.2,181.718.2a.306.306,0,0,1,.347.347v.578c0,.231-.116.347-.924.462-.578.116-1.04.347-1.04,1.5v9.592c0,1.156.347,1.849,1.733,1.849h1.156c1.849,0,1.965,0,2.658-1.733.116-.347.231-.347.809-.347.347,0,.925.116.925.347,0,.347-.693,2.542-.809,3.351-1.965-.116-4.622-.231-6.818-.231-2.658,0-4.045.231-4.507.231a.306.306,0,0,1-.347-.347v-.693c0-.231.116-.231,1.04-.347.578-.116.924-.347.924-1.5V3.089Z" transform="translate(-23.629 0.031)"/></g><g transform="translate(59.195 137.866)"><path class="a" d="M56.516,130.994c-1.156,0-2.08-.231-2.773-.231s-1.965.231-2.311.231a.249.249,0,0,1-.231-.231V130.3c0-.116.116-.116.693-.231.347-.116.578-.231.578-1.04V121.98c0-.809-.231-.925-.347-1.04l-.462-.116c-.347-.116-.347-.116-.347-.347v-.347c0-.231.116-.231.231-.231a2.6,2.6,0,0,1,.809.116,4.762,4.762,0,0,0,1.387.116h2.542c1.733,0,3.236.693,3.236,2.427a2.79,2.79,0,0,1-2.658,2.774h0c1.618.116,3.467.924,3.467,2.773C60.445,129.607,59.174,130.994,56.516,130.994Zm-1.618-6.24c1.387,0,2.427-.693,2.427-1.965a1.729,1.729,0,0,0-1.965-1.849c-.347,0-.462.116-.462.347v3.467Zm0,3.929c0,.693.116,1.271,1.156,1.271a1.911,1.911,0,0,0,1.965-2.08,2.13,2.13,0,0,0-2.427-2.2H54.9v3Z" transform="translate(-51.2 -119.207)"/><path class="a" d="M62.28,126.914a2.154,2.154,0,0,0,2.311,2.2c1.271,0,1.965-.924,2.2-.924.116,0,.347.347.347.462a4.674,4.674,0,0,1-3.351,1.849,3.307,3.307,0,0,1-3.582-3.467,3.871,3.871,0,0,1,3.814-3.929,2.872,2.872,0,0,1,3.12,2.658c0,.116-.116.116-.347.116Zm2.2-1.156c.462-.116.578-.116.578-.347a1.206,1.206,0,0,0-1.271-1.271c-1.156,0-1.5,1.387-1.618,2.08Z" transform="translate(-49.799 -118.709)"/><path class="a" d="M67.416,130.249a10.67,10.67,0,0,1-.116-1.733c0-.116,0-.231.347-.231.578,0,.693,0,.693.231l.116.462c.116.462.925.578,1.5.578.693,0,1.387-.347,1.387-.924,0-.809-.924-.924-1.965-1.156s-2.08-.693-2.08-2.08c0-1.849,1.849-2.2,3.351-2.2.693,0,1.733.116,1.849.116s.116.116.116.231c0,.462.116,1.04.116,1.5,0,.231-.116.231-.347.231h-.462c-.116,0-.231,0-.231-.231l-.116-.578c-.116-.347-.462-.347-1.156-.347s-1.271.347-1.271.809c0,.578.462.809,1.618,1.04,1.271.231,2.311.693,2.311,2.2,0,1.618-1.618,2.427-3.351,2.427A16.867,16.867,0,0,1,67.416,130.249Z" transform="translate(-48.694 -118.693)"/><path class="a" d="M74.009,125.082c0-.116,0-.231-.116-.231h-.462c-.231,0-.231,0-.231-.231v-.231c0-.116,0-.231.347-.347.809-.231,1.271-.578,1.5-2.08.116-.347.116-.462.347-.462h.578c.116,0,.231,0,.231.231v1.733c0,.116,0,.231.231.231h1.849c.231,0,.231.116.231.231v.578a.249.249,0,0,1-.231.231H76.32c-.116,0-.231,0-.231.231v3.12c0,.809.347,1.271,1.04,1.271.578,0,.924-.462,1.156-.462.116,0,.347.347.347.462a3.214,3.214,0,0,1-2.427,1.156,1.852,1.852,0,0,1-2.08-1.965v-3.467Z" transform="translate(-47.776 -118.958)"/><path class="a" d="M85.436,131.125a28.34,28.34,0,0,1-3.12-.231c0-.809-.116-1.5-.116-2.311,0-.347.231-.347.578-.347.462,0,.578.116.693.693.231.924.693,1.156,1.849,1.156s2.08-.462,2.08-1.733c0-2.311-4.969-1.849-4.969-5.2,0-2.311,1.733-3.351,3.929-3.351.924,0,2.311.231,2.773.231,0,.693.116,1.849.116,2.2,0,.231-.116.347-.578.347s-.462,0-.693-.809-.924-.809-1.387-.809a1.638,1.638,0,0,0-1.849,1.618c0,2.2,4.969,1.849,4.969,5.2C89.48,129.969,87.516,131.125,85.436,131.125Z" transform="translate(-46.376 -119.222)"/><path class="a" d="M90.309,125.082c0-.116,0-.231-.116-.231h-.462c-.231,0-.231,0-.231-.231v-.231c0-.116,0-.231.347-.347.809-.231,1.271-.578,1.5-2.08.116-.347.116-.462.347-.462h.578c.116,0,.231,0,.231.231v1.733c0,.116,0,.231.231.231h1.849c.231,0,.231.116.231.231v.578a.249.249,0,0,1-.231.231H92.62c-.116,0-.231,0-.231.231v3.12c0,.809.347,1.271,1.04,1.271.578,0,.925-.462,1.156-.462.116,0,.347.347.347.462a3.214,3.214,0,0,1-2.427,1.156,1.852,1.852,0,0,1-2.08-1.965v-3.467Z" transform="translate(-45.24 -118.958)"/><path class="a" d="M95.225,125.427c0-.231-.116-.347-.693-.347-.116,0-.231,0-.231-.231v-.462c0-.116,0-.231.231-.231l1.965-.809a4.544,4.544,0,0,1,.693-.231c.116,0,.347.462.347.578,0,.231-.231.116-.231.809v3c0,1.156.347,1.5,1.271,1.5.693,0,1.5-.462,1.5-.924v-2.773c0-.231-.116-.347-.693-.347-.116,0-.231,0-.231-.231v-.347c0-.116,0-.347.116-.347l2.08-.693a4.827,4.827,0,0,1,1.04-.347c.116,0,.347.462.347.693s-.462.231-.462.925v3.814c0,.231.116.231.116.231.116,0,.462-.231.578-.231s.347.578.347.693-.116.116-.116.231l-2.311,1.04a1.952,1.952,0,0,1-.578.231c-.116,0-.347-.462-.347-.578s.231-.231.231-.693v-.231h0a3.976,3.976,0,0,1-2.658,1.387c-1.618,0-2.2-1.156-2.2-2.658v-2.427Z" transform="translate(-44.493 -118.724)"/><path class="a" d="M103.456,125.425c0-.231-.116-.231-.462-.231s-.347-.116-.347-.231v-.231c0-.347.578-.347.693-.578a15.02,15.02,0,0,0,.231-1.965,3.165,3.165,0,0,1,3.236-2.889c.693,0,1.733.462,1.733,1.271a.746.746,0,0,1-.693.693c-.924,0-1.04-.924-1.618-.924-.462,0-.693.347-.693,1.5v1.965c0,.116,0,.231.116.231h1.965a.249.249,0,0,1,.231.231c0,.578-.116.809-.347.809h-1.965v3.929c0,.693.116.924.925,1.04.693.116.693.116.693.462v.347c0,.116-.116.231-.347.231a20.809,20.809,0,0,0-2.427-.231,15.305,15.305,0,0,0-1.849.231.249.249,0,0,1-.231-.231v-.462c0-.231.231-.231.578-.347s.462-.231.462-.693v-3.929Z" transform="translate(-43.248 -119.3)"/><path class="a" d="M108.156,125.425c0-.231-.116-.231-.462-.231s-.347-.116-.347-.231v-.231c0-.347.578-.347.693-.578a15.023,15.023,0,0,0,.231-1.965,3.165,3.165,0,0,1,3.236-2.889c.693,0,1.733.462,1.733,1.271a.746.746,0,0,1-.693.693c-.924,0-1.04-.924-1.618-.924-.462,0-.693.347-.693,1.5v1.965c0,.116,0,.231.116.231h1.965a.249.249,0,0,1,.231.231c0,.578-.116.809-.347.809h-1.965v3.929c0,.693.116.924.924,1.04.693.116.693.116.693.462v.347c0,.116-.116.231-.347.231a20.809,20.809,0,0,0-2.427-.231,15.305,15.305,0,0,0-1.849.231.249.249,0,0,1-.231-.231v-.462c0-.231.231-.231.578-.347s.462-.231.462-.693v-3.929Z" transform="translate(-42.516 -119.3)"/><path class="a" d="M115.9,126.8c0-2.08,1.5-3.7,4.045-3.7s4.045,1.618,4.045,3.7-1.387,3.7-4.045,3.7S115.9,128.878,115.9,126.8Zm5.778,0c0-1.5-.578-2.658-1.849-2.658s-1.849,1.156-1.849,2.658.578,2.658,1.849,2.658C121.1,129.571,121.678,128.3,121.678,126.8Z" transform="translate(-41.131 -118.709)"/><path class="a" d="M124.756,125.411c0-.231-.116-.347-.693-.347-.116,0-.231,0-.231-.231v-.462c0-.116,0-.231.231-.231l1.965-.809a4.544,4.544,0,0,1,.693-.231c.116,0,.347.462.347.578,0,.231-.231.116-.231.809v.116h0a3.754,3.754,0,0,1,2.542-1.387c1.618,0,2.311,1.156,2.311,2.889v2.773c0,.462.116.693.462.693.347.116.578.116.578.347v.462c0,.116,0,.231-.231.231a15.3,15.3,0,0,0-1.849-.231,15.306,15.306,0,0,0-1.849.231.249.249,0,0,1-.231-.231v-.462c0-.231.231-.231.578-.347s.462-.231.462-.693v-2.311c0-1.387-.462-1.849-1.387-1.849-.809,0-1.5.578-1.5.809v3.351c0,.462.116.693.462.693.347.116.578.116.578.347v.462c0,.116,0,.231-.231.231a15.3,15.3,0,0,0-1.849-.231,15.3,15.3,0,0,0-1.849.231.249.249,0,0,1-.231-.231v-.462c0-.231.231-.231.578-.347s.462-.231.462-.693v-3.467Z" transform="translate(-39.933 -118.709)"/><path class="a" d="M137.171,121.88c0-.809-.231-.924-.347-1.04l-.462-.116c-.347-.116-.347-.116-.347-.347v-.347c0-.231.116-.231.231-.231a3.718,3.718,0,0,1,.924.116,11.977,11.977,0,0,0,2.311.116h3.582c.116,0,.116,0,.116.116l.116,1.387v.578c0,.231-.116.231-.578.231-.578,0-.578-.231-.578-.693-.116-.462-.462-.693-1.156-.693h-1.5v3.7h2.08c.347,0,.693,0,.809-.462.116-.347.116-.462.578-.462s.578.116.578.462V126.5c0,.347-.116.462-.578.462s-.462-.116-.578-.462c-.116-.462-.462-.462-.809-.462h-2.08v2.773c0,1.04.347,1.271,2.2,1.271,1.156,0,1.271-.462,1.5-1.156.116-.347.231-.347.693-.347.347,0,.578,0,.578.231s-.462,1.849-.462,2.311c-1.387-.116-2.773-.231-4.391-.231s-3,.231-3.467.231c-.116,0-.231,0-.231-.231v-.462c0-.116.116-.231.693-.231.347-.116.578-.231.578-1.04v-7.28Z" transform="translate(-38.019 -119.222)"/><path class="a" d="M150.587,127.969c0,.693.116,1.04.693,1.271.116.116.231.116.231.231a1.559,1.559,0,0,1-1.387,1.04c-.578,0-1.156-.693-1.387-1.156a3.12,3.12,0,0,1-2.542,1.156,2.071,2.071,0,0,1-2.2-1.965c0-2.08,3-2.427,4.507-2.658,0-1.04-.116-1.733-1.5-1.733-.347,0-.693,0-.809.231l-.231.462a.549.549,0,0,1-.578.347c-.347,0-.578-.116-.578-.231a7.6,7.6,0,0,1,.462-1.733l.347-.116a6.59,6.59,0,0,1,1.5-.116c2.08,0,3.467.231,3.467,2.311v2.658Zm-2.08-.924a.113.113,0,0,0-.116-.116c-.116,0-2.2.116-2.2,1.5,0,.693.347,1.156,1.04,1.156a1.388,1.388,0,0,0,1.387-1.271v-1.271Z" transform="translate(-36.758 -118.724)"/><path class="a" d="M152.171,125.4c0-.231-.116-.347-.693-.347-.231,0-.231-.116-.231-.231v-.347c0-.116.116-.231.231-.347l1.849-.693a2.4,2.4,0,0,1,.693-.231c.116,0,.116.116.116.231v1.618h0a2.783,2.783,0,0,1,2.427-1.733c.347,0,.578,0,.578.347v1.156c0,.231-.116.231-.462.231h-.347c-1.618,0-2.311.578-2.311,1.5v2.2c0,.693.116.924.809,1.04s.693.116.693.462v.347c0,.116-.116.231-.347.231a21.172,21.172,0,0,0-2.2-.231,15.3,15.3,0,0,0-1.849.231.249.249,0,0,1-.231-.231v-.462c0-.231.231-.231.578-.347s.462-.231.462-.693v-3.7Z" transform="translate(-35.684 -118.693)"/><path class="a" d="M157.609,125.082c0-.116,0-.231-.116-.231h-.462c-.231,0-.231,0-.231-.231v-.231c0-.116,0-.231.347-.347.809-.231,1.271-.578,1.5-2.08.116-.347.116-.462.347-.462h.578c.116,0,.231,0,.231.231v1.733c0,.116,0,.231.231.231h1.849c.231,0,.231.116.231.231v.578a.249.249,0,0,1-.231.231H159.92c-.116,0-.231,0-.231.231v3.12c0,.809.347,1.271,1.04,1.271.578,0,.925-.462,1.156-.462.116,0,.347.347.347.462a3.214,3.214,0,0,1-2.427,1.156,1.852,1.852,0,0,1-2.08-1.965v-3.467Z" transform="translate(-34.766 -118.958)"/><path class="a" d="M162.656,122.042c0-.578-.116-.693-.231-.693h-.347c-.347,0-.347-.116-.347-.347,0-.347,0-.462.231-.462l2.311-.809c.347-.116.462-.231.578-.231s.347.462.347.693c0,.116-.462.116-.462.693v4.391h0a3.754,3.754,0,0,1,2.542-1.387c1.618,0,2.311,1.156,2.311,2.889v2.773c0,.462.116.693.462.693.347.116.578.116.578.347v.462c0,.116,0,.231-.231.231a15.3,15.3,0,0,0-1.849-.231,15.3,15.3,0,0,0-1.849.231.249.249,0,0,1-.231-.231v-.462c0-.231.231-.231.578-.347s.462-.231.462-.693v-2.311c0-1.387-.462-1.849-1.387-1.849-.809,0-1.5.578-1.5.809v3.351c0,.462.116.693.462.693.347.116.578.116.578.347v.462c0,.116,0,.231-.231.231a15.3,15.3,0,0,0-1.849-.231,15.3,15.3,0,0,0-1.849.231.249.249,0,0,1-.231-.231v-.462c0-.231.231-.231.578-.347s.462-.231.462-.693v-7.512Z" transform="translate(-34.035 -119.269)"/><path class="a" d="M171.756,127.5a1.158,1.158,0,0,1,1.156,1.156,1.092,1.092,0,0,1-1.156,1.156,1.158,1.158,0,0,1-1.156-1.156A1.092,1.092,0,0,1,171.756,127.5Z" transform="translate(-32.618 -118.024)"/></g><g transform="translate(79.303 122.149)"><path class="a" d="M70.911,106.878c.116-.462.231-.578.693-.578s.578,0,.809.347l4.16,7.627,3.814-7.512c.231-.347.231-.347.809-.347.462,0,.693,0,.693.347L82.7,113a23.383,23.383,0,0,0,.462,3c.116.347.231.462.809.578.231.116.347.116.347.347,0,.578-.116.578-.231.578a17.846,17.846,0,0,0-2.311-.231,15.3,15.3,0,0,0-1.849.231c-.231,0-.347-.231-.347-.462,0-.347.116-.462.347-.462.347-.116.809-.116.809-.578a7.8,7.8,0,0,0-.231-1.618l-.462-4.16h0l-3.351,6.7c-.116.347-.347.347-.693.347-.462,0-.578,0-.809-.347L71.6,110.46h0l-.231,2.889c-.116.924-.231,2.2-.231,2.773a.764.764,0,0,0,.809.693c.462.116.462.116.462.347,0,.462,0,.578-.231.578a12.56,12.56,0,0,0-1.733-.231,13.032,13.032,0,0,0-1.618.231c-.116,0-.231-.116-.231-.578,0-.347.116-.462.347-.462.462-.116.693-.116.809-.925Z" transform="translate(-68.6 -105.607)"/><path class="a" d="M89.087,114.369c0,.693.116,1.04.693,1.271.116.116.231.116.231.231a1.559,1.559,0,0,1-1.387,1.04c-.578,0-1.156-.693-1.387-1.156a3.119,3.119,0,0,1-2.542,1.156,2.071,2.071,0,0,1-2.2-1.965c0-2.08,3-2.427,4.507-2.658,0-1.04-.116-1.733-1.5-1.733-.347,0-.693,0-.809.231l-.231.462a.549.549,0,0,1-.578.347c-.347,0-.578-.116-.578-.231a7.6,7.6,0,0,1,.462-1.733l.347-.116a6.589,6.589,0,0,1,1.5-.116c2.08,0,3.467.231,3.467,2.311v2.658Zm-2.08-.924a.113.113,0,0,0-.116-.116c-.116,0-2.2.116-2.2,1.5,0,.693.347,1.156,1.04,1.156a1.388,1.388,0,0,0,1.387-1.271v-1.271Z" transform="translate(-66.437 -105.124)"/><path class="a" d="M97.312,115.292c0,.231.116.347.231.347a1.694,1.694,0,0,0,.462-.231c.231,0,.347.462.347.578s-.116.116-.347.231l-2.311,1.04a.571.571,0,0,1-.347.116c-.116,0-.347-.347-.347-.462s.231-.231.231-.693v-.231a4.01,4.01,0,0,1-2.658,1.387c-1.849,0-2.774-1.618-2.774-3.351,0-1.965,1.271-4.045,3.467-4.045a2.44,2.44,0,0,1,1.849.693h0v-2.427c0-.578-.116-.693-.231-.693h-.347c-.347,0-.347-.116-.347-.347,0-.347,0-.462.231-.462l2.311-.809c.347-.116.462-.231.578-.231s.347.462.347.693c0,.116-.462.116-.462.693v8.2Zm-1.965-3.236c0-.347-.693-.924-1.271-.924-1.387,0-1.965,1.5-1.965,2.658s.462,2.2,1.733,2.2c.578,0,1.5-.578,1.5-.924v-3Z" transform="translate(-65.301 -105.7)"/><path class="a" d="M100.08,113.314a2.154,2.154,0,0,0,2.311,2.2c1.271,0,1.965-.924,2.2-.924.116,0,.347.347.347.462a4.674,4.674,0,0,1-3.351,1.849A3.307,3.307,0,0,1,98,113.429a3.871,3.871,0,0,1,3.814-3.929,2.871,2.871,0,0,1,3.12,2.658c0,.116-.116.116-.347.116Zm2.08-1.156c.462-.116.578-.116.578-.347a1.206,1.206,0,0,0-1.271-1.271c-1.156,0-1.5,1.387-1.618,2.08Z" transform="translate(-64.025 -105.109)"/><path class="a" d="M109.756,111.925c0-.231-.116-.231-.462-.231s-.347-.116-.347-.231v-.231c0-.347.578-.347.693-.578a15.02,15.02,0,0,0,.231-1.965,3.165,3.165,0,0,1,3.236-2.889c.693,0,1.733.462,1.733,1.271a.746.746,0,0,1-.693.693c-.924,0-1.04-.925-1.618-.925-.462,0-.693.347-.693,1.5v1.965c0,.116,0,.231.116.231h1.965a.249.249,0,0,1,.231.231c0,.578-.116.809-.347.809h-1.965v3.929c0,.693.116.924.924,1.04.693.116.693.116.693.462v.347c0,.116-.116.231-.347.231a20.808,20.808,0,0,0-2.427-.231,15.3,15.3,0,0,0-1.849.231.249.249,0,0,1-.231-.231v-.462c0-.231.231-.231.578-.347s.462-.231.462-.693v-3.929Z" transform="translate(-62.375 -105.684)"/><path class="a" d="M114.371,111.8c0-.231-.116-.347-.693-.347-.231,0-.231-.116-.231-.231v-.347c0-.116.116-.231.231-.347l1.849-.693a2.4,2.4,0,0,1,.693-.231c.116,0,.116.116.116.231v1.618h0a2.783,2.783,0,0,1,2.427-1.733c.347,0,.578,0,.578.347v1.156c0,.231-.116.231-.462.231h-.347c-1.618,0-2.311.578-2.311,1.5v2.2c0,.693.116.925.809,1.04s.693.116.693.462V117c0,.116-.116.231-.347.231a21.172,21.172,0,0,0-2.2-.231,15.3,15.3,0,0,0-1.849.231A.249.249,0,0,1,113.1,117v-.462c0-.231.231-.231.578-.347s.462-.231.462-.693v-3.7Z" transform="translate(-61.675 -105.093)"/><path class="a" d="M119.2,113.3c0-2.08,1.5-3.7,4.045-3.7s4.045,1.618,4.045,3.7-1.387,3.7-4.045,3.7C120.587,116.88,119.2,115.378,119.2,113.3Zm5.778,0c0-1.5-.578-2.658-1.849-2.658s-1.849,1.156-1.849,2.658.578,2.658,1.849,2.658S124.978,114.8,124.978,113.3Z" transform="translate(-60.725 -105.093)"/><path class="a" d="M137.563,112.982c0-1.387-.462-1.849-1.387-1.849-.578,0-1.387.462-1.387.924v3.236c0,.462.116.693.462.693.347.116.578.116.578.347v.462c0,.116,0,.231-.231.231a15.3,15.3,0,0,0-1.849-.231,15.3,15.3,0,0,0-1.849.231.249.249,0,0,1-.231-.231v-.462c0-.231.231-.231.578-.347s.462-.231.462-.693v-2.311c0-1.387-.462-1.849-1.387-1.849-.809,0-1.5.578-1.5.809v3.351c0,.462.116.693.462.693.347.116.578.116.578.347v.462c0,.116,0,.231-.231.231a15.3,15.3,0,0,0-1.849-.231,15.3,15.3,0,0,0-1.849.231.249.249,0,0,1-.231-.231v-.462c0-.231.231-.231.578-.347s.462-.231.462-.693v-3.467c0-.231-.116-.347-.693-.347-.116,0-.231,0-.231-.231v-.462c0-.116,0-.231.231-.347l1.965-.809a4.545,4.545,0,0,1,.693-.231c.116,0,.347.462.347.578,0,.231-.231.116-.231.809v.116h0a3.754,3.754,0,0,1,2.542-1.387,2.221,2.221,0,0,1,2.08,1.5,3.9,3.9,0,0,1,2.542-1.5c1.733,0,2.427,1.156,2.427,3.236v2.427c0,.462.116.693.462.693.347.116.578.116.578.347v.462c0,.116,0,.231-.231.231a15.3,15.3,0,0,0-1.849-.231,15.306,15.306,0,0,0-1.849.231.249.249,0,0,1-.231-.231v-.462c0-.231.231-.231.578-.347s.462-.231.462-.693v-2.2Z" transform="translate(-59.558 -105.124)"/><path class="a" d="M144.009,111.482c0-.116,0-.231-.116-.231h-.462c-.231,0-.231,0-.231-.231v-.231c0-.116,0-.231.347-.347.809-.231,1.271-.578,1.5-2.08.116-.347.116-.462.347-.462h.578c.116,0,.231,0,.231.231v1.733c0,.116,0,.231.231.231h1.849c.231,0,.231.116.231.231v.578a.249.249,0,0,1-.231.231H146.32c-.116,0-.231,0-.231.231v3.12c0,.809.347,1.271,1.04,1.271.578,0,.924-.462,1.156-.462.116,0,.347.347.347.462a3.214,3.214,0,0,1-2.427,1.156,1.852,1.852,0,0,1-2.08-1.965v-3.467Z" transform="translate(-56.99 -105.358)"/><path class="a" d="M149.056,108.442c0-.578-.116-.693-.231-.693h-.347c-.347,0-.347-.116-.347-.347,0-.347,0-.462.231-.462l2.311-.809c.347-.116.462-.231.578-.231s.347.462.347.693c0,.116-.462.116-.462.693v4.391h0a3.754,3.754,0,0,1,2.542-1.387c1.618,0,2.311,1.156,2.311,2.889v2.773c0,.462.116.693.462.693.347.116.578.116.578.347v.462c0,.116,0,.231-.231.231a15.3,15.3,0,0,0-1.849-.231,15.3,15.3,0,0,0-1.849.231.249.249,0,0,1-.231-.231v-.462c0-.231.231-.231.578-.347s.462-.231.462-.693v-2.311c0-1.387-.462-1.849-1.387-1.849-.809,0-1.5.578-1.5.809v3.351c0,.462.116.693.462.693.347.116.578.116.578.347v.462c0,.116,0,.231-.231.231a15.3,15.3,0,0,0-1.849-.231,15.3,15.3,0,0,0-1.849.231.249.249,0,0,1-.231-.231v-.462c0-.231.231-.231.578-.347s.462-.231.462-.693v-7.512Z" transform="translate(-56.259 -105.669)"/><path class="a" d="M158.68,113.314a2.154,2.154,0,0,0,2.311,2.2c1.271,0,1.965-.924,2.2-.924.116,0,.347.347.347.462a4.674,4.674,0,0,1-3.351,1.849,3.307,3.307,0,0,1-3.582-3.467,3.871,3.871,0,0,1,3.814-3.929,2.871,2.871,0,0,1,3.12,2.658c0,.116-.116.116-.347.116Zm2.2-1.156c.462-.116.578-.116.578-.347a1.206,1.206,0,0,0-1.271-1.271c-1.156,0-1.5,1.387-1.618,2.08Z" transform="translate(-54.905 -105.109)"/></g><g transform="translate(201.452 139.368)"><path class="a" d="M178.345,120.6a3.883,3.883,0,0,1,4.045,4.045,3.95,3.95,0,0,1-4.045,4.045,3.883,3.883,0,0,1-4.045-4.045A4.02,4.02,0,0,1,178.345,120.6Zm0,7.4a3.1,3.1,0,0,0,3.12-3.351,3.128,3.128,0,1,0-3.12,3.351Zm-1.965-5.547h2.427c.809,0,1.387.347,1.387,1.156a1.141,1.141,0,0,1-.924,1.156l.693,1.271c.231.347.347.578.578.578v.231h-1.156c-.231,0-.347-.231-.462-.578l-.809-1.387h-.231v1.271c0,.347.116.462.462.462v.231h-2.08v-.231c.462,0,.462,0,.462-.462v-3c0-.347,0-.462-.462-.462v-.231Zm1.618,2.08h.347c.462,0,.578-.578.578-.924,0-.693-.231-.924-.578-.924H178Z" transform="translate(-174.3 -120.6)"/></g></g></svg>