<svg xmlns="http://www.w3.org/2000/svg" viewBox="0 0 187.31 152.86"><defs><style>.cls-1{fill:#7fb335;}.cls-2{fill:#edefef;}.cls-3{fill:#fefefe;}</style></defs><title>Asset 1</title><g id="Layer_2" data-name="Layer 2"><g id="Layer_1-2" data-name="Layer 1"><path class="cls-1" d="M152.42,49.46s-.07,0-.09.06l-1.23.17a.47.47,0,0,0-.43,0c0-.09-.11-.08-.16,0h-.2a7.49,7.49,0,0,0-2.12-.83c-.2,0-.48-.08-.48-.38a.72.72,0,0,1,.31-.69,2.44,2.44,0,0,1,1.61-.36c.55.06,1,.38,1.59.44a.82.82,0,0,0,.67,0,1.42,1.42,0,0,1,1.21.47l.06.1a1.65,1.65,0,0,1-.17.66h0C152.78,49.18,152.53,49.21,152.42,49.46Z"/><path class="cls-1" d="M61.14,20.23a.2.2,0,0,0,0-.22,4.21,4.21,0,0,1,.49-1,1,1,0,0,1,1.66-.3l.53.49.09.44c0,.24-.28.41-.26.68l0,.22c-.41.2-.54.65-.84.95h0a1.46,1.46,0,0,1-1.61.15l-.1-.1C60.82,21.12,61.09,20.68,61.14,20.23Z"/><path class="cls-1" d="M19.65,113.33c.19.17.45.29.47.59s-.13.47-.21.7c-.32,1-.81,1.19-1.92.61a.39.39,0,0,0-.06-.33v-.45l.16-.38a.46.46,0,0,0,.22-.4,1.39,1.39,0,0,0,.54-.45Z"/><path class="cls-1" d="M37.68,100.12c-.36.49-.23,1.13-.5,1.66-.09.2-.22.38-.32.57l-.17.06-.49-.09h0c0-.32-.52-.55-.2-1,.16-.47.73-.62.85-1.11.35-.29,0-.83.39-1.11h.25l.22.2Z"/><path class="cls-1" d="M179.2,36.28l.23.09a.11.11,0,0,0,.1.12l.1.55a.88.88,0,0,0-.38.43.59.59,0,0,0-.32.28l-.13.1-.05,0a1.36,1.36,0,0,1-1.24,0c0-.06,0-.09-.08-.1a.81.81,0,0,1,.5-1c.24-.13.48-.28.71-.42l.22,0A.3.3,0,0,0,179.2,36.28Z"/><path class="cls-1" d="M43.68,49.89l.22,0L44,50a.57.57,0,0,1-.17.9c-.19.14-.35.33-.53.49a.51.51,0,0,1-.62.06c-.25-.11-.24-.31-.2-.51a1.17,1.17,0,0,1,.88-1A.39.39,0,0,0,43.68,49.89Z"/><path class="cls-1" d="M173.58,17.76c-.57-.34-.22-.73-.06-1.11a.05.05,0,0,0,.06-.06.41.41,0,0,0,.15-.07c.3-.26.59-.51.94-.08a.74.74,0,0,1-.21,1.07c-.15.11-.32.2-.47.29Z"/><path class="cls-1" d="M116.69,30a1.2,1.2,0,0,1,.27-1.57.62.62,0,0,1,.73,0c.23.15.18.36.16.6,0,.67-.48.91-1,1Z"/><path class="cls-1" d="M61.24,23.72l-.08.09c-.31.35-.71.28-1.1.22l-.33-.52c.18-.89.43-1,1.38-.73l0,0,0,0C61.37,23.06,61.24,23.4,61.24,23.72Z"/><path class="cls-1" d="M60.62,62.74a.13.13,0,0,0-.07-.09c0-.29,0-.59-.08-.89v-.23l0-.1.65-.44c.09.11.17.24.33.25l.09.09c0,.2.1.4.12.6Q61.79,63.13,60.62,62.74Z"/><path class="cls-1" d="M19.89,111.63a1,1,0,0,1,.43-1l.57,0,.21.24c.14.87-.2,1.25-1,1h0A.25.25,0,0,0,19.89,111.63Z"/><path class="cls-1" d="M154.71,48.66a.8.8,0,0,1-.5-.38c-.18-.37,0-.69.42-.66a1.46,1.46,0,0,1,.92.31h0a.52.52,0,0,1-.08.42Z"/><path class="cls-1" d="M181.23,35.13l-.22,0-.22-.31v-.22a.5.5,0,0,1,.74-.06v0h0l0,.45-.2.1Z"/><path class="cls-1" d="M157.53,47.81l-.38-.27c0-.75.47-.41.82-.3a.53.53,0,0,1-.1.5A.41.41,0,0,0,157.53,47.81Z"/><path class="cls-1" d="M151.1,49.69l1.23-.17A.77.77,0,0,1,151.1,49.69Z"/><path class="cls-2" d="M42.87,58.36a3,3,0,0,1,.67-.71C43.46,58,43.29,58.31,42.87,58.36Z"/><path class="cls-2" d="M61.49,61.24c-.16,0-.24-.14-.33-.25C61.42,60.86,61.45,60.88,61.49,61.24Z"/><path class="cls-2" d="M77.76,56.46c.07,0,.17-.11.21,0s0,.13-.07.13-.13-.08-.14-.17Z"/><path class="cls-2" d="M36.3,99.41l0,.1s-.08,0-.09,0,0-.06,0-.1Z"/><path class="cls-2" d="M151.41,47.13s.08,0,.09,0,0,.06,0,.09-.08,0-.09-.05S151.39,47.16,151.41,47.13Z"/><path class="cls-2" d="M62,60.6s0,.08,0,.09-.06,0-.09,0,0-.08,0-.09S62,60.59,62,60.6Z"/><path class="cls-2" d="M36.24,57c-.08,0-.18,0-.17-.14a0,0,0,0,1,0,0c.12,0,.12.09.14.17Z"/><path class="cls-2" d="M37,56.7a.3.3,0,0,1-.24.23C36.69,56.75,36.77,56.68,37,56.7Z"/><path class="cls-2" d="M150.51,49.67c.05-.08.11-.09.16,0Z"/><path class="cls-2" d="M23.49,109.26l0,0,0,0Z"/><path class="cls-2" d="M60.51,61.43l0,.1C60.39,61.46,60.44,61.44,60.51,61.43Z"/><path class="cls-2" d="M67.49,61.31l.05,0-.05,0Z"/><path class="cls-2" d="M46.62,78.8c.18.24,0,.19-.16.21A.22.22,0,0,1,46.62,78.8Z"/><path class="cls-3" d="M44,50l-.09-.11c0-.16-.06-.37.18-.53C44.09,49.64,44.49,49.87,44,50Z"/><path class="cls-3" d="M44.18,49c0,.11-.08.26-.26.22s-.07-.05-.06-.07c0-.18.21-.1.31-.16Z"/><path class="cls-3" d="M39.06,98.65c.1,0,.23,0,.17.19a.32.32,0,0,1-.13.07l0-.25Z"/><path class="cls-1" d="M141.84,50.67h-.21a11.15,11.15,0,0,0-2.16-.22l-.22,0a3.88,3.88,0,0,0-1,.09.52.52,0,0,0-.44.06,1.14,1.14,0,0,0-.58,0,.62.62,0,0,0-.56,0,.19.19,0,0,0-.23.12A.53.53,0,0,0,136,51c-.25,0-.38.13-.5.3a.92.92,0,0,1-1.07.42c-.59-.18-1.19.07-1.78-.06a.38.38,0,0,0-.45.39c0,.25.15.37.39.39s.6,0,.89,0c1.9-.11,3.78-.4,5.68-.4l.13,0a.66.66,0,0,0,.33.26l0,.32c-.3.32-.78.06-1.1.33a.37.37,0,0,0-.34,0,1.47,1.47,0,0,0-1,.2.66.66,0,0,0-.44.06,27,27,0,0,0-4.21.51,2.69,2.69,0,0,0-1.45.45l-.32,0c-.5,0-1-.13-1.48.19a.19.19,0,0,0-.21,0,2.37,2.37,0,0,0-1.39.18l-.18.05a4.06,4.06,0,0,0-1.5.35.26.26,0,0,0-.32.06,12.92,12.92,0,0,0-2.95.56c-.14,0-.21,0-.26.16a3.17,3.17,0,0,1-1,.1l-.14,0a11.67,11.67,0,0,1-1.65.4c-.52-.35-.94-.91-1.69-.78-.21,0-.4.06-.5.27a.58.58,0,0,0-.65.42l-.55.47c-.3.24-.72.2-1,.41a.55.55,0,0,0-.56.36,15.78,15.78,0,0,0-2,.45c-.44.21-.69.69-1.2.77a.17.17,0,0,0-.22,0l-.2,0a.5.5,0,0,0-.59-.05.6.6,0,0,0-.58.32.94.94,0,0,0-.44.44l-.9.12a1.51,1.51,0,0,0-.79,0,1.26,1.26,0,0,0-.8.19.19.19,0,0,0-.23.11c-.26.07-.61-.12-.78.25h0c-.21.09-.48-.09-.65.15l-.36.12a.83.83,0,0,0-.67.22.23.23,0,0,0-.23.09.19.19,0,0,0-.24.08.47.47,0,0,0-.43.06c-.27.28-.75,0-1,.38l-.15.08c-.07,0-.1,0-.1.07l-.23.13a2,2,0,0,0-1.25.3.47.47,0,0,0-.45.13.19.19,0,0,0-.23.1c-.23,0-.44,0-.57.21-.18.05-.4,0-.53.18l-.25.08c-.61-.1-1.17.34-1.78.18l-.11-.08c-.29-.35-.19-.86-.54-1.19s-.51-.27-.66.11-.05.65.18.75c.59.25.26.5.08.78h0l-1.24.42a.26.26,0,0,0-.23.12c-.25.1-.44.11-.59-.18s-.22-.38-.46-.33-.15.33-.21.51h0s-.08,0-.09.06a2.08,2.08,0,0,1-1.83,1.57,2.72,2.72,0,0,0-1.21.38c-1,.74-2.28.82-3.28,1.52-.8-.14-1.29.47-1.9.8-.26.14-.65.08-.79.44l-.23,0c-.65.25-1.31.48-1.94.77-.19.09-.5.11-.53.43l-.14.06a5.4,5.4,0,0,1-1.72.59,2.1,2.1,0,0,0-1.69.78l0,0,0,0a.37.37,0,0,0-.26.29l0,0a3.07,3.07,0,0,1-1.5.28.94.94,0,0,0-.94.6,1.14,1.14,0,0,1-1.06.7c-.92,0-1.13.61-1.45,1.2l0,0v0a1.12,1.12,0,0,0-.64.32l-.13.08a4,4,0,0,0-.81.37,7.06,7.06,0,0,0-2.57,1.42h0a2.08,2.08,0,0,0-.77.27.22.22,0,0,0-.28.1c-.25.24-.62.32-.84.6a.26.26,0,0,0-.25.16,7,7,0,0,0-2.06.9c-.85.59-1.8,1-2.61,1.65l0,0,0,0c-1,.53-1.91,1.06-2.88,1.57-.27.14-.64.23-.79-.12a.58.58,0,0,1,.35-.78l.46-.2c.23-.12.51-.15.63-.43h0v0a2.38,2.38,0,0,0,.88-.66.44.44,0,0,0,.05-.52c-.1-.15-.26-.29-.44-.06l0,0,0,0c-.4.15-.79.54-1.23.19-.62-.48-.4-1.17.43-1.55.45-.2,1-.2,1.31-.69a5,5,0,0,1,1-1.06,2.6,2.6,0,0,0,.58-.87c.14-.31.17-.67-.21-.82a.73.73,0,0,0-1,.19,3.17,3.17,0,0,1-2,1.11c-.36.06-.71-.4-.52-.64.33-.42.56-.94,1.15-1.11a7.3,7.3,0,0,0,1.08-.46c.1,0,.19,0,.23-.1a2.66,2.66,0,0,0,.86-.54s0,0,0,0a1.8,1.8,0,0,0,.61-.4v0a.73.73,0,0,0,.56-.34l0,0,0,0c.51-.4,1.26-.48,1.53-1.18h0a9.13,9.13,0,0,0,1.65-.76.18.18,0,0,0,.19-.18c.15-.05.17-.24.38-.27a3.08,3.08,0,0,0,1.5-.6.18.18,0,0,0,.23-.11c.15,0,.3,0,.38-.21a.18.18,0,0,0,.19-.11,7.2,7.2,0,0,0,2.5-1.3c.43-.25,1-.24,1.33-.63l.33,0c.21,0,.42,0,.5-.26l0,0v0c.26-.16.6-.18.75-.5h0c.57.13.84-.41,1.28-.58.86-.33,1.71-.71,2.56-1.07.12,0,.24-.09.29-.23l0,0a8.53,8.53,0,0,0,1.75-.7,7.51,7.51,0,0,1,2.24-.87c.4-.06,1-.09,1.21-.58h0c1-.31,1.89-.75,2.88-1,.14,0,.29-.07.35-.23h0v0a.86.86,0,0,0,.46-.22.35.35,0,0,0,.33,0l.52-.16a11.82,11.82,0,0,0,2.64-1.05l.34-.07a2.69,2.69,0,0,0,1.08-.2c.56-.16,1-.6,1.63-.64a.21.21,0,0,0,.23,0l.22.08.19.16a.88.88,0,0,1-.38.91c-.15.11-.32.24-.2.46s.22.42.43.38a2.34,2.34,0,0,0,1.36-.36h0a.81.81,0,0,0,.69-.7c.19-.41,0-.84.09-1.26a.83.83,0,0,0,.22-.45l.44-.31a2.45,2.45,0,0,0,1.33-.48,7.23,7.23,0,0,1,1.51-.72c.58-.22,1.23-.08,1.76-.45a.49.49,0,0,0,.35-.08,2,2,0,0,0,.77-.07c.31-.06.52-.38.79-.39a21.19,21.19,0,0,0,2.89-.62c.28,0,.58.1.84,0a13.7,13.7,0,0,1,3.33-.91c.14,0,.3,0,.37-.2l.15-.05a6.86,6.86,0,0,0,1.53-.44l0,0a1.68,1.68,0,0,1,.32-.09,16.56,16.56,0,0,0,3.75-.91,1.05,1.05,0,0,0,.9,0h1.7a.2.2,0,0,0,.22,0c.31,0,.62,0,.84-.25l0-.05,0,.05a.18.18,0,0,0,.19-.15.21.21,0,0,0,.23-.08c.54-.2,1.17.08,1.66-.33a2,2,0,0,1,1.13-.41,4.57,4.57,0,0,0,1.37-.22.39.39,0,0,0,.44,0c.59-.08,1.24.07,1.74-.4h0c.22,0,.5.11.64,0a2.41,2.41,0,0,1,1.36-.28.17.17,0,0,0,.22,0,5.75,5.75,0,0,0,1.7-.32,1,1,0,0,0,.56,0,4,4,0,0,0,1.82-.22.19.19,0,0,0,.21-.05,8.09,8.09,0,0,1,3.53.06.5.5,0,0,0,.53-.1,1.43,1.43,0,0,1,1.42-.24,1.28,1.28,0,0,0,1-.07,2.51,2.51,0,0,1,1.84-.29.25.25,0,0,0,.34.11A5.32,5.32,0,0,0,145,48l1,0c.25.23.59.18.89.26,0,.05,0,.07,0,.08a.74.74,0,0,0,.07.21c.57.78.53.91-.32,1.35-.27.14-.58.33-.55.71s-.23.74-.69.83l0,0,0,0-.34-.3,0-.24c.16-.74.16-.74-.25-.87l-.22,0a.32.32,0,0,0-.34,0,.18.18,0,0,0-.26.06,1.21,1.21,0,0,0-1,.2l-.15.1C142.53,50.52,142.13,50.41,141.84,50.67Z"/><path class="cls-1" d="M176.37,25.43l-.13.17a.7.7,0,0,0-.35.47l0,0,0,0q-.12,0-.09.15a.31.31,0,0,0-.05.32c-.19.62-.73,1.1-.77,1.78v0a1.66,1.66,0,0,0-.39,1.37.61.61,0,0,1-.12.52l-.13.06c-.4.12-.3.5-.4.77l0,0a.8.8,0,0,0-.42.43.76.76,0,0,0-.34.93c-.13.4.18.47.43.58l.3.43,0,.55a.32.32,0,0,0,0,.35,1.54,1.54,0,0,1-.78,1.14.5.5,0,0,0-.24.81.41.41,0,0,0,.1.32.23.23,0,0,0,.14.28.08.08,0,0,0,.07.07l.09.11c.26.45-.24.57-.38.84-.47.21-.23.56-.18.87a.44.44,0,0,0,.53.38c.52,0,1-.09,1.56-.1a6,6,0,0,1,2.42.13c.25.7-.34,1-.67,1.43-.14,0-.19.12-.21.24a.23.23,0,0,0-.2.21c-.19,0-.22.18-.23.33v0a.15.15,0,0,0-.12.14c-.13.05-.16.17-.22.27a.84.84,0,0,0-.59.51.3.3,0,0,0-.19.28.26.26,0,0,0-.21.15c-.31.08-.4.38-.55.61a1,1,0,0,0-.52.71v0a.37.37,0,0,0-.27.21c-.32.07-.46.37-.67.56-.43.38-.79.82-1.18,1.23a.31.31,0,0,0-.18.32l-.45.54a.47.47,0,0,0-.26.34l-.18.24a.31.31,0,0,0-.25.33h0c-.18.09-.39.13-.48.34l-.09.08c-.25,0-.48.21-.74.1a1.12,1.12,0,0,0-.39-.39,2.14,2.14,0,0,1-.26-1.34,11.58,11.58,0,0,0,.23-1.58,2.28,2.28,0,0,1,.64-1.53,1.34,1.34,0,0,0,.19-1.41c-.11-.49-.42-1-.24-1.48a2.75,2.75,0,0,0,.18-1.23c0-.64.53-1.15.35-1.82a1.29,1.29,0,0,1,.16-1.17.88.88,0,0,0,.1-.54c0-.42-.29-.49-.67-.22h0l-2.71,2.25c-.35.09-.41.46-.63.66l0,0A9,9,0,0,0,163.86,40l-.13.05c-.26,0-.38.22-.5.42h0c-.23,0-.4.13-.42.39a1.25,1.25,0,0,0-.45.49c-.12,0-.2.06-.21.18h0a.34.34,0,0,0-.3.2.79.79,0,0,0-.5.43.49.49,0,0,0-.28.25l-.14,0a.25.25,0,0,0-.33.14c-.2,0-.29.14-.35.31a1.39,1.39,0,0,0-.46.41l-.22.05a.26.26,0,0,0-.34.09l-.21,0-.37-.4-.13-.24c0-.15,0-.3-.16-.37h0c-.11-.25,0-.56-.28-.76a.54.54,0,0,0,0-.45c.05-.66,0-1.34.62-1.8.47-.32.44-.61,0-.91a3.46,3.46,0,0,0-.62-.28.43.43,0,0,1-.29-.58c.22-.7.13-1.51.79-2a.3.3,0,0,0,.1-.25c-.09-.61.36-1,.52-1.56s-.1-.93-.63-.86-.81.27-1.18.3a1.76,1.76,0,0,0-1.76,1.84h0c-.33.31-.85.41-1,.88a10.29,10.29,0,0,1-1.84,3,1.73,1.73,0,0,0-.23.24l-2,2.92,0,0,0,0a8.16,8.16,0,0,0-1,1.11,1.54,1.54,0,0,1-2.12.29h0a16.37,16.37,0,0,1-.59-4.4.3.3,0,0,0,0-.34v-.23a.42.42,0,0,0,0-.33.47.47,0,0,0,0-.16,1.65,1.65,0,0,1,.83-1.83.32.32,0,0,0,.15-.39.27.27,0,0,0,0-.35,1.4,1.4,0,0,1,0-1.36,2.77,2.77,0,0,0,.29-1.34c0-.49-.36-.86-.78-.66s-.94.29-1.35.54l-.22,0c-.71,0-1,.49-1.3,1a.49.49,0,0,0-.35.44h0c-.22.27-.44.53-.65.8h0l-.11.08,0,0c-.07,0-.1.06-.08.13h0l0,0a1.31,1.31,0,0,0-.66,1,1.82,1.82,0,0,1-.27.58.08.08,0,0,0,0,.07.12.12,0,0,0-.05.05l0,0-.38.19-.11,0c-.32.14-.2.39-.18.62a.2.2,0,0,0,0,.22c-.21.24-.62.12-.8.43l-.05.06-.29.12c-.35.07-.17.37-.24.55-.26.36-.76.49-.92.94l0,0,0,0a.58.58,0,0,0-.43.48h0a.3.3,0,0,0-.31.26.38.38,0,0,0-.27.32c-.16.14-.35.24-.43.45h0a.35.35,0,0,0-.31.16.68.68,0,0,0-.48.29,1.92,1.92,0,0,1-1.67,0l-.34-.44a2.91,2.91,0,0,0-.23-.9l0-.34a.18.18,0,0,0,0-.22.51.51,0,0,0,0-.45,6.53,6.53,0,0,0,0-1.25.52.52,0,0,0-.1-.56c.2-.36.08-.84.42-1.16v0c.35-.29.55-.59.23-1a.77.77,0,0,1,0-.71,13.91,13.91,0,0,0,.51-2.37,2.25,2.25,0,0,1,.4-1.22,1,1,0,0,0,.25-.93,2.25,2.25,0,0,0,.08-.24,1.21,1.21,0,0,0-.56-1.67c-.44-.23-.91,0-1.23.63a14.35,14.35,0,0,0-.71,1.78h0a.28.28,0,0,0-.19.28l0,0a3.81,3.81,0,0,0-.75,1.33,2.12,2.12,0,0,1-.56,1.08c-.72.7-.75,1.73-1.27,2.52-.06,0-.1,0-.09.1a2.46,2.46,0,0,0-.69,1.37.19.19,0,0,0-.13.23.17.17,0,0,0-.1.23v0a2.29,2.29,0,0,0-.53.87c-.17.12-.33.23-.36.45a.15.15,0,0,0-.05.24l-.06.21c-.14.07-.27.14-.27.32a.58.58,0,0,0-.28.48c-.11.54-.44,1-.51,1.55a.42.42,0,0,0-.18.36.19.19,0,0,0-.12.23.48.48,0,0,0-.16.35c-.17.22-.48.28-.58.56-.31.15-.43-.21-.67-.24a13.49,13.49,0,0,1-1.36-2.81.23.23,0,0,0-.06-.25c0-.23,0-.47-.22-.65l0-.21a.45.45,0,0,0,0-.36.51.51,0,0,0,0-.45c0-.33,0-.67,0-1s0-.4-.22-.46a.46.46,0,0,0-.51.27,6.5,6.5,0,0,1-1.07,1.27,1.64,1.64,0,0,0-.43.65,10.12,10.12,0,0,1-1.21,1.89l0,0a.28.28,0,0,0-.22.22,4.47,4.47,0,0,1-1.09,1.93l0,.05,0-.05a.53.53,0,0,0-.38.4.3.3,0,0,0,0,.33l-.46.67a.64.64,0,0,0-.32.33,1.21,1.21,0,0,0-.57.45h0A.15.15,0,0,0,118,46l0,0,0,0a.37.37,0,0,0-.29.26h0c-.41.21-.78.73-1.32.24h0a.37.37,0,0,0-.17-.31v0a7.16,7.16,0,0,1-.05-2.61,1.45,1.45,0,0,0,.1-.61,1.5,1.5,0,0,1,.42-1.21c.18-.22.42-.5.22-.81a1.54,1.54,0,0,1,.13-1.87c.23-.34.67-.72.35-1.25a.29.29,0,0,0-.14-.24c0-.55,0-1.1.07-1.66.1-.19.32-.31.33-.56a7.5,7.5,0,0,0,.52-2.74c0-.48-.16-1,.26-1.44a2.13,2.13,0,0,0,.46-.83c.29-.8.29-1.68.6-2.48a.66.66,0,0,0-.14-.74.63.63,0,0,0-.74,0c-.13.06-.28.09-.42.14l-.32-.16a.67.67,0,0,1-.13-.58,4,4,0,0,1,.76-1.66,11.1,11.1,0,0,0,1-1.64c.73-1.21,1-2.63,2-3.72a4.18,4.18,0,0,0,1.06-1.88,1,1,0,0,1,.31-.52c.45-.35.47-.85.61-1.34a6,6,0,0,1,.84-2.58c.38-.43.94-.66,1.26-1.16a20.28,20.28,0,0,1,2.7,0h0l.08.11a3.06,3.06,0,0,0-.47,1.08l0,0,0,0a1.13,1.13,0,0,0-.52,1l-.12.2c-.5.37-.4,1-.71,1.47a.14.14,0,0,0-.09.19c-.51.33-.49.94-.72,1.4a5.55,5.55,0,0,0-.65,2s0,.08,0,.13a6.94,6.94,0,0,1-.51,1,1,1,0,0,0-.17.89l0,.55a.63.63,0,0,0-.19.58l0,.21A.2.2,0,0,0,124,23l0,0v0c-.42.19-.25.63-.37.94a14.12,14.12,0,0,0-.93,3.57c-.08.79-.58,1.5-.66,2.33,0,.33.11.67,0,1a10.92,10.92,0,0,0-.63,3,7.18,7.18,0,0,0-.16.7c-.06.71-.19,1.41-.29,2.12a.92.92,0,0,0,.25.87c.22.18.43,0,.6-.14a8.66,8.66,0,0,0,1.47-1.79c.52-.78.92-1.62,1.5-2.39a11,11,0,0,0,1.36-2.13c.25-.58.84-1,1.13-1.66s.86-1.32,1.11-2a2.75,2.75,0,0,1,1.72-1.62c.52-.26.95.1.91.69l0,0,0,0a10.15,10.15,0,0,0-1.4,2.54c-.27.24-.61.45-.49.9a.58.58,0,0,0,0,.54,2.43,2.43,0,0,1-.16,1.53,5.93,5.93,0,0,0-.36.93,9.77,9.77,0,0,0-.28,2.69c0,.21,0,.44.23.53a.46.46,0,0,0,.59-.2,4.71,4.71,0,0,0,.36-.42c.59-1,1.16-2,1.74-3a23.84,23.84,0,0,1,1.79-3.09,5.24,5.24,0,0,0,.55-1.3.17.17,0,0,0,0-.21c.29-.31.27-.76.55-1.08a14.28,14.28,0,0,1,1.43-1.48.76.76,0,0,1,.58-.23l.44.31a2.18,2.18,0,0,1,.22.91,1,1,0,0,0,.64,1c.49.2,1-.1,1.21-.77a14.05,14.05,0,0,1,1.77-2.49.58.58,0,0,1,.32-.23,1.71,1.71,0,0,0,1-1.08c.15-.37.33-.77.82-.83a2.81,2.81,0,0,0,1.24-.47,1.08,1.08,0,0,1,1.17.12c.31.19,0,.53-.1.8l0,0c-.24,0-.28.28-.45.4a.34.34,0,0,0-.09.45.32.32,0,0,0,.42.18,2.48,2.48,0,0,1,2.16.63.12.12,0,0,0,.11.15.66.66,0,0,0,.16.5v.18a6.72,6.72,0,0,0-.38,2.09c0,.45.35.92-.13,1.35a1.1,1.1,0,0,0-.43,1.05.28.28,0,0,1-.1.25c-.48.24-.38.67-.35,1.08s.38.69.76.39c.71-.57,1.57-.94,2.26-1.48A6.1,6.1,0,0,0,151,27.17a1.1,1.1,0,0,1,.34-.51,11.2,11.2,0,0,0,2.29-2.57,1.1,1.1,0,0,1,.25-.23,3.18,3.18,0,0,1,2.33-.42.63.63,0,0,1,.41.95c-.14.28,0,.34.25.31s.7-.11,1.06-.13a1.12,1.12,0,0,1,1.32,1.08.2.2,0,0,0,0,.21.37.37,0,0,0,0,.48v.21a.46.46,0,0,0-.16.5c.18.49-.1.85-.3,1.23l0,0-.09.09h0a.25.25,0,0,0-.18.28c-.18.15-.35.31-.21.57l-.14.67c-.14.07-.25.16-.23.33s-.1.24-.13.36c-.2.93,0,1.16.92.95a18.52,18.52,0,0,0,2.2-.65A2.35,2.35,0,0,0,162,30a6.91,6.91,0,0,1,1-1.43,19.06,19.06,0,0,1,1.89-1.29c.77-.51,1.31-1.31,2.22-1.63,0,0,0,0,0,0,.21-.67.81-.85,1.36-1,1.08-.36,2.1-1.05,3.33-.7L172,24c.59.84.34,1.44-.7,1.69l-.16,0a6.45,6.45,0,0,0-2.38.92,16,16,0,0,0-3.09,2.21A10.32,10.32,0,0,0,163.77,31c-.41.83-.92,1.59-1.31,2.43a3.87,3.87,0,0,0-.28,2.63c.07.27.25.56.51.55a3.37,3.37,0,0,0,1.74-.25,19.28,19.28,0,0,0,3.29-2.3c.59-.63,1.19-1.28,1.8-1.9,1-1,1.29-2.41,2.11-3.52a9.56,9.56,0,0,0,1.46-3.29,1.3,1.3,0,0,1,.19-.52,5,5,0,0,0,1.14-2.15.21.21,0,0,0,.07-.24,15.61,15.61,0,0,0,.8-1.51c.33-.83.22-1.81.92-2.5a.39.39,0,0,0,0-.48,1.89,1.89,0,0,1-.06-1.42c.13-.51,0-.78-.52-.89s-.69-.72-.32-1.2c.56-.75,1-1.56,1.58-2.34a6.52,6.52,0,0,1,1.18-1.65A3.88,3.88,0,0,0,179.28,9a2.12,2.12,0,0,1,1.54-1.16c.68-.2.88-.54.56-1.19a.93.93,0,0,1,.12-1.08c.29-.38.82-.56.9-1.1a2.84,2.84,0,0,1,1.16-.11l3.75,0c-.21.34-.21.77-.46,1.1-.11.1-.08.21,0,.33a.28.28,0,0,0-.11.3h0a.2.2,0,0,0-.13.24l-.21.19c-.36.16-.21.61-.46.83a.38.38,0,0,0-.22.34,7.37,7.37,0,0,0-.6,1.19c-.11.25-.07.64-.23.77-.61.5-.64,1.26-1,1.87-.06,0-.09,0-.08.1a5.28,5.28,0,0,0-1.16,1.91l0,0,0,0a.26.26,0,0,0-.28.22.12.12,0,0,0-.16.1c-.76.21-.84.32-.79,1.08a.85.85,0,0,1-.42.87,1.61,1.61,0,0,0-.85,1.37.12.12,0,0,0-.1.16,9,9,0,0,0-1,2.55l-.09.29a3.63,3.63,0,0,0-.83,1.73c0,.08,0,.16,0,.24s-.26.41-.4.61v0a.11.11,0,0,0-.06.16l-.05.21A5.08,5.08,0,0,0,176.37,25.43ZM149.89,35.56a6,6,0,0,0,.05.73c.11.54.46.78.93.53a6.57,6.57,0,0,0,2.4-1.68,6.91,6.91,0,0,1,.93-1,1.27,1.27,0,0,0,.24-1.75,4.2,4.2,0,0,1-.74-3.12c.11-.6.54-1,.77-1.46a6.67,6.67,0,0,1,1.76-2.48c.13-.11.25-.25.15-.44s-.3-.11-.45-.05a5.34,5.34,0,0,0-2.17,1.7c-.25.33-.46.71-.69,1.07s-.59.47-.8.77a16.4,16.4,0,0,0-2,4.19A6.72,6.72,0,0,0,149.89,35.56Zm-11.67-1.78a3.4,3.4,0,0,0,.14,1.15,1,1,0,0,0,1.64.87l.78-.44a4.59,4.59,0,0,0,1.29-1.31c.45-.63,0-1.33-.32-1.88a3.1,3.1,0,0,1-.49-1.51,4.21,4.21,0,0,0,0-.94,3.11,3.11,0,0,1,.18-2,15,15,0,0,1,1-2c.09-.16.17-.32,0-.44s-.25.07-.38.15c-.49.31-.67.87-1,1.3a18.24,18.24,0,0,0-1.15,1.91c-.34.52-.54,1.22-.85,1.78A10.87,10.87,0,0,0,138.22,33.78Zm7.38-7.87c.09-.6-.21-.67-.63-.58a2.28,2.28,0,0,0-1.12,1.29c-.06.33.08.79-.21,1a.8.8,0,0,0-.39.74,15.62,15.62,0,0,0,0,2.27.57.57,0,0,0,.47.56c.26.07.42-.08.54-.29a5.84,5.84,0,0,0,.77-1.73,7.11,7.11,0,0,1,.24-1.08A3.61,3.61,0,0,0,145.6,25.91Zm10,3.36a4.94,4.94,0,0,1,.12.77c0,.28,0,.56.36.6s.47-.19.63-.45c.51-.84.57-1.84,1.12-2.67a1.11,1.11,0,0,0,.11-1c-.14-.41-.32-.46-.7-.24s-.6.81-.93,1.17A3.23,3.23,0,0,0,155.57,29.27Z"/><path class="cls-1" d="M14.86,130c-.33,0-.47-.12-.44-.49s.17-.75.64-.72c.28,0,.69,0,.7.45A.87.87,0,0,1,14.86,130Z"/><path class="cls-1" d="M42.16,52v0c0,.16.1.32,0,.49s-.12.59.17.75.57,0,.79-.25a3.74,3.74,0,0,1,1.46-1,2.2,2.2,0,0,0,1.16-1c.2-.27.09-.64.3-.89a1.27,1.27,0,0,0,.07-1.41c-.21-.5-.51-.6-.8-.16a.81.81,0,0,1-1.16.37h0a1.05,1.05,0,0,1-.12-.91,12.44,12.44,0,0,1,.89-1.83c.45-.65.56-1.41,1-2a1.21,1.21,0,0,0,.33-.76v-.13a1.17,1.17,0,0,0,.44-.62c.3-1.2,1-2.24,1.41-3.4s.93-2,1.23-3.13a.89.89,0,0,0,.46-.56.65.65,0,0,0,.27-.42.14.14,0,0,0,.14-.15A2.39,2.39,0,0,0,51,34h0a18.91,18.91,0,0,0,1.77-1.27l.12-.06A5.72,5.72,0,0,0,54.44,32c.69-.5,1.38-.26,2.09-.24l.23.4a.35.35,0,0,0,0,.33.2.2,0,0,0,0,.23,1.58,1.58,0,0,1-.32.75A2.15,2.15,0,0,0,56,34.77a3.84,3.84,0,0,1-.81,2.42,3.17,3.17,0,0,0-.64,1.33.32.32,0,0,0-.25.33c-.12,0-.12.13-.08.23l-.06.21c-.35.39-.15,1-.53,1.36h0a.66.66,0,0,0-.32.7v.22c-.41.13-.4.56-.61.83l0,0a.25.25,0,0,0-.19.25h0c-.43.78-1.2,1.43-.9,2.47,0,.08,0,.19,0,.28.12.7-.37,1.25-.48,1.9,0,.27.18.5,0,.75a2.67,2.67,0,0,0-.29,1.52v0a1.53,1.53,0,0,0-.1,1.32v0c-.13,0-.29.12-.28.25.06.52-.28,1-.1,1.53a2.08,2.08,0,0,1-.22.92,3.27,3.27,0,0,0-.36,1.68.32.32,0,0,0-.11.33c0,.23.1.43.06.71-.13.88-.43,1.72-.6,2.59-.09.46.08.88,0,1.32s-.27.53-.23.85a6.92,6.92,0,0,1-.23,2.39c-.13.57,0,1.19-.23,1.77,0,0,.05.13.08.19v.23a.67.67,0,0,0-.17.67,3.33,3.33,0,0,1-.24,1.9l0,.21c-.09.17-.26.3-.23.51a6.66,6.66,0,0,1,0,1.48,7.62,7.62,0,0,0-.2,1.06,17.51,17.51,0,0,1-.13,1.91v.13c-.31.34-.13.77-.2,1.16V75a11.59,11.59,0,0,0-.56,3.5l0,.34a.22.22,0,0,0-.16.21c-.08.07-.11.14,0,.23s-.32.24-.27.41a1.3,1.3,0,0,1-.62,1.66.28.28,0,0,0,0,.11,1.8,1.8,0,0,0,.11,1.7,1.79,1.79,0,0,1,.07,1.75c-.12.28-.06.52.19.62s.34-.17.37-.36a3.44,3.44,0,0,1,1-2c.15-.14.13-.35-.1-.52a1.05,1.05,0,0,1-.13-1.8,26.64,26.64,0,0,1,3.3-2.68,1.34,1.34,0,0,1,.63-.34c.29,0,.39-.21.47-.48a4.77,4.77,0,0,1,.29-1.24h0a.83.83,0,0,0,.5-.81c-.06-.48-.19-1-.29-1.45v-.34a.42.42,0,0,0,.2-.32c.14-.93.83-1.73.65-2.74a.39.39,0,0,1,.07-.26A8,8,0,0,0,54,67.4l0-.14a16,16,0,0,1,1.18-2.05.27.27,0,0,0,0-.16,7.79,7.79,0,0,1,.66-2.27l.1-.11c.28-.23.45-.55.79-.76.86-.53.9-.87.42-1.82-.19-.37-.25-.74.19-1a.94.94,0,0,0,.46-1.34,1.75,1.75,0,0,1,.25-1.9,6.67,6.67,0,0,0,.73-2.67,23.17,23.17,0,0,1,.87-3c.3-.83.67-1.73,0-2.57a10.78,10.78,0,0,0-1.65-2,.47.47,0,0,1-.2-.49,1.23,1.23,0,0,0-.72-1.52c-.43-.22-.43-.52-.1-.91.17-.2.34-.4.52-.59s.28-.64,0-.85c-.46-.36-.41-.84-.46-1.31a2.57,2.57,0,0,1,.22-1.27c.41-.92.15-2,.8-2.89.95-1.36,1.41-3,2.35-4.39.13-.2,0-.49.21-.63.89-.73,1.21-1.87,2-2.68a2.44,2.44,0,0,1,2.09-1l.11.11a.45.45,0,0,0,.3.38l0,0,0,0c.09.7.19,1.4.28,2.1l0,0v0c-.17,0-.22.17-.15.29s0,.44,0,.62c.08.52-.23.94-.24,1.42l0,.34c-.37.55-.16,1.21-.35,1.8h0v0c0,.1-.15.18-.16.28a2.92,2.92,0,0,1-.39,1.63.32.32,0,0,0,0,.42v.22c-.24.33-.16.85-.33,1.07-.56.7-.42,1.53-.63,2.29-.1.33.2.62,0,.94a11.21,11.21,0,0,0-.66,3.13.56.56,0,0,0,.36.63c.3.16.44,0,.59-.24a2.32,2.32,0,0,1,1-.84,1.8,1.8,0,0,0,1-1.28,8,8,0,0,1,1.69-3.2.24.24,0,0,0,.2-.22,1.13,1.13,0,0,0,.55-.36l.22,0c.12.06.27.08.35.17a2.89,2.89,0,0,1,.17,2.29A24.74,24.74,0,0,0,67.22,44a7.94,7.94,0,0,0-.38,3.26l0,.21c-.17.52.08,1.06-.05,1.59s.41.72.25,1.11a1.46,1.46,0,0,0,.22,1.27.9.9,0,0,1,.18.4c0,.54.34.77.75.93a1,1,0,0,0,1-.35c.51-.54,1-1.1,1.46-1.68A5.06,5.06,0,0,0,72,47.48c0-.21.13-.41.13-.58,0-.58.39-1.1.34-1.64A13.38,13.38,0,0,1,73.09,41a25.18,25.18,0,0,1,1.43-3.68,9,9,0,0,1,1.63-2.73l.12-.18a11,11,0,0,1,2-1.85c1.17-.65,1.78-.87,2.77-.19v0a.32.32,0,0,0,.25.28l.16.61c0,.3.22.58.13.9,0,0,0,0,0,.08a20.76,20.76,0,0,0-.91,3,.19.19,0,0,0-.14.22,4,4,0,0,1-.47,1v0a.28.28,0,0,0-.18.32l-.06.13a.89.89,0,0,0-.27.34c-.26.47-.27,1-.65,1.45a.2.2,0,0,0,0,.23l-.15.31,0,0v0c-.83.68-.84,1.84-1.52,2.61l0,.08a2,2,0,0,0-.89,1,2.08,2.08,0,0,1-.74,1,1.11,1.11,0,0,0-.47,1,4.34,4.34,0,0,0,.7,2.22,1.22,1.22,0,0,0,1,.55,4.86,4.86,0,0,0,2.79-1.11.23.23,0,0,0,.25-.14l1.11-.74.12-.08c.66-.61,1.3-1.25,2-1.81a2.33,2.33,0,0,0,1-1.62,5,5,0,0,1,.49-2l0-.2a1.68,1.68,0,0,0,.11-1.54.91.91,0,0,1,0-.54l0,0c.19-.19.37-.39.58-.57a.93.93,0,0,0,.26-1.31l0-.21c0-.15.06-.29.07-.44a6.21,6.21,0,0,1,1-3,10.57,10.57,0,0,0,1-1.9,10.11,10.11,0,0,1,.75-1.51,20.15,20.15,0,0,1,1.58-1.88l.34-.08c.55-.11.79-.73,1.35-.83a.67.67,0,0,0,.44-.06,1.89,1.89,0,0,1,2.1.71,1.21,1.21,0,0,0,.3.25.35.35,0,0,1,.17.28,4.58,4.58,0,0,1-.22,2.26c-.3.63-.48,1.3-.84,1.92s-.76,1.61-1.24,2.36c-.17.27-.42.49-.58.76-.57.91-1.29,1.73-1.79,2.69a10.43,10.43,0,0,1-1.32,1.51c-.23.29-.1.74-.33.83-.72.29-.8.9-1,1.51-.3,1.11.06,1.83,1,1.87a2.54,2.54,0,0,0,1.45-.35,8.41,8.41,0,0,0,2.24-2.4A10.16,10.16,0,0,1,93,40.87c.1-.11.24-.21.27-.34a9.88,9.88,0,0,1,1.41-2.44c.56-.9,1.08-1.83,1.67-2.71.47-.71.64-1.6,1.31-2.18a1.05,1.05,0,0,0,.29-.83c0-.19,0-.42.2-.48.39-.1.52-.42.63-.73.28-.84.85-1.53,1.17-2.35.18-.49.76-.72,1-1.11a4.27,4.27,0,0,1,1.55-1.41.78.78,0,0,1,.9,0c.25.19.55.46.49.82s-.23.79-.28,1.22c0,.24,0,.61-.28.82a.43.43,0,0,0,0,.72c.26.24.42-.1.59-.24a1.24,1.24,0,0,0,.14-.18c.52-.62.78-1.45,1.44-1.94A7.24,7.24,0,0,0,106.8,26l0,0,0,0c.39-.31.77-.63,1.18-.91a3.47,3.47,0,0,0,.85-.77l0,0a.28.28,0,0,0,.25-.07,1.83,1.83,0,0,1,2.38.2,1,1,0,0,1,.27.85,5.2,5.2,0,0,1-.34,1.7v.22a6,6,0,0,0-.85,2.28c0,.45-.38.69-.39,1.07,0,.78-.57,1.46-.42,2.27a.25.25,0,0,1,0,.21c-.5.5-.2,1.28-.65,1.82-.16.2-.13.55-.46.69a.43.43,0,0,0-.21.38,1.22,1.22,0,0,0,1.61,1,6,6,0,0,0,.74-.59c.49-.4.74-1,1.22-1.42a9.09,9.09,0,0,0,1.9-2.54,3.12,3.12,0,0,1,1.55-1.55c.13-.05.26-.15.41-.05s.33,1.18.11,1.35a1,1,0,0,0-.38.66c-.11.51-.21,1-.77,1.29a.41.41,0,0,0-.19.27,2.81,2.81,0,0,1-.85,1.48c-.08.08-.09.23-.14.35h0a1.2,1.2,0,0,0-.42.5c-.15.44-.25.9-.78,1.09a.52.52,0,0,0-.3.5l-.12.12c-.33.16-.31.51-.44.78a.47.47,0,0,0-.23.25c-.16,0-.18.16-.26.26A18.83,18.83,0,0,1,110,41.41l-.26.15c-.37.11-.38.5-.49.75-.25.52-.84.73-1,1.26-.06,0-.08,0-.07.09a.29.29,0,0,0-.19.27h0V44a.59.59,0,0,0-.36.46l0,0,0,0c-.19,0-.27.17-.34.34l0,0,0,0c-.2,0-.29.21-.41.35a1.65,1.65,0,0,1-1.91.6l-.45-.56a.23.23,0,0,0-.13-.22v-.34a8.77,8.77,0,0,0,.08-1.7l0-.34a25.25,25.25,0,0,1,.65-2.7l0-.57a.63.63,0,0,0,.19-.45c.09-1,.7-1.91.85-2.92.06-.44.49-.77.4-1.25a.17.17,0,0,0,0-.22c.3-.53.78-1,.62-1.7l0,0v0a.41.41,0,0,0,.26-.52l0-.22c.25-.25.25-.62.38-.92a8.16,8.16,0,0,0,.81-2.94c0-.15,0-.3-.13-.38v0h0c-.37-.3-.74-.2-1.15.31l0,0,0,0a3.37,3.37,0,0,0-.68.68h0c-.3.09-.31.39-.42.6a.36.36,0,0,0-.26.28A8.31,8.31,0,0,1,104.18,32l-.06.14a.86.86,0,0,0-.28.54l-.13.14a3.23,3.23,0,0,0-.95,1.72h0a2,2,0,0,0-.39.84h0v0c-.23.08-.31.34-.47.5a2.93,2.93,0,0,0-.73,1.47v.24a11.31,11.31,0,0,0-.46,1.91h0c-.33.14-.18.34-.06.53s.13.38.4.34a8.47,8.47,0,0,0,.88.07c.26,0,.34.15.29.36a2.63,2.63,0,0,1-.68,1.49h0l0,0c-.19,0-.28.16-.33.33h0c-.43.36-.41,1-.79,1.35l0,0v0c-.43.19-.35.65-.53,1l0,0v0a2.3,2.3,0,0,0-.77,1,.11.11,0,0,0-.11.12c-.23.06-.35.28-.54.39-.36.2-.77.43-1.12.07a2,2,0,0,1-.56-1.59c.1-1.4.74-2.7.75-4.12a.36.36,0,0,1,.08-.2,3.17,3.17,0,0,0,.59-1.84,8.86,8.86,0,0,1,.79-2.41c.13-.36.41-.82,0-1.07s-.7.18-.93.5c-.07.09-.12.19-.19.28a18.08,18.08,0,0,0-1.4,2.51l0,0,0,0a.24.24,0,0,0-.18.26h0v0a4.77,4.77,0,0,0-.84,1.61h0v0c-.55.23-.54.82-.8,1.24l-.11.1c-.27.14-.35.42-.49.65l0,0,0,0c-.26.2-.14.47-.14.72l0,.11c-.56,0-.4.51-.57.79s-.26.27-.28.47l-.23.41a.2.2,0,0,0,0,.25,2.64,2.64,0,0,0-.81,1.24h0c-.27.13-.14.54-.45.65-.62.23-.76.8-.94,1.34h0a2.25,2.25,0,0,0-.4.6c-.11,0-.13.11-.12.22a.35.35,0,0,0-.17.28h0c-.22.14-.18.42-.34.62a2.94,2.94,0,0,0-.71,1.57c-.23.18-.52.31-.45.68l-.22.34a.16.16,0,0,0-.15.16.52.52,0,0,0-.26.38l-.08.3a.82.82,0,0,0-.37.45h0l-.44.44h0c-.53.75-1,.77-1.68.07l-.39-.4a.06.06,0,0,0,0-.07c-.2-.53-.36-1.09-.61-1.6a21,21,0,0,0-1-2.27l0,0v0c-.42-.34-.75.1-.92.27-.75.76-1.43,1.6-2.11,2.44-.27.33-.74.45-.86.91h0c-.5.32-.44,1-.9,1.35a3.47,3.47,0,0,0-.91,1.36l0,0,0,0c-.43.44-1,.72-1.26,1.35A1.89,1.89,0,0,1,75,59a.67.67,0,0,1-.87-.05,2.83,2.83,0,0,1-1-1.63A1.64,1.64,0,0,0,72.36,56h0c-.38-.43-.32-1-.54-1.5-.12-.26,0-.69-.35-.75s-.35.39-.53.6a21.19,21.19,0,0,0-2.48,4.24c-.16.3-.45.51-.53.89a2.66,2.66,0,0,1-.84,1.73.82.82,0,0,0-.29.47,1.57,1.57,0,0,1-.63.83l0,0a1.8,1.8,0,0,0-.34.17c-.33.32-.55.22-.89,0s-.48-.92-.67-1.41a13.22,13.22,0,0,1-.53-3.29c0-.26-.25-.46-.19-.75a17.65,17.65,0,0,0,.2-3.56l0-.23c.14-.3-.07-.6,0-.9v-.23A10.06,10.06,0,0,0,63.94,51c.16-.92.14-1.84.29-2.75a2.2,2.2,0,0,0-.06-.77.44.44,0,0,0-.61-.39c-.15,0-.3,0-.44.07a2,2,0,0,0-1.57,1.47,25.83,25.83,0,0,1-.84,3.25,24.61,24.61,0,0,0-.61,2.39c-.21.88-.41,1.76-.59,2.65-.14.7-.62,1.31-.55,2.07a.4.4,0,0,0,0,.34.91.91,0,0,0-.3.59,17.53,17.53,0,0,1-1.09,3.38,1,1,0,0,0-.05.43,10.25,10.25,0,0,1-.23,2.39,4.3,4.3,0,0,0-.22,1.9c0,.14,0,.32.2.37s.26-.12.35-.24A13.74,13.74,0,0,0,58.72,66a2,2,0,0,1,.65-.9.57.57,0,0,1,.68-.08c.25.15.17.38.14.6-.09.67-.65,1.25-.37,2,0,0,0,.1-.09.13-.72.52-.51,1.44-.9,2.11s-.52,1.66-1,2.44A5.42,5.42,0,0,0,57,74.21a1.35,1.35,0,0,1-.23.68c-.37.4-.23.64.17.87.11.06.34,0,.3.26s-.2.2-.34.26c-.31.12-.71.11-.88.44a5.15,5.15,0,0,0-.64,1.9c0,.42.06.66.58.45s1,0,1.08.63L57,80a1.71,1.71,0,0,1-2,.49.31.31,0,0,0-.46.14l0,0,0,0c-.7.57-.77.91-.36,1.66.12.23.37.45.18.76h0a.23.23,0,0,0-.23.13h-.35c-.08-.12-.17-.13-.25,0h0l0,0c-.44.11-.61.47-.77.84l-.06.13-.75,1.22h0a.35.35,0,0,0-.29.2h0v0a.88.88,0,0,1-1.4-.25c0-.07-.16-.1-.24-.15h0c-.23-.28-.4-.06-.53.1s-.4.56-.59.84a.16.16,0,0,0-.17.14,2.43,2.43,0,0,0-.78.68h0a.52.52,0,0,0-.32.34h0c-.93.63-1.68,1.46-2.54,2.17a2.08,2.08,0,0,0-.65,1c-.31.89-.09,1.85-.38,2.73l0,.23a3.88,3.88,0,0,0-.52,1.32,7.24,7.24,0,0,0,0,1.39h0a1.61,1.61,0,0,0-.41,1.57V98a1.42,1.42,0,0,0-.47,1.37.4.4,0,0,0,0,.34,4.56,4.56,0,0,1-.55,1.31c-.14.2-.11.54-.19.78-.17.57,0,1.17-.33,1.75a2.46,2.46,0,0,0-.18,1.56v.24a1.1,1.1,0,0,0-.14.09c-.63.62-.59,1.49-.85,2.26-.1.27,0,.61-.12.88a4,4,0,0,0-.59,2.35.49.49,0,0,1-.14.29,3.5,3.5,0,0,0-.49,1.24c-.12.4,0,.83-.21,1.19h0c-.16.09-.09.26-.13.4a11.35,11.35,0,0,1-.87,2.66h0a.43.43,0,0,0-.31.37c-.17,1-.95,1.74-1,2.76a.36.36,0,0,1-.19.27c-.64.52-.93,1.34-1.58,1.86s-.85,1.42-1.32,2.1l0,0v0a2.83,2.83,0,0,0-1.12,1.3h0c-.4.17-.22.64-.46.9h0c-.13,0-.18.12-.25.2-.65.72-1.09,1.6-1.78,2.29-.16.18-.3.38-.45.57h0c-.3.24-.7.33-.92.67l0,0,0,0a7.78,7.78,0,0,1-1.48,2l0,0,0,0c-.2.11-.23.31-.29.5l-.12.12a1.48,1.48,0,0,1-1.25.46c-.5,0-.67.2-.64.72,0,.32,0,.64,0,.95l-.23.23c-.17,0-.23.18-.29.31h0v0s-.09,0-.11,0a2,2,0,0,1-1.89.55.51.51,0,0,0-.54.68,2,2,0,0,1-.36,1.77h0v0c-.36.36-1,.4-1.21.86a6.08,6.08,0,0,1-.69,1,.41.41,0,0,0-.27.27.41.41,0,0,0-.24.26l0,0v0a1.19,1.19,0,0,0-.79.57l0,0,0,0c-.18.18-.37.36-.54.54-.75.82-1.5,1.63-2.18,2.5l0,0,0,0c-.41.42-1,.52-1.43.95h0v0a.46.46,0,0,0-.29.24h0a.29.29,0,0,0-.29.22c-.14.6-.65.86-1,1.25s-.83.17-1,.61h0c-.51.19-.45.75-.72,1.1a.3.3,0,0,0-.2.22.28.28,0,0,0-.26.21l0,0,0,0a1.33,1.33,0,0,0-.65.49h0a1.56,1.56,0,0,0-.7.67.29.29,0,0,0-.2.24,2.73,2.73,0,0,1-.93.59.85.85,0,0,0-.59.47h0c-.19.19-.43.33-.53.59h0c-.13,0-.2.05-.27.14a1.41,1.41,0,0,1-1.39.48s0-.05-.06-.05a.28.28,0,0,0-.26-.24l-.1-.09c-.23-.3-.62-.29-.93-.46a.16.16,0,0,0-.16-.12.8.8,0,0,0-.52-.43l-.13-.06a11,11,0,0,1-1.23-.83v0h0a1.31,1.31,0,0,0-.52-.44l-.1-.1L0,149.31,0,149a14.87,14.87,0,0,0,.32-1.79c.18-.7.5-1.34.67-2l0-.22a.61.61,0,0,0,.23-.34.2.2,0,0,0,.18-.24.49.49,0,0,0,.17-.44l0,0c.24-.2.21-.5.31-.75h0a1,1,0,0,0,.39-.68.07.07,0,0,0,0-.09c.35-.24.14-.71.4-1l0,0,0,0c.3-.24.33-.65.58-.93h0v0c.63-.16,1.11-.41.88-1.21a.93.93,0,0,1,.09-.48c.58-1.9,1.88-3.42,2.81-5.13a2.11,2.11,0,0,1,.39-.4,2.2,2.2,0,0,0,.53-.65l0,0a.38.38,0,0,0,.31-.46.22.22,0,0,0,0-.22,3.39,3.39,0,0,1,1.33-2.25,5.29,5.29,0,0,0,.9-.74h0a.43.43,0,0,0,.14-.51,2.28,2.28,0,0,1,.47-2.22c.46-.57.39-1.35.8-1.94l0,0v0a18.46,18.46,0,0,1,1.15-1.49l0,0,0,0c.3-.11.39-.38.52-.63.3-.59.59-1.15,1.44-1.1.45,0,.69-.41.58-.89a2,2,0,0,1,.1-1.37,8.42,8.42,0,0,0,.42-.92c.13-.48.57-.66.89-.86s.81-.15.95.32a3.66,3.66,0,0,1,.27,1.47c-.1.82-.43,1.59-.51,2.39A9.81,9.81,0,0,1,17.1,124a.91.91,0,0,0-.13.48,5.72,5.72,0,0,1-.18,1.55,4.18,4.18,0,0,1-.91,1.51.53.53,0,0,1-.68.1c-.8-.47-1-.18-1.39.84v.22a.47.47,0,0,0-.11.34l0,0v0a1,1,0,0,0-.14.16c-.37,1-.74,1.94-1.12,2.91h0c-.45.22-.4.72-.59,1.08a6.52,6.52,0,0,0-.74,1.77c-.17.89-.63,1.69-.76,2.59,0,.17-.22.33-.05.5a.48.48,0,0,0,.57.07c.86-.35,1.26-1.15,1.83-1.8a.32.32,0,0,0,.21-.24c.23-.14.52-.22.6-.53h0c.33-.43.82-.72,1-1.27h0v0c.43-.22.61-.7,1-.93l0,0,0,0a.83.83,0,0,0,.45-.45l0,0,0,0a2.93,2.93,0,0,0,1-1,11.83,11.83,0,0,1,1.53-2.06l0,0,0,0a2.38,2.38,0,0,0,.58-.56h0a2.7,2.7,0,0,0,.65-.52,26,26,0,0,1,2.27-2.65l0,0,0,0c.3,0,.45-.3.68-.44a3.39,3.39,0,0,0,1.4-1.56c.62-1.5,1.45-2.91,2.2-4.35v0a10,10,0,0,0,1.29-2.47,2.79,2.79,0,0,1,.56-1,2,2,0,0,0,.48-.87h0v0a.76.76,0,0,0,.45-.48c.41-1.14,1.26-2.08,1.6-3.26l0,0,0,0c.3-.44.34-1,.69-1.43l0,0a1.79,1.79,0,0,0,.56-1.3l0,0v0a3.61,3.61,0,0,0,1.15-1.55.78.78,0,0,1,.38-.46c.51-.33,1-.64.81-1.42A1.21,1.21,0,0,1,35,104c.45-.24.8.05,1.13.37s.67.25,1-.25a1.39,1.39,0,0,0,.3-.83,1.77,1.77,0,0,1,.65-1.92.15.15,0,0,0,.14-.15.63.63,0,0,0,.36-.8.89.89,0,0,1,.64-1.26.7.7,0,0,0,.48-.85c-.13-.35-.25-.88-.82-.76s-.72-.13-.92-.51-.72-.69-1-.48a1.44,1.44,0,0,0-.68.72h0c-.39.42-1,.63-1.3,1.1A4.7,4.7,0,0,1,34,99.45a4,4,0,0,0-1,1.35l-.11.13a1.22,1.22,0,0,0-.62.54c-.42.64-1,1.13-1.4,1.8-.16.29-.61.31-.69.69h0v0a1.6,1.6,0,0,0-.48.49h0l0,0a3.74,3.74,0,0,0-.79,1h0c-.33.3-.61.73-1,.89a1.88,1.88,0,0,0-1,1.48h0c-.24.11-.44.25-.45.55l-.24.3a.3.3,0,0,0-.23.38c-.11.21-.34.38-.26.66-.24.26-.5.51-.43.91,0,0,0,.09,0,.13a.54.54,0,0,0-.26.33,3.77,3.77,0,0,0-.7.84,2,2,0,0,0-.88,1.42l0,0v0c-.24.15-.2.49-.42.66s-.27.2-.28.39c-.35.31-.73.6-.62,1.14l-.28.67a.22.22,0,0,0-.13.21.25.25,0,0,0-.1.24c-.09.06-.17.12-.17.24-.28.33-.4.78-.81,1-.17,0-.29.24-.5.14l-.47-.37,0-.66a1.2,1.2,0,0,0,.14-.67c.23-.15.29-.4.42-.63a14.51,14.51,0,0,1,.82-2,.26.26,0,0,0,.19-.23.47.47,0,0,0,.35-.33h0a.67.67,0,0,0,.34-.46h0c.45-.23.08-.72.32-1l0,0v0a.34.34,0,0,0,.21-.29h0a.47.47,0,0,0,.3-.47l.15-.21c.35-.08.35-.41.49-.65l0,0,0,0c.53-.49.66-.92.42-1.39a.25.25,0,0,0-.13-.23c0-.22-.26-.28-.41-.4a.15.15,0,0,0-.13-.16,2,2,0,0,1,.12-1l.05-.14a.81.81,0,0,0,.27-.54.25.25,0,0,0,.16-.25,1.09,1.09,0,0,0,.47-.88l.05-.23a7.9,7.9,0,0,0,.56-2.59l.09-.13c.1-.35.58-.47.59-.89h0v0c.11,0,.26-.1.24-.19-.06-.55.42-.88.54-1.34,0-.05,0-.09,0-.14.14-.21.27-.43.41-.65h0c.92-.65,1.13-1.79,1.83-2.58l0,0,0,0a2.4,2.4,0,0,1,1.05-.8,1,1,0,0,0,.6-.7h0v0a.4.4,0,0,0,.25-.26h.05l0,0a.26.26,0,0,0,.27-.19c.06,0,.09,0,.08-.09l1.62-1.68h0a.77.77,0,0,0,.44-.35l0,0,0,0A23.1,23.1,0,0,1,35.27,90h0a.54.54,0,0,0,.16-.4h0a4.07,4.07,0,0,0,1-.78h0a5.15,5.15,0,0,0,1.48-1.46h0a1.47,1.47,0,0,0,.78-.69c.17-.14.11-.3.07-.47l.13-.22h0a4.86,4.86,0,0,0,1.39-.85v0a.27.27,0,0,0,.21-.25h0c.2-.1.23-.32.33-.49.62-1.06.43-2.31.91-3.42.39-.89.34-2,1.11-2.72a.62.62,0,0,0,.13-.58,1.3,1.3,0,0,1,.51-1.47c.24-.16.39-.38.07-.63v0l0,0-.23-.9v-.36c.22-.37.15-.93.87-1,1,0,1-.12,1.1-1.16a2.67,2.67,0,0,0,0-.4c0-.16,0-.37-.16-.43s-.22.15-.31.27c-.25.35-.61.37-.79,0a1.39,1.39,0,0,1-.24-.84c.24-.86,0-1.81.5-2.62.06-.1,0-.26,0-.38s.38-.46.21-.79a.37.37,0,0,0,0-.34,2,2,0,0,1,0-.24c.29-.28.14-.67.23-1l0-.22c.07-.38.49-.69.24-1.14a.51.51,0,0,0-.16-.44l.1-.2c.23-.08.27-.27.27-.48a1.08,1.08,0,0,0,.17-.4A21.76,21.76,0,0,0,45.76,60a.47.47,0,0,0,0-.35l.2-.89,0-.23a11.62,11.62,0,0,0,.35-2.19,6.27,6.27,0,0,0,0-1.06.34.34,0,0,0-.26-.33.29.29,0,0,0-.33.14,9.51,9.51,0,0,1-1.5,1.73h0l0,0a4,4,0,0,1-.8.9l0,0v0a3,3,0,0,0-.67.71h0a.7.7,0,0,0-.36.43l0,0,0,0-.61.51h0a1.34,1.34,0,0,0-.74,1l-.06.12a1.46,1.46,0,0,0-.78.89h0a11.29,11.29,0,0,0-1.84,1.88h0l-.59.67,0,0,0,0c-.26.37-.88.39-1,1l-.14.13-.93,1h0a22.81,22.81,0,0,1-2.06,1.61,5.52,5.52,0,0,0-2.08,2.59l-.22.25c-.39.37-.93.61-1,1.21l0,0c-.23.2-.57.26-.76.53a.29.29,0,0,0-.21.23,3.67,3.67,0,0,0-1.24.68l-.11.12a.28.28,0,0,0-.3.19.15.15,0,0,0-.16.14.4.4,0,0,0-.35.33h0a1.84,1.84,0,0,0-1,.4h0a.65.65,0,0,0-.45.39l-.21.06a.51.51,0,0,0-.57.27h0a4.07,4.07,0,0,0-1.52,1h0v0l-.74.26a3.45,3.45,0,0,1-3.1,0,.2.2,0,0,0-.17-.15c-.47-.51-1.2-.35-1.73-.7v-.05l0,0a.58.58,0,0,0-.41-.36h0l-.7-.65a.78.78,0,0,0-.39-.37l-.48-.5,0,0a.24.24,0,0,0-.22-.26.38.38,0,0,0-.22-.31A.38.38,0,0,0,15,72.5l-.23-.36a.59.59,0,0,0-.43-.57h0a.4.4,0,0,0-.2-.29.38.38,0,0,0-.24-.27c-.05-.14-.09-.28-.23-.35h0a2.35,2.35,0,0,0-.36-.66,1.2,1.2,0,0,0-.34-.57.31.31,0,0,0-.22-.32.33.33,0,0,0-.22-.24.36.36,0,0,0-.2-.3l-.07-.15c0-.15,0-.29-.17-.36,0-.76-.8-1-1.11-1.63a2.49,2.49,0,0,0-.59-.72.22.22,0,0,0-.12-.23.71.71,0,0,0,0-.45.73.73,0,0,0-.27-.81l-.08-.09a5.4,5.4,0,0,0-1.08-2c-.19-.28-.11-.67-.42-.88,0,0,0-.07,0-.07-.31-.66-.59-1.33-.92-2a1.22,1.22,0,0,1,0-1.13,1.24,1.24,0,0,0,0-1A1.17,1.17,0,0,1,7.56,56a3,3,0,0,0,.23-.79,5.1,5.1,0,0,1,.58-2.11A4.24,4.24,0,0,0,9.16,51a3.67,3.67,0,0,1,1.18-2.25c.4-.4.79-.65.71-1.31a.92.92,0,0,1,.47-.85c.11-.06.23-.14.19-.3a.32.32,0,0,0,0-.33c.08-.57,0-1.19.57-1.57a.76.76,0,0,0,.42-.73,1,1,0,0,1,.19-.52c.79-1.23,1.23-2.66,2.09-3.85A.41.41,0,0,0,15,39a2.39,2.39,0,0,0,.81-1.05,2.65,2.65,0,0,1,.88-1.2.62.62,0,0,0,.25-.64,1.3,1.3,0,0,1,.78-1.56.76.76,0,0,0,.43-.94.62.62,0,0,1,.28-.73,2,2,0,0,0,.88-1.44c0-.21.14-.45.33-.49.75-.13,1-.54,1.11-1.29A4.4,4.4,0,0,1,22,27.52c.95-1.09,1.71-2.31,2.67-3.37A7.49,7.49,0,0,1,26,22.75a7.11,7.11,0,0,0,1.63-1.35c.47-.53.93-1.07,1.4-1.61A5.12,5.12,0,0,0,30,18.47a3,3,0,0,1,2.51-1.31.82.82,0,0,0,.9-.28c.22-.3-.13-.46-.25-.67a1.16,1.16,0,0,1,.1-1.31,1.11,1.11,0,0,1,1.46.06.39.39,0,0,0,.45.12.92.92,0,0,0,.56-1.36,1.08,1.08,0,0,1,.15-1.33h0a3.56,3.56,0,0,1,1.45-1.15,1.83,1.83,0,0,0,.82-.64h0A5.9,5.9,0,0,1,40,9.6l.45,0,.25.11c.92.31,1.16.14,1.34-.84a2.52,2.52,0,0,1,.29-1.19,7.69,7.69,0,0,1,2.64-2.06,1,1,0,0,0,.36-.26,6.55,6.55,0,0,1,2.18-1.45c.83-.38,1.59-.88,2.38-1.31s1.82-.84,2.67-1.4A9.16,9.16,0,0,1,55,.32,4.31,4.31,0,0,1,56.38,0c1.31.06,2.62.19,3.93.16a20.1,20.1,0,0,1,3.1.54,8.42,8.42,0,0,1,1.65.73v0a.25.25,0,0,0,.27.18.19.19,0,0,0,.22.13.16.16,0,0,0,.21.12h0c0,.15.11.21.25.24a.34.34,0,0,0,.28.21,15.57,15.57,0,0,1,1.88,1.54h0a5.34,5.34,0,0,1,.94,4.42,30,30,0,0,1-.62,3.11,9.93,9.93,0,0,1-1,2.55,19.54,19.54,0,0,1-1.21,1.66h0v.05l-.1,0c-.58.4-.59,1.05-.66,1.65a.64.64,0,0,1-.65.62c-.37,0-.46-.32-.45-.65a4,4,0,0,1,0-.61c.13-.57.46-1.23-.47-1.48,0,0,0,0,0,0a2.63,2.63,0,0,1-.18-2.37,4.75,4.75,0,0,0,.26-1.51,3.47,3.47,0,0,0-.1-.71,2.39,2.39,0,0,0-.91-1.8c-.41-.32-.79-.82-1.24-.9-.82-.14-1.57-.74-2.47-.47a1.08,1.08,0,0,1-.5-.05,1.71,1.71,0,0,0-.95,0c-.89.27-1.82.41-2.73.66A9.64,9.64,0,0,0,52,9c-.86.57-1.83.89-2.72,1.39-1.18.67-2.4,1.25-3.61,1.85-.89.44-1.53,1.32-2.62,1.41a1.72,1.72,0,0,0-1.34,1.09c-.13.22-.24.43-.49.5a1.69,1.69,0,0,0-1,.81,1.81,1.81,0,0,1-1.4.92.85.85,0,0,0-.79.75,1.12,1.12,0,0,1-.77.79,2.68,2.68,0,0,0-1,.72c-.41.44-.54,1-.89,1.46-.79.93-1.73,1.75-2.47,2.73-.46.61-1.06,1.1-1.51,1.73s-1.07,1.47-2.16,1.37c-.34,0-.54.32-.59.66a2,2,0,0,0,0,.95,1,1,0,0,1-.16.85,8.17,8.17,0,0,0-.8,1.48c-.43,1.14-.87,1.26-1.69,1a.64.64,0,0,0-.83.69,3.37,3.37,0,0,0,.2,1.05,2.21,2.21,0,0,1,0,1.64c-.42,1.43-1.1,2.77-1.65,4.15a2.06,2.06,0,0,1-.35.82A1.4,1.4,0,0,0,23,41a1,1,0,0,1-.38,1.09.54.54,0,0,0-.23.59A1.77,1.77,0,0,1,22,44.28h0a1,1,0,0,0-.6.62,21.15,21.15,0,0,0-.56,2.32,10.17,10.17,0,0,1-.6,2.43,6.3,6.3,0,0,0-.6,1.43.86.86,0,0,1-1,.8c-.63,0-.72.63-1.1.9-.07,0,0,.21.12.28l0,.33c0,.27.18.38.37.49h0a.25.25,0,0,0,.29.21c.47,0,.59.29.67.66l0,.34a1,1,0,0,1,0,.38,12.61,12.61,0,0,0-.34,3l0,.46c-.07.08-.07.15,0,.21v.36a1.72,1.72,0,0,0-.13.85c0,.68.15,1.33.25,2,.14,1-.06,2.07.07,3.12a1.47,1.47,0,0,0,.66,1.14,3.23,3.23,0,0,0,1.9.58,16.92,16.92,0,0,1,3.33.39.81.81,0,0,0,1.08-.41c.1-.2.25-.48.52-.45.46,0,.83-.23,1.26-.27a.59.59,0,0,0,.57-.52l0-.23a3,3,0,0,0,.26-.36c.34-.66.69-1.27,1.6-1.2.28,0,.45-.16.43-.47,0-.13.08-.24.11-.36.16-.61.66-1,1-1.44h0a1.08,1.08,0,0,0,.18-.11,21.22,21.22,0,0,0,3.17-3,21.08,21.08,0,0,0,1.64-1.78h0A.3.3,0,0,0,37,56.7s.07,0,.07-.06A9.09,9.09,0,0,0,38.63,55a28.05,28.05,0,0,1,2.57-2.66A1,1,0,0,1,42.16,52ZM92.43,32.16c0-.7-.26-1.09-.67-1.08a2,2,0,0,0-1.21.37A9.12,9.12,0,0,0,88,35.11c-.49,1-.46,2.16-.89,3.19a.36.36,0,0,0,0,.32,1.22,1.22,0,0,1,0,1c-.08.24-.09.46.17.57s.36-.16.47-.34a.9.9,0,0,0,.17-.47.6.6,0,0,1,.35-.53c.56-.34,1.16-.67,1.07-1.49,0-.15.15-.21.23-.31.44-.58,1.33-.85,1.3-1.78a.2.2,0,0,1,.09-.13c.7-.31.85-1,1.09-1.61C92.2,33.06,92.31,32.57,92.43,32.16Zm-13,3.51a.53.53,0,0,0-.29-.64c-.24-.11-.38.1-.47.28s-.3.23-.41.35c-.65.7-1.64,1.17-1.65,2.32,0,.17-.14.25-.25.36a2.57,2.57,0,0,0-.75,1.41,17.43,17.43,0,0,1-.43,2,.8.8,0,0,0,0,.55c.08.17.12.37.36.38a.5.5,0,0,0,.5-.29,14.36,14.36,0,0,1,1.18-1.63A6.1,6.1,0,0,0,78,39.62a13,13,0,0,0,.87-2.24C79,36.78,79.48,36.29,79.45,35.67Zm-17.22,4a5.4,5.4,0,0,0,0-.62c0-.42-.44-.6-.7-.28a2.93,2.93,0,0,0-.79,1.81c0,.41,0,.84,0,1.23s.07,1,.07,1.5c0,.2.08.4.3.4s.32-.24.31-.45a2.1,2.1,0,0,1,.18-1C62,41.37,61.92,40.4,62.23,39.68ZM37.39,90.41c0,.37.14.57.51.44a2.44,2.44,0,0,0,1.72-1.45c.13-.36.24-.71-.13-1s-.65,0-.89.26-.54.67-.85,1S37.51,90.17,37.39,90.41ZM10.92,56.24a.74.74,0,0,0,.61-.65.4.4,0,0,0-.45-.46.54.54,0,0,0-.52.55A.5.5,0,0,0,10.92,56.24Zm18,44c0-.12.05-.41-.22-.35s-.45.38-.52.68a.3.3,0,0,0,.33.36C28.86,100.93,28.91,100.64,28.91,100.28ZM66.77,5.6c-.22,0-.27.16-.3.33a.31.31,0,0,0,.26.41.33.33,0,0,0,.4-.3C67.15,5.8,67,5.68,66.77,5.6ZM49.87,84c0-.21-.06-.37-.28-.37s-.28,0-.26.22a.43.43,0,0,0,.35.39C49.87,84.25,49.87,84.09,49.87,84ZM8.79,140.47a.17.17,0,0,0,.17-.18c0-.1,0-.19-.15-.2a.19.19,0,0,0-.2.21C8.61,140.41,8.68,140.46,8.79,140.47Z"/></g></g></svg>