<svg xmlns="http://www.w3.org/2000/svg" viewBox="0 0 226.62 57.89"><defs><style>.cls-1{fill:#fff;}</style></defs><title>iba-caw-white-logo</title><g id="Layer_2" data-name="Layer 2"><g id="Layer_1-2" data-name="Layer 1"><path class="cls-1" d="M89.73,10.19H86.31c-.46,0-.69.21-.69.64v7.31c0,.43.23.64.69.64h3.42c.47,0,.69-.21.69-.64V10.83C90.42,10.4,90.2,10.19,89.73,10.19Z"/><path class="cls-1" d="M194.12,10.19H190.7c-.47,0-.69.21-.69.64v7.31c0,.43.22.64.69.64h3.42c.46,0,.69-.21.69-.64V10.83C194.81,10.4,194.58,10.19,194.12,10.19Z"/><path class="cls-1" d="M67.78,0l-9,27.63H217.65l9-27.63ZM80.86,12.49H78V10.83c0-.43-.23-.64-.69-.64H74.1c-.47,0-.69.21-.69.64v7.31c0,.43.22.64.69.64h3.16c.46,0,.69-.21.69-.64V16.48h2.91v2.19A2.65,2.65,0,0,1,78,21.34H73.37a2.65,2.65,0,0,1-2.88-2.67V10.31a2.66,2.66,0,0,1,2.88-2.68H78a2.65,2.65,0,0,1,2.87,2.68Zm12.48,6.18a2.65,2.65,0,0,1-2.88,2.67H85.58a2.65,2.65,0,0,1-2.87-2.67V10.31a2.65,2.65,0,0,1,2.87-2.68h4.88a2.66,2.66,0,0,1,2.88,2.68ZM107,21.26h-3.14L98.52,12v9.24H95.79V7.71h3.14L104.29,17V7.71H107Zm12.68-2.59a2.65,2.65,0,0,1-2.88,2.67H112.3a2.65,2.65,0,0,1-2.88-2.67V16.93h2.84v1.21c0,.43.22.64.68.64h3.16c.47,0,.69-.21.69-.64V16.71c0-.4-.2-.55-.69-.64l-3.76-.76c-1.7-.35-2.92-1.28-2.92-2.71V10.31a2.66,2.66,0,0,1,2.88-2.68h4.29a2.65,2.65,0,0,1,2.87,2.68v1.58h-2.83V10.83c0-.43-.22-.64-.69-.64H113c-.47,0-.69.21-.69.64v1.28c0,.4.2.55.69.64l3.76.76c1.7.35,2.92,1.28,2.92,2.71Zm11.6-8.44h-3.8v11h-2.92v-11h-3.81V7.71h10.53Zm9.32,11-2.35-5h-2.35v5H133V7.71h7.43a2.65,2.65,0,0,1,2.87,2.67v3.18a2.55,2.55,0,0,1-2,2.56l2.43,5.14ZM156,18.67a2.65,2.65,0,0,1-2.87,2.67h-4.66a2.65,2.65,0,0,1-2.88-2.67v-11h2.92V18.14c0,.43.22.64.69.64h3.2c.46,0,.68-.21.68-.64V7.71H156Zm12.6-6.18h-2.92V10.83c0-.43-.22-.64-.69-.64H161.8c-.47,0-.69.21-.69.64v7.31c0,.43.22.64.69.64H165c.47,0,.69-.21.69-.64V16.48h2.92v2.19a2.65,2.65,0,0,1-2.88,2.67h-4.61a2.65,2.65,0,0,1-2.88-2.67V10.31a2.66,2.66,0,0,1,2.88-2.68h4.61a2.66,2.66,0,0,1,2.88,2.68ZM180,10.23h-3.8v11H173.3v-11h-3.81V7.71H180Zm4.62,11h-2.91V7.71h2.91Zm13.08-2.59a2.65,2.65,0,0,1-2.87,2.67H190a2.65,2.65,0,0,1-2.88-2.67V10.31A2.66,2.66,0,0,1,190,7.63h4.88a2.65,2.65,0,0,1,2.87,2.68Zm13.69,2.59h-3.13L202.91,12v9.24h-2.73V7.71h3.13L208.68,17V7.71h2.73Z"/><path class="cls-1" d="M139.72,10.27h-3.79v3.44h3.79c.46,0,.69-.2.69-.64V10.91C140.41,10.48,140.18,10.27,139.72,10.27Z"/><polygon class="cls-1" points="95.01 45.91 98.13 45.91 96.59 40.94 95.01 45.91"/><path class="cls-1" d="M126.72,40.45H123.3c-.46,0-.69.21-.69.64V48.4c0,.43.23.64.69.64h3.42c.47,0,.69-.21.69-.64V41.09C127.41,40.66,127.19,40.45,126.72,40.45Z"/><path class="cls-1" d="M56,40.53H52.17V44H56c.47,0,.69-.2.69-.64V41.17C56.65,40.73,56.43,40.53,56,40.53Z"/><path class="cls-1" d="M43.71,40.53H39.9v3.65h3.81c.46,0,.68-.21.68-.64V41.17C44.39,40.73,44.17,40.53,43.71,40.53Z"/><polygon class="cls-1" points="15.19 45.91 18.31 45.91 16.77 40.94 15.19 45.91"/><path class="cls-1" d="M31.43,40.53h-3.8v3.65h3.8c.47,0,.69-.21.69-.64V41.17C32.12,40.73,31.9,40.53,31.43,40.53Z"/><path class="cls-1" d="M9,30.26,0,57.89H207.84l9-27.63ZM20.05,51.52l-.95-3.05H14.38l-1,3.05h-3L15.09,38h3.4l4.7,13.55Zm15-7.45a2.65,2.65,0,0,1-2.88,2.67H27.63v4.78H24.71V38h7.45A2.65,2.65,0,0,1,35,40.64Zm12.27,0a2.65,2.65,0,0,1-2.88,2.67H39.9v4.78H37V38h7.45a2.65,2.65,0,0,1,2.88,2.67Zm9.56,7.45-2.35-5H52.17v5H49.26V38h7.43a2.65,2.65,0,0,1,2.87,2.67v3.18a2.55,2.55,0,0,1-2,2.56L60,51.52Zm14.68-11H64.93v2.78H70.3v2.56H64.93V49h6.62v2.56H62V38h9.53Zm12,2.22H80.67V41.09c0-.43-.22-.64-.69-.64H76.82c-.46,0-.69.21-.69.64V48.4c0,.43.23.64.69.64H80c.47,0,.69-.21.69-.64V46.74h2.91v2.18a2.65,2.65,0,0,1-2.87,2.68H76.09a2.65,2.65,0,0,1-2.87-2.68V40.56a2.65,2.65,0,0,1,2.87-2.67h4.62a2.65,2.65,0,0,1,2.87,2.67Zm5.11,8.77H85.77V38h2.92Zm11.18,0-1-3.05H94.2l-1,3.05h-3L94.91,38h3.4L103,51.52Zm12.76-11h-3.81v11H105.9v-11h-3.8V38h10.53Zm4.62,11h-2.92V38h2.92Zm13.08-2.6a2.66,2.66,0,0,1-2.88,2.68h-4.88a2.65,2.65,0,0,1-2.87-2.68V40.56a2.65,2.65,0,0,1,2.87-2.67h4.88a2.65,2.65,0,0,1,2.88,2.67ZM144,51.52h-3.14l-5.37-9.24v9.24h-2.73V38h3.14l5.37,9.24V38H144Zm20.29,0h-2.75l-2.39-8.92-2.39,8.92h-2.87L150.28,38h3.12l2,9.9L158,38h2.3l2.64,9.9,2-9.9h3Zm14.73-11h-6.62v2.78h5.36v2.56h-5.36V49H179v2.56H169.5V38H179Zm11.7,0h-6.62v2.78h5.37v2.56h-5.37V49h6.62v2.56h-9.53V38h9.53Zm10.46,11-3.37-5.89-2,2.43v3.46h-2.88V38h2.88v6.36l5-6.36h3.42l-4.47,5.34,4.7,8.21Z"/><path class="cls-1" d="M18.89,0l-9,27.63H56.18L65.15,0ZM37.35,21.26H28.67l4.15-2.7h11.1C41.55,20.09,40.54,21.09,37.35,21.26Zm6.15-4.05H34.89l1.31-.85a13.38,13.38,0,0,1,7.24-1.95l5.54,0C47.3,15.77,46.11,17,43.5,17.21ZM48.62,13H42.28a15.18,15.18,0,0,0-2.52.17,11.75,11.75,0,0,0-4.23,1.63c-.48.31-4.58,3.32-7,5.13l0,0-1.83,1.32h0l2.21-6.81-5.79-4.21h7.16l2.21-6.81,2.22,6.82-2.48,3.42s3.82-3.39,7.1-3.42H54C52.34,11.54,51.18,12.75,48.62,13Z"/></g></g></svg>