<svg xmlns="http://www.w3.org/2000/svg" viewBox="0 0 390.62 248.97"><title>client-iba</title><g id="Layer_2" data-name="Layer 2"><g id="Layer_1-2" data-name="Layer 1"><path d="M143.52,140.25A11.32,11.32,0,0,0,149.46,130v-7.16c0-8-5.47-13.5-13.38-13.5H101.8v63.37h35c7.91,0,13.37-5.51,13.37-13.49v-8.69C150.21,145.85,148,142.43,143.52,140.25Zm-28.16-18.19h17.33c2.17,0,3.2,1,3.2,3.23v4.38c0,2.66-.66,4.5-3.2,4.5H115.36Zm21.29,34.67c0,2.19-1,3.23-3.2,3.23H115.36V146.33h17c3.1,0,4.33.38,4.33,3Z" style="fill:#fff"/><path d="M193.07,156.68c0,2.17-1,3.21-3.2,3.21H175.46c-2.16,0-3.2-1-3.2-3.21V109.32H158.7v50c0,7.91,5.46,13.37,13.37,13.37h21.19c7.91,0,13.38-5.46,13.38-13.37v-50H193.07Z" style="fill:#fff"/><rect x="217.44" y="109.32" width="13.56" height="63.37" style="fill:#fff"/><polygon points="255.32 109.32 241.75 109.32 241.75 172.69 286.14 172.69 286.14 159.89 255.32 159.89 255.32 109.32" style="fill:#fff"/><path d="M331.31,109.32H296v63.37h35.32c7.91,0,13.38-5.51,13.38-13.49V122.82C344.69,114.83,339.22,109.32,331.31,109.32Zm-.19,47.22c0,2.19-1,3.23-3.2,3.23H309.56V122.25h18.36c2.17,0,3.2,1,3.2,3.23Z" style="fill:#fff"/><polygon points="53.27 109.89 53.27 109.89 45.94 109.89 45.94 123.45 53.27 123.45 53.27 159.13 45.94 159.13 45.94 172.69 53.27 172.69 66.83 172.69 74.16 172.69 74.16 159.13 66.83 159.13 66.83 123.45 74.16 123.45 74.16 109.89 66.83 109.89 53.27 109.89" style="fill:#fff"/><path d="M21.85,185.4,0,249H14l4.52-14.31h22L44.92,249h14.6L37.67,185.4Zm.47,37.26,7.35-23.31,7.16,23.31Z" style="fill:#fff"/><polygon points="98.36 222.66 80.85 185.41 65.97 185.41 65.97 248.97 78.78 248.97 78.78 206.59 93.47 238.81 103.26 238.81 117.95 206.59 117.95 248.97 130.76 248.97 130.76 185.41 115.88 185.41 98.36 222.66" style="fill:#fff"/><path d="M244.9,212.51V198.94c0-8-5.46-13.54-13.38-13.54H197V249h13.56V226.05h10.93L232.37,249H247l-11.3-23.49C241.32,223.86,244.9,219,244.9,212.51ZM231.34,210c0,2.19-1,3.24-3.21,3.24H210.52V198.37h17.61c2.17,0,3.21,1,3.21,3.24Z" style="fill:#fff"/><rect x="255.68" y="185.4" width="13.56" height="63.56" style="fill:#fff"/><path d="M314.86,185.4H293.39c-7.91,0-13.37,5.47-13.37,13.38v36.81c0,7.91,5.46,13.38,13.37,13.38h21.47c7.91,0,13.38-5.47,13.38-13.38V224.67H314.67V233c0,2.17-1,3.21-3.2,3.21H296.78c-2.17,0-3.2-1-3.2-3.21V201.42c0-2.17,1-3.21,3.2-3.21h14.69c2.17,0,3.2,1,3.2,3.21v8.28h13.57V198.78C328.24,190.87,322.77,185.4,314.86,185.4Z" style="fill:#fff"/><path d="M368.77,185.4H353L331.1,249h14l4.52-14.31H371.6L376,249h14.59Zm-15.35,37.26,7.35-23.31,7.16,23.31Z" style="fill:#fff"/><polygon points="152.56 223.54 182.33 223.54 182.33 210.84 152.56 210.84 152.56 198.11 187.29 198.11 187.29 185.41 152.56 185.41 139.85 185.41 139.85 185.41 139.85 198.11 139.85 198.11 139.85 210.84 139.85 210.84 139.85 223.54 139.85 223.54 139.85 248.97 140.06 248.97 140.06 248.97 187.5 248.97 187.5 236.26 152.56 236.26 152.56 223.54" style="fill:#fff"/><path d="M214.37,32.05h-3.89c-15.43.11-33.4,16.07-33.4,16.07l11.7-16.07L178.34,0l-10.4,32H134.28L161.51,51.8l-10.39,32,0,0h0l8.59-6.25.09-.16c11.55-8.51,30.79-22.65,33.05-24.12a56.26,56.26,0,0,1,19.87-7.67,74.19,74.19,0,0,1,11.86-.78h29.81c12-.93,17.45-6.65,25.15-12.79Z" style="fill:#fff"/><path d="M230,51.68c-12.68,0-24.93,3.28-34,9.18l-6.17,4h40.45c12.26-1,17.89-6.79,25.75-13.05Z" style="fill:#fff"/><path d="M180.13,71.18,160.62,83.91h40.8c15-.83,19.73-5.51,30.85-12.73Z" style="fill:#fff"/></g></g></svg>