<svg xmlns="http://www.w3.org/2000/svg" viewBox="0 0 182.95 40.28"><defs><style>.cls-1{isolation:isolate;}.cls-2{fill:#fff;}</style></defs><title>Group 5</title><g id="Layer_2" data-name="Layer 2"><g id="Layer_1-2" data-name="Layer 1"><g id="Group_5" data-name="Group 5"><g id="captivecolour" class="cls-1"><g class="cls-1"><path class="cls-2" d="M0,12.79v0A7.2,7.2,0,0,1,7.15,5.45a7.19,7.19,0,0,1,5.59,2.49L11.36,9.39a5.6,5.6,0,0,0-4.23-2.1,5.15,5.15,0,0,0-5,5.4v.05a5.22,5.22,0,0,0,5.13,5.43,5.77,5.77,0,0,0,4.27-2.08l1.32,1.24A7.22,7.22,0,0,1,0,12.79Z"/><path class="cls-2" d="M15.23,15.66V15.6c0-3,2.43-4.56,6-4.56a14.65,14.65,0,0,1,4.27.59V11.2c0-2.48-1.51-3.78-4.13-3.78a9.77,9.77,0,0,0-4.24,1l-.62-1.7a11.45,11.45,0,0,1,5.07-1.19,6.18,6.18,0,0,1,4.51,1.54,5.53,5.53,0,0,1,1.46,4.11v8.53H25.46V17.63a6.13,6.13,0,0,1-5,2.37C17.82,20,15.23,18.52,15.23,15.66Zm10.26-1.08v-1.3a14.31,14.31,0,0,0-4.08-.59c-2.59,0-4.08,1.13-4.08,2.8v.06c0,1.75,1.62,2.78,3.51,2.78C23.41,18.33,25.49,16.79,25.49,14.58Z"/><path class="cls-2" d="M31.91,5.75H34V8.56a6.27,6.27,0,0,1,5.35-3.11C42.68,5.45,46,8.1,46,12.69v.05C46,17.3,42.71,20,39.34,20A6.3,6.3,0,0,1,34,17v7H31.91Zm12,7v-.06c0-3.29-2.27-5.39-4.91-5.39a5.2,5.2,0,0,0-5.05,5.37v.05A5.2,5.2,0,0,0,39,18.14C41.66,18.14,43.87,16.14,43.87,12.77Z"/><path class="cls-2" d="M50.57,16V7.58H48.63V5.75h1.94V1.54h2.08V5.75h4.43V7.58H52.65v8.16A2.06,2.06,0,0,0,55,18.06a4.38,4.38,0,0,0,2-.49v1.78a5.2,5.2,0,0,1-2.51.6C52.27,20,50.57,18.84,50.57,16Z"/><path class="cls-2" d="M60.8.41h2.38V2.7H60.8Zm.14,5.34H63v14H60.94Z"/><path class="cls-2" d="M66.47,5.75h2.3l4.69,11.58L78.19,5.75h2.24L74.35,19.81H72.52Z"/><path class="cls-2" d="M89,18.22a5.76,5.76,0,0,0,4.4-2l1.3,1.16A7.21,7.21,0,0,1,89,20a7,7,0,0,1-7-7.29c0-4.05,2.84-7.29,6.7-7.29,4.13,0,6.5,3.3,6.5,7.4,0,.19,0,.4,0,.73H84.13A4.88,4.88,0,0,0,89,18.22Zm4.08-6.32c-.24-2.53-1.7-4.69-4.46-4.69-2.4,0-4.23,2-4.53,4.69Z"/></g><g class="cls-1"><path class="cls-2" d="M105.22,20a7.39,7.39,0,0,1-7.53-7.48V12.5A7.42,7.42,0,0,1,105.27,5a7.09,7.09,0,0,1,5.78,2.43l-2.51,2.7a4.22,4.22,0,0,0-3.3-1.6,3.7,3.7,0,0,0-3.51,3.94v.06a3.7,3.7,0,0,0,3.67,4A4.58,4.58,0,0,0,108.73,15l2.4,2.43A7.3,7.3,0,0,1,105.22,20Z"/><path class="cls-2" d="M120.5,20a7.52,7.52,0,0,1-7.8-7.48V12.5a7.83,7.83,0,0,1,15.65-.06v.06A7.59,7.59,0,0,1,120.5,20Zm3.8-7.53a3.84,3.84,0,0,0-3.8-4,3.7,3.7,0,0,0-3.75,3.94v.06a3.83,3.83,0,0,0,3.8,4,3.7,3.7,0,0,0,3.75-3.94Z"/><path class="cls-2" d="M131.52,19.71V0h4.1V19.71Z"/><path class="cls-2" d="M146.58,20a7.52,7.52,0,0,1-7.8-7.48V12.5a7.83,7.83,0,0,1,15.65-.06v.06A7.59,7.59,0,0,1,146.58,20Zm3.81-7.53a3.85,3.85,0,0,0-3.81-4,3.7,3.7,0,0,0-3.75,3.94v.06a3.84,3.84,0,0,0,3.8,4,3.71,3.71,0,0,0,3.76-3.94Z"/><path class="cls-2" d="M166.45,19.71V17.65A5.1,5.1,0,0,1,162.21,20c-3.1,0-4.91-2-4.91-5.37V5.24h4.1v8.07c0,1.94.92,2.94,2.49,2.94s2.56-1,2.56-2.94V5.24h4.1V19.71Z"/><path class="cls-2" d="M182.73,9.26c-2.72,0-4.4,1.65-4.4,5.1v5.35h-4.1V5.24h4.1V8.15c.84-2,2.19-3.29,4.62-3.18V9.26Z"/></g></g><g id="cosmetics" class="cls-1"><g class="cls-1"><path class="cls-2" d="M50.88,35.72v0a4.57,4.57,0,0,1,8-3l-.86.91a3.55,3.55,0,0,0-2.67-1.32,3.24,3.24,0,0,0-3.15,3.4v0a3.29,3.29,0,0,0,3.23,3.42,3.62,3.62,0,0,0,2.69-1.31l.83.78a4.55,4.55,0,0,1-8.09-2.86Z"/><path class="cls-2" d="M60.33,35.72v0a4.59,4.59,0,0,1,9.17,0v0a4.57,4.57,0,0,1-4.61,4.59A4.5,4.5,0,0,1,60.33,35.72Zm7.82,0v0a3.32,3.32,0,0,0-3.26-3.43,3.24,3.24,0,0,0-3.21,3.4v0a3.29,3.29,0,0,0,3.24,3.42A3.24,3.24,0,0,0,68.15,35.72Z"/><path class="cls-2" d="M71.13,39l.66-.93a5.16,5.16,0,0,0,3,1.12c1.06,0,1.82-.54,1.82-1.39v0c0-.88-1-1.22-2.19-1.54-1.38-.39-2.91-.87-2.91-2.49v0c0-1.51,1.26-2.52,3-2.52a6.05,6.05,0,0,1,3.17,1l-.6,1a4.92,4.92,0,0,0-2.6-.85c-1,0-1.7.54-1.7,1.27v0c0,.83,1.09,1.16,2.26,1.51,1.36.41,2.82.94,2.82,2.52v0c0,1.67-1.37,2.64-3.12,2.64A6,6,0,0,1,71.13,39Z"/><path class="cls-2" d="M80.32,31.29h1.31v1.48a3.21,3.21,0,0,1,2.84-1.67,3,3,0,0,1,2.82,1.75,3.51,3.51,0,0,1,3.1-1.75c2,0,3.26,1.36,3.26,3.54v5.44H92.34V34.94c0-1.7-.85-2.65-2.28-2.65A2.47,2.47,0,0,0,87.63,35v5.07H86.34V34.91c0-1.65-.86-2.62-2.26-2.62a2.55,2.55,0,0,0-2.45,2.77v5H80.32Z"/><path class="cls-2" d="M100.37,39.14a3.65,3.65,0,0,0,2.77-1.24l.81.73a4.51,4.51,0,0,1-3.62,1.65A4.37,4.37,0,0,1,96,35.69a4.34,4.34,0,0,1,4.21-4.59c2.6,0,4.1,2.07,4.1,4.66a4.3,4.3,0,0,1,0,.46h-7A3.08,3.08,0,0,0,100.37,39.14Zm2.56-4c-.15-1.59-1.07-2.95-2.8-2.95a3,3,0,0,0-2.86,2.95Z"/><path class="cls-2" d="M107,37.75V32.44h-1.23V31.29H107V28.64h1.3v2.65h2.79v1.15h-2.79v5.14A1.3,1.3,0,0,0,109.8,39a2.8,2.8,0,0,0,1.28-.31v1.13a3.38,3.38,0,0,1-1.58.37A2.24,2.24,0,0,1,107,37.75Z"/><path class="cls-2" d="M113.46,27.92H115v1.45h-1.49Zm.08,3.37h1.31v8.79h-1.31Z"/><path class="cls-2" d="M117.35,35.72v0a4.57,4.57,0,0,1,8-3l-.86.91a3.55,3.55,0,0,0-2.67-1.32,3.24,3.24,0,0,0-3.15,3.4v0a3.29,3.29,0,0,0,3.23,3.42,3.64,3.64,0,0,0,2.69-1.31l.83.78a4.55,4.55,0,0,1-8.09-2.86Z"/><path class="cls-2" d="M126.87,39l.66-.93a5.17,5.17,0,0,0,3.05,1.12c1,0,1.82-.54,1.82-1.39v0c0-.88-1-1.22-2.2-1.54-1.38-.39-2.9-.87-2.9-2.49v0c0-1.51,1.25-2.52,3-2.52a6,6,0,0,1,3.16,1l-.6,1a4.92,4.92,0,0,0-2.6-.85c-1,0-1.7.54-1.7,1.27v0c0,.83,1.09,1.16,2.26,1.51,1.36.41,2.83.94,2.83,2.52v0c0,1.67-1.38,2.64-3.13,2.64A6.06,6.06,0,0,1,126.87,39Z"/></g></g></g></g></g></svg>