<svg xmlns="http://www.w3.org/2000/svg" xmlns:xlink="http://www.w3.org/1999/xlink" viewBox="0 0 1300.22 293.7"><defs><style>.cls-1{fill:url(#linear-gradient);}.cls-2{fill:url(#linear-gradient-2);}.cls-3{fill:url(#linear-gradient-3);}.cls-4{fill:url(#linear-gradient-4);}.cls-5{fill:url(#linear-gradient-5);}.cls-6{fill:url(#linear-gradient-6);}.cls-7{fill:#fff;}</style><linearGradient id="linear-gradient" x1="744.25" y1="240.36" x2="744.25" y2="39.1" gradientUnits="userSpaceOnUse"><stop offset="0" stop-color="#f99e23"/><stop offset="1" stop-color="#e15526"/></linearGradient><linearGradient id="linear-gradient-2" x1="744.25" y1="28.59" x2="744.25" y2="261.25" xlink:href="#linear-gradient"/><linearGradient id="linear-gradient-3" x1="177.81" y1="-7.23" x2="63.34" y2="245.75" gradientUnits="userSpaceOnUse"><stop offset="0" stop-color="#8dc63f"/><stop offset="1" stop-color="#006838"/></linearGradient><linearGradient id="linear-gradient-4" x1="150.81" y1="292.99" x2="-8.6" y2="51.96" gradientUnits="userSpaceOnUse"><stop offset="0" stop-color="#8dc63f"/><stop offset="1" stop-color="#0a9648"/></linearGradient><linearGradient id="linear-gradient-5" x1="390.04" y1="30.79" x2="469.6" y2="277.48" gradientUnits="userSpaceOnUse"><stop offset="0" stop-color="#27aae1"/><stop offset="1" stop-color="#2b3990"/></linearGradient><linearGradient id="linear-gradient-6" x1="496.45" y1="224.93" x2="333.91" y2="62.38" gradientUnits="userSpaceOnUse"><stop offset="0" stop-color="#27aae1"/><stop offset="1" stop-color="#2160ad"/></linearGradient></defs><title>Asset 1</title><g id="Layer_2" data-name="Layer 2"><g id="Layer_1-2" data-name="Layer 1"><path class="cls-1" d="M837,84.46,757.2,288.18H730.88L651.09,84.46V288.18H590.82V5.09h84.46L744,181.65,812.79,5.09h84.88V288.18H837Z"/><path class="cls-2" d="M837,84.46,757.2,288.18H730.88L651.09,84.46S632.16,32,590.82,5.09h84.46L744,181.65,812.79,5.09h84.88C858.59,30.13,837,84.46,837,84.46Z"/><path class="cls-3" d="M0,5.09H61.12v172q0,31.27,16.77,49.74t49,18.46q31.4,0,48.17-18.46t16.76-49.74V5.09H253v170q0,54.83-31.83,86.71T126.91,293.7q-62.82,0-94.86-31.88T0,175.54Z"/><path class="cls-4" d="M93.25,259.06c-16.71-16.61-26.78-37.88-30.43-63.68a96.26,96.26,0,0,1-1.71-18.26V5.09H0V175.54q0,54.41,32,86.28t94.86,31.88a188.86,188.86,0,0,0,39.56-3.93C135.22,286.62,110.74,276.46,93.25,259.06Z"/><path class="cls-5" d="M306.45,69.81A137.06,137.06,0,0,1,361,18.46q34.38-18,76-18,41.16,0,70.24,15.36a130.3,130.3,0,0,1,36.1,27.79l.64.71L504,84.46a82.52,82.52,0,0,0-28.22-25.68,77.49,77.49,0,0,0-38.83-10q-25.47,0-45.63,12.78a88.35,88.35,0,0,0-31.62,35.22q-11.46,22.44-11.46,50.25t11.46,50.25a88.23,88.23,0,0,0,31.62,35.22q20.16,12.79,45.63,12.78a83,83,0,0,0,34.59-7.37q16.33-7.38,26.53-17.71V180.38H408.14l.63-48.38H557.49V240.22a158.54,158.54,0,0,1-52.84,39.47q-30.35,14-67.69,14-41.61,0-76-18.25a138,138,0,0,1-54.53-51.78q-20.16-33.52-20.16-76.82Q286.29,103.14,306.45,69.81Z"/><path class="cls-6" d="M423.09,275a138,138,0,0,1-54.53-51.78c-11.17-18.58-17.63-39.44-19.52-62.52-.1-.88-.16-1.78-.24-2.67,0-.39-.07-.78-.09-1.17-.27-3.36-.45-6.76-.45-10.25s.17-6.69.43-10q2-37.73,19.88-67.3A137.06,137.06,0,0,1,423.09,18,155.17,155.17,0,0,1,468.53,2.61,184.72,184.72,0,0,0,437,0q-41.61,0-76,18a137.06,137.06,0,0,0-54.53,51.35q-20.16,33.33-20.16,77,0,43.29,20.16,76.82A138,138,0,0,0,361,275q34.38,18.25,76,18.25a177.58,177.58,0,0,0,31.2-2.72A153.86,153.86,0,0,1,423.09,275Z"/><path class="cls-7" d="M962.21,26.13H935.65V46.22h-3.57V4.36h3.57v18.7h26.56V4.36h3.64V46.22h-3.64Z"/><path class="cls-7" d="M983.8,44.3a19.78,19.78,0,0,1-7.63-7.7,22.51,22.51,0,0,1-2.8-11.25,22.51,22.51,0,0,1,2.8-11.25,19.78,19.78,0,0,1,7.63-7.7,21.29,21.29,0,0,1,10.67-2.74,19,19,0,0,1,15.38,7.22l-3,1.95a14.52,14.52,0,0,0-5.31-4.42,15.41,15.41,0,0,0-7.06-1.66,16.68,16.68,0,0,0-15,9,20,20,0,0,0-2.29,9.66,19.86,19.86,0,0,0,2.29,9.59,16.91,16.91,0,0,0,6.24,6.64A16.69,16.69,0,0,0,994.46,44a15.41,15.41,0,0,0,7.06-1.66,14.52,14.52,0,0,0,5.31-4.42l3,1.88A19.09,19.09,0,0,1,994.46,47,21.28,21.28,0,0,1,983.8,44.3Z"/><path class="cls-7" d="M1015.87,37.88a18.47,18.47,0,0,0,5.59,4.36,16,16,0,0,0,7.47,1.72q5.84,0,8.45-2.66a8.51,8.51,0,0,0,2.6-6.11,7,7,0,0,0-1.54-4.71,10.17,10.17,0,0,0-3.86-2.8,43.28,43.28,0,0,0-8.27-2,52.87,52.87,0,0,0-5-2.29,11.76,11.76,0,0,1-4.55-3.21,8.15,8.15,0,0,1-1.88-5.61,9.35,9.35,0,0,1,1.82-5.7,11.73,11.73,0,0,1,5-3.81,17.54,17.54,0,0,1,7-1.35q9,0,14.19,5.72L1040.41,12a13.92,13.92,0,0,0-5.27-4,16.87,16.87,0,0,0-6.71-1.32,11,11,0,0,0-7,2.19,6.83,6.83,0,0,0-2.8,5.62,5.31,5.31,0,0,0,1.44,3.84,10.15,10.15,0,0,0,3.61,2.35,50.49,50.49,0,0,0,5.87,1.81,63.37,63.37,0,0,1,7.41,2.55,12.59,12.59,0,0,1,4.8,3.65,9.8,9.8,0,0,1,2,6.39,11.89,11.89,0,0,1-1.44,5.66,11.06,11.06,0,0,1-4.77,4.47,18.54,18.54,0,0,1-8.66,1.76,22.27,22.27,0,0,1-8.89-1.69,16.71,16.71,0,0,1-6.43-4.77Z"/><path class="cls-7" d="M1051.09,37.88a18.47,18.47,0,0,0,5.59,4.36,16,16,0,0,0,7.47,1.72q5.84,0,8.45-2.66a8.51,8.51,0,0,0,2.6-6.11,7,7,0,0,0-1.54-4.71,10.17,10.17,0,0,0-3.86-2.8,43.28,43.28,0,0,0-8.27-2,52.87,52.87,0,0,0-5-2.29,11.76,11.76,0,0,1-4.55-3.21,8.15,8.15,0,0,1-1.88-5.61,9.35,9.35,0,0,1,1.82-5.7,11.73,11.73,0,0,1,5-3.81,17.54,17.54,0,0,1,7-1.35q9,0,14.19,5.72L1075.62,12a13.92,13.92,0,0,0-5.27-4,16.87,16.87,0,0,0-6.71-1.32,11,11,0,0,0-7,2.19,6.83,6.83,0,0,0-2.8,5.62,5.31,5.31,0,0,0,1.44,3.84,10.15,10.15,0,0,0,3.61,2.35,50.49,50.49,0,0,0,5.87,1.81,63.37,63.37,0,0,1,7.41,2.55,12.59,12.59,0,0,1,4.8,3.65,9.8,9.8,0,0,1,2,6.39,11.89,11.89,0,0,1-1.44,5.66,11.06,11.06,0,0,1-4.77,4.47,18.54,18.54,0,0,1-8.66,1.76,22.27,22.27,0,0,1-8.89-1.69,16.71,16.71,0,0,1-6.43-4.77Z"/><path class="cls-7" d="M932.08,71.39h13v36.45q0,6.62,3.55,10.54T959,122.3q6.66,0,10.21-3.91t3.56-10.54V71.39h12.94v36q0,11.61-6.74,18.37t-20,6.76q-13.31,0-20.11-6.76t-6.79-18.28Z"/><path class="cls-7" d="M998.63,114.2a26.65,26.65,0,0,0,8.32,5.85,25.47,25.47,0,0,0,10.75,2.24c3.29,0,5.86-.8,7.69-2.39a7.33,7.33,0,0,0,2.75-5.75,6.21,6.21,0,0,0-3-5.58,35.33,35.33,0,0,0-9.18-3.64,99.79,99.79,0,0,1-11.42-3.07,19.2,19.2,0,0,1-7.69-5q-3.29-3.46-3.28-9.34a14.72,14.72,0,0,1,2.79-8.71,18.56,18.56,0,0,1,8-6.18,29.67,29.67,0,0,1,12-2.27q14.29,0,23.38,7.7l-7.1,9.13a23.66,23.66,0,0,0-8.06-4.9,26.34,26.34,0,0,0-9.13-1.67,10.39,10.39,0,0,0-6.52,1.79,5.75,5.75,0,0,0-2.3,4.78,4.63,4.63,0,0,0,2.79,4.41,50.5,50.5,0,0,0,9.18,3.05A82.56,82.56,0,0,1,1030,98a20.08,20.08,0,0,1,7.83,5.45q3.27,3.7,3.28,9.83a17.56,17.56,0,0,1-6.17,14q-6.15,5.33-17.85,5.32a42.51,42.51,0,0,1-14.61-2.31,31,31,0,0,1-10.75-6.45Z"/><path class="cls-7" d="M1047.93,71.39h42.45V81.64H1060.7V95.4h29v10.26h-29v15.46h29.68v10.26h-42.45Z"/><path class="cls-7" d="M1120.68,109.89h-9.35v21.49h-12.78v-60h28.06a22.15,22.15,0,0,1,10.71,2.48,17,17,0,0,1,7,6.87,20.31,20.31,0,0,1,2.43,10q0,7.38-3.82,12a16.84,16.84,0,0,1-9.31,5.84l13.49,22.85h-14.65Zm10.48-25.75a8.87,8.87,0,0,0-6.43-2.5h-13.4v18h13.4a8.83,8.83,0,0,0,6.43-2.5,9.5,9.5,0,0,0,0-13Z"/><path class="cls-7" d="M1157.47,114.2a26.65,26.65,0,0,0,8.32,5.85,25.47,25.47,0,0,0,10.75,2.24c3.29,0,5.86-.8,7.69-2.39a7.33,7.33,0,0,0,2.75-5.75,6.21,6.21,0,0,0-3-5.58,35.33,35.33,0,0,0-9.18-3.64,99.79,99.79,0,0,1-11.42-3.07,19.2,19.2,0,0,1-7.69-5q-3.29-3.46-3.28-9.34a14.72,14.72,0,0,1,2.79-8.71,18.56,18.56,0,0,1,8-6.18,29.67,29.67,0,0,1,12-2.27q14.29,0,23.38,7.7l-7.1,9.13a23.66,23.66,0,0,0-8.06-4.9,26.34,26.34,0,0,0-9.13-1.67,10.39,10.39,0,0,0-6.52,1.79,5.75,5.75,0,0,0-2.3,4.78,4.63,4.63,0,0,0,2.79,4.41,50.5,50.5,0,0,0,9.18,3.05A82.56,82.56,0,0,1,1188.82,98a20.08,20.08,0,0,1,7.83,5.45q3.27,3.7,3.28,9.83a17.56,17.56,0,0,1-6.17,14q-6.15,5.33-17.85,5.32a42.51,42.51,0,0,1-14.61-2.31,31,31,0,0,1-10.75-6.45Z"/><path class="cls-7" d="M936.35,164.06a29.06,29.06,0,0,1,11.56-10.88,34.1,34.1,0,0,1,16.1-3.83,31.51,31.51,0,0,1,14.88,3.26,27.2,27.2,0,0,1,9.93,8.79l-10.62,5.76a17.62,17.62,0,0,0-6-5.44,16.44,16.44,0,0,0-8.22-2.11,17.68,17.68,0,0,0-9.67,2.71,18.73,18.73,0,0,0-6.7,7.47,24.51,24.51,0,0,0,0,21.29,18.73,18.73,0,0,0,6.7,7.47,18.33,18.33,0,0,0,17,1.14,18.41,18.41,0,0,0,5.62-3.76v-8.44h-16V177.25h28.61v22.93a34.83,34.83,0,0,1-41.64,7.47,29.29,29.29,0,0,1-11.56-11,33.27,33.27,0,0,1,0-32.61Z"/><path class="cls-7" d="M1020,188.85h-9.35v21.49H997.91v-60H1026a22.15,22.15,0,0,1,10.71,2.48,17,17,0,0,1,7,6.87,20.31,20.31,0,0,1,2.43,10q0,7.38-3.82,12a16.84,16.84,0,0,1-9.31,5.84l13.49,22.85h-14.65Zm10.48-25.75a8.87,8.87,0,0,0-6.43-2.5h-13.4v18h13.4a8.83,8.83,0,0,0,6.43-2.5,9.5,9.5,0,0,0,0-13Z"/><path class="cls-7" d="M1055.11,164.45a28.93,28.93,0,0,1,11.2-11.08,34.27,34.27,0,0,1,32.2,0,28.9,28.9,0,0,1,11.19,11.08,33.58,33.58,0,0,1,0,32,28.9,28.9,0,0,1-11.19,11.08,34.35,34.35,0,0,1-32.2,0,28.93,28.93,0,0,1-11.2-11.08,33.66,33.66,0,0,1,0-32Zm43.27,5.34a17.75,17.75,0,0,0-6.43-7.47,17.26,17.26,0,0,0-9.58-2.71,17,17,0,0,0-9.54,2.71,17.87,17.87,0,0,0-6.39,7.47,26.26,26.26,0,0,0,0,21.29,17.87,17.87,0,0,0,6.39,7.47,17,17,0,0,0,9.54,2.71,17.26,17.26,0,0,0,9.58-2.71,17.75,17.75,0,0,0,6.43-7.47,26.37,26.37,0,0,0,0-21.29Z"/><path class="cls-7" d="M1121,150.35h13V186.8q0,6.62,3.55,10.54t10.4,3.91q6.66,0,10.21-3.91t3.56-10.54V150.35h12.94v36q0,11.61-6.74,18.37t-20,6.76q-13.31,0-20.11-6.76T1121,186.47Z"/><path class="cls-7" d="M1184.64,150.35h28.06a21.78,21.78,0,0,1,10.89,2.6,17.5,17.5,0,0,1,6.92,7,20.26,20.26,0,0,1,2.34,9.76,19.87,19.87,0,0,1-2.38,9.67,17.54,17.54,0,0,1-6.93,6.92,21.68,21.68,0,0,1-10.84,2.57h-15.28v21.49h-12.78Zm32.65,12.74a8.65,8.65,0,0,0-6.3-2.5h-13.57v18H1211a8.53,8.53,0,0,0,6.35-2.5,9.71,9.71,0,0,0,0-13Z"/><path class="cls-7" d="M984.24,246.12,967.33,289.3h-5.57l-16.91-43.18V289.3H932.08v-60H950l14.57,37.42,14.57-37.42h18v60H984.24Z"/><path class="cls-7" d="M1007.18,229.31h42.45v10.25H1020v13.76h29v10.26h-29V279h29.68V289.3h-42.45Z"/><path class="cls-7" d="M1057.83,229.31h42.45v10.25H1070.6v13.76h29v10.26h-29V279h29.68V289.3h-42.45Z"/><path class="cls-7" d="M1122.31,239.56h-17.54V229.31h47.85v10.25h-17.44V289.3h-12.87Z"/><path class="cls-7" d="M1159,229.31h12.78v60H1159Z"/><path class="cls-7" d="M1194.63,249V289.3h-12.78v-60H1195l27.79,38.85V229.31h12.78v60h-12.33Z"/><path class="cls-7" d="M1247,243a29.06,29.06,0,0,1,11.56-10.88,34.1,34.1,0,0,1,16.1-3.83,31.51,31.51,0,0,1,14.88,3.26,27.2,27.2,0,0,1,9.93,8.79l-10.62,5.76a17.62,17.62,0,0,0-6-5.44,16.44,16.44,0,0,0-8.22-2.11,17.68,17.68,0,0,0-9.67,2.71,18.73,18.73,0,0,0-6.7,7.47,24.51,24.51,0,0,0,0,21.29,18.73,18.73,0,0,0,6.7,7.47,18.33,18.33,0,0,0,17,1.14,18.41,18.41,0,0,0,5.62-3.76v-8.44h-16V256.2h28.61v22.93a34.83,34.83,0,0,1-41.64,7.47,29.29,29.29,0,0,1-11.56-11,33.27,33.27,0,0,1,0-32.61Z"/></g></g></svg>