<svg xmlns="http://www.w3.org/2000/svg" viewBox="0 0 329.49 198.83"><defs><style>.cls-1{fill:#fff;}.cls-2{fill:#fe3b1f;}</style></defs><title>Asset 1</title><g id="Layer_2" data-name="Layer 2"><g id="Layer_1-2" data-name="Layer 1"><g id="_Group_" data-name="&lt;Group&gt;"><path id="_Compound_Path_" data-name="&lt;Compound Path&gt;" class="cls-1" d="M95.16,171.26,83.75,198.75h-.62L71.68,171.26h2.13l9.65,23,9.57-23Z"/><path id="_Compound_Path_2" data-name="&lt;Compound Path&gt;" class="cls-1" d="M119.65,171.26v27.22h-2.11V171.26Z"/><path id="_Compound_Path_3" data-name="&lt;Compound Path&gt;" class="cls-1" d="M145,171.26h9.53q7.23,0,11,3.8a14.54,14.54,0,0,1,0,19.57q-3.76,3.85-10.7,3.85H145Zm2.1,1.75v23.72h7.68a12.51,12.51,0,0,0,8.8-3.25,11.15,11.15,0,0,0,3.51-8.6,11.27,11.27,0,0,0-3.46-8.55,12.49,12.49,0,0,0-9-3.32Z"/><path id="_Compound_Path_4" data-name="&lt;Compound Path&gt;" class="cls-1" d="M208.62,171.26V173H195.87V183.9h12.42v1.78H195.87v11h13.06v1.75H193.77V171.26Z"/><path id="_Compound_Path_5" data-name="&lt;Compound Path&gt;" class="cls-2" d="M245.7,170.91A14.16,14.16,0,0,1,255.94,175a13.77,13.77,0,0,1,0,19.8,14.89,14.89,0,0,1-20.44,0,13.81,13.81,0,0,1,0-19.8A14.05,14.05,0,0,1,245.7,170.91Z"/><path id="_Path_" data-name="&lt;Path&gt;" class="cls-1" d="M256.68,108.84c12.24-8.61,27.72-14.82,39.13-21.26a130.23,130.23,0,0,0,17-11.45,51.86,51.86,0,0,0,12.11-13.5,32,32,0,0,0,4.56-17,37.66,37.66,0,0,0-4.34-17.8,44,44,0,0,0-12.44-14.45,61.58,61.58,0,0,0-20-9.79A95.2,95.2,0,0,0,265.47,0,114.18,114.18,0,0,0,246,1.56a94,94,0,0,0-17,4.55,95,95,0,0,0-15,7.24A42.36,42.36,0,0,1,226.44,27a33.16,33.16,0,0,1,3.86,11.19c2.67-1.36,5.31-2.64,7.93-3.7A64.89,64.89,0,0,1,263,29.79q14.22,0,21.23,5.22t7,13q0,6.45-7.11,12.11a131,131,0,0,1-17.67,11.56c-3,1.65-41.84,22.33-41.56,22.8,8.51,14.2,6,27,1.05,35.63a43.94,43.94,0,0,1-13.06,14,85.14,85.14,0,0,1-16.47,9.62q22.4.15,44.78.16H327V124.19H240.93C244.52,118.22,250.45,113.22,256.68,108.84Z"/><path id="_Compound_Path_6" data-name="&lt;Compound Path&gt;" class="cls-1" d="M185.05,34.87c-5-3.54-12.9-5.31-23.27-5.31a56,56,0,0,0-22.69,4.56,97.71,97.71,0,0,0-20.4,12.34L101.54,23.12q7.33-5.34,14.43-9.67c.81-.49,1.65-.9,2.47-1.37A64.9,64.9,0,0,0,100,3.67Q87.43,0,70.3,0T40.51,3.67q-12.67,3.66-20.9,9.89A41.78,41.78,0,0,0,7.2,27.68,35.49,35.49,0,0,0,3,43.79v2A31.08,31.08,0,0,0,5.08,56.35,31.47,31.47,0,0,0,10.85,66a35,35,0,0,0,9.49,7.67,44.85,44.85,0,0,0,13.25,4.78C22.48,81,13.94,85.51,8.46,92S0,105.37,0,112.49v2.44a32.19,32.19,0,0,0,4.58,15.89c2.89,5.12,7.39,9.67,13.24,13.67s13.21,7.23,22,9.68,18.93,3.66,30.49,3.66,21.69-1.22,30.36-3.66a79.45,79.45,0,0,0,17.11-6.84c-1.86-.88-3.72-1.75-5.56-2.72a158.47,158.47,0,0,1-15.56-9.45l16.89-23.56a156.28,156.28,0,0,0,22.79,11.89,63.77,63.77,0,0,0,24.78,4.78,52.42,52.42,0,0,0,14.12-1.67,31.57,31.57,0,0,0,9.67-4.34c9.7-6.85,11-19.54.82-26.5-4.67-3.19-12.75-3.83-22.83-3.83H146v-26h16.86c10.82,0,18.88-1.1,23.19-4.26S193,54.76,193,49.45V47.91C193,42.75,190,38.4,185.05,34.87ZM69.28,129.74c-16.25,0-29.43-9.15-29.43-20.44S53,88.85,69.28,88.85,98.71,98,98.71,109.3,85.54,129.74,69.28,129.74Zm0-61.08c-16.25,0-29.43-9.15-29.43-20.45S53,27.77,69.28,27.77s29.43,9.15,29.43,20.44S85.54,68.66,69.28,68.66Z"/></g></g></g></svg>