<svg xmlns="http://www.w3.org/2000/svg" viewBox="0 0 298 67"><defs><style>.cls-1{fill:#81c139;}.cls-2{fill:#00adef;}.cls-3{font-size:24.53px;font-family:Montserrat-Medium, Montserrat;}.cls-3,.cls-7{fill:#fff;}.cls-4{letter-spacing:0em;}.cls-5{letter-spacing:-0.02em;}.cls-6{letter-spacing:-0.01em;}.cls-7{font-size:11px;font-family:Montserrat-Light, Montserrat;}.cls-8{letter-spacing:-0.01em;}.cls-9{letter-spacing:0em;}.cls-10{letter-spacing:-0.02em;}.cls-11{letter-spacing:-0.02em;}</style></defs><title>Asset 1</title><g id="Layer_2" data-name="Layer 2"><g id="Layer_3" data-name="Layer 3"><path class="cls-1" d="M19.25,6.24s5.58,0,9.3,3.72,3.71,9.29,3.71,9.29v13h-13s-5.57,0-9.29-3.72-3.72-9.29-3.72-9.29v-13Z"/><path class="cls-1" d="M47.75,60.76s-5.58,0-9.29-3.72-3.72-9.29-3.72-9.29v-13h13s5.57,0,9.29,3.71,3.72,9.3,3.72,9.3v13Z"/><path class="cls-2" d="M67,16.13S67,23,62.39,27.65s-11.52,4.61-11.52,4.61H34.74V16.13s0-6.91,4.61-11.52S50.87,0,50.87,0H67Z"/><path class="cls-2" d="M0,50.87S0,44,4.61,39.35s11.52-4.61,11.52-4.61H32.26V50.87s0,6.91-4.61,11.52S16.13,67,16.13,67H0Z"/><text class="cls-3" transform="translate(75 32.25)"><tspan class="cls-4">L</tspan><tspan class="cls-5" x="13.39" y="0">A</tspan><tspan x="31.23" y="0">URA S. </tspan><tspan class="cls-6" x="121.63" y="0">C</tspan><tspan x="138.36" y="0">ONLEY</tspan></text><text class="cls-7" transform="translate(75 55.7)">Per<tspan class="cls-8" x="17.92" y="0">f</tspan><tspan class="cls-9" x="21.37" y="0">orman</tspan><tspan class="cls-10" x="57.31" y="0">c</tspan><tspan x="63.21" y="0">e </tspan><tspan class="cls-11" x="72.97" y="0">C</tspan><tspan x="80.49" y="0">oach</tspan></text></g></g></svg>