<svg xmlns="http://www.w3.org/2000/svg" viewBox="0 0 919.5 449.55"><defs><style>.cls-1{fill:#7c1e1e;}</style></defs><g id="Layer_2" data-name="Layer 2"><g id="Layer_1-2" data-name="Layer 1"><g id="Betty_Boujee" data-name="Betty Boujee"><path class="cls-1" d="M343.6,306.71c5.3-9.6,13.9-15.7,23-21.2,8.8-5.3,8.6-13.7,8.8-22.1a65.43,65.43,0,0,0-1.8-17.1c-3.2-13.2-12.2-18.9-25.8-16.2-13.8,2.7-26,9.2-38.1,16.1-21,12-40.7,26.1-61.2,39-9,5.6-18,11.2-28,15.1-4,1.6-8.1,2.9-12.4,2.9-7.6-.1-13.8-9.1-11.2-16.2.6-1.8,1.9-1.9,3.1-1.2a10.24,10.24,0,0,1,2.9,2.6c3.8,4.9,8.4,5.1,14.2,4.1,23.6-3.9,41.8-17.7,59.7-31.9,12-9.5,23.7-19.5,36.6-27.9,10.2-6.7,20.7-12.5,33.1-14.1,14.9-2,27,3.5,36.7,14.3,5.6,6.3,5,14.3,3.4,21.9-1.4,6.8-3.5,13.4-5.3,20.1-1,3.8-.9,6.2,4,7.1a38.32,38.32,0,0,1,17.2,7.7c2.5,2,4.1,1.6,6.5-.1,21.7-15.6,42.2-32.7,63.3-49.1,9.5-7.4,18.9-15.1,29.8-20.7,2-1.1,1.7-2.2,1.3-3.9-2.7-11.2-6.7-22-8.4-33.4a69.14,69.14,0,0,1-.1-19.8v-1.4l-.9.6c-3.9,3.5-7.8,7.2-12.6,9.6-10.8,5.4-20.9,3.1-28.2-6.6-3.2-4.2-5.3-9-7.2-14.8-2.1,4.6-3.8,8.5-5.7,12.2-6.7,13.1-17.3,21.2-31.8,23.7-13.8,2.4-23.4-4.6-27-18.9-2.1,1.9-2.7,4.6-3.9,6.8-4.2,7.6-9.3,14.4-16.3,19.5-14,10.2-29.8,7.7-39.9-6.4-8.7-12.2-10.8-26.3-10.3-40.9.2-5.9,0-11.8-.1-18.2-2.7,1.4-5.2,2.9-7.8,4.1-9.8,4.3-19.8,8-30.7,6.6-6.7-.9-9.1-4.7-7.6-11.3A21.5,21.5,0,0,1,273,115a66.83,66.83,0,0,1,12.7-7.7c-1.6,3.7-3.1,6.6-4.2,9.7-1.3,3.6-2.9,7.6.4,10.8s7.6,1.9,11.2.3c13.5-5.9,21.3-16.3,24.1-30.6,1.8-8.7,0-17-2.9-25.2,8.8-.6,15,4.6,16.1,13.5.6,5.1.5,10.3.8,15.5.4,6.9,2.8,8.6,9.5,6.5,7.5-2.3,14-6.9,21-10.4,8-4,12.7-9.6,13.3-18.9.4-5.8,2.4-11.5,3.5-17.3.5-2.5,1.4-3.3,4.1-2.9,8.8,1.2,11.3,4.1,10.7,12.8-.1,1.3-.2,2.6-.3,4-.1.2-.2.5-.3.7.4,0,.7.1,1.1.1,15.6-8,31.2-16.1,47.6-22.3a149,149,0,0,1,29.8-7.9c12.3-1.8,24,2,35.3,6.3,4.7,1.8,9.3,3.9,13.1,7.3,4.5,4,3.8,7.7-1.7,10.1-2.7,1.2-5.7,1.5-8.6,2a2.76,2.76,0,0,1-3-1.2c-10.2-14.9-25.1-16.3-41-13.8-17.5,2.8-33.5,10.1-49.3,17.7-8.4,4-16.6,8.4-24.9,12.5-1.8.9-3.1,1.8-3.1,4.2-.1,19.2-1,38.4,2.7,57.4a53.48,53.48,0,0,0,5.2,15.5c4.7,8.5,11,10.5,19.6,6.2,5.5-2.7,10.1-6.6,14.5-10.8,4.9-4.9,9.7-9.9,14.6-14.8,1.1-1.1,1-2.4,1.2-3.6,1.6-9.5,3.8-18.8,8.1-27.5a18.35,18.35,0,0,1,5.1-6.6,5.42,5.42,0,0,1,6.2-.3c2.4,1.3,2,3.3,1.5,5.4-1.9,8.6-4,17.2-4.1,26.2a28.37,28.37,0,0,0,1.5,9.6c1.9,5.7,4.8,10.4,11.5,11.4,7.2,1.1,13.1-.6,17.5-6.7s6.3-13,8.3-19.9c2.2-7.5,4.1-15.1,7.2-22.3a31,31,0,0,1,9.5-12.6c1.3-1,2.6-2.2,4.3-1.3s1.3,2.5,1.3,3.9c0,5.1-1.4,9.9-2.5,14.8-4.5,20-9.8,39.8-11.5,60.3a90.83,90.83,0,0,0,.4,22.1,40.45,40.45,0,0,0,3,9.7c1.2,2.6,2.4,3.7,5.6,2a40.87,40.87,0,0,1,23.6-4.1c11.3,1.2,15.7,8.8,11.1,19a37.59,37.59,0,0,1-5.9,9.3c-5.3,6.2-11.6,8-19.4,5.6-4.4-1.3-8.4-3.5-12.5-5.6-5.8-3-11.4-3-17.4-.5-10,4.3-18.9,10.3-27.5,16.9-19.6,15-38.9,30.2-58.4,45.4-1.2,1-2.2,1.5-.9,3.4,8.5,12,8.4,25,3,37.9-9.3,22.4-25.4,37.3-49.9,41.8-9.7,1.8-18.8-.3-27.4-4.9-2.3-1.2-3.1-.8-4.6.7A56.18,56.18,0,0,1,315.3,386c-4.1,1.8-8.3,3.2-12.8,1.5-2.6-1-3.8-2.6-3.4-5.3a26.12,26.12,0,0,1,9.5-16.9c1.5-1.2,3.7-2.1,5.4-1,3.3,2.2,3.9-.3,4.8-2.4,5.9-12.7,7.6-26.3,8.7-40,1.5-19.7.8-39.5,3.5-59.2a140.94,140.94,0,0,1,4.3-20.3c1-3.3,3.1-5.1,6.3-5.2,3.5-.1,4.6,2.9,5.2,5.7,1.6,7.4,1.2,15,.7,22.5-.9,12.1-2.2,24.1-3.9,36.1,0,1.7-.6,3.5,0,5.2-.2.4-.6.7-.6,1-1.8,12.2-3.6,24.5-5.3,36.8-1,7.3-1.7,14.6-2.3,22-.3,2.9-.4,5.5,4.3,5.6a59.94,59.94,0,0,0,9.5-.9c13.9-1.5,27.3-4.8,38.6-13.7,15.4-12,20.3-32.7,11.7-48.7-1.5-2.7-2.6-3.7-5.6-1.6a76.15,76.15,0,0,1-11.2,6.2c-8.2,3.9-16.6,7.6-25.9,6.4C346.7,318.51,343.7,318.21,343.6,306.71Zm33-160.3a267.54,267.54,0,0,1-2.3-29.8c-.1-4.9-.6-9.7-1.1-14.5-.2-1.5.3-3.7-1.6-4.2-1.5-.4-2.5,1.3-3.6,2.2-8.7,7.9-17.8,15.9-29.4,18.1-10.5,2-12.5,8.3-13.5,16.7-.1,1.2-.4,2.3-.6,3.5-1.4,10.9-1.7,21.8,3.4,32,7,14.3,23.1,18,35.6,8.1C373.4,170.71,376.1,159.71,376.6,146.41Zm16,154.1c-10.1-7.6-20.3-7.2-31.8.9-1.5,1.1-3.5,1.8-3.1,4.3a6.9,6.9,0,0,0,4.4,5.6,11.47,11.47,0,0,0,6.1.3C377,309.81,384.5,305.21,392.6,300.51ZM540.8,223a7.64,7.64,0,0,0-9-7.9c-2.5.3-4.8,1.1-7.3,1.6-3,.6-2.9,2.3-1.7,4.5,2.2,4.2,6.8,4.7,10.4,6.7C537.4,230.31,540.8,227.81,540.8,223Z"/><path class="cls-1" d="M670.4,312c.9-2.1,2-4.1,2.7-6.2,4.3-13.1,12-24.4,20.3-35.1a39.45,39.45,0,0,0,6.6-13.3c2.5-7.8,6.2-15,12.3-20.7,6.8-6.3,14.2-6.8,20.8-1.7,1.9,1.4,2.4,2.9,2,5.3-2.1,11-6.6,21.1-10.6,31.4a59.91,59.91,0,0,0-3.7,11.8c-.7,4.1.8,6,5,5.7a29.76,29.76,0,0,0,7.8-1.4c4.3-1.4,8.6-3.1,12.8-4.9,3.5-1.5,7.7-2.3,10.2-5.1,2.9-3.3-.5-7.2-.5-10.9-.2-15,3.8-28.6,13.5-40.2,6.6-7.9,15.6-9.2,22.7-3.8a4.79,4.79,0,0,1,2.1,5.2c-1.8,10.1-5.8,19.4-9.6,28.9-1.7,4.4-3.6,8.7-4.6,13.4-1.1,5.4,1,7.6,6.4,6.7,10-1.6,19-6.2,28.1-10.4,1.2-.6,2.1-2,3-3.2a86.45,86.45,0,0,1,10.2-11.6c1.1-1.1,2.5-1.9,3.9-.9s.8,2.5.3,3.7c-2,5.2-5.2,9.6-8.7,13.8-7.2,8.8-15.4,16.4-26,20.7-11.2,4.6-22.1,3.7-31.8-3.7-2.9-2.2-4.2-1.6-6.3.7-6.9,7.4-14.8,13.5-24.7,16.5-11.7,3.5-21.9.7-30.8-7.1-4-3.4-5.5-8.3-6.3-13.3a52.67,52.67,0,0,0-1-5.2c-5.4,12.3-10.4,24.6-14.9,37.1-6.7,18.5-9.1,37.8-11.5,57.1-1.4,11.3-3.3,22.5-8.8,32.7a31.94,31.94,0,0,1-8.7,11c0-5.5-.3-10.9.1-16.3,2.3-34.3,2.6-68.7,2.3-103.1,0-6.5-.7-13-3.2-19.1-2.1-5.2-5.2-6.1-9.7-2.8a45.89,45.89,0,0,0-14.7,17.4c-5.2,11-11.7,21.2-20.5,29.7a39.13,39.13,0,0,1-10,7.2c-8.8,4.3-16.3,2.7-22.4-5-1.7-2.2-2.3-2.4-4.4-.3-5.5,5.5-11.3,10.8-18.3,14.6-13.7,7.4-24.9,3.4-30.4-11.2a64.7,64.7,0,0,1-3.7-19c-.1-1.4-.2-2.8-.3-4.8a44.46,44.46,0,0,0-13.9,14.1c-3.7,5.6-6.1,11.8-8.6,17.9-6.6,16.2-26.6,26.1-43.5,21.3-8.9-2.6-15.1-8.3-17.1-17.4-2.5-11.4-1.6-22.3,6.5-31.7,6.7-7.8,14.3-14.5,23.8-18.7a22.75,22.75,0,0,1,8.5-2.2c6.2-.2,9.2,2.3,10.4,8.4.7,3.7-.2,7.2-.9,11.1-3.7-1.6-6.9-3.9-10.7-4.7a17,17,0,0,0-10,.3c-9.2,3.1-15.6,14.7-13.8,25.1,1.8,10.6,9,16.9,20.2,16.2,7.5-.5,13.1-5.5,18.1-10.9,1.7-1.9.3-3.6-1.5-4.7-2.8-1.6-5.7-3-8.6-4.6-2.5-1.4-4.9-3.2-4.1-6.5s2.9-5.9,6.2-6.2c16.5-1.4,28.1-11.4,39.3-22,4.2-4,8.2-8.1,12.4-12,1.4-1.3,3.1-2.6,5.2-1.6s1.9,3.1,1.9,5c.2,6.6-1.4,12.9-2.4,19.3-1,6.1-1.5,12.3.4,18.4,3.1,10.2,12.3,13.7,21.3,7.8,8.8-5.8,13.3-14.6,14.2-24.8s2.3-20.5,7.2-29.9c1.7-3.3,3.5-7.4,8-6.3,4.1.9,4.2,5.4,4.4,8.8.7,8.6-.2,17.1-1.3,25.6-.6,5-1.1,10,.2,15,1.1,4.2,3,5,6.8,2.8,5.5-3.1,9.6-7.8,13.6-12.5A148.71,148.71,0,0,0,630.5,271c2.9-6,6-12.2,11.6-16.5,8.5-6.6,15.6-5,20.3,4.8s5.9,20.7,6.6,31.4c.5,7.1.1,14.3.1,21.4A1.84,1.84,0,0,1,670.4,312Zm43.1-45c6-4.9,8.6-13.6,6.4-20.1C713.1,252,713,259,713.5,267Zm59.2-12.5c5.7-3.8,8.6-13.1,6.2-19.7C772.3,240,772,247,772.7,254.51Z"/><path class="cls-1" d="M2.9,145.71a2.64,2.64,0,0,1,1.6.7c7.5,11.6,17.5,5.5,26.7,3.7,11-2.3,20.4-8.2,29.6-14.5,17-11.5,32.2-25.5,48.8-37.5,10.2-7.3,20.7-14.1,32.9-17.7,16.4-4.8,30.6-.9,42.8,10.8,6.2,5.9,6.6,13.6,5.5,21.4-1,7.2-3.5,14-5.4,21-1.8,6.6-1.6,7,4.7,8.8a60,60,0,0,1,11.5,4.6c15.9,8.4,22.9,23.1,19.5,40.7-4.8,24.3-27.3,46.2-51.9,50.5a42.81,42.81,0,0,1-29.4-5.8c9.9-.7,19.4-1.1,28.6-3.7,15.3-4.3,28.6-11.5,35.5-26.8,5.4-12,4.8-23.9-2.2-35.1s-18.9-14.6-30.8-8.9c-5.3,2.6-10.7,5.1-12.9,11.7-1.6,5-7.1,5.6-11.8,1.8-1.9,13.2-3.8,26.1-5.5,39-.9,6.4-1.9,12.9-1.6,19.4a3.09,3.09,0,0,1-1,2.7c-6.3,6.1-13,11.5-21.4,14.7a21.36,21.36,0,0,1-3.4.9c-8.8,1.5-12.1-2.3-9.1-10.6a27.91,27.91,0,0,1,6.8-10.8c2.4-2.3,5.1-3.7,8.3-1.7,2.4,1.5,2.3-.7,2.9-1.7,4.4-8.8,6.6-18.3,7.9-27.9,2.7-19.5,2-39.2,3.5-58.7a161.2,161.2,0,0,1,5.5-33.1c1-3.5,2.8-6,6.6-6,4.1.1,4.9,3.5,5.4,6.5,1.6,9.7.8,19.4-.1,29.1-1.1,11.6-2.6,23.1-3.9,34.7a38.37,38.37,0,0,1,17.1-17.8c11.6-6.1,16.5-15.1,15.1-28.2-.6-5.6-.6-11.2-2.1-16.6-3.2-11.7-11.7-17.2-23.7-15.3s-22.5,6.9-32.9,12.5c-22,11.8-42.3,26.4-63.3,39.8-10.4,6.7-20.9,13.3-32.4,18.1a33.15,33.15,0,0,1-12,3A12.5,12.5,0,0,1,.8,147.31"/><path class="cls-1" d="M232.4,187.21c.9-13.4,4.5-24.4,13.4-33.1a26.85,26.85,0,0,1,18.7-7.8,5.25,5.25,0,0,1,5.3,3.1c2.7,5.1,2.5,10.2.5,15.4-2.2,5.9-5.9,10.9-9.2,16.1-2.6,4.1-5.5,8.1-6.4,13s.7,7.6,5.4,8.9c10.8,3.1,25.8-1.8,32.7-10.9a90.75,90.75,0,0,1,10.7-12.4c1.2-1.1,2.6-2.4,4.3-1.3s.9,3.1.2,4.4c-9.1,16.7-21.2,30.3-40.3,35.6-10.6,2.9-20.1-.2-28.4-7.3a13.56,13.56,0,0,1-3.2-4.7C233,199.81,232.3,193,232.4,187.21Zm23.3-25.3c-5.6,4.3-8.7,12.9-7,18.6.7,2.3,1.7.7,2.3,0C255.5,175.31,256.5,169.11,255.7,161.91Z"/><path class="cls-1" d="M666.8,229.41c-.4,8.7-13.1,16.8-21.1,13.4a7.79,7.79,0,0,1-4.4-10.5c3-7.1,8.7-11,16.1-12.1C662.7,219.41,667,223.91,666.8,229.41Z"/><path class="cls-1" d="M144,410.41c-.3,1.6-.6,3.4-1.1,5.3-.8,3.4-2.5,6.6,2.7,8.8,3,1.3,1.6,4.7-1.1,5.6-6.1,2-7.8,6.1-7.8,12.1,0,2.7.3,6.6-4,7.2-4.1.6-7-.8-8.1-5.2-.7-2.8-3.1-3-5.5-3-3.2,0-6.5,0-9.7-.2a3.51,3.51,0,0,1-3.4-2.6c-.5-1.6.7-2.4,1.8-3.3,5.9-4.8,7.8-10.5,3.9-17.5a30.05,30.05,0,0,1-1.1-3.2c-.8-2.2-.3-4.3,1.5-5.5s3.7-.5,5.2.9c2.4,2.2,5,4.1,7.2,6.5,2.9,3.3,4.8,2.5,6.6-1a76.82,76.82,0,0,1,4.7-7.8,4.22,4.22,0,0,1,5.4-1.8C143.3,406.41,144.2,408,144,410.41ZM132.4,430c-1-1.3.2-4.7-2.8-4.4a5.24,5.24,0,0,0-4.8,4.8,4.26,4.26,0,0,0,4,4.7C131.3,435.21,132.4,432.91,132.4,430Z"/><path class="cls-1" d="M27.1,360.21c2.7.2,4.7.2,6.7.5,1.2.2,3,.5,2.9,2.1s-1.7,1.9-3,2.1c-2,.3-4.1.4-6.6.7,1.2,3.5,4.5,4.5,6.2,6.8.7,1,1.8,2.3.5,3.5-.9.8-2.2.4-3.2-.2-2.7-1.8-5.3-3.6-8-5.3a5,5,0,0,0-.5.7c-1,2.6,1.9,7.3-1.8,7.7-2.8.3-1.5-4.3-2-6.7-.5-2.2-1.2-2.3-3.1-1.3-2.2,1.2-4.3,5-6.6,2.8s2.2-4.2,2.6-6.7c-.2-.2-.4-.5-.7-.6-2.2-1.1-6.5.8-6.7-2.5-.2-3.5,4.3-1.9,6.7-3.3-2.7-4.8-8.3-7.2-10.5-13.2,6.6,1.2,9.6,7.2,15.2,9.4.6-3.9-.7-7.3-1.2-10.7-.2-.9-.3-2.1.8-2.5,1.5-.5,2,.8,2.3,1.8.8,3.3,1.7,6.6,2.2,10,.6,3.9,2,3.3,4.2,1.2,3.4-3.2,5.7-7.5,10.6-9.7C34.3,352.61,29.5,355.61,27.1,360.21Z"/><path class="cls-1" d="M47.5,421.21c2.4,2.2,6.9-3.8,7,1.9.1,2.3,2.1,6.1-.2,7.2-3,1.4-6.6,2.1-9.9,3.2-1.2.4-2.7-1.2-2-1.7C46.4,429.31,40.5,422,47.5,421.21Z"/><path class="cls-1" d="M789.4,178.41a47.82,47.82,0,0,1-5.5-3.9c-3-2.8-5.9-4.1-9.2-.5a5.61,5.61,0,0,1-2.5,1.4c-1.8.5-3.9,1.4-5.1-.7a3.52,3.52,0,0,1,1.3-4.6c5.6-3.9,3.5-7.1-.5-10.6-1.2-1-1.9-2.8-2.7-4.3a4.53,4.53,0,0,1,1-5.3c1.5-1.5,3.6-.8,5.2.4,2.2,1.8,4.6,3.5,6.6,5.5,2.7,2.8,4.9,2.5,7.6-.1,2.3-2.2,5.5-6.8,8.1-4.1,3,3.1-1.5,6.8-3.9,8.8-3.9,3.2-2.6,5.3,0,8,2.2,2.3,3.5,5,2.4,8.3C791.9,177.91,791.3,178.61,789.4,178.41Z"/><path class="cls-1" d="M919.5,212.91c-.5,2.5-1.2,5.4-4,5.4s-4.6-2.8-4.7-5.4,1.3-5.8,4.1-5.8C917.9,207,918.7,210.31,919.5,212.91Z"/><path class="cls-1" d="M889.1,228.81c-.8,2.6-1.3,6-4.7,5.8-2.9-.1-4.2-3.4-4.1-6,.1-2.4.6-5.4,4.4-5.4C888.7,223.31,888.6,226.11,889.1,228.81Z"/><path class="cls-1" d="M549.8,8.61c-4.4-.2-6-2.1-6.1-5.4-.1-2.9,1.8-3.3,4.1-3.2,3.3.1,5.5,1.8,5.6,5A3.25,3.25,0,0,1,549.8,8.61Z"/><path class="cls-1" d="M887.1,188c2.1,2.2,5.3,3.7,5,6.7-.2,2.1-2.5,4.9-5.1,4.5-2.4-.4-4-2.9-3.7-5.7C883.4,191,885,189.41,887.1,188Z"/><path class="cls-1" d="M588.2,7.51c2.5.1,2.8,1.8,2.7,3.6s-.4,3.4-2.8,3.2-3.2-1.8-3.2-3.8S586.5,7.81,588.2,7.51Z"/><path class="cls-1" d="M561.8,30.21c-.5,1.6-1.4,2.7-3.2,2.3a2.75,2.75,0,0,1-2.5-3.1c.1-1.5.9-2.6,2.5-2.4A3.36,3.36,0,0,1,561.8,30.21Z"/><path class="cls-1" d="M846.7,147.51c-2.7-.2-4.7-.2-6.7-.5-1.2-.2-3-.5-2.9-2.1s1.7-1.9,3-2.1c2-.3,4.1-.4,6.6-.7-1.2-3.5-4.5-4.5-6.2-6.8-.7-1-1.8-2.3-.5-3.5.9-.8,2.2-.4,3.2.2,2.7,1.8,5.3,3.6,8,5.3a5,5,0,0,0,.5-.7c1-2.6-1.9-7.3,1.8-7.7,2.8-.3,1.5,4.3,2,6.7.5,2.2,1.2,2.3,3.1,1.3,2.2-1.2,4.3-5,6.6-2.8s-2.2,4.2-2.6,6.7c.2.2.4.5.7.6,2.2,1.1,6.5-.8,6.7,2.5.2,3.5-4.3,1.9-6.7,3.3,2.7,4.8,8.3,7.2,10.5,13.2-6.6-1.2-9.6-7.2-15.2-9.4-.6,3.9.7,7.3,1.2,10.7.2.9.3,2.1-.8,2.5-1.5.5-2-.8-2.3-1.8-.8-3.3-1.7-6.6-2.2-10-.6-3.9-2-3.3-4.2-1.2-3.4,3.2-5.7,7.5-10.6,9.7C839.4,155.11,844.2,152.21,846.7,147.51Z"/></g></g></g></svg>