<svg xmlns="http://www.w3.org/2000/svg" viewBox="0 0 609.89 42.6"><defs><style>.cls-1{fill:#fff;}</style></defs><title>client-crossroads-decision</title><g id="Layer_2" data-name="Layer 2"><g id="Layer_1-2" data-name="Layer 1"><path class="cls-1" d="M10.38,40a19.52,19.52,0,0,1-7.59-7.36A20.84,20.84,0,0,1,0,21.87,20.84,20.84,0,0,1,2.79,11.11a19.52,19.52,0,0,1,7.59-7.36A21.87,21.87,0,0,1,21,1.14,20.07,20.07,0,0,1,31.44,3.61,18.77,18.77,0,0,1,38,10.2l-7.32,3.6a10.88,10.88,0,0,0-3.93-4.17A10.61,10.61,0,0,0,21,8a11.29,11.29,0,0,0-6.24,1.81,12.28,12.28,0,0,0-4.41,5,15.6,15.6,0,0,0-1.59,7.1A15.6,15.6,0,0,0,10.35,29a12.28,12.28,0,0,0,4.41,5A11.29,11.29,0,0,0,21,35.76a10.82,10.82,0,0,0,9.72-5.82L38,33.48q-5.7,9.12-17,9.12A21.87,21.87,0,0,1,10.38,40Z"/><path class="cls-1" d="M43,12.84h7.62v4a12.79,12.79,0,0,1,4.08-3.33,10.81,10.81,0,0,1,5.16-1.35V19.2a9.67,9.67,0,0,0-2.1-.24,10,10,0,0,0-4.08,1,6.81,6.81,0,0,0-3.06,2.38v19.5H43Z"/><path class="cls-1" d="M69.9,40.56A13.94,13.94,0,0,1,64.56,35a16,16,0,0,1-1.86-7.69,16,16,0,0,1,1.86-7.64,14,14,0,0,1,5.34-5.53,17.22,17.22,0,0,1,16.26,0,14,14,0,0,1,5.34,5.53,16,16,0,0,1,1.86,7.64A16,16,0,0,1,91.5,35a13.94,13.94,0,0,1-5.34,5.54,17.22,17.22,0,0,1-16.26,0Zm13.53-6.5a11,11,0,0,0,2-6.73,10.89,10.89,0,0,0-2-6.67A6.41,6.41,0,0,0,78,17.94a6.33,6.33,0,0,0-5.4,2.72,11,11,0,0,0-2,6.67,11.11,11.11,0,0,0,2,6.73A6.31,6.31,0,0,0,78,36.78,6.39,6.39,0,0,0,83.43,34.06Z"/><path class="cls-1" d="M99.78,33.12a15.31,15.31,0,0,0,4.56,2.76,14.21,14.21,0,0,0,5.46,1.2,6,6,0,0,0,3.63-.92,3,3,0,0,0,1.23-2.55,2.7,2.7,0,0,0-1.44-2.47,16.49,16.49,0,0,0-4.38-1.56,43.9,43.9,0,0,1-5.76-1.38,9.54,9.54,0,0,1-4-2.51,6.66,6.66,0,0,1-1.68-4.81,7.47,7.47,0,0,1,1.41-4.38A9.56,9.56,0,0,1,103,13.3a15.73,15.73,0,0,1,6.36-1.18A18.85,18.85,0,0,1,121,15.88L118,21a10.73,10.73,0,0,0-3.69-2.4,12.61,12.61,0,0,0-4.89-1,6.27,6.27,0,0,0-3.33.76,2.33,2.33,0,0,0-1.23,2.08,2.13,2.13,0,0,0,1.35,2,20.11,20.11,0,0,0,4.17,1.29,39.12,39.12,0,0,1,5.82,1.5A10.13,10.13,0,0,1,120.24,28,7.53,7.53,0,0,1,122,33.27a8.27,8.27,0,0,1-1.47,4.79,9.68,9.68,0,0,1-4.32,3.34,17.32,17.32,0,0,1-6.75,1.2,23.18,23.18,0,0,1-7.23-1.13,16.49,16.49,0,0,1-5.73-3.09Z"/><path class="cls-1" d="M128.4,33.12A15.31,15.31,0,0,0,133,35.88a14.21,14.21,0,0,0,5.46,1.2,6,6,0,0,0,3.63-.92,3,3,0,0,0,1.23-2.55,2.7,2.7,0,0,0-1.44-2.47,16.49,16.49,0,0,0-4.38-1.56,43.9,43.9,0,0,1-5.76-1.38,9.54,9.54,0,0,1-4-2.51,6.66,6.66,0,0,1-1.68-4.81,7.47,7.47,0,0,1,1.41-4.38,9.56,9.56,0,0,1,4.11-3.2,15.73,15.73,0,0,1,6.36-1.18,18.85,18.85,0,0,1,11.7,3.76L146.58,21a10.73,10.73,0,0,0-3.69-2.4,12.61,12.61,0,0,0-4.89-1,6.27,6.27,0,0,0-3.33.76,2.33,2.33,0,0,0-1.23,2.08,2.13,2.13,0,0,0,1.35,2A20.11,20.11,0,0,0,139,23.76a39.12,39.12,0,0,1,5.82,1.5A10.13,10.13,0,0,1,148.86,28a7.53,7.53,0,0,1,1.74,5.24,8.27,8.27,0,0,1-1.47,4.79,9.68,9.68,0,0,1-4.32,3.34,17.32,17.32,0,0,1-6.75,1.2,23.18,23.18,0,0,1-7.23-1.13,16.49,16.49,0,0,1-5.73-3.09Z"/><path class="cls-1" d="M156.24,12.84h7.62v4a12.79,12.79,0,0,1,4.08-3.33,10.81,10.81,0,0,1,5.16-1.35V19.2A9.67,9.67,0,0,0,171,19a10,10,0,0,0-4.08,1,6.81,6.81,0,0,0-3.06,2.38v19.5h-7.62Z"/><path class="cls-1" d="M183.18,40.56A13.94,13.94,0,0,1,177.84,35,16,16,0,0,1,176,27.33a16,16,0,0,1,1.86-7.64,14,14,0,0,1,5.34-5.53,17.22,17.22,0,0,1,16.26,0,14,14,0,0,1,5.34,5.53,16,16,0,0,1,1.86,7.64A16,16,0,0,1,204.78,35a13.94,13.94,0,0,1-5.34,5.54,17.22,17.22,0,0,1-16.26,0Zm13.53-6.5a11,11,0,0,0,2-6.73,10.89,10.89,0,0,0-2-6.67,6.41,6.41,0,0,0-5.43-2.72,6.33,6.33,0,0,0-5.4,2.72,11,11,0,0,0-2,6.67,11.11,11.11,0,0,0,2,6.73,6.31,6.31,0,0,0,5.4,2.72A6.39,6.39,0,0,0,196.71,34.06Z"/><path class="cls-1" d="M229.68,38.82a10.39,10.39,0,0,1-3.93,2.76,13.43,13.43,0,0,1-5.25,1,11.11,11.11,0,0,1-4.77-1.08,9.47,9.47,0,0,1-3.81-3.28,9.13,9.13,0,0,1-1.5-5.27,8.78,8.78,0,0,1,1.5-5.27,8.87,8.87,0,0,1,3.78-3,12.24,12.24,0,0,1,4.8-1,15.11,15.11,0,0,1,5.34.9,8.93,8.93,0,0,1,3.84,2.64V23.16a5,5,0,0,0-1.74-4,6.85,6.85,0,0,0-4.62-1.5,12.16,12.16,0,0,0-8.46,3.42L212,16.15a18,18,0,0,1,5.85-3,23,23,0,0,1,6.81-1,15.1,15.1,0,0,1,9.12,2.58q3.54,2.58,3.54,8.4V41.82h-7.62Zm0-7.31a5.74,5.74,0,0,0-2.55-1.69,10.41,10.41,0,0,0-3.57-.6,6.84,6.84,0,0,0-3.9,1.06,3.34,3.34,0,0,0-1.56,2.92A3.21,3.21,0,0,0,219.66,36a6.91,6.91,0,0,0,3.9,1,10.41,10.41,0,0,0,3.57-.6,5.74,5.74,0,0,0,2.55-1.69Z"/><path class="cls-1" d="M264.78,38.1a11.75,11.75,0,0,1-4,3.33,10.8,10.8,0,0,1-5,1.17,12.36,12.36,0,0,1-6.6-1.8,12.18,12.18,0,0,1-4.59-5.23A18.57,18.57,0,0,1,243,27.39a18.46,18.46,0,0,1,1.65-8.09A12.63,12.63,0,0,1,249.21,14a12,12,0,0,1,6.63-1.86,11.09,11.09,0,0,1,4.92,1.14,11.35,11.35,0,0,1,4,3.3V1.8h7.68v40h-7.68Zm0-16.47A7.37,7.37,0,0,0,262,19a7.7,7.7,0,0,0-3.78-1,6.39,6.39,0,0,0-5.28,2.61,10.83,10.83,0,0,0-2,6.84,10.71,10.71,0,0,0,2,6.78,6.39,6.39,0,0,0,5.28,2.61,7.7,7.7,0,0,0,3.78-1,7.37,7.37,0,0,0,2.82-2.65Z"/><path class="cls-1" d="M280.79,33.12a15.5,15.5,0,0,0,4.57,2.76,14.17,14.17,0,0,0,5.46,1.2,6.05,6.05,0,0,0,3.63-.92,3,3,0,0,0,1.23-2.55,2.7,2.7,0,0,0-1.44-2.47,16.63,16.63,0,0,0-4.38-1.56,43.9,43.9,0,0,1-5.76-1.38,9.48,9.48,0,0,1-4-2.51,6.62,6.62,0,0,1-1.68-4.81,7.4,7.4,0,0,1,1.41-4.38A9.5,9.5,0,0,1,284,13.3a15.71,15.71,0,0,1,6.35-1.18A18.9,18.9,0,0,1,302,15.88L299,21a10.83,10.83,0,0,0-3.69-2.4,12.65,12.65,0,0,0-4.89-1,6.24,6.24,0,0,0-3.33.76,2.34,2.34,0,0,0-1.24,2.08,2.14,2.14,0,0,0,1.36,2,19.71,19.71,0,0,0,4.17,1.29,39.45,39.45,0,0,1,5.82,1.5A10.1,10.1,0,0,1,301.25,28,7.49,7.49,0,0,1,303,33.27a8.34,8.34,0,0,1-1.47,4.79,9.79,9.79,0,0,1-4.32,3.34,17.39,17.39,0,0,1-6.75,1.2,23.18,23.18,0,0,1-7.23-1.13,16.31,16.31,0,0,1-5.73-3.09Z"/><path class="cls-1" d="M324.17,1.8H340a23.69,23.69,0,0,1,11,2.49,18.41,18.41,0,0,1,7.5,7.05,20.31,20.31,0,0,1,2.7,10.5,20.15,20.15,0,0,1-2.7,10.47,18.47,18.47,0,0,1-7.5,7,23.69,23.69,0,0,1-11,2.49H324.17ZM340,35a12.41,12.41,0,0,0,6.68-1.77A11.73,11.73,0,0,0,351,28.44a14.68,14.68,0,0,0,1.5-6.6,13.77,13.77,0,0,0-3.3-9.5c-2.21-2.47-5.28-3.7-9.24-3.7H332.7V35Z"/><path class="cls-1" d="M367.13,19.67a14.56,14.56,0,0,1,5.34-5.51,14.82,14.82,0,0,1,7.74-2,14.24,14.24,0,0,1,7.56,2,13.62,13.62,0,0,1,5.13,5.64,18.21,18.21,0,0,1,1.83,8.31v1.68H373.19A8.26,8.26,0,0,0,375.77,35a8.08,8.08,0,0,0,5.76,2.09,12.24,12.24,0,0,0,4.23-.78,10,10,0,0,0,3.51-2.1l3.36,4.74a14.77,14.77,0,0,1-5.28,2.7,22.92,22.92,0,0,1-6.66,1,16.55,16.55,0,0,1-7.92-1.89,13.94,13.94,0,0,1-5.55-5.35,15.7,15.7,0,0,1-2-8A15.47,15.47,0,0,1,367.13,19.67Zm8,0a7.84,7.84,0,0,0-2.05,4.59h14.23a7.6,7.6,0,0,0-2-4.56,6.5,6.5,0,0,0-5.19-2A6.42,6.42,0,0,0,375.17,19.65Z"/><path class="cls-1" d="M400.37,19.48a14.26,14.26,0,0,1,5.46-5.41,15.92,15.92,0,0,1,7.92-2,17.31,17.31,0,0,1,7,1.26,12,12,0,0,1,4.5,3.22l-5,4.46a6.92,6.92,0,0,0-6.12-3.12,7.09,7.09,0,0,0-5.67,2.58,10.17,10.17,0,0,0-2.19,6.81,10.32,10.32,0,0,0,2.19,6.84,7.06,7.06,0,0,0,5.67,2.61,7.3,7.3,0,0,0,6.12-3.12l5,4.41a12.25,12.25,0,0,1-4.47,3.24,16.91,16.91,0,0,1-7,1.29,15.92,15.92,0,0,1-7.92-2,14.26,14.26,0,0,1-5.46-5.41,15.64,15.64,0,0,1-2-7.91A15.52,15.52,0,0,1,400.37,19.48Z"/><path class="cls-1" d="M430.76,7.77a4.38,4.38,0,0,1-1.35-3.21,4.38,4.38,0,0,1,1.35-3.21,4.56,4.56,0,0,1,6.45,0,4.4,4.4,0,0,1,1.32,3.24,4.43,4.43,0,0,1-1.32,3.21,4.53,4.53,0,0,1-6.45,0Zm-.57,5.07h7.62v29h-7.62Z"/><path class="cls-1" d="M446.15,33.12a15.31,15.31,0,0,0,4.56,2.76,14.21,14.21,0,0,0,5.46,1.2,6,6,0,0,0,3.63-.92A3,3,0,0,0,461,33.61a2.7,2.7,0,0,0-1.44-2.47,16.49,16.49,0,0,0-4.38-1.56,43.9,43.9,0,0,1-5.76-1.38,9.54,9.54,0,0,1-4-2.51,6.66,6.66,0,0,1-1.68-4.81,7.47,7.47,0,0,1,1.41-4.38,9.56,9.56,0,0,1,4.11-3.2,15.73,15.73,0,0,1,6.36-1.18,18.85,18.85,0,0,1,11.7,3.76L464.33,21a10.73,10.73,0,0,0-3.69-2.4,12.61,12.61,0,0,0-4.89-1,6.27,6.27,0,0,0-3.33.76,2.33,2.33,0,0,0-1.23,2.08,2.13,2.13,0,0,0,1.35,2,20.11,20.11,0,0,0,4.17,1.29,39.12,39.12,0,0,1,5.82,1.5A10.13,10.13,0,0,1,466.61,28a7.53,7.53,0,0,1,1.74,5.24,8.27,8.27,0,0,1-1.47,4.79,9.68,9.68,0,0,1-4.32,3.34,17.32,17.32,0,0,1-6.75,1.2,23.18,23.18,0,0,1-7.23-1.13,16.49,16.49,0,0,1-5.73-3.09Z"/><path class="cls-1" d="M474.56,7.77a4.38,4.38,0,0,1-1.35-3.21,4.38,4.38,0,0,1,1.35-3.21,4.56,4.56,0,0,1,6.45,0,4.4,4.4,0,0,1,1.32,3.24A4.43,4.43,0,0,1,481,7.77a4.53,4.53,0,0,1-6.45,0ZM474,12.84h7.62v29H474Z"/><path class="cls-1" d="M494.51,40.56A13.94,13.94,0,0,1,489.17,35a16,16,0,0,1-1.86-7.69,16,16,0,0,1,1.86-7.64,14,14,0,0,1,5.34-5.53,17.22,17.22,0,0,1,16.26,0,14,14,0,0,1,5.34,5.53A16,16,0,0,1,518,27.33,16,16,0,0,1,516.11,35a13.94,13.94,0,0,1-5.34,5.54,17.22,17.22,0,0,1-16.26,0ZM508,34.06a11,11,0,0,0,2-6.73,10.89,10.89,0,0,0-2-6.67,6.41,6.41,0,0,0-5.43-2.72,6.33,6.33,0,0,0-5.4,2.72,11,11,0,0,0-2,6.67,11.11,11.11,0,0,0,2,6.73,6.31,6.31,0,0,0,5.4,2.72A6.39,6.39,0,0,0,508,34.06Z"/><path class="cls-1" d="M543.17,23.57q0-3-1.38-4.32a5.55,5.55,0,0,0-4-1.31,7.47,7.47,0,0,0-3.81,1,9.18,9.18,0,0,0-2.79,2.43v19.5h-7.62v-28h7.62v3.78a12.92,12.92,0,0,1,4.2-3.18,13.1,13.1,0,0,1,5.94-1.32q4.68,0,7,2.46a9.36,9.36,0,0,1,2.37,6.78V41.82h-7.62Z"/><path class="cls-1" d="M559.13,33.12a15.31,15.31,0,0,0,4.56,2.76,14.21,14.21,0,0,0,5.46,1.2,6,6,0,0,0,3.63-.92A3,3,0,0,0,574,33.61a2.7,2.7,0,0,0-1.44-2.47,16.49,16.49,0,0,0-4.38-1.56,43.9,43.9,0,0,1-5.76-1.38,9.54,9.54,0,0,1-4-2.51,6.66,6.66,0,0,1-1.68-4.81,7.47,7.47,0,0,1,1.41-4.38,9.56,9.56,0,0,1,4.11-3.2,15.73,15.73,0,0,1,6.36-1.18,18.85,18.85,0,0,1,11.7,3.76L577.31,21a10.73,10.73,0,0,0-3.69-2.4,12.61,12.61,0,0,0-4.89-1,6.27,6.27,0,0,0-3.33.76,2.33,2.33,0,0,0-1.23,2.08,2.13,2.13,0,0,0,1.35,2,20.11,20.11,0,0,0,4.17,1.29,39.12,39.12,0,0,1,5.82,1.5A10.13,10.13,0,0,1,579.59,28a7.53,7.53,0,0,1,1.74,5.24,8.27,8.27,0,0,1-1.47,4.79,9.68,9.68,0,0,1-4.32,3.34,17.32,17.32,0,0,1-6.75,1.2,23.18,23.18,0,0,1-7.23-1.13,16.49,16.49,0,0,1-5.73-3.09Z"/><path class="cls-1" d="M590.78,24.93a12.84,12.84,0,0,1-4.62-4.64,12.39,12.39,0,0,1-1.71-6.4,12.46,12.46,0,0,1,1.71-6.41,12.89,12.89,0,0,1,4.62-4.63,12.79,12.79,0,0,1,12.78,0,12.89,12.89,0,0,1,4.62,4.63,12.46,12.46,0,0,1,1.71,6.41,12.39,12.39,0,0,1-1.71,6.4,12.84,12.84,0,0,1-4.62,4.64,12.79,12.79,0,0,1-12.78,0Zm1-20.17a10.5,10.5,0,0,0-3.93,3.84,10.16,10.16,0,0,0-1.44,5.29,10,10,0,0,0,1.44,5.26,10.88,10.88,0,0,0,9.36,5.27,10.59,10.59,0,0,0,5.4-1.43,11.12,11.12,0,0,0,3.93-3.84A9.85,9.85,0,0,0,608,13.89,10,10,0,0,0,606.5,8.6a10.77,10.77,0,0,0-9.33-5.24A10.93,10.93,0,0,0,591.74,4.76Zm5.13,10.72h-2.52v5.76h-2V6.66h5.94a4.87,4.87,0,0,1,3.36,1.23A4.1,4.1,0,0,1,603,11.1a4.11,4.11,0,0,1-.69,2.46A4.39,4.39,0,0,1,600.71,15a3.49,3.49,0,0,1-1.44.45l3.9,5.82h-2.52Zm-2.52-6.6v4.38h3.9a2.91,2.91,0,0,0,1.86-.61,1.88,1.88,0,0,0,.78-1.53,2,2,0,0,0-.78-1.63,2.91,2.91,0,0,0-1.86-.61Z"/></g></g></svg>