<svg id="Layer_1" data-name="Layer 1" xmlns="http://www.w3.org/2000/svg" viewBox="0 0 181 145"><defs><style>.cls-1{fill:#fff;}.cls-2{fill:#e7a823;}</style></defs><title>Artboard 1mdpi</title><path class="cls-1" d="M71.44,65.37a4.14,4.14,0,0,0,2.17-3.76V59a4.69,4.69,0,0,0-4.9-4.94H56.17v23.2H69a4.69,4.69,0,0,0,4.9-4.94V69.13A4,4,0,0,0,71.44,65.37ZM61.14,58.72h6.34a1,1,0,0,1,1.17,1.18V61.5c0,1-.24,1.64-1.17,1.64H61.14Zm7.79,12.69a1,1,0,0,1-1.17,1.18H61.14v-5h6.21c1.14,0,1.59.14,1.59,1.11Z"/><path class="cls-1" d="M89.58,71.39a1,1,0,0,1-1.17,1.17H83.13A1,1,0,0,1,82,71.39V54.05H77v18.3a4.67,4.67,0,0,0,4.9,4.9h7.76a4.67,4.67,0,0,0,4.9-4.9V54.05h-5Z"/><rect class="cls-1" x="98.5" y="54.05" width="4.96" height="23.2"/><polygon class="cls-1" points="112.36 54.05 107.4 54.05 107.4 77.25 123.64 77.25 123.64 72.56 112.36 72.56 112.36 54.05"/><path class="cls-1" d="M140.18,54.05H127.25v23.2h12.93a4.69,4.69,0,0,0,4.9-4.94V59A4.69,4.69,0,0,0,140.18,54.05Zm-.07,17.28a1,1,0,0,1-1.17,1.18h-6.72V58.79h6.72A1,1,0,0,1,140.11,60Z"/><polygon class="cls-1" points="38.41 54.26 38.41 54.26 35.72 54.26 35.72 59.23 38.41 59.23 38.41 72.29 35.72 72.29 35.72 77.25 38.41 77.25 43.37 77.25 46.05 77.25 46.05 72.29 43.37 72.29 43.37 59.23 46.05 59.23 46.05 54.26 43.37 54.26 38.41 54.26"/><path class="cls-1" d="M26.91,81.9l-8,23.27H24l1.65-5.23h8l1.62,5.23H40.7l-8-23.27Zm.17,13.64L29.77,87l2.62,8.53Z"/><polygon class="cls-1" points="54.91 95.54 48.5 81.9 43.05 81.9 43.05 105.17 47.74 105.17 47.74 89.66 53.12 101.45 56.71 101.45 62.08 89.66 62.08 105.17 66.77 105.17 66.77 81.9 61.33 81.9 54.91 95.54"/><path class="cls-1" d="M108.55,91.83v-5a4.7,4.7,0,0,0-4.9-5H91v23.27h5V96.78h4l4,8.39h5.34l-4.14-8.6A4.67,4.67,0,0,0,108.55,91.83Zm-5-.91a1,1,0,0,1-1.17,1.19H96V86.65h6.45a1,1,0,0,1,1.17,1.19Z"/><rect class="cls-1" x="112.49" y="81.9" width="4.96" height="23.27"/><path class="cls-1" d="M134.16,81.9H126.3a4.67,4.67,0,0,0-4.9,4.9v13.47a4.67,4.67,0,0,0,4.9,4.9h7.86a4.67,4.67,0,0,0,4.9-4.9v-4h-5v3a1,1,0,0,1-1.17,1.17h-5.38a1,1,0,0,1-1.17-1.17V87.76a1,1,0,0,1,1.17-1.17h5.38a1,1,0,0,1,1.17,1.17v3h5v-4A4.67,4.67,0,0,0,134.16,81.9Z"/><path class="cls-1" d="M153.89,81.9H148.1l-8,23.27h5.14l1.65-5.23h8l1.62,5.23h5.34Zm-5.62,13.64L151,87l2.62,8.53Z"/><polygon class="cls-1" points="74.75 95.86 85.65 95.86 85.65 91.21 74.75 91.21 74.75 86.56 87.46 86.56 87.46 81.9 74.75 81.9 70.1 81.9 70.1 81.9 70.1 86.56 70.1 86.56 70.1 91.21 70.1 91.21 70.1 95.86 70.1 95.86 70.1 105.17 70.18 105.17 70.18 105.17 87.54 105.17 87.54 100.52 74.75 100.52 74.75 95.86"/><path class="cls-2" d="M97.37,25.77H96c-5.65,0-12.23,5.88-12.23,5.88L88,25.77,84.19,14,80.38,25.76H68.06L78,33l-3.8,11.71h0l3.14-2.28,0-.06c4.23-3.12,11.27-8.29,12.1-8.83a20.53,20.53,0,0,1,7.27-2.81,26.81,26.81,0,0,1,4.34-.29H112c4.4-.34,6.39-2.43,9.21-4.68Z"/><path class="cls-2" d="M103.1,33a23.14,23.14,0,0,0-12.45,3.36l-2.26,1.47H103.2c4.49-.35,6.55-2.48,9.42-4.78Z"/><path class="cls-2" d="M84.84,40.09,77.7,44.75H92.63c5.48-.3,7.22-2,11.29-4.66Z"/><rect class="cls-1" x="19.64" y="120.81" width="43.61" height="2.39"/><rect class="cls-1" x="118.71" y="120.81" width="43.61" height="2.39"/><path class="cls-1" d="M78.75,115.58a2.59,2.59,0,0,1,2.81,2.61v8.16A2.59,2.59,0,0,1,78.75,129H74a2.59,2.59,0,0,1-2.81-2.61v-8.16A2.59,2.59,0,0,1,74,115.58Zm0,3.13c0-.42-.22-.62-.67-.62H74.7c-.45,0-.67.2-.67.63v7.13c0,.42.22.63.67.63H78c.45,0,.67-.2.67-.62Z"/><path class="cls-1" d="M83.16,128.89V115.65H86v5.22h4.9v-5.22h2.85v13.24H90.9v-5.52H86v5.52Z"/><path class="cls-1" d="M95.69,128.89V115.65h2.84v13.24Z"/><path class="cls-1" d="M107.7,115.58a2.59,2.59,0,0,1,2.81,2.61v8.16A2.59,2.59,0,0,1,107.7,129h-4.76a2.59,2.59,0,0,1-2.81-2.61v-8.16a2.59,2.59,0,0,1,2.81-2.61Zm0,3.13c0-.42-.22-.62-.67-.62h-3.34c-.45,0-.67.2-.67.63v7.13c0,.42.22.63.67.63H107c.45,0,.67-.2.67-.62Z"/></svg>