<svg xmlns="http://www.w3.org/2000/svg" viewBox="8041 198 375 109.353"><defs><style>.a{fill:#fff;}.b{fill:#131c4e;}.c{fill:#2b3990;}.d{fill:#f7941d;}.e{fill:#1b75bc;}</style></defs><g transform="translate(8041 198)"><g transform="translate(19.169 95.844)"><path class="a" d="M34.154,134.32c-.226.679-.6,1.736-.83,2.264a14.454,14.454,0,0,1-2.717.377c-3.622,0-5.207-2.49-5.207-4.83,0-3.094,2.34-5.132,5.66-5.132a10.883,10.883,0,0,1,2.566.377c.151.83.226,1.434.3,2.189l-.453.075a2.551,2.551,0,0,0-2.868-2.189c-2.415,0-3.773,2.038-3.773,4.3,0,2.717,1.585,4.6,3.849,4.6,1.509,0,2.264-.83,3.019-2.264Z" transform="translate(-25.4 -127)"/><path class="a" d="M48.739,134.544a3.26,3.26,0,0,1-3.17,3.472,3.108,3.108,0,0,1-3.17-3.245,3.3,3.3,0,0,1,3.17-3.472A3.114,3.114,0,0,1,48.739,134.544Zm-5.056-.226c0,1.811.83,3.245,2.038,3.245.906,0,1.66-.679,1.66-2.641,0-1.736-.679-3.094-1.962-3.094C44.513,131.752,43.683,132.658,43.683,134.318Z" transform="translate(-29.57 -128.054)"/><path class="a" d="M59.851,137.766v-.377c.83-.075.981-.226.981-1.208v-2.415c0-.981-.377-1.66-1.358-1.66a2.608,2.608,0,0,0-1.585.755v3.4c0,.981.075,1.057.981,1.132v.377H55.7v-.377c.981-.075,1.057-.151,1.057-1.132v-3.019c0-.906-.075-.981-.906-1.132v-.3a10.429,10.429,0,0,0,2.038-.6v1.132a11.043,11.043,0,0,1,.981-.679,2.369,2.369,0,0,1,1.207-.453c1.132,0,1.887.83,1.887,2.189v2.792c0,.981.075,1.057.906,1.132v.377H59.851Z" transform="translate(-32.833 -128.03)"/><path class="a" d="M74.351,137.766v-.377c.83-.075.981-.226.981-1.208v-2.415c0-.981-.377-1.66-1.358-1.66a2.608,2.608,0,0,0-1.585.755v3.4c0,.981.075,1.057.981,1.132v.377H70.2v-.377c.981-.075,1.057-.151,1.057-1.132v-3.019c0-.906-.075-.981-.906-1.132v-.3a10.428,10.428,0,0,0,2.038-.6v1.132a11.043,11.043,0,0,1,.981-.679,2.369,2.369,0,0,1,1.207-.453c1.132,0,1.887.83,1.887,2.189v2.792c0,.981.075,1.057.906,1.132v.377H74.351Z" transform="translate(-36.39 -128.03)"/><path class="a" d="M89.883,136.583a3.464,3.464,0,0,1-2.415,1.434,2.875,2.875,0,0,1-2.868-3.094,3.869,3.869,0,0,1,.981-2.566,2.876,2.876,0,0,1,2.113-1.057,2.24,2.24,0,0,1,2.189,2.189c0,.3-.075.377-.3.453a26.691,26.691,0,0,1-3.849.226c0,1.962,1.132,2.792,2.189,2.792a2.253,2.253,0,0,0,1.66-.755Zm-4-3.019c.83,0,1.585,0,2.49-.075.226,0,.377-.075.377-.3a1.31,1.31,0,0,0-1.283-1.434C86.713,131.828,86.109,132.432,85.883,133.564Z" transform="translate(-39.923 -128.055)"/><path class="a" d="M102.234,136.507a3.56,3.56,0,0,1-2.49,1.509A2.96,2.96,0,0,1,96.8,135a3.47,3.47,0,0,1,1.434-2.868,3.8,3.8,0,0,1,2.189-.83,2.346,2.346,0,0,1,1.283.377.452.452,0,0,1,.226.453.674.674,0,0,1-.453.6c-.075,0-.151-.075-.3-.151a2.374,2.374,0,0,0-1.434-.6c-.981,0-1.811.83-1.811,2.34,0,2.038,1.358,2.717,2.189,2.717a2.332,2.332,0,0,0,1.811-.83Z" transform="translate(-42.916 -128.055)"/><path class="a" d="M111.794,137.177a1.2,1.2,0,0,1-.6.226c-.906,0-1.434-.6-1.434-1.736v-4.226h-.981l-.075-.151.377-.453h.679v-1.057l.981-.981h.226v2.038h1.66a.467.467,0,0,1-.075.6h-1.585v3.773c0,1.208.453,1.434.83,1.434a2.638,2.638,0,0,0,.906-.226l.151.377Z" transform="translate(-45.835 -127.442)"/><path class="a" d="M118.8,136.883v-.377c.906-.075,1.057-.151,1.057-1.132v-3.019c0-.906-.075-.981-.906-1.132v-.3a8.05,8.05,0,0,0,2.038-.6v5.056c0,.981.075,1.057,1.057,1.132v.377Zm.755-8.528a.755.755,0,1,1,.755.755A.812.812,0,0,1,119.555,128.355Z" transform="translate(-48.313 -127.147)"/><path class="a" d="M131.951,137.766v-.377c.83-.075.981-.226.981-1.208v-2.415c0-.981-.377-1.66-1.358-1.66a2.608,2.608,0,0,0-1.585.755v3.4c0,.981.075,1.057.981,1.132v.377H127.8v-.377c.981-.075,1.057-.151,1.057-1.132v-3.019c0-.906-.075-.981-.906-1.132v-.3a10.429,10.429,0,0,0,2.038-.6v1.132a11.041,11.041,0,0,1,.981-.679,2.369,2.369,0,0,1,1.207-.453c1.132,0,1.887.83,1.887,2.189v2.792c0,.981.075,1.057.906,1.132v.377h-3.019Z" transform="translate(-50.521 -128.03)"/><path class="a" d="M148.515,131.477a3.244,3.244,0,0,1-.679.755l-.83-.075a1.775,1.775,0,0,1,.453,1.283,2.355,2.355,0,0,1-2.566,2.34c-.226,0-.528-.075-.755-.075-.226.151-.453.377-.453.6,0,.3.226.6.906.6H146.1c.906,0,2.113.3,2.113,1.736,0,1.509-1.736,2.868-3.622,2.868-1.585,0-2.49-.981-2.49-1.811a1.212,1.212,0,0,1,.377-.83c.3-.3.83-.755,1.207-1.057a1.756,1.756,0,0,1-1.057-.83,1.015,1.015,0,0,1-.151-.6,2.95,2.95,0,0,0,1.283-.906,2.118,2.118,0,0,1-1.283-1.962,2.514,2.514,0,0,1,2.641-2.415,3.121,3.121,0,0,1,1.434.377,14.073,14.073,0,0,0,1.962-.226Zm-4.6,6.792a1.521,1.521,0,0,0-.679,1.132c0,.755.83,1.358,1.962,1.358,1.358,0,2.113-.679,2.113-1.585a1.068,1.068,0,0,0-.679-1.057,3.547,3.547,0,0,0-1.434-.226A1.854,1.854,0,0,0,143.911,138.269Zm-.226-4.83c0,1.132.528,1.962,1.358,1.962.679,0,1.208-.6,1.208-1.736s-.528-1.962-1.358-1.962C144.213,131.628,143.685,132.232,143.685,133.439Z" transform="translate(-54.029 -128.006)"/><path class="a" d="M172.354,134.32c-.226.679-.6,1.736-.83,2.264a14.454,14.454,0,0,1-2.717.377c-3.622,0-5.207-2.49-5.207-4.83,0-3.094,2.34-5.132,5.66-5.132a10.882,10.882,0,0,1,2.566.377c.151.83.226,1.434.3,2.189l-.453.075a2.551,2.551,0,0,0-2.868-2.189c-2.415,0-3.773,2.038-3.773,4.3,0,2.717,1.585,4.6,3.849,4.6,1.509,0,2.264-.83,3.019-2.264Z" transform="translate(-59.303 -127)"/><path class="a" d="M186.839,134.544a3.26,3.26,0,0,1-3.17,3.472,3.108,3.108,0,0,1-3.17-3.245,3.3,3.3,0,0,1,3.17-3.472A3.114,3.114,0,0,1,186.839,134.544Zm-5.056-.226c0,1.811.83,3.245,2.038,3.245.906,0,1.66-.679,1.66-2.641,0-1.736-.679-3.094-1.962-3.094C182.613,131.752,181.783,132.658,181.783,134.318Z" transform="translate(-63.449 -128.054)"/><path class="a" d="M197.951,137.766v-.377c.83-.075.981-.226.981-1.208v-2.415c0-.981-.377-1.66-1.358-1.66a2.608,2.608,0,0,0-1.585.755v3.4c0,.981.075,1.057.981,1.132v.377H193.8v-.377c.981-.075,1.057-.151,1.057-1.132v-3.019c0-.906-.075-.981-.906-1.132v-.3a10.428,10.428,0,0,0,2.038-.6v1.132a11.039,11.039,0,0,1,.981-.679,2.369,2.369,0,0,1,1.207-.453c1.132,0,1.887.83,1.887,2.189v2.792c0,.981.075,1.057.906,1.132v.377h-3.019Z" transform="translate(-66.712 -128.03)"/><path class="a" d="M210.794,137.177a1.2,1.2,0,0,1-.6.226c-.906,0-1.434-.6-1.434-1.736v-4.226h-.981l-.075-.151.377-.453h.679v-1.057l.981-.981h.226v2.038h1.66a.467.467,0,0,1-.075.6h-1.585v3.773c0,1.208.453,1.434.83,1.434a2.638,2.638,0,0,0,.906-.226l.151.377Z" transform="translate(-70.122 -127.442)"/><path class="a" d="M222.883,136.583a3.465,3.465,0,0,1-2.415,1.434,2.875,2.875,0,0,1-2.868-3.094,3.869,3.869,0,0,1,.981-2.566,2.876,2.876,0,0,1,2.113-1.057,2.24,2.24,0,0,1,2.189,2.189c0,.3-.075.377-.3.453a26.691,26.691,0,0,1-3.849.226c0,1.962,1.132,2.792,2.189,2.792a2.253,2.253,0,0,0,1.66-.755Zm-4-3.019c.83,0,1.585,0,2.49-.075.226,0,.377-.075.377-.3a1.31,1.31,0,0,0-1.283-1.434A2.021,2.021,0,0,0,218.883,133.564Z" transform="translate(-72.551 -128.055)"/><path class="a" d="M233.851,137.766v-.377c.83-.075.981-.226.981-1.208v-2.415c0-.981-.377-1.66-1.358-1.66a2.608,2.608,0,0,0-1.585.755v3.4c0,.981.075,1.057.981,1.132v.377H229.7v-.377c.981-.075,1.057-.151,1.057-1.132v-3.019c0-.906-.075-.981-.906-1.132v-.3a10.428,10.428,0,0,0,2.038-.6v1.132a11.041,11.041,0,0,1,.981-.679,2.369,2.369,0,0,1,1.207-.453c1.132,0,1.887.83,1.887,2.189v2.792c0,.981.075,1.057.906,1.132v.377h-3.019Z" transform="translate(-75.519 -128.03)"/><path class="a" d="M246.594,137.177a1.2,1.2,0,0,1-.6.226c-.906,0-1.434-.6-1.434-1.736v-4.226h-.981l-.075-.151.377-.453h.679v-1.057l.981-.981h.226v2.038h1.66a.467.467,0,0,1-.075.6h-1.585v3.773c0,1.208.453,1.434.83,1.434a2.638,2.638,0,0,0,.906-.226l.151.377Z" transform="translate(-78.904 -127.442)"/></g><g transform="translate(0 34.111)"><path class="b" d="M47.545,73.727H8.981a22.286,22.286,0,0,0,1.434,8.452,15.094,15.094,0,0,0,4,5.887,15.968,15.968,0,0,0,5.811,3.4,23.037,23.037,0,0,0,7.4,1.132,29.19,29.19,0,0,0,10.792-2.113c3.622-1.434,6.188-2.792,7.7-4.226h.453v9.584a76.793,76.793,0,0,1-9.132,3.17,37.42,37.42,0,0,1-9.735,1.283c-8.679,0-15.471-2.34-20.376-7.094C2.415,88.519,0,81.8,0,73.123Q0,60.218,7.019,52.747C11.7,47.69,17.81,45.2,25.508,45.2c7.094,0,12.528,2.038,16.377,6.188S47.62,61.35,47.62,68.972v4.754Zm-8.6-6.717c0-4.6-1.207-8.226-3.472-10.716-2.264-2.566-5.811-3.773-10.49-3.773-4.754,0-8.452,1.358-11.245,4.151A16.322,16.322,0,0,0,8.981,67.01Z" transform="translate(0 -45.2)"/><path class="b" d="M118.264,95.862a60.123,60.123,0,0,1-8.377,3.321,31.932,31.932,0,0,1-18.867-.453,21.571,21.571,0,0,1-8.151-5.056,22.708,22.708,0,0,1-5.283-8.528A34.681,34.681,0,0,1,75.7,73.07c0-8.6,2.34-15.32,7.094-20.15,4.679-4.905,10.943-7.32,18.641-7.32a31.628,31.628,0,0,1,8.83,1.283,46.8,46.8,0,0,1,7.924,3.094v9.811h-.453a33.427,33.427,0,0,0-8.3-4.83,22.667,22.667,0,0,0-8.377-1.66c-4.981,0-8.981,1.66-11.848,5.056s-4.3,8.3-4.3,14.792c0,6.339,1.434,11.169,4.226,14.565s6.792,5.056,11.924,5.056a22.329,22.329,0,0,0,5.434-.679,24.26,24.26,0,0,0,4.981-1.811,41.524,41.524,0,0,0,3.622-2.113,28.139,28.139,0,0,0,2.641-1.887h.453v9.584Z" transform="translate(-18.571 -45.298)"/><path class="b" d="M223.449,99.009h-8.83V69.2a59.464,59.464,0,0,0-.3-6.49,13.236,13.236,0,0,0-1.283-4.981,7.031,7.031,0,0,0-3.094-3.019,13.081,13.081,0,0,0-5.811-1.057,15.84,15.84,0,0,0-7.4,1.887,44.544,44.544,0,0,0-7.4,4.679q.113,1.132.226,2.49c.075.981.075,1.887.075,2.868V99.084h-8.83V69.2a59.973,59.973,0,0,0-.3-6.566,13.236,13.236,0,0,0-1.283-4.981,7.032,7.032,0,0,0-3.094-3.019,13.436,13.436,0,0,0-5.811-.981,16.075,16.075,0,0,0-7.245,1.811,47.583,47.583,0,0,0-7.245,4.528V99.084H147V46.634h8.83v5.811a39.169,39.169,0,0,1,8.226-5.358A20.293,20.293,0,0,1,172.81,45.2a17.159,17.159,0,0,1,9.056,2.264,14.088,14.088,0,0,1,5.585,6.264,43.44,43.44,0,0,1,9.735-6.49,22.261,22.261,0,0,1,9.434-1.962c5.736,0,9.962,1.736,12.754,5.207,2.717,3.472,4.075,8.377,4.075,14.641Z" transform="translate(-36.062 -45.2)"/><path class="b" d="M304.511,93.071c0,8.905-2.038,15.4-6.037,19.546s-10.264,6.264-18.641,6.264a57.531,57.531,0,0,1-8.151-.6,64.511,64.511,0,0,1-7.773-1.66v-8.981h.453c1.434.528,3.7,1.283,6.868,2.113a36.2,36.2,0,0,0,9.358,1.207,23.082,23.082,0,0,0,7.471-1.057,11.4,11.4,0,0,0,4.6-3.019A10.257,10.257,0,0,0,295,102.5a22.561,22.561,0,0,0,.679-5.736V92.015a34.649,34.649,0,0,1-7.622,4.754,23.316,23.316,0,0,1-9.283,1.585c-6.264,0-11.245-2.264-14.867-6.792-3.7-4.528-5.509-10.867-5.509-19.093a31.529,31.529,0,0,1,1.887-11.622,26.588,26.588,0,0,1,5.207-8.452A22.592,22.592,0,0,1,281.569,45.3a27.38,27.38,0,0,1,7.622.906A31.157,31.157,0,0,1,295.681,49l.528-2.264h8.226V93.071Zm-8.83-8.452V56.092a34.036,34.036,0,0,0-6.566-2.264,27.428,27.428,0,0,0-6.037-.679c-4.83,0-8.679,1.66-11.471,4.905s-4.151,8-4.151,14.188c0,5.886,1.057,10.339,3.094,13.358s5.509,4.528,10.264,4.528a21.479,21.479,0,0,0,7.7-1.509A27.76,27.76,0,0,0,295.681,84.619Z" transform="translate(-63.391 -45.225)"/></g><g transform="translate(251.308)"><path class="b" d="M356.772,113.209,333.377,100,333,73.135,356.093,59.4l23.471,13.131.377,26.942Z" transform="translate(-333 -14.572)"/><path class="c" d="M389.848,53.809,366.377,40.6,366,13.735,389.169,0l23.471,13.131.3,26.942Z" transform="translate(-341.096)"/><path class="d" d="M458.548,53.833,435.077,40.7,434.7,13.835,457.869.1l23.471,13.131.3,26.867Z" transform="translate(-357.949 -0.025)"/><path class="e" d="M425.148,113.209,401.677,100,401.3,73.135,424.469,59.4l23.471,13.131.3,26.942Z" transform="translate(-349.755 -14.572)"/></g></g></svg>