<svg xmlns="http://www.w3.org/2000/svg" viewBox="0 0 700 249.03"><defs><style>.cls-1{fill:#98b8c4;}.cls-2{fill:#286570;}.cls-3{fill:#ccc;}</style></defs><title>client-kristieinc</title><g id="Layer_2" data-name="Layer 2"><g id="Layer_1-2" data-name="Layer 1"><path class="cls-1" d="M200.6,156.57A252.24,252.24,0,0,1,248.15,152c43.67,0,77.49,12.15,77.49,29.41,0,13.38-19,21.13-42.62,21.13-27.3,0-60.59-10.39-78.37-34.34C154.1,179.46,100.39,204.82,72,249l-2.29-1.59c24.83-52.83,77.32-79.95,128.39-90.34a65.9,65.9,0,0,1-6-28.36c0-24,16.38-45.61,17.44-54.95-6.87-.35-10.75-1.23-12.86-2.29C162.73,112,140.54,138.78,74,138.78a316.32,316.32,0,0,1-34.7-1.94l.36-1.94c2.64.18,5.63.36,8.45.36,50.19,0,117.47-34.87,165.55-86.48l-.53-.35C175.76,77.31,129.8,104.61,81,104.61c-52.3,0-81-26.59-81-53C0,25.71,27.83,0,88.76,0c71.86,0,119.58,35.57,128.39,42.8,3.87-3,7.75-6,11.62-9.34a.68.68,0,0,1,.53-.17,2.26,2.26,0,0,1,1.94,2.11,1.39,1.39,0,0,1-.35.88c-1.06,1.06-13.39,11.09-16.73,15-4.41,4.93-8.28,9.51-12.16,14.09,6,0,9.16,2.29,10.75,5.28,49.66-4.93,87.88-64.1,156.57-64.1,27.82,0,41.38,5.63,44.55,7l-1.76,2.11c-1.76-.88-14.79-5.81-31.88-5.81C307.85,9.86,290.94,74,217,74h-3.35a8.17,8.17,0,0,1,.17,1.94c0,18.13-18,32.05-18,58.29A51.44,51.44,0,0,0,200.6,156.57ZM12,53.89c0,24,25.53,47.73,72.56,47.73,28.17,0,72.56-11.62,131.2-57.59C207.29,36.81,166.08,5.46,94.22,5.46,38,5.46,12,29.76,12,53.89ZM199.72,68,199,69c0,.88,1.94,1.93,7.05,1.93h3.17c-.71-2.81-3.17-3.87-6.17-3.87A6.71,6.71,0,0,0,199.72,68Zm122,112.89c0-12.33-23.24-19.72-56.18-19.72a286.68,286.68,0,0,0-58.29,6.51c17.26,22.19,50.54,32.58,77,32.58C305.38,200.24,321.76,193.55,321.76,180.87Z"/><path class="cls-2" d="M257.93,89.62c1,0,2,0,2.9-.07s2-.11,3.06-.19l2.68-.18a2.87,2.87,0,0,1,.11,1.23c0,.62-.11.93-.26.93a12.32,12.32,0,0,0-2.68.52c-1.29.35-2,.7-2.09,1a29.2,29.2,0,0,0-.67,6.93V112l.53.45H262a5.72,5.72,0,0,0,4.32-2.16q8.72-9.76,12.82-15.13c1.19-1.44,1.79-2.38,1.79-2.83,0-.85-1.42-1.27-4.25-1.27-.2,0-.3-.22-.3-.67a4.3,4.3,0,0,1,.15-1.19l2.53.18c1.05.08,2,.14,2.91.19s1.74.07,2.53.07c1.24,0,2.66-.06,4.25-.18l3.28-.26a2.35,2.35,0,0,1,.11,1.08c0,.52-.11.78-.26.78a10.36,10.36,0,0,0-6.86,3.13l-15,17.44c-.4.44-.23,1.12.52,2l18,19.75a8.94,8.94,0,0,0,3.13,2.09,13.25,13.25,0,0,0,3,1,14.71,14.71,0,0,0,1.75.14c.24,0,.37.45.37,1.35a1.88,1.88,0,0,1-.15.82q-7.46-.37-9.24-.38c-1.24,0-2.36,0-3.35.08l-3.36.15-3.35.15a1.81,1.81,0,0,1-.3-1.24c0-.61.1-.93.3-.93a8.25,8.25,0,0,0,2.05-.29c.77-.2,1.15-.5,1.15-.9q0-2.38-16.91-19.75a4.22,4.22,0,0,0-2.16-.29c-.35,0-.53.2-.53.59v12.22a29.14,29.14,0,0,0,.67,6.93c.1.35.8.69,2.09,1a13.47,13.47,0,0,0,2.68.48c.15,0,.24.3.26.9a3.32,3.32,0,0,1-.11,1.27q-7.45-.37-8.64-.38-.37,0-8.94.38a1.58,1.58,0,0,1-.3-1.12q0-1.05.3-1.05a13.44,13.44,0,0,0,2.86-.44q1.91-.45,2.13-1a30,30,0,0,0,.52-6.63V99.54A30.15,30.15,0,0,0,254,92.9q-.22-.59-2.13-1.08a12.82,12.82,0,0,0-2.86-.48c-.2,0-.3-.32-.3-1a1.71,1.71,0,0,1,.3-1.19c.64,0,2,.14,3.95.26S256.59,89.62,257.93,89.62Z"/><path class="cls-2" d="M324.44,89.33a18.51,18.51,0,0,1,5.14.74,22,22,0,0,1,5.14,2.24,11.78,11.78,0,0,1,4.17,4.24,12.25,12.25,0,0,1,1.64,6.41,11.71,11.71,0,0,1-2.34,6.56,15.31,15.31,0,0,1-6.38,5.29c-.49.2-.64.45-.44.75a52.66,52.66,0,0,0,8.57,13.11q7.15,7.83,11.62,7.83a2.31,2.31,0,0,1,.23,1,2.48,2.48,0,0,1-.23,1.12,7.65,7.65,0,0,1-2,.22q-10.44,0-18.11-10.73-1.19-1.64-2.72-3.91c-1-1.51-1.76-2.61-2.23-3.28s-1-1.4-1.64-2.2a12.7,12.7,0,0,0-1.64-1.79,7.2,7.2,0,0,0-1.53-1,9.33,9.33,0,0,0-2.76-.29,6.61,6.61,0,0,0-.89,0,1,1,0,0,0-.6.33,1.21,1.21,0,0,0-.3.89v11q0,5,.6,6.48c.25.65,1.13,1.17,2.65,1.57a14.49,14.49,0,0,0,3.24.59c.19,0,.3.35.3,1.05a3.61,3.61,0,0,1-.15,1.12q-7.45-.37-9.69-.38l-9.09.38a2.33,2.33,0,0,1-.23-1.35c0-.64.08-1,.23-1a13.27,13.27,0,0,0,2.9-.45c1.24-.3,2-.67,2.24-1.12.35-.6.52-2.93.52-7V99.69a28,28,0,0,0-.52-6.41c-.15-.4-.88-.77-2.2-1.12a12.74,12.74,0,0,0-2.94-.52q-.3,0-.3-.9a1.86,1.86,0,0,1,.3-1.26l8.94.14c1.49,0,3.25-.05,5.29-.14S323,89.33,324.44,89.33Zm-1.2,3.27a20.1,20.1,0,0,0-5.21.53c-.2.05-.36.23-.49.56a9.9,9.9,0,0,0-.29,2.23q-.12,1.76-.12,5.4v9q0,2.16,6.49,2.16h1.86q2.61,0,5.4-2.6a9,9,0,0,0,2.8-6.94Q333.68,92.61,323.24,92.6Z"/><path class="cls-2" d="M364.27,99.54a29.39,29.39,0,0,0-.53-6.64c-.15-.39-.85-.75-2.12-1.08a12.88,12.88,0,0,0-2.87-.48c-.2,0-.3-.32-.3-1a1.71,1.71,0,0,1,.3-1.19q8.56.38,8.94.37,1.2,0,8.65-.37a3.57,3.57,0,0,1,.15,1.12c0,.69-.1,1-.3,1a12.22,12.22,0,0,0-2.68.52c-1.3.35-2,.7-2.09,1a28.68,28.68,0,0,0-.67,6.93v28.32a28.63,28.63,0,0,0,.67,6.93c.1.35.79.69,2.09,1a13.36,13.36,0,0,0,2.68.48c.2,0,.3.38.3,1.12a3.32,3.32,0,0,1-.15,1.05q-7.45-.37-8.65-.38-.37,0-8.94.38a1.58,1.58,0,0,1-.3-1.12q0-1.05.3-1.05a13.51,13.51,0,0,0,2.87-.44c1.27-.3,2-.65,2.12-1a29.22,29.22,0,0,0,.53-6.63Z"/><path class="cls-2" d="M388.45,102a11.76,11.76,0,0,1,4.39-9.43,15.4,15.4,0,0,1,10.21-3.69,25.2,25.2,0,0,1,3.09.18,24.19,24.19,0,0,1,2.39.42c.62.14,1.51.38,2.68.7s2.2.59,3.09.79a49.93,49.93,0,0,1,.9,10.65c0,.35-.25.53-.75.53-1.19,0-1.84-.25-1.94-.75A11.41,11.41,0,0,0,409.35,95a8.87,8.87,0,0,0-6.82-3.09q-4.47,0-6.3,2.23a8.42,8.42,0,0,0-1.82,5.52,7.14,7.14,0,0,0,.52,2.71,14.32,14.32,0,0,0,1,2.17,8.43,8.43,0,0,0,1.9,2c.92.75,1.59,1.27,2,1.57s1.27.84,2.54,1.64,2.07,1.29,2.42,1.49l2.61,1.6c1.49.92,2.51,1.56,3.05,1.94s1.41,1,2.57,2a14,14,0,0,1,2.54,2.57,15.35,15.35,0,0,1,1.49,2.8,8.82,8.82,0,0,1,.71,3.46,12.17,12.17,0,0,1-4.66,9.8,16.64,16.64,0,0,1-10.92,3.84,30.34,30.34,0,0,1-3.8-.26c-1.34-.18-2.46-.35-3.35-.53s-2-.42-3.39-.74-2.33-.53-2.87-.63Q387,127.94,387,125.25c0-.3.39-.45,1.19-.45a2.23,2.23,0,0,1,1.86.67q2.53,10.72,12.37,10.73a9.38,9.38,0,0,0,6.33-2.23,7.9,7.9,0,0,0,2.61-6.34,8.49,8.49,0,0,0-.44-2.76,11.45,11.45,0,0,0-.94-2.08,6.43,6.43,0,0,0-1.71-1.75c-.82-.62-1.45-1.09-1.9-1.38s-1.27-.77-2.46-1.42l-2.46-1.34c-1.44-.84-2.45-1.44-3-1.79s-1.51-1-2.83-1.82a15.06,15.06,0,0,1-2.87-2.31c-.59-.68-1.29-1.49-2.08-2.46a8.65,8.65,0,0,1-1.68-3.1A11.73,11.73,0,0,1,388.45,102Z"/><path class="cls-2" d="M437.07,89.48q5.1.13,8.39.14c2.18,0,5-.05,8.41-.14s6.09-.15,8-.15a23.11,23.11,0,0,0,5.14-.82l1.42,10.65a2.49,2.49,0,0,1-1.79.53c-.45,0-.7-.13-.75-.38q-1-4.17-2.57-5.4t-5.77-1.23q-7.9,0-8.2,1.12a29.83,29.83,0,0,0-.67,7.45v26.9a28.63,28.63,0,0,0,.67,6.93c.1.35.79.69,2.09,1a13.36,13.36,0,0,0,2.68.48c.2,0,.3.38.3,1.12a3.32,3.32,0,0,1-.15,1.05q-7.46-.37-8.65-.38-.37,0-8.94.38a1.58,1.58,0,0,1-.3-1.12q0-1.05.3-1.05a13.6,13.6,0,0,0,2.87-.44c1.27-.3,2-.65,2.12-1a29.37,29.37,0,0,0,.52-6.63v-27q0-6.48-.66-7.67c-.4-.75-3.09-1.12-8.05-1.12-2.84,0-4.76.41-5.78,1.23s-1.88,2.62-2.57,5.4c-.05.25-.3.38-.75.38a2.49,2.49,0,0,1-1.79-.53L424,88.51a23.11,23.11,0,0,0,5.14.82Q432,89.33,437.07,89.48Z"/><path class="cls-2" d="M480.52,99.54A30.15,30.15,0,0,0,480,92.9q-.22-.59-2.13-1.08a12.8,12.8,0,0,0-2.87-.48c-.2,0-.3-.32-.3-1a1.71,1.71,0,0,1,.3-1.19q8.56.38,8.95.37,1.19,0,8.64-.37a3.57,3.57,0,0,1,.15,1.12c0,.69-.1,1-.3,1a12.22,12.22,0,0,0-2.68.52c-1.29.35-2,.7-2.09,1a28.68,28.68,0,0,0-.67,6.93v28.32a28.63,28.63,0,0,0,.67,6.93c.1.35.8.69,2.09,1a13.36,13.36,0,0,0,2.68.48c.2,0,.3.38.3,1.12a3.32,3.32,0,0,1-.15,1.05q-7.45-.37-8.64-.38-.39,0-8.95.38a1.58,1.58,0,0,1-.3-1.12q0-1.05.3-1.05a13.42,13.42,0,0,0,2.87-.44q1.9-.45,2.13-1a30,30,0,0,0,.52-6.63Z"/><path class="cls-2" d="M511.48,89.62c2.23,0,6.11-.09,11.62-.29s9.66-.3,12.45-.3c.19,1.44.58,3.34,1.15,5.7s.91,3.84,1,4.43a1.88,1.88,0,0,1-1.34.38c-.65,0-1-.18-1-.53-.74-2.73-1.79-4.48-3.13-5.25a11.09,11.09,0,0,0-5.51-1.16h-5c-4.28,0-6.46.33-6.56,1a35.13,35.13,0,0,0-.38,6.26v11.93c0,.29,1.07.44,3.21.44h7a7.07,7.07,0,0,0,2-.29l1.34-.38c.2,0,.46-.37.79-1a5.53,5.53,0,0,0,.56-1.3c0-.27.22-1,.52-2.12,0-.35.42-.52,1.11-.52a1.75,1.75,0,0,1,1.27.37v14.08a1.72,1.72,0,0,1-1.19.3c-.65,0-1-.2-1.19-.59-.35-1.35-.65-2.35-.9-3a4.81,4.81,0,0,0-.56-1.2,4.46,4.46,0,0,0-.63-.48q-1-.6-7.9-.6c-3.58,0-5.37.23-5.37.67v11.56a23.68,23.68,0,0,0,.67,6.78c.15.5,1.84.74,5.07.74h3.58q6.93,0,9.39-1.26a8.14,8.14,0,0,0,2.5-2.65,17.39,17.39,0,0,0,2.19-4.88q.15-.45,1.05-.45a2.72,2.72,0,0,1,1.86.45c-.25.65-.63,1.68-1.15,3.09s-.94,2.56-1.23,3.43-.63,1.88-1,3a18.17,18.17,0,0,0-.67,2.83q-3.81,0-12-.15t-13.42-.15l-9,.23a2,2,0,0,1-.23-1.2c0-.64.08-1,.23-1a11.89,11.89,0,0,0,2.87-.52c1.26-.34,2-.74,2.27-1.19.35-.6.52-2.93.52-7V99.69a28,28,0,0,0-.52-6.41c-.15-.4-.88-.77-2.2-1.12a12.74,12.74,0,0,0-2.94-.52q-.3,0-.3-.9a1.86,1.86,0,0,1,.3-1.26Q506.48,89.61,511.48,89.62Z"/><path class="cls-2" d="M567.22,99.54a29.53,29.53,0,0,0-.52-6.64c-.15-.39-.85-.75-2.12-1.08a13,13,0,0,0-2.87-.48c-.2,0-.3-.32-.3-1a1.71,1.71,0,0,1,.3-1.19q8.56.38,8.94.37,1.2,0,8.65-.37a3.57,3.57,0,0,1,.15,1.12c0,.69-.11,1-.3,1a12.38,12.38,0,0,0-2.69.52c-1.29.35-2,.7-2.08,1a28.68,28.68,0,0,0-.67,6.93v28.32a28.63,28.63,0,0,0,.67,6.93c.1.35.79.69,2.08,1a13.53,13.53,0,0,0,2.69.48c.19,0,.3.38.3,1.12a3.32,3.32,0,0,1-.15,1.05q-7.45-.37-8.65-.38-.37,0-8.94.38a1.58,1.58,0,0,1-.3-1.12q0-1.05.3-1.05a13.6,13.6,0,0,0,2.87-.44c1.27-.3,2-.65,2.12-1a29.37,29.37,0,0,0,.52-6.63Z"/><path class="cls-2" d="M627.92,99.46a28.87,28.87,0,0,0-.53-6.56c-.14-.39-1-.78-2.57-1.15a17,17,0,0,0-3.31-.56c-.2,0-.3-.29-.3-.86a1.64,1.64,0,0,1,.3-1.15c.64,0,1.93.14,3.87.26s3.58.18,4.92.18,2.92-.07,4.88-.22,3.12-.22,3.47-.22a3.57,3.57,0,0,1,.15,1.12c0,.59-.1.89-.3.89a18.4,18.4,0,0,0-3.24.6c-1.67.39-2.55.77-2.65,1.11a29.78,29.78,0,0,0-.59,6.93v28.32q0,4.62.22,10.44a2.2,2.2,0,0,1-1.42.29,3.23,3.23,0,0,1-2.46-1.71l-28.91-41V128a31.42,31.42,0,0,0,.52,6.93c.1.34.93.7,2.5,1.07a16.57,16.57,0,0,0,3.09.56c.15,0,.23.3.26.9a3.32,3.32,0,0,1-.11,1.27q-7.46-.37-8.57-.38l-8.57.38a1.77,1.77,0,0,1-.23-1.12c0-.7.08-1.05.23-1.05A16.35,16.35,0,0,0,592,136c1.56-.37,2.42-.78,2.57-1.22a22.15,22.15,0,0,0,.75-7V98.49a22.69,22.69,0,0,0-.53-5.59c-.15-.39-1-.75-2.53-1.08a18.75,18.75,0,0,0-3.35-.48q-.3,0-.3-.93a1.78,1.78,0,0,1,.3-1.23c3.87.1,6.41.15,7.6.15q3.87,0,6-.15,2.76,5.07,25.26,36.51a17.64,17.64,0,0,0,.23-3Z"/><path class="cls-2" d="M686.31,124.87a49.33,49.33,0,0,1-1,5.71q-1,4.88-1.49,5.1Q678.34,139,666,139a22.26,22.26,0,0,1-16.73-7.23,24.12,24.12,0,0,1-6.89-17.22,25.61,25.61,0,0,1,7.08-18.14,22.88,22.88,0,0,1,17.36-7.57,92.46,92.46,0,0,1,18.11,1.87q-.15,10-.15,10.73c0,.75-.52,1.12-1.56,1.12a1.07,1.07,0,0,1-1-.37c-.15-.65-.34-1.31-.56-2a11.65,11.65,0,0,0-1.42-2.61,11.35,11.35,0,0,0-2.6-2.75,14,14,0,0,0-4.33-2,21.46,21.46,0,0,0-6.29-.85q-7.31,0-12.45,6.44A22.75,22.75,0,0,0,649.42,113a29,29,0,0,0,2.08,11.11,19.43,19.43,0,0,0,6.6,8.38,17.57,17.57,0,0,0,10.7,3.32q7.37,0,11.4-4.33a10.06,10.06,0,0,0,1.82-2.94c.53-1.22.92-2.24,1.19-3.06s.49-1.23.64-1.23a4.85,4.85,0,0,1,1.08.15,8,8,0,0,1,1,.3Z"/><path class="cls-3" d="M330.24,146.68c.42,0,.91,0,1.48,0s1,0,1.46,0a4.77,4.77,0,0,1,1.38.21,5.17,5.17,0,0,1,1.35.63,3.09,3.09,0,0,1,1.08,1.18,3.81,3.81,0,0,1,.41,1.79,3.58,3.58,0,0,1-.26,1.3,5.06,5.06,0,0,1-.76,1.35,3.85,3.85,0,0,1-1.34,1.09,4.16,4.16,0,0,1-1.88.42,1.91,1.91,0,0,1-1.61-.58.59.59,0,0,1-.06-.48q0-.08.06-.06a4.11,4.11,0,0,0,1.4.23,2.29,2.29,0,0,0,1.79-.87,3.12,3.12,0,0,0,.75-2.09,3.84,3.84,0,0,0-.65-2.34,2.34,2.34,0,0,0-2-.86,5.44,5.44,0,0,0-1.45.15.19.19,0,0,0-.15.15,3.42,3.42,0,0,0-.07.64c0,.33,0,.83,0,1.49v7.43a6.13,6.13,0,0,0,.16,1.81c.07.19.32.33.74.44a4.39,4.39,0,0,0,.91.17c.05,0,.08.1.08.29a.93.93,0,0,1,0,.31c-1.39-.07-2.29-.1-2.71-.1l-2.53.1c-.05,0-.07-.16-.07-.37s0-.27.07-.27a3.46,3.46,0,0,0,.81-.13,1,1,0,0,0,.62-.31,6.46,6.46,0,0,0,.15-2v-7.86a7.6,7.6,0,0,0-.15-1.79c0-.11-.25-.22-.61-.32a3.94,3.94,0,0,0-.82-.14c-.06,0-.09-.08-.09-.25a.47.47,0,0,1,.09-.35Z"/><path class="cls-3" d="M346.83,151.23a1.81,1.81,0,0,1,1.62.61,1.94,1.94,0,0,1-.23,1.06.67.67,0,0,1-.56.33.93.93,0,0,1-.69-.35,1.06,1.06,0,0,0-.85-.35,1.39,1.39,0,0,0-1.12.6,2,2,0,0,0-.48,1.27v3.12a8,8,0,0,0,.16,1.85c0,.1.21.19.55.28a3.41,3.41,0,0,0,.72.14s.07.08.09.25a1.13,1.13,0,0,1,0,.35l-2.25-.1-2.27.1c-.06,0-.08-.17-.08-.34s0-.26.08-.26a3.14,3.14,0,0,0,.74-.14c.32-.09.5-.18.53-.28a6.14,6.14,0,0,0,.14-1.45V154a1.62,1.62,0,0,0-.29-1.12,1.12,1.12,0,0,0-.51-.35,1.77,1.77,0,0,0-.5-.09c-.13,0-.19,0-.19,0,0-.33,0-.51.12-.52a23.68,23.68,0,0,0,2.87-.54l.11,0c.05,0,.09.06.1.17a1.08,1.08,0,0,1,0,.26l-.12,1a4.42,4.42,0,0,1,1-1.05A2.2,2.2,0,0,1,346.83,151.23Z"/><path class="cls-3" d="M356.48,151.23a4.36,4.36,0,0,1,3.21,1.36,4.48,4.48,0,0,1,1.33,3.24,4.61,4.61,0,0,1-1.3,3.28,4.25,4.25,0,0,1-3.2,1.37,4.32,4.32,0,0,1-3.22-1.37,4.74,4.74,0,0,1,0-6.54A4.29,4.29,0,0,1,356.48,151.23Zm-.23.82a2.12,2.12,0,0,0-1.8,1,4.3,4.3,0,0,0-.7,2.47,4.87,4.87,0,0,0,.89,2.93,2.53,2.53,0,0,0,2.07,1.21,2.1,2.1,0,0,0,1.81-1,4.32,4.32,0,0,0,.71-2.49,4.67,4.67,0,0,0-.9-2.89A2.58,2.58,0,0,0,356.25,152.05Z"/><path class="cls-3" d="M370.55,145.87a2.09,2.09,0,0,1,2,.81c0,.87-.25,1.31-.74,1.31a.7.7,0,0,1-.53-.32,5.58,5.58,0,0,0-.57-.66,1,1,0,0,0-.78-.33,1.55,1.55,0,0,0-1.41,1.12,6.35,6.35,0,0,0-.5,2.64v1.07a.09.09,0,0,0,.1.1h2.31c.07,0,.11,0,.11.15a2.09,2.09,0,0,1-.25.83h-2.15a.11.11,0,0,0-.12.12v4.81a7.85,7.85,0,0,0,.18,1.85c0,.1.2.19.51.28a3.08,3.08,0,0,0,.66.14s.07.08.08.25a.73.73,0,0,1,0,.35l-2.22-.1-2.19.1a.32.32,0,0,1-.06-.19.71.71,0,0,1,0-.29q0-.12.06-.12a2.79,2.79,0,0,0,.71-.14c.3-.09.47-.18.5-.28a7.41,7.41,0,0,0,.21-1.85v-4.79c0-.09,0-.14-.11-.14h-1.1s-.06,0-.06-.13a.93.93,0,0,1,.33-.52,1,1,0,0,1,.71-.33h.12c.07,0,.11,0,.11-.13v-.27a5.71,5.71,0,0,1,1.3-3.76A3.66,3.66,0,0,1,370.55,145.87Z"/><path class="cls-3" d="M378.08,151.26a3.71,3.71,0,0,1,1.68.36,2.84,2.84,0,0,1,1.12.94,4.57,4.57,0,0,1,.56,1.16,4.08,4.08,0,0,1,.18,1.18c0,.28-.05.44-.13.51a.87.87,0,0,1-.48.09h-5.24c-.11,0-.17,0-.17.11a4,4,0,0,0,.79,2.41,2.66,2.66,0,0,0,2.29,1.1,4.41,4.41,0,0,0,.83-.08,4,4,0,0,0,.68-.2,2.7,2.7,0,0,0,.48-.23,3.35,3.35,0,0,0,.34-.22l.15-.1q.12,0,.12.27a.79.79,0,0,1-.12.38,4.08,4.08,0,0,1-1.23,1.05,3.49,3.49,0,0,1-1.77.46,3.92,3.92,0,0,1-3-1.3A4.39,4.39,0,0,1,374,156a4.87,4.87,0,0,1,1.17-3.45A3.85,3.85,0,0,1,378.08,151.26Zm-.21.77a1.83,1.83,0,0,0-1.65.92,3.09,3.09,0,0,0-.58,1.53c0,.1,0,.15.13.15h4.06c.07,0,.1-.07.1-.21a2.94,2.94,0,0,0-.56-1.53A1.72,1.72,0,0,0,377.87,152Z"/><path class="cls-3" d="M388.67,151.23a7,7,0,0,1,1.15.12l1,.16a12,12,0,0,1,.25,2.12c0,.07-.09.1-.27.1s-.3,0-.31-.14a2.18,2.18,0,0,0-.6-1.11,1.49,1.49,0,0,0-1.11-.52q-1.5,0-1.5,1.23a1.55,1.55,0,0,0,.09.55,1.1,1.1,0,0,0,.32.46l.36.31a4.44,4.44,0,0,0,.55.33l.54.31.48.28.58.34c.11.07.27.19.49.36a2.18,2.18,0,0,1,.46.44,3.69,3.69,0,0,1,.29.5,1.5,1.5,0,0,1,.13.62,2.6,2.6,0,0,1-1,2.05,3.31,3.31,0,0,1-2.24.82,6.64,6.64,0,0,1-.81-.05c-.24,0-.53-.1-.86-.18l-.77-.17a6.57,6.57,0,0,1-.24-1,6.81,6.81,0,0,1-.11-1.12.54.54,0,0,1,.25-.13c.2,0,.32,0,.33.13a2.24,2.24,0,0,0,.78,1.21,2.08,2.08,0,0,0,1.43.6,1.65,1.65,0,0,0,1.09-.36,1.34,1.34,0,0,0,.42-1.06,1.57,1.57,0,0,0-.13-.65,1.48,1.48,0,0,0-.44-.54,6.77,6.77,0,0,0-.56-.4c-.17-.1-.42-.24-.74-.4s-.55-.3-.71-.4a2.65,2.65,0,0,1-1.62-2.23,2.2,2.2,0,0,1,.91-1.83A3.32,3.32,0,0,1,388.67,151.23Z"/><path class="cls-3" d="M398.7,151.23a7,7,0,0,1,1.15.12l1,.16a12,12,0,0,1,.25,2.12c0,.07-.09.1-.27.1s-.3,0-.31-.14a2.18,2.18,0,0,0-.6-1.11,1.49,1.49,0,0,0-1.11-.52q-1.5,0-1.5,1.23a1.55,1.55,0,0,0,.09.55,1.1,1.1,0,0,0,.32.46l.36.31a4.44,4.44,0,0,0,.55.33l.53.31.49.28.58.34a5.82,5.82,0,0,1,.48.36,2,2,0,0,1,.47.44,2.87,2.87,0,0,1,.28.5,1.51,1.51,0,0,1,.14.62,2.6,2.6,0,0,1-1,2.05,3.34,3.34,0,0,1-2.25.82,6.6,6.6,0,0,1-.8-.05c-.24,0-.53-.1-.86-.18l-.77-.17a6.57,6.57,0,0,1-.24-1,6.81,6.81,0,0,1-.11-1.12.54.54,0,0,1,.25-.13c.2,0,.31,0,.33.13a2.24,2.24,0,0,0,.78,1.21,2.07,2.07,0,0,0,1.42.6,1.66,1.66,0,0,0,1.1-.36,1.34,1.34,0,0,0,.42-1.06,1.57,1.57,0,0,0-.13-.65,1.48,1.48,0,0,0-.44-.54,6.77,6.77,0,0,0-.56-.4c-.17-.1-.42-.24-.74-.4s-.55-.3-.71-.4a2.65,2.65,0,0,1-1.62-2.23,2.22,2.22,0,0,1,.9-1.83A3.37,3.37,0,0,1,398.7,151.23Z"/><path class="cls-3" d="M408.52,157.52a8,8,0,0,0,.16,1.85c0,.1.21.19.55.28a3.19,3.19,0,0,0,.7.14s.07.08.09.25a1.13,1.13,0,0,1,0,.35l-2.23-.1-2.27.1c-.06,0-.08-.17-.08-.34s0-.26.08-.26a3.14,3.14,0,0,0,.74-.14c.32-.09.5-.18.53-.28a6.1,6.1,0,0,0,.15-1.45V154a1.62,1.62,0,0,0-.3-1.12,1,1,0,0,0-.51-.35,1.77,1.77,0,0,0-.5-.09c-.13,0-.19,0-.19,0,0-.33,0-.51.12-.52a23.68,23.68,0,0,0,2.87-.54l0,0h.06c.05,0,.09.06.1.17a.55.55,0,0,1,0,.26,12.14,12.14,0,0,0-.1,1.5Zm-1.7-8.79a1.06,1.06,0,1,1,.74.3A1,1,0,0,1,406.82,148.73Z"/><path class="cls-3" d="M418.19,151.23a4.36,4.36,0,0,1,3.21,1.36,4.44,4.44,0,0,1,1.33,3.24,4.57,4.57,0,0,1-1.3,3.28,4.25,4.25,0,0,1-3.2,1.37,4.34,4.34,0,0,1-3.22-1.37,4.74,4.74,0,0,1,0-6.54A4.29,4.29,0,0,1,418.19,151.23Zm-.23.82a2.12,2.12,0,0,0-1.8,1,4.3,4.3,0,0,0-.69,2.47,4.87,4.87,0,0,0,.88,2.93,2.53,2.53,0,0,0,2.07,1.21,2.1,2.1,0,0,0,1.81-1,4.32,4.32,0,0,0,.71-2.49,4.67,4.67,0,0,0-.9-2.89A2.58,2.58,0,0,0,418,152.05Z"/><path class="cls-3" d="M432.78,151.21a2.15,2.15,0,0,1,2,1,7.29,7.29,0,0,1,.58,3.38v1.89a7.88,7.88,0,0,0,.17,1.85c0,.1.21.19.54.28a3.25,3.25,0,0,0,.71.14s.07.08.08.25a.89.89,0,0,1,0,.35l-2.23-.1-2.18.1a.46.46,0,0,1-.09-.34c0-.17,0-.26.09-.26a2.6,2.6,0,0,0,.69-.14c.3-.09.47-.18.49-.28a6.1,6.1,0,0,0,.15-1.45v-2.09a4.93,4.93,0,0,0-.5-2.64,1.84,1.84,0,0,0-1.62-.71,2.05,2.05,0,0,0-1.28.49c-.41.33-.62.62-.62.89v3.66a7.88,7.88,0,0,0,.17,1.85c0,.1.21.19.54.28a3.25,3.25,0,0,0,.71.14s.07.08.08.25a.89.89,0,0,1,0,.35l-2.23-.1-2.27.1a.52.52,0,0,1-.08-.34c0-.17,0-.26.08-.26a3.05,3.05,0,0,0,.74-.14c.33-.09.51-.18.53-.28a6.1,6.1,0,0,0,.15-1.45V154a1.67,1.67,0,0,0-.29-1.12,1.12,1.12,0,0,0-.51-.35,1.83,1.83,0,0,0-.5-.09c-.13,0-.2,0-.2,0,0-.33,0-.51.13-.52a24.11,24.11,0,0,0,2.87-.54l.1,0c.06,0,.09.06.11.17a1.08,1.08,0,0,1,0,.26,6.31,6.31,0,0,0-.09.84c0,.05,0,.08,0,.08s0,0,.07,0a5.4,5.4,0,0,1,1.3-1A3.28,3.28,0,0,1,432.78,151.21Z"/><path class="cls-3" d="M444.8,151.26a2.13,2.13,0,0,1,1.65.55,2.63,2.63,0,0,1,.5,1.78v4.8a1.08,1.08,0,0,0,.23.73.73.73,0,0,0,.62.29,1.38,1.38,0,0,0,.73-.29c.05,0,.08.06.08.17a.84.84,0,0,1-.1.44,2.49,2.49,0,0,1-1.46.72,1.35,1.35,0,0,1-.91-.39,2.09,2.09,0,0,1-.61-.83.67.67,0,0,0-.15.13,3.32,3.32,0,0,1-.37.31c-.15.12-.33.24-.53.37a2.92,2.92,0,0,1-.71.31,2.87,2.87,0,0,1-.82.13,2.37,2.37,0,0,1-1.58-.52,1.81,1.81,0,0,1-.62-1.52,1.67,1.67,0,0,1,.23-.87,2.23,2.23,0,0,1,.54-.66,3.93,3.93,0,0,1,.85-.53,6.68,6.68,0,0,1,.93-.41l1-.34c.42-.14.71-.25.88-.32a.29.29,0,0,0,.19-.31v-1.56a1.29,1.29,0,0,0-.42-1,1.48,1.48,0,0,0-1-.36,1.42,1.42,0,0,0-1,.42,1.54,1.54,0,0,0-.42,1.12c0,.48-.28.72-.85.72a.85.85,0,0,1-.81-.39c0-.6.44-1.19,1.31-1.78A4.69,4.69,0,0,1,444.8,151.26ZM442.85,159a1.35,1.35,0,0,0,.91.3,2,2,0,0,0,1.09-.34c.34-.23.52-.47.52-.7V156.1a7.5,7.5,0,0,1-.82.3,10.24,10.24,0,0,0-1,.36,2.23,2.23,0,0,0-.71.52,1.18,1.18,0,0,0-.35.84A1.07,1.07,0,0,0,442.85,159Z"/><path class="cls-3" d="M453.11,157.92v-9a7.06,7.06,0,0,0-.13-1.33c-.07-.22-.42-.33-1.06-.33h-.19c-.08,0-.12-.08-.12-.23s0-.33.12-.33c.42,0,.8-.1,1.16-.17a6.54,6.54,0,0,0,.83-.21,4.54,4.54,0,0,0,.51-.2l.31-.15.08-.06h.05a.22.22,0,0,1,.16.11.65.65,0,0,1,.11.22,5.53,5.53,0,0,0-.23,1.81v9.49a8,8,0,0,0,.16,1.85c0,.1.21.19.55.28a3.19,3.19,0,0,0,.7.14s.07.08.09.25a1.13,1.13,0,0,1,0,.35l-2.23-.1-2.27.1c-.06,0-.08-.17-.08-.34s0-.26.08-.26a3.14,3.14,0,0,0,.74-.14c.33-.09.5-.18.53-.28A6.1,6.1,0,0,0,453.11,157.92Z"/><path class="cls-3" d="M469.67,146.68l2,0,1.61,0a6.92,6.92,0,0,1,5.28,2,6.61,6.61,0,0,1,1.9,4.71,7,7,0,0,1-1.92,5,6.91,6.91,0,0,1-5.28,2l-1.49,0c-.83,0-1.52,0-2.07,0l-2.52.06a.49.49,0,0,1-.06-.31c0-.19,0-.29.06-.29a3.22,3.22,0,0,0,.8-.15,1,1,0,0,0,.64-.33,7,7,0,0,0,.14-2v-7.86a8.34,8.34,0,0,0-.14-1.79c-.05-.11-.25-.22-.62-.32a3.84,3.84,0,0,0-.82-.14c-.06,0-.08-.08-.08-.25s0-.3.08-.35C467.91,146.66,468.74,146.68,469.67,146.68Zm.91,2.52v8.24a4,4,0,0,0,.31,1.58c.06.14.43.24,1.12.31s1.22.1,1.59.1q4.78,0,4.79-6.18a6.48,6.48,0,0,0-1.26-4,4.34,4.34,0,0,0-3.68-1.67h-.1c-1.5,0-2.33.11-2.5.33A2.36,2.36,0,0,0,470.58,149.2Z"/><path class="cls-3" d="M488.87,151.26a3.79,3.79,0,0,1,1.69.36,2.8,2.8,0,0,1,1.11.94,4.3,4.3,0,0,1,.57,1.16,4.43,4.43,0,0,1,.17,1.18c0,.28,0,.44-.12.51a.92.92,0,0,1-.48.09h-5.25c-.11,0-.16,0-.16.11a4,4,0,0,0,.79,2.41,2.64,2.64,0,0,0,2.29,1.1,4.41,4.41,0,0,0,.83-.08,4.29,4.29,0,0,0,.68-.2,3.59,3.59,0,0,0,.48-.23,3.35,3.35,0,0,0,.34-.22l.14-.1c.09,0,.13.09.13.27a.72.72,0,0,1-.13.38,3.92,3.92,0,0,1-1.22,1.05,3.54,3.54,0,0,1-1.77.46,3.94,3.94,0,0,1-3-1.3,4.43,4.43,0,0,1-1.24-3.17,4.88,4.88,0,0,1,1.18-3.45A3.82,3.82,0,0,1,488.87,151.26Zm-.21.77A1.83,1.83,0,0,0,487,153a3.16,3.16,0,0,0-.57,1.53q0,.15.12.15h4.06c.07,0,.11-.07.11-.21a2.88,2.88,0,0,0-.57-1.53A1.69,1.69,0,0,0,488.66,152Z"/><path class="cls-3" d="M503.46,152.57c0-.45-.5-.67-1.5-.67,0,0-.08-.08-.08-.26a.52.52,0,0,1,.08-.34l.85.06c.42,0,.8,0,1.13,0l2.08-.1a.9.9,0,0,1,0,.31c0,.19-.05.29-.14.29a2.45,2.45,0,0,0-.77.17,1,1,0,0,0-.65.54l-3.31,7.47a.67.67,0,0,1-.25.31.65.65,0,0,1-.35.17.2.2,0,0,1-.19-.08c-.24-.52-.75-1.71-1.55-3.58s-1.5-3.4-2.09-4.58q-.21-.42-1.23-.42c-.06,0-.08-.09-.08-.27s0-.28.08-.33l2.16.1,2.09-.1a.83.83,0,0,1,0,.34c0,.18-.06.26-.1.26-.68,0-1,.12-1,.35a.29.29,0,0,0,0,.09l2.5,5.64,2.1-4.79A1.76,1.76,0,0,0,503.46,152.57Z"/><path class="cls-3" d="M513.2,151.26a3.71,3.71,0,0,1,1.68.36,2.84,2.84,0,0,1,1.12.94,4.57,4.57,0,0,1,.56,1.16,4.43,4.43,0,0,1,.17,1.18c0,.28,0,.44-.12.51a.87.87,0,0,1-.48.09h-5.24c-.11,0-.17,0-.17.11a4,4,0,0,0,.79,2.41,2.66,2.66,0,0,0,2.29,1.1,4.41,4.41,0,0,0,.83-.08,4,4,0,0,0,.68-.2,3.08,3.08,0,0,0,.48-.23,3.35,3.35,0,0,0,.34-.22l.15-.1q.12,0,.12.27a.79.79,0,0,1-.12.38,4.08,4.08,0,0,1-1.23,1.05,3.49,3.49,0,0,1-1.77.46,4,4,0,0,1-3-1.3,4.42,4.42,0,0,1-1.23-3.17,4.87,4.87,0,0,1,1.17-3.45A3.84,3.84,0,0,1,513.2,151.26ZM513,152a1.82,1.82,0,0,0-1.65.92,3.09,3.09,0,0,0-.58,1.53c0,.1,0,.15.13.15h4.05c.07,0,.11-.07.11-.21a2.94,2.94,0,0,0-.56-1.53A1.72,1.72,0,0,0,513,152Z"/><path class="cls-3" d="M521.62,157.92v-9a7.07,7.07,0,0,0-.12-1.33c-.07-.22-.42-.33-1.06-.33h-.19c-.08,0-.13-.08-.13-.23s0-.33.13-.33a11.27,11.27,0,0,0,1.15-.17,6.77,6.77,0,0,0,.84-.21,4.54,4.54,0,0,0,.51-.2l.31-.15.08-.06h0c.06,0,.11,0,.17.11a.47.47,0,0,1,.1.22,5.86,5.86,0,0,0-.22,1.81v9.49a8,8,0,0,0,.16,1.85c0,.1.21.19.54.28a3.36,3.36,0,0,0,.71.14s.07.08.08.25a.73.73,0,0,1,0,.35l-2.22-.1-2.27.1a.46.46,0,0,1-.09-.34c0-.17,0-.26.09-.26a3.23,3.23,0,0,0,.74-.14c.32-.09.5-.18.53-.28A6.72,6.72,0,0,0,521.62,157.92Z"/><path class="cls-3" d="M532.88,151.23a4.32,4.32,0,0,1,3.2,1.36,4.45,4.45,0,0,1,1.34,3.24,4.61,4.61,0,0,1-1.3,3.28,4.27,4.27,0,0,1-3.2,1.37,4.32,4.32,0,0,1-3.22-1.37,4.72,4.72,0,0,1-.05-6.54A4.32,4.32,0,0,1,532.88,151.23Zm-.23.82a2.1,2.1,0,0,0-1.8,1,4.23,4.23,0,0,0-.7,2.47,4.87,4.87,0,0,0,.89,2.93,2.53,2.53,0,0,0,2.07,1.21,2.11,2.11,0,0,0,1.81-1,4.32,4.32,0,0,0,.71-2.49,4.67,4.67,0,0,0-.9-2.89A2.58,2.58,0,0,0,532.65,152.05Z"/><path class="cls-3" d="M546.36,151.26a3.83,3.83,0,0,1,3.12,1.34,4.38,4.38,0,0,1,1.13,2.86,5.07,5.07,0,0,1-1.4,3.52,4.21,4.21,0,0,1-3.16,1.52l-.55,0a2.54,2.54,0,0,1-.43-.08l-.29-.09-.27-.11-.21-.1a.46.46,0,0,0-.08.27v1.79a7.92,7.92,0,0,0,.16,1.85c0,.1.21.19.54.28a3.36,3.36,0,0,0,.71.14s.07.08.09.26a.73.73,0,0,1,0,.34l-2.22-.1-2.27.1c-.06-.05-.08-.17-.08-.34s0-.26.08-.26a3.14,3.14,0,0,0,.74-.14c.32-.09.5-.18.53-.28a6.09,6.09,0,0,0,.14-1.45V154a1.62,1.62,0,0,0-.29-1.12,1,1,0,0,0-.51-.34,1.57,1.57,0,0,0-.5-.1c-.13,0-.19,0-.19,0,0-.33,0-.51.12-.52a23.68,23.68,0,0,0,2.87-.54l.11,0s.06,0,.06.11,0,.17,0,.28,0,.18,0,.19V152a5.16,5.16,0,0,1,1-.47A3.32,3.32,0,0,1,546.36,151.26Zm-.67,1a1.61,1.61,0,0,0-1.06.34,1.23,1.23,0,0,0-.41,1v4.68a1.13,1.13,0,0,0,.6,1,2.44,2.44,0,0,0,1.31.38,2.26,2.26,0,0,0,2-1.1,4.45,4.45,0,0,0,.73-2.48,3.9,3.9,0,0,0-.93-2.75A2.87,2.87,0,0,0,545.69,152.28Z"/><path class="cls-3" d="M560.61,151.21a2.13,2.13,0,0,1,1.39.45,2.41,2.41,0,0,1,.76,1,4.7,4.7,0,0,1,3.22-1.48c1.75,0,2.63,1.34,2.63,4v2.31a8,8,0,0,0,.16,1.85c0,.1.21.19.54.28a3.36,3.36,0,0,0,.71.14s.07.08.08.25a.73.73,0,0,1,0,.35l-2.22-.1-2.27.1c-.06,0-.08-.17-.08-.34s0-.26.08-.26a3.23,3.23,0,0,0,.74-.14c.32-.09.5-.18.53-.28A6,6,0,0,0,567,158v-2.35q0-3.21-2.1-3.21a2.06,2.06,0,0,0-1.33.45c-.37.3-.56.55-.56.74l0,.08v.11a11,11,0,0,1,.08,1.5v2.35a6.83,6.83,0,0,0,.17,1.66c0,.1.21.19.54.28a3.25,3.25,0,0,0,.71.14s.07.08.08.25a.89.89,0,0,1,0,.35l-2.23-.1-2.27.1a.52.52,0,0,1-.08-.34c0-.17,0-.26.08-.26a3.05,3.05,0,0,0,.74-.14c.33-.09.51-.18.53-.28a6.1,6.1,0,0,0,.15-1.45v-2.13c0-2.2-.67-3.31-2-3.31a2.15,2.15,0,0,0-1.26.47,1.25,1.25,0,0,0-.63.91v3.66a8,8,0,0,0,.16,1.85c0,.1.21.19.55.28a3.19,3.19,0,0,0,.7.14s.07.08.09.25a1.13,1.13,0,0,1,0,.35l-2.23-.1-2.27.1c-.06,0-.08-.17-.08-.34s0-.26.08-.26a3.14,3.14,0,0,0,.74-.14c.32-.09.5-.18.53-.28a6.1,6.1,0,0,0,.15-1.45V154a1.62,1.62,0,0,0-.3-1.12,1.07,1.07,0,0,0-.51-.35,1.77,1.77,0,0,0-.5-.09c-.13,0-.19,0-.19,0,0-.33,0-.51.12-.52a23.68,23.68,0,0,0,2.87-.54l.11,0s.09.06.1.17a.55.55,0,0,1,0,.26,7.89,7.89,0,0,0-.08.84c0,.05,0,.08,0,.08s0,0,.06,0a5.4,5.4,0,0,1,1.3-1A3.28,3.28,0,0,1,560.61,151.21Z"/><path class="cls-3" d="M578.05,151.26a3.79,3.79,0,0,1,1.69.36,2.87,2.87,0,0,1,1.11.94,4.26,4.26,0,0,1,.56,1.16,4.08,4.08,0,0,1,.18,1.18c0,.28,0,.44-.12.51a.92.92,0,0,1-.48.09h-5.25c-.11,0-.16,0-.16.11a4,4,0,0,0,.79,2.41,2.64,2.64,0,0,0,2.29,1.1,4.49,4.49,0,0,0,.83-.08,3.86,3.86,0,0,0,.67-.2,2.7,2.7,0,0,0,.48-.23,3.56,3.56,0,0,0,.35-.22l.14-.1c.09,0,.13.09.13.27a.72.72,0,0,1-.13.38A4,4,0,0,1,579.9,160a3.48,3.48,0,0,1-1.76.46,3.93,3.93,0,0,1-3-1.3,4.39,4.39,0,0,1-1.24-3.17,4.83,4.83,0,0,1,1.18-3.45A3.82,3.82,0,0,1,578.05,151.26Zm-.21.77a1.83,1.83,0,0,0-1.65.92,3.16,3.16,0,0,0-.57,1.53q0,.15.12.15h4.06c.07,0,.1-.07.1-.21a2.86,2.86,0,0,0-.56-1.53A1.69,1.69,0,0,0,577.84,152Z"/><path class="cls-3" d="M591.37,151.21a2.15,2.15,0,0,1,2,1,7.29,7.29,0,0,1,.58,3.38v1.89a7.88,7.88,0,0,0,.17,1.85c0,.1.21.19.54.28a3.25,3.25,0,0,0,.71.14s.07.08.08.25a.89.89,0,0,1,0,.35l-2.23-.1-2.18.1a.46.46,0,0,1-.09-.34c0-.17,0-.26.09-.26a2.67,2.67,0,0,0,.69-.14c.3-.09.47-.18.49-.28a6.1,6.1,0,0,0,.15-1.45v-2.09a4.93,4.93,0,0,0-.5-2.64,1.84,1.84,0,0,0-1.62-.71A2,2,0,0,0,589,153c-.41.33-.62.62-.62.89v3.66a7.88,7.88,0,0,0,.17,1.85c0,.1.21.19.54.28a3.25,3.25,0,0,0,.71.14s.07.08.08.25a.89.89,0,0,1,0,.35l-2.23-.1-2.27.1a.52.52,0,0,1-.08-.34c0-.17,0-.26.08-.26a3.05,3.05,0,0,0,.74-.14c.33-.09.51-.18.53-.28a6.1,6.1,0,0,0,.15-1.45V154a1.67,1.67,0,0,0-.29-1.12,1.12,1.12,0,0,0-.51-.35,1.83,1.83,0,0,0-.5-.09c-.13,0-.2,0-.2,0,0-.33,0-.51.13-.52a24.11,24.11,0,0,0,2.87-.54l.1,0c.06,0,.09.06.11.17a1.08,1.08,0,0,1,0,.26,6.31,6.31,0,0,0-.09.84c0,.05,0,.08,0,.08s0,0,.07,0a5.4,5.4,0,0,1,1.3-1A3.25,3.25,0,0,1,591.37,151.21Z"/><path class="cls-3" d="M600.19,152.55H599c-.07,0-.1-.15-.1-.44a.4.4,0,0,1,0-.15,3.94,3.94,0,0,0,1.31-1.1c.15-.18.3-.39.45-.61s.27-.43.36-.6a1.36,1.36,0,0,0,.15-.27c.42,0,.62,0,.62.11v2.06h2.81c.11,0,.17.06.17.19a1.8,1.8,0,0,1-.21.79h-2.77v5.09a2,2,0,0,0,.43,1.34,1.4,1.4,0,0,0,1.11.5,2.55,2.55,0,0,0,1.29-.4s.11,0,.19.18.12.22.11.24a3.38,3.38,0,0,1-1,.65,2.91,2.91,0,0,1-1.33.33,2.36,2.36,0,0,1-1.74-.69,2.61,2.61,0,0,1-.7-2Z"/><path class="cls-3" d="M616.21,150.13a3.26,3.26,0,0,1,1.23-2.63,4.29,4.29,0,0,1,2.85-1,7.66,7.66,0,0,1,.86.05,5.22,5.22,0,0,1,.67.12l.75.19c.32.09.61.17.86.22a13.88,13.88,0,0,1,.25,3c0,.09-.07.14-.21.14-.33,0-.51-.07-.54-.2a3.21,3.21,0,0,0-.88-1.79,2.5,2.5,0,0,0-1.91-.86,2.12,2.12,0,0,0-1.75.63,2.29,2.29,0,0,0-.51,1.54,2,2,0,0,0,.14.76,5.7,5.7,0,0,0,.29.6,2.62,2.62,0,0,0,.53.55l.56.44.71.46c.36.22.58.36.68.41l.73.45.85.54c.15.1.39.29.72.56a4.27,4.27,0,0,1,.71.72,4.66,4.66,0,0,1,.41.78,2.51,2.51,0,0,1,.2,1,3.36,3.36,0,0,1-1.3,2.73,4.63,4.63,0,0,1-3.05,1.08,8,8,0,0,1-1.06-.08c-.37-.05-.69-.09-.94-.14l-.94-.21-.8-.18a22.21,22.21,0,0,1-.53-3.31c0-.08.12-.12.34-.12a.61.61,0,0,1,.52.19c.47,2,1.62,3,3.45,3a2.59,2.59,0,0,0,1.77-.62,2.2,2.2,0,0,0,.73-1.77,2.39,2.39,0,0,0-.12-.77,5.66,5.66,0,0,0-.26-.58,2,2,0,0,0-.48-.49l-.53-.39-.69-.39-.69-.38-.84-.5c-.16-.09-.43-.26-.79-.5a4.05,4.05,0,0,1-.8-.65l-.59-.69a2.48,2.48,0,0,1-.46-.86A3.1,3.1,0,0,1,616.21,150.13Z"/><path class="cls-3" d="M632.61,151.26a3.71,3.71,0,0,1,1.68.36,2.84,2.84,0,0,1,1.12.94,4.57,4.57,0,0,1,.56,1.16,4.08,4.08,0,0,1,.18,1.18c0,.28,0,.44-.13.51a.87.87,0,0,1-.48.09H630.3c-.11,0-.17,0-.17.11a4.11,4.11,0,0,0,.79,2.41,2.66,2.66,0,0,0,2.29,1.1A4.41,4.41,0,0,0,634,159a4,4,0,0,0,.68-.2,2.7,2.7,0,0,0,.48-.23,2.51,2.51,0,0,0,.34-.22l.15-.1q.12,0,.12.27a.79.79,0,0,1-.12.38,4.08,4.08,0,0,1-1.23,1.05,3.49,3.49,0,0,1-1.77.46,4,4,0,0,1-3-1.3,4.42,4.42,0,0,1-1.23-3.17,4.87,4.87,0,0,1,1.17-3.45A3.85,3.85,0,0,1,632.61,151.26Zm-.21.77a1.83,1.83,0,0,0-1.65.92,3.09,3.09,0,0,0-.58,1.53c0,.1,0,.15.13.15h4.06c.07,0,.1-.07.1-.21a2.94,2.94,0,0,0-.56-1.53A1.72,1.72,0,0,0,632.4,152Z"/><path class="cls-3" d="M645.32,151.23a1.81,1.81,0,0,1,1.62.61,2,2,0,0,1-.22,1.06.68.68,0,0,1-.57.33.91.91,0,0,1-.68-.35,1.08,1.08,0,0,0-.86-.35,1.4,1.4,0,0,0-1.12.6,2,2,0,0,0-.48,1.27v3.12a7.88,7.88,0,0,0,.17,1.85c0,.1.21.19.55.28a3.41,3.41,0,0,0,.72.14s.07.08.08.25a.89.89,0,0,1,0,.35l-2.25-.1-2.27.1a.52.52,0,0,1-.08-.34c0-.17,0-.26.08-.26a3.05,3.05,0,0,0,.74-.14c.33-.09.51-.18.53-.28a6.1,6.1,0,0,0,.15-1.45V154a1.67,1.67,0,0,0-.29-1.12,1.12,1.12,0,0,0-.51-.35,1.83,1.83,0,0,0-.5-.09c-.13,0-.2,0-.2,0,0-.33,0-.51.13-.52a24.11,24.11,0,0,0,2.87-.54l.1,0c.06,0,.09.06.11.17a1.08,1.08,0,0,1,0,.26l-.13,1a4.42,4.42,0,0,1,1-1.05A2.22,2.22,0,0,1,645.32,151.23Z"/><path class="cls-3" d="M657.66,152.57c0-.45-.5-.67-1.5-.67,0,0-.08-.08-.08-.26a.52.52,0,0,1,.08-.34l.86.06c.41,0,.79,0,1.12,0l2.08-.1a.9.9,0,0,1,0,.31c0,.19,0,.29-.14.29a2.51,2.51,0,0,0-.77.17,1,1,0,0,0-.65.54l-3.31,7.47a.67.67,0,0,1-.25.31.62.62,0,0,1-.35.17.2.2,0,0,1-.19-.08c-.23-.52-.75-1.71-1.55-3.58s-1.49-3.4-2.09-4.58q-.21-.42-1.23-.42c-.05,0-.08-.09-.08-.27a.49.49,0,0,1,.08-.33l2.17.1,2.08-.1a.83.83,0,0,1,0,.34c0,.18,0,.26-.1.26-.68,0-1,.12-1,.35a.29.29,0,0,0,0,.09l2.5,5.64,2.1-4.79A1.76,1.76,0,0,0,657.66,152.57Z"/><path class="cls-3" d="M666.27,157.52a7.88,7.88,0,0,0,.17,1.85c0,.1.21.19.54.28a3.25,3.25,0,0,0,.71.14s.07.08.08.25a.73.73,0,0,1,0,.35l-2.23-.1-2.26.1a.46.46,0,0,1-.09-.34c0-.17,0-.26.09-.26a3.23,3.23,0,0,0,.74-.14c.32-.09.5-.18.53-.28a6.72,6.72,0,0,0,.14-1.45V154a1.67,1.67,0,0,0-.29-1.12,1.12,1.12,0,0,0-.51-.35,1.83,1.83,0,0,0-.5-.09c-.13,0-.2,0-.2,0,0-.33,0-.51.13-.52a23.68,23.68,0,0,0,2.87-.54l0,0h.06c.06,0,.09.06.11.17a1.08,1.08,0,0,1,0,.26,12.32,12.32,0,0,0-.11,1.5Zm-1.69-8.79a1,1,0,0,1,.74-1.78,1,1,0,0,1,0,2.08A1,1,0,0,1,664.58,148.73Z"/><path class="cls-3" d="M675.47,151.26a3.9,3.9,0,0,1,3.16,1.06c0,.93-.25,1.39-.77,1.39a.81.81,0,0,1-.54-.16,3.27,3.27,0,0,1-.48-.57,1.83,1.83,0,0,0-1.54-.95,2,2,0,0,0-1.55.81,3.63,3.63,0,0,0-.69,2.41,4.51,4.51,0,0,0,.82,2.77,2.7,2.7,0,0,0,2.28,1.1A4.41,4.41,0,0,0,677,159a3.86,3.86,0,0,0,.67-.2,3.22,3.22,0,0,0,.49-.23,3.35,3.35,0,0,0,.34-.22l.14-.1c.09,0,.13.09.13.27a.72.72,0,0,1-.13.38,3.92,3.92,0,0,1-1.22,1.05,3.54,3.54,0,0,1-1.77.46,4,4,0,0,1-3-1.3,4.39,4.39,0,0,1-1.24-3.17,5.45,5.45,0,0,1,1-3.32A3.51,3.51,0,0,1,675.47,151.26Z"/><path class="cls-3" d="M686.54,151.26a3.79,3.79,0,0,1,1.69.36,2.87,2.87,0,0,1,1.11.94,4.57,4.57,0,0,1,.56,1.16,4.08,4.08,0,0,1,.18,1.18c0,.28,0,.44-.13.51a.87.87,0,0,1-.48.09h-5.24c-.11,0-.17,0-.17.11a4.11,4.11,0,0,0,.79,2.41,2.66,2.66,0,0,0,2.29,1.1A4.6,4.6,0,0,0,688,159a3.86,3.86,0,0,0,.67-.2,2.7,2.7,0,0,0,.48-.23,2.51,2.51,0,0,0,.34-.22l.15-.1q.12,0,.12.27a.79.79,0,0,1-.12.38,4.08,4.08,0,0,1-1.23,1.05,3.49,3.49,0,0,1-1.77.46,3.92,3.92,0,0,1-3-1.3,4.39,4.39,0,0,1-1.24-3.17,4.83,4.83,0,0,1,1.18-3.45A3.82,3.82,0,0,1,686.54,151.26Zm-.21.77a1.83,1.83,0,0,0-1.65.92,3.09,3.09,0,0,0-.58,1.53c0,.1,0,.15.13.15h4.06c.07,0,.1-.07.1-.21a2.94,2.94,0,0,0-.56-1.53A1.69,1.69,0,0,0,686.33,152Z"/><path class="cls-3" d="M697.13,151.23a7,7,0,0,1,1.15.12l1,.16a12,12,0,0,1,.25,2.12c0,.07-.09.1-.27.1s-.3,0-.31-.14a2.18,2.18,0,0,0-.6-1.11,1.49,1.49,0,0,0-1.11-.52q-1.5,0-1.5,1.23a1.55,1.55,0,0,0,.09.55,1.1,1.1,0,0,0,.32.46l.36.31a4.44,4.44,0,0,0,.55.33l.54.31.49.28.57.34a5.82,5.82,0,0,1,.48.36,2,2,0,0,1,.47.44,2.87,2.87,0,0,1,.28.5,1.51,1.51,0,0,1,.14.62,2.6,2.6,0,0,1-1,2.05,3.31,3.31,0,0,1-2.24.82,6.64,6.64,0,0,1-.81-.05c-.24,0-.53-.1-.86-.18l-.77-.17a6.57,6.57,0,0,1-.24-1A6.81,6.81,0,0,1,694,158a.54.54,0,0,1,.25-.13c.2,0,.32,0,.33.13a2.24,2.24,0,0,0,.78,1.21,2.08,2.08,0,0,0,1.43.6,1.65,1.65,0,0,0,1.09-.36,1.34,1.34,0,0,0,.42-1.06,1.57,1.57,0,0,0-.13-.65,1.48,1.48,0,0,0-.44-.54,6.77,6.77,0,0,0-.56-.4c-.17-.1-.42-.24-.74-.4s-.55-.3-.71-.4a2.65,2.65,0,0,1-1.62-2.23,2.2,2.2,0,0,1,.91-1.83A3.32,3.32,0,0,1,697.13,151.23Z"/></g></g></svg>