<?xml version="1.0" encoding="utf-8"?>
<!-- Generator: Adobe Illustrator 23.0.4, SVG Export Plug-In . SVG Version: 6.00 Build 0)  -->
<svg version="1.1" id="Layer_1" xmlns="http://www.w3.org/2000/svg" xmlns:xlink="http://www.w3.org/1999/xlink" x="0px" y="0px"
	 viewBox="0 0 300 150" style="enable-background:new 0 0 300 150;" xml:space="preserve">
<style type="text/css">
	.st0{fill:#FFFFFF;}
</style>
<g>
	<path class="st0" d="M43.9,62.3c-1.2,0-2.1-0.2-2.7-0.7c-0.6-0.5-1-1.1-1-1.8c0-0.7,0.2-1.2,0.7-1.5c0.5-0.4,1-0.5,1.6-0.5
		s1.2,0.1,1.7,0.4c0.5,0.3,0.9,0.8,1.3,1.4l0.6,1.1c0.1,0.2,0.3,0.3,0.5,0.3c0.2,0,0.3-0.1,0.4-0.3c0.1-0.5,0.2-1.2,0.3-2.1
		c0.1-0.9,0.1-2,0.1-3.4c0-1.5,0-3.5-0.1-5.8c-0.1-2.4-0.1-5.3-0.2-8.8c0-1-0.4-1.7-1.2-1.9l-0.8-0.3v-0.4h9.4v0.4l-0.8,0.3
		c-0.4,0.2-0.7,0.4-0.9,0.7c-0.2,0.3-0.2,0.7-0.2,1.2v7.1c0,2.4-0.1,4.3-0.3,5.8c-0.2,1.5-0.6,2.9-1,4c-0.6,1.6-1.6,2.8-2.9,3.7
		C46.9,61.9,45.5,62.3,43.9,62.3z"/>
	<path class="st0" d="M64.2,62.2c-1.8,0-3.4-0.4-4.8-1.1c-1.3-0.8-2.4-1.8-3.1-3.2c-0.7-1.4-1.1-3-1.1-4.9s0.4-3.5,1.2-4.9
		c0.8-1.4,1.8-2.4,3.2-3.2c1.4-0.7,2.9-1.1,4.6-1.1c1.7,0,3.2,0.4,4.6,1.1s2.4,1.8,3.2,3.1c0.8,1.4,1.2,3,1.2,4.9s-0.4,3.5-1.1,4.9
		c-0.7,1.4-1.8,2.4-3.1,3.2C67.6,61.9,66,62.2,64.2,62.2z M64.2,61.5c0.8,0,1.5-0.2,2-0.7c0.5-0.5,0.9-1.3,1.1-2.6
		c0.2-1.2,0.3-3,0.3-5.2c0-2.3-0.1-4-0.3-5.2c-0.2-1.2-0.6-2.1-1.1-2.6s-1.2-0.7-2-0.7c-0.8,0-1.5,0.2-2,0.7
		c-0.5,0.5-0.9,1.3-1.1,2.6c-0.2,1.2-0.3,3-0.3,5.2c0,2.2,0.1,4,0.3,5.2c0.2,1.2,0.6,2.1,1.1,2.6C62.7,61.3,63.4,61.5,64.2,61.5z"/>
	<path class="st0" d="M80.9,62.2c-1.2,0-2.2-0.1-3.2-0.4c-0.9-0.3-1.8-0.6-2.6-1l0-4.3h0.4l1.2,2.2c0.5,1,1.1,1.7,1.7,2.1
		c0.6,0.5,1.4,0.7,2.4,0.7c1.2,0,2.1-0.3,2.8-0.8c0.7-0.5,1.1-1.2,1.1-2.1c0-0.8-0.3-1.4-0.8-1.9c-0.5-0.5-1.4-1-2.8-1.4l-1.5-0.5
		c-1.5-0.4-2.6-1.1-3.5-2s-1.3-2-1.3-3.3c0-1.6,0.6-2.9,1.9-4c1.2-1.1,3-1.7,5.4-1.7c0.9,0,1.8,0.1,2.6,0.3s1.6,0.5,2.4,0.9L87.1,49
		h-0.4l-1.3-2.2c-0.5-0.8-0.9-1.3-1.3-1.7c-0.4-0.3-1.1-0.5-2-0.5c-0.8,0-1.6,0.2-2.3,0.7c-0.7,0.5-1.1,1.1-1.1,1.9
		c0,0.8,0.3,1.5,0.9,1.9c0.6,0.5,1.5,0.9,2.7,1.3l1.6,0.5c1.7,0.5,3,1.3,3.7,2.2c0.7,0.9,1.1,2,1.1,3.3c0,1.8-0.7,3.2-2.1,4.2
		S83.4,62.2,80.9,62.2z"/>
	<path class="st0" d="M89.9,61.7v-0.4l0.4-0.1c0.9-0.3,1.3-0.9,1.3-1.8V40.2c0-0.5-0.1-0.9-0.3-1.1c-0.2-0.2-0.5-0.4-1-0.5l-0.5-0.1
		V38l6.3-1.5l0.6,0.3l-0.1,5.1v4.5c0.8-0.7,1.7-1.3,2.7-1.8s2-0.7,3.2-0.7c1.6,0,2.8,0.4,3.7,1.3c0.9,0.9,1.4,2.3,1.4,4.1v10.2
		c0,0.5,0.1,0.9,0.3,1.2c0.2,0.3,0.5,0.5,1,0.6l0.3,0.1v0.4h-8.4v-0.4l0.4-0.1c0.9-0.3,1.3-0.9,1.3-1.8V48.1c0-1-0.2-1.6-0.5-2
		c-0.3-0.4-0.9-0.5-1.7-0.5c-0.5,0-1.1,0.1-1.7,0.3c-0.6,0.2-1.3,0.6-1.9,1.1v12.5c0,0.9,0.4,1.5,1.3,1.8l0.3,0.1v0.4H89.9z"/>
	<path class="st0" d="M118.6,61.7v-0.4l0.8-0.3c0.4-0.2,0.7-0.4,0.8-0.7c0.2-0.3,0.2-0.7,0.2-1.1V40.4c0-0.5-0.1-0.9-0.2-1.1
		c-0.1-0.3-0.4-0.5-0.9-0.7l-0.8-0.3v-0.4h17.2l0.2,5.5h-0.4l-1.5-3.4c-0.2-0.4-0.4-0.8-0.7-1c-0.2-0.3-0.6-0.4-1.1-0.4h-6.5v10.4
		h3.9c0.5,0,0.8-0.1,1.1-0.4s0.5-0.6,0.7-1l0.7-1.4h0.4v6.5h-0.4l-0.7-1.5c-0.2-0.4-0.4-0.8-0.7-1c-0.2-0.3-0.6-0.4-1.1-0.4h-3.9V61
		h7.3c0.5,0,0.9-0.1,1.1-0.4c0.3-0.3,0.5-0.6,0.6-1.1l1.5-3.4h0.4l-0.2,5.5H118.6z"/>
	<path class="st0" d="M144.8,62.2c-1.2,0-2.2-0.1-3.2-0.4s-1.8-0.6-2.6-1l0-4.3h0.4l1.2,2.2c0.5,1,1.1,1.7,1.7,2.1
		c0.6,0.5,1.4,0.7,2.4,0.7c1.2,0,2.1-0.3,2.8-0.8c0.7-0.5,1.1-1.2,1.1-2.1c0-0.8-0.3-1.4-0.8-1.9c-0.5-0.5-1.4-1-2.8-1.4l-1.5-0.5
		c-1.5-0.4-2.6-1.1-3.5-2c-0.8-0.9-1.3-2-1.3-3.3c0-1.6,0.6-2.9,1.9-4c1.2-1.1,3-1.7,5.4-1.7c0.9,0,1.8,0.1,2.6,0.3
		c0.8,0.2,1.6,0.5,2.4,0.9l-0.2,3.9h-0.4l-1.3-2.2c-0.5-0.8-0.9-1.3-1.4-1.7s-1.1-0.5-2-0.5c-0.8,0-1.6,0.2-2.3,0.7
		s-1.1,1.1-1.1,1.9c0,0.8,0.3,1.5,0.9,1.9c0.6,0.5,1.5,0.9,2.7,1.3l1.6,0.5c1.7,0.5,3,1.3,3.7,2.2s1.1,2,1.1,3.3
		c0,1.8-0.7,3.2-2.1,4.2C149.2,61.7,147.3,62.2,144.8,62.2z"/>
	<path class="st0" d="M153.9,70v-0.4l0.4-0.1c0.9-0.2,1.3-0.8,1.3-1.7V48.2c0-0.5-0.1-0.9-0.3-1.2c-0.2-0.3-0.5-0.4-1-0.5l-0.5-0.1
		V46l6.1-2.1l0.4,0.4l0.3,1.1c0.8-0.5,1.7-0.9,2.6-1.1s2-0.4,3-0.4c2.1,0,3.7,0.8,4.9,2.4s1.8,3.8,1.8,6.8c0,2.9-0.7,5.1-2,6.8
		s-3.2,2.5-5.6,2.5c-1.9,0-3.5-0.3-4.8-0.8v6.2c0,1,0.4,1.6,1.3,1.8l0.7,0.2V70H153.9z M163.7,61.2c1.2,0,2.2-0.6,2.9-1.9
		c0.7-1.2,1.1-3.3,1.1-6.2c0-2.9-0.3-4.9-1-6.1s-1.6-1.7-2.9-1.7c-0.9,0-1.9,0.3-3,0.9v14.5C161.7,61,162.6,61.2,163.7,61.2z"/>
	<path class="st0" d="M174.7,61.7v-0.4l0.5-0.1c0.5-0.1,0.8-0.4,1-0.6c0.2-0.3,0.3-0.7,0.3-1.2V48.1c0-0.5-0.1-0.9-0.3-1.1
		c-0.2-0.3-0.5-0.4-1-0.5l-0.5-0.1V46l6.6-2.1l0.4,0.4l-0.1,5.1v10.1c0,0.5,0.1,0.9,0.3,1.2c0.2,0.3,0.5,0.5,1,0.6l0.4,0.1v0.4
		H174.7z M179,42c-0.8,0-1.5-0.3-2.1-0.8c-0.6-0.5-0.8-1.2-0.8-2c0-0.8,0.3-1.5,0.8-2c0.6-0.5,1.3-0.8,2.1-0.8
		c0.8,0,1.5,0.3,2.1,0.8c0.6,0.5,0.8,1.2,0.8,2c0,0.8-0.3,1.4-0.8,2C180.5,41.7,179.8,42,179,42z"/>
	<path class="st0" d="M184.8,61.7v-0.4l0.5-0.1c0.8-0.2,1.3-0.8,1.3-1.8V48.2c0-0.5-0.1-0.9-0.3-1.2s-0.5-0.4-1-0.5l-0.5-0.1V46
		l6.2-2.1l0.4,0.4l0.3,2.2c0.8-0.7,1.8-1.4,2.8-1.8c1.1-0.5,2.1-0.7,3.1-0.7c1.6,0,2.8,0.4,3.7,1.3c0.9,0.9,1.3,2.2,1.3,4v10.4
		c0,0.9,0.5,1.5,1.4,1.8l0.3,0.1v0.4h-8.5v-0.4l0.5-0.1c0.8-0.3,1.3-0.9,1.3-1.8V47.9c0-1.5-0.8-2.3-2.3-2.3c-1.1,0-2.2,0.5-3.5,1.6
		v12.2c0,0.9,0.4,1.5,1.3,1.8l0.3,0.1v0.4H184.8z"/>
	<path class="st0" d="M214.7,62.2c-1.8,0-3.4-0.4-4.8-1.1c-1.3-0.8-2.4-1.8-3.1-3.2c-0.7-1.4-1.1-3-1.1-4.9s0.4-3.5,1.2-4.9
		c0.8-1.4,1.8-2.4,3.2-3.2c1.4-0.7,2.9-1.1,4.6-1.1s3.2,0.4,4.6,1.1c1.3,0.7,2.4,1.8,3.2,3.1c0.8,1.4,1.2,3,1.2,4.9
		s-0.4,3.5-1.1,4.9c-0.7,1.4-1.8,2.4-3.1,3.2C218.1,61.9,216.5,62.2,214.7,62.2z M214.7,61.5c0.8,0,1.5-0.2,2-0.7
		c0.5-0.5,0.9-1.3,1.1-2.6c0.2-1.2,0.3-3,0.3-5.2c0-2.3-0.1-4-0.3-5.2c-0.2-1.2-0.6-2.1-1.1-2.6s-1.2-0.7-2-0.7
		c-0.8,0-1.5,0.2-2,0.7c-0.5,0.5-0.9,1.3-1.1,2.6s-0.3,3-0.3,5.2c0,2.2,0.1,4,0.3,5.2c0.2,1.2,0.6,2.1,1.1,2.6
		C213.2,61.3,213.8,61.5,214.7,61.5z"/>
	<path class="st0" d="M225.3,61.7v-0.6l9.8-16h-5.4c-0.6,0-1.1,0.2-1.5,0.5c-0.4,0.3-0.7,0.8-1,1.3l-1.3,2.4h-0.4l0.3-5h14.4v0.5
		L230.6,61h5.7c0.8,0,1.3-0.2,1.7-0.5c0.4-0.4,0.7-0.9,1-1.5l1.3-2.7h0.4l-0.3,5.4H225.3z"/>
	<path class="st0" d="M247.2,62.2c-1.4,0-2.6-0.4-3.5-1.2s-1.4-1.9-1.4-3.4c0-1.1,0.6-2.2,1.7-3.1c1.2-0.9,3-1.7,5.4-2.1
		c0.4-0.1,0.8-0.1,1.3-0.2c0.5-0.1,1-0.2,1.5-0.3V49c0-1.6-0.2-2.8-0.6-3.4c-0.4-0.7-1-1-1.9-1c-0.6,0-1,0.2-1.4,0.6
		c-0.3,0.4-0.6,1-0.6,1.9l-0.1,0.4c0,1-0.3,1.8-0.8,2.3c-0.5,0.5-1,0.7-1.7,0.7c-0.6,0-1.1-0.2-1.5-0.6c-0.4-0.4-0.6-0.9-0.6-1.5
		c0-1,0.3-1.8,1-2.5c0.7-0.7,1.6-1.2,2.7-1.5c1.1-0.3,2.4-0.5,3.7-0.5c2.1,0,3.8,0.5,5,1.6c1.2,1,1.7,2.7,1.7,5.1v8
		c0,1.1,0.5,1.6,1.5,1.6h0.8l0.3,0.3c-0.5,0.6-1,1-1.5,1.3s-1.3,0.5-2.3,0.5c-1.1,0-1.9-0.2-2.5-0.7c-0.6-0.5-1-1.1-1.2-2
		c-0.7,0.8-1.5,1.4-2.2,2S248.4,62.2,247.2,62.2z M249.4,60c0.5,0,0.9-0.1,1.4-0.3c0.4-0.2,0.9-0.6,1.5-1.1v-6
		c-0.2,0-0.5,0.1-0.7,0.1c-0.2,0-0.5,0.1-0.8,0.1c-1.1,0.3-2,0.8-2.6,1.5c-0.7,0.7-1,1.6-1,2.8c0,1,0.2,1.7,0.7,2.2
		C248.2,59.8,248.7,60,249.4,60z"/>
	<path class="st0" d="M52.2,104.9v-0.4l0.7-0.3c0.5-0.1,0.8-0.4,1-0.6c0.2-0.3,0.2-0.7,0.2-1.2V83.6c0-0.5-0.1-0.9-0.3-1.2
		c-0.2-0.3-0.5-0.5-1-0.7l-0.7-0.3v-0.4H61c3.6,0,6.2,0.7,7.8,2c1.6,1.3,2.4,3,2.4,5.2c0,1.4-0.3,2.6-1,3.8c-0.7,1.1-1.7,2-3.3,2.7
		c-1.5,0.7-3.6,1-6.1,1h-1.2v6.6c0,0.9,0.5,1.5,1.4,1.8l1.1,0.3v0.4H52.2z M59.6,95h1.4c1.2,0,2.1-0.2,2.9-0.6
		c0.7-0.4,1.3-1.1,1.7-2c0.4-1,0.5-2.3,0.5-4c0-1.7-0.2-3.1-0.6-4c-0.4-1-1-1.6-1.7-2c-0.8-0.4-1.7-0.6-2.9-0.6h-1.2V95z"/>
	<path class="st0" d="M72.2,104.9v-0.4l0.4-0.1c0.9-0.3,1.3-0.9,1.3-1.8V83.4c0-0.5-0.1-0.9-0.3-1.1c-0.2-0.2-0.5-0.4-1-0.5
		l-0.5-0.1v-0.4l6.3-1.5l0.6,0.3L79,85.1v4.5c0.8-0.7,1.7-1.3,2.7-1.8s2-0.7,3.2-0.7c1.6,0,2.8,0.4,3.7,1.3c0.9,0.9,1.4,2.3,1.4,4.1
		v10.2c0,0.5,0.1,0.9,0.3,1.2c0.2,0.3,0.5,0.5,1,0.6l0.3,0.1v0.4h-8.4v-0.4l0.4-0.1c0.9-0.3,1.3-0.9,1.3-1.8V91.3c0-1-0.2-1.6-0.5-2
		c-0.3-0.4-0.9-0.5-1.7-0.5c-0.5,0-1.1,0.1-1.7,0.3c-0.6,0.2-1.3,0.6-1.9,1.1v12.5c0,0.9,0.4,1.5,1.3,1.8l0.3,0.1v0.4H72.2z"/>
	<path class="st0" d="M102.1,105.4c-1.8,0-3.4-0.4-4.8-1.1c-1.3-0.8-2.4-1.8-3.1-3.2c-0.7-1.4-1.1-3-1.1-4.9s0.4-3.5,1.2-4.9
		c0.8-1.4,1.8-2.4,3.2-3.2c1.4-0.7,2.9-1.1,4.6-1.1s3.2,0.4,4.6,1.1c1.3,0.7,2.4,1.8,3.2,3.1s1.2,3,1.2,4.9s-0.4,3.5-1.1,4.9
		c-0.7,1.4-1.8,2.4-3.1,3.2C105.5,105.1,103.9,105.4,102.1,105.4z M102.1,104.7c0.8,0,1.5-0.2,2-0.7c0.5-0.5,0.9-1.3,1.1-2.6
		c0.2-1.2,0.3-3,0.3-5.2c0-2.3-0.1-4-0.3-5.2c-0.2-1.2-0.6-2.1-1.1-2.6c-0.5-0.5-1.2-0.7-2-0.7s-1.5,0.2-2,0.7S99.2,89.8,99,91
		c-0.2,1.2-0.3,3-0.3,5.2c0,2.2,0.1,4,0.3,5.2c0.2,1.2,0.6,2.1,1.1,2.6C100.6,104.5,101.3,104.7,102.1,104.7z"/>
	<path class="st0" d="M119.3,105.4c-1.5,0-2.7-0.4-3.6-1.2s-1.3-2-1.3-3.7V88.3H112v-0.4l0.9-0.1c0.7-0.2,1.4-0.4,1.9-0.7
		c0.5-0.3,1.1-0.7,1.6-1.3l3-3.3h0.4l-0.1,5h4v0.7h-4.1v13c0,0.8,0.2,1.5,0.6,1.9c0.4,0.4,0.8,0.6,1.4,0.6c0.5,0,0.9-0.1,1.3-0.4
		c0.4-0.3,0.8-0.6,1.2-1l0.4,0.4c-0.5,0.8-1.1,1.5-2,1.9C121.5,105.2,120.5,105.4,119.3,105.4z"/>
	<path class="st0" d="M134.5,105.4c-1.8,0-3.4-0.4-4.8-1.1c-1.3-0.8-2.4-1.8-3.1-3.2c-0.7-1.4-1.1-3-1.1-4.9s0.4-3.5,1.2-4.9
		c0.8-1.4,1.8-2.4,3.2-3.2c1.4-0.7,2.9-1.1,4.6-1.1c1.7,0,3.2,0.4,4.6,1.1s2.4,1.8,3.2,3.1c0.8,1.4,1.2,3,1.2,4.9s-0.4,3.5-1.1,4.9
		c-0.7,1.4-1.8,2.4-3.1,3.2C137.9,105.1,136.3,105.4,134.5,105.4z M134.5,104.7c0.8,0,1.5-0.2,2-0.7c0.5-0.5,0.9-1.3,1.1-2.6
		c0.2-1.2,0.3-3,0.3-5.2c0-2.3-0.1-4-0.3-5.2c-0.2-1.2-0.6-2.1-1.1-2.6s-1.2-0.7-2-0.7c-0.8,0-1.5,0.2-2,0.7
		c-0.5,0.5-0.9,1.3-1.1,2.6c-0.2,1.2-0.3,3-0.3,5.2c0,2.2,0.1,4,0.3,5.2c0.2,1.2,0.6,2.1,1.1,2.6
		C132.9,104.5,133.6,104.7,134.5,104.7z"/>
	<path class="st0" d="M152.8,98.7c-1.7,0-3.1-0.3-4.2-0.8v1.2c0,0.7,0.4,1.2,1.1,1.3l6.8,1.3c1.1,0.2,2.1,0.5,3.1,0.8
		c0.9,0.3,1.6,0.8,2.2,1.5c0.6,0.6,0.8,1.5,0.8,2.6c0,1.2-0.4,2.3-1.2,3.3c-0.8,1-1.9,1.8-3.4,2.4c-1.5,0.6-3.4,0.9-5.6,0.9
		c-1.9,0-3.4-0.2-4.6-0.6c-1.1-0.4-1.9-0.9-2.4-1.5c-0.5-0.6-0.7-1.3-0.7-2c0-0.9,0.3-1.7,0.9-2.6c0.6-0.9,1.3-1.6,2.2-2.1
		c-0.7-0.3-1.3-0.7-1.6-1.1s-0.5-0.9-0.5-1.5c0-0.5,0.1-0.9,0.4-1.4s0.6-0.8,0.9-1.3l1.2-1.5c-1.8-1-2.6-2.6-2.6-4.8
		c0-1.7,0.6-3.1,1.9-4.2s3.1-1.6,5.5-1.6c1.2,0,2.3,0.1,3.2,0.4c0.9,0.3,1.7,0.7,2.3,1.2c0.8-0.1,1.5-0.3,2.2-0.6
		c0.7-0.3,1.3-0.7,1.9-1.1l0.5,0.4v1.8h-4.1c0.9,1,1.3,2.2,1.3,3.7c0,1.7-0.6,3.1-1.9,4.2C157,98.1,155.2,98.7,152.8,98.7z
		 M147.4,107.9c0,1.4,0.4,2.5,1.3,3.2s2.3,1.1,4.2,1.1c2,0,3.5-0.3,4.5-1c1-0.6,1.5-1.6,1.5-2.7c0-0.7-0.2-1.2-0.7-1.6
		c-0.5-0.4-1.3-0.7-2.5-0.9l-6.5-1.2c-0.2,0-0.4-0.1-0.6-0.1c-0.3,0.5-0.6,1-0.8,1.6C147.5,106.8,147.4,107.4,147.4,107.9z
		 M152.8,98c1,0,1.7-0.4,2.1-1.2s0.7-2.1,0.7-4c0-1.8-0.2-3.1-0.7-3.9s-1.1-1.1-2-1.1c-0.9,0-1.6,0.4-2,1.2
		c-0.5,0.8-0.7,2.1-0.7,3.9c0,1.8,0.2,3.2,0.6,3.9C151.2,97.6,151.9,98,152.8,98z"/>
	<path class="st0" d="M164.1,104.9v-0.4l0.5-0.1c0.5-0.1,0.8-0.4,1-0.6c0.2-0.3,0.3-0.7,0.3-1.1V91.4c0-0.5-0.1-0.9-0.3-1.2
		c-0.2-0.3-0.5-0.4-1-0.5l-0.5-0.1v-0.4l6.2-2.1l0.4,0.4l0.3,3.1v0.3c0.3-0.7,0.8-1.3,1.3-1.9c0.5-0.6,1.1-1,1.8-1.4
		c0.7-0.4,1.3-0.5,2-0.5c0.9,0,1.6,0.3,2.1,0.8c0.5,0.5,0.7,1.1,0.7,1.9c0,0.8-0.2,1.4-0.7,1.9s-1,0.7-1.7,0.7c-1,0-1.9-0.5-2.7-1.5
		l-0.1-0.1c-0.2-0.3-0.5-0.5-0.8-0.6s-0.6,0.1-0.9,0.5c-0.2,0.2-0.4,0.5-0.6,0.8c-0.2,0.3-0.3,0.6-0.5,1v10c0,1,0.4,1.6,1.3,1.8
		l1.2,0.3v0.4H164.1z"/>
	<path class="st0" d="M184.5,105.4c-1.4,0-2.6-0.4-3.5-1.2c-0.9-0.8-1.4-1.9-1.4-3.4c0-1.1,0.6-2.2,1.7-3.1c1.2-0.9,3-1.7,5.4-2.1
		c0.4-0.1,0.8-0.1,1.3-0.2c0.5-0.1,1-0.2,1.5-0.3v-2.8c0-1.6-0.2-2.8-0.6-3.4c-0.4-0.7-1-1-1.9-1c-0.6,0-1,0.2-1.4,0.6
		c-0.3,0.4-0.6,1-0.6,1.9l-0.1,0.4c0,1-0.3,1.8-0.8,2.3c-0.5,0.5-1,0.7-1.7,0.7c-0.6,0-1.1-0.2-1.5-0.6c-0.4-0.4-0.6-0.9-0.6-1.5
		c0-1,0.3-1.8,1-2.5c0.7-0.7,1.6-1.2,2.7-1.5c1.1-0.3,2.4-0.5,3.7-0.5c2.1,0,3.8,0.5,4.9,1.6s1.7,2.7,1.7,5.1v8
		c0,1.1,0.5,1.6,1.5,1.6h0.8l0.3,0.3c-0.5,0.6-1,1-1.5,1.3s-1.3,0.5-2.3,0.5c-1.1,0-1.9-0.2-2.5-0.7c-0.6-0.5-1-1.1-1.2-2
		c-0.7,0.8-1.5,1.4-2.2,2C186.6,105.2,185.7,105.4,184.5,105.4z M186.7,103.2c0.5,0,0.9-0.1,1.3-0.3c0.4-0.2,0.9-0.6,1.5-1.1v-6
		c-0.2,0-0.5,0.1-0.7,0.1c-0.2,0-0.5,0.1-0.8,0.1c-1.1,0.3-2,0.8-2.6,1.5s-1,1.6-1,2.8c0,1,0.2,1.7,0.7,2.2
		C185.5,103,186,103.2,186.7,103.2z"/>
	<path class="st0" d="M197.1,113.2v-0.4l0.4-0.1c0.9-0.2,1.3-0.8,1.3-1.7V91.4c0-0.5-0.1-0.9-0.3-1.2c-0.2-0.3-0.5-0.4-1-0.5
		l-0.5-0.1v-0.4l6.1-2.1l0.4,0.4l0.3,1.1c0.8-0.5,1.7-0.9,2.6-1.1c1-0.3,2-0.4,3-0.4c2.1,0,3.7,0.8,4.9,2.4c1.2,1.6,1.8,3.8,1.8,6.8
		c0,2.9-0.7,5.1-2,6.8s-3.2,2.5-5.6,2.5c-1.9,0-3.5-0.3-4.8-0.8v6.2c0,1,0.4,1.6,1.3,1.8l0.7,0.2v0.4H197.1z M207,104.4
		c1.2,0,2.2-0.6,2.9-1.9c0.7-1.2,1.1-3.3,1.1-6.2c0-2.9-0.3-4.9-1-6.1c-0.7-1.2-1.6-1.7-2.9-1.7c-0.9,0-1.9,0.3-3,0.9v14.5
		C204.9,104.2,205.9,104.4,207,104.4z"/>
	<path class="st0" d="M217.9,104.9v-0.4l0.4-0.1c0.9-0.3,1.3-0.9,1.3-1.8V83.4c0-0.5-0.1-0.9-0.3-1.1c-0.2-0.2-0.5-0.4-1-0.5
		l-0.5-0.1v-0.4l6.3-1.5l0.6,0.3l-0.1,5.1v4.5c0.8-0.7,1.7-1.3,2.7-1.8c1-0.5,2-0.7,3.2-0.7c1.6,0,2.8,0.4,3.7,1.3
		c0.9,0.9,1.4,2.3,1.4,4.1v10.2c0,0.5,0.1,0.9,0.3,1.2c0.2,0.3,0.5,0.5,1,0.6l0.3,0.1v0.4h-8.4v-0.4l0.4-0.1
		c0.9-0.3,1.3-0.9,1.3-1.8V91.3c0-1-0.2-1.6-0.5-2c-0.3-0.4-0.9-0.5-1.7-0.5c-0.5,0-1.1,0.1-1.7,0.3c-0.6,0.2-1.3,0.6-1.9,1.1v12.5
		c0,0.9,0.4,1.5,1.3,1.8l0.3,0.1v0.4H217.9z"/>
	<path class="st0" d="M240.9,113.5c-1,0-1.7-0.2-2.3-0.7c-0.6-0.5-0.8-1.1-0.8-1.8c0-0.7,0.2-1.2,0.7-1.6c0.5-0.4,1-0.6,1.6-0.6
		c0.6,0,1.1,0.1,1.5,0.4s0.8,0.6,1.1,1.1l0.3,0.3c0.5,0.7,1.1,0.7,1.6,0c0.2-0.4,0.5-0.8,0.7-1.4c0.3-0.6,0.6-1.4,1-2.4l-7-16.7
		c-0.2-0.5-0.3-0.8-0.5-1.1c-0.2-0.3-0.5-0.5-0.9-0.7l-0.6-0.3v-0.4h9v0.3l-0.7,0.3c-0.5,0.2-0.8,0.4-0.8,0.8c0,0.4,0.1,0.8,0.3,1.4
		l3.7,9.7l3.6-9.8c0.2-0.6,0.3-1,0.2-1.4c0-0.4-0.3-0.6-0.9-0.8l-0.8-0.2v-0.4h5v0.4l-0.8,0.3c-0.6,0.2-0.9,0.4-1.2,0.7
		c-0.2,0.3-0.4,0.7-0.6,1.3l-5.8,15.8c-0.9,2.5-1.9,4.4-2.8,5.7S242.4,113.5,240.9,113.5z"/>
</g>
</svg>
