<svg xmlns="http://www.w3.org/2000/svg" viewBox="0 0 599.78 331.02"><defs><style>.cls-1{fill:#cdde00;}.cls-2{fill:#fff;}.cls-3{fill:none;}.cls-4{fill:#2c9942;}</style></defs><title>Asset 1</title><g id="Layer_2" data-name="Layer 2"><g id="Layer_1-2" data-name="Layer 1"><path class="cls-1" d="M599.78,91.3a91.3,91.3,0,0,0-181-17.2c-34.35-11.92-74.08-18.73-116.42-18.73-44.28,0-85.71,7.45-121.11,20.41A91.3,91.3,0,0,0,0,91.3c0,42.63,29.53,77,69,87.07.1-.47-.11.47,0,0H535.76s0,0,0,.08A91.34,91.34,0,0,0,599.78,91.3ZM272,145.11A11.12,11.12,0,1,1,283.08,134,11.12,11.12,0,0,1,272,145.11Zm60.87,0A11.12,11.12,0,1,1,344,134,11.12,11.12,0,0,1,332.83,145.11Z"/><circle class="cls-2" cx="91.3" cy="91.3" r="69.11" transform="translate(-37.82 91.3) rotate(-45)"/><path d="M91.3,38.68a52.6,52.6,0,0,0-44.53,80.64,15.84,15.84,0,1,1,22.58,19.8,52.62,52.62,0,1,0,22-100.44Z"/><path class="cls-2" d="M577.59,91.3a69.11,69.11,0,1,1-69.11-69.11A69.11,69.11,0,0,1,577.59,91.3Z"/><path d="M508.48,38.68A52.61,52.61,0,0,0,464,119.32a15.85,15.85,0,1,1,22.58,19.8,52.62,52.62,0,1,0,22-100.44Z"/><path class="cls-3" d="M272,122.87A11.12,11.12,0,1,0,283.08,134,11.12,11.12,0,0,0,272,122.87Z"/><path class="cls-3" d="M332.83,122.87A11.12,11.12,0,1,0,344,134,11.12,11.12,0,0,0,332.83,122.87Z"/><path class="cls-4" d="M38.53,317.4a11,11,0,0,1,11.35-10.94V200.39A11.27,11.27,0,0,1,61,189a11,11,0,0,1,11.14,11.35V306.46a22.33,22.33,0,0,1-22.29,22.29A11,11,0,0,1,38.53,317.4Z"/><path class="cls-4" d="M131.4,292.22A43.16,43.16,0,0,1,88.47,249.3V200A11.15,11.15,0,0,1,99.41,189,11,11,0,0,1,110.35,200V249.3a20.87,20.87,0,0,0,21.05,21.05,21.4,21.4,0,0,0,21.66-21.05V200A10.83,10.83,0,0,1,163.79,189c5.79,0,11.15,5.16,11.15,10.94V249.3C174.94,272.82,155.13,292.22,131.4,292.22Z"/><path class="cls-4" d="M275.44,231.75v49.53a11,11,0,0,1-10.94,10.94c-5.78,0-11.14-5-11.14-10.94V231.75a21.05,21.05,0,0,0-42.1.62v48.91c0,.42-.21,1-.21,1.45v.62c-.2.41-.2.82-.62,1.24v1a12,12,0,0,1-10.31,6.6c-.83,0-1.45-.21-2.07-.21-5-1.23-8.87-5.36-8.87-10.73v-81.1A10.92,10.92,0,0,1,200.12,189a10.47,10.47,0,0,1,9.9,6.19A43.43,43.43,0,0,1,232.1,189a42.8,42.8,0,0,1,32.4,14.24c7.64-8.88,19.4-14.24,32.4-14.24a43.12,43.12,0,0,1,42.93,43.33v48.91a11,11,0,0,1-10.94,10.94,11.18,11.18,0,0,1-11.14-10.94V232.37a21.14,21.14,0,0,0-20.85-21.25A21.42,21.42,0,0,0,275.44,231.75Z"/><path class="cls-4" d="M353.45,319.88V200A11,11,0,0,1,364.39,189c5.77,0,10.52,3.92,11.34,8.46A52.42,52.42,0,0,1,403.8,189c27.45,0,49.94,23.52,49.94,51.8S431.25,292,403.8,292c-10.32,0-20.22-3.09-27.65-8.46v36.33c0,5.77-5.16,11.14-11.76,11.14C358.4,331,353.45,325.65,353.45,319.88Zm22.7-79c0,8,2.68,15.89,8.05,20.63a25.54,25.54,0,0,0,19.6,8.67,26.39,26.39,0,0,0,19.4-8.67c4.75-4.74,8.05-12.59,8.05-20.63A31.85,31.85,0,0,0,423.2,220a27,27,0,0,0-19.4-8.46A26.08,26.08,0,0,0,384.2,220C378.83,225.36,376.15,232.79,376.15,240.84Z"/><path class="cls-4" d="M488.41,200.59v80.49a11,11,0,0,1-11.14,11.14,11.1,11.1,0,0,1-11.15-11.14V200.59a11,11,0,0,1,11.15-11.35C483.66,189.24,488.41,194,488.41,200.59Z"/><path class="cls-4" d="M578.8,207.2,554.24,241l24.56,34c3.51,4.54,2.27,11.77-2.07,14.86a11.54,11.54,0,0,1-6.6,2.27c-3.3,0-6.4-1.86-9.08-4.54l-20.64-28.27-20.63,28.27c-2.27,2.68-5.16,4.54-8.46,4.54a11.1,11.1,0,0,1-6.61-2.27c-4.74-3.09-5.77-10.32-2.27-14.86l24.77-34L502.44,207.2a10.38,10.38,0,0,1,2.27-14.65,10.84,10.84,0,0,1,15.07,2.27l20.63,27.65,20.64-27.65a11.59,11.59,0,0,1,15.68-2.27C581.07,195.85,582.31,202.86,578.8,207.2Z"/></g></g></svg>