<svg xmlns="http://www.w3.org/2000/svg" viewBox="0 0 1134.03 417.82"><defs><style>.cls-1{fill:#2b51a4;}.cls-2{fill:#010101;}.cls-3{fill:#84a4d6;}.cls-4{fill:#1b62ae;}</style></defs><title>Asset 1</title><g id="Layer_2" data-name="Layer 2"><g id="Layer_1-2" data-name="Layer 1"><path class="cls-1" d="M11.15,330.28c-.67,1-2.91.82-6.74-.4s-5.17-2.64-4-4.26a5.58,5.58,0,0,1,1.21-1.53,8.77,8.77,0,0,0,1.76-2.58q10.07-21.74,20.28-44.25t18.2-44.2c.25-.89.18-1.32-.25-1.27Q34,233,23.93,235.16T5.13,240c-1.23.38-1.78-1-1.62-4.25s2.22-5.55,6.16-7q7-2.64,23-5.47t33.5-5.19q17.5-2.33,32.77-3.84t20.84-1.5a4.64,4.64,0,0,1,4.75,3.2c.81,2.12.72,3.24-.27,3.32-4.06.42-9.53,1-16.38,1.77s-13.81,1.55-20.82,2.43-13.45,1.75-19.28,2.62a89.26,89.26,0,0,0-11.72,2.26,4,4,0,0,0-2.42,1.91q-6.58,13-13.9,30T26.19,292.62Q20,308,15.75,318.8C12.92,326,11.4,329.86,11.15,330.28Z"/><path class="cls-1" d="M77.8,228.73c.62-1.68,2.41-1.16,5.39,1.48s4.33,4.31,4.09,4.9l-.6,1.12a9.49,9.49,0,0,1-2.12,2.33c-1.42,1.24-3.75,4.62-7,10.18s-6.46,11.67-9.85,18.61q-5.52,11.05-9.57,21.1c-1.35,3.38-2.78,6.92-4.24,10.62A56.44,56.44,0,0,0,51,308c-.09.35,0,.57.14.67s.36-.08.6-.6c1.49-2.86,3.67-6.79,6.55-11.82s5.54-9.55,8-13.64,4.52-7.53,6.3-10.3a26.57,26.57,0,0,1,3.93-5.17c.82-.73,3-.17,6.52,1.68s5.81,3.64,6.9,5.29c.2.39-.36,1.87-1.69,4.45s-2.82,5.65-4.46,9.23q-2,4.36-3.54,8.45a38.8,38.8,0,0,0-2,8.19c-.26,1.74-.21,2.78.08,3.13s.66.19,1.07-.46a40.32,40.32,0,0,1,3-3.56c1.55-1.71,3.32-3.57,5.31-5.56s4.1-4,6.21-6a60.6,60.6,0,0,1,5.27-4.49,7.63,7.63,0,0,1,2.06-1.11c.61-.19.8-.12.56.21-1.17,1.55-2.81,3.58-4.94,6.08s-3.65,4.42-4.54,5.7q-4.3,5.94-7.52,10.2a68.21,68.21,0,0,0-6,9.44c-.61,1.14-1.82,1-3.58-.42a13.47,13.47,0,0,1-4-6q-2.31-5.82.43-16.32a75.24,75.24,0,0,1,5.64-15.86c.75-1.41.91-2.16.48-2.27s-.72-.09-.86,0A60.22,60.22,0,0,0,69,287q-4.18,6.16-7.91,12.7T54.3,311.9c-2,3.83-3.48,6.6-4.43,8.35-.39.61-1,.65-1.94.13a19.64,19.64,0,0,1-4.19-2.79c-1-.94-1.39-2.59-1-4.89a65.47,65.47,0,0,1,2.9-10.76c1.46-4.12,2.86-8,4.23-11.57s2.86-7.15,4.45-10.81,3.3-7.33,5-11,3.4-7.28,5.15-10.83,3.41-7,5-10.46,3.11-6.63,4.53-9.76S76.71,231.45,77.8,228.73Z"/><path class="cls-1" d="M105,297.09c-.58,4.91-.21,8.73,1,11.53s3,3.68,5.35,2.48a26.94,26.94,0,0,0,6.88-5.44c2.37-2.46,5-5.44,7.81-8.89,2.66-3.19,5.1-6.25,7.32-9.12s4.28-5.37,6.13-7.51c.27-.25.36-.08.32.51a3.94,3.94,0,0,1-.18,1.41q-.87,2.09-4.41,8.64-3.23,5.93-12.47,17.13c-4.21,5.07-8.24,8.52-12,10.36s-7.24,1.26-10.55-1.72a14.94,14.94,0,0,1-3.53-5.57A21.44,21.44,0,0,1,94.93,303a38.3,38.3,0,0,1,5.46-21.56c4.29-7.45,9.39-12.37,15.26-14.7s10.25-1.5,12.78,2.93,2,9.36-1.32,14.75-6.83,9.16-10.53,11.28c-3.89,2.26-7.31,2.69-10.23,1.28a3.85,3.85,0,0,0-.45-.25C105.37,296.5,105.07,296.62,105,297.09Zm17.38-16.32c2.18-3.91,3.07-6.65,2.66-8.17a2.41,2.41,0,0,0-3-1.93,14.55,14.55,0,0,0-5.84,2.94,23,23,0,0,0-5.59,6.46A41.86,41.86,0,0,0,106,291.84c-.12.42,0,.73.26.9q4.21,2.57,9.17-2.89A55,55,0,0,0,122.41,280.78Z"/><path class="cls-1" d="M209.28,205.88c.08-1.87,1.83-1.75,5.24.36s4.92,3.7,4.56,4.76a5,5,0,0,1-1.55,2.82,8.06,8.06,0,0,0-1.92,3.13c-2.13,3.94-5.27,10.75-9.47,20.47s-8.59,20.15-13.19,31.31S184,290.64,180,301s-7,18.19-8.84,23.44c-.16.34,0,.46.36.39a148.67,148.67,0,0,1,30.63-1.7q15.41.75,23.42,3.35a7,7,0,0,1,5.12,5.51c.52,2.68.59,4,.22,3.91a110.2,110.2,0,0,0-14.31-2.51q-8.65-1-18.14-1.25c-6.34-.15-12.57,0-18.7.41a75.86,75.86,0,0,0-15.8,2.57,14.15,14.15,0,0,1-9,3.33c-1.2,0-3-1-5.28-2.92s-1.62-3.71,2.11-5.34a60.92,60.92,0,0,1,8-2.81,6.28,6.28,0,0,1,.45-1l.6-1.05q2.06-3.9,9.86-22.71T187,262.72q8.59-21.11,15.37-38.46T209.28,205.88Z"/><path class="cls-1" d="M220.14,297.09c-.59,4.91-.24,8.73,1.06,11.53s3,3.68,5.33,2.48a27,27,0,0,0,6.89-5.44c2.35-2.46,5-5.44,7.81-8.89,2.64-3.19,5.09-6.25,7.31-9.12s4.3-5.37,6.16-7.51c.25-.25.34-.08.3.51a4.24,4.24,0,0,1-.17,1.41c-.59,1.39-2,4.28-4.42,8.64q-3.21,5.93-12.47,17.13-6.33,7.6-12,10.36t-10.55-1.72a14.68,14.68,0,0,1-3.52-5.57A21,21,0,0,1,210,303a38.19,38.19,0,0,1,5.45-21.56c4.3-7.45,9.39-12.37,15.26-14.7s10.26-1.5,12.78,2.93,2,9.36-1.29,14.75-6.83,9.16-10.55,11.28c-3.89,2.26-7.31,2.69-10.24,1.28a2.07,2.07,0,0,0-.42-.25C220.47,296.5,220.18,296.62,220.14,297.09Zm17.38-16.32c2.18-3.91,3.07-6.65,2.66-8.17a2.39,2.39,0,0,0-3-1.93,14.44,14.44,0,0,0-5.83,2.94,22.64,22.64,0,0,0-5.6,6.46,41.92,41.92,0,0,0-4.66,11.77c-.12.42,0,.73.26.9q4.22,2.57,9.19-2.89A55.6,55.6,0,0,0,237.53,280.78Z"/><path class="cls-1" d="M257.37,297.09c-.59,4.91-.23,8.73,1.06,11.53s3,3.68,5.34,2.48a27.12,27.12,0,0,0,6.88-5.44c2.36-2.46,5-5.44,7.81-8.89,2.64-3.19,5.09-6.25,7.31-9.12s4.3-5.37,6.15-7.51c.25-.25.34-.08.31.51a3.88,3.88,0,0,1-.19,1.41q-.85,2.09-4.4,8.64-3.21,5.93-12.48,17.13-6.31,7.6-12,10.36t-10.56-1.72a15,15,0,0,1-3.54-5.57,21.38,21.38,0,0,1-1.78-7.94,38.2,38.2,0,0,1,5.45-21.56C257,274,262.1,269,268,266.72s10.26-1.5,12.78,2.93,2,9.36-1.3,14.75-6.83,9.16-10.54,11.28c-3.9,2.26-7.3,2.69-10.24,1.28a2.48,2.48,0,0,0-.45-.25C257.7,296.5,257.41,296.62,257.37,297.09Zm17.37-16.32c2.19-3.91,3.08-6.65,2.67-8.17a2.39,2.39,0,0,0-3-1.93,14.51,14.51,0,0,0-5.83,2.94,22.64,22.64,0,0,0-5.6,6.46,42.19,42.19,0,0,0-4.66,11.77c-.12.42,0,.73.26.9,2.83,1.71,5.87.74,9.18-2.89A54.8,54.8,0,0,0,274.74,280.78Z"/><path class="cls-1" d="M301.18,308.23q-2.23,3.58-3.94,6.82c-1.13,2.13-1.86,3.58-2.14,4.31-.71,1.4-2.26.94-4.66-1.41a12,12,0,0,1-3.67-8.83,92.24,92.24,0,0,1,1-15.35q.55-4.29,1.57-9.75t2.52-13.53c.24-1.67,2.08-1.16,5.48,1.5s5.07,4.3,4.95,4.89c-.05.26-.13.62-.24,1.05a9,9,0,0,1-1.26,2.4,38.72,38.72,0,0,0-5.59,14c-1.1,5.48-1.4,10.07-.86,13.77,0,.81.3.84.8.08q5.51-7.5,10.69-15.3a82.23,82.23,0,0,0,8.54-16.69,10.31,10.31,0,0,0,.62-2.78,27.72,27.72,0,0,1,.43-3.16c.29-1.67,2.13-1.17,5.52,1.5s5.05,4.29,5,4.89c0,.24-.14.61-.25,1.06a11.68,11.68,0,0,1-1.31,2.39,33.29,33.29,0,0,0-5.08,15.54,40.16,40.16,0,0,0,.18,10.75c.09,1,.38,1.13.88.44q4.27-5.32,8.42-11.19a126,126,0,0,0,10.18-17,49.4,49.4,0,0,0,5.21-18.06c0-.47,1.39-.1,4.18,1.09s3.19,4.12,1.16,8.76a82.82,82.82,0,0,1-8.72,15.32c-3.46,4.79-6.82,9.63-10.07,14.48-2,3-4.09,6.33-6.34,10.14s-3.6,6.28-4.09,7.39q-1.06,2.3-3.86-.7a26.41,26.41,0,0,1-3.47-4.29,9.85,9.85,0,0,1-1.11-4.54q-.37-4.74-.36-7.78c0-2,.1-4.49.29-7.38,0-.85-.17-.94-.66-.26-1.71,2.47-3.38,5-5.05,7.67S302.72,305.7,301.18,308.23Z"/><path class="cls-1" d="M371.44,309.69a14.68,14.68,0,0,1,.24-7.1,80.88,80.88,0,0,1,2.79-8.69c.12-.71-.09-.81-.62-.27a111,111,0,0,0-11.36,15.68c-3.8,6.23-6.15,10.08-7.06,11.58-.46.67-1.92.28-4.35-1.17a15.93,15.93,0,0,1-5.41-4.85A11.08,11.08,0,0,1,344,309a37.49,37.49,0,0,1,.5-7.38,51.37,51.37,0,0,1,1.69-7.36c.73-2.34,1.35-4.28,1.9-5.82a72.77,72.77,0,0,1,11.54-21.1q7.26-9.28,13.16-10c2.49-.25,4.51,1,6.09,3.67s2.25,7.41,2,14.1c1.12,0,2.93.63,5.4,1.87q4.22,2.24,2.36,4.15c-2.07,2.08-4.2,5.89-6.38,11.39a80.37,80.37,0,0,0-2.61,7.74,26.25,26.25,0,0,0-1.11,7.1c0,.55.18.5.56-.13a41.3,41.3,0,0,1,3.87-4.44c2.05-2.16,4.3-4.4,6.74-6.77,2-2,4-3.79,6-5.49a44.42,44.42,0,0,1,4.75-3.71q2.73-1.73,1.86-.44a65.52,65.52,0,0,1-4.77,6.2c-2.15,2.52-3.67,4.42-4.54,5.69q-2.92,4.28-7.72,10.81a65.72,65.72,0,0,0-5.62,8.31c-.91,1.92-2.44,1.51-4.57-1.25S371.75,311.28,371.44,309.69Zm5.33-24.37q.54-3.06.86-6.7a35.13,35.13,0,0,0,0-6.72c-.55-4.7-2-6.82-4.45-6.39a9.2,9.2,0,0,0-4.91,3.1,34.38,34.38,0,0,0-4.35,6,58.52,58.52,0,0,0-3.6,7.14q-1.56,3.67-2.42,6.17a89,89,0,0,0-2.86,9.47,77.65,77.65,0,0,0-1.55,8.13q-1,8.06,1.06,5.69c1.54-1.79,3.23-3.79,5.12-6s3.81-4.48,5.8-6.78,3.9-4.59,5.83-6.83S375.06,287.25,376.77,285.32Z"/><path class="cls-1" d="M412.87,302.21a9.37,9.37,0,0,0-.49,3.71c.08.77.34.8.8.13q1.36-2.11,8.45-9.28a134.28,134.28,0,0,1,10.12-9.41c3.42-3,5.06-4,4.9-3.14s-1.7,3-4.48,6.48c-.75.84-1.4,1.63-1.95,2.33l-1.52,1.89-2.17,2.69q-3,3.64-7.82,10.68c-3.15,4.39-5,7.2-5.46,8.44-1,2.21-2.67,1.54-4.9-2.05s-3.37-6-3.29-7.47a17.43,17.43,0,0,1,.19-2.49,57.7,57.7,0,0,1,4.27-15.16,60.37,60.37,0,0,1,5.39-10.75c.3-.47.28-.81-.06-1a8.43,8.43,0,0,1-2.47-2.18.42.42,0,0,0-.63.07l-1.51,1.85-1.57,2q-2.07,2.5-4.11,5.18c-1.72,2.18-3.22,3.93-4.46,5.25l-2.21,2.52c-.73.83-1.42,1.64-2.15,2.4-2.93,3.16-5.14,4.45-6.62,3.84q-.5-.19,3.54-5.62,1.36-1.92,4.22-5.63c1.65-2.14,3-4,4.14-5.69l2.12-2.81c.75-1,1.42-2,2.06-3s1.26-2,1.95-3a8,8,0,0,0,1.27-3.39c.16-1.67.28-3.13.34-4.38a10.77,10.77,0,0,1,.89-3.75,30.28,30.28,0,0,1,2.11-3.74,12,12,0,0,1,3.92-3.61c.49-.31,1.21-.13,2.12.51a22.1,22.1,0,0,0,3.21,1.85c2.4,1.2,3.23,2.47,2.48,3.77A34.4,34.4,0,0,1,420.4,264a11,11,0,0,0-2.07,2.5c-1.28,2.12-1.11,4.34.49,6.65a17,17,0,0,0,2.61,3.25l1.71,1.83a9.75,9.75,0,0,0,1.27,1.25c.79.78.87,1.41.28,2a7.53,7.53,0,0,1-1.83,1.24,7.28,7.28,0,0,0-2.92,3,51.46,51.46,0,0,0-4.09,7.75A63.22,63.22,0,0,0,412.87,302.21Z"/><path class="cls-1" d="M484.36,229.88c.58-1.62,2.35-1.14,5.33,1.46s4.34,4.28,4.1,4.87a1.93,1.93,0,0,0-.25.48c-.1.19-.18.41-.32.66a11.32,11.32,0,0,1-2.16,2.3,29.18,29.18,0,0,0-4.35,6.08q-2.23,3.66-6.14,11.27c-2.32,4.56-4.47,9-6.45,13.42-2.19,4.69-4.25,9.39-6.15,14.14s-3.43,8.83-4.58,12.27a55.76,55.76,0,0,0-2.55,9.73c-.13,1.53.24,1.66,1.06.38a36.24,36.24,0,0,1,4.59-5.06q3-3.06,7.76-7.36c2.31-2.08,4.7-4.13,7.14-6.13a4.81,4.81,0,0,1,2.07-1.25c.4,0,.51.1.34.34a48.46,48.46,0,0,1-4.46,5.77,65.28,65.28,0,0,0-4.47,5.57q-3.15,4.41-6.82,9.37a102.48,102.48,0,0,0-6.44,9.75c-.76,1.28-2.17,1-4.23-.89a17.86,17.86,0,0,1-3.91-4.17,8.42,8.42,0,0,1-.37-5.49,92.58,92.58,0,0,1,3-11.39c.3-.94.09-1-.67-.24a72.82,72.82,0,0,0-10.92,13.92c-1.82,2.86-3.3,5.19-4.44,7s-1.95,3.11-2.44,3.86-1.9.37-4.35-1.09a15.32,15.32,0,0,1-5.41-4.85c-1.61-2.31-2.15-5.91-1.61-10.81a53.73,53.73,0,0,1,3.16-13.76c1.5-4,4.31-9,8.51-14.91s8.77-8.71,13.78-8.43,7.89,5.31,8.81,14.77q.18,1.73.74.38c1.7-4.21,3.69-8.8,6-13.73q2.54-5.71,6.25-13.62c1-2.19,2-4.35,3-6.54s1.95-4.29,2.94-6.38Q482.13,235.37,484.36,229.88Zm-27.8,59.29a48.45,48.45,0,0,0-.31-11.15q-.93-5.3-4.67-4.66-7,1.33-11.91,13.74t-5,19.07c-.09,4.85.59,6.47,2.06,4.8.91-1.11,2.34-2.82,4.33-5.12.78-.83,1.57-1.7,2.36-2.59s1.59-1.75,2.43-2.65,1.76-2,2.71-2.92,1.83-1.93,2.75-3Q454,291.85,456.57,289.17Z"/><path class="cls-2" d="M508.7,330.28c-.66,1-2.92.82-6.74-.4s-5.16-2.64-4-4.26a5.25,5.25,0,0,1,1.2-1.53,9.39,9.39,0,0,0,1.77-2.58q10.05-21.74,20.26-44.25t18.22-44.2c.23-.89.16-1.32-.25-1.27q-7.64,1.16-17.69,3.36T502.67,240c-1.25.38-1.78-1-1.62-4.25s2.2-5.55,6.13-7q7-2.64,23-5.47t33.52-5.19q17.5-2.33,32.75-3.84t20.86-1.5a4.66,4.66,0,0,1,4.74,3.2c.81,2.12.72,3.24-.28,3.32-4,.42-9.53,1-16.38,1.77s-13.81,1.55-20.83,2.43-13.42,1.75-19.27,2.62a90.07,90.07,0,0,0-11.72,2.26,4,4,0,0,0-2.41,1.91q-6.6,13-13.92,30t-13.55,32.33Q517.5,308,513.28,318.8T508.7,330.28Z"/><path class="cls-2" d="M555.1,297.09c-.59,4.91-.23,8.73,1,11.53s3,3.68,5.34,2.48a27,27,0,0,0,6.89-5.44c2.37-2.46,5-5.44,7.81-8.89,2.65-3.19,5.1-6.25,7.32-9.12s4.28-5.37,6.15-7.51c.24-.25.34-.08.29.51a4.24,4.24,0,0,1-.17,1.41q-.87,2.09-4.41,8.64-3.23,5.93-12.47,17.13-6.34,7.6-12,10.36t-10.54-1.72a14.71,14.71,0,0,1-3.54-5.57A21.44,21.44,0,0,1,545,303a38.28,38.28,0,0,1,5.45-21.56c4.3-7.45,9.39-12.37,15.27-14.7s10.24-1.5,12.77,2.93,2,9.36-1.31,14.75-6.83,9.16-10.53,11.28c-3.9,2.26-7.3,2.69-10.26,1.28a2,2,0,0,0-.43-.25C555.44,296.5,555.14,296.62,555.1,297.09Zm17.38-16.32c2.19-3.91,3.06-6.65,2.67-8.17a2.42,2.42,0,0,0-3-1.93,14.61,14.61,0,0,0-5.84,2.94,23,23,0,0,0-5.59,6.46A41.85,41.85,0,0,0,556,291.84c-.12.42,0,.73.25.9,2.83,1.71,5.88.74,9.19-2.89A54.92,54.92,0,0,0,572.48,280.78Z"/><path class="cls-2" d="M608,309.69a14.69,14.69,0,0,1,.25-7.1,78,78,0,0,1,2.78-8.69c.12-.71-.09-.81-.62-.27a108.54,108.54,0,0,0-11.35,15.68c-3.81,6.23-6.17,10.08-7.07,11.58-.46.67-1.91.28-4.36-1.17a15.89,15.89,0,0,1-5.39-4.85,11,11,0,0,1-1.68-5.86,37.41,37.41,0,0,1,.51-7.38,51.1,51.1,0,0,1,1.69-7.36c.73-2.34,1.37-4.28,1.89-5.82a73.1,73.1,0,0,1,11.55-21.1q7.24-9.28,13.14-10,3.73-.38,6.09,3.67t2,14.1c1.11,0,2.91.63,5.41,1.87,2.8,1.49,3.6,2.87,2.34,4.15-2.05,2.08-4.18,5.89-6.38,11.39a79.84,79.84,0,0,0-2.61,7.74,26.27,26.27,0,0,0-1.12,7.1c0,.55.19.5.57-.13a41,41,0,0,1,3.89-4.44c2-2.16,4.28-4.4,6.72-6.77,2-2,4-3.79,6-5.49a45.36,45.36,0,0,1,4.75-3.71q2.73-1.73,1.86-.44a63.07,63.07,0,0,1-4.76,6.2,70.49,70.49,0,0,0-4.54,5.69q-2.94,4.28-7.73,10.81a65.68,65.68,0,0,0-5.62,8.31c-.91,1.92-2.44,1.51-4.56-1.25S608.36,311.28,608,309.69Zm5.32-24.37c.39-2,.65-4.28.87-6.7a34.89,34.89,0,0,0,0-6.72c-.53-4.7-2-6.82-4.45-6.39a9.21,9.21,0,0,0-4.91,3.1,34.56,34.56,0,0,0-4.34,6,59.27,59.27,0,0,0-3.61,7.14q-1.55,3.67-2.42,6.17a83.56,83.56,0,0,0-2.84,9.47,75.68,75.68,0,0,0-1.57,8.13c-.66,5.37-.3,7.27,1.06,5.69l5.13-6q2.82-3.32,5.79-6.78t5.86-6.83Q610.83,288.21,613.36,285.32Z"/><path class="cls-2" d="M680.7,306c-.13,1.14,0,1.77.4,1.85s.77-.13,1.15-.64c.65-.81,1.87-2.29,3.63-4.46s3.64-4.22,5.62-6.22a114.28,114.28,0,0,1,9.63-8.68q5-3.92,4.45-2.71a22.08,22.08,0,0,1-4.57,6.31,50,50,0,0,0-4.74,5.53q-4.27,6-7.82,10.94a92.61,92.61,0,0,0-6.25,10.17c-.5.9-1.37,1-2.61.26a11.52,11.52,0,0,1-3.53-3.52,9.14,9.14,0,0,1-1.65-4.54,32.71,32.71,0,0,1-.15-4.93,42.63,42.63,0,0,1,1.88-10.58q1.72-5.66,3.38-9.82c.5-1.2.56-1.79.19-1.77a1.71,1.71,0,0,0-.75.16,57.41,57.41,0,0,0-13.35,16.24A101.62,101.62,0,0,0,658,316.27c-.48,1.38-.67,2-.56,2v.13a4.41,4.41,0,0,1-4-.85,5.11,5.11,0,0,1-2.51-3.3q-1.12-6.35,3.29-17.32a130.71,130.71,0,0,1,7.44-16.15c.7-1.22.92-2,.62-2.14s-.49-.22-.62-.09q-8.13,6.27-15.38,18.62t-11.17,19.18a12.15,12.15,0,0,0-1,2.5c-.32,1-.67,1.53-1,1.53a9.87,9.87,0,0,1-4.34-1.37c-1.74-.92-2.42-2.47-2-4.64a87.43,87.43,0,0,1,4.65-16.79q2.91-7.32,9.12-22.67,1-2.5,5.21,1.47t3.84,4.85c-.12.21-.28.55-.49,1a13,13,0,0,1-1.8,2.42A51.47,51.47,0,0,0,640,296.1a73.41,73.41,0,0,0-4.48,12c-.09.25-.06.41,0,.47s.32-.1.56-.47q2.37-4.37,6.06-10.71c2.46-4.24,4.94-8.4,7.41-12.44s4.77-7.63,6.83-10.74a36.22,36.22,0,0,1,4.28-5.7q1.3-1.09,6.82,1.92c3.69,2,5.46,4,5.28,5.88-.06.9-1.58,3.67-4.54,8.31a89.88,89.88,0,0,0-7.61,14.84c-.2.43-.22.71-.06.83s.36,0,.62-.45a185,185,0,0,1,9.92-15.9q5.47-7.83,7.59-9.82c.73-.72,2.64-.08,5.69,2a21.68,21.68,0,0,1,6.21,5.53c.42.67-1,3.6-4.31,8.76A34.59,34.59,0,0,0,680.7,306Z"/><path class="cls-3" d="M118.64,398.73a28.83,28.83,0,0,1-7.9,1c-7.68,0-12.32-3.32-12.32-8.61,0-3.89,2.29-7.6,6.46-10a22.76,22.76,0,0,1,11.48-2.76,17.9,17.9,0,0,1,6.6,1l-1.22,2a18.09,18.09,0,0,0-6-.85,16.43,16.43,0,0,0-8.7,2.34,9.47,9.47,0,0,0-4.66,7.88c0,3.69,2.49,6.75,9.25,6.75a21.48,21.48,0,0,0,6.51-.89Z"/><path class="cls-3" d="M135.86,399.36a26.88,26.88,0,0,1,.49-3.83h-.08a10.22,10.22,0,0,1-8.48,4.18c-3.87,0-6.27-2.09-6.27-4.92,0-5.18,5.6-10.62,15.07-10.62a31.51,31.51,0,0,1,5.87.55l-2.22,7.76a23.2,23.2,0,0,0-.9,6.87Zm2.38-12.95a12.17,12.17,0,0,0-2.56-.2c-5.64,0-10.28,4-10.28,8.12,0,1.67.85,3.29,3.69,3.29,3.16,0,6.86-2.77,7.89-6.73Z"/><path class="cls-3" d="M144.12,399.36l6.08-21.77h3.75l-6.08,21.77Z"/><path class="cls-3" d="M153.58,399.36l2.94-10.53c.45-1.65.76-3.09,1-4.32h3.3l-.6,2.79h.14a10.57,10.57,0,0,1,7.66-3.13c3.34,0,4.91,1.44,5.09,3.32a10.6,10.6,0,0,1,8-3.32c2.54,0,5.32,1.1,5.32,3.89a11.39,11.39,0,0,1-.34,2.53l-2.44,8.76H180l2.34-8.55a6.42,6.42,0,0,0,.32-1.94c0-1.56-.86-2.57-3.29-2.57a7.54,7.54,0,0,0-6.85,5.46l-2.1,7.6H166.8l2.44-8.71a6.66,6.66,0,0,0,.28-1.82c0-1.25-.5-2.54-3.25-2.54a8,8,0,0,0-7,5.63l-2,7.44Z"/><path class="cls-3" d="M189.25,399.36l4.14-14.85h3.75L193,399.36Zm7-17.57c-1.31,0-2.21-.72-2.21-1.67s1.17-1.81,2.57-1.81,2.34.7,2.34,1.67-1.18,1.81-2.65,1.81Z"/><path class="cls-3" d="M198.8,399.36l2.89-10.53a41.06,41.06,0,0,0,1-4.32h3.38l-.59,2.92h.1a11.09,11.09,0,0,1,8.11-3.26c2.58,0,5.51,1,5.51,4.12a10.19,10.19,0,0,1-.4,2.38l-2.46,8.68H212.7l2.4-8.59a8.64,8.64,0,0,0,.26-1.9c0-1.46-.86-2.57-3.42-2.57a8.3,8.3,0,0,0-7.45,5.86l-2,7.2Z"/><path class="cls-3" d="M222.27,402.75a15.79,15.79,0,0,0,5.76,1c3.7,0,6.59-1.26,7.86-5.27l.73-2.24h-.08a10,10,0,0,1-7.59,3.15c-4.42,0-6.67-2.52-6.67-5.15,0-5.06,5.39-10,13.84-10a25.69,25.69,0,0,1,7,1l-3.38,12.28c-.87,3.16-2.13,5.32-4.39,6.66a16,16,0,0,1-7.61,1.6,17.87,17.87,0,0,1-6.54-1Zm16.78-16a12.59,12.59,0,0,0-3.62-.51c-5.46,0-9.26,3.9-9.26,7.58,0,1.65.87,3.56,4.2,3.56a8.22,8.22,0,0,0,7.27-5.69Z"/><path class="cls-3" d="M261.92,381l-1,3.56h5.24l-.6,2h-5.22l-2,7.25a7.59,7.59,0,0,0-.45,2.36c0,.89.64,1.43,2.08,1.43a9.63,9.63,0,0,0,1.76-.13l-.17,2a11.67,11.67,0,0,1-2.89.29c-3.3,0-4.6-1.36-4.6-2.89a10.08,10.08,0,0,1,.49-2.8l2.13-7.51h-3.13l.55-2h3.11l.78-2.72Z"/><path class="cls-3" d="M265.57,399.36l6.09-21.77h3.76l-2.72,9.53h.1a10.91,10.91,0,0,1,7.79-2.94c2.48,0,5.43,1,5.43,4a9.34,9.34,0,0,1-.36,2.48l-2.44,8.71h-3.74l2.43-8.59a7.86,7.86,0,0,0,.28-2c0-1.35-.94-2.43-3.38-2.43a8.23,8.23,0,0,0-7.44,5.63l-2,7.44Z"/><path class="cls-3" d="M304.6,398.54a21.66,21.66,0,0,1-7.22,1.18c-5.78,0-8.31-2.71-8.31-6,0-4.47,4.88-9.54,11.92-9.54,4.14,0,6.4,1.69,6.4,3.84,0,3.91-6.44,4.9-14.53,4.82a4.31,4.31,0,0,0,.45,2.81c.85,1.36,2.61,2,4.88,2a16.87,16.87,0,0,0,5.85-1ZM303.79,388c0-1.2-1.35-1.87-3.34-1.87a7.68,7.68,0,0,0-7.12,4.69c5.88.05,10.46-.48,10.46-2.8Z"/><path class="cls-3" d="M319.36,399.36l-1.49-20.68h3.75l.66,12.4c.1,2.68.05,4.08,0,5.38h.1a58.27,58.27,0,0,1,3.12-5.23l8.42-12.55h4l.62,11.92a48.48,48.48,0,0,1,0,5.82h.1c.9-1.77,1.8-3.44,3-5.31l8.22-12.43h3.93l-14.12,20.68h-4L335,387.61a28.18,28.18,0,0,1,.08-5.94h-.12a48.94,48.94,0,0,1-3.08,5.43l-8.49,12.26Z"/><path class="cls-3" d="M351.17,399.36l4.14-14.85h3.76l-4.15,14.85Zm7-17.57c-1.32,0-2.22-.72-2.22-1.67s1.19-1.81,2.58-1.81,2.33.7,2.33,1.67-1.17,1.81-2.65,1.81Z"/><path class="cls-3" d="M360.73,399.36l2.89-10.53a35.72,35.72,0,0,0,1-4.32H368l-.58,2.92h.09a11.09,11.09,0,0,1,8.11-3.26c2.57,0,5.5,1,5.5,4.12a10.16,10.16,0,0,1-.4,2.38l-2.44,8.68h-3.69l2.39-8.59a8.06,8.06,0,0,0,.27-1.9c0-1.46-.85-2.57-3.42-2.57a8.32,8.32,0,0,0-7.45,5.86l-2,7.2Z"/><path class="cls-3" d="M407.2,377.6l-4.82,17.08a30,30,0,0,0-.9,4.69H398l.59-2.94h-.1a10.55,10.55,0,0,1-7.9,3.29c-4.17,0-6.49-2.37-6.49-5.41,0-5.29,5.78-10.13,13.5-10.13a14.07,14.07,0,0,1,3.86.52l1.94-7.1Zm-6.32,9.25a8.5,8.5,0,0,0-3.55-.63c-5.25,0-9.29,3.8-9.29,7.75,0,1.79.9,3.67,4.1,3.67a8,8,0,0,0,7.3-5.58Z"/><path class="cls-3" d="M407.08,396.82a13.09,13.09,0,0,0,4.69.92c2.53,0,4.15-1.1,4.15-2.42s-.78-1.9-3.08-2.76c-2.52-.94-3.91-2.25-3.91-3.77,0-2.61,3.29-4.61,7.93-4.61a12.61,12.61,0,0,1,4.51.73l-1,1.94a10.49,10.49,0,0,0-3.76-.66c-2.29,0-3.93,1-3.93,2.23,0,1.09,1,1.75,3,2.48,2.45,1,4.07,2.24,4.07,3.93,0,3.14-3.69,4.9-8.35,4.9a13.81,13.81,0,0,1-5.42-1Z"/><path class="cls-3" d="M439.06,399.72c-5.46,0-8.53-2.77-8.53-6.12,0-4.9,5-9.42,12.1-9.42,5.91,0,8.56,3,8.56,6.17,0,4.6-4.78,9.37-12.08,9.37Zm.45-2a7.87,7.87,0,0,0,7.76-7.34c0-1.72-1.18-4.14-5.09-4.14a7.73,7.73,0,0,0-7.81,7.3c0,2.42,2,4.18,5.09,4.18Z"/><path class="cls-3" d="M453.55,399.36l3.56-12.85h-2.89l.55-2h2.92l.18-.8a8.31,8.31,0,0,1,3.56-5.16,10.33,10.33,0,0,1,5.2-1.32,8.51,8.51,0,0,1,3,.4l-.81,2a7.43,7.43,0,0,0-2.19-.27c-3,0-4.43,2-5.06,4.4l-.18.71h4.86l-.58,2h-4.82l-3.56,12.85Z"/><path class="cls-3" d="M493.52,398.73a28.55,28.55,0,0,1-7.89,1c-7.67,0-12.32-3.32-12.32-8.61,0-3.89,2.31-7.6,6.46-10a22.8,22.8,0,0,1,11.5-2.76,17.72,17.72,0,0,1,6.58,1l-1.21,2a18,18,0,0,0-6-.85,16.54,16.54,0,0,0-8.7,2.34,9.49,9.49,0,0,0-4.66,7.88c0,3.69,2.49,6.75,9.27,6.75a21.44,21.44,0,0,0,6.49-.89Z"/><path class="cls-3" d="M496.56,399.36l6.08-21.77h3.75l-2.71,9.53h.09a10.94,10.94,0,0,1,7.8-2.94c2.49,0,5.42,1,5.42,4a9.32,9.32,0,0,1-.36,2.48l-2.43,8.71h-3.75l2.44-8.59a8.44,8.44,0,0,0,.27-2c0-1.35-.94-2.43-3.38-2.43a8.26,8.26,0,0,0-7.44,5.63l-2,7.44Z"/><path class="cls-3" d="M534.35,399.36a30,30,0,0,1,.48-3.83h-.09a10.21,10.21,0,0,1-8.48,4.18c-3.87,0-6.27-2.09-6.27-4.92,0-5.18,5.61-10.62,15.07-10.62a31.42,31.42,0,0,1,5.87.55l-2.21,7.76a22.82,22.82,0,0,0-.9,6.87Zm2.39-12.95a12.24,12.24,0,0,0-2.57-.2c-5.64,0-10.29,4-10.29,8.12,0,1.67.86,3.29,3.71,3.29,3.14,0,6.85-2.77,7.88-6.73Z"/><path class="cls-3" d="M542.61,399.36l2.9-10.53a43.9,43.9,0,0,0,1-4.32h3.37l-.58,2.92h.07a11.16,11.16,0,0,1,8.13-3.26c2.56,0,5.5,1,5.5,4.12a9.7,9.7,0,0,1-.41,2.38l-2.44,8.68h-3.69l2.38-8.59a8.07,8.07,0,0,0,.28-1.9c0-1.46-.86-2.57-3.43-2.57a8.3,8.3,0,0,0-7.43,5.86l-2,7.2Z"/><path class="cls-3" d="M566.08,402.75a15.72,15.72,0,0,0,5.77,1c3.69,0,6.58-1.26,7.85-5.27l.73-2.24h-.1a10,10,0,0,1-7.58,3.15c-4.43,0-6.67-2.52-6.67-5.15,0-5.06,5.41-10,13.84-10a25.49,25.49,0,0,1,7,1l-3.37,12.28c-.87,3.16-2.13,5.32-4.39,6.66a16,16,0,0,1-7.61,1.6,18,18,0,0,1-6.55-1Zm16.77-16a12.48,12.48,0,0,0-3.59-.51c-5.47,0-9.25,3.9-9.25,7.58-.05,1.65.85,3.56,4.19,3.56a8.21,8.21,0,0,0,7.26-5.69Z"/><path class="cls-3" d="M604.42,398.54a21.72,21.72,0,0,1-7.22,1.18c-5.78,0-8.31-2.71-8.31-6,0-4.47,4.88-9.54,11.9-9.54,4.15,0,6.41,1.69,6.41,3.84,0,3.91-6.45,4.9-14.53,4.82a4.31,4.31,0,0,0,.45,2.81c.86,1.36,2.62,2,4.87,2a16.79,16.79,0,0,0,5.87-1ZM603.61,388c0-1.2-1.36-1.87-3.34-1.87a7.71,7.71,0,0,0-7.13,4.69c5.86.05,10.47-.48,10.47-2.8Z"/><path class="cls-3" d="M969.74,413.88s42.18,10,66.74-1.92c4.15-3.82-26.43-12.41-91.3-6.69-44.49,7.17-108.62,9.32-65.34-6.21,0,0,65.08-3.72,107.05,1,38.45,4.3,72.29-2.38,80.16-4.78,0,0-62.79,5-105.2,0-40.77-4.78-127.68-4-99.63,19.58,22.37,9,72.75-6.68,89.44-7.65,0,0,69.05-4.76,78.78,3.83C1029.76,414.72,999.42,416.74,969.74,413.88Z"/><path class="cls-3" d="M843.86,381.47s17.73-6.15,28,1.16c1.75,2.34-11.1,7.6-38.36,4.1-18.69-4.39-45.64-5.7-27.46,3.81,0,0,27.36,2.28,45-.59,16.15-2.64,30.37,1.46,33.68,2.91,0,0-26.4-3-44.21,0-17.14,2.94-53.66,2.45-41.87-12,9.4-5.48,30.57,4.09,37.58,4.68,0,0,29,2.91,33.1-2.34C869.08,381,856.32,379.71,843.86,381.47Z"/><path class="cls-3" d="M1093.15,379.4s17.72-6.14,28,1.16c1.75,2.34-11.1,7.6-38.36,4.1-18.7-4.38-45.63-5.7-27.46,3.79,0,0,27.35,2.29,45-.58,16.15-2.62,30.39,1.46,33.69,2.93,0,0-26.39-3-44.2,0-17.15,2.92-53.66,2.46-41.88-12,9.4-5.5,30.57,4.09,37.59,4.67,0,0,29,2.93,33.1-2.33C1118.36,378.89,1105.59,377.63,1093.15,379.4Z"/><path class="cls-4" d="M761.84,97.81s9.4,197.39,150.5,270.79C912.34,368.6,755.34,371.63,761.84,97.81Z"/><path class="cls-4" d="M759.83,149.76,693.31,33.41s-44.69,158.25,49,288.1c0,0,15.12,18.69,64.51,17.14,0,0-119.94-42.07-112.89-289.31Z"/><path class="cls-4" d="M673.81,0s36.29,24.42,82.66,101.28L727.23,76.35S691.27,16.1,673.81,0Z"/><path class="cls-2" d="M1002.62,342.8l58.21,21.31s-26.71,39.73-60.21,31.41-74.83-11.17-78.88-11.94,65.27-5.72,94.74-7.79,44.35-12,15.63-17.4-34.77-7.79-34.77-7.79Z"/><path class="cls-2" d="M774.09,342.28l100.78,32.21S811.39,369.28,774.09,342.28Z"/><path class="cls-4" d="M792.75,120S948.95,262.82,991.8,309c0,0,70,69.59-103.81,65.44,0,0,71.05-6.92,83.81-13.51s44-19.73,18.13-45S794.25,122.57,792.75,120Z"/></g></g></svg>