<?xml version="1.0" encoding="utf-8"?>
<!-- Generator: Adobe Illustrator 22.0.1, SVG Export Plug-In . SVG Version: 6.00 Build 0)  -->
<svg version="1.1" id="Layer_1" xmlns="http://www.w3.org/2000/svg" xmlns:xlink="http://www.w3.org/1999/xlink" x="0px" y="0px"
	 viewBox="0 0 24 24" style="enable-background:new 0 0 24 24;" xml:space="preserve">
<style type="text/css">
	.st0{fill:#D291FF;}
</style>
<title  id="simpleicons-adobeaftereffects-icon">Adobe After Effects icon</title>
<path class="st0" d="M0,0.3v23.4h24V0.3H0z M1,1.3h22v21.4H1V1.3z M6.8,13.6l-0.8,3c0,0.1-0.1,0.1-0.1,0.1H4.4c-0.1,0-0.1,0-0.1-0.1
	l2.8-9.9c0.1-0.2,0.1-0.3,0.1-0.8c0-0.1,0-0.1,0.1-0.1h2.1c0.1,0,0.1,0,0.1,0.1l3.2,10.8c0,0.1,0,0.1-0.1,0.1H11
	c-0.1,0-0.1,0-0.1-0.1l-0.8-3L6.8,13.6L6.8,13.6z M9.6,11.9c-0.3-1.1-1-3.5-1.2-4.7h0c-0.2,1.2-0.8,3.1-1.2,4.7H9.6z M15,13
	c0,1.4,0.7,2.3,2.2,2.3c0.6,0,1.1-0.1,1.6-0.3c0.1,0,0.1,0,0.1,0.1v1.3c0,0.1,0,0.1-0.1,0.2c-0.5,0.3-1.2,0.4-2,0.4
	c-2.6,0-3.6-1.9-3.6-4.1c0-2.4,1.2-4.3,3.4-4.3c2.2,0,2.9,1.8,2.9,3.3c0,0.5,0,0.9-0.1,1.1c0,0.1,0,0.1-0.1,0.1
	c-0.2,0-0.8,0.1-1.7,0.1L15,13L15,13z M17,11.6c0.5,0,0.7,0,0.7,0c0-0.1,0-0.1,0-0.2c0-0.5-0.3-1.5-1.3-1.5c-1,0-1.4,0.8-1.5,1.7
	L17,11.6L17,11.6z"/>
</svg>
