<?xml version="1.0" encoding="utf-8"?>
<!-- Generator: Adobe Illustrator 23.0.1, SVG Export Plug-In . SVG Version: 6.00 Build 0)  -->
<svg version="1.1" id="Layer_1" xmlns="http://www.w3.org/2000/svg" xmlns:xlink="http://www.w3.org/1999/xlink" x="0px" y="0px"
	 viewBox="0 0 24 24" style="enable-background:new 0 0 24 24;" xml:space="preserve">
<style type="text/css">
	.st0{fill:#7AB55C;}
</style>
<title>Shopify icon</title>
<path class="st0" d="M15.3,24l7.2-1.6c0,0-2.6-17.6-2.6-17.7c0-0.1-0.1-0.2-0.2-0.2s-1.9-0.1-1.9-0.1s-1.3-1.3-1.4-1.4
	c0,0-0.1-0.1-0.1-0.1L15.3,24C15.3,24,15.3,24,15.3,24z M11.7,11.3c0,0-0.8-0.4-1.8-0.4c-1.4,0-1.5,0.9-1.5,1.1
	c0,1.2,3.2,1.7,3.2,4.6c0,2.3-1.4,3.8-3.4,3.8c-2.4,0-3.5-1.5-3.5-1.5l0.6-2.1c0,0,1.2,1.1,2.3,1.1c0.7,0,1-0.5,1-0.9
	c0-1.6-2.7-1.7-2.7-4.4c0-2.2,1.6-4.4,4.8-4.4c1.3,0,1.9,0.4,1.9,0.4L11.7,11.3C11.7,11.3,11.7,11.3,11.7,11.3z M11.2,0.8
	c0.1,0,0.3,0,0.4,0.1c-1,0.5-2.1,1.6-2.5,4C8.4,5.2,7.8,5.4,7.2,5.5C7.7,3.8,9,0.8,11.2,0.8L11.2,0.8z M12.4,3.8v0.1
	c-0.8,0.2-1.6,0.5-2.4,0.7c0.5-1.8,1.3-2.6,2.1-3C12.3,2.2,12.4,2.9,12.4,3.8z M12.9,1.5c0.7,0.1,1.1,0.9,1.4,1.8
	c-0.3,0.1-0.7,0.2-1.2,0.4V3.4C13.2,2.7,13.1,2,12.9,1.5C12.9,1.5,12.9,1.5,12.9,1.5z M15.9,2.8C15.9,2.8,15.9,2.9,15.9,2.8
	c-0.1,0-0.4,0.1-0.8,0.2c-0.4-1.2-1.2-2.4-2.5-2.4h-0.1C12.1,0.2,11.7,0,11.3,0C8.2,0,6.7,3.9,6.2,5.8C5,6.2,4.1,6.5,4.1,6.5
	C3.4,6.7,3.4,6.8,3.3,7.4C3.2,7.9,1.4,21.5,1.4,21.5L15,24C15,24,15.9,2.8,15.9,2.8z"/>
</svg>
