<?xml version="1.0" encoding="utf-8"?>
<!-- Generator: Adobe Illustrator 22.0.1, SVG Export Plug-In . SVG Version: 6.00 Build 0)  -->
<svg version="1.1" id="Layer_1" xmlns="http://www.w3.org/2000/svg" xmlns:xlink="http://www.w3.org/1999/xlink" x="0px" y="0px"
	 viewBox="0 0 24 24" style="enable-background:new 0 0 24 24;" xml:space="preserve">
<style type="text/css">
	.st0{fill:#CC6699;}
</style>
<title  id="simpleicons-sass-icon">Sass icon</title>
<path class="st0" d="M12,0c6.6,0,12,5.4,12,12s-5.4,12-12,12S0,18.6,0,12S5.4,0,12,0z M9.6,16c0.2,0.6,0.2,1.2,0,1.8L9.5,18
	c0,0.1-0.1,0.1-0.1,0.2c-0.1,0.3-0.3,0.6-0.6,0.8c-0.7,0.8-1.7,1-2.1,0.8c-0.4-0.3-0.2-1.3,0.6-2.2c0.9-0.9,2.1-1.5,2.1-1.5v0
	L9.6,16z M19.5,5.1C19,3,15.4,2.3,12.1,3.5c-2,0.7-4.1,1.8-5.7,3.3c-1.8,1.7-2.1,3.2-2,3.8c0.4,2.2,3.5,3.7,4.7,4.7v0
	c-0.4,0.2-3.1,1.5-3.7,2.9c-0.7,1.5,0.1,2.5,0.6,2.7c1.6,0.4,3.2-0.4,4.1-1.6c0.8-1.3,0.8-2.9,0.4-3.7c0.5-0.1,1.1-0.2,1.8-0.1
	c2.1,0.2,2.5,1.6,2.4,2.1c-0.1,0.5-0.5,0.9-0.7,0.9c-0.1,0.1-0.2,0.1-0.2,0.2c0,0.1,0.1,0.1,0.2,0.1c0.2,0,1.1-0.5,1.1-1.5
	c0-1.3-1.2-2.7-3.4-2.7c-0.9,0-1.5,0.1-1.9,0.3c0,0-0.1-0.1-0.1-0.1c-1.4-1.5-3.9-2.5-3.8-4.4c0-0.7,0.3-2.6,4.8-4.8
	c3.7-1.8,6.7-1.3,7.2-0.2c0.7,1.6-1.6,4.6-5.4,5c-1.5,0.2-2.2-0.4-2.4-0.6C10,9.5,10,9.5,9.9,9.6c-0.1,0.1,0,0.3,0,0.4
	c0.1,0.3,0.6,0.8,1.4,1.1c0.7,0.2,2.4,0.4,4.5-0.4C18.2,9.7,20,7.2,19.5,5.1C19.5,5.1,19.5,5.1,19.5,5.1z"/>
</svg>
