<?xml version="1.0" encoding="utf-8"?>
<!-- Generator: Adobe Illustrator 22.0.1, SVG Export Plug-In . SVG Version: 6.00 Build 0)  -->
<svg version="1.1" id="Layer_1" xmlns="http://www.w3.org/2000/svg" xmlns:xlink="http://www.w3.org/1999/xlink" x="0px" y="0px"
	 viewBox="0 0 24 24" style="enable-background:new 0 0 24 24;" xml:space="preserve">
<style type="text/css">
	.st0{fill:#CC0000;}
</style>
<title  id="simpleicons-rails-icon">Rails icon</title>
<path class="st0" d="M20.9,15.8V17h2c0.4,0,1.1-0.3,1.1-1.2v-0.4c0-0.8-0.6-1.2-1.1-1.2h-1v-0.5h2v-1.2H22c-0.5,0-1.1,0.4-1.1,1.2
	V14c0,0.8,0.6,1.2,1.1,1.2c1.4,0-0.3,0,0.9,0v0.6C22.9,15.8,20.9,15.8,20.9,15.8z M10.3,15.5c0,0,1.1-0.1,1.1-1.5S10,12.4,10,12.4
	H7.7V17h1.2v-1.1l1,1.1h1.7C11.6,17,10.3,15.5,10.3,15.5z M9.8,14.6H8.9v-1h0.9c0,0,0.3,0.1,0.3,0.5C10.1,14.5,9.8,14.6,9.8,14.6z
	 M14.2,12.4H13c-0.8,0-1.1,0.8-1.1,1.2V17h1.2v-0.8h1.1V17h1.1v-3.4C15.3,12.6,14.5,12.4,14.2,12.4z M14.2,14.9h-1.1v-1.1
	c0,0,0-0.3,0.4-0.3h0.4c0.3,0,0.3,0.3,0.3,0.3L14.2,14.9C14.2,14.9,14.2,14.9,14.2,14.9z M15.9,12.4h1.2V17h-1.2V12.4z M18.8,15.8
	v-3.4h-1.2V17h2.9v-1.2C20.5,15.8,18.8,15.8,18.8,15.8z"/>
<path class="st0" d="M0.4,17h4.8c0,0-0.9-4.4,2.1-6.2c0.7-0.3,2.8-1.6,6.2,1.1c0.1-0.1,0.2-0.2,0.2-0.2s-3.2-3.3-6.7-3
	c-1.8,0.2-3.9,1.9-5.2,4.1S0.4,17,0.4,17z"/>
<path class="st0" d="M0.4,17h4.8c0,0-0.9-4.4,2.1-6.2c0.7-0.3,2.8-1.6,6.2,1.1c0.1-0.1,0.2-0.2,0.2-0.2s-3.2-3.3-6.7-3
	c-1.8,0.2-3.9,1.9-5.2,4.1S0.4,17,0.4,17z"/>
<path class="st0" d="M0.4,17h4.8c0,0-0.9-4.4,2.1-6.2c0.7-0.3,2.8-1.6,6.2,1.1c0.1-0.1,0.2-0.2,0.2-0.2s-3.2-3.3-6.7-3
	c-1.8,0.2-3.9,1.9-5.2,4.1S0.4,17,0.4,17z M10.4,9.1l0-0.4c-0.1,0-0.2-0.1-0.6-0.2l0,0.4C10,8.9,10.2,9,10.4,9.1z"/>
<path class="st0" d="M9.8,10.4l0,0.4c0.2,0,0.4,0,0.6,0.1l0-0.4C10.2,10.5,10,10.4,9.8,10.4z M7.6,8.4L7.6,8.4L7.5,8
	c-0.2,0-0.4,0-0.6,0l0.1,0.4C7.2,8.4,7.4,8.4,7.6,8.4z M7.9,10.8L8,11.2c0.2-0.1,0.4-0.2,0.5-0.2l-0.1-0.4C8.2,10.6,8,10.7,7.9,10.8
	z M5.1,9.1L4.8,8.6C4.7,8.7,4.5,8.8,4.4,8.9l0.3,0.4C4.8,9.3,5,9.2,5.1,9.1z M6.4,12l0.3,0.5C6.8,12.3,6.9,12.1,7,12l-0.3-0.4
	C6.6,11.7,6.5,11.8,6.4,12z M5.5,14.1L6,14.5C6,14.2,6,14,6.1,13.7l-0.4-0.4C5.6,13.6,5.5,13.8,5.5,14.1z M2.8,11l-0.4-0.4
	c-0.2,0.2-0.3,0.3-0.4,0.5l0.5,0.4C2.5,11.3,2.7,11.2,2.8,11z M1,13.9l-0.7-0.3c-0.1,0.3-0.2,0.6-0.3,0.8l0.7,0.3
	C0.8,14.4,0.9,14.1,1,13.9z M5.4,15.7c0,0.3,0,0.6,0.1,0.8l0.7,0.3c-0.1-0.3-0.1-0.5-0.1-0.8C6,15.9,5.4,15.7,5.4,15.7z"/>
</svg>
