<?xml version="1.0" encoding="utf-8"?>
<!-- Generator: Adobe Illustrator 22.0.1, SVG Export Plug-In . SVG Version: 6.00 Build 0)  -->
<svg version="1.1" id="Layer_1" xmlns="http://www.w3.org/2000/svg" xmlns:xlink="http://www.w3.org/1999/xlink" x="0px" y="0px"
	 viewBox="0 0 24 24" style="enable-background:new 0 0 24 24;" xml:space="preserve">
<style type="text/css">
	.st0{fill:#563D7C;}
</style>
<title  id="simpleicons-bootstrap-icon">Bootstrap icon</title>
<path class="st0" d="M20,0H4C1.8,0,0,1.8,0,4v16c0,2.2,1.8,4,4,4h16c2.2,0,4-1.8,4-4V4C24,1.8,22.2,0,20,0z M17.8,16.9
	c-0.2,0.5-0.5,0.9-0.9,1.2c-0.4,0.3-1,0.6-1.6,0.8c-0.7,0.2-1.4,0.3-2.3,0.3H6.5v-14h6.8c1.3,0,2.3,0.3,3,0.9
	c0.8,0.6,1.1,1.4,1.1,2.6c0,0.7-0.2,1.3-0.5,1.8c-0.3,0.5-0.8,0.9-1.5,1.2v0c0.9,0.2,1.5,0.6,2,1.2s0.7,1.4,0.7,2.4
	C18.1,15.8,18,16.3,17.8,16.9L17.8,16.9L17.8,16.9z M15,13.4c-0.4-0.4-1-0.6-1.7-0.6H9v4.4h4.3c0.7,0,1.3-0.2,1.7-0.6
	c0.4-0.4,0.6-0.9,0.6-1.6C15.7,14.3,15.5,13.8,15,13.4L15,13.4L15,13.4z M14.4,10.6c0.4-0.3,0.6-0.8,0.6-1.4c0-0.7-0.2-1.2-0.5-1.5
	c-0.4-0.3-0.9-0.4-1.5-0.4H9v3.9h4C13.6,11.1,14,10.9,14.4,10.6L14.4,10.6z"/>
</svg>
