<?xml version="1.0" encoding="utf-8"?>
<!-- Generator: Adobe Illustrator 22.0.1, SVG Export Plug-In . SVG Version: 6.00 Build 0)  -->
<svg version="1.1" id="Layer_1" xmlns="http://www.w3.org/2000/svg" xmlns:xlink="http://www.w3.org/1999/xlink" x="0px" y="0px"
	 viewBox="0 0 24 24" style="enable-background:new 0 0 24 24;" xml:space="preserve">
<style type="text/css">
	.st0{fill:#FF9400;}
</style>
<title  id="simpleicons-sublimetext-icon">Sublime Text icon</title>
<path class="st0" d="M12,20.9h9.5c0.6,0,1.1-0.3,1.1-0.8v-1.9c-0.2,0.3-0.6,0.4-1.1,0.4h-19c-0.4,0-0.8-0.2-1.1-0.4v1.9
	c0,0.4,0.5,0.8,1.1,0.8L12,20.9C12,20.9,12,20.9,12,20.9z"/>
<path class="st0" d="M12,22.4h10.4c0.9,0,1.6-0.5,1.6-1.1c0,0,0-0.1,0-0.1l-1.6-17c-0.1-0.4-0.4-0.7-0.7-0.8l1.2,14.4v2.5
	c0,0.6-0.6,1-1.4,1h-19c-0.8,0-1.4-0.5-1.4-1v-2.5L2.3,3.2C2,3.3,1.7,3.7,1.6,4.1L0,21.1c0,0.1,0,0.1,0,0.1c0,0.6,0.7,1.2,1.6,1.2
	H12z"/>
<path class="st0" d="M21.4,3l0-0.3c0,0,0,0,0-0.1l0-0.1c-0.1-0.5-0.5-0.9-1.1-0.9H3.7c-0.6,0-1,0.4-1.1,0.9l0,0.1l0,0.1l0,0.3
	L1.4,17.6c0,0.4,0.5,0.8,1.1,0.8h19c0.6,0,1.1-0.3,1.1-0.8C22.6,17.6,21.4,3,21.4,3z M15.7,12.3c-0.3,0.7-0.9,1.2-1.5,1.5
	c-0.7,0.3-1.5,0.5-2.3,0.5c-0.8,0-1.7-0.1-2.5-0.3c-0.4-0.1-0.8-0.2-1.2-0.4c-0.4-0.2-0.6-0.5-0.6-0.9c0-0.4,0.3-0.7,0.7-0.9
	c0.4-0.2,0.8-0.1,1.1,0c0.8,0.3,1.7,0.4,2.6,0.4c0.5,0,1.4-0.3,1.2-1.1c0-0.2-0.2-0.4-0.3-0.6c-0.1-0.1-0.4-0.3-0.6-0.3
	c-0.4-0.1-0.8-0.2-1.3-0.3c-0.8-0.2-1.3-0.3-2-0.8C8.2,8.8,8,8.5,7.9,8C7.8,7.2,8.2,6.6,8.8,6.1c1.4-1.1,2.7-1,4.4-0.7
	c0.4,0.1,0.9,0.1,1.2,0.4c0.4,0.2,0.5,0.6,0.4,1c-0.1,0.4-0.5,0.4-0.9,0.4c-0.4,0-0.6-0.2-1-0.2c-0.8-0.2-1.1-0.3-1.9-0.1
	c-0.3,0.1-0.7,0.4-0.6,0.8c0.1,0.3,0.6,0.4,0.9,0.5c0.8,0.2,1.4,0.5,2.3,0.7c0.8,0.2,1.3,0.6,1.8,1.3C15.9,10.8,16,11.6,15.7,12.3
	L15.7,12.3C15.7,12.3,15.7,12.3,15.7,12.3z"/>
</svg>
