<?xml version="1.0" encoding="utf-8"?>
<!-- Generator: Adobe Illustrator 22.0.1, SVG Export Plug-In . SVG Version: 6.00 Build 0)  -->
<svg version="1.1" id="Layer_1" xmlns="http://www.w3.org/2000/svg" xmlns:xlink="http://www.w3.org/1999/xlink" x="0px" y="0px"
	 viewBox="0 0 24 24" style="enable-background:new 0 0 24 24;" xml:space="preserve">
<style type="text/css">
	.st0{fill:#777BB4;}
</style>
<title  id="simpleicons-php-icon">PHP icon</title>
<path class="st0" d="M7,10.2H6.1l-0.5,2.6h0.8c0.6,0,1-0.1,1.2-0.3c0.3-0.2,0.5-0.6,0.5-1c0.1-0.5,0.1-0.8-0.1-1
	C7.9,10.3,7.5,10.2,7,10.2z"/>
<path class="st0" d="M12,5.7C5.4,5.7,0,8.5,0,12s5.4,6.3,12,6.3s12-2.8,12-6.3S18.6,5.7,12,5.7z M8.7,13.1c-0.3,0.2-0.6,0.4-0.9,0.6
	c-0.3,0.1-0.8,0.2-1.3,0.2H5.4L5,15.5H3.7l1.2-6.3h2.7c0.8,0,1.4,0.2,1.7,0.6c0.4,0.4,0.5,1,0.3,1.8c-0.1,0.3-0.2,0.6-0.3,0.8
	C9.2,12.7,9,12.9,8.7,13.1z M12.8,13.9l0.5-2.8c0.1-0.3,0-0.5-0.1-0.7c-0.1-0.1-0.3-0.2-0.7-0.2h-1.1l-0.7,3.6H9.4l1.2-6.3H12
	l-0.3,1.7h1.2c0.8,0,1.3,0.1,1.6,0.4s0.4,0.7,0.3,1.3l-0.6,2.9H12.8z M20.4,11.6c-0.1,0.3-0.2,0.6-0.3,0.8c-0.1,0.3-0.3,0.5-0.6,0.7
	c-0.3,0.2-0.6,0.4-0.9,0.6c-0.3,0.1-0.8,0.2-1.3,0.2h-1.2l-0.3,1.7h-1.4l1.2-6.3h2.6c0.8,0,1.4,0.2,1.7,0.6
	C20.4,10.3,20.5,10.8,20.4,11.6z"/>
<path class="st0" d="M17.8,10.2h-0.9l-0.5,2.6h0.8c0.6,0,1-0.1,1.2-0.3c0.3-0.2,0.5-0.6,0.6-1c0.1-0.5,0-0.8-0.1-1
	S18.3,10.2,17.8,10.2z"/>
</svg>
