<?xml version="1.0" encoding="utf-8"?>
<!-- Generator: Adobe Illustrator 22.1.0, SVG Export Plug-In . SVG Version: 6.00 Build 0)  -->
<svg version="1.1" id="Layer_1" xmlns="http://www.w3.org/2000/svg" xmlns:xlink="http://www.w3.org/1999/xlink" x="0px" y="0px"
	 viewBox="0 0 24 24" style="enable-background:new 0 0 24 24;" xml:space="preserve">
<style type="text/css">
	.st0{fill:#EEEEEE;}
</style>
<title  id="simpleicons-heroku-icon">Heroku icon</title>
<path class="st0" d="M20.6,0H3.4C2.2,0,1.2,1,1.2,2.2v19.7c0,1.2,1,2.2,2.2,2.2h17.2c1.2,0,2.2-1,2.2-2.2V2.2C22.8,1,21.8,0,20.6,0z
	 M21.6,21.8c0,0.5-0.4,1-1,1H3.4c-0.5,0-1-0.4-1-1V2.2c0-0.5,0.4-1,1-1h17.2c0.5,0,1,0.4,1,1C21.6,2.2,21.6,21.8,21.6,21.8z
	 M6.6,20.4L9.3,18l-2.7-2.4V20.4z M16.4,10.7c-0.5-0.5-1.4-1.1-2.9-1.1c-1.6,0-3.3,0.4-4.5,0.8V3.6H6.6V14l1.7-0.8
	c0,0,2.8-1.3,5.2-1.3c1.2,0,1.5,0.7,1.5,1.3v7.2h2.4v-7.2C17.4,13,17.4,11.7,16.4,10.7z M13.2,7.5h2.4c1.1-1.3,1.6-2.5,1.8-3.9H15
	C14.7,5,14.1,6.2,13.2,7.5z"/>
</svg>
