<?xml version="1.0" encoding="utf-8"?>
<!-- Generator: Adobe Illustrator 22.0.1, SVG Export Plug-In . SVG Version: 6.00 Build 0)  -->
<svg version="1.1" id="Layer_1" xmlns="http://www.w3.org/2000/svg" xmlns:xlink="http://www.w3.org/1999/xlink" x="0px" y="0px"
	 viewBox="0 0 512 512" style="enable-background:new 0 0 512 512;" xml:space="preserve">
<style type="text/css">
	.st0{fill:#DC3545;}
</style>
<g>
	<g>
		<path class="st0" d="M79.1,398.1c-19.2,0-34.8,15.6-34.8,34.8c0,19.2,15.6,34.8,34.8,34.8s34.8-15.6,34.8-34.8
			S98.3,398.1,79.1,398.1z M79.1,451.2c-10.1,0-18.2-8.2-18.2-18.2s8.2-18.2,18.2-18.2s18.2,8.2,18.2,18.2S89.1,451.2,79.1,451.2z"
			/>
	</g>
</g>
<g>
	<g>
		<path class="st0" d="M114.5,274.2H43.7c-4.6,0-8.3,3.7-8.3,8.3v70.8c0,4.6,3.7,8.3,8.3,8.3h70.8c4.6,0,8.3-3.7,8.3-8.3v-70.8
			C122.7,278,119,274.2,114.5,274.2z M106.2,345H52v-54.2h54.2V345z"/>
	</g>
</g>
<g>
	<g>
		<path class="st0" d="M114.5,159.2H43.7c-4.6,0-8.3,3.7-8.3,8.3v70.8c0,4.6,3.7,8.3,8.3,8.3h70.8c4.6,0,8.3-3.7,8.3-8.3v-70.8
			C122.7,163,119,159.2,114.5,159.2z M106.2,230H52v-54.2h54.2V230z"/>
	</g>
</g>
<g>
	<g>
		<path class="st0" d="M114.5,53.1H43.7c-4.6,0-8.3,3.7-8.3,8.3v70.8c0,4.6,3.7,8.3,8.3,8.3h70.8c4.6,0,8.3-3.7,8.3-8.3V61.4
			C122.7,56.8,119,53.1,114.5,53.1z M106.2,123.9H52V69.7h54.2V123.9z"/>
	</g>
</g>
<g>
	<g>
		<path class="st0" d="M486,353.9H270l152.8-152.8c4.9-4.9,7.6-11.4,7.6-18.4c0-6.9-2.7-13.5-7.6-18.4l-75.1-75.1
			c-4.9-4.9-11.4-7.6-18.4-7.6c-6.9,0-13.5,2.7-18.4,7.6L158.1,242V26c0-14.3-11.7-26-26-26H26C11.7,0,0,11.7,0,26v406.9
			C0,476.5,35.5,512,79.1,512H486c14.3,0,26-11.7,26-26V379.9C512,365.5,500.3,353.9,486,353.9z M158.1,265.5L322.6,101
			c1.8-1.8,4.1-2.8,6.6-2.8s4.9,1,6.6,2.8l75.1,75.1c1.8,1.8,2.8,4.1,2.8,6.6s-1,4.9-2.8,6.6L246.5,353.9h-28.1
			c0.2-0.7,0.3-1.5,0.3-2.3c0-2.2-0.9-4.3-2.4-5.9l-50-50c-1.6-1.6-3.7-2.4-5.9-2.4c-0.8,0-1.5,0.1-2.3,0.3L158.1,265.5L158.1,265.5
			z M198.7,351.6l-2.3,2.3h-38.3v-38.3l2.3-2.3L198.7,351.6z M79.1,495.4c-34.5,0-62.5-28-62.5-62.5V26c0-5.2,4.2-9.4,9.4-9.4h106.2
			c5.2,0,9.4,4.2,9.4,9.4v406.9C141.5,467.4,113.5,495.4,79.1,495.4z M495.4,486c0,5.2-4.2,9.4-9.4,9.4H127.4
			c9.7-7.5,17.6-17.2,23-28.4v1.3c0,4.6,3.7,8.3,8.3,8.3h70.8c4.6,0,8.3-3.7,8.3-8.3v-70.8c0-4.6-3.7-8.3-8.3-8.3h-70.8
			c-0.2,0-0.4,0-0.6,0v-18.8H486c5.2,0,9.4,4.2,9.4,9.4V486z M167,460v-54.2h54.2V460H167z"/>
	</g>
</g>
<g>
	<g>
		<path class="st0" d="M344.5,389.3h-70.8c-4.6,0-8.3,3.7-8.3,8.3v70.8c0,4.6,3.7,8.3,8.3,8.3h70.8c4.6,0,8.3-3.7,8.3-8.3v-70.8
			C352.8,393,349,389.3,344.5,389.3z M336.2,460H282v-54.2h54.2V460z"/>
	</g>
</g>
<g>
	<g>
		<path class="st0" d="M450.6,389.3h-70.8c-4.6,0-8.3,3.7-8.3,8.3v70.8c0,4.6,3.7,8.3,8.3,8.3h70.8c4.6,0,8.3-3.7,8.3-8.3v-70.8
			C458.9,393,455.2,389.3,450.6,389.3z M442.3,460h-54.2v-54.2h54.2V460z"/>
	</g>
</g>
<g>
	<g>
		<path class="st0" d="M297.6,264.4l-50-50c-3.2-3.2-8.5-3.2-11.7,0l-50,50c-3.2,3.2-3.2,8.5,0,11.7l50,50c1.6,1.6,3.7,2.4,5.9,2.4
			c2.1,0,4.2-0.8,5.9-2.4l50-50C300.9,272.9,300.9,267.7,297.6,264.4z M241.7,308.6l-38.3-38.3l38.3-38.3l38.3,38.3L241.7,308.6z"/>
	</g>
</g>
<g>
	<g>
		<path class="st0" d="M372.7,189.4l-50-50c-3.2-3.2-8.5-3.2-11.7,0l-50,50c-1.6,1.6-2.4,3.7-2.4,5.9s0.9,4.3,2.4,5.9l50,50
			c1.6,1.6,3.7,2.4,5.9,2.4c2.2,0,4.3-0.9,5.9-2.4l50-50C375.9,197.8,375.9,192.6,372.7,189.4z M316.8,233.5l-38.3-38.3l38.3-38.3
			l38.3,38.3L316.8,233.5z"/>
	</g>
</g>
</svg>
