<?xml version="1.0" encoding="utf-8"?>
<!-- Generator: Adobe Illustrator 22.0.1, SVG Export Plug-In . SVG Version: 6.00 Build 0)  -->
<svg version="1.1" id="Layer_1" xmlns="http://www.w3.org/2000/svg" xmlns:xlink="http://www.w3.org/1999/xlink" x="0px" y="0px"
	 viewBox="0 0 512 512" style="enable-background:new 0 0 512 512;" xml:space="preserve">
<style type="text/css">
	.st0{fill:#01A3B2;}
</style>
<g>
	<g>
		<path class="st0" d="M503.7,230h-10.8c-5.9-53.7-29.9-104.1-68.4-142.5c-23.3-23.3-51-41.3-81.1-53.2h118
			C464.9,44.6,474.6,52,486,52c14.3,0,26-11.7,26-26S500.3,0,486,0c-11.4,0-21.2,7.4-24.6,17.7H282V8.3c0-4.6-3.7-8.3-8.3-8.3h-35.4
			c-4.6,0-8.3,3.7-8.3,8.3v9.4H50.6C47.1,7.4,37.4,0,26,0C11.7,0,0,11.7,0,26s11.7,26,26,26c11.4,0,21.2-7.4,24.6-17.7h118
			c-30.2,11.9-57.8,29.9-81.1,53.2C49.1,125.9,25,176.3,19.1,230H8.3c-4.6,0-8.3,3.7-8.3,8.3v35.4c0,4.6,3.7,8.3,8.3,8.3h35.4
			c4.6,0,8.3-3.7,8.3-8.3v-35.4c0-4.6-3.7-8.3-8.3-8.3h-7.9c5.8-49.3,28.1-95.5,63.4-130.8c35.3-35.3,81.5-57.6,130.8-63.4v7.9
			c0,3.2,1.9,6,4.6,7.4L124.6,287.9c-1.3,2.8-0.9,6.1,0.9,8.5c0.6,0.7,54.7,72.7,59.9,147.4c-10.1,3.6-17.4,13.2-17.4,24.5V486
			c0,14.3,11.7,26,26,26h123.9c14.3,0,26-11.7,26-26v-17.7c0-11.3-7.3-20.9-17.4-24.5c5.2-74.6,59.3-146.7,59.9-147.4
			c1.9-2.4,2.2-5.7,0.9-8.5l-110-236.8c2.7-1.4,4.6-4.2,4.6-7.4v-7.9c49.3,5.8,95.5,28.1,130.8,63.4c35.3,35.3,57.6,81.5,63.4,130.8
			h-7.9c-4.6,0-8.3,3.7-8.3,8.3v35.4c0,4.6,3.7,8.3,8.3,8.3h35.4c4.6,0,8.3-3.7,8.3-8.3v-35.4C512,233.7,508.3,230,503.7,230z
			 M486,16.6c5.2,0,9.4,4.2,9.4,9.4s-4.2,9.4-9.4,9.4s-9.4-4.2-9.4-9.4S480.8,16.6,486,16.6z M26,35.4c-5.2,0-9.4-4.2-9.4-9.4
			s4.2-9.4,9.4-9.4s9.4,4.2,9.4,9.4S31.2,35.4,26,35.4z M35.4,265.4H16.6v-18.8h10c0,0,0,0,0.1,0c0,0,0,0,0,0h8.7L35.4,265.4
			L35.4,265.4z M246.6,16.6h18.8v18.8h-18.8V16.6z M327.3,468.3V486c0,5.2-4.2,9.4-9.4,9.4H194.1c-5.2,0-9.4-4.2-9.4-9.4v-17.7
			c0-5.2,4.2-9.4,9.4-9.4h123.9C323.1,458.9,327.3,463.1,327.3,468.3z M370.3,290.4c-12,16.8-55.3,82-60.2,151.9H202
			c-5-69.9-48.2-135.1-60.2-151.9l106-228.3v195.4c-15.2,3.7-26.5,17.5-26.5,33.8c0,19.2,15.6,34.8,34.8,34.8s34.8-15.6,34.8-34.8
			c0-16.4-11.3-30.1-26.5-33.8V62.2L370.3,290.4z M256,273.1c10.1,0,18.2,8.2,18.2,18.2s-8.2,18.2-18.2,18.2s-18.2-8.2-18.2-18.2
			S245.9,273.1,256,273.1z M495.4,265.4h-18.8v-18.8h8.7c0,0,0,0,0,0c0,0,0,0,0.1,0h10L495.4,265.4L495.4,265.4z"/>
	</g>
</g>
</svg>
