<?xml version="1.0" encoding="utf-8"?>
<!-- Generator: Adobe Illustrator 22.0.1, SVG Export Plug-In . SVG Version: 6.00 Build 0)  -->
<svg version="1.1" id="Layer_1" xmlns="http://www.w3.org/2000/svg" xmlns:xlink="http://www.w3.org/1999/xlink" x="0px" y="0px"
	 viewBox="0 0 512 512" style="enable-background:new 0 0 512 512;" xml:space="preserve">
<style type="text/css">
	.st0{fill:#53C2CA;}
</style>
<g>
	<g>
		<path class="st0" d="M219.6,321.9c-3.8-3.5-7-7.5-9.6-11.9c-2.4-3.9-7.4-5.2-11.4-2.9c-3.9,2.4-5.2,7.4-2.9,11.4
			c3.4,5.7,7.7,11,12.6,15.5c1.6,1.5,3.6,2.2,5.6,2.2c2.2,0,4.5-0.9,6.1-2.7C223.1,330.2,222.9,325,219.6,321.9z"/>
	</g>
</g>
<g>
	<g>
		<path class="st0" d="M199.7,252.9c-4.4-1.3-9,1.3-10.2,5.7c-1.9,6.7-3.1,13.1-3.5,19.1c-0.3,4.6,3.1,8.5,7.7,8.8
			c0.2,0,0.4,0,0.6,0c4.3,0,8-3.4,8.3-7.7c0.3-4.8,1.3-10.1,2.9-15.7C206.6,258.8,204.1,254.2,199.7,252.9z"/>
	</g>
</g>
<g>
	<g>
		<path class="st0" d="M226.2,204.4c-3.8-2.5-9-1.5-11.5,2.4c-3.5,5.3-6.7,10.5-9.6,15.6c-2.3,4-0.9,9,3.1,11.3
			c1.3,0.7,2.7,1.1,4.1,1.1c2.9,0,5.7-1.5,7.2-4.2c2.7-4.7,5.7-9.7,9-14.6C231.1,212.1,230.1,207,226.2,204.4z"/>
	</g>
</g>
<g>
	<g>
		<path class="st0" d="M326,277.4c-0.4-6-1.6-12.4-3.5-19.1c-1.3-4.4-5.9-6.9-10.3-5.7c-4.4,1.3-6.9,5.9-5.7,10.3
			c1.6,5.6,2.6,10.8,2.9,15.7c0.3,4.4,4,7.7,8.3,7.7c0.2,0,0.4,0,0.6,0C322.9,285.9,326.4,281.9,326,277.4z"/>
	</g>
</g>
<g>
	<g>
		<path class="st0" d="M273.2,342.6c-0.7-4.5-4.9-7.7-9.4-7c-5,0.7-10.3,0.7-15.3,0c-4.5-0.6-8.7,2.5-9.4,7.1
			c-0.6,4.5,2.5,8.7,7.1,9.4c3.2,0.5,6.5,0.7,9.8,0.7c3.4,0,6.8-0.2,10.2-0.7C270.7,351.4,273.8,347.2,273.2,342.6z"/>
	</g>
</g>
<g>
	<g>
		<path class="st0" d="M306.6,222.1c-2.9-5.1-6.1-10.3-9.6-15.6c-2.5-3.8-7.7-4.9-11.5-2.4s-4.9,7.7-2.4,11.5c3.3,5,6.3,9.9,9,14.6
			c1.5,2.7,4.3,4.2,7.2,4.2c1.4,0,2.8-0.3,4.1-1.1C307.5,231.2,308.9,226.1,306.6,222.1z"/>
	</g>
</g>
<g>
	<g>
		<path class="st0" d="M313.6,306.9c-3.9-2.3-9-1-11.4,2.9c-2.6,4.4-5.8,8.4-9.6,11.9c-3.3,3.1-3.5,8.4-0.4,11.7
			c1.6,1.7,3.8,2.6,6.1,2.6c2,0,4.1-0.7,5.7-2.2c4.9-4.6,9.1-9.8,12.5-15.6C318.8,314.3,317.5,309.2,313.6,306.9z"/>
	</g>
</g>
<g>
	<g>
		<path class="st0" d="M274.1,175.6c-7-8.5-11.9-13.6-12.1-13.8c-3.2-3.3-8.4-3.5-11.7-0.3c-0.1,0.1-0.3,0.3-0.4,0.4
			c0,0.1-0.1,0.1-0.1,0.1c-1.2,1.3-5.8,6.3-12,13.8c-2.9,3.5-2.4,8.8,1.1,11.7c1.5,1.3,3.4,1.9,5.3,1.9c2.4,0,4.8-1,6.4-3
			c2-2.5,3.9-4.6,5.5-6.5c1.5,1.8,3.3,3.9,5.3,6.3c2.9,3.5,8.1,4,11.7,1.1C276.5,184.4,277,179.2,274.1,175.6z"/>
	</g>
</g>
<g>
	<g>
		<path class="st0" d="M503.7,406.9h-80.2v-80.2V185.2v-80.2h80.2c4.6,0,8.3-3.7,8.3-8.3c0-4.6-3.7-8.3-8.3-8.3h-80.2V8.3
			c0-4.6-3.7-8.3-8.3-8.3c-4.6,0-8.3,3.7-8.3,8.3v80.2h-80.2H185.2h-80.2V8.3c0-4.6-3.7-8.3-8.3-8.3s-8.3,3.7-8.3,8.3v80.2H8.3
			c-4.6,0-8.3,3.7-8.3,8.3s3.7,8.3,8.3,8.3h80.2v80.2v141.5v80.2H8.3c-4.6,0-8.3,3.7-8.3,8.3c0,4.6,3.7,8.3,8.3,8.3h80.2v80.2
			c0,4.6,3.7,8.3,8.3,8.3s8.3-3.7,8.3-8.3v-80.2h80.2h141.5h80.2v80.2c0,4.6,3.7,8.3,8.3,8.3c4.6,0,8.3-3.7,8.3-8.3v-80.2h80.2
			c4.6,0,8.3-3.7,8.3-8.3C512,410.7,508.3,406.9,503.7,406.9z M105.1,105.1h26.1c-10.3,6.9-19.1,15.8-26.1,26.1
			C105.1,131.1,105.1,105.1,105.1,105.1z M105.1,406.9v-26.1c6.9,10.3,15.8,19.1,26.1,26.1H105.1z M406.9,406.9h-26.1
			c10.3-6.9,19.1-15.8,26.1-26.1V406.9z M406.9,326.8c0,44.2-36,80.2-80.2,80.2H185.2c-44.2,0-80.2-36-80.2-80.2V185.2
			c0-44.2,36-80.2,80.2-80.2h141.5c44.2,0,80.2,36,80.2,80.2V326.8z M406.9,131.1c-6.9-10.3-15.8-19.1-26.1-26.1h26.1V131.1z"/>
	</g>
</g>
</svg>
