<?xml version="1.0" encoding="utf-8"?>
<!-- Generator: Adobe Illustrator 19.2.0, SVG Export Plug-In . SVG Version: 6.00 Build 0)  -->
<svg version="1.1" id="Layer_1" xmlns="http://www.w3.org/2000/svg" xmlns:xlink="http://www.w3.org/1999/xlink" x="0px" y="0px"
	 viewBox="0 0 289.6 289.7" style="enable-background:new 0 0 289.6 289.7;" xml:space="preserve">
<style type="text/css">
	.st0{fill:none;stroke:#61B9CF;stroke-width:7;stroke-miterlimit:10;}
</style>
<g id="wordpress">
	<path class="st0" d="M144.8,5C67.7,5,5,67.7,5,144.9s62.7,139.8,139.8,139.8c6.2,0,12.2-0.3,18.1-1.3c62.4-8,112-57.3,120.3-119.5
		c0.9-6.2,1.4-12.5,1.4-19C284.6,67.7,221.9,5,144.8,5z M19.1,144.9c0-18.2,4-35.5,11-51.1L89.9,258
		C48.1,237.6,19.1,194.5,19.1,144.9z M161,269.5c-5.3,0.7-10.8,1-16.3,1c-12.4,0-24.2-1.8-35.4-5.1l13.7-40h0.1l23.8-69.6
		l38.6,105.9c0.3,0.6,0.6,1.2,0.9,1.7C178.4,266.2,169.9,268.3,161,269.5z M162.1,85.9c7.5-0.4,14.4-1.2,14.4-1.2
		c6.8-0.7,6-10.8-0.8-10.3c0,0-20.4,1.6-33.5,1.6c-12.4,0-33.1-1.6-33.1-1.6c-6.7-0.4-7.5,10-0.7,10.3c0,0,6.4,0.8,13.1,1.2
		l19.6,53.6L113.6,222L67.8,85.9c7.6-0.4,14.4-1.2,14.4-1.2c6.7-0.7,6-10.8-0.8-10.3c0,0-20.4,1.6-33.5,1.6c-2.4,0-5.1-0.1-8.1-0.2
		c22.5-34,61.1-56.5,105-56.5c32.8,0,62.6,12.5,84.9,32.9c-0.6,0-1.1-0.1-1.6-0.1C215.7,52,207,62.8,207,74.3
		c0,10.3,6,19.1,12.4,29.4c4.8,8.4,10.4,19.1,10.4,34.7c0,10.8-3.2,24.3-9.6,40.6l-12.6,42L162.1,85.9z M269.5,162
		c-5.4,39.1-28.8,72.5-61.5,91.5l10-28.9l28.4-82.2c7.2-18,9.6-32.3,9.6-45c0-4.6-0.3-8.9-0.8-13c9.8,18,15.4,38.5,15.4,60.3
		C270.5,150.7,270.2,156.4,269.5,162z"/>
</g>
</svg>
