<?xml version="1.0" encoding="utf-8"?>
<!-- Generator: Adobe Illustrator 22.0.1, SVG Export Plug-In . SVG Version: 6.00 Build 0)  -->
<svg version="1.1" id="Capa_1" xmlns="http://www.w3.org/2000/svg" xmlns:xlink="http://www.w3.org/1999/xlink" x="0px" y="0px"
	 viewBox="0 0 60 60" style="enable-background:new 0 0 60 60;" xml:space="preserve">
<style type="text/css">
	.st0{fill:#96499F;}
</style>
<g>
	<path class="st0" d="M59,16V2H1v14H0v37.3C0,55.9,2.1,58,4.7,58h50.5c2.6,0,4.7-2.1,4.7-4.7V16H59z M56.5,16l-5.2-6.9L56.4,4H57v12
		H56.5z M11,16V9c0,0,0,0,0-0.1c0-0.1,0-0.1,0-0.2c0,0,0-0.1,0-0.1c0,0,0,0,0-0.1c0-0.1-0.1-0.1-0.1-0.2c0,0,0-0.1-0.1-0.1L6.4,4
		h47.2l-4.3,4.3c0,0,0,0.1-0.1,0.1c0,0.1-0.1,0.1-0.1,0.2c0,0,0,0,0,0.1c0,0,0,0.1,0,0.1c0,0.1,0,0.1,0,0.2c0,0,0,0,0,0.1v7H11z
		 M6,16l3-4v4H6z M51,12l3,4h-3V12z M3,4h0.6l5.1,5.1L3.5,16H3V4z M58,53.3c0,1.5-1.2,2.7-2.7,2.7H4.7C3.2,56,2,54.8,2,53.3V18h56
		V53.3z"/>
	<path class="st0" d="M42,24c-0.6,0-1,0.4-1,1v6c0,6.1-4.9,11-11,11s-11-4.9-11-11v-6c0-0.6-0.4-1-1-1s-1,0.4-1,1v6
		c0,7.2,5.8,13,13,13s13-5.8,13-13v-6C43,24.4,42.6,24,42,24z"/>
	<path class="st0" d="M20,25c0,0.6,0.4,1,1,1s1-0.4,1-1c0-2.2-1.8-4-4-4s-4,1.8-4,4c0,0.6,0.4,1,1,1s1-0.4,1-1c0-1.1,0.9-2,2-2
		S20,23.9,20,25z"/>
	<path class="st0" d="M42,21c-2.2,0-4,1.8-4,4c0,0.6,0.4,1,1,1s1-0.4,1-1c0-1.1,0.9-2,2-2s2,0.9,2,2c0,0.6,0.4,1,1,1s1-0.4,1-1
		C46,22.8,44.2,21,42,21z"/>
</g>
</svg>
