<?xml version="1.0" encoding="utf-8"?>
<!-- Generator: Adobe Illustrator 22.0.1, SVG Export Plug-In . SVG Version: 6.00 Build 0)  -->
<svg version="1.1" id="Layer_1" xmlns="http://www.w3.org/2000/svg" xmlns:xlink="http://www.w3.org/1999/xlink" x="0px" y="0px"
	 viewBox="0 0 512 512" style="enable-background:new 0 0 512 512;" xml:space="preserve">
<style type="text/css">
	.st0{fill:#FFC107;}
</style>
<g>
	<g>
		<path class="st0" d="M510.2,166.8L412.9,43c-1.6-2-4-3.2-6.5-3.2H105.6c-2.5,0-4.9,1.2-6.5,3.2L1.8,166.8
			c-2.4,3.1-2.4,7.5,0.2,10.5l247.7,291.9c1.6,1.9,3.9,2.9,6.3,2.9s4.7-1.1,6.3-2.9L510,177.3C512.6,174.3,512.7,169.9,510.2,166.8z
			 M394.6,56.4l-35.8,98.9L274,56.4C274,56.4,394.6,56.4,394.6,56.4z M344.1,163.7H167.9L256,60.8L344.1,163.7z M238,56.4
			l-84.8,98.9l-35.8-98.9C117.4,56.4,238,56.4,238,56.4z M102.9,65l35.7,98.7H25.4L102.9,65z M26.2,180.3h118.4l88,243.2L26.2,180.3
			z M256,439.5l-93.8-259.3h187.6L256,439.5z M279.5,423.4l88-243.2h118.4L279.5,423.4z M373.4,163.7L409.1,65l77.5,98.7H373.4z"/>
	</g>
</g>
</svg>
