<?xml version="1.0" encoding="utf-8"?>
<!-- Generator: Adobe Illustrator 22.0.1, SVG Export Plug-In . SVG Version: 6.00 Build 0)  -->
<svg version="1.1" id="Layer_1" xmlns="http://www.w3.org/2000/svg" xmlns:xlink="http://www.w3.org/1999/xlink" x="0px" y="0px"
	 viewBox="0 0 512 512" style="enable-background:new 0 0 512 512;" xml:space="preserve">
<style type="text/css">
	.st0{fill:#009EE0;}
</style>
<g>
	<g>
		<path class="st0" d="M468.3,53.1H43.7C19.6,53.1,0,72.7,0,96.8v318.5c0,24.1,19.6,43.7,43.7,43.7h424.6
			c24.1,0,43.7-19.6,43.7-43.7V96.8C512,72.7,492.4,53.1,468.3,53.1z M495.4,415.2c0,14.9-12.2,27.1-27.1,27.1H43.7
			c-14.9,0-27.1-12.2-27.1-27.1V140.4h478.8L495.4,415.2L495.4,415.2z M495.4,123.9H16.6V96.8c0-14.9,12.2-27.1,27.1-27.1h424.6
			c14.9,0,27.1,12.2,27.1,27.1V123.9z"/>
	</g>
</g>
<g>
	<g>
		<path class="st0" d="M61.4,88.5h-8.8c-4.6,0-8.3,3.7-8.3,8.3c0,4.6,3.7,8.3,8.3,8.3h8.8c4.6,0,8.3-3.7,8.3-8.3
			C69.7,92.2,66,88.5,61.4,88.5z"/>
	</g>
</g>
<g>
	<g>
		<path class="st0" d="M96.8,88.5h-8.8c-4.6,0-8.3,3.7-8.3,8.3c0,4.6,3.7,8.3,8.3,8.3h8.8c4.6,0,8.3-3.7,8.3-8.3
			S101.3,88.5,96.8,88.5z"/>
	</g>
</g>
<g>
	<g>
		<path class="st0" d="M132.1,88.5h-8.8c-4.6,0-8.3,3.7-8.3,8.3c0,4.6,3.7,8.3,8.3,8.3h8.8c4.6,0,8.3-3.7,8.3-8.3
			C140.4,92.2,136.7,88.5,132.1,88.5z"/>
	</g>
</g>
<g>
	<g>
		<path class="st0" d="M134.3,291.4l57.1-65.3c3-3.4,2.7-8.7-0.8-11.7c-3.4-3-8.7-2.7-11.7,0.8l-61.9,70.8c-2.7,3.1-2.7,7.8,0,10.9
			l61.9,70.8c1.6,1.9,3.9,2.8,6.2,2.8c1.9,0,3.9-0.7,5.5-2.1c3.4-3,3.8-8.3,0.8-11.7L134.3,291.4z"/>
	</g>
</g>
<g>
	<g>
		<path class="st0" d="M394.9,285.9L333,215.2c-3-3.4-8.3-3.8-11.7-0.8c-3.4,3-3.8,8.3-0.8,11.7l57.1,65.3l-57.1,65.3
			c-3,3.4-2.7,8.7,0.8,11.7c1.6,1.4,3.5,2.1,5.5,2.1c2.3,0,4.6-1,6.2-2.8l61.9-70.8C397.7,293.7,397.7,289,394.9,285.9z"/>
	</g>
</g>
<g>
	<g>
		<path class="st0" d="M294.6,204.1c-4.2-1.8-9.1,0.2-10.9,4.4L213,376.6c-1.8,4.2,0.2,9.1,4.4,10.9c1.1,0.4,2.1,0.7,3.2,0.7
			c3.2,0,6.3-1.9,7.6-5.1L299,215C300.8,210.8,298.8,205.9,294.6,204.1z"/>
	</g>
</g>
</svg>
