<svg xmlns="http://www.w3.org/2000/svg" xmlns:xlink="http://www.w3.org/1999/xlink" viewBox="0 0 650.877 216.036"><defs><style>.a{filter:url(#a);}</style><filter id="a" x="1.748" y="0" width="649.129" height="88.59" filterUnits="userSpaceOnUse"><feOffset dx="5" dy="3" input="SourceAlpha"/><feGaussianBlur result="b"/><feFlood flood-color="#00e7ff"/><feComposite operator="in" in2="b"/><feComposite in="SourceGraphic"/></filter></defs><g transform="translate(-20838.232 -1939.01)"><g class="a" transform="matrix(1, 0, 0, 1, 20838.23, 1939.01)"><path d="M1.98,0V-.9l1.89-.72A4.489,4.489,0,0,0,6.75-6.21V-53.19q0-3.6-2.88-4.59L1.98-58.5v-.9H25.74a35.388,35.388,0,0,1,16.425,3.555,25.181,25.181,0,0,1,10.62,10.17A31.82,31.82,0,0,1,56.52-29.79q0,9.45-4.05,16.11a26.347,26.347,0,0,1-11.3,10.17A38.724,38.724,0,0,1,24.12,0ZM20.25-1.8h3.87q6.48,0,10.44-2.565t5.805-8.64Q42.21-19.08,42.21-29.7T40.365-46.4q-1.845-6.075-5.715-8.64T24.48-57.6H20.25ZM58.59,0V-.9l1.8-.63q3.06-.99,3.06-5.13V-52.74a8.393,8.393,0,0,0-.4-2.88,3.524,3.524,0,0,0-2.115-1.8L58.59-58.5v-.9H75.96L92.61-15.84,108.27-59.4H126v.9l-1.44.54a4.192,4.192,0,0,0-2.34,1.755,5.956,5.956,0,0,0-.63,2.925V-6.21a6.925,6.925,0,0,0,.45,2.79,3.864,3.864,0,0,0,2.16,1.71L126-.9V0H103.59V-.9l1.89-.81a3.864,3.864,0,0,0,2.16-1.71,6.925,6.925,0,0,0,.45-2.79V-26.46l.18-25.74L89.46,0h-4.5L65.34-51.57l.27,22.41V-6.48a7.414,7.414,0,0,0,.585,3.195A3.553,3.553,0,0,0,68.49-1.53l1.98.63V0ZM168.93,1.62A43.642,43.642,0,0,1,158.85.4,31.67,31.67,0,0,1,150.3-2.79l.45-12.24h.9l2.79,5.85a29.7,29.7,0,0,0,2.7,4.455A9.438,9.438,0,0,0,161.1-1.71,13.325,13.325,0,0,0,164.565-.5,20.183,20.183,0,0,0,168.3-.18q5.49,0,8.685-2.97a9.974,9.974,0,0,0,3.2-7.65,10.127,10.127,0,0,0-2.16-6.885,22.124,22.124,0,0,0-6.93-4.815l-3.69-1.62A38.611,38.611,0,0,1,155.3-32Q150.93-36.45,150.93-43.83a15.454,15.454,0,0,1,2.745-9.18,17.405,17.405,0,0,1,7.65-5.94A29.349,29.349,0,0,1,172.8-61.02a31.836,31.836,0,0,1,9.045,1.26,26.061,26.061,0,0,1,7.425,3.42l-.54,10.8h-.9l-3.69-6.75a13.841,13.841,0,0,0-3.06-4.455,8.979,8.979,0,0,0-3.51-1.845,13.7,13.7,0,0,0-2.16-.495,19.257,19.257,0,0,0-2.52-.135,11.6,11.6,0,0,0-7.74,2.655A8.874,8.874,0,0,0,162-49.41a10.662,10.662,0,0,0,2.43,7.335,21.265,21.265,0,0,0,7.11,4.905l4.14,1.8q8.64,3.78,12.42,8.055a16.027,16.027,0,0,1,3.78,11.025A16.043,16.043,0,0,1,185.9-3.375Q179.91,1.62,168.93,1.62Zm49.95-46.26a19.7,19.7,0,0,1,9.99,2.385,16.268,16.268,0,0,1,6.345,6.48,19.334,19.334,0,0,1,2.205,9.315q0,.99-.09,2.025a8.047,8.047,0,0,1-.36,1.845H210.15q.09,9.72,3.465,13.995T223.65-4.32a15.912,15.912,0,0,0,7.29-1.44,17.823,17.823,0,0,0,5.22-4.23l.9.81a20.7,20.7,0,0,1-7.425,7.74A21.158,21.158,0,0,1,218.52,1.35a22.991,22.991,0,0,1-11.34-2.745,19.378,19.378,0,0,1-7.74-7.875,25.264,25.264,0,0,1-2.79-12.24,23.2,23.2,0,0,1,3.24-12.555,21.8,21.8,0,0,1,8.325-7.875A22.436,22.436,0,0,1,218.88-44.64Zm-.27,1.8a6.631,6.631,0,0,0-4.455,1.575q-1.845,1.575-2.88,5.58A50.057,50.057,0,0,0,210.15-24.39h15.39q.9-9.81-.72-14.13A6.113,6.113,0,0,0,218.61-42.84ZM241.92,0V-.9l1.35-.36a4.185,4.185,0,0,0,2.475-1.62,5.193,5.193,0,0,0,.675-2.79V-33.84a5.073,5.073,0,0,0-.675-2.925,3.828,3.828,0,0,0-2.475-1.305l-1.35-.36v-.9l15.48-5.22.9.9.81,7.74v.72a18.906,18.906,0,0,1,3.285-4.635,18.422,18.422,0,0,1,4.5-3.465,10.18,10.18,0,0,1,4.9-1.35,6.871,6.871,0,0,1,5.22,1.89,6.64,6.64,0,0,1,1.8,4.77,6.2,6.2,0,0,1-1.755,4.725,5.87,5.87,0,0,1-4.185,1.665q-3.78,0-6.66-3.78l-.18-.18a2.993,2.993,0,0,0-2.07-1.4,2.392,2.392,0,0,0-2.16,1.125,6.79,6.79,0,0,0-1.485,1.935A23.358,23.358,0,0,0,259.2-31.32V-6.21q0,3.6,3.15,4.5l2.88.81V0Zm50.49-49.32a7.386,7.386,0,0,1-5.175-1.935,6.359,6.359,0,0,1-2.115-4.9,6.323,6.323,0,0,1,2.115-4.95A7.488,7.488,0,0,1,292.41-63a7.324,7.324,0,0,1,5.13,1.89,6.388,6.388,0,0,1,2.07,4.95,6.424,6.424,0,0,1-2.07,4.9A7.226,7.226,0,0,1,292.41-49.32ZM281.79,0V-.9l1.26-.36a4.184,4.184,0,0,0,2.475-1.62,5.384,5.384,0,0,0,.675-2.88V-33.93a4.88,4.88,0,0,0-.675-2.835,3.828,3.828,0,0,0-2.475-1.305l-1.26-.27v-.9l16.47-5.31.9.9-.27,12.78v25.2a5.384,5.384,0,0,0,.675,2.88,4.136,4.136,0,0,0,2.385,1.62l.9.27V0Zm25.2,0V-.9l1.17-.27a5.273,5.273,0,0,0,2.7-1.575,4.265,4.265,0,0,0,.99-2.925q0-3.33.045-6.615t.045-6.615V-41.49H306.9v-.99l1.98-.36a3.517,3.517,0,0,0,2.61-1.26,7.15,7.15,0,0,0,1.17-2.97,20.171,20.171,0,0,1,2.655-6.165,31.429,31.429,0,0,1,4.005-4.905,19.924,19.924,0,0,1,7.245-4.545,23.184,23.184,0,0,1,7.515-1.305,14.483,14.483,0,0,1,6.57,1.485,5.083,5.083,0,0,1,2.97,4.905,5.077,5.077,0,0,1-1.44,3.825,5.58,5.58,0,0,1-4.05,1.4,7.118,7.118,0,0,1-3.96-1.17,11.932,11.932,0,0,1-3.51-4.14l-1.26-1.53a2.518,2.518,0,0,0-1.98-1.215q-.99.045-1.44,1.485a61.316,61.316,0,0,0-.945,7.38q-.315,4.23-.315,8.28H334.8v1.8H324.72V-5.85q0,3.42,3.6,4.41l2.25.54V0Zm50.49,0V-.9l1.89-.72a4.489,4.489,0,0,0,2.88-4.59V-53.19q0-3.6-2.88-4.59l-1.89-.72v-.9h23.76a35.388,35.388,0,0,1,16.425,3.555,25.181,25.181,0,0,1,10.62,10.17A31.821,31.821,0,0,1,412.02-29.79q0,9.45-4.05,16.11a26.347,26.347,0,0,1-11.3,10.17A38.724,38.724,0,0,1,379.62,0Zm18.27-1.8h3.87q6.48,0,10.44-2.565t5.8-8.64q1.845-6.075,1.845-16.7T395.865-46.4q-1.845-6.075-5.715-8.64T379.98-57.6h-4.23Zm50.67-47.52a7.386,7.386,0,0,1-5.175-1.935,6.359,6.359,0,0,1-2.115-4.9,6.323,6.323,0,0,1,2.115-4.95A7.488,7.488,0,0,1,426.42-63a7.324,7.324,0,0,1,5.13,1.89,6.388,6.388,0,0,1,2.07,4.95,6.424,6.424,0,0,1-2.07,4.9A7.226,7.226,0,0,1,426.42-49.32ZM415.8,0V-.9l1.26-.36a4.184,4.184,0,0,0,2.475-1.62,5.384,5.384,0,0,0,.675-2.88V-33.93a4.88,4.88,0,0,0-.675-2.835,3.828,3.828,0,0,0-2.475-1.305l-1.26-.27v-.9l16.47-5.31.9.9-.27,12.78v25.2a5.384,5.384,0,0,0,.675,2.88,4.136,4.136,0,0,0,2.385,1.62l.9.27V0Zm40.59,1.35A27.991,27.991,0,0,1,448.47.315a36.915,36.915,0,0,1-6.48-2.565l.09-10.71h.9l3.06,5.4A16.2,16.2,0,0,0,450.4-2.2,9.983,9.983,0,0,0,456.48-.45a11.57,11.57,0,0,0,6.975-1.935A6.088,6.088,0,0,0,466.11-7.56a6.579,6.579,0,0,0-1.89-4.86q-1.89-1.89-7.02-3.42l-3.78-1.17a18.586,18.586,0,0,1-8.64-5.04,11.9,11.9,0,0,1-3.15-8.37,12.967,12.967,0,0,1,4.68-10.08q4.68-4.14,13.41-4.14a27.578,27.578,0,0,1,6.615.765,25.944,25.944,0,0,1,5.985,2.295l-.54,9.72h-.9l-3.15-5.58a13.459,13.459,0,0,0-3.375-4.185,8.457,8.457,0,0,0-4.995-1.215,10.58,10.58,0,0,0-5.76,1.71,5.434,5.434,0,0,0-2.7,4.86,5.852,5.852,0,0,0,2.295,4.86,23.406,23.406,0,0,0,6.8,3.33l4.05,1.17q6.48,1.98,9.27,5.445a12.858,12.858,0,0,1,2.79,8.325,12.6,12.6,0,0,1-5.175,10.53Q465.75,1.35,456.39,1.35ZM479.16,20.7v-.9l1.08-.36a4.084,4.084,0,0,0,3.33-4.32V-33.84a5.3,5.3,0,0,0-.675-2.97,3.727,3.727,0,0,0-2.475-1.35l-1.26-.27v-.9l15.3-5.22.9.9.81,2.79a25.665,25.665,0,0,1,6.615-2.79,28.543,28.543,0,0,1,7.515-.99,14.7,14.7,0,0,1,12.285,5.9q4.545,5.895,4.545,16.875,0,10.8-4.995,17.01T508.05,1.35A30.576,30.576,0,0,1,496.08-.72V14.85a4.178,4.178,0,0,0,3.24,4.5l1.71.45v.9ZM503.73-1.26q4.5,0,7.155-4.68t2.655-15.57q0-10.89-2.52-15.255a7.976,7.976,0,0,0-7.29-4.365,15.928,15.928,0,0,0-7.38,2.16V-2.7A18.822,18.822,0,0,0,503.73-1.26ZM531.09,0V-.9l1.08-.36a4.346,4.346,0,0,0,3.24-4.5V-53.91a4.469,4.469,0,0,0-.72-2.745,4.4,4.4,0,0,0-2.52-1.4L531-58.32v-.9l16.47-3.87,1.08.81-.36,12.6V-18.9q0,3.33.045,6.615t.045,6.525A5.348,5.348,0,0,0,549-2.835a4.267,4.267,0,0,0,2.43,1.665l1.17.27V0ZM568.8,1.35a13.225,13.225,0,0,1-8.775-2.97q-3.555-2.97-3.555-8.55,0-4.23,4.32-7.785t13.59-5.355q1.44-.27,3.24-.585t3.78-.675v-7.11q0-6.12-1.485-8.595a5.019,5.019,0,0,0-4.635-2.475,4.378,4.378,0,0,0-3.42,1.4q-1.26,1.4-1.62,4.815l-.18.99q-.18,3.87-1.89,5.67a5.6,5.6,0,0,1-4.23,1.8,5.423,5.423,0,0,1-3.87-1.44,5.061,5.061,0,0,1-1.53-3.87A8.363,8.363,0,0,1,561.1-39.6a16.017,16.017,0,0,1,6.795-3.78,32.031,32.031,0,0,1,9.18-1.26q8.01,0,12.375,3.915T593.82-27.99V-8.1q0,4.05,3.78,4.05h1.98l.81.72A13.293,13.293,0,0,1,596.655,0a11.521,11.521,0,0,1-5.715,1.17,9.709,9.709,0,0,1-6.255-1.845,8.624,8.624,0,0,1-3.015-4.9,37.547,37.547,0,0,1-5.535,4.9A12.331,12.331,0,0,1,568.8,1.35Zm5.49-5.49a6.966,6.966,0,0,0,3.375-.855A24.1,24.1,0,0,0,581.4-7.65V-22.77l-1.8.36q-.9.18-2.07.36a13.787,13.787,0,0,0-6.615,3.645,9.5,9.5,0,0,0-2.475,6.885q0,3.69,1.71,5.535A5.439,5.439,0,0,0,574.29-4.14ZM609.12,21.6a8.528,8.528,0,0,1-5.715-1.8,5.761,5.761,0,0,1-2.115-4.59,5.052,5.052,0,0,1,1.8-4.05,6.091,6.091,0,0,1,4.05-1.53,7.067,7.067,0,0,1,3.78.945,8.747,8.747,0,0,1,2.7,2.745l.63.72q1.98,2.7,3.96-.09.81-1.35,1.845-3.555t2.385-5.9L604.98-37.26a12.3,12.3,0,0,0-1.35-2.745,5.458,5.458,0,0,0-2.34-1.755l-1.62-.63v-.9h22.41v.81l-1.8.72q-1.98.63-2.025,2.025a9.967,9.967,0,0,0,.675,3.465l9.36,24.3,8.91-24.57a7.827,7.827,0,0,0,.54-3.465q-.18-1.4-2.25-1.935l-1.89-.45v-.9h12.51v.9l-1.98.63a5.2,5.2,0,0,0-2.88,1.8,13.685,13.685,0,0,0-1.53,3.24L625.23,2.79q-3.51,9.45-7.02,14.13A10.868,10.868,0,0,1,609.12,21.6Z" transform="translate(-0.23 63.99)"/></g><path d="M4.814.435A4.261,4.261,0,0,1,1.986-.522,3.387,3.387,0,0,1,.841-3.277,3.257,3.257,0,0,1,2.233-5.786,9.932,9.932,0,0,1,6.612-7.511Q7.076-7.6,7.656-7.7t1.218-.217v-2.291A5.757,5.757,0,0,0,8.4-12.977a1.617,1.617,0,0,0-1.494-.8,1.411,1.411,0,0,0-1.1.449,2.766,2.766,0,0,0-.522,1.552l-.058.319a2.778,2.778,0,0,1-.609,1.827,1.8,1.8,0,0,1-1.363.58A1.747,1.747,0,0,1,2-9.512a1.631,1.631,0,0,1-.493-1.247,2.7,2.7,0,0,1,.827-2,5.161,5.161,0,0,1,2.19-1.218,10.321,10.321,0,0,1,2.958-.406,5.771,5.771,0,0,1,3.988,1.262,5.269,5.269,0,0,1,1.406,4.1V-2.61q0,1.305,1.218,1.305h.638l.261.232A4.284,4.284,0,0,1,13.789,0a3.712,3.712,0,0,1-1.841.377A3.129,3.129,0,0,1,9.932-.218,2.779,2.779,0,0,1,8.961-1.8,12.1,12.1,0,0,1,7.178-.218,3.973,3.973,0,0,1,4.814.435ZM6.583-1.334A2.245,2.245,0,0,0,7.67-1.61a7.764,7.764,0,0,0,1.2-.855V-7.337l-.58.116q-.29.058-.667.116A4.442,4.442,0,0,0,5.5-5.931a3.06,3.06,0,0,0-.8,2.218,2.543,2.543,0,0,0,.551,1.784A1.753,1.753,0,0,0,6.583-1.334ZM20.561.377,15.66,0V-.29l.29-.058A1.339,1.339,0,0,0,17.081-1.8V-17.313a1.849,1.849,0,0,0-.189-.928,1.083,1.083,0,0,0-.768-.435l-.406-.116v-.29l5.162-1.247.348.261-.116,4.089v2.929a7.177,7.177,0,0,1,2.088-1,8.061,8.061,0,0,1,2.291-.333,5.565,5.565,0,0,1,2.929.768,5.206,5.206,0,0,1,2.015,2.378,9.944,9.944,0,0,1,.739,4.132,9.406,9.406,0,0,1-.826,4.191,5.922,5.922,0,0,1-2.2,2.508,5.7,5.7,0,0,1-3.031.841,8.357,8.357,0,0,1-2.16-.29,7.105,7.105,0,0,1-1.928-.812Zm3.1-.928a2.46,2.46,0,0,0,1.624-.58,3.962,3.962,0,0,0,1.1-1.987A14.554,14.554,0,0,0,26.8-6.989a14.728,14.728,0,0,0-.377-3.8,3.452,3.452,0,0,0-1.059-1.856,2.615,2.615,0,0,0-1.639-.522,4.539,4.539,0,0,0-2.523.754V-1.276a5.023,5.023,0,0,0,1.131.537A4.315,4.315,0,0,0,23.664-.551ZM39.817.435A7.51,7.51,0,0,1,36.235-.42a6.332,6.332,0,0,1-2.552-2.494,7.94,7.94,0,0,1-.943-4.016,7.5,7.5,0,0,1,1.029-4.017A6.863,6.863,0,0,1,36.525-13.5a8.174,8.174,0,0,1,3.785-.884,6.593,6.593,0,0,1,2.842.551A4.347,4.347,0,0,1,44.921-12.4a3.2,3.2,0,0,1,.609,1.842,1.621,1.621,0,0,1-.493,1.262,1.82,1.82,0,0,1-1.276.449A1.709,1.709,0,0,1,42.4-9.454a2.754,2.754,0,0,1-.609-1.6,6.4,6.4,0,0,1,.029-1.087,3.611,3.611,0,0,0,0-.913,1.022,1.022,0,0,0-.363-.653,1.247,1.247,0,0,0-.681-.159,3.068,3.068,0,0,0-2.741,1.537,9.468,9.468,0,0,0-.972,4.9,7.764,7.764,0,0,0,1.088,4.481A3.811,3.811,0,0,0,41.5-1.392a4.327,4.327,0,0,0,2.2-.493,6,6,0,0,0,1.624-1.479l.29.232A5.552,5.552,0,0,1,43.384-.493,6.67,6.67,0,0,1,39.817.435Zm13.108,0a6.149,6.149,0,0,1-3.074-.769,5.361,5.361,0,0,1-2.16-2.378,9.312,9.312,0,0,1-.8-4.132,8.83,8.83,0,0,1,.9-4.22,6.057,6.057,0,0,1,2.378-2.494,6.489,6.489,0,0,1,3.219-.826,9.07,9.07,0,0,1,1.943.2,5.978,5.978,0,0,1,1.653.609v-3.77a1.683,1.683,0,0,0-.189-.9,1.172,1.172,0,0,0-.8-.406l-.551-.116v-.29l5.278-1.276.319.261-.116,4.06V-1.827a1.919,1.919,0,0,0,.2.942,1.14,1.14,0,0,0,.754.508l.261.087V0L57.188.319,56.927-.725a7.063,7.063,0,0,1-1.784.841A7.278,7.278,0,0,1,52.925.435ZM54.607-.638a3.757,3.757,0,0,0,2.233-.725V-12.876a4,4,0,0,0-2.2-.7,2.815,2.815,0,0,0-2.378,1.609,9.994,9.994,0,0,0-.986,5.06q0,3.451.928,4.857A2.786,2.786,0,0,0,54.607-.638ZM70.7-14.384a6.347,6.347,0,0,1,3.219.768,5.242,5.242,0,0,1,2.045,2.088,6.23,6.23,0,0,1,.71,3q0,.319-.029.653a2.593,2.593,0,0,1-.116.595H67.889A7.455,7.455,0,0,0,69.006-2.77a3.87,3.87,0,0,0,3.233,1.378,5.127,5.127,0,0,0,2.349-.464A5.743,5.743,0,0,0,76.27-3.219l.29.261A6.669,6.669,0,0,1,74.167-.464a6.818,6.818,0,0,1-3.581.9,7.408,7.408,0,0,1-3.654-.884,6.244,6.244,0,0,1-2.494-2.537,8.141,8.141,0,0,1-.9-3.944,7.474,7.474,0,0,1,1.044-4.046,7.023,7.023,0,0,1,2.682-2.537A7.229,7.229,0,0,1,70.7-14.384Zm-.087.58a2.137,2.137,0,0,0-1.436.507,3.47,3.47,0,0,0-.928,1.8,16.13,16.13,0,0,0-.362,3.64h4.959a11.242,11.242,0,0,0-.232-4.553A1.97,1.97,0,0,0,70.615-13.8ZM78.068,0V-.29l.377-.087a1.7,1.7,0,0,0,.87-.508,1.374,1.374,0,0,0,.319-.942q0-1.073.014-2.131t.015-2.131v-7.279H78.039v-.319l.638-.116a1.133,1.133,0,0,0,.841-.406,2.3,2.3,0,0,0,.377-.957,6.5,6.5,0,0,1,.856-1.986,10.127,10.127,0,0,1,1.29-1.581A6.42,6.42,0,0,1,84.376-20.2a7.47,7.47,0,0,1,2.421-.421,4.667,4.667,0,0,1,2.117.479,1.638,1.638,0,0,1,.957,1.581,1.636,1.636,0,0,1-.464,1.232,1.8,1.8,0,0,1-1.305.45,2.293,2.293,0,0,1-1.276-.377,3.845,3.845,0,0,1-1.131-1.334l-.406-.493a.811.811,0,0,0-.638-.392q-.319.015-.464.479a19.759,19.759,0,0,0-.3,2.378q-.1,1.363-.1,2.668h3.248v.58H83.781V-1.885a1.38,1.38,0,0,0,1.16,1.421l.725.174V0ZM94.279-5.017a7.807,7.807,0,0,1-3.393-.667V-4.7a.993.993,0,0,0,.9,1.073L97.237-2.61a14.65,14.65,0,0,1,2.465.682,4.334,4.334,0,0,1,1.769,1.189,3.1,3.1,0,0,1,.667,2.1,4.207,4.207,0,0,1-.928,2.625,6.423,6.423,0,0,1-2.741,1.943,11.991,11.991,0,0,1-4.509.74,11.449,11.449,0,0,1-3.683-.479,3.992,3.992,0,0,1-1.929-1.232,2.615,2.615,0,0,1-.565-1.6,3.757,3.757,0,0,1,.711-2.1,5.642,5.642,0,0,1,1.755-1.7,2.843,2.843,0,0,1-1.305-.9,1.965,1.965,0,0,1-.406-1.189,2.078,2.078,0,0,1,.3-1.087,8.239,8.239,0,0,1,.74-1.03l.957-1.218a4.1,4.1,0,0,1-2.117-3.828,4.294,4.294,0,0,1,1.493-3.393,6.5,6.5,0,0,1,4.394-1.3,8.741,8.741,0,0,1,2.6.348,5,5,0,0,1,1.841.986,7.953,7.953,0,0,0,1.755-.479,5.258,5.258,0,0,0,1.493-.913l.406.29v1.479H99.122a4.3,4.3,0,0,1,1.044,2.987,4.274,4.274,0,0,1-1.493,3.349A6.45,6.45,0,0,1,94.279-5.017ZM94.25-5.6a1.806,1.806,0,0,0,1.7-.957,6.932,6.932,0,0,0,.536-3.19,6.643,6.643,0,0,0-.536-3.147,1.773,1.773,0,0,0-1.639-.913,1.771,1.771,0,0,0-1.624.942,6.677,6.677,0,0,0-.551,3.176,7.076,7.076,0,0,0,.508,3.161A1.705,1.705,0,0,0,94.25-5.6ZM89.929,2.436a3.147,3.147,0,0,0,1.058,2.581,5.245,5.245,0,0,0,3.35.87A6.775,6.775,0,0,0,97.962,5.1,2.478,2.478,0,0,0,99.18,2.9,1.611,1.611,0,0,0,98.585,1.6,4.516,4.516,0,0,0,96.57.841L91.321-.145l-.464-.116a5.449,5.449,0,0,0-.667,1.319A4.156,4.156,0,0,0,89.929,2.436ZM103.327,0V-.29l.348-.116a1.4,1.4,0,0,0,1.044-1.45V-17.342a1.585,1.585,0,0,0-.2-.9,1.308,1.308,0,0,0-.783-.435l-.435-.116v-.29l5.1-1.247.464.261-.116,4.089v3.625a11.71,11.71,0,0,1,2.19-1.435,5.664,5.664,0,0,1,2.6-.595,4.15,4.15,0,0,1,3,1.073,4.395,4.395,0,0,1,1.117,3.306v8.178a1.649,1.649,0,0,0,.232.928,1.421,1.421,0,0,0,.812.522l.232.087V0h-6.786V-.29l.348-.087a1.419,1.419,0,0,0,1.044-1.479v-9.106a2.428,2.428,0,0,0-.392-1.6,1.8,1.8,0,0,0-1.377-.435,4.505,4.505,0,0,0-1.392.247,5.133,5.133,0,0,0-1.537.856V-1.8a1.373,1.373,0,0,0,1.044,1.45l.232.058V0ZM123.54-15.892a2.38,2.38,0,0,1-1.667-.624,2.049,2.049,0,0,1-.682-1.58,2.037,2.037,0,0,1,.682-1.595,2.413,2.413,0,0,1,1.667-.609,2.36,2.36,0,0,1,1.653.609,2.058,2.058,0,0,1,.667,1.595,2.07,2.07,0,0,1-.667,1.58A2.328,2.328,0,0,1,123.54-15.892ZM120.118,0V-.29l.406-.116a1.348,1.348,0,0,0,.8-.522,1.735,1.735,0,0,0,.217-.928v-9.077a1.573,1.573,0,0,0-.217-.913,1.233,1.233,0,0,0-.8-.421l-.406-.087v-.29l5.307-1.711.29.29-.087,4.118v8.12a1.735,1.735,0,0,0,.217.928,1.333,1.333,0,0,0,.769.522l.29.087V0Zm11.774-15.892a2.328,2.328,0,0,1-1.653-.624,2.07,2.07,0,0,1-.667-1.58,2.058,2.058,0,0,1,.667-1.595,2.36,2.36,0,0,1,1.653-.609,2.413,2.413,0,0,1,1.667.609,2.037,2.037,0,0,1,.682,1.595,2.049,2.049,0,0,1-.682,1.58A2.38,2.38,0,0,1,131.892-15.892ZM127.6,6.96a3.909,3.909,0,0,1-2.378-.565A1.773,1.773,0,0,1,124.5,4.93a1.628,1.628,0,0,1,.58-1.3,2.038,2.038,0,0,1,1.363-.493,2.663,2.663,0,0,1,1.421.391,2.512,2.512,0,0,1,.986,1.233l.29.638q.2.319.479.217t.275-.913V-10.9a1.33,1.33,0,0,0-.3-.972,1.687,1.687,0,0,0-.885-.42l-.435-.058v-.29l5.423-1.711.348.29-.087,4.118v8.062a26.149,26.149,0,0,1-.16,3.161,7.731,7.731,0,0,1-.551,2.161,5.672,5.672,0,0,1-1.117,1.638,6.064,6.064,0,0,1-2.2,1.45A6.729,6.729,0,0,1,127.6,6.96ZM136.213,0V-.29l.435-.145a1.347,1.347,0,0,0,.986-1.421V-17.371a1.374,1.374,0,0,0-.232-.87,1.608,1.608,0,0,0-.812-.464l-.377-.087v-.29l5.307-1.247.348.261-.087,4.06V-1.856a1.338,1.338,0,0,0,.957,1.45l.406.116V0Zm10.759,0-5.191-7.25,5.394-4.959a1.353,1.353,0,0,0,.449-.74q.072-.392-.507-.566l-.493-.145v-.29h4.321v.29l-.87.232a3.793,3.793,0,0,0-1.029.479,10.792,10.792,0,0,0-.943.769l-3.277,3.074,5.22,7.192a7.359,7.359,0,0,0,.885.986,3.158,3.158,0,0,0,1.029.58l.116.058V0Zm6.148,0V-.29l.348-.116a1.4,1.4,0,0,0,1.044-1.45V-17.371a1.44,1.44,0,0,0-.232-.885,1.417,1.417,0,0,0-.812-.45l-.377-.087v-.29l5.307-1.247.348.261-.116,4.06V-6.09q0,1.073.014,2.131t.014,2.1a1.723,1.723,0,0,0,.232.943,1.375,1.375,0,0,0,.783.537l.377.087V0Zm8.207,0V-.29l.406-.116A1.222,1.222,0,0,0,162.5-.9a1.922,1.922,0,0,0,.247-.928V-10.9a1.728,1.728,0,0,0-.2-.943,1.17,1.17,0,0,0-.783-.421l-.435-.116v-.29l4.959-1.682.29.29.232,1.972A9.407,9.407,0,0,1,169-13.717a5.322,5.322,0,0,1,2.566-.667,3.94,3.94,0,0,1,2.233.565,3.46,3.46,0,0,1,1.276,1.755,9.371,9.371,0,0,1,2.451-1.7,5.988,5.988,0,0,1,2.566-.623,4.1,4.1,0,0,1,3.031.986,4.28,4.28,0,0,1,.971,3.1v8.5a1.328,1.328,0,0,0,1.044,1.421l.319.087V0h-6.7V-.29l.29-.087a1.333,1.333,0,0,0,.769-.522,1.735,1.735,0,0,0,.217-.928V-10.7a2.415,2.415,0,0,0-.435-1.668,1.867,1.867,0,0,0-1.392-.45,3.41,3.41,0,0,0-1.464.333,6.824,6.824,0,0,0-1.493,1,4.617,4.617,0,0,1,.189,1.015q.043.551.043,1.16V-1.8a1.364,1.364,0,0,0,1.044,1.421l.261.087V0h-6.728V-.29l.406-.116a1.364,1.364,0,0,0,.769-.507,1.658,1.658,0,0,0,.217-.914v-8.845a2.554,2.554,0,0,0-.421-1.653,1.8,1.8,0,0,0-1.436-.493,2.96,2.96,0,0,0-1.334.333,6.653,6.653,0,0,0-1.392.971V-1.8a1.323,1.323,0,0,0,1.015,1.421l.261.087V0Zm25.259,0V-.29l.406-.116a1.323,1.323,0,0,0,1.015-1.421V-10.9a1.728,1.728,0,0,0-.2-.943,1.17,1.17,0,0,0-.783-.421l-.435-.116v-.29l4.959-1.682.29.29.232,1.74a9.129,9.129,0,0,1,2.291-1.479,6.062,6.062,0,0,1,2.523-.58,3.95,3.95,0,0,1,2.943,1.044,4.38,4.38,0,0,1,1.03,3.19V-1.8a1.34,1.34,0,0,0,1.1,1.421l.261.087V0h-6.844V-.29l.377-.116a1.35,1.35,0,0,0,1.015-1.421v-9.251a1.64,1.64,0,0,0-1.856-1.856,4.482,4.482,0,0,0-2.784,1.276V-1.8A1.323,1.323,0,0,0,193.14-.377l.261.087V0Zm24.1.435a7.682,7.682,0,0,1-3.828-.914,6.245,6.245,0,0,1-2.508-2.6,8.358,8.358,0,0,1-.885-3.944,7.774,7.774,0,0,1,.943-3.915,6.551,6.551,0,0,1,2.581-2.552,7.558,7.558,0,0,1,3.7-.9,7.574,7.574,0,0,1,3.683.884,6.478,6.478,0,0,1,2.566,2.538,7.835,7.835,0,0,1,.943,3.944,8.337,8.337,0,0,1-.885,3.959A6.292,6.292,0,0,1,214.5-.479,7.6,7.6,0,0,1,210.685.435Zm0-.58a2.257,2.257,0,0,0,1.624-.58,3.793,3.793,0,0,0,.885-2.059,24.2,24.2,0,0,0,.275-4.176,24.429,24.429,0,0,0-.275-4.2,3.793,3.793,0,0,0-.885-2.059,2.257,2.257,0,0,0-1.624-.58,2.309,2.309,0,0,0-1.638.58,3.721,3.721,0,0,0-.9,2.059,24.429,24.429,0,0,0-.275,4.2,24.2,24.2,0,0,0,.275,4.176,3.721,3.721,0,0,0,.9,2.059A2.309,2.309,0,0,0,210.685-.145Zm8.178,6.815V6.38l.348-.116a1.316,1.316,0,0,0,1.073-1.392V-10.9a1.709,1.709,0,0,0-.218-.957,1.2,1.2,0,0,0-.8-.435l-.406-.087v-.29l4.93-1.682.29.29.261.9a8.27,8.27,0,0,1,2.132-.9,9.2,9.2,0,0,1,2.421-.319,4.736,4.736,0,0,1,3.958,1.9,8.753,8.753,0,0,1,1.465,5.438,8.509,8.509,0,0,1-1.609,5.481,5.493,5.493,0,0,1-4.539,2,9.852,9.852,0,0,1-3.857-.667V4.785a1.346,1.346,0,0,0,1.044,1.45l.551.145v.29ZM226.78-.406a2.582,2.582,0,0,0,2.306-1.508,10.781,10.781,0,0,0,.855-5.017,10.592,10.592,0,0,0-.812-4.915,2.57,2.57,0,0,0-2.349-1.406,5.132,5.132,0,0,0-2.378.7V-.87A6.065,6.065,0,0,0,226.78-.406ZM244.267,6.67V6.38l.609-.145a1.383,1.383,0,0,0,1.1-1.45V-.986a7.2,7.2,0,0,1-1.928,1.03,7.109,7.109,0,0,1-2.422.392,5.2,5.2,0,0,1-4.089-1.856,7.958,7.958,0,0,1-1.624-5.394,9.42,9.42,0,0,1,.812-4.118,5.972,5.972,0,0,1,2.247-2.566,6.2,6.2,0,0,1,3.321-.884,6.916,6.916,0,0,1,2.334.377,7.563,7.563,0,0,1,1.871.957l3.306-1.334.29.29-.087,3.915V4.872a1.279,1.279,0,0,0,1.044,1.421l.261.087v.29Zm-.725-7.4a3.666,3.666,0,0,0,2.349-.928v-11.02a3.676,3.676,0,0,0-1.015-.464,4.7,4.7,0,0,0-1.247-.145,2.738,2.738,0,0,0-2.436,1.493,10,10,0,0,0-.9,4.916,9.5,9.5,0,0,0,.87,4.742A2.676,2.676,0,0,0,243.542-.725ZM252.01,0V-.29l.435-.116a1.348,1.348,0,0,0,.8-.522,1.673,1.673,0,0,0,.217-.9V-10.9a1.635,1.635,0,0,0-.217-.943,1.233,1.233,0,0,0-.8-.421l-.435-.116v-.29L257-14.355l.29.29.261,2.494v.232a6.092,6.092,0,0,1,1.059-1.493,5.936,5.936,0,0,1,1.45-1.117,3.28,3.28,0,0,1,1.581-.435,2.214,2.214,0,0,1,1.682.609,2.14,2.14,0,0,1,.58,1.537,2,2,0,0,1-.565,1.523,1.892,1.892,0,0,1-1.349.536A2.671,2.671,0,0,1,259.84-11.4l-.058-.058a.964.964,0,0,0-.667-.45.771.771,0,0,0-.7.363,2.188,2.188,0,0,0-.479.623,7.523,7.523,0,0,0-.362.826V-2a1.342,1.342,0,0,0,1.015,1.45l.928.261V0Zm17.516.435A9.019,9.019,0,0,1,266.974.1a11.9,11.9,0,0,1-2.088-.827l.029-3.451h.29l.986,1.74A5.22,5.22,0,0,0,267.6-.711a3.217,3.217,0,0,0,1.958.566A3.728,3.728,0,0,0,271.8-.768a1.962,1.962,0,0,0,.855-1.667A2.12,2.12,0,0,0,272.049-4a5.537,5.537,0,0,0-2.262-1.1l-1.218-.377a5.989,5.989,0,0,1-2.784-1.624,3.835,3.835,0,0,1-1.015-2.7,4.178,4.178,0,0,1,1.508-3.248,6.318,6.318,0,0,1,4.321-1.334,8.887,8.887,0,0,1,2.132.246,8.36,8.36,0,0,1,1.928.74l-.174,3.132h-.29l-1.015-1.8a4.337,4.337,0,0,0-1.087-1.349,2.725,2.725,0,0,0-1.61-.391,3.409,3.409,0,0,0-1.856.551,1.751,1.751,0,0,0-.87,1.566,1.886,1.886,0,0,0,.74,1.566,7.542,7.542,0,0,0,2.189,1.073l1.305.377a5.967,5.967,0,0,1,2.987,1.754,4.143,4.143,0,0,1,.9,2.683,4.06,4.06,0,0,1-1.668,3.393A7.559,7.559,0,0,1,269.526.435Zm13.137,0a4.158,4.158,0,0,1-2.885-.928,3.8,3.8,0,0,1-1.03-2.958v-9.918h-2v-.29l.7-.116a5.519,5.519,0,0,0,1.552-.58,6.308,6.308,0,0,0,1.29-1.015l2.378-2.639h.29l-.087,4.06h3.248v.58h-3.277v10.44a2.3,2.3,0,0,0,.449,1.537,1.445,1.445,0,0,0,1.146.522,1.911,1.911,0,0,0,1.073-.3A4.758,4.758,0,0,0,286.433-2l.29.29a4.277,4.277,0,0,1-1.6,1.566A4.895,4.895,0,0,1,282.663.435Zm10.034,0A4.888,4.888,0,0,1,290.624,0a3.2,3.2,0,0,1-1.479-1.407,5.1,5.1,0,0,1-.507-2.566l.087-7.453a1.545,1.545,0,0,0-.232-.957,1.262,1.262,0,0,0-.725-.406l-.348-.116v-.29l5.191-1.015.29.29L292.755-9.8v6.989a1.652,1.652,0,0,0,.536,1.363,2.072,2.072,0,0,0,1.349.435,4.225,4.225,0,0,0,1.45-.232,5.2,5.2,0,0,0,1.276-.7l.116-9.454a1.64,1.64,0,0,0-.2-.943,1.212,1.212,0,0,0-.754-.391l-.29-.087v-.29l5.075-1.1.29.29L301.513-9.8v7.859a2.252,2.252,0,0,0,.174.986,1.353,1.353,0,0,0,.754.58l.29.087V0l-5.075.29L297.4-1.421A10.323,10.323,0,0,1,295.322-.1,6,6,0,0,1,292.7.435ZM309.981.087l-5.133-12.325a2.171,2.171,0,0,0-1.392-1.305l-.406-.116v-.29h7.511v.29l-.522.116q-1.131.29-.7,1.508l3.045,8.091,2.842-8.033a1.466,1.466,0,0,0,.116-.957.923.923,0,0,0-.7-.551l-.725-.174v-.29h4.205v.29l-.841.2a1.929,1.929,0,0,0-.855.435,2.178,2.178,0,0,0-.508.87L311.663.087Zm14.935,0L320.45-12.18a2.084,2.084,0,0,0-1.276-1.305l-.493-.174v-.29h7.1v.29l-.435.116q-1.131.348-.754,1.392l2.7,8.207,2.407-6.38-.551-1.653a4.122,4.122,0,0,0-.421-.972,1.231,1.231,0,0,0-.565-.479l-.493-.232v-.29h6v.29l-.406.174a.8.8,0,0,0-.522.464,1.526,1.526,0,0,0,.116.87l2.668,8.062,2.755-8q.406-1.1-.435-1.392l-.638-.174v-.29h3.48v.29l-.7.2a1.279,1.279,0,0,0-.711.449,3.145,3.145,0,0,0-.392.827L334.718.087h-1.479L330.02-9.4,326.6.087ZM341.417,0V-.29l.754-.174a2.882,2.882,0,0,0,1.087-.449,3.432,3.432,0,0,0,.8-.856l3.132-4.495-3.944-6.264a4.465,4.465,0,0,0-.522-.667,1.5,1.5,0,0,0-.725-.348l-.406-.116v-.29h7.366v.29l-.493.116q-1.015.319-.406,1.276l2.378,3.683,2.581-3.567a1.5,1.5,0,0,0,.3-.826q-.015-.333-.565-.478l-.725-.2v-.29h4.234v.29l-.7.174a2.759,2.759,0,0,0-.986.45,4.084,4.084,0,0,0-.754.856l-3.045,4.118,3.973,6.177A3.225,3.225,0,0,0,356.7-.435l.464.145V0h-8V-.29l.493-.116a.789.789,0,0,0,.624-.479.94.94,0,0,0-.16-.826l-2.552-3.973-2.755,4a.837.837,0,0,0-.217.8.783.783,0,0,0,.595.45l.58.145V0ZM360.76,6.96a2.748,2.748,0,0,1-1.841-.58,1.856,1.856,0,0,1-.681-1.479,1.628,1.628,0,0,1,.58-1.305,1.963,1.963,0,0,1,1.3-.493,2.277,2.277,0,0,1,1.218.3,2.818,2.818,0,0,1,.87.884l.2.232q.638.87,1.276-.029.261-.435.595-1.145t.768-1.9l-5.626-13.456a3.964,3.964,0,0,0-.435-.884,1.759,1.759,0,0,0-.754-.565l-.522-.2v-.29h7.221v.261l-.58.232q-.638.2-.652.652a3.212,3.212,0,0,0,.217,1.116l3.016,7.83,2.871-7.917a2.522,2.522,0,0,0,.174-1.117q-.058-.449-.725-.623l-.609-.145v-.29h4.031v.29l-.638.2a1.675,1.675,0,0,0-.928.58,4.408,4.408,0,0,0-.493,1.044L365.951.9a18.64,18.64,0,0,1-2.262,4.553A3.5,3.5,0,0,1,360.76,6.96ZM373.723,0V-.464l7.917-12.9h-4.379a1.674,1.674,0,0,0-1.189.406,4.45,4.45,0,0,0-.812,1.073l-1.044,1.943h-.29l.2-4h11.6v.406L377.986-.58h4.553a1.861,1.861,0,0,0,1.363-.435,4.549,4.549,0,0,0,.812-1.189l1.015-2.146h.29L385.758,0ZM.232,40v-.29l.725-.261a2.521,2.521,0,0,0,.9-.566,2.482,2.482,0,0,0,.522-.942L8.352,20.8h2.465L16.7,38.057a3.1,3.1,0,0,0,.522.972,2.215,2.215,0,0,0,.9.566l.348.116V40H11.107v-.29l.435-.145a1.106,1.106,0,0,0,.74-.653,1.712,1.712,0,0,0-.043-1l-1.363-4.176H4.437L3.045,37.825a2.168,2.168,0,0,0-.13,1.015q.073.377.681.609l.638.261V40ZM4.64,33.156H10.7L7.772,24.137ZM19.372,40v-.29l.522-.2a1.6,1.6,0,0,0,.8-.58A1.735,1.735,0,0,0,20.909,38V22.861a1.8,1.8,0,0,0-.218-.957,1.468,1.468,0,0,0-.8-.551l-.522-.2v-.29h8.323q3.538,0,5.1,1.291a4.05,4.05,0,0,1,1.566,3.262A3.8,3.8,0,0,1,33.219,28.1a7.062,7.062,0,0,1-3.929,1.7,8.3,8.3,0,0,1,4.669,1.667,4.139,4.139,0,0,1,1.479,3.2,4.7,4.7,0,0,1-.406,1.87,4.558,4.558,0,0,1-1.377,1.725A7.458,7.458,0,0,1,31,39.521,15.9,15.9,0,0,1,26.738,40ZM25.2,29.763h1.247a3.727,3.727,0,0,0,2.8-.9,4.514,4.514,0,0,0,.855-3.132,5.392,5.392,0,0,0-.783-3.306,3.066,3.066,0,0,0-2.552-.986H25.2Zm0,9.657h1.45a4.167,4.167,0,0,0,3.233-1.16,5.256,5.256,0,0,0,1.059-3.625,4.48,4.48,0,0,0-1.015-3.306,4.678,4.678,0,0,0-3.335-.986H25.2Zm21.373,1.1a11.162,11.162,0,0,1-5.089-1.146,8.629,8.629,0,0,1-3.611-3.407A10.732,10.732,0,0,1,36.54,30.43a10.992,10.992,0,0,1,.812-4.379A9.016,9.016,0,0,1,39.57,22.89a9.319,9.319,0,0,1,3.248-1.914,11.83,11.83,0,0,1,3.9-.638,11.625,11.625,0,0,1,3.045.377,11.874,11.874,0,0,1,2.61,1.044l.116,3.567H52.2l-1.45-2.32a6.813,6.813,0,0,0-.638-1,2.227,2.227,0,0,0-.87-.681,4.551,4.551,0,0,0-.856-.3,4.613,4.613,0,0,0-1.058-.1,5.479,5.479,0,0,0-3.059.9,6.1,6.1,0,0,0-2.2,2.972,15.722,15.722,0,0,0-.826,5.67,16.416,16.416,0,0,0,.783,5.64,5.863,5.863,0,0,0,2.132,2.958,5.4,5.4,0,0,0,3.03.885,6.676,6.676,0,0,0,1.479-.131,5.575,5.575,0,0,0,1.1-.392,1.8,1.8,0,0,0,.841-.681,7.129,7.129,0,0,0,.522-.972L52.4,34.925h.29l-.087,4.147a13.325,13.325,0,0,1-2.726,1.044A12.694,12.694,0,0,1,46.574,40.522ZM54.085,40v-.29l.609-.232A1.446,1.446,0,0,0,55.622,38V22.861a1.387,1.387,0,0,0-.928-1.479l-.609-.232v-.29h7.656a11.4,11.4,0,0,1,5.293,1.146,8.114,8.114,0,0,1,3.422,3.277,10.253,10.253,0,0,1,1.2,5.118,9.808,9.808,0,0,1-1.305,5.191,8.49,8.49,0,0,1-3.639,3.277A12.478,12.478,0,0,1,61.219,40Zm5.887-.58h1.247a6.1,6.1,0,0,0,3.364-.826,4.82,4.82,0,0,0,1.87-2.784,19.258,19.258,0,0,0,.594-5.38,19.258,19.258,0,0,0-.594-5.38,4.881,4.881,0,0,0-1.841-2.784,5.839,5.839,0,0,0-3.277-.826H59.972ZM72.181,40v-.29l.667-.261a1.319,1.319,0,0,0,.682-.537A1.864,1.864,0,0,0,73.718,38V22.861a2.152,2.152,0,0,0-.16-.913,1.189,1.189,0,0,0-.711-.536l-.667-.261v-.29H86.072l.174,4.466h-.29L84.709,22.6a3.725,3.725,0,0,0-.551-.841,1.118,1.118,0,0,0-.87-.319h-5.22v8.381h3.1a1.2,1.2,0,0,0,.884-.3,2.717,2.717,0,0,0,.537-.826l.58-1.16h.29v5.22h-.29l-.58-1.218a3.4,3.4,0,0,0-.551-.826,1.148,1.148,0,0,0-.87-.3h-3.1V39.42h5.858a1.25,1.25,0,0,0,.9-.3,2.225,2.225,0,0,0,.522-.856l1.189-2.726h.29L86.652,40Zm16.1,0v-.29l.522-.174a1.39,1.39,0,0,0,.783-.551,1.835,1.835,0,0,0,.2-.928q.029-1.74.029-3.509V26.355q0-1.754-.029-3.494a2.255,2.255,0,0,0-.159-.928,1.169,1.169,0,0,0-.711-.551l-.638-.232v-.29h14.036l.2,4.814h-.29l-1.653-3.045a2.875,2.875,0,0,0-.667-.87,1.567,1.567,0,0,0-1.044-.319H94.192q-.029,2.059-.029,4.2v4.263h3.016a1.43,1.43,0,0,0,.986-.29,3.049,3.049,0,0,0,.609-.841l.609-1.1h.29V32.75h-.29l-.638-1.1a4.1,4.1,0,0,0-.595-.841,1.292,1.292,0,0,0-.971-.319H94.163V34.36q0,1.841.029,3.611a1.427,1.427,0,0,0,1.1,1.479l.87.261V40Zm25.23.522A10.653,10.653,0,0,1,108.3,39.29a8.757,8.757,0,0,1-3.509-3.509A10.928,10.928,0,0,1,103.53,30.4a10.759,10.759,0,0,1,1.247-5.278,8.693,8.693,0,0,1,3.61-3.524,12.023,12.023,0,0,1,5.728-1.261,11.174,11.174,0,0,1,2.856.348A10.666,10.666,0,0,1,119.48,21.7l.116,4.06h-.29l-1.624-3.016a4.375,4.375,0,0,0-.7-1.044,2.13,2.13,0,0,0-.812-.493,7.423,7.423,0,0,0-.855-.218,5.872,5.872,0,0,0-1.03-.073,5.428,5.428,0,0,0-3.175.957,6.07,6.07,0,0,0-2.132,3.045,16.476,16.476,0,0,0-.754,5.481,17.579,17.579,0,0,0,.711,5.481,6.149,6.149,0,0,0,2.015,3.089,4.915,4.915,0,0,0,3.016.972,2.915,2.915,0,0,0,.507-.044q.247-.043.479-.1a.878.878,0,0,0,.725-.464,2.131,2.131,0,0,0,.174-.9V32.692a1.314,1.314,0,0,0-1.16-1.392l-1.334-.348v-.29h8.178v.29l-.406.116a1.41,1.41,0,0,0-1.1,1.45v6.293a14.08,14.08,0,0,1-3.06,1.276A12.829,12.829,0,0,1,113.506,40.522ZM122.322,40v-.29l.58-.232a1.317,1.317,0,0,0,.769-.551,1.88,1.88,0,0,0,.188-.9V22.861a1.952,1.952,0,0,0-.188-.928,1.317,1.317,0,0,0-.769-.551l-.58-.232v-.29h7.366v.29l-.493.2a1.412,1.412,0,0,0-.754.537,1.753,1.753,0,0,0-.2.913V29.85h6.931V22.8a1.864,1.864,0,0,0-.188-.913,1.346,1.346,0,0,0-.768-.537l-.522-.2v-.29h7.395v.29l-.58.232a1.379,1.379,0,0,0-.754.551,1.835,1.835,0,0,0-.2.928V38.028a1.768,1.768,0,0,0,.2.9,1.379,1.379,0,0,0,.754.551l.58.232V40H133.69v-.29l.522-.174a1.465,1.465,0,0,0,.768-.565,1.864,1.864,0,0,0,.188-.914V30.43h-6.931v7.627a1.477,1.477,0,0,0,.957,1.479l.493.174V40Zm20.039,0v-.29l.58-.232a1.317,1.317,0,0,0,.768-.551A1.952,1.952,0,0,0,143.9,38V22.861a2.09,2.09,0,0,0-.174-.928,1.265,1.265,0,0,0-.783-.551l-.58-.232v-.29h7.453v.29l-.58.232a1.317,1.317,0,0,0-.769.551,1.952,1.952,0,0,0-.188.928V38a1.864,1.864,0,0,0,.188.913,1.465,1.465,0,0,0,.769.566l.58.232V40Zm11.252.522a3.719,3.719,0,0,1-2.189-.551,1.73,1.73,0,0,1-.768-1.479,1.479,1.479,0,0,1,.565-1.247,2.1,2.1,0,0,1,1.32-.435,2.628,2.628,0,0,1,1.334.333,3.176,3.176,0,0,1,1.073,1.146l.522.9a.432.432,0,0,0,.363.2q.218,0,.3-.261a8.11,8.11,0,0,0,.246-1.7q.073-1.116.073-2.711,0-1.827-.087-4.7t-.174-7.076a1.454,1.454,0,0,0-.928-1.566l-.667-.232v-.29h7.6v.29l-.638.232a1.324,1.324,0,0,0-.71.537,1.936,1.936,0,0,0-.188.942V28.6a34.777,34.777,0,0,1-.261,4.7,12.783,12.783,0,0,1-.841,3.219,5.776,5.776,0,0,1-2.364,2.972A6.6,6.6,0,0,1,153.613,40.522ZM163.3,40v-.29l.609-.232a1.248,1.248,0,0,0,.754-.551,2.012,2.012,0,0,0,.174-.9V22.861a2.09,2.09,0,0,0-.174-.928,1.248,1.248,0,0,0-.754-.551l-.609-.232v-.29h7.221v.29l-.638.261a1.11,1.11,0,0,0-.667.522,2.17,2.17,0,0,0-.174.957V38.057a1.778,1.778,0,0,0,.188.9,1.366,1.366,0,0,0,.74.522l.551.232V40ZM174,40v-.29l.377-.116q.58-.174.609-.58a1.468,1.468,0,0,0-.348-.928l-5.6-7.917,7.366-7.482a1.38,1.38,0,0,0,.449-.783q.044-.377-.565-.58l-.493-.174v-.29h4.234v.29l-.754.232a3.31,3.31,0,0,0-1.015.493,9.273,9.273,0,0,0-.87.783l-5.22,5.307,6.844,9.947a8.03,8.03,0,0,0,.826,1.044,2.636,2.636,0,0,0,1.117.638l.406.116V40Zm8.265,0v-.29l.609-.232a1.32,1.32,0,0,0,.769-.566A2.151,2.151,0,0,0,183.8,38V22.861a2.09,2.09,0,0,0-.174-.928,1.248,1.248,0,0,0-.754-.551l-.609-.232v-.29h7.4v.29l-.522.232a1.351,1.351,0,0,0-.754.566,1.919,1.919,0,0,0-.2.943V39.42h4.466a2.119,2.119,0,0,0,1.58-.522,5.568,5.568,0,0,0,.972-1.508l1.131-2.436h.29L196.359,40Zm15.486,0v-.29l.58-.2a1.517,1.517,0,0,0,.986-1.653V23.006a2.7,2.7,0,0,0-.13-.928,1.136,1.136,0,0,0-.682-.58l-.754-.348v-.29h5.6L208.713,34.9l5.046-14.036h5.713v.29l-.464.174a1.351,1.351,0,0,0-.754.566,1.919,1.919,0,0,0-.2.942V38a2.231,2.231,0,0,0,.145.9,1.245,1.245,0,0,0,.7.551l.58.261V40h-7.221v-.29l.609-.261a1.245,1.245,0,0,0,.7-.551,2.231,2.231,0,0,0,.145-.9V31.474l.058-8.294L207.7,40h-1.45l-6.322-16.617.087,7.221v7.308a2.389,2.389,0,0,0,.189,1.03,1.145,1.145,0,0,0,.74.565l.638.2V40Zm23.374,0v-.29l.957-.29a1.174,1.174,0,0,0,.754-.565,2.041,2.041,0,0,0,.232-1V23.905q-.319-.7-.507-1.044a2.824,2.824,0,0,0-.421-.595q-.232-.246-.638-.623l-.493-.493v-.29h5.133L235.77,34V23.064a2.752,2.752,0,0,0-.189-1.044,1.034,1.034,0,0,0-.768-.609l-.957-.261v-.29H238v.29l-.783.261a.885.885,0,0,0-.638.609,3.962,3.962,0,0,0-.116,1.015V40.087h-1.624L223.764,24.862V37.854a2.5,2.5,0,0,0,.174.986,1.08,1.08,0,0,0,.725.58l.87.29V40Zm27.057.522a9.31,9.31,0,0,1-3.408-.638,8.641,8.641,0,0,1-2.929-1.9,9.007,9.007,0,0,1-2.044-3.146,11.823,11.823,0,0,1-.754-4.408,11.737,11.737,0,0,1,.754-4.379,8.828,8.828,0,0,1,5-5.06,9.053,9.053,0,0,1,3.378-.652,9.5,9.5,0,0,1,3.408.623,8.459,8.459,0,0,1,2.929,1.885,8.981,8.981,0,0,1,2.044,3.161,11.938,11.938,0,0,1,.754,4.423,11.765,11.765,0,0,1-.754,4.364,8.981,8.981,0,0,1-2.044,3.161,8.83,8.83,0,0,1-2.929,1.914A9.128,9.128,0,0,1,248.182,40.522Zm0-.609a3.8,3.8,0,0,0,2.581-.855,5.268,5.268,0,0,0,1.436-2.929,28.23,28.23,0,0,0,.449-5.7A28.418,28.418,0,0,0,252.2,24.7a5.268,5.268,0,0,0-1.436-2.929,3.8,3.8,0,0,0-2.581-.856,3.754,3.754,0,0,0-2.552.856,5.268,5.268,0,0,0-1.436,2.929,28.418,28.418,0,0,0-.449,5.728,28.23,28.23,0,0,0,.449,5.7,5.268,5.268,0,0,0,1.436,2.929A3.754,3.754,0,0,0,248.182,39.913Zm9.86.087v-.29l.58-.2a1.215,1.215,0,0,0,.769-.522,1.952,1.952,0,0,0,.188-.928v-15.2a1.835,1.835,0,0,0-.2-.928,1.39,1.39,0,0,0-.783-.551l-.551-.232v-.29h7.047q4.321,0,6.25,1.581a5.117,5.117,0,0,1,1.928,4.161,5.94,5.94,0,0,1-.8,3.031,5.457,5.457,0,0,1-2.624,2.189,12.348,12.348,0,0,1-4.93.812h-.986V37.97a1.433,1.433,0,0,0,1.131,1.479l.87.261V40Zm5.887-7.946h1.1a5.053,5.053,0,0,0,2.32-.464,2.851,2.851,0,0,0,1.334-1.624,9.48,9.48,0,0,0,.435-3.219,8.785,8.785,0,0,0-.479-3.248,2.927,2.927,0,0,0-1.406-1.609,5.307,5.307,0,0,0-2.32-.45h-.986Zm19.749,8.468a9.288,9.288,0,0,1-3.509-.667l-1.276,1.8q1.885.464,4.307,1t4.77,1.029a8.244,8.244,0,0,0,1.7.218,2,2,0,0,0,1.03-.3l.783-.493.232.319-1.479,1.595a8.205,8.205,0,0,1-1.247,1.088,2.344,2.344,0,0,1-1.363.421,11.415,11.415,0,0,1-1.74-.188q-1.131-.189-2.523-.464t-2.784-.58q-1.392-.3-2.523-.536a1.946,1.946,0,0,0-.841-.043,1.354,1.354,0,0,0-.725.449l-.348.348-.348-.261,3.654-5.742a8.745,8.745,0,0,1-3.509-3.349,10.812,10.812,0,0,1-1.392-5.728,11.737,11.737,0,0,1,.754-4.379,8.828,8.828,0,0,1,5-5.06,9.053,9.053,0,0,1,3.379-.652,9.5,9.5,0,0,1,3.408.623,8.46,8.46,0,0,1,2.929,1.885,8.982,8.982,0,0,1,2.044,3.161,11.938,11.938,0,0,1,.754,4.423,11.765,11.765,0,0,1-.754,4.364,8.981,8.981,0,0,1-2.044,3.161,8.83,8.83,0,0,1-2.929,1.914A9.128,9.128,0,0,1,283.678,40.522Zm0-.609a3.8,3.8,0,0,0,2.581-.855,5.268,5.268,0,0,0,1.436-2.929,28.231,28.231,0,0,0,.449-5.7,28.419,28.419,0,0,0-.449-5.728,5.268,5.268,0,0,0-1.436-2.929,3.8,3.8,0,0,0-2.581-.856,3.754,3.754,0,0,0-2.552.856,5.268,5.268,0,0,0-1.435,2.929,28.419,28.419,0,0,0-.449,5.728,28.231,28.231,0,0,0,.449,5.7,5.268,5.268,0,0,0,1.435,2.929A3.754,3.754,0,0,0,283.678,39.913Zm9.86.087v-.29l.609-.2a1.274,1.274,0,0,0,.754-.536,2.073,2.073,0,0,0,.174-.943V22.861a2.152,2.152,0,0,0-.159-.913,1.189,1.189,0,0,0-.711-.536l-.667-.261v-.29h8.294a9.032,9.032,0,0,1,5.249,1.291,4.142,4.142,0,0,1,1.827,3.581,4.242,4.242,0,0,1-.957,2.552,6.061,6.061,0,0,1-3.016,1.972l4.031,8a2.909,2.909,0,0,0,.594.8,3.068,3.068,0,0,0,.885.537l.377.145V40h-5.191l-4.292-9.135h-1.972v7.163a2.012,2.012,0,0,0,.174.9,1.136,1.136,0,0,0,.725.522l.7.261V40Zm5.829-9.715h1.392a3.71,3.71,0,0,0,3.016-1.117,5.094,5.094,0,0,0,.928-3.32,5.264,5.264,0,0,0-.87-3.32A3.542,3.542,0,0,0,300.9,21.44h-1.537ZM317.9,40.522a14.062,14.062,0,0,1-3.248-.391,10.205,10.205,0,0,1-2.755-1.029l.145-3.944h.29l.9,1.885a9.566,9.566,0,0,0,.87,1.436,3.041,3.041,0,0,0,1.276.972,4.293,4.293,0,0,0,1.116.391,6.5,6.5,0,0,0,1.2.1,3.948,3.948,0,0,0,2.8-.957,3.214,3.214,0,0,0,1.029-2.465,3.263,3.263,0,0,0-.7-2.219,7.129,7.129,0,0,0-2.233-1.551l-1.189-.522a12.441,12.441,0,0,1-3.9-2.538,5.214,5.214,0,0,1-1.406-3.813,4.98,4.98,0,0,1,.884-2.958,5.609,5.609,0,0,1,2.465-1.914,9.457,9.457,0,0,1,3.7-.667,10.258,10.258,0,0,1,2.915.406,8.4,8.4,0,0,1,2.392,1.1l-.174,3.48h-.29L322.8,23.151a4.459,4.459,0,0,0-.986-1.436,2.893,2.893,0,0,0-1.131-.595,4.413,4.413,0,0,0-.7-.159,6.205,6.205,0,0,0-.812-.044,3.738,3.738,0,0,0-2.494.856,2.86,2.86,0,0,0-1.015,2.305,3.436,3.436,0,0,0,.783,2.364,6.852,6.852,0,0,0,2.291,1.58l1.334.58a11.475,11.475,0,0,1,4,2.6,5.164,5.164,0,0,1,1.218,3.552,5.17,5.17,0,0,1-1.928,4.161A8.3,8.3,0,0,1,317.9,40.522Zm12.3-.522v-.29l1.189-.29a1.354,1.354,0,0,0,1.189-1.45V21.44h-2.465a1.881,1.881,0,0,0-1.537.565,9.485,9.485,0,0,0-.986,1.552l-1.044,2.03h-.29l.145-4.727h16.733l.116,4.727h-.29l-1.044-2.03a8.408,8.408,0,0,0-.957-1.552,1.881,1.881,0,0,0-1.537-.565h-2.465V37.97a1.354,1.354,0,0,0,1.189,1.45l1.189.29V40Zm23.2.522a9.213,9.213,0,0,1-3.9-.783,5.694,5.694,0,0,1-2.639-2.479,9.208,9.208,0,0,1-.943-4.48v-10a1.416,1.416,0,0,0-1.131-1.45l-.638-.174v-.29h8.033v.29l-.841.232a1.326,1.326,0,0,0-1.073,1.45v10.7a5.933,5.933,0,0,0,1.131,3.987,4.088,4.088,0,0,0,3.248,1.291,4.583,4.583,0,0,0,3.495-1.363,5.392,5.392,0,0,0,1.29-3.857V22.948a2.642,2.642,0,0,0-.189-1.029,1.039,1.039,0,0,0-.768-.595l-.725-.174v-.29h4.06v.29l-.783.2a.918.918,0,0,0-.725.551,2.722,2.722,0,0,0-.174,1.015V33.533a7.759,7.759,0,0,1-.841,3.7,5.945,5.945,0,0,1-2.349,2.436A7.05,7.05,0,0,1,353.394,40.522Zm16.965-.435L364.153,22.8a2.383,2.383,0,0,0-.536-.913,2.13,2.13,0,0,0-.914-.508l-.7-.232v-.29h8.352v.29l-.9.261q-.667.174-.74.609a2.35,2.35,0,0,0,.13,1.073l4.292,12.731,4.321-12.76a3.181,3.181,0,0,0,.217-1.1q-.015-.435-.681-.609l-.754-.2v-.29h4.06v.29l-.783.232a1.26,1.26,0,0,0-.783.508,4.565,4.565,0,0,0-.435.942l-5.8,17.255Zm17.11,0-5.133-17.255a3.2,3.2,0,0,0-.435-.972,2.081,2.081,0,0,0-.812-.565l-.348-.145v-.29h7.685v.29l-.609.232a1.769,1.769,0,0,0-.9.638,1.267,1.267,0,0,0-.029,1.044l3.161,12.064,3.422-10.121-.667-2.059a5.99,5.99,0,0,0-.377-.928,1.287,1.287,0,0,0-.58-.522l-.638-.348v-.29h7.279v.29l-.9.348q-.58.2-.652.595a2.076,2.076,0,0,0,.13,1l3.683,12.325,3.48-12.093a3.161,3.161,0,0,0,.145-1.218q-.058-.522-.725-.754l-.609-.2v-.29h4.031v.29l-.754.29a1.386,1.386,0,0,0-.812.638,5.207,5.207,0,0,0-.406,1.073l-4.814,16.936h-2l-4.35-13.63-4.466,13.63ZM407.624,40v-.29l.493-.145a2.509,2.509,0,0,0,.957-.536,5.1,5.1,0,0,0,.7-.855l4.466-6.9-5.075-8.642q-.29-.493-.493-.769a1.785,1.785,0,0,0-.754-.507l-.464-.2v-.29h7.772v.29l-.667.2q-.609.2-.667.638a1.72,1.72,0,0,0,.29,1.044l2.987,5.075,3.19-5.046a2.978,2.978,0,0,0,.449-1.1q.073-.493-.594-.667l-.58-.145v-.29h4.031v.29l-.754.232a1.716,1.716,0,0,0-.855.478,6.328,6.328,0,0,0-.624.827l-3.886,6.061,5.51,9.425a3.95,3.95,0,0,0,.609.8,2.865,2.865,0,0,0,.812.507l.551.232V40H416.9v-.29l.667-.174q.7-.174.783-.638a1.538,1.538,0,0,0-.29-1.073l-3.451-5.887-3.8,6a1.515,1.515,0,0,0-.3,1.044.743.743,0,0,0,.624.609l.406.116V40Zm22.3,0v-.29l.87-.232a1.342,1.342,0,0,0,1.015-1.45v-5.51l-4.785-9.744a4.771,4.771,0,0,0-.479-.87,1.684,1.684,0,0,0-.652-.493l-.522-.261v-.29h7.772v.29l-.522.2q-.638.261-.7.71a2.2,2.2,0,0,0,.232,1.117l3.422,7.6,3.828-7.888a1.758,1.758,0,0,0,.189-.957.711.711,0,0,0-.624-.638l-.406-.145v-.29h3.48v.29l-.551.2a1.679,1.679,0,0,0-.812.566,5.892,5.892,0,0,0-.522.913l-3.973,8.352v6.844a1.814,1.814,0,0,0,.217.943,1.2,1.2,0,0,0,.768.507l.9.232V40Zm12.9,0v-.348L452.893,21.44h-5.51a2.565,2.565,0,0,0-1.551.435,3.848,3.848,0,0,0-1.059,1.276L443.439,25.5h-.29l.2-4.64h14.181v.348L447.47,39.42h6.322a2.379,2.379,0,0,0,1.523-.449,4.23,4.23,0,0,0,1.029-1.291l1.247-2.32h.29l-.2,4.64ZM7.279,80.435a5.894,5.894,0,0,1-3.262-.986,6.814,6.814,0,0,1-2.451-3.1,13.86,13.86,0,0,1-.928-5.51,14.057,14.057,0,0,1,.928-5.553,6.807,6.807,0,0,1,2.451-3.118,5.891,5.891,0,0,1,6.525,0,6.892,6.892,0,0,1,2.465,3.118,13.864,13.864,0,0,1,.943,5.553,13.67,13.67,0,0,1-.943,5.51,6.9,6.9,0,0,1-2.465,3.1A5.894,5.894,0,0,1,7.279,80.435Zm0-.58a2.009,2.009,0,0,0,1.233-.377,2.678,2.678,0,0,0,.826-1.363A12.7,12.7,0,0,0,9.8,75.374q.145-1.754.145-4.538T9.8,66.269a12.8,12.8,0,0,0-.464-2.77,2.678,2.678,0,0,0-.826-1.363,2.009,2.009,0,0,0-1.233-.377,2.009,2.009,0,0,0-1.233.377,2.67,2.67,0,0,0-.826,1.348,12.532,12.532,0,0,0-.464,2.755q-.145,1.784-.145,4.6,0,2.784.145,4.553A12.482,12.482,0,0,0,5.22,78.13a2.67,2.67,0,0,0,.826,1.348A2.009,2.009,0,0,0,7.279,79.855ZM15.37,80v-.29l1.131-.348a1.456,1.456,0,0,0,1.1-1.479V63.847l-2.349.319v-.377a18.763,18.763,0,0,0,3.292-.986,20.773,20.773,0,0,0,2.972-1.479l.377.261-.116,4.147V77.883a1.383,1.383,0,0,0,1.1,1.45l1.189.377V80ZM26.709,66.486l.2-4.118a9.329,9.329,0,0,1,2.16-.841,11.208,11.208,0,0,1,2.914-.348,9.052,9.052,0,0,1,3.741.652,4.514,4.514,0,0,1,2.088,1.784,4.928,4.928,0,0,1,.667,2.552,5.505,5.505,0,0,1-1.943,3.9,39.546,39.546,0,0,1-5.307,4.191q-.638.464-1.508,1.131T28.1,76.694H38.976V80H26.216V77.564q1.044-1.015,2.045-2.016l1.9-1.9a23.284,23.284,0,0,0,3.118-3.813,6.7,6.7,0,0,0,1.029-3.582,6.332,6.332,0,0,0-.725-3.233,2.364,2.364,0,0,0-2.175-1.232,3.245,3.245,0,0,0-1.668.449,3.747,3.747,0,0,0-1.348,1.552L27,66.486ZM47.5,80.435A9.708,9.708,0,0,1,44.326,80a22.916,22.916,0,0,1-2.421-1.015l.319-3.77h.29l1.276,2.349a3.912,3.912,0,0,0,3.538,2.291,2.567,2.567,0,0,0,2.16-1.117,6.479,6.479,0,0,0,.826-3.756,5.93,5.93,0,0,0-.7-3.292,2.691,2.691,0,0,0-2.378-1H45.5v-.58h1.537a2.568,2.568,0,0,0,2.218-.928,5.643,5.643,0,0,0,.682-3.219,5.684,5.684,0,0,0-.667-3.175,2.068,2.068,0,0,0-1.769-.942,2.719,2.719,0,0,0-1.841.638,5.214,5.214,0,0,0-1.2,1.508l-1.305,2.436-.29-.029.29-4.263a12.419,12.419,0,0,1,2.074-.682,11,11,0,0,1,2.566-.275A7.056,7.056,0,0,1,52.418,62.5,4.117,4.117,0,0,1,54,65.79,3.925,3.925,0,0,1,52.78,68.5a6.889,6.889,0,0,1-3.828,1.784,6.768,6.768,0,0,1,4.292,1.595A4.387,4.387,0,0,1,54.578,75.1a4.632,4.632,0,0,1-.856,2.726,5.689,5.689,0,0,1-2.436,1.914A9.349,9.349,0,0,1,47.5,80.435ZM63.887,80V75.3H56.26V73.649l8.5-12.267H67.6V73.156h2.755V75.3H67.6V80Zm-6.351-6.844h6.351V64.021Zm20.706,7.279a13.406,13.406,0,0,1-3-.3,6.779,6.779,0,0,1-2.335-1l.2-3.654h.29l1.334,2.378a3.821,3.821,0,0,0,1.421,1.522,3.687,3.687,0,0,0,1.856.479q3.335,0,3.335-5.075a5.776,5.776,0,0,0-.884-3.48,3.064,3.064,0,0,0-2.625-1.189,6.092,6.092,0,0,0-1.609.217,7.319,7.319,0,0,0-1.465.565l-.522-.319.638-8.961h10.15V64.92h-9.57l-.406,5.017a7.707,7.707,0,0,1,1.8-.928,6.567,6.567,0,0,1,2.378-.435,8,8,0,0,1,3.35.667A5.22,5.22,0,0,1,84.868,71.2a5.771,5.771,0,0,1,.826,3.175,5.547,5.547,0,0,1-.971,3.306,5.977,5.977,0,0,1-2.654,2.059A9.937,9.937,0,0,1,78.242,80.435Zm16.182,0a6.485,6.485,0,0,1-5-2.059,8.238,8.238,0,0,1-1.9-5.8,10.1,10.1,0,0,1,.87-4.176,11,11,0,0,1,2.479-3.48,12.973,12.973,0,0,1,3.857-2.508,16.445,16.445,0,0,1,5-1.232l.087.435a8.852,8.852,0,0,0-7.8,7.946,7.315,7.315,0,0,1,3.77-.986,5.437,5.437,0,0,1,2.929.725,4.642,4.642,0,0,1,1.755,1.957,6.293,6.293,0,0,1,.594,2.77,6.089,6.089,0,0,1-.971,3.494A6.286,6.286,0,0,1,97.6,79.7,7.182,7.182,0,0,1,94.424,80.435Zm-2.668-7.25a14.973,14.973,0,0,0,.623,5.133,2.076,2.076,0,0,0,3.915.275,10.27,10.27,0,0,0,.623-4.219,8.017,8.017,0,0,0-.638-3.8A2.24,2.24,0,0,0,94.192,69.5a4.412,4.412,0,0,0-2.262.609A24.905,24.905,0,0,0,91.756,73.185ZM104.835,80l-.29-.29,10.034-15.08H102.747V61.614h12.76V63.5L108.663,80Zm12.122-4.031a3.5,3.5,0,0,1,1.189-2.61,9.091,9.091,0,0,1,2.929-1.827q-3.683-1.914-3.683-5.22a4.616,4.616,0,0,1,.812-2.74,5.264,5.264,0,0,1,2.218-1.769,7.682,7.682,0,0,1,3.147-.623,6.869,6.869,0,0,1,2.958.565,4.136,4.136,0,0,1,1.784,1.508,3.81,3.81,0,0,1,.594,2.074,3.346,3.346,0,0,1-.464,1.682,5.71,5.71,0,0,1-1.232,1.479,7.557,7.557,0,0,1-1.667,1.1A9.532,9.532,0,0,1,128.8,72.01a4.99,4.99,0,0,1,1.087,3.234,4.566,4.566,0,0,1-1.8,3.77,7.55,7.55,0,0,1-4.814,1.421,7.8,7.8,0,0,1-4.7-1.2A3.848,3.848,0,0,1,116.957,75.969Zm3.828-11.31a4.02,4.02,0,0,0,.319,1.61,4.076,4.076,0,0,0,1.232,1.479,14.033,14.033,0,0,0,2.654,1.581,4.9,4.9,0,0,0,1.1-1.943,7.4,7.4,0,0,0,.232-1.8,4.417,4.417,0,0,0-.783-2.943,2.8,2.8,0,0,0-3.973-.116A2.85,2.85,0,0,0,120.785,64.659ZM120,75.679a4.681,4.681,0,0,0,.928,3.016,3.028,3.028,0,0,0,2.494,1.16,2.655,2.655,0,0,0,2.2-.943,3.8,3.8,0,0,0,.754-2.451,3.407,3.407,0,0,0-.406-1.667,4.455,4.455,0,0,0-1.407-1.436,17.088,17.088,0,0,0-2.77-1.479,2.029,2.029,0,0,1-.29-.145,5.6,5.6,0,0,0-.957,1.146,3.505,3.505,0,0,0-.435,1.189A9.4,9.4,0,0,0,120,75.679Zm25.2-6.728a10.559,10.559,0,0,1-1.363,5.322,11.318,11.318,0,0,1-3.987,4.017,18.048,18.048,0,0,1-6.424,2.291l-.116-.522a11.986,11.986,0,0,0,4.147-1.6,6.791,6.791,0,0,0,2.363-2.639A11.089,11.089,0,0,0,140.853,72a5.174,5.174,0,0,1-1.508.652,7.684,7.684,0,0,1-2.03.246,6.368,6.368,0,0,1-2.915-.652,4.963,4.963,0,0,1-2.044-1.9,6.3,6.3,0,0,1,.174-6.279,6.236,6.236,0,0,1,2.451-2.132,7.442,7.442,0,0,1,3.35-.754,6.347,6.347,0,0,1,5.089,2.074A8.454,8.454,0,0,1,145.2,68.951Zm-9.512-2a7.558,7.558,0,0,0,.725,3.813,2.578,2.578,0,0,0,2.378,1.175,4.142,4.142,0,0,0,2.117-.522q.058-.638.087-1.29t.029-1.378a26.137,26.137,0,0,0-.261-4.191,4.327,4.327,0,0,0-.841-2.16,2.012,2.012,0,0,0-1.566-.638,2.151,2.151,0,0,0-2,1.218A8.746,8.746,0,0,0,135.691,66.95Zm25.752,18.1a18.561,18.561,0,0,1-5.032-5.829,15.522,15.522,0,0,1,0-14.558,18.561,18.561,0,0,1,5.032-5.829l.348.319a21.238,21.238,0,0,0-2.407,4.089,17.85,17.85,0,0,0-1.232,4.118,29.231,29.231,0,0,0,0,9.178,17.823,17.823,0,0,0,1.232,4.132,22.009,22.009,0,0,0,2.407,4.118Zm6.525-24.534a2.14,2.14,0,0,1,1.682.681,2.576,2.576,0,0,1,.609,1.784,13.239,13.239,0,0,1-.464,2.8q-.464,1.9-.957,4.191l-.609,3.045h-.551l-.609-3.045q-.464-2.233-.928-4.133a13.274,13.274,0,0,1-.464-2.856,2.576,2.576,0,0,1,.609-1.784A2.14,2.14,0,0,1,167.968,60.512Zm0,19.923a2.442,2.442,0,0,1-1.8-.725,2.556,2.556,0,1,1,1.8.725Zm16.356,4a10.993,10.993,0,0,1-5.409-1.276,8.946,8.946,0,0,1-3.567-3.553,10.8,10.8,0,0,1-1.262-5.321,13.905,13.905,0,0,1,.914-5,13.143,13.143,0,0,1,2.639-4.263,12.584,12.584,0,0,1,4.147-2.958,13.057,13.057,0,0,1,5.408-1.088,10.578,10.578,0,0,1,5.336,1.247,8.381,8.381,0,0,1,3.306,3.364,10.6,10.6,0,0,1,.551,8.222,8.777,8.777,0,0,1-1.537,2.668,7.073,7.073,0,0,1-2.146,1.726,5.23,5.23,0,0,1-2.407.609,3.116,3.116,0,0,1-2.349-.841,3.375,3.375,0,0,1-.957-1.943,6.418,6.418,0,0,1-1.929,2.1,3.948,3.948,0,0,1-2.16.681,3.178,3.178,0,0,1-2.335-1.015,4.261,4.261,0,0,1-1-3.1,8.016,8.016,0,0,1,.624-3.06,11.165,11.165,0,0,1,1.639-2.784,9.02,9.02,0,0,1,2.247-2.03,4.605,4.605,0,0,1,2.451-.769,3.537,3.537,0,0,1,2.32.812l1.856-.638.725.493-1.74,9.657a1.842,1.842,0,0,0,.16,1.32.96.96,0,0,0,.855.478,2.848,2.848,0,0,0,2-1,7.813,7.813,0,0,0,1.653-2.784,11.764,11.764,0,0,0,.667-4.133,8.953,8.953,0,0,0-2.132-6.365,7.543,7.543,0,0,0-5.785-2.277,9.794,9.794,0,0,0-4.5,1.015,10.665,10.665,0,0,0-3.436,2.755,12.494,12.494,0,0,0-2.189,3.944,14.057,14.057,0,0,0-.754,4.582,11.049,11.049,0,0,0,1.16,5.307,7.9,7.9,0,0,0,3.2,3.262,9.552,9.552,0,0,0,4.654,1.117,11.516,11.516,0,0,0,2.32-.232,11.219,11.219,0,0,0,2.2-.7l.174.522a13.685,13.685,0,0,1-2.682.913A12.965,12.965,0,0,1,184.324,84.437Zm.232-7.685a2.37,2.37,0,0,0,1.015-.246,3.706,3.706,0,0,0,1.1-.884l1.45-7.975a1.514,1.514,0,0,0-.7-.522,2.4,2.4,0,0,0-.812-.145,2.483,2.483,0,0,0-1.7.9,7.392,7.392,0,0,0-1.508,2.436,9.108,9.108,0,0,0-.623,3.451,3.917,3.917,0,0,0,.522,2.247A1.507,1.507,0,0,0,184.556,76.752ZM201.4,80l.783-5.075h-3.393V73.852h3.538l.986-6.38h-3.567V66.4h3.712l.783-5.075h.957l-.783,5.075h5.162l.783-5.075h.957L210.54,66.4h3.277v1.073h-3.422l-.986,6.38h3.451v1.073h-3.6L208.481,80h-.957l.783-5.075h-5.162L202.362,80Zm1.885-6.148h5.162l.986-6.38h-5.162Zm18.647,6.583a8.812,8.812,0,0,1-4.452-.971,3,3,0,0,1-1.667-2.712,1.823,1.823,0,0,1,.508-1.348,1.678,1.678,0,0,1,1.232-.508,1.885,1.885,0,0,1,1.247.435,2.37,2.37,0,0,1,.667,1.566l.087.464a3.327,3.327,0,0,0,.8,1.914,2.206,2.206,0,0,0,1.61.58V72.692l-.87-.319a9.564,9.564,0,0,1-3.813-2.218,4.753,4.753,0,0,1-1.349-3.465,5.11,5.11,0,0,1,1.61-3.857,6.593,6.593,0,0,1,4.451-1.653v-2.61h.7v2.61a6.737,6.737,0,0,1,3.988,1.146,3.165,3.165,0,0,1,1.436,2.566,1.841,1.841,0,0,1-.45,1.334,1.636,1.636,0,0,1-1.232.464,1.793,1.793,0,0,1-1.2-.464,2.983,2.983,0,0,1-.769-1.74l-.116-.667a3.214,3.214,0,0,0-.522-1.349,1.576,1.576,0,0,0-1.131-.536v6.815l.522.174a9.156,9.156,0,0,1,4.277,2.465,5.227,5.227,0,0,1,1.232,3.451,5.128,5.128,0,0,1-.74,2.741,5.564,5.564,0,0,1-2.1,1.958,7.545,7.545,0,0,1-3.219.87v2.929h-.7v-2.9Zm-2.929-15.486a3.284,3.284,0,0,0,.74,2.2,5.038,5.038,0,0,0,2.247,1.392V61.9a3.808,3.808,0,0,0-1.392.406,3,3,0,0,0-1.146,1A2.822,2.822,0,0,0,219.008,64.949Zm6.525,11.368a2.971,2.971,0,0,0-.638-2.03,5.918,5.918,0,0,0-2.233-1.363v6.9a3.254,3.254,0,0,0,2.1-1.131A3.6,3.6,0,0,0,225.533,76.317Zm10.817,4.292-.58-.406,13.079-19.169.609.406Zm-.551-19.43a3.962,3.962,0,0,1,2.132.623,4.35,4.35,0,0,1,1.609,1.943,8.176,8.176,0,0,1,.609,3.408,8.011,8.011,0,0,1-.609,3.35,4.35,4.35,0,0,1-1.609,1.943,3.955,3.955,0,0,1-4.263,0,4.35,4.35,0,0,1-1.61-1.943,8.011,8.011,0,0,1-.609-3.35,8.176,8.176,0,0,1,.609-3.408,4.35,4.35,0,0,1,1.61-1.943A3.962,3.962,0,0,1,235.8,61.179Zm-1.624,5.974a19.551,19.551,0,0,0,.217,3.364,3.531,3.531,0,0,0,.594,1.6,1.078,1.078,0,0,0,.812.435,1.06,1.06,0,0,0,.826-.435,3.7,3.7,0,0,0,.58-1.609,19.592,19.592,0,0,0,.217-3.35,19.551,19.551,0,0,0-.217-3.364,3.8,3.8,0,0,0-.58-1.61,1.05,1.05,0,0,0-.826-.45,1.078,1.078,0,0,0-.812.435,3.556,3.556,0,0,0-.594,1.609A19.82,19.82,0,0,0,234.175,67.153Zm14.877,1.218a3.962,3.962,0,0,1,2.132.623,4.349,4.349,0,0,1,1.609,1.943,8.176,8.176,0,0,1,.609,3.408,8.011,8.011,0,0,1-.609,3.35,4.349,4.349,0,0,1-1.609,1.943,3.955,3.955,0,0,1-4.263,0,4.35,4.35,0,0,1-1.609-1.943,8.011,8.011,0,0,1-.609-3.35,8.176,8.176,0,0,1,.609-3.408,4.35,4.35,0,0,1,1.609-1.943A3.962,3.962,0,0,1,249.052,68.371Zm-1.624,5.974a19.551,19.551,0,0,0,.217,3.364,3.531,3.531,0,0,0,.594,1.6,1.078,1.078,0,0,0,.812.435,1.06,1.06,0,0,0,.827-.435,3.7,3.7,0,0,0,.58-1.609,19.591,19.591,0,0,0,.218-3.35,19.55,19.55,0,0,0-.218-3.364,3.8,3.8,0,0,0-.58-1.61,1.05,1.05,0,0,0-.827-.45,1.078,1.078,0,0,0-.812.435,3.556,3.556,0,0,0-.594,1.609A19.82,19.82,0,0,0,247.428,74.345Zm14.326,6.09a6.921,6.921,0,0,1-3.263-.71,5.065,5.065,0,0,1-2.044-1.87,4.92,4.92,0,0,1-.7-2.581q0-3.509,4.524-5.394a20.238,20.238,0,0,1-1.436-2.233,5.38,5.38,0,0,1-.623-2.639,4.084,4.084,0,0,1,1.464-3.291,5.767,5.767,0,0,1,3.842-1.232,5.59,5.59,0,0,1,3.6,1.029,3.391,3.391,0,0,1,.116,5.206,11.294,11.294,0,0,1-3.306,1.972q.551.609,1.146,1.29t1.233,1.349q.783.87,1.522,1.653t1.493,1.624a12.88,12.88,0,0,0,1.3-2.32,15.639,15.639,0,0,0,.957-2.871,1.086,1.086,0,0,0-.841-1.421l-.2-.087v-.29h3.277v.29l-.261.087a1.852,1.852,0,0,0-1.247,1.334,21.315,21.315,0,0,1-1.073,3.074,15.049,15.049,0,0,1-1.479,2.639l3.1,3.277a4.667,4.667,0,0,0,.754.667q.377.261.841.522l.406.2V80H269l-1.943-2.088a12.272,12.272,0,0,1-1.247,1.189,5.886,5.886,0,0,1-1.682.957A6.67,6.67,0,0,1,261.754,80.435Zm1.827-12.122a6.952,6.952,0,0,0,1.638-2.045,5.078,5.078,0,0,0,.508-2.277,2.819,2.819,0,0,0-.58-1.841,1.947,1.947,0,0,0-1.6-.71,2.074,2.074,0,0,0-1.6.7,2.517,2.517,0,0,0-.638,1.769,4.319,4.319,0,0,0,.246,1.392,7.012,7.012,0,0,0,.884,1.653q.174.232.464.551T263.581,68.313Zm-.145,10.179a5.173,5.173,0,0,0,1.827-.3,5.045,5.045,0,0,0,1.392-.769q-.7-.783-1.45-1.638t-1.421-1.639q-.812-.957-1.581-1.914t-1.522-1.856a4.189,4.189,0,0,0-1.1,1.624,5.488,5.488,0,0,0-.348,1.943,4.662,4.662,0,0,0,1.174,3.262A3.911,3.911,0,0,0,263.436,78.492Zm14.935,6.119-.174-.406a4.338,4.338,0,0,0,1.493-1.465,6.009,6.009,0,0,0,.711-2.132l-.957-.406a3.223,3.223,0,0,1-1.29-1.059,2.318,2.318,0,0,1,1.957-3.7,2.27,2.27,0,0,1,1.784.769,3.241,3.241,0,0,1,.681,2.218,6.126,6.126,0,0,1-.652,2.856,7.3,7.3,0,0,1-1.609,2.117A5.887,5.887,0,0,1,278.371,84.611ZM288.9,80.435a2.407,2.407,0,0,1-1.769-.725,2.373,2.373,0,0,1-.725-1.74,2.47,2.47,0,0,1,.725-1.769,2.452,2.452,0,0,1,3.538,0,2.47,2.47,0,0,1,.725,1.769,2.373,2.373,0,0,1-.725,1.74A2.407,2.407,0,0,1,288.9,80.435Zm11.687-6.96-.261-4.93a4.9,4.9,0,0,0,2.2-1.537,3.9,3.9,0,0,0,.841-2.523,5.065,5.065,0,0,0-.638-2.741,1.863,1.863,0,0,0-1.6-1,1.535,1.535,0,0,0-1.29.58,4.369,4.369,0,0,0-.711,1.566l-.377,1.392a2.331,2.331,0,0,1-.885,1.407,1.855,1.855,0,0,1-1.3.334,1.882,1.882,0,0,1-1.174-.624,2.081,2.081,0,0,1-.493-1.465,2.71,2.71,0,0,1,.855-2,5.772,5.772,0,0,1,2.189-1.305,8.414,8.414,0,0,1,2.784-.464,7.525,7.525,0,0,1,4.6,1.247,4.373,4.373,0,0,1,1.668,3.741,4.893,4.893,0,0,1-.841,2.9,6.493,6.493,0,0,1-2.16,1.928,12.761,12.761,0,0,1-2.741,1.146l-.145,2.349Zm.029,6.96a2.455,2.455,0,0,1-1.784-.725,2.468,2.468,0,0,1,0-3.523,2.431,2.431,0,0,1,1.784-.74,2.37,2.37,0,0,1,1.784.74,2.539,2.539,0,0,1,0,3.523A2.394,2.394,0,0,1,300.614,80.435Zm11.658-10a2.407,2.407,0,0,1-1.769-.725,2.373,2.373,0,0,1-.725-1.74A2.47,2.47,0,0,1,310.5,66.2a2.452,2.452,0,0,1,3.538,0,2.47,2.47,0,0,1,.725,1.769,2.373,2.373,0,0,1-.725,1.74A2.407,2.407,0,0,1,312.272,70.43Zm0,10a2.407,2.407,0,0,1-1.769-.725,2.373,2.373,0,0,1-.725-1.74A2.47,2.47,0,0,1,310.5,76.2a2.452,2.452,0,0,1,3.538,0,2.47,2.47,0,0,1,.725,1.769,2.373,2.373,0,0,1-.725,1.74A2.407,2.407,0,0,1,312.272,80.435Zm8.7-10a2.407,2.407,0,0,1-1.769-.725,2.373,2.373,0,0,1-.725-1.74A2.47,2.47,0,0,1,319.2,66.2a2.452,2.452,0,0,1,3.538,0,2.47,2.47,0,0,1,.725,1.769,2.373,2.373,0,0,1-.725,1.74A2.407,2.407,0,0,1,320.972,70.43Zm-1.827,14.181-.174-.406a4.338,4.338,0,0,0,1.493-1.465,6.009,6.009,0,0,0,.711-2.132l-.957-.406a3.223,3.223,0,0,1-1.29-1.059,2.318,2.318,0,0,1,1.957-3.7,2.27,2.27,0,0,1,1.784.769,3.241,3.241,0,0,1,.681,2.218,6.126,6.126,0,0,1-.652,2.856,7.3,7.3,0,0,1-1.609,2.117A5.887,5.887,0,0,1,319.145,84.611ZM327,58.83a18.562,18.562,0,0,1,5.031,5.829,15.522,15.522,0,0,1,0,14.558A18.562,18.562,0,0,1,327,85.046l-.348-.319a21.238,21.238,0,0,0,2.407-4.089A17.85,17.85,0,0,0,330.3,76.52a29.232,29.232,0,0,0,0-9.178,17.824,17.824,0,0,0-1.233-4.132,22.009,22.009,0,0,0-2.407-4.118Z" transform="translate(20838 2070)"/></g></svg>