<svg xmlns="http://www.w3.org/2000/svg" xmlns:xlink="http://www.w3.org/1999/xlink" viewBox="0 0 444.189 204.029"><defs><style>.a{filter:url(#a);}</style><filter id="a" x="2.979" y="0" width="414.789" height="65.358" filterUnits="userSpaceOnUse"><feOffset dx="5" dy="3" input="SourceAlpha"/><feGaussianBlur result="b"/><feFlood flood-color="#00e7ff"/><feComposite operator="in" in2="b"/><feComposite in="SourceGraphic"/></filter></defs><g transform="translate(-20839.416 -1941.037)"><g class="a" transform="matrix(1, 0, 0, 1, 20839.42, 1941.04)"><path d="M4.395,0V-50.537h6.592V-6.592H21.973a23.324,23.324,0,0,0,17.095-7.075,23.324,23.324,0,0,0,7.075-17.095,23.324,23.324,0,0,0-7.075-17.095,23.324,23.324,0,0,0-17.095-7.075H4.395v-6.592H21.973a29.63,29.63,0,0,1,21.753,9.009,29.63,29.63,0,0,1,9.009,21.753A29.63,29.63,0,0,1,43.726-9.009,29.63,29.63,0,0,1,21.973,0ZM62.666-44.385l6.592,2.2v2.065a16.894,16.894,0,0,1,10.986-3.823A16.853,16.853,0,0,1,87.5-42.451l-5.273,5.273a8.939,8.939,0,0,0-1.978-.176,10.582,10.582,0,0,0-7.778,3.208,10.582,10.582,0,0,0-3.208,7.778V0H62.666Zm61.172,38.1A21.237,21.237,0,0,1,108.457,0,21.479,21.479,0,0,1,92.9-6.416a21.479,21.479,0,0,1-6.416-15.557A21.166,21.166,0,0,1,92.9-37.485a21.205,21.205,0,0,1,15.557-6.46,21.237,21.237,0,0,1,15.381,6.284v-6.284h6.592V.4l-6.592-2.153ZM97.559-32.827a14.761,14.761,0,0,0-4.482,10.854,14.859,14.859,0,0,0,4.482,10.9,14.859,14.859,0,0,0,10.9,4.482,14.761,14.761,0,0,0,10.854-4.482,14.8,14.8,0,0,0,4.526-10.9,14.772,14.772,0,0,0-4.526-10.854,14.772,14.772,0,0,0-10.854-4.526A14.8,14.8,0,0,0,97.559-32.827ZM147.832-20V0H141.24V-59.766l6.592-2.2v33.4l18.457-15.381H176.4L156.05-26.895,178.594,0H169.98L151.04-22.676Zm41.221-12.832a14.761,14.761,0,0,0-4.482,10.854,14.859,14.859,0,0,0,4.482,10.9,14.859,14.859,0,0,0,10.9,4.482,14.761,14.761,0,0,0,10.854-4.482,14.8,14.8,0,0,0,4.526-10.9,14.772,14.772,0,0,0-4.526-10.854,14.772,14.772,0,0,0-10.854-4.526A14.8,14.8,0,0,0,189.053-32.827ZM215.464-6.416A21.166,21.166,0,0,1,199.951,0a21.479,21.479,0,0,1-15.557-6.416,21.479,21.479,0,0,1-6.416-15.557,21.166,21.166,0,0,1,6.416-15.513,21.205,21.205,0,0,1,15.557-6.46,20.968,20.968,0,0,1,15.513,6.46,20.968,20.968,0,0,1,6.46,15.513A21.205,21.205,0,0,1,215.464-6.416Zm16.3-53.35,6.592-2.2V-8.789a2,2,0,0,0,.659,1.538,2,2,0,0,0,1.538.659,2.158,2.158,0,0,0,1.582-.659,1.672,1.672,0,0,0,.4-.571l5.889,2.988A8.551,8.551,0,0,1,246.8-2.593,8.564,8.564,0,0,1,240.557,0a8.453,8.453,0,0,1-6.24-2.549,8.453,8.453,0,0,1-2.549-6.24Zm30.19,26.938a14.761,14.761,0,0,0-4.482,10.854,14.859,14.859,0,0,0,4.482,10.9,14.859,14.859,0,0,0,10.9,4.482,14.761,14.761,0,0,0,10.854-4.482,14.8,14.8,0,0,0,4.526-10.9,14.772,14.772,0,0,0-4.526-10.854,14.772,14.772,0,0,0-10.854-4.526A14.8,14.8,0,0,0,261.958-32.827ZM288.369-6.416A21.166,21.166,0,0,1,272.856,0,21.479,21.479,0,0,1,257.3-6.416a21.479,21.479,0,0,1-6.416-15.557A21.166,21.166,0,0,1,257.3-37.485a21.205,21.205,0,0,1,15.557-6.46,20.968,20.968,0,0,1,15.513,6.46,20.968,20.968,0,0,1,6.46,15.513A21.205,21.205,0,0,1,288.369-6.416Zm16.392-37.969,6.592,2.2v.967a14.99,14.99,0,0,1,8.789-2.725c4.658,0,8.306,1.494,10.9,4.482l1.187,1.362c.4-.483.835-.967,1.23-1.362a14.761,14.761,0,0,1,10.854-4.482,14.772,14.772,0,0,1,10.854,4.526,14.772,14.772,0,0,1,4.526,10.854V0H353.1V-28.564a8.466,8.466,0,0,0-2.593-6.2,8.466,8.466,0,0,0-6.2-2.593,8.564,8.564,0,0,0-6.24,2.593,8.425,8.425,0,0,0-2.549,6.2V0h-6.592V-28.564a8.466,8.466,0,0,0-2.593-6.2,8.466,8.466,0,0,0-6.2-2.593,8.564,8.564,0,0,0-6.24,2.593,8.425,8.425,0,0,0-2.549,6.2V0h-6.592Zm72.07,6.724a21.237,21.237,0,0,1,15.381-6.284,20.968,20.968,0,0,1,15.513,6.46,20.968,20.968,0,0,1,6.46,15.513,21.205,21.205,0,0,1-6.46,15.557A21.166,21.166,0,0,1,392.212,0a21.237,21.237,0,0,1-15.381-6.284v4.526L370.239.4V-61.523h6.592Zm4.482,26.587a14.859,14.859,0,0,0,10.9,4.482,14.761,14.761,0,0,0,10.854-4.482,14.8,14.8,0,0,0,4.526-10.9,14.772,14.772,0,0,0-4.526-10.854,14.772,14.772,0,0,0-10.854-4.526,14.8,14.8,0,0,0-10.9,4.526,14.761,14.761,0,0,0-4.482,10.854A14.859,14.859,0,0,0,381.313-11.074Z" transform="translate(-1.42 61.96)"/></g><path d="M13.452-2.025A6.843,6.843,0,0,1,8.5,0,6.921,6.921,0,0,1,3.483-2.067,6.921,6.921,0,0,1,1.416-7.08a6.82,6.82,0,0,1,2.067-5A6.833,6.833,0,0,1,8.5-14.16a6.843,6.843,0,0,1,4.956,2.025V-14.16h2.124V.127L13.452-.566ZM4.984-10.578A4.756,4.756,0,0,0,3.54-7.08,4.788,4.788,0,0,0,4.984-3.568,4.788,4.788,0,0,0,8.5-2.124a4.756,4.756,0,0,0,3.5-1.444A4.769,4.769,0,0,0,13.452-7.08a4.76,4.76,0,0,0-1.458-3.5,4.76,4.76,0,0,0-3.5-1.458A4.769,4.769,0,0,0,4.984-10.578Zm16.2-1.558A6.843,6.843,0,0,1,26.14-14.16a6.756,6.756,0,0,1,5,2.082,6.756,6.756,0,0,1,2.082,5,6.833,6.833,0,0,1-2.082,5.013A6.82,6.82,0,0,1,26.14,0a6.843,6.843,0,0,1-4.956-2.025V-.566L19.06.127V-19.824h2.124Zm1.444,8.567A4.788,4.788,0,0,0,26.14-2.124a4.756,4.756,0,0,0,3.5-1.444A4.769,4.769,0,0,0,31.1-7.08a4.76,4.76,0,0,0-1.458-3.5,4.76,4.76,0,0,0-3.5-1.458,4.769,4.769,0,0,0-3.512,1.458,4.756,4.756,0,0,0-1.444,3.5A4.788,4.788,0,0,0,22.628-3.568Zm15.491,1.5A6.921,6.921,0,0,1,36.052-7.08a6.82,6.82,0,0,1,2.067-5,6.833,6.833,0,0,1,5.013-2.082,6.654,6.654,0,0,1,4.248,1.416l-1.515,1.515a4.8,4.8,0,0,0-2.733-.807,4.769,4.769,0,0,0-3.512,1.458,4.756,4.756,0,0,0-1.444,3.5A4.788,4.788,0,0,0,39.62-3.568a4.788,4.788,0,0,0,3.512,1.444,4.724,4.724,0,0,0,2.747-.821L47.394-1.43A6.818,6.818,0,0,1,43.132,0,6.921,6.921,0,0,1,38.119-2.067Zm21.708.042A6.843,6.843,0,0,1,54.871,0a6.921,6.921,0,0,1-5.013-2.067A6.921,6.921,0,0,1,47.791-7.08a6.82,6.82,0,0,1,2.067-5,6.833,6.833,0,0,1,5.013-2.082,6.843,6.843,0,0,1,4.956,2.025v-7.689h2.124V.127L59.827-.566Zm-8.468-8.553a4.756,4.756,0,0,0-1.444,3.5,4.788,4.788,0,0,0,1.444,3.512,4.788,4.788,0,0,0,3.512,1.444,4.756,4.756,0,0,0,3.5-1.444A4.769,4.769,0,0,0,59.827-7.08a4.76,4.76,0,0,0-1.458-3.5,4.76,4.76,0,0,0-3.5-1.458A4.769,4.769,0,0,0,51.359-10.578ZM76.989-8.5a4.586,4.586,0,0,0-1.246-2.1,4.788,4.788,0,0,0-3.512-1.444,4.756,4.756,0,0,0-3.5,1.444,4.714,4.714,0,0,0-1.26,2.1ZM67.317-6.372a4.734,4.734,0,0,0,1.416,2.79,4.76,4.76,0,0,0,3.5,1.458,4.724,4.724,0,0,0,2.747-.821L76.493-1.43A6.818,6.818,0,0,1,72.231,0a6.921,6.921,0,0,1-5.013-2.067A6.921,6.921,0,0,1,65.151-7.08a6.82,6.82,0,0,1,2.067-5,6.833,6.833,0,0,1,5.013-2.082,6.756,6.756,0,0,1,5,2.082,6.756,6.756,0,0,1,2.082,5v.708Zm15.6-8.5a4.756,4.756,0,0,1,1.444-3.5,4.769,4.769,0,0,1,3.512-1.458,4.976,4.976,0,0,1,3.54,1.416l-1.487,1.5a2.988,2.988,0,0,0-2.053-.793,2.759,2.759,0,0,0-2.011.835,2.715,2.715,0,0,0-.821,2v.708H90v2.124H85.046V0H82.922V-12.036H80.09V-14.16h2.832ZM103-2.025A6.843,6.843,0,0,1,98.045,0a6.921,6.921,0,0,1-5.013-2.067A6.921,6.921,0,0,1,90.965-7.08a6.82,6.82,0,0,1,2.067-5,6.833,6.833,0,0,1,5.013-2.082A6.843,6.843,0,0,1,103-12.135v-1.458l2.124-.708V-1.416a6.77,6.77,0,0,1-2.082,4.984,6.756,6.756,0,0,1-5,2.082,6.779,6.779,0,0,1-5-2.082c-.014,0-.014,0-.028-.014l1.5-1.5c.014.014.014.014.028.014a4.715,4.715,0,0,0,3.5,1.458,4.76,4.76,0,0,0,3.5-1.458A4.751,4.751,0,0,0,103-1.416Zm-8.468-8.553a4.756,4.756,0,0,0-1.444,3.5,4.788,4.788,0,0,0,1.444,3.512,4.788,4.788,0,0,0,3.512,1.444,4.756,4.756,0,0,0,3.5-1.444A4.769,4.769,0,0,0,103-7.08a4.76,4.76,0,0,0-1.458-3.5,4.76,4.76,0,0,0-3.5-1.458A4.769,4.769,0,0,0,94.533-10.578Zm14.075-9.388,2.124.708v6.33a5.444,5.444,0,0,1,3.54-1.232A5.451,5.451,0,0,1,118.28-12.5,5.451,5.451,0,0,1,119.937-8.5V0h-2.124V-8.5A3.41,3.41,0,0,0,116.779-11a3.41,3.41,0,0,0-2.506-1.034A3.41,3.41,0,0,0,111.766-11a3.378,3.378,0,0,0-1.034,2.492V0h-2.124Zm14.16,3.682v-2.832h2.124v2.832Zm4.248,0v-2.832h2.124v2.832Zm0,2.124h2.124V2.818a2.728,2.728,0,0,1-.835,2,2.8,2.8,0,0,1-3.993,0,2.191,2.191,0,0,1-.538-.722l1.9-.963.142.184a.643.643,0,0,0,.5.212.7.7,0,0,0,.51-.212.683.683,0,0,0,.2-.5Zm-2.124,0V0h-2.124V-14.16Zm9.247,7.717V0h-2.124V-19.258l2.124-.708V-9.2l5.947-4.956h3.257l-6.556,5.494L144.051,0h-2.775l-6.1-7.307Zm11.739-12.815L148-19.966V-2.832a.643.643,0,0,0,.212.5.643.643,0,0,0,.5.212.7.7,0,0,0,.51-.212.539.539,0,0,0,.127-.184l1.9.963a2.755,2.755,0,0,1-.524.722A2.759,2.759,0,0,1,148.71,0,2.724,2.724,0,0,1,146.7-.821a2.724,2.724,0,0,1-.821-2.011Zm8.3,4.956,2.124.708v.312a4.83,4.83,0,0,1,2.832-.878,4.408,4.408,0,0,1,3.512,1.444l.382.439c.127-.156.269-.312.4-.439a4.756,4.756,0,0,1,3.5-1.444,4.76,4.76,0,0,1,3.5,1.458,4.76,4.76,0,0,1,1.458,3.5V0h-2.124V-9.2a2.728,2.728,0,0,0-.835-2,2.728,2.728,0,0,0-2-.835,2.759,2.759,0,0,0-2.011.835,2.715,2.715,0,0,0-.821,2V0h-2.124V-9.2a2.728,2.728,0,0,0-.835-2,2.728,2.728,0,0,0-2-.835,2.759,2.759,0,0,0-2.011.835,2.715,2.715,0,0,0-.821,2V0h-2.124Zm21.1,0,2.124.708v.666a5.444,5.444,0,0,1,3.54-1.232,5.451,5.451,0,0,1,4.007,1.657A5.451,5.451,0,0,1,186.6-8.5V0h-2.124V-8.5A3.41,3.41,0,0,0,183.445-11a3.41,3.41,0,0,0-2.506-1.034A3.41,3.41,0,0,0,178.432-11,3.378,3.378,0,0,0,177.4-8.51V0h-2.124ZM193-10.578a4.756,4.756,0,0,0-1.444,3.5A4.788,4.788,0,0,0,193-3.568a4.788,4.788,0,0,0,3.512,1.444,4.756,4.756,0,0,0,3.5-1.444,4.769,4.769,0,0,0,1.458-3.512,4.76,4.76,0,0,0-1.458-3.5,4.76,4.76,0,0,0-3.5-1.458A4.769,4.769,0,0,0,193-10.578Zm8.51,8.51a6.82,6.82,0,0,1-5,2.067A6.921,6.921,0,0,1,191.5-2.067a6.921,6.921,0,0,1-2.067-5.013,6.82,6.82,0,0,1,2.067-5,6.833,6.833,0,0,1,5.013-2.082,6.756,6.756,0,0,1,5,2.082,6.756,6.756,0,0,1,2.082,5A6.833,6.833,0,0,1,201.513-2.067Zm7.406-10.068a6.843,6.843,0,0,1,4.956-2.025,6.756,6.756,0,0,1,5,2.082,6.756,6.756,0,0,1,2.082,5,6.833,6.833,0,0,1-2.082,5.013,6.82,6.82,0,0,1-5,2.067,6.843,6.843,0,0,1-4.956-2.025V5.65h-2.124V-14.3l2.124.708Zm1.444,8.567a4.788,4.788,0,0,0,3.512,1.444,4.756,4.756,0,0,0,3.5-1.444,4.769,4.769,0,0,0,1.458-3.512,4.76,4.76,0,0,0-1.458-3.5,4.76,4.76,0,0,0-3.5-1.458,4.769,4.769,0,0,0-3.512,1.458,4.756,4.756,0,0,0-1.444,3.5A4.788,4.788,0,0,0,210.363-3.568ZM234.69-2.025A6.843,6.843,0,0,1,229.734,0a6.921,6.921,0,0,1-5.013-2.067,6.921,6.921,0,0,1-2.067-5.013,6.82,6.82,0,0,1,2.067-5,6.833,6.833,0,0,1,5.013-2.082,6.843,6.843,0,0,1,4.956,2.025v-1.458l2.124-.708V5.65H234.69Zm-8.468-1.543a4.788,4.788,0,0,0,3.512,1.444,4.756,4.756,0,0,0,3.5-1.444A4.769,4.769,0,0,0,234.69-7.08a4.76,4.76,0,0,0-1.458-3.5,4.76,4.76,0,0,0-3.5-1.458,4.769,4.769,0,0,0-3.512,1.458,4.756,4.756,0,0,0-1.444,3.5A4.788,4.788,0,0,0,226.223-3.568ZM240.3-14.3l2.124.708v.666a5.444,5.444,0,0,1,3.54-1.232,5.43,5.43,0,0,1,2.336.481l-1.7,1.7a2.88,2.88,0,0,0-.637-.057A3.41,3.41,0,0,0,243.456-11,3.41,3.41,0,0,0,242.422-8.5V0H240.3ZM258-7.108a3.8,3.8,0,0,1,1.458,3A3.559,3.559,0,0,1,258-1.1,5.938,5.938,0,0,1,254.217,0a7.1,7.1,0,0,1-4.673-1.416l1.5-1.487a5.433,5.433,0,0,0,3.172.779c2.082.028,3.115-.637,3.115-1.982a1.842,1.842,0,0,0-.835-1.5,3.256,3.256,0,0,0-2-.623,5.231,5.231,0,0,1-3.37-1.034,3.406,3.406,0,0,1-1.3-2.79,3.62,3.62,0,0,1,1.444-2.931,5.475,5.475,0,0,1,3.512-1.175c.3,0,.595.014.878.042a5.281,5.281,0,0,1-.467-2.053,3.29,3.29,0,0,1,.481-1.77,4.424,4.424,0,0,1,3.639-1.883,4.258,4.258,0,0,1,3.144,1.246,4.074,4.074,0,0,1,1.246,3v1.416h3.54v2.124H263.7v9.2a.643.643,0,0,0,.212.5.643.643,0,0,0,.5.212.7.7,0,0,0,.51-.212.539.539,0,0,0,.127-.184l1.9.963a2.755,2.755,0,0,1-.524.722A2.759,2.759,0,0,1,264.413,0,2.724,2.724,0,0,1,262.4-.821a2.724,2.724,0,0,1-.821-2.011v-9.2h-1.416V-14.16h1.416v-1.416a2.064,2.064,0,0,0-.623-1.5,2.232,2.232,0,0,0-1.643-.623,1.813,1.813,0,0,0-1.784.977,1.892,1.892,0,0,0-.085.566,5.793,5.793,0,0,0,1.643,3.328l-1.5,1.487a4.593,4.593,0,0,0-2.8-.694,3.564,3.564,0,0,0-2.011.552,1.658,1.658,0,0,0-.821,1.43q0,1.7,2.549,1.7A5.115,5.115,0,0,1,258-7.108ZM280.7.127l-2.124-.694v-.666A5.417,5.417,0,0,1,275.033,0a5.451,5.451,0,0,1-4.007-1.657,5.451,5.451,0,0,1-1.657-4.007v-8.5h2.124v8.5a3.41,3.41,0,0,0,1.034,2.506,3.41,3.41,0,0,0,2.506,1.034,3.41,3.41,0,0,0,2.506-1.034,3.378,3.378,0,0,0,1.034-2.492v-8.51H280.7ZM288.768,0l-5.239-14.16h2.266L289.9-3.044l4.106-11.116h2.266L291.034,0Zm13.877,0L299.1-14.16h2.181l2.605,10.394L307.3-14.16h2.011l3.413,10.394,2.605-10.394h2.181L313.973,0H311.75l-3.441-10.748L304.868,0Zm24.072-5.253L322.951,0h-2.605l5.069-7.08-5.069-7.08h2.605l3.767,5.253,3.752-5.253h2.62L328.02-7.08,333.089,0h-2.62Zm8.907-8.907h2.266l4.163,11.271a26.694,26.694,0,0,0,2.775-11.271h2.124a29.357,29.357,0,0,1-8.5,19.81l-1.614-1.388a30.567,30.567,0,0,0,3.852-4.744Zm21.665,2.124h-7.5V-14.16h11.328L353.622-2.124h8.2V0H349.784ZM14.939,27.628H7.646L8.5,25.5h5.565L10.62,17.05,3.71,34H1.416L9.5,14.176h2.237L19.824,34H17.53ZM24.78,24.8V34H22.656V14.176h6.372a5.777,5.777,0,0,1,3.937,1.374,4.973,4.973,0,0,1,1.728,3.724,5.42,5.42,0,0,1-1.444,3.937,4.866,4.866,0,0,1-.382.382,7.771,7.771,0,0,1,.878.736,5.675,5.675,0,0,1,0,8.015A5.451,5.451,0,0,1,29.736,34H26.2V31.876h3.54a3.54,3.54,0,1,0,0-7.08Zm0-8.5v6.372h4.956a2.588,2.588,0,0,0,2.011-.963,3.573,3.573,0,0,0,.821-2.436,3.154,3.154,0,0,0-1.1-2.223,3.762,3.762,0,0,0-2.436-.75Zm17.544,2.28a7.794,7.794,0,0,0,0,11.017,7.515,7.515,0,0,0,5.508,2.28A7.917,7.917,0,0,0,53.4,29.681l1.515,1.487A9.965,9.965,0,0,1,47.833,34a9.911,9.911,0,0,1-9.912-9.912,9.911,9.911,0,0,1,9.912-9.912,9.965,9.965,0,0,1,7.08,2.832l-1.5,1.5A7.879,7.879,0,0,0,47.833,16.3,7.515,7.515,0,0,0,42.325,18.58ZM56.641,34V17.716h2.124v14.16H62.3a7.784,7.784,0,0,0,7.788-7.788A7.784,7.784,0,0,0,62.3,16.3H56.641V14.176H62.3a9.911,9.911,0,0,1,9.912,9.912A9.911,9.911,0,0,1,62.3,34Zm20.532-2.124h9.912V34H75.049V14.176H86.377V16.3h-9.2v6.372h7.788V24.8H77.173Zm23.364-17.7V16.3h-9.2v6.372h7.788V24.8H91.333V34H89.209V14.176ZM115.958,25.5H111V23.38h7.08v7.788A9.965,9.965,0,0,1,111,34a9.911,9.911,0,0,1-9.912-9.912A9.911,9.911,0,0,1,111,14.176a9.965,9.965,0,0,1,7.08,2.832l-1.5,1.5A7.879,7.879,0,0,0,111,16.3a7.784,7.784,0,0,0-7.788,7.788A7.784,7.784,0,0,0,111,31.876a7.793,7.793,0,0,0,4.956-1.671Zm7.08-.708V34h-2.124V14.176h2.124v8.5h9.912v-8.5h2.124V34H132.95V24.8Zm17.644-10.62V34h-2.124V14.176Zm10.946,15.576A4.254,4.254,0,0,1,147.379,34a4.217,4.217,0,0,1-2.86-.935,4.315,4.315,0,0,1-1.388-1.9l1.968-.963a1.767,1.767,0,0,0,.736,1.175,2.544,2.544,0,0,0,1.543.5,2.127,2.127,0,0,0,2.124-2.124V14.176h2.124Zm5.579-5.494V34h-2.124V14.176h2.124v9.742l7.887-9.742h2.733l-7.93,9.8L168.534,34H165.66ZM171.154,34V14.176h2.124v17.7h9.2V34Zm16.737-15.01L186.277,34h-2.138l2.124-19.824h2.251l5.537,16.5,5.537-16.5h2.266L203.977,34h-2.138l-1.614-15.038L195.169,34h-2.237ZM220.7,30.318V14.176h2.124V34H220.7L209.372,17.872V34h-2.124V14.176h2.124Zm9.36-11.739a7.794,7.794,0,0,0,0,11.017,7.788,7.788,0,0,0,13.3-5.508,7.79,7.79,0,0,0-13.3-5.508ZM242.578,31.1a9.912,9.912,0,0,1-16.921-7.009,9.912,9.912,0,1,1,19.824,0A9.547,9.547,0,0,1,242.578,31.1Zm7.859-14.8V34h-2.124V14.176h7.08a5.656,5.656,0,0,1,5.664,5.664,5.656,5.656,0,0,1-5.664,5.664h-3.54V23.38h3.54a3.545,3.545,0,0,0,2.506-6.046,3.41,3.41,0,0,0-2.506-1.034Zm28.391,12.588a7.41,7.41,0,0,0,1.671-4.234c.014-.127.014-.312.014-.552a7.563,7.563,0,0,0-1.954-5.168,7.445,7.445,0,0,0-5.353-2.62c-.127-.014-.312-.014-.552-.014a7.8,7.8,0,0,0-7.717,7.307c-.014.127-.014.3-.014.538a7.8,7.8,0,0,0,7.307,7.717c.127.014.3.014.538.014a7.484,7.484,0,0,0,3.356-.765l1.458,1.643A9.35,9.35,0,0,1,272.838,34c-.17,0-.411-.014-.736-.028a9.477,9.477,0,0,1-6.811-3.328,9.515,9.515,0,0,1-2.492-6.471c0-.156.014-.382.028-.708a9.925,9.925,0,0,1,9.8-9.3c.156,0,.382.014.708.028a9.531,9.531,0,0,1,6.811,3.328,9.657,9.657,0,0,1,2.492,6.57c0,.156-.014.382-.028.708a9.471,9.471,0,0,1-2.365,5.692L283.331,34h-2.846l-6.429-7.321,1.6-1.416Zm9.7-12.588V34H286.4V14.176h7.08a5.656,5.656,0,0,1,5.664,5.664,5.67,5.67,0,0,1-5.168,5.65L299.855,34h-2.577l-5.862-8.5h-1.473V23.38h3.54a3.545,3.545,0,0,0,2.506-6.046,3.41,3.41,0,0,0-2.506-1.034Zm15.123,7.052a4.586,4.586,0,0,1-1.855-3.795,4.774,4.774,0,0,1,1.855-3.866,7.46,7.46,0,0,1,4.8-1.515,9.835,9.835,0,0,1,6.854,2.662l-1.529,1.529a7.6,7.6,0,0,0-5.324-2.067,5.58,5.58,0,0,0-3.3.892,2.788,2.788,0,0,0-1.232,2.365,2.618,2.618,0,0,0,1.232,2.294,6.683,6.683,0,0,0,3.3.963,8.7,8.7,0,0,1,5.069,1.728,4.82,4.82,0,0,1,2.011,3.937,4.746,4.746,0,0,1-2.011,4.007A8.749,8.749,0,0,1,308.026,34q-4.439-.085-6.669-1.855l1.487-1.77a8.39,8.39,0,0,0,5.183,1.5A7.168,7.168,0,0,0,312.033,31a2.823,2.823,0,0,0,1.374-2.521,2.883,2.883,0,0,0-1.388-2.436,6.911,6.911,0,0,0-3.568-1.1A8.4,8.4,0,0,1,303.65,23.352ZM330.8,14.176V16.3h-6.018V34h-2.124V16.3h-6.018V14.176Zm2.336,0h2.124V26.92a4.956,4.956,0,1,0,9.912,0V14.176h2.124V26.92a7.083,7.083,0,0,1-7.08,7.08,7.059,7.059,0,0,1-7.08-7.08ZM358.209,34l-8.085-19.824h2.294l6.91,16.95,6.91-16.95h2.294L360.447,34Zm16.865,0-4.248-19.824h2.181l3.4,15.874,5.338-15.874h2.237l5.338,15.874,3.4-15.874H394.9L390.65,34H388.4l-5.537-16.5L377.326,34Zm28.8-9.912-6.514-9.912h2.563l5.239,7.958,5.225-7.958h2.563l-6.514,9.912L412.953,34H410.39l-5.225-7.958L399.925,34h-2.563Zm17.7.312L414.85,14.176h2.563l5.239,7.958,5.225-7.958h2.563L423.7,24.442V34h-2.124Zm19.81-8.1h-9.232V14.176H444.9l-9.247,17.7h9.955V34H432.154ZM5.126,52.013A8.656,8.656,0,0,0,3.54,57.38V58.8a8.656,8.656,0,0,0,1.586,5.367A4.054,4.054,0,0,0,8.5,65.876a4.01,4.01,0,0,0,3.356-1.713,8.633,8.633,0,0,0,1.6-5.367V57.38a8.633,8.633,0,0,0-1.6-5.367A4.01,4.01,0,0,0,8.5,50.3,4.054,4.054,0,0,0,5.126,52.013ZM15.576,58.8a10.4,10.4,0,0,1-2.223,6.868A6.039,6.039,0,0,1,8.5,68a6.066,6.066,0,0,1-4.871-2.336A10.441,10.441,0,0,1,1.416,58.8V57.38a10.441,10.441,0,0,1,2.209-6.868A6.066,6.066,0,0,1,8.5,48.176a6.039,6.039,0,0,1,4.857,2.336,10.4,10.4,0,0,1,2.223,6.868Zm8.85-8.5h-3.54V48.176H26.55V68H24.426Zm23.01,4.39a3.673,3.673,0,0,0-1.458-3.214,5.435,5.435,0,0,0-3.5-1.175c-2.591,0-4.276.935-5.055,2.818L35.4,52.41q2.018-4.227,7.08-4.234a7.375,7.375,0,0,1,5,1.8,5.944,5.944,0,0,1,2.082,4.715q0,4.567-6.655,6.8c-2.889.949-4.616,2.421-5.168,4.39H50.269V68H35.4v-.708q0-5.586,7.08-7.788C45.667,58.527,47.309,56.913,47.437,54.689Zm17.12,3.71a4.82,4.82,0,0,1,2.011,3.937,4.965,4.965,0,0,1-2.011,4.078A8.351,8.351,0,0,1,59.062,68q-4.439-.085-6.669-1.855l1.487-1.77a8.39,8.39,0,0,0,5.183,1.5,6.756,6.756,0,0,0,4.007-.949,2.955,2.955,0,0,0,1.374-2.591A2.883,2.883,0,0,0,63.055,59.9a7.011,7.011,0,0,0-3.583-1.1V56.672h.014a6.834,6.834,0,0,0,3.384-.892,2.412,2.412,0,0,0,1.345-2.223,2.725,2.725,0,0,0-1.3-2.436A6.78,6.78,0,0,0,59.26,50.3a7.1,7.1,0,0,0-4.9,2.067l-1.529-1.529a9.331,9.331,0,0,1,6.429-2.662A8.383,8.383,0,0,1,64.4,49.62a4.663,4.663,0,0,1,1.94,3.937,4.339,4.339,0,0,1-1.954,3.724c-.17.113-.439.269-.793.481A5.164,5.164,0,0,1,64.556,58.4Zm17.573,5.353V68H80V63.752H69.385l5.664-15.576h2.266L72.429,61.628H80V48.176h2.124V61.628h1.416v2.124ZM86.377,59.5l1.4-11.328h12.758V50.3H89.662l-.637,5.027a6.978,6.978,0,0,1,4.432-1.487,7.107,7.107,0,0,1,7.08,7.08,6.632,6.632,0,0,1-2.082,4.942A8.053,8.053,0,0,1,92.749,68q-4.291.064-6.429-2.082l1.515-1.5c1.005,1.034,2.648,1.515,4.914,1.458a5.989,5.989,0,0,0,4.206-1.515,4.527,4.527,0,0,0,1.458-3.441,4.98,4.98,0,0,0-4.956-4.956,4.978,4.978,0,0,0-3.625,1.473A5.562,5.562,0,0,0,88.5,59.5Zm24.072-4.248a7.158,7.158,0,0,1,5,1.869,5.911,5.911,0,0,1,0,9.006,7.158,7.158,0,0,1-5,1.869,7.242,7.242,0,0,1-5.013-1.869,5.874,5.874,0,0,1-2.067-4.5,14.973,14.973,0,0,1,2.648-8.255,14.594,14.594,0,0,1,5.848-5.2L112.6,50.1a12.166,12.166,0,0,0-5.083,4.772c-.227.382-.453.807-.68,1.26A7.566,7.566,0,0,1,110.449,55.256Zm-3.512,3.37a3.842,3.842,0,0,0,0,6,5.2,5.2,0,0,0,3.512,1.246,5.115,5.115,0,0,0,3.5-1.246,3.819,3.819,0,0,0,0-6,5.115,5.115,0,0,0-3.5-1.246A5.2,5.2,0,0,0,106.938,58.626ZM123.193,68q2.57-10.9,7.193-17.7H120.361V48.176h14.16q-6.33,7.477-9.2,19.81Zm16.341-10.719a4.3,4.3,0,0,1-1.968-3.724,4.651,4.651,0,0,1,1.926-3.937,9.152,9.152,0,0,1,9.87,0,4.663,4.663,0,0,1,1.94,3.937,4.339,4.339,0,0,1-1.954,3.724,5.56,5.56,0,0,1-.793.481,6.148,6.148,0,0,1,.949.637,4.82,4.82,0,0,1,2.011,3.937,4.965,4.965,0,0,1-2.011,4.078A7.835,7.835,0,0,1,144.434,68a7.97,7.97,0,0,1-5.1-1.586,4.99,4.99,0,0,1-2-4.078A4.82,4.82,0,0,1,139.35,58.4a5.164,5.164,0,0,1,.963-.637C139.959,57.55,139.69,57.394,139.534,57.281ZM148,64.913a2.994,2.994,0,0,0,1.388-2.577A2.883,2.883,0,0,0,148,59.9a6.339,6.339,0,0,0-7.151,0,2.883,2.883,0,0,0-1.388,2.436,2.965,2.965,0,0,0,1.374,2.577,6.2,6.2,0,0,0,3.6.963A6.14,6.14,0,0,0,148,64.913Zm-.17-9.133a2.412,2.412,0,0,0,1.345-2.223,2.693,2.693,0,0,0-1.317-2.436,7.589,7.589,0,0,0-6.868,0,2.725,2.725,0,0,0-1.3,2.436,2.385,2.385,0,0,0,1.331,2.223,6.946,6.946,0,0,0,6.811,0Zm13.594,5.14a7.242,7.242,0,0,1-5.013-1.869,5.938,5.938,0,0,1,0-9.006,7.242,7.242,0,0,1,5.013-1.869,7.158,7.158,0,0,1,5,1.869,5.842,5.842,0,0,1,2.082,4.5,14.973,14.973,0,0,1-2.648,8.255A14.594,14.594,0,0,1,160.01,68l-.736-1.926a12.166,12.166,0,0,0,5.083-4.772c.227-.382.453-.807.68-1.26A7.566,7.566,0,0,1,161.426,60.92Zm3.5-3.37a3.819,3.819,0,0,0,0-6,5.115,5.115,0,0,0-3.5-1.246,5.2,5.2,0,0,0-3.512,1.246,3.842,3.842,0,0,0,0,6,5.2,5.2,0,0,0,3.512,1.246A5.115,5.115,0,0,0,164.923,57.55Zm22.7,17.516q-3.632,0-5.721-4.149a22.321,22.321,0,0,1-2.067-10A22.384,22.384,0,0,1,181.9,50.909q2.082-4.142,5.721-4.149v2.124c-1.827,0-3.243,1.175-4.22,3.526a22.421,22.421,0,0,0-1.444,8.51,22.3,22.3,0,0,0,1.444,8.5c.977,2.351,2.393,3.526,4.22,3.526Zm5-9.9V68H190.5V65.168ZM190.5,63.044l-.354-15.576h2.832l-.354,15.576ZM213.238,53.3a6.173,6.173,0,0,0-5.253-2.308,3.471,3.471,0,0,0-.425.014,9.786,9.786,0,0,0-6.854,2.549,8.605,8.605,0,0,0-2.775,6.655,11.14,11.14,0,0,0,1.982,6.613l-1.331,1.728a12.882,12.882,0,0,1-2.775-8.34,10.643,10.643,0,0,1,3.4-8.156,11.838,11.838,0,0,1,8.354-3.172h.042q9.516,0,9.445,11.328-.042,7.115-3.54,7.08a2.567,2.567,0,0,1-2.719-2.308,6.008,6.008,0,0,1-4.078,1.6,4.561,4.561,0,0,1-3.795-1.869,7.4,7.4,0,0,1,.283-9.147,5.923,5.923,0,0,1,4.361-1.728,4.561,4.561,0,0,1,3.795,1.869,6.714,6.714,0,0,1,1.444,4.22v3.823c0,.949.227,1.416.694,1.416h.014c.4,0,.722-.411.963-1.246a14.588,14.588,0,0,0,.453-3.71Q215.008,55.624,213.238,53.3ZM204.7,57.068a4.68,4.68,0,0,0-1.1,3.427,4.827,4.827,0,0,0,.821,2.719,2.6,2.6,0,0,0,2.294,1.246,4.036,4.036,0,0,0,2.719-1.1,4.34,4.34,0,0,0,1.246-3.427,4.827,4.827,0,0,0-.821-2.719,2.6,2.6,0,0,0-2.294-1.246A3.863,3.863,0,0,0,204.7,57.068Zm20.348-1.812-.4,5.664h4.22l.4-5.664Zm-2.535,5.664.4-5.664h-3.03V53.132h3.186l.354-4.956h2.138l-.354,4.956h4.22l.354-4.956h2.138l-.354,4.956h2.478v2.124h-2.634l-.4,5.664h3.03v2.124h-3.186L230.5,68h-2.138l.354-4.956H224.5L224.141,68H222l.354-4.956h-2.478V60.92Zm20.376-15.576h2.124v2.889a9.768,9.768,0,0,1,5.792,2.605l-1.529,1.529a7.6,7.6,0,0,0-5.324-2.067,5.58,5.58,0,0,0-3.3.892,2.788,2.788,0,0,0-1.232,2.365,2.618,2.618,0,0,0,1.232,2.294,6.683,6.683,0,0,0,3.3.963,8.7,8.7,0,0,1,5.069,1.728,4.938,4.938,0,0,1,.014,7.944,8.01,8.01,0,0,1-4.021,1.444v2.889h-2.124V67.972a10.655,10.655,0,0,1-6.032-1.827l1.487-1.77a8.39,8.39,0,0,0,5.183,1.5A7.168,7.168,0,0,0,247.534,65a2.823,2.823,0,0,0,1.374-2.521,2.883,2.883,0,0,0-1.388-2.436,6.911,6.911,0,0,0-3.568-1.1,8.4,8.4,0,0,1-4.8-1.586,4.586,4.586,0,0,1-1.855-3.795,4.748,4.748,0,0,1,1.869-3.866,6.844,6.844,0,0,1,3.724-1.458ZM258.111,69.4,271.238,46.76h2.45L260.561,69.4Zm11.654-9.572a3.555,3.555,0,1,0,2.506-1.034A3.41,3.41,0,0,0,269.765,59.83Zm6.514,6.514a5.675,5.675,0,1,1,1.657-4.007A5.451,5.451,0,0,1,276.279,66.343Zm-19.258-15.01a3.555,3.555,0,1,0,2.506-1.034A3.41,3.41,0,0,0,257.021,51.333Zm6.514,6.514a5.675,5.675,0,1,1,1.657-4.007A5.451,5.451,0,0,1,263.535,57.847Zm29.651,5.494A10.07,10.07,0,0,0,294.22,58.8h2.124a11.665,11.665,0,0,1-1.458,5.848l2.237,1.7-1.09,1.643-2.421-1.855A7.347,7.347,0,0,1,288.556,68a8.4,8.4,0,0,1-5.508-1.869,5.658,5.658,0,0,1-2.28-4.5,5.561,5.561,0,0,1,1.855-4.135,4.98,4.98,0,0,1-1.572-3.229,5.338,5.338,0,0,1,2.138-4.361,8.542,8.542,0,0,1,5.508-1.728,9.545,9.545,0,0,1,6.938,2.832l-1.586,1.416A7.3,7.3,0,0,0,288.7,50.3a6.651,6.651,0,0,0-4.007,1.1,3.4,3.4,0,0,0-1.515,2.86c0,.949,1.289,2.421,3.88,4.39Zm-10.294-1.713a3.687,3.687,0,0,0,1.657,3,6.408,6.408,0,0,0,4.007,1.246,5.343,5.343,0,0,0,3.328-1.062l-5.99-4.6c-.17-.127-.467-.354-.892-.666-.354-.255-.637-.453-.821-.609A3.478,3.478,0,0,0,282.892,61.628Zm15.576,9.19a23.749,23.749,0,0,0,.708-5.65H301.3V68ZM304.84,68V65.168h2.124V68Zm5.749-9.912a4.245,4.245,0,0,0,3-7.25,4.578,4.578,0,0,0-3.427-1.246,4.1,4.1,0,0,0-3.993,2.832l-1.954-.85a6.158,6.158,0,0,1,5.947-4.106,6.6,6.6,0,0,1,4.928,1.869,6.359,6.359,0,0,1,0,9.006,6.067,6.067,0,0,1-3.441,1.784v2.917h-2.124V58.088Zm1.062,7.08V68h-2.124V65.168Zm7.76-8.5V53.84h2.124v2.832Zm0,11.328V65.168h2.124V68Zm4.574,2.818a23.749,23.749,0,0,0,.708-5.65h2.124V68Zm.708-14.146V53.84h2.124v2.832Zm-1.458,16.27q2.761,0,4.206-3.526a21.914,21.914,0,0,0,1.458-8.5,22.088,22.088,0,0,0-1.458-8.51q-1.444-3.526-4.206-3.526V46.76c2.421,0,4.333,1.388,5.707,4.149a22.067,22.067,0,0,1,2.082,10.011,22.087,22.087,0,0,1-2.082,10c-1.374,2.761-3.285,4.149-5.707,4.149Z" transform="translate(20838 2070)"/></g></svg>