<svg xmlns="http://www.w3.org/2000/svg" xmlns:xlink="http://www.w3.org/1999/xlink" viewBox="0 0 600.375 201.398"><defs><style>.a{filter:url(#a);}</style><filter id="a" x="4.074" y="0" width="596.301" height="69.78" filterUnits="userSpaceOnUse"><feOffset dx="5" dy="3" input="SourceAlpha"/><feGaussianBlur result="b"/><feFlood flood-color="#00e7ff"/><feComposite operator="in" in2="b"/><feComposite in="SourceGraphic"/></filter></defs><g transform="translate(-20838.695 -1937.3)"><g class="a" transform="matrix(1, 0, 0, 1, 20838.7, 1937.3)"><path d="M64.8-8.91V-36.27H37.44V-24.3H51.39v9a22.115,22.115,0,0,1-13.05,3.78c-11.16,0-19.08-8.46-19.08-19.98v-.18c0-10.71,8.01-19.62,18.09-19.62,7.29,0,11.61,2.34,16.47,6.39l8.73-10.53c-6.57-5.58-13.41-8.64-24.75-8.64C18.72-64.08,4.77-49.41,4.77-31.5v.18c0,18.63,13.5,32.4,33.12,32.4A40.892,40.892,0,0,0,64.8-8.91Zm61.74-15.12v-.18c0-13.86-11.07-24.93-26.01-24.93-15.03,0-26.19,11.25-26.19,25.11v.18c0,13.86,11.07,24.93,26.01,24.93C115.38,1.08,126.54-10.17,126.54-24.03Zm-13.5.18c0,7.11-4.68,13.14-12.51,13.14-7.56,0-12.69-6.21-12.69-13.32v-.18c0-7.11,4.68-13.14,12.51-13.14,7.56,0,12.69,6.21,12.69,13.32ZM163.53-1.98V-12.96a13.913,13.913,0,0,1-6.75,1.71c-3.06,0-4.41-1.53-4.41-4.68V-36.54h11.34v-11.7H152.37V-60.57H138.69v12.33h-5.76v11.7h5.76v22.86c0,11.16,5.67,14.49,14.04,14.49A20.168,20.168,0,0,0,163.53-1.98ZM217.98,0V-31.23c0-11.07-6.03-17.91-16.38-17.91-6.93,0-10.98,3.69-14.13,7.74V-65.7H173.79V0h13.68V-26.91c0-6.48,3.33-9.81,8.55-9.81s8.28,3.33,8.28,9.81V0Zm53.37,0V-27.99c0-13.05-6.57-20.79-21.51-20.79a42.562,42.562,0,0,0-18.72,3.87l3.42,10.44a35.485,35.485,0,0,1,13.32-2.61c6.84,0,10.35,3.15,10.35,8.82v.81a34.279,34.279,0,0,0-11.79-1.98c-11.43,0-19.44,4.86-19.44,15.39v.18C226.98-4.32,234.45.9,243.54.9c6.66,0,11.25-2.43,14.58-6.12V0ZM258.39-17.01c0,4.95-4.32,8.46-10.71,8.46-4.41,0-7.47-2.16-7.47-5.85v-.18c0-4.32,3.6-6.66,9.45-6.66a21.212,21.212,0,0,1,8.73,1.8ZM356.76,0V-31.41c0-11.61-6.12-17.73-16.29-17.73-6.57,0-11.61,2.7-15.84,7.65-2.52-4.86-7.29-7.65-13.59-7.65-6.93,0-11.07,3.69-14.22,7.74v-6.84H283.14V0h13.68V-26.91c0-6.48,3.15-9.81,8.28-9.81s8.01,3.33,8.01,9.81V0h13.68V-26.91c0-6.48,3.15-9.81,8.28-9.81s8.01,3.33,8.01,9.81V0Zm93.87-17.28v-.18c0-8.46-4.5-12.69-11.79-15.48,4.5-2.52,8.28-6.48,8.28-13.59v-.18c0-9.9-7.92-16.29-20.79-16.29H397.08V0h29.97C441.27,0,450.63-5.76,450.63-17.28ZM433.35-44.19c0,4.68-3.87,6.66-9.99,6.66H410.58V-50.85h13.68c5.85,0,9.09,2.34,9.09,6.48Zm3.51,25.2c0,4.68-3.69,6.84-9.81,6.84H410.58V-26.01H426.6c7.11,0,10.26,2.61,10.26,6.84Zm73.62-5.04v-.18c0-13.86-11.07-24.93-26.01-24.93-15.03,0-26.19,11.25-26.19,25.11v.18c0,13.86,11.07,24.93,26.01,24.93C499.32,1.08,510.48-10.17,510.48-24.03Zm-13.5.18c0,7.11-4.68,13.14-12.51,13.14-7.56,0-12.69-6.21-12.69-13.32v-.18c0-7.11,4.68-13.14,12.51-13.14,7.56,0,12.69,6.21,12.69,13.32ZM534.69,0V-65.7H521.01V0Zm61.38,0V-65.7H582.39v23.76a18.525,18.525,0,0,0-15.03-7.2c-11.43,0-21.96,8.82-21.96,24.93v.18C545.4-7.92,556.11.9,567.36.9c7.11,0,11.7-3.33,15.03-7.83V0Zm-13.5-24.03c0,8.01-5.31,13.32-11.7,13.32s-11.79-5.31-11.79-13.32v-.18c0-8.1,5.4-13.32,11.79-13.32s11.7,5.31,11.7,13.32Z" transform="translate(-0.7 65.7)"/></g><path d="M15.341,0V-9.019c0-4.2-2.117-6.7-6.931-6.7a13.714,13.714,0,0,0-6.032,1.247l1.1,3.364a11.434,11.434,0,0,1,4.292-.841c2.2,0,3.335,1.015,3.335,2.842v.261a11.045,11.045,0,0,0-3.8-.638c-3.683,0-6.264,1.566-6.264,4.959v.058C1.044-1.392,3.451.29,6.38.29a5.977,5.977,0,0,0,4.7-1.972V0ZM11.165-5.481c0,1.595-1.392,2.726-3.451,2.726-1.421,0-2.407-.7-2.407-1.885V-4.7c0-1.392,1.16-2.146,3.045-2.146a6.835,6.835,0,0,1,2.813.58Zm24.3-2.262V-7.8c0-5.191-3.451-8.033-7.076-8.033a5.708,5.708,0,0,0-4.843,2.523V-21.17H19.14V0h4.408V-2.03A5.969,5.969,0,0,0,28.391.29C32.074.29,35.467-2.552,35.467-7.743Zm-4.408,0c0,2.61-1.74,4.292-3.8,4.292s-3.77-1.711-3.77-4.292V-7.8c0-2.581,1.711-4.292,3.77-4.292s3.8,1.711,3.8,4.292ZM52.4-2.494,49.822-5.1a4.924,4.924,0,0,1-3.567,1.653,3.983,3.983,0,0,1-3.944-4.292V-7.8a3.972,3.972,0,0,1,3.77-4.234,4.541,4.541,0,0,1,3.538,1.711l2.7-2.9a7.642,7.642,0,0,0-6.206-2.61,7.98,7.98,0,0,0-8.149,8.091v.058A7.937,7.937,0,0,0,46.052.348,7.828,7.828,0,0,0,52.4-2.494ZM70.615,0V-21.17H66.207v7.656a5.969,5.969,0,0,0-4.843-2.32c-3.683,0-7.076,2.842-7.076,8.033v.058c0,5.191,3.451,8.033,7.076,8.033a5.708,5.708,0,0,0,4.843-2.523V0Zm-4.35-7.743c0,2.581-1.711,4.292-3.77,4.292s-3.8-1.711-3.8-4.292V-7.8c0-2.61,1.74-4.292,3.8-4.292s3.77,1.711,3.77,4.292Zm22.794.406v-.058c0-4.408-2.378-8.439-7.569-8.439-4.524,0-7.685,3.654-7.685,8.091v.058A7.775,7.775,0,0,0,81.925.348a7.774,7.774,0,0,0,6.351-2.9L85.753-4.785a5.094,5.094,0,0,1-3.77,1.6,3.605,3.605,0,0,1-3.8-3.045H89C89.03-6.641,89.059-6.9,89.059-7.337ZM84.767-8.99H78.126c.348-2,1.537-3.306,3.364-3.306C83.346-12.3,84.506-10.962,84.767-8.99Zm16.269-8.294v-3.654a9.756,9.756,0,0,0-3.132-.435c-3.1,0-4.814,1.566-4.814,4.988v.986H91.263v3.625H93.09V0H97.5V-11.774h3.509v-3.6H97.44v-.609c0-1.16.58-1.682,1.595-1.682A5.583,5.583,0,0,1,101.036-17.284ZM118.755-3.509V-15.544h-4.408v2.03a6.293,6.293,0,0,0-5.017-2.32,6.842,6.842,0,0,0-6.9,7.25v.058a6.827,6.827,0,0,0,6.9,7.25A6.08,6.08,0,0,0,114.4-3.8v.754c0,2.784-1.421,4.234-4.437,4.234a10.144,10.144,0,0,1-5.249-1.421l-1.508,3.306A14.749,14.749,0,0,0,110.084,4.7C115.855,4.7,118.755,2.349,118.755-3.509ZM114.4-8.526a3.592,3.592,0,0,1-3.8,3.6,3.551,3.551,0,0,1-3.77-3.6v-.058a3.568,3.568,0,0,1,3.77-3.6,3.592,3.592,0,0,1,3.8,3.6ZM136.938,0V-10.063c0-3.567-1.943-5.771-5.278-5.771a5.5,5.5,0,0,0-4.553,2.494v-7.83H122.7V0h4.408V-8.671c0-2.088,1.073-3.161,2.755-3.161s2.668,1.073,2.668,3.161V0Zm8.555-17.255V-21.17h-4.64v3.915ZM145.377,0V-15.544h-4.408V0Zm8.874-17.255V-21.17h-4.64v3.915ZM154.135-.261V-15.544h-4.408V-.609c0,1.3-.638,1.8-1.566,1.8a5.268,5.268,0,0,1-.928-.087V4.553a9.169,9.169,0,0,0,1.914.174C152.4,4.727,154.135,3.161,154.135-.261Zm19.2.261-6.119-9.425,5.916-6.119h-5.278L162.69-9.889V-21.17h-4.408V0h4.408V-4.727l1.537-1.624L168.287,0Zm6.728,0V-21.17h-4.408V0ZM207.93,0V-10.121c0-3.741-1.972-5.713-5.249-5.713a6.4,6.4,0,0,0-5.1,2.465,4.651,4.651,0,0,0-4.379-2.465,5.553,5.553,0,0,0-4.582,2.494v-2.2h-4.408V0h4.408V-8.671c0-2.088,1.015-3.161,2.668-3.161s2.581,1.073,2.581,3.161V0h4.408V-8.671c0-2.088,1.015-3.161,2.668-3.161s2.581,1.073,2.581,3.161V0ZM226,0V-10.063c0-3.567-1.943-5.771-5.278-5.771a5.5,5.5,0,0,0-4.553,2.494v-2.2h-4.408V0h4.408V-8.671c0-2.088,1.073-3.161,2.755-3.161s2.668,1.073,2.668,3.161V0Zm19.894-7.743V-7.8a8.079,8.079,0,0,0-8.381-8.033,8.159,8.159,0,0,0-8.439,8.091v.058A8.079,8.079,0,0,0,237.452.348,8.159,8.159,0,0,0,245.891-7.743Zm-4.35.058a3.982,3.982,0,0,1-4.031,4.234,4.13,4.13,0,0,1-4.089-4.292V-7.8a3.982,3.982,0,0,1,4.031-4.234,4.13,4.13,0,0,1,4.089,4.292Zm23.867-.058V-7.8c0-5.191-3.451-8.033-7.076-8.033a5.708,5.708,0,0,0-4.843,2.523v-2.233h-4.408V4.64h4.408V-2.03A5.969,5.969,0,0,0,258.332.29C262.015.29,265.408-2.552,265.408-7.743Zm-4.408,0c0,2.61-1.74,4.292-3.8,4.292s-3.77-1.711-3.77-4.292V-7.8c0-2.581,1.711-4.292,3.77-4.292S261-10.382,261-7.8ZM284.287,4.64V-15.544h-4.408v2.03a5.969,5.969,0,0,0-4.843-2.32c-3.683,0-7.076,2.842-7.076,8.033v.058c0,5.191,3.451,8.033,7.076,8.033a5.708,5.708,0,0,0,4.843-2.523V4.64Zm-4.35-12.383c0,2.581-1.711,4.292-3.77,4.292s-3.8-1.711-3.8-4.292V-7.8c0-2.61,1.74-4.292,3.8-4.292s3.77,1.711,3.77,4.292Zm17.661-3.48v-4.611c-2.61-.116-4.06,1.276-4.959,3.422v-3.132h-4.408V0h4.408V-5.742c0-3.712,1.8-5.481,4.727-5.481Zm14.152,6.5v-.058c0-2.842-2.523-3.886-4.7-4.611-1.682-.58-3.161-.986-3.161-1.856v-.058c0-.609.551-1.073,1.624-1.073a9.209,9.209,0,0,1,4.2,1.45l1.682-3.045a10.758,10.758,0,0,0-5.8-1.8c-3.132,0-5.684,1.769-5.684,4.93v.058c0,3.016,2.465,4.031,4.64,4.669,1.711.522,3.219.841,3.219,1.8v.058c0,.7-.58,1.16-1.856,1.16a8.789,8.789,0,0,1-4.9-1.856l-1.885,2.9A10.889,10.889,0,0,0,305.805.29C309.169.29,311.75-1.276,311.75-4.727Zm11.6,4.089V-4.176a4.483,4.483,0,0,1-2.175.551c-.986,0-1.421-.493-1.421-1.508v-6.641h3.654v-3.77h-3.654v-3.973h-4.408v3.973H313.49v3.77h1.856v7.366c0,3.6,1.827,4.669,4.524,4.669A6.5,6.5,0,0,0,323.35-.638ZM340.779,0V-15.544h-4.408v8.671c0,2.088-1.073,3.161-2.755,3.161s-2.668-1.073-2.668-3.161v-8.671H326.54V-5.481c0,3.567,1.943,5.771,5.278,5.771A5.5,5.5,0,0,0,336.371-2.2V0Zm18.792-15.544h-4.582L351.48-5.133,348-15.544h-4.669L349.45.116h4Zm24.418,0H379.61L377.058-6.09,374.1-15.6h-3.8l-2.929,9.483-2.494-9.425h-4.466L365.2.116h3.944l3.045-9.541L375.173.116h3.973ZM400.664,0l-5.481-7.975,5.249-7.569h-4.611l-2.929,4.524-2.9-4.524h-4.727l5.249,7.656L385.062,0h4.611L392.8-4.843,395.937,0ZM417.8-15.544h-4.582L409.828-4.959,406.29-15.544h-4.669l6.09,15.6a1.472,1.472,0,0,1-1.537,1.015,4.006,4.006,0,0,1-1.885-.609l-1.479,3.19a7.3,7.3,0,0,0,3.915,1.073c2.639,0,3.915-1.189,5.1-4.35ZM433.26,0V-3.567H425.2l8.062-8.874v-3.1H420.007v3.567h7.772L419.746-3.1V0ZM22.214,32l-8.7-20.445H9.4L.7,32H5.249l1.856-4.553h8.584L17.545,32Zm-8.12-8.5H8.7l2.7-6.583ZM42.6,26.432v-.058c0-2.726-1.45-4.089-3.8-4.988a4.721,4.721,0,0,0,2.668-4.379v-.058c0-3.19-2.552-5.249-6.7-5.249H25.346V32H35C39.585,32,42.6,30.144,42.6,26.432Zm-5.568-8.671c0,1.508-1.247,2.146-3.219,2.146H29.7V15.615H34.1c1.885,0,2.929.754,2.929,2.088Zm1.131,8.12c0,1.508-1.189,2.2-3.161,2.2H29.7V23.619h5.162c2.291,0,3.306.841,3.306,2.2Zm25.955,2.842-2.842-2.871a7.327,7.327,0,0,1-5.336,2.378c-3.48,0-5.887-2.9-5.887-6.38v-.058a6.015,6.015,0,0,1,5.887-6.322,7.492,7.492,0,0,1,5.191,2.291l2.842-3.277a10.473,10.473,0,0,0-8-3.132,10.317,10.317,0,0,0-10.585,10.5v.058A10.247,10.247,0,0,0,55.8,32.348,10.376,10.376,0,0,0,64.119,28.723ZM86.391,21.85v-.058c0-5.713-4.408-10.092-10.788-10.092H67.686V32H75.6C81.983,32,86.391,27.563,86.391,21.85Zm-4.669.058A5.784,5.784,0,0,1,75.6,27.969H72.152V15.731H75.6a5.83,5.83,0,0,1,6.119,6.119ZM105.821,32V28.027H94.8V23.764h9.57V19.791H94.8V15.673h10.875V11.7H90.364V32Zm19.43-16.24V11.7H109.794V32h4.466V24.141h9.686v-4.06H114.26V15.76Zm22.011,13.369V20.313h-8.816V24.17h4.5v2.9a7.126,7.126,0,0,1-4.205,1.218,6.082,6.082,0,0,1-6.148-6.438v-.058a6.1,6.1,0,0,1,5.829-6.322,7.475,7.475,0,0,1,5.307,2.059l2.813-3.393a11.146,11.146,0,0,0-7.975-2.784,10.419,10.419,0,0,0-10.643,10.5v.058c0,6,4.35,10.44,10.672,10.44A13.176,13.176,0,0,0,147.262,29.129ZM168.722,32V11.7h-4.466v8.033H156.02V11.7h-4.466V32h4.466V23.851h8.236V32Zm9.541,0V11.7H173.8V32Zm16.878-7.018V11.7h-4.582V24.779c0,2.349-1.044,3.364-2.726,3.364a5.007,5.007,0,0,1-3.712-2.03l-2.813,3.132a8.3,8.3,0,0,0,6.641,3.045C192.241,32.29,195.141,29.912,195.141,24.982ZM218.167,32l-8.642-11.687L217.79,11.7H212.4l-8.236,8.874V11.7h-4.466V32h4.466V25.794l2.349-2.436L212.8,32Zm17.284,0V27.94H225.33V11.7h-4.466V32Zm23.664,0V11.7H254.3l-5.336,8.584L243.629,11.7h-4.814V32h4.379V18.834l5.655,8.584h.116l5.713-8.671V32Zm22.91,0V11.7h-4.408V24.2L268.1,11.7h-4.118V32h4.408V19.1L278.226,32Zm25.549-10.15v-.058A10.793,10.793,0,0,0,286,21.85v.058a10.793,10.793,0,0,0,21.576-.058Zm-4.669.058a6.071,6.071,0,0,1-6.09,6.322,6.167,6.167,0,0,1-6.148-6.38v-.058a6.071,6.071,0,0,1,6.09-6.322,6.167,6.167,0,0,1,6.148,6.38Zm24.708-3.132v-.058c0-4.147-2.929-7.018-7.772-7.018h-8.294V32h4.466V25.91h3.393C323.959,25.91,327.613,23.474,327.613,18.776Zm-4.524.087c0,1.74-1.3,3.074-3.538,3.074h-3.538V15.731h3.451c2.233,0,3.625,1.073,3.625,3.074Zm28.8,10.585L349.8,27.679a10.261,10.261,0,0,0,1.8-5.829v-.058a10.793,10.793,0,0,0-21.576.058v.058a10.4,10.4,0,0,0,10.759,10.44,11.063,11.063,0,0,0,6.032-1.74l2.233,2Zm-4.959-7.54a6.723,6.723,0,0,1-.551,2.784l-3.335-3.016-2.842,3.19,3.306,2.813a6.542,6.542,0,0,1-2.668.551,6.167,6.167,0,0,1-6.148-6.38v-.058a6.071,6.071,0,0,1,6.09-6.322,6.167,6.167,0,0,1,6.148,6.38ZM373.114,32l-4.959-7.25a6.3,6.3,0,0,0,4.35-6.293V18.4c0-4.176-2.871-6.7-7.656-6.7h-9.28V32h4.466V25.5h3.509l4.35,6.5Zm-5.133-13.311c0,1.711-1.247,2.871-3.422,2.871h-4.524V15.731h4.437c2.175,0,3.509.986,3.509,2.9ZM391.21,26v-.058c0-3.538-2.32-5.017-6.438-6.09-3.509-.9-4.379-1.334-4.379-2.668v-.058c0-.986.9-1.769,2.61-1.769a9.525,9.525,0,0,1,5.278,2l2.32-3.364a11.751,11.751,0,0,0-7.54-2.581c-4.147,0-7.105,2.436-7.105,6.119v.058c0,4.031,2.639,5.162,6.728,6.206,3.393.87,4.089,1.45,4.089,2.581v.058c0,1.189-1.1,1.914-2.929,1.914a9.312,9.312,0,0,1-6.061-2.465l-2.639,3.161a12.918,12.918,0,0,0,8.613,3.248C388.136,32.29,391.21,30.028,391.21,26Zm18.821-10.179V11.7h-16.82v4.118h6.177V32h4.466V15.818Zm20.793,7.337V11.7h-4.466V23.329c0,3.219-1.653,4.872-4.379,4.872S417.6,26.49,417.6,23.184V11.7h-4.466V23.3c0,5.974,3.335,9.019,8.787,9.019S430.824,29.3,430.824,23.155ZM453.995,11.7h-4.814L443.874,26l-5.307-14.3h-4.93l8.207,20.445h3.944Zm32.074,0H481.4l-4.2,13.746-4.553-13.8h-3.828l-4.553,13.8-4.2-13.746h-4.785L462.2,32.145h3.886l4.582-13.282,4.582,13.282h3.886ZM506.833,32l-7.076-10.382,6.786-9.918h-5.075l-4.292,6.583L492.913,11.7h-5.22l6.786,9.976L487.4,32h5.075l4.582-6.96L501.613,32Zm20.445-20.3H522.2l-4.93,8.149L512.43,11.7h-5.22l7.8,12.3v8h4.466V23.909ZM546.07,32V28.085H534.905L546.07,15.093V11.7H529.511v3.915h10.817L529.163,28.607V32ZM19.6,53.821c0-5.916-3.567-10.469-8.99-10.469S1.566,47.963,1.566,53.879s3.567,10.469,8.99,10.469S19.6,59.737,19.6,53.821Zm-4.582.058c0,3.712-1.711,6.438-4.408,6.438s-4.466-2.755-4.466-6.5,1.711-6.438,4.408-6.438S15.022,50.167,15.022,53.879Zm6.7-8.584.928,3.654,3.538-.87V64H30.6V43.555H27.55Zm20.5,2.117a2.49,2.49,0,0,1,2.726,2.639c0,1.682-.986,2.784-3.509,4.872l-6.757,5.539V64H49.706V60.143H40.861l3.306-2.552C47.763,54.807,49.5,53.1,49.5,49.7c0-3.8-2.668-6.293-6.989-6.293-3.625,0-5.568,1.479-7.569,4.2l3.132,2.523C39.585,48.282,40.658,47.412,42.224,47.412Zm19.372.116L56.753,52.4l.7,2.842h1.856c2.552,0,3.973.928,3.973,2.61,0,1.537-1.189,2.494-2.871,2.494a6.194,6.194,0,0,1-4.9-2.436l-3.074,2.929a9.85,9.85,0,0,0,7.917,3.509c4.524,0,7.308-2.813,7.308-6.67,0-3.8-2.668-5.249-5.452-5.713l5.133-4.9V43.7H53.621v3.828Zm19.778-3.973L70.238,56.46l.725,3.161h9.918V64h4.263V59.621H87.87V56H85.144V43.555ZM80.881,56H75.487l5.394-6.322ZM91.93,53.705l2.581,1.711a8.718,8.718,0,0,1,3.393-.754c2.175,0,3.6,1.015,3.6,2.784,0,1.827-1.305,2.842-3.393,2.842a7.106,7.106,0,0,1-4.843-2.2l-2.7,3.219a10.439,10.439,0,0,0,7.6,3.045c4.669,0,7.714-2.726,7.714-7.047,0-4.611-3.1-6.525-7.1-6.525a9.93,9.93,0,0,0-2.668.348l.232-3.509h8.642V43.7H92.51Zm32.48-8.12a9.4,9.4,0,0,0-6.351-2.233c-6.061,0-8.9,4.814-8.9,11.107,0,4.06.928,6.235,2.407,7.714a7.7,7.7,0,0,0,5.858,2.175c4.408,0,7.743-2.871,7.743-7.047,0-4.263-3.1-6.5-7.134-6.5a7.022,7.022,0,0,0-4.205,1.305c.29-2.668,1.566-4.7,4.089-4.7a6.253,6.253,0,0,1,4.147,1.624ZM120.727,57.5c0,1.769-1.276,3.016-3.48,3.016s-3.538-1.276-3.538-3.045c0-1.74,1.276-2.958,3.48-2.958S120.727,55.764,120.727,57.5Zm7.6-9.947h9.541L128.789,64h5.046l9.106-16.936V43.7H128.325Zm32.654,10.73c0-2.436-1.218-3.741-3.277-4.814a4.844,4.844,0,0,0,2.581-4.466c0-3.132-2.842-5.6-7.134-5.6s-7.134,2.465-7.134,5.6a4.844,4.844,0,0,0,2.581,4.466,4.946,4.946,0,0,0-3.277,4.93c0,3.567,3.335,5.887,7.83,5.887S160.979,62.086,160.979,58.287Zm-4.93-8.787c0,1.45-1.131,2.494-2.9,2.494a2.6,2.6,0,0,1-2.9-2.523c0-1.276,1.073-2.378,2.9-2.378S156.049,48.224,156.049,49.5Zm.609,8.555c0,1.45-1.3,2.552-3.509,2.552s-3.509-1.1-3.509-2.552c0-1.6,1.479-2.523,3.509-2.523S156.658,56.46,156.658,58.055Zm23.113-4.814c0-4.031-.957-6.235-2.407-7.685a7.349,7.349,0,0,0-5.858-2.2c-4.582,0-7.743,3.016-7.743,7.134,0,4.147,2.842,6.583,7.25,6.583a6.172,6.172,0,0,0,4.118-1.392c-.29,2.726-1.624,4.611-4.118,4.611a6.57,6.57,0,0,1-4.437-1.74l-2.349,3.393a9.806,9.806,0,0,0,6.67,2.407C176.668,64.348,179.771,59.853,179.771,53.241Zm-4.553-2.929c0,1.769-1.276,3.045-3.48,3.045S168.2,52.11,168.2,50.283s1.247-3.1,3.451-3.1C173.884,47.18,175.218,48.485,175.218,50.312Zm26.506-4.118-1.943-2.929c-5.336,2.9-8.033,6.844-8.033,12.412s2.7,9.512,8.033,12.412l1.943-2.929c-3.915-2.726-5.6-5.394-5.6-9.483S197.809,48.92,201.724,46.194Zm3.335-2.494v.58L206.422,57.1h2.436l1.363-12.818V43.7Zm4.93,20.3V59.36h-4.7V64Zm29.232-9.164c0-5.945-5.539-11.484-12.644-11.484a12.674,12.674,0,1,0,.232,25.346,14.214,14.214,0,0,0,7.685-2.175l-.58-.928a13.038,13.038,0,0,1-7.105,1.943,11.514,11.514,0,1,1-.232-23.026C233.1,44.512,238,49.471,238,54.836c0,3.857-1.624,5.916-3.683,5.916a1.872,1.872,0,0,1-2.117-1.827,5.21,5.21,0,0,1,.087-.9l1.363-7.8-3.422-.551-.319,1.537a4.63,4.63,0,0,0-4-1.972c-3.393,0-6.5,3.19-6.5,7.279a5.228,5.228,0,0,0,5.307,5.6,6.289,6.289,0,0,0,4.292-1.74,5.582,5.582,0,0,0,4.437,1.74C236.64,62.115,239.221,59.679,239.221,54.836Zm-10.034.116c0,2.378-1.624,4.176-3.451,4.176a2.582,2.582,0,0,1-2.726-2.813c0-2.32,1.6-4.089,3.48-4.089A2.58,2.58,0,0,1,229.187,54.952Zm30.856-3.306V47.934h-2.2l.725-4.234h-3.828l-.725,4.234h-4.205l.725-4.234H246.7l-.725,4.234h-3.19v3.712h2.552l-.725,4.292h-2.842V59.65h2.2L243.223,64h3.828l.754-4.35h4.205L251.256,64h3.828l.754-4.35h3.19V55.938h-2.552l.725-4.292Zm-6.67,0-.725,4.292h-4.205l.725-4.292Zm24.969,6.583c0-3.248-1.885-5.075-6.293-6.264V47.586a11.983,11.983,0,0,1,3.6,1.711l1.943-3.393a12.163,12.163,0,0,0-5.394-2.146v-1.74h-3.016V43.7c-3.654.377-6.09,2.494-6.09,5.713,0,3.422,2.059,5.046,6.235,6.177V60.2a11.5,11.5,0,0,1-4.727-2.349l-2.262,3.306a14.569,14.569,0,0,0,6.844,2.755v2.929h3.016V63.971C275.877,63.565,278.342,61.448,278.342,58.229Zm-9.019-6.989c-1.6-.58-2-1.189-2-2.088,0-.928.609-1.624,2-1.827Zm4.785,7.221c0,1.044-.7,1.682-2.059,1.885v-4.06C273.615,56.866,274.108,57.475,274.108,58.461Zm16.849-9.831a4.887,4.887,0,0,0-4.9-5.162,4.948,4.948,0,0,0-4.959,5.22A4.887,4.887,0,0,0,286,53.85,4.948,4.948,0,0,0,290.957,48.63ZM301.4,43.7h-3.451L283.127,64h3.451Zm2.03,15.312a4.887,4.887,0,0,0-4.9-5.162,4.948,4.948,0,0,0-4.959,5.22,4.887,4.887,0,0,0,4.9,5.162A4.948,4.948,0,0,0,303.427,59.012ZM287.912,48.688c0,1.363-.638,2.523-1.856,2.523-1.16,0-1.914-1.189-1.914-2.581,0-1.363.638-2.523,1.856-2.523C287.158,46.107,287.912,47.3,287.912,48.688Zm12.47,10.382c0,1.363-.638,2.523-1.856,2.523-1.16,0-1.914-1.189-1.914-2.581,0-1.363.638-2.523,1.856-2.523C299.628,56.489,300.382,57.678,300.382,59.07ZM324.1,62.115l-2.987-2.987a37.438,37.438,0,0,0,2.668-4.292l-3.277-1.8c-.638,1.247-1.3,2.436-1.972,3.48l-2.7-2.7c2.523-.986,4.263-2.581,4.263-5.336,0-2.9-2.262-5.133-5.713-5.133-3.915,0-6.148,2.552-6.148,5.365a6.861,6.861,0,0,0,1.421,4.089c-2.552,1.16-3.944,2.987-3.944,5.6,0,3.625,2.929,5.887,6.815,5.887a9.147,9.147,0,0,0,5.945-2.262l2.349,2.378Zm-7.888-13.369c0,1.305-.928,2.059-2.7,2.726a3.63,3.63,0,0,1-1.189-2.552,1.92,1.92,0,0,1,1.972-2.088A1.782,1.782,0,0,1,316.216,48.746Zm-.232,10.73a4.809,4.809,0,0,1-2.929,1.16c-1.653,0-2.842-.957-2.842-2.407a3.036,3.036,0,0,1,1.885-2.7Zm9.686,7.4.377,1.827c3.451-.058,5.365-1.6,5.365-5.423V59.36h-4.7V64h1.8C328.657,65.653,327.671,66.668,325.67,66.871ZM339.706,64V59.36h-4.7V64ZM346.7,52.255l-.145.145.667,4.7h2.958l.319-1.769c3.161-.638,5.713-2.146,5.713-5.858,0-3.886-2.842-6.032-7.018-6.032a9.16,9.16,0,0,0-7.105,3.132l2.668,2.929a5.971,5.971,0,0,1,4.35-2c1.682,0,2.668.754,2.668,2.088C351.77,51.153,350.349,52.11,346.7,52.255ZM350.958,64V59.36h-4.7V64Zm12.963-10.9v-4.64h-4.7V53.1Zm0,10.9V59.36h-4.7V64Zm8.584-10.9v-4.64h-4.7V53.1Zm-5.742,13.775.377,1.827c3.451-.058,5.365-1.6,5.365-5.423V59.36h-4.7V64h1.8C369.75,65.653,368.764,66.668,366.763,66.871Zm18.879-11.194c0-5.568-2.7-9.512-8.033-12.412l-1.943,2.929c3.915,2.726,5.6,5.394,5.6,9.483s-1.682,6.757-5.6,9.483l1.943,2.929C382.945,65.189,385.642,61.245,385.642,55.677Z" transform="translate(20838 2070)"/></g></svg>