<svg xmlns="http://www.w3.org/2000/svg" xmlns:xlink="http://www.w3.org/1999/xlink" viewBox="21540.131 2315.3 541.691 219.398"><defs><style>.a{filter:url(#a);}</style><filter id="a" x="21545.119" y="2315.3" width="349.791" height="69.78" filterUnits="userSpaceOnUse"><feOffset dx="5" dy="3" input="SourceAlpha"/><feGaussianBlur result="b"/><feFlood flood-color="#00e7ff"/><feComposite operator="in" in2="b"/><feComposite in="SourceGraphic"/></filter></defs><g transform="translate(701 378)"><g class="a" transform="matrix(1, 0, 0, 1, -701, -378)"><path d="M38.16,1.08A38.175,38.175,0,0,0,63.45-8.55V-33.66H37.44v6.39H56.61v15.66a29.666,29.666,0,0,1-18.18,6.3C23.13-5.31,13.5-16.47,13.5-31.5v-.18c0-14.04,9.99-25.83,23.94-25.83a26.8,26.8,0,0,1,19.17,7.2l4.59-5.4c-6.3-5.31-12.87-8.37-23.49-8.37-18.9,0-31.59,15.3-31.59,32.58v.18C6.12-13.32,18.36,1.08,38.16,1.08Zm61.38,0a24.16,24.16,0,0,0,24.39-24.3v-.18A23.913,23.913,0,0,0,99.72-47.52a24.084,24.084,0,0,0-24.3,24.3v.18A23.837,23.837,0,0,0,99.54,1.08Zm.18-6.21c-9.81,0-17.19-8.1-17.19-18.09v-.18c0-9.81,6.93-18,17.01-18,9.81,0,17.28,8.19,17.28,18.18v.18C116.82-13.23,109.8-5.13,99.72-5.13ZM152.01.81a17.429,17.429,0,0,0,8.37-1.98V-7.11a14.572,14.572,0,0,1-6.75,1.62c-4.68,0-7.83-2.07-7.83-7.74V-40.41h14.76v-6.12H145.8V-60.57h-6.93v14.04h-6.48v6.12h6.48v28.08C138.87-2.88,144.54.81,152.01.81ZM172.8,0h6.93V-26.64c0-8.73,5.94-14.58,13.95-14.58,8.19,0,12.87,5.4,12.87,14.04V0h6.93V-28.89c0-11.07-6.57-18.63-17.82-18.63-8.01,0-12.87,4.05-15.93,9.09V-65.7H172.8Zm69.3.99a20.4,20.4,0,0,0,16.74-7.92V0h6.84V-28.44c0-5.94-1.62-10.44-4.86-13.68-3.33-3.33-8.46-5.13-15.03-5.13a38.138,38.138,0,0,0-16.92,3.96l2.07,5.67a32.368,32.368,0,0,1,14.13-3.33c8.73,0,13.77,4.32,13.77,12.6v1.44a48.749,48.749,0,0,0-14.22-1.98c-11.79,0-19.89,5.22-19.89,15.21v.18C224.73-3.96,233.37.99,242.1.99Zm1.35-5.58c-6.3,0-11.7-3.42-11.7-9.27v-.18c0-5.58,4.95-9.36,13.59-9.36a47.838,47.838,0,0,1,13.59,1.98v4.32C258.93-9.72,252-4.59,243.45-4.59ZM280.35,0h6.93V-26.55c0-8.55,5.58-14.67,12.96-14.67s11.97,5.13,11.97,13.86V0h6.84V-26.82c0-9.18,5.85-14.4,12.87-14.4,7.56,0,12.06,5.04,12.06,14.04V0h6.93V-28.8c0-11.52-6.57-18.72-17.28-18.72-8.1,0-13.05,4.14-16.38,9.27a15.807,15.807,0,0,0-14.94-9.27c-7.83,0-11.97,4.23-15.03,8.82v-7.83h-6.93Z" transform="translate(21539 2381)"/></g><path d="M6.96.319a6.574,6.574,0,0,0,5.394-2.552V0h2.2V-9.164a5.93,5.93,0,0,0-1.566-4.408,6.654,6.654,0,0,0-4.843-1.653A12.289,12.289,0,0,0,2.7-13.949l.667,1.827A10.43,10.43,0,0,1,7.917-13.2c2.813,0,4.437,1.392,4.437,4.06v.464a15.708,15.708,0,0,0-4.582-.638c-3.8,0-6.409,1.682-6.409,4.9v.058C1.363-1.276,4.147.319,6.96.319Zm.435-1.8c-2.03,0-3.77-1.1-3.77-2.987v-.058c0-1.8,1.6-3.016,4.379-3.016a15.414,15.414,0,0,1,4.379.638V-5.51C12.383-3.132,10.15-1.479,7.395-1.479ZM27.26.319c3.625,0,7.163-2.9,7.163-7.8V-7.54c0-4.93-3.567-7.772-7.163-7.772a6.74,6.74,0,0,0-5.742,3.335V-21.17H19.285V0h2.233V-2.871A6.764,6.764,0,0,0,27.26.319Zm-.406-2a5.58,5.58,0,0,1-5.423-5.8V-7.54a5.591,5.591,0,0,1,5.423-5.771c2.842,0,5.278,2.262,5.278,5.8v.058C32.132-3.828,29.754-1.682,26.854-1.682ZM45.3.348a7.725,7.725,0,0,0,6.119-2.9L50-3.886a6.187,6.187,0,0,1-4.582,2.233A5.6,5.6,0,0,1,39.9-7.482V-7.54a5.533,5.533,0,0,1,5.365-5.8,6.054,6.054,0,0,1,4.553,2.262L51.3-12.644a7.731,7.731,0,0,0-6-2.668,7.729,7.729,0,0,0-7.685,7.83v.058A7.7,7.7,0,0,0,45.3.348ZM61.1.319a6.74,6.74,0,0,0,5.742-3.335V0h2.233V-21.17H66.845v9.048a6.764,6.764,0,0,0-5.742-3.19c-3.6,0-7.163,2.9-7.163,7.8v.058C53.94-2.523,57.507.319,61.1.319Zm.406-2c-2.842,0-5.278-2.262-5.278-5.8V-7.54c0-3.625,2.378-5.771,5.278-5.771A5.572,5.572,0,0,1,66.932-7.54v.058A5.6,5.6,0,0,1,61.509-1.682ZM75.4-6.583H87.29c.029-.348.029-.58.029-.783,0-4.408-2.552-7.946-6.989-7.946-4.147,0-7.192,3.48-7.192,7.83A7.46,7.46,0,0,0,80.62.348,7.739,7.739,0,0,0,86.8-2.465L85.4-3.712A6.2,6.2,0,0,1,80.678-1.6,5.239,5.239,0,0,1,75.4-6.583Zm0-1.8c.319-2.9,2.291-5.046,4.872-5.046,2.958,0,4.524,2.32,4.785,5.046ZM92.075,0h2.233V-13.021h4.727v-1.914H94.279v-1.218c0-2.146.87-3.19,2.61-3.19a7.46,7.46,0,0,1,2.175.377v-1.943a6.78,6.78,0,0,0-2.465-.377,4.414,4.414,0,0,0-3.219,1.16,5.291,5.291,0,0,0-1.305,3.857v1.305H90.016v1.943h2.059Zm16.153,4.7a7.883,7.883,0,0,0,5.713-2,7.222,7.222,0,0,0,1.914-5.307V-14.993h-2.233v2.7a7.029,7.029,0,0,0-5.858-3.016,6.963,6.963,0,0,0-7.047,7.076v.058a6.932,6.932,0,0,0,7.047,7.018,7.108,7.108,0,0,0,5.887-3.161v1.769c0,3.509-2.146,5.336-5.452,5.336A9.579,9.579,0,0,1,102.428.87l-1.015,1.74A11.755,11.755,0,0,0,108.228,4.7Zm-.029-7.83a5.075,5.075,0,0,1-5.191-5.1v-.058A4.959,4.959,0,0,1,108.2-13.34a5.253,5.253,0,0,1,5.51,5.075v.058A5.291,5.291,0,0,1,108.2-3.132ZM120.843,0h2.233V-8.584a4.411,4.411,0,0,1,4.5-4.7c2.639,0,4.147,1.74,4.147,4.524V0h2.233V-9.309c0-3.567-2.117-6-5.742-6a5.678,5.678,0,0,0-5.133,2.929V-21.17h-2.233Zm17.922-18.27h2.552v-2.465h-2.552ZM138.91,0h2.233V-14.993H138.91Zm7.482-18.27h2.552v-2.465h-2.552Zm-1.276,23c2.262,0,3.654-1.218,3.654-3.857V-14.993h-2.233V.841c0,1.392-.7,2-1.711,2a7.341,7.341,0,0,1-1.1-.087V4.582A5.537,5.537,0,0,0,145.116,4.727ZM153.961,0h2.233V-3.915l3.045-3.074L164.6,0h2.668l-6.5-8.555,6.293-6.438h-2.784l-8.091,8.439V-21.17h-2.233Zm16.7,0H172.9V-21.17h-2.233Zm7.424,0h2.233V-8.555c0-2.755,1.8-4.727,4.176-4.727s3.857,1.653,3.857,4.466V0h2.2V-8.642c0-2.958,1.885-4.64,4.147-4.64,2.436,0,3.886,1.624,3.886,4.524V0h2.233V-9.28c0-3.712-2.117-6.032-5.568-6.032a5.975,5.975,0,0,0-5.278,2.987,5.093,5.093,0,0,0-4.814-2.987,5.477,5.477,0,0,0-4.843,2.842v-2.523h-2.233Zm27.579,0H207.9V-8.584a4.411,4.411,0,0,1,4.495-4.7c2.639,0,4.147,1.74,4.147,4.524V0h2.233V-9.309c0-3.567-2.117-6-5.742-6a5.678,5.678,0,0,0-5.133,2.929v-2.61h-2.233Zm24.708.348a7.785,7.785,0,0,0,7.859-7.83V-7.54a7.705,7.705,0,0,0-7.8-7.772,7.76,7.76,0,0,0-7.83,7.83v.058A7.681,7.681,0,0,0,230.376.348Zm.058-2a5.625,5.625,0,0,1-5.539-5.829V-7.54a5.534,5.534,0,0,1,5.481-5.8,5.674,5.674,0,0,1,5.568,5.858v.058A5.532,5.532,0,0,1,230.434-1.653ZM242.266,4.64H244.5V-2.871a6.764,6.764,0,0,0,5.742,3.19c3.625,0,7.163-2.9,7.163-7.8V-7.54c0-4.93-3.567-7.772-7.163-7.772a6.74,6.74,0,0,0-5.742,3.335v-3.016h-2.233Zm7.569-6.322a5.58,5.58,0,0,1-5.423-5.8V-7.54a5.591,5.591,0,0,1,5.423-5.771c2.842,0,5.278,2.262,5.278,5.8v.058C255.113-3.828,252.735-1.682,249.835-1.682ZM273.557,4.64h2.233V-14.993h-2.233v2.871a6.764,6.764,0,0,0-5.742-3.19c-3.6,0-7.163,2.9-7.163,7.8v.058c0,4.93,3.567,7.772,7.163,7.772a6.74,6.74,0,0,0,5.742-3.335Zm-5.336-6.322c-2.842,0-5.278-2.262-5.278-5.8V-7.54c0-3.625,2.378-5.771,5.278-5.771a5.572,5.572,0,0,1,5.423,5.771v.058A5.6,5.6,0,0,1,268.221-1.682ZM280.778,0h2.233V-5.974c0-4.524,2.668-6.873,5.945-6.873h.174v-2.407a6.42,6.42,0,0,0-6.119,4.176v-3.915h-2.233Zm16.7.29c2.987,0,5.336-1.653,5.336-4.495v-.058c0-2.7-2.494-3.6-4.814-4.292-2-.609-3.857-1.16-3.857-2.581v-.058c0-1.247,1.131-2.175,2.9-2.175a8.477,8.477,0,0,1,4.437,1.45L302.5-13.6a10.25,10.25,0,0,0-5.394-1.653c-2.958,0-5.1,1.711-5.1,4.292v.058c0,2.755,2.61,3.567,4.959,4.234,1.972.551,3.741,1.131,3.741,2.639v.058c0,1.45-1.3,2.378-3.1,2.378a8.765,8.765,0,0,1-5.191-1.914l-1.131,1.6A10.312,10.312,0,0,0,297.482.29Zm14.21-.029a5.616,5.616,0,0,0,2.7-.638V-2.291a4.7,4.7,0,0,1-2.175.522,2.218,2.218,0,0,1-2.523-2.494v-8.758h4.756v-1.972h-4.756v-4.524h-2.233v4.524H305.37v1.972h2.088v9.048C307.458-.928,309.285.261,311.692.261ZM323.9.319a5.712,5.712,0,0,0,5.133-2.929V0h2.2V-14.993h-2.2v8.584a4.428,4.428,0,0,1-4.495,4.7c-2.639,0-4.147-1.74-4.147-4.524v-8.758h-2.233v9.309C318.159-2.117,320.276.319,323.9.319Zm17.371-.2h1.972l6.525-15.109h-2.407L342.287-2.552l-5.046-12.441h-2.465Zm15.544,0h1.972l4.06-11.832L366.879.116h1.943L374.1-14.993h-2.32L367.836-2.958l-4.06-12.093H361.92L357.889-2.958l-3.944-12.035h-2.378ZM376.159,0h2.494l4.669-6.119L387.962,0h2.581l-5.916-7.685,5.684-7.308h-2.494l-4.437,5.8-4.437-5.8h-2.552l5.655,7.366ZM396.2,4.727c2.262,0,3.712-1.131,4.988-4.234l6.293-15.486H405.1l-4.814,12.5-5.452-12.5H392.37L399.185-.058c-.9,2.117-1.74,2.813-3.074,2.813a4.69,4.69,0,0,1-2.349-.551l-.754,1.769A6.813,6.813,0,0,0,396.2,4.727ZM410,0h12.992V-1.885h-9.976l9.976-11.687v-1.421H410.35v1.885h9.6L410-1.421ZM1.131,41H3.48l2.407-5.365H16.936L19.314,41h2.465L12.528,20.555H10.382Zm5.655-7.424,4.64-10.353,4.611,10.353Zm19,7.424H34.8c4.437,0,7.366-2.059,7.366-5.539V35.4c0-2.784-1.943-4.176-4.35-4.9a4.9,4.9,0,0,0,3.219-4.7v-.058A4.508,4.508,0,0,0,39.73,22.5a7.456,7.456,0,0,0-5.307-1.8H25.781Zm2.262-11.252V22.759H34.22c2.9,0,4.495,1.305,4.495,3.306v.058c0,2.378-1.914,3.625-4.669,3.625Zm0,9.193V31.778h6.409c3.538,0,5.394,1.276,5.394,3.48v.058c0,2.262-1.914,3.625-4.988,3.625ZM56,41.348a10.57,10.57,0,0,0,8.12-3.567L62.611,36.3a8.812,8.812,0,0,1-6.554,2.929c-4.466,0-7.859-3.683-7.859-8.381v-.058c0-4.669,3.364-8.323,7.859-8.323a8.823,8.823,0,0,1,6.38,2.784L64,23.571a10.565,10.565,0,0,0-7.917-3.219A10.227,10.227,0,0,0,45.82,30.85v.058A10.125,10.125,0,0,0,56,41.348ZM68.121,41h7.047c6.38,0,10.788-4.437,10.788-10.15v-.058c0-5.713-4.408-10.092-10.788-10.092H68.121Zm2.291-2.117V22.817h4.756c5.133,0,8.41,3.538,8.41,8.033v.058c0,4.495-3.277,7.975-8.41,7.975ZM90.8,41h14.819V38.912H93.09v-7.1h11.078V29.719H93.09V22.788h12.383V20.7H90.8Zm19.43,0h2.291V32.155h10.991V30.067H112.52v-7.25h12.3V20.7H110.229Zm28.014.348a12.3,12.3,0,0,0,8.149-3.1V30.154h-8.381v2.059h6.177v5.046a9.559,9.559,0,0,1-5.858,2.03c-4.93,0-8.033-3.6-8.033-8.439v-.058c0-4.524,3.219-8.323,7.714-8.323a8.636,8.636,0,0,1,6.177,2.32l1.479-1.74a10.7,10.7,0,0,0-7.569-2.7,10.187,10.187,0,0,0-10.179,10.5v.058C127.919,36.708,131.863,41.348,138.243,41.348ZM151.554,41h2.291V31.865h11.716V41h2.291V20.7h-2.291v9.019H153.845V20.7h-2.291ZM173.8,41h2.291V20.7H173.8Zm12.528.29a6.224,6.224,0,0,0,4.466-1.682,7.325,7.325,0,0,0,1.856-5.336V20.7h-2.32V34.3c0,3.219-1.682,4.872-3.973,4.872-2.117,0-3.393-1.015-4.64-2.9l-1.653,1.421A6.951,6.951,0,0,0,186.325,41.29ZM198.07,41h2.291V35.548l4.321-4.379,7.8,9.831h2.871l-9.077-11.426,8.7-8.874h-2.958L200.361,32.822V20.7H198.07Zm20.851,0h13.717V38.883H221.212V20.7h-2.291Zm17.951,0h2.233V24.586L246.5,35.432h.116l7.395-10.875V41H256.3V20.7h-2.32l-7.4,11.078-7.4-11.078h-2.32Zm25.172,0h2.233V24.354L277.385,41h1.827V20.7h-2.233V36.969L264.19,20.7h-2.146Zm32.335.348a10.285,10.285,0,0,0,10.382-10.5v-.058a10.354,10.354,0,1,0-20.706.058v.058A10.188,10.188,0,0,0,294.379,41.348Zm.058-2.117a8.071,8.071,0,0,1-8-8.381v-.058c0-4.611,3.306-8.323,7.946-8.323a8.071,8.071,0,0,1,8,8.381v.058C302.383,35.519,299.077,39.231,294.437,39.231ZM309.6,41h2.291V33.837h4.93c4.321,0,7.975-2.262,7.975-6.641v-.058c0-4-3.016-6.438-7.6-6.438h-7.6Zm2.291-9.251V22.817h5.133c3.277,0,5.452,1.508,5.452,4.408v.058c0,2.668-2.2,4.466-5.568,4.466Zm35.583,9.86,1.566-1.711-2.7-2.233a10.535,10.535,0,0,0,2.436-6.815v-.058a10.354,10.354,0,1,0-20.706.058v.058a10.376,10.376,0,0,0,16.733,8.265Zm-9.019-2.378a8.071,8.071,0,0,1-8-8.381v-.058c0-4.611,3.306-8.323,7.946-8.323a8.071,8.071,0,0,1,8,8.381v.058a8.543,8.543,0,0,1-1.769,5.249L340.9,32.764l-1.537,1.711,3.77,3.219A7.643,7.643,0,0,1,338.459,39.231ZM353.626,41h2.291V33.112h5.8L367.6,41h2.813l-6.235-8.294c3.19-.58,5.51-2.552,5.51-5.916v-.058a5.607,5.607,0,0,0-1.566-4,8,8,0,0,0-5.771-2.03h-8.729Zm2.291-9.947V22.817h6.264c3.277,0,5.191,1.508,5.191,4v.058c0,2.61-2.175,4.176-5.22,4.176ZM381.553,41.29c4.031,0,6.931-2.262,6.931-5.742V35.49c0-3.1-2.088-4.756-6.612-5.742-4.466-.957-5.51-2.03-5.51-3.944v-.058c0-1.827,1.682-3.277,4.321-3.277a8.916,8.916,0,0,1,5.858,2.2l1.334-1.769a10.591,10.591,0,0,0-7.134-2.494c-3.857,0-6.67,2.349-6.67,5.539v.058c0,3.335,2.146,4.843,6.815,5.858,4.263.9,5.278,1.972,5.278,3.857v.058c0,2-1.8,3.451-4.524,3.451a9.667,9.667,0,0,1-6.96-2.871l-1.421,1.682A11.878,11.878,0,0,0,381.553,41.29Zm16.53-.29h2.32V22.817h6.815V20.7h-15.95v2.117h6.815Zm21.547.319c5.075,0,8.468-3.074,8.468-8.99V20.7h-2.291V32.5c0,4.437-2.378,6.7-6.119,6.7-3.886,0-6.206-2.465-6.206-6.844V20.7h-2.291V32.5C411.191,38.245,414.613,41.319,419.63,41.319Zm20.88-.174h2.03L451.269,20.7H448.8l-7.25,17.487L434.333,20.7h-2.552Zm20.155,0h1.914l5.6-16.472,5.568,16.472h1.943l7.25-20.445H480.53l-5.8,16.907-5.568-16.965h-1.885l-5.568,16.965-5.8-16.907h-2.494ZM485.112,41h2.639l6.5-8.729,6.5,8.729h2.726l-7.8-10.382,7.511-9.918h-2.668l-6.177,8.294L488.1,20.7h-2.7l7.511,9.947Zm28.246,0h2.32V32.938L524.117,20.7h-2.668l-6.9,10.15L507.7,20.7h-2.784l8.439,12.267Zm13.2,0h16.269V38.941H529.656l13.166-16.7V20.7H526.988v2.059h12.7l-13.137,16.7ZM10.353,82.348c5.22,0,8.584-4.814,8.584-10.5v-.058c0-5.684-3.306-10.44-8.526-10.44S1.8,66.166,1.8,71.85v.058C1.8,77.592,5.1,82.348,10.353,82.348Zm.058-2.088c-3.8,0-6.235-3.973-6.235-8.41v-.058c0-4.466,2.378-8.352,6.177-8.352,3.77,0,6.206,3.973,6.206,8.41v.058C16.559,76.345,14.21,80.26,10.411,80.26ZM25.781,82h2.262V61.555H26.361L21.4,63.266l.551,1.856,3.828-1.189Zm6.583,0H46.545V79.912H35.786L41.209,75.1c3.567-3.1,5.133-4.93,5.133-7.888v-.058c0-3.306-2.639-5.742-6.293-5.742-3.567,0-5.481,1.6-7.308,4.321l1.682,1.218c1.624-2.262,3.132-3.48,5.452-3.48a3.88,3.88,0,0,1,4.089,3.886c0,2.03-1.131,3.6-4.234,6.38l-7.366,6.5Zm25,.348c3.77,0,6.786-2.494,6.786-6.119v-.058c0-3.712-3.161-5.423-6.7-5.713l6.38-7.076V61.7H50.866v2.059h9.918L54.375,70.98l.464,1.363h1.305c3.335,0,5.684,1.392,5.684,3.915v.058c0,2.378-1.972,3.944-4.437,3.944a7.364,7.364,0,0,1-5.945-3.016l-1.653,1.479A9.215,9.215,0,0,0,57.362,82.348ZM78.648,82h2.2V77.186h3.161V75.272H80.852V61.555h-2L67.367,75.533l.58,1.653h10.7Zm-8.526-6.728L78.648,64.8V75.272Zm24.244,7.076c4.234,0,7.25-2.7,7.25-6.67V75.62c0-3.857-3.074-6.206-7.018-6.206a9.16,9.16,0,0,0-4,.9l.435-6.5h9.686V61.7H89.03l-.58,9.889L89.987,72.6a8.758,8.758,0,0,1,4.263-1.16c2.958,0,5.046,1.74,5.046,4.263v.058c0,2.581-2,4.5-4.9,4.5a8.5,8.5,0,0,1-5.771-2.784l-1.508,1.653A10.353,10.353,0,0,0,94.366,82.348Zm18.618,0c4.118,0,7.279-2.842,7.279-6.757v-.058c0-3.8-3.248-6.235-7.018-6.235a6.577,6.577,0,0,0-5.771,3.1c-.029-5.249,2.262-8.961,5.945-8.961a7.079,7.079,0,0,1,4.785,2l1.334-1.769a8.965,8.965,0,0,0-6-2.32c-5.307,0-8.439,4.843-8.439,11.02v.058c0,4.147.928,6.235,2.552,7.859A7.37,7.37,0,0,0,112.984,82.348Zm.029-2.03c-2.987,0-5.133-1.972-5.133-4.553v-.058c0-2.262,2.03-4.437,5.075-4.437,2.929,0,4.959,1.856,4.959,4.35v.058A4.6,4.6,0,0,1,113.013,80.318ZM125.425,82h2.552L137.2,63.411V61.7H123.424v2.088h11.165Zm22.156.29c4.321,0,7.627-2.32,7.627-5.771v-.058c0-2.407-1.769-4.06-4.176-4.959,1.885-.87,3.48-2.32,3.48-4.669v-.058c0-3.132-3.219-5.365-6.931-5.365s-6.931,2.233-6.931,5.365v.058c0,2.349,1.6,3.8,3.48,4.669-2.436.87-4.176,2.581-4.176,4.988v.058C139.954,79.941,143.26,82.29,147.581,82.29Zm0-11.6c-2.581,0-4.64-1.508-4.64-3.712V66.92c0-2.03,2-3.509,4.64-3.509s4.64,1.508,4.64,3.509v.058C152.221,69.182,150.162,70.69,147.581,70.69Zm0,9.6c-3.335,0-5.307-1.74-5.307-3.8v-.058c0-2.262,2.349-3.857,5.307-3.857s5.307,1.6,5.307,3.857v.058C152.888,78.549,150.916,80.289,147.581,80.289Zm17.545,2.059c5.017,0,8.439-4.553,8.439-10.991V71.3c0-4.06-.986-6.322-2.523-7.859a7.178,7.178,0,0,0-5.336-2.088c-4.321,0-7.308,3.045-7.308,6.9v.058c0,3.654,2.9,6.293,7.076,6.293a6.51,6.51,0,0,0,5.742-3.248c.087,5.191-2.378,8.9-6.032,8.9a7.351,7.351,0,0,1-4.988-2.175l-1.334,1.769A9.409,9.409,0,0,0,165.126,82.348Zm.609-9.715c-2.958,0-4.988-1.856-4.988-4.437v-.058a4.661,4.661,0,0,1,4.872-4.756c3.045,0,5.162,2.03,5.162,4.611v.058A4.766,4.766,0,0,1,165.735,72.633Zm28.3,13.456L195,84.61c-4.408-2.813-6.728-6.293-6.728-10.933s2.32-8.12,6.728-10.933l-.957-1.479c-5.162,2.9-8.033,7.076-8.033,12.412S188.877,83.189,194.039,86.089Zm5.887-9.831h1.247l.7-12.905V61.7h-2.61v1.653ZM199.23,82H201.9V78.955H199.23Zm19.72,4.7a14.214,14.214,0,0,0,7.685-2.175l-.464-.783a13.277,13.277,0,0,1-7.221,1.972,11.688,11.688,0,1,1-.232-23.374c6.641,0,11.6,5.162,11.6,10.5,0,4.118-2,5.974-4.06,5.974a2.2,2.2,0,0,1-2.465-2.349,11.5,11.5,0,0,1,.2-1.769l1.16-6.583-1.943-.261-.377,2a4.608,4.608,0,0,0-4.234-2.407,7.175,7.175,0,0,0-6.7,7.221,5.082,5.082,0,0,0,5.191,5.278,6.082,6.082,0,0,0,4.785-2.436,4,4,0,0,0,4.06,2.436c2.668,0,5.423-2.175,5.423-7.105,0-6.061-5.539-11.484-12.644-11.484A12.674,12.674,0,1,0,218.95,86.7Zm-1.421-8.555a3.357,3.357,0,0,1-3.538-3.625,5.119,5.119,0,0,1,4.756-5.278,3.516,3.516,0,0,1,3.538,3.683C222.285,75.649,220.023,78.143,217.529,78.143ZM236.495,82h2.03l.9-5.133h5.51L244.064,82h2.03l.9-5.133h3.741v-2h-3.422l1.073-6.148h3.48v-2h-3.132l.841-5.017h-2.03l-.87,5.017h-5.51l.841-5.017h-2.03l-.87,5.017h-3.77v2h3.451l-1.073,6.148H234.2v2h3.161Zm3.277-7.134,1.044-6.148h5.51l-1.044,6.148Zm21.895,9.976h1.856V82c3.654-.232,6.177-2.349,6.177-5.452V76.49c0-2.929-1.856-4.611-6.264-5.626V63.73a8.871,8.871,0,0,1,4.379,2.088l1.247-1.74a10.186,10.186,0,0,0-5.539-2.32v-1.74h-1.856V61.7c-3.567.174-6.09,2.349-6.09,5.336v.058c0,3.016,1.885,4.611,6.177,5.626v7.25a9.67,9.67,0,0,1-5.626-2.755l-1.3,1.74a11.9,11.9,0,0,0,6.844,2.987Zm.087-14.384c-3.19-.812-3.944-1.885-3.944-3.509v-.058c0-1.769,1.508-3.161,3.944-3.248Zm1.682,9.6V73.126c3.219.783,4.031,1.8,4.031,3.509v.058C267.467,78.578,265.9,79.941,263.436,80.057Zm14.3-8.207c2.755,0,4.611-2.436,4.611-5.191V66.6c0-2.726-1.827-5.133-4.553-5.133-2.784,0-4.64,2.436-4.64,5.191v.058C273.151,69.443,274.978,71.85,277.733,71.85ZM275.239,82h2.088L292.2,61.7h-2.059Zm14.442.232c2.784,0,4.611-2.436,4.611-5.191v-.058c0-2.726-1.8-5.133-4.553-5.133s-4.611,2.436-4.611,5.191V77.1C285.128,79.825,286.955,82.232,289.681,82.232Zm-11.89-12.006c-1.508,0-2.7-1.537-2.7-3.567V66.6c0-1.914,1.044-3.509,2.639-3.509,1.479,0,2.7,1.537,2.7,3.567v.058C280.43,68.66,279.357,70.226,277.791,70.226Zm11.948,10.382c-1.508,0-2.7-1.537-2.7-3.567v-.058c0-1.914,1.073-3.509,2.639-3.509,1.508,0,2.7,1.537,2.7,3.567V77.1C292.378,79.042,291.334,80.608,289.739,80.608Zm23.606,1.8,1.74-1.334-3.538-3.625a28.4,28.4,0,0,0,2.929-5.1l-1.885-.87A26.538,26.538,0,0,1,310.155,76l-4.64-4.727c2.958-1.044,4.785-2.7,4.785-5.278v-.058a4.7,4.7,0,0,0-4.93-4.582c-3.219,0-5.365,2.146-5.365,4.814v.058c0,1.6.638,2.842,2.03,4.466-3.1,1.218-4.9,3.161-4.9,5.858v.058c0,3.393,2.726,5.684,6.38,5.684a8.813,8.813,0,0,0,6.641-3.161Zm-9.106-12.441c-1.537-1.653-2.03-2.552-2.03-3.741v-.058a2.9,2.9,0,0,1,3.074-2.929,2.759,2.759,0,0,1,2.871,2.813v.058C308.154,67.848,306.82,69.1,304.239,69.965Zm-.551,10.382a3.915,3.915,0,0,1-4.234-3.828v-.058c0-1.711,1.189-3.364,3.886-4.35l5.423,5.6A6.938,6.938,0,0,1,303.688,80.347ZM317.7,85.538c2.2-.493,3.219-1.624,3.219-3.973v-2.61h-2.668V82h1.044c.116,1.247-.493,2-1.943,2.523ZM325.351,82h2.668V78.955h-2.668ZM336.6,76.258h1.479l.29-3.132c3.306-.464,6.032-2.262,6.032-5.887v-.058c0-3.306-2.581-5.742-6.5-5.742a8.348,8.348,0,0,0-6.815,3.364l1.479,1.421A6.78,6.78,0,0,1,337.85,63.5c2.61,0,4.234,1.682,4.234,3.77v.058c0,2.436-2,4-5.771,4.089l-.145.145ZM335.994,82h2.668V78.955h-2.668Zm12.18-11.948h2.668V67.007h-2.668Zm0,11.948h2.668V78.955h-2.668Zm7.4-11.948h2.668V67.007h-2.668Zm-.551,15.486c2.2-.493,3.219-1.624,3.219-3.973v-2.61h-2.668V82h1.044c.116,1.247-.493,2-1.943,2.523Zm8.149.551c5.162-2.9,8.033-7.076,8.033-12.412s-2.871-9.512-8.033-12.412l-.957,1.479c4.408,2.813,6.728,6.293,6.728,10.933s-2.32,8.12-6.728,10.933Z" transform="translate(20838 2070)"/></g></svg>