<svg xmlns="http://www.w3.org/2000/svg" xmlns:xlink="http://www.w3.org/1999/xlink" viewBox="21328.426 1275.444 509.68 205.475"><defs><style>.a{filter:url(#a);}</style><filter id="a" x="21335.074" y="1275.444" width="366.145" height="69.226" filterUnits="userSpaceOnUse"><feOffset dx="5" dy="3" input="SourceAlpha"/><feGaussianBlur result="b"/><feFlood flood-color="#00e7ff"/><feComposite operator="in" in2="b"/><feComposite in="SourceGraphic"/></filter></defs><g transform="translate(490 -663)"><g class="a" transform="matrix(1, 0, 0, 1, -490, 663)"><path d="M7.075-64.556h8.833v26.675H49.482V-64.556h8.833V0H49.482V-30.19H15.908V0H7.075ZM90.4-48.12a21.469,21.469,0,0,1,9.712,2.351,17.909,17.909,0,0,1,7.163,6.086,21,21,0,0,1,3.164,8.306,54.341,54.341,0,0,1,.7,10.371h-34.5q.22,7.163,3.384,11.492t9.8,4.329a12.669,12.669,0,0,0,9.888-4.087,13.777,13.777,0,0,0,2.988-5.493h7.778a16.382,16.382,0,0,1-2.043,5.779,20.553,20.553,0,0,1-3.889,5.208A18.433,18.433,0,0,1,95.625.967a27.1,27.1,0,0,1-6.46.7,19.821,19.821,0,0,1-14.9-6.394q-6.108-6.394-6.108-17.908,0-11.338,6.152-18.413A20.3,20.3,0,0,1,90.4-48.12Zm12.612,20.83a20.494,20.494,0,0,0-2.241-8.218q-3.252-5.713-10.854-5.713a12.032,12.032,0,0,0-9.141,3.933,14.858,14.858,0,0,0-3.911,10Zm18.062-37.266h7.91V0h-7.91Zm23.643,17.49L157.28-8.745l13.14-38.32h8.657L161.323,0h-8.437L135.527-47.065Zm60.732-1.055a21.469,21.469,0,0,1,9.712,2.351,17.909,17.909,0,0,1,7.163,6.086,21,21,0,0,1,3.164,8.306,54.341,54.341,0,0,1,.7,10.371h-34.5q.22,7.163,3.384,11.492t9.8,4.329a12.669,12.669,0,0,0,9.888-4.087,13.777,13.777,0,0,0,2.988-5.493h7.778a16.382,16.382,0,0,1-2.043,5.779,20.553,20.553,0,0,1-3.889,5.208A18.433,18.433,0,0,1,210.674.967a27.1,27.1,0,0,1-6.46.7,19.821,19.821,0,0,1-14.9-6.394q-6.108-6.394-6.108-17.908,0-11.338,6.152-18.413A20.3,20.3,0,0,1,205.444-48.12Zm12.612,20.83a20.494,20.494,0,0,0-2.241-8.218q-3.252-5.713-10.854-5.713a12.032,12.032,0,0,0-9.141,3.933,14.858,14.858,0,0,0-3.911,10ZM237.48-60.205h8v13.14h7.515v6.46h-7.515V-9.888a3.324,3.324,0,0,0,1.67,3.3,7.1,7.1,0,0,0,3.076.483q.571,0,1.23-.022t1.538-.11V0a17.658,17.658,0,0,1-2.834.571,26.948,26.948,0,0,1-3.186.176q-5.537,0-7.515-2.834a12.6,12.6,0,0,1-1.978-7.361V-40.605h-6.372v-6.46h6.372ZM260.9-46.846h8.042V0H260.9Zm0-17.71h8.042v8.965H260.9Zm38.145,16.128q7.954,0,12.942,3.867t6,13.315H310.3a14.2,14.2,0,0,0-3.208-7.229q-2.5-2.878-8.042-2.878-7.559,0-10.811,7.383a29.327,29.327,0,0,0-2.109,11.821,22.245,22.245,0,0,0,2.988,11.909q2.988,4.834,9.4,4.834a10.284,10.284,0,0,0,7.8-3.01,16.553,16.553,0,0,0,3.977-8.24h7.69Q316.67-7.295,311.4-2.966T297.905,1.362a18.01,18.01,0,0,1-14.722-6.746q-5.493-6.746-5.493-16.853,0-12.393,6.021-19.292A19.454,19.454,0,0,1,299.048-48.428Zm32.915,35.9a6.514,6.514,0,0,0,2.5,5.405A9.287,9.287,0,0,0,340.4-5.142a18.038,18.038,0,0,0,8.086-1.934,10.882,10.882,0,0,0,6.592-10.5V-23.95a13.533,13.533,0,0,1-3.735,1.538,31.83,31.83,0,0,1-4.482.879l-4.79.615a18.32,18.32,0,0,0-6.46,1.8A7.019,7.019,0,0,0,331.963-12.524Zm19.16-16a4.3,4.3,0,0,0,3.647-2.285,6.953,6.953,0,0,0,.527-3.032q0-4.043-2.878-5.867t-8.24-1.824q-6.2,0-8.789,3.34A10.988,10.988,0,0,0,333.5-32.7h-7.383q.22-8.7,5.647-12.107a23.185,23.185,0,0,1,12.59-3.406q8.306,0,13.491,3.164,5.142,3.164,5.142,9.844V-8.086a3.472,3.472,0,0,0,.505,1.978,2.437,2.437,0,0,0,2.131.747q.527,0,1.187-.066t1.406-.2V.22a22.031,22.031,0,0,1-2.812.659,20.553,20.553,0,0,1-2.637.132q-4.087,0-5.933-2.9a11.193,11.193,0,0,1-1.362-4.351A20.125,20.125,0,0,1,348.53-.747a21.477,21.477,0,0,1-9.976,2.329,14.834,14.834,0,0,1-10.7-3.977,13.21,13.21,0,0,1-4.153-9.954q0-6.548,4.087-10.151a19.445,19.445,0,0,1,10.723-4.438Z" transform="translate(21328 1340)"/></g><path d="M3.823-4.036A2.1,2.1,0,0,0,4.63-2.294a2.993,2.993,0,0,0,1.912.637A5.812,5.812,0,0,0,9.147-2.28a3.506,3.506,0,0,0,2.124-3.384V-7.717a4.361,4.361,0,0,1-1.2.5,10.256,10.256,0,0,1-1.444.283l-1.543.2A5.9,5.9,0,0,0,5-6.16,2.262,2.262,0,0,0,3.823-4.036ZM10-9.19a1.385,1.385,0,0,0,1.175-.736,2.24,2.24,0,0,0,.17-.977,2.07,2.07,0,0,0-.927-1.89,4.976,4.976,0,0,0-2.655-.588,3.374,3.374,0,0,0-2.832,1.076,3.541,3.541,0,0,0-.609,1.77H1.94a4.379,4.379,0,0,1,1.82-3.9,7.471,7.471,0,0,1,4.057-1.1,8.255,8.255,0,0,1,4.347,1.02,3.459,3.459,0,0,1,1.657,3.172v8.737a1.119,1.119,0,0,0,.163.637.785.785,0,0,0,.687.241q.17,0,.382-.021t.453-.064V.071A7.1,7.1,0,0,1,14.6.283a6.623,6.623,0,0,1-.85.042,2.1,2.1,0,0,1-1.912-.935,3.607,3.607,0,0,1-.439-1.4A6.485,6.485,0,0,1,9.162-.241,6.921,6.921,0,0,1,5.947.51,4.78,4.78,0,0,1,2.5-.772,4.257,4.257,0,0,1,1.161-3.979,4.131,4.131,0,0,1,2.478-7.25,6.266,6.266,0,0,1,5.933-8.68Zm7.8-11.682h2.478v7.547a5.652,5.652,0,0,1,2-1.664,5.613,5.613,0,0,1,2.521-.573,5.909,5.909,0,0,1,4.595,1.947,8.294,8.294,0,0,1,1.763,5.742A9.848,9.848,0,0,1,29.411-1.9,5.65,5.65,0,0,1,24.582.481a4.948,4.948,0,0,1-2.917-.835A7.044,7.044,0,0,1,20.15-1.94V0H17.8Zm6.627,19.1A3.406,3.406,0,0,0,27.52-3.413a8.088,8.088,0,0,0,1.027-4.333A7.112,7.112,0,0,0,27.52-11.71,3.381,3.381,0,0,0,24.5-13.282a4.217,4.217,0,0,0-3.052,1.289q-1.31,1.289-1.31,4.248a9.388,9.388,0,0,0,.538,3.469A3.718,3.718,0,0,0,24.426-1.77ZM39.974-15.6a6.612,6.612,0,0,1,4.17,1.246,5.97,5.97,0,0,1,1.933,4.291H43.6A4.575,4.575,0,0,0,42.565-12.4a3.265,3.265,0,0,0-2.591-.927,3.581,3.581,0,0,0-3.483,2.379,9.45,9.45,0,0,0-.68,3.809A7.168,7.168,0,0,0,36.774-3.3,3.3,3.3,0,0,0,39.8-1.742a3.314,3.314,0,0,0,2.513-.97A5.334,5.334,0,0,0,43.6-5.367h2.478A6.652,6.652,0,0,1,43.953-.956,6.627,6.627,0,0,1,39.606.439a5.8,5.8,0,0,1-4.744-2.174,8.319,8.319,0,0,1-1.77-5.43,9.149,9.149,0,0,1,1.94-6.216A6.269,6.269,0,0,1,39.974-15.6Zm10.266,8.2a7.517,7.517,0,0,0,1.034,4.078,3.622,3.622,0,0,0,3.313,1.643A3.49,3.49,0,0,0,57.5-3.207a7.189,7.189,0,0,0,1.14-4.368,6.46,6.46,0,0,0-1.175-4.255,3.666,3.666,0,0,0-2.9-1.381,3.832,3.832,0,0,0-3.122,1.473A6.745,6.745,0,0,0,50.24-7.406Zm3.837-8.029a5.4,5.4,0,0,1,2.917.736,6.852,6.852,0,0,1,1.543,1.487v-7.661h2.45V0H58.694V-2.11a5.515,5.515,0,0,1-2.11,2.025,6.039,6.039,0,0,1-2.79.623A5.649,5.649,0,0,1,49.4-1.593,8.332,8.332,0,0,1,47.55-7.264a9.79,9.79,0,0,1,1.692-5.742A5.54,5.54,0,0,1,54.078-15.435Zm16.992-.071a6.918,6.918,0,0,1,3.129.758,5.771,5.771,0,0,1,2.308,1.961,6.766,6.766,0,0,1,1.02,2.676,17.51,17.51,0,0,1,.227,3.342H66.638a6.486,6.486,0,0,0,1.09,3.7,3.651,3.651,0,0,0,3.158,1.395,4.082,4.082,0,0,0,3.186-1.317,4.439,4.439,0,0,0,.963-1.77h2.506A5.279,5.279,0,0,1,76.883-2.9a6.623,6.623,0,0,1-1.253,1.678A5.94,5.94,0,0,1,72.755.312a8.732,8.732,0,0,1-2.082.227,6.387,6.387,0,0,1-4.8-2.06A8.017,8.017,0,0,1,63.9-7.292a8.716,8.716,0,0,1,1.982-5.933A6.54,6.54,0,0,1,71.07-15.505Zm4.064,6.712a6.6,6.6,0,0,0-.722-2.648,3.7,3.7,0,0,0-3.5-1.841,3.877,3.877,0,0,0-2.945,1.267,4.788,4.788,0,0,0-1.26,3.221Zm6.386-8.68a4.545,4.545,0,0,1,.552-2.322q.892-1.3,3.441-1.3.241,0,.5.014t.581.042v2.322q-.4-.028-.573-.035t-.333-.007q-1.161,0-1.388.6a11.9,11.9,0,0,0-.227,3.066h2.521v2.011H84.041V0H81.52V-13.084H79.41v-2.011h2.11Zm12.772,2.039a5.527,5.527,0,0,1,3.115.878,7,7,0,0,1,1.473,1.444v-1.912h2.351V-1.232a10.171,10.171,0,0,1-.85,4.56Q98.8,6.415,94.392,6.415a7.347,7.347,0,0,1-4.121-1.1A4.28,4.28,0,0,1,88.4,1.883h2.591a2.884,2.884,0,0,0,.736,1.572,3.754,3.754,0,0,0,2.719.85q2.931,0,3.837-2.067a11.643,11.643,0,0,0,.5-4.347A5,5,0,0,1,96.94-.382a6.124,6.124,0,0,1-2.846.566,6.076,6.076,0,0,1-4.312-1.749q-1.848-1.749-1.848-5.784A8.76,8.76,0,0,1,89.8-13.3,5.758,5.758,0,0,1,94.292-15.435ZM98.88-7.646a6.323,6.323,0,0,0-1.161-4.177,3.72,3.72,0,0,0-2.959-1.359,3.655,3.655,0,0,0-3.682,2.521,9.883,9.883,0,0,0-.524,3.526,6.259,6.259,0,0,0,1.041,3.9,3.36,3.36,0,0,0,2.8,1.338,3.926,3.926,0,0,0,3.866-2.478A7.993,7.993,0,0,0,98.88-7.646Zm6.188-13.226h2.549v7.76a7.359,7.359,0,0,1,1.628-1.614,5.494,5.494,0,0,1,3.073-.807q3.3,0,4.475,2.308a7.871,7.871,0,0,1,.637,3.5V0h-2.62V-9.558a5.346,5.346,0,0,0-.425-2.45,2.714,2.714,0,0,0-2.605-1.246,4.34,4.34,0,0,0-2.875,1.09q-1.289,1.09-1.289,4.121V0h-2.549ZM121.2-15.095h2.591V0H121.2Zm0-5.707h2.591v2.889H121.2Zm8.992,2.945H127.64V-20.8h2.549ZM125.232,3.837a5.073,5.073,0,0,0,2.06-.3q.347-.248.347-1.551V-15.095h2.549V2.251a4.576,4.576,0,0,1-.538,2.478q-.892,1.388-3.384,1.388-.184,0-.389-.014t-.644-.057ZM134.026-20.8h2.45V-8.723l6.542-6.443h3.257l-5.806,5.678L146.6,0h-3.257l-4.729-7.646-2.138,1.954V0h-2.45Zm14.627,0H151.2V0h-2.549Zm6.372,5.636h2.521v2.152a8.472,8.472,0,0,1,1.643-1.628,4.94,4.94,0,0,1,2.86-.864,4.5,4.5,0,0,1,2.917.892,4.663,4.663,0,0,1,1.133,1.5,5.509,5.509,0,0,1,2-1.805,5.569,5.569,0,0,1,2.577-.588q3.059,0,4.163,2.209a7.221,7.221,0,0,1,.595,3.2V0h-2.648V-10.535a2.454,2.454,0,0,0-.758-2.082,3,3,0,0,0-1.848-.566,3.668,3.668,0,0,0-2.584,1.005,4.415,4.415,0,0,0-1.083,3.356V0h-2.591V-9.9a5.143,5.143,0,0,0-.368-2.251,2.245,2.245,0,0,0-2.167-1.062,3.738,3.738,0,0,0-2.627,1.119q-1.182,1.119-1.182,4.05V0h-2.549Zm24.157,0H181.6v2.152a6.792,6.792,0,0,1,2.28-1.912,6.08,6.08,0,0,1,2.676-.581q3.229,0,4.361,2.251a8,8,0,0,1,.623,3.526V0h-2.591V-9.558a5.176,5.176,0,0,0-.411-2.237,2.49,2.49,0,0,0-2.464-1.416,5.017,5.017,0,0,0-1.487.184,3.829,3.829,0,0,0-1.841,1.246,3.751,3.751,0,0,0-.828,1.551,10.437,10.437,0,0,0-.191,2.287V0h-2.549ZM201.329-1.643a3.515,3.515,0,0,0,3.476-1.919,9.559,9.559,0,0,0,.942-4.269,7.6,7.6,0,0,0-.68-3.455,3.824,3.824,0,0,0-3.71-2.1,3.658,3.658,0,0,0-3.4,1.784,8.27,8.27,0,0,0-1.062,4.3,7.194,7.194,0,0,0,1.062,4.036A3.74,3.74,0,0,0,201.329-1.643Zm.1-13.962a6.867,6.867,0,0,1,4.956,1.954A7.631,7.631,0,0,1,208.409-7.9a9.864,9.864,0,0,1-1.784,6.061A6.454,6.454,0,0,1,201.088.552a6.251,6.251,0,0,1-4.97-2.117,8.362,8.362,0,0,1-1.841-5.685,9.046,9.046,0,0,1,1.94-6.089A6.511,6.511,0,0,1,201.428-15.6ZM217.84-1.713a3.636,3.636,0,0,0,2.967-1.494,7.109,7.109,0,0,0,1.182-4.468,8.339,8.339,0,0,0-.524-3.115A3.616,3.616,0,0,0,217.84-13.3a3.615,3.615,0,0,0-3.625,2.648,10.494,10.494,0,0,0-.524,3.6,7.624,7.624,0,0,0,.524,2.988A3.614,3.614,0,0,0,217.84-1.713Zm-6.6-13.381h2.478v2.011a6.186,6.186,0,0,1,1.671-1.6,5.378,5.378,0,0,1,3.03-.85,5.7,5.7,0,0,1,4.375,1.975,8.093,8.093,0,0,1,1.8,5.643q0,4.956-2.591,7.08A5.855,5.855,0,0,1,218.18.51a5.19,5.19,0,0,1-2.875-.75A6.623,6.623,0,0,1,213.79-1.7V6.046h-2.549ZM229.21-7.377a8.637,8.637,0,0,0,.552,3.3,3.509,3.509,0,0,0,3.5,2.365,3.659,3.659,0,0,0,3.667-2.492,9.511,9.511,0,0,0,.552-3.512A7.822,7.822,0,0,0,236.871-11a3.682,3.682,0,0,0-3.639-2.251,3.566,3.566,0,0,0-2.839,1.437A6.911,6.911,0,0,0,229.21-7.377Zm3.767-8.128a5.2,5.2,0,0,1,3.172.949,5.627,5.627,0,0,1,1.359,1.5v-2.11h2.421V6.046h-2.563V-1.742A4.573,4.573,0,0,1,235.6-.12a5.913,5.913,0,0,1-2.811.6,6,6,0,0,1-4.333-1.9q-1.912-1.9-1.912-5.777a9.541,9.541,0,0,1,1.791-5.976A5.584,5.584,0,0,1,232.977-15.505Zm10.79.34h2.421v2.62a5.788,5.788,0,0,1,1.458-1.862,3.782,3.782,0,0,1,2.676-1.1q.071,0,.241.014t.581.057v2.69a3.807,3.807,0,0,0-.418-.057q-.191-.014-.418-.014a3.637,3.637,0,0,0-2.959,1.239,4.325,4.325,0,0,0-1.034,2.853V0h-2.549Zm11.1,10.408a3.706,3.706,0,0,0,.637,1.954,4,4,0,0,0,3.342,1.232,4.928,4.928,0,0,0,2.492-.616,2.045,2.045,0,0,0,1.076-1.9,1.629,1.629,0,0,0-.864-1.487,10.27,10.27,0,0,0-2.181-.722l-2.025-.51a9.878,9.878,0,0,1-2.86-1.076,3.216,3.216,0,0,1-1.643-2.86,4.37,4.37,0,0,1,1.551-3.483,6.185,6.185,0,0,1,4.17-1.331q3.427,0,4.942,2.011a4.364,4.364,0,0,1,.92,2.747H262.02a2.949,2.949,0,0,0-.609-1.572,3.883,3.883,0,0,0-3.044-1.005,3.639,3.639,0,0,0-2.188.552,1.731,1.731,0,0,0-.743,1.458,1.8,1.8,0,0,0,.977,1.586,5.871,5.871,0,0,0,1.671.623l1.685.411a13.028,13.028,0,0,1,3.682,1.289,3.412,3.412,0,0,1,1.487,3.073,4.683,4.683,0,0,1-1.536,3.5A6.54,6.54,0,0,1,258.72.581q-3.384,0-4.793-1.536a5.81,5.81,0,0,1-1.508-3.8ZM268.363-19.4h2.577v4.234h2.421v2.082H270.94v9.9a1.071,1.071,0,0,0,.538,1.062,2.287,2.287,0,0,0,.991.156q.184,0,.4-.007t.5-.035V0a5.689,5.689,0,0,1-.913.184,8.683,8.683,0,0,1-1.027.057A2.767,2.767,0,0,1,269-.673a4.059,4.059,0,0,1-.637-2.372v-10.04H266.31v-2.082h2.053Zm10.1,4.234V-5.1a4.245,4.245,0,0,0,.368,1.9,2.569,2.569,0,0,0,2.535,1.359,3.583,3.583,0,0,0,3.625-2.379,9.439,9.439,0,0,0,.524-3.5v-7.448h2.549V0h-2.407l.028-2.237a5.142,5.142,0,0,1-1.232,1.458,5.421,5.421,0,0,1-3.54,1.189q-3.243,0-4.418-2.167a6.452,6.452,0,0,1-.637-3.1V-15.166Zm14.826,0,4.05,12.348,4.234-12.348h2.79L298.638,0h-2.719l-5.593-15.166Zm14.429,0,2.917,11.951,2.959-11.951h2.86l2.974,11.88,3.1-11.88h2.549L320.671,0h-2.648l-3.087-11.739L311.948,0H309.3l-4.375-15.166Zm18.323,0h3.3l3.483,5.338,3.526-5.338,3.1.071-5.112,7.321L339.674,0h-3.257L332.65-5.692,329,0h-3.229l5.338-7.774Zm25.417,0h2.818q-.538,1.458-2.393,6.655-1.388,3.908-2.322,6.372a43.08,43.08,0,0,1-3.115,7.08,3.561,3.561,0,0,1-3.115,1.274,6.112,6.112,0,0,1-.828-.042,6.544,6.544,0,0,1-.715-.156V3.7a8.793,8.793,0,0,0,.963.227,3.759,3.759,0,0,0,.524.042,1.835,1.835,0,0,0,1.041-.234,2.155,2.155,0,0,0,.559-.573q.071-.113.51-1.161t.637-1.558l-5.607-15.6H343.3l4.064,12.348Zm3.894,13.155,8.992-10.875h-8.326v-2.28h11.753v2.082l-8.935,10.8h9.2V0H355.349ZM12.886,26.476l-3.158-9.19-3.356,9.19ZM8.255,14.2h3.186L18.989,35H15.9l-2.11-6.23H5.565L3.313,35H.425Zm21.113,8.793a6.321,6.321,0,0,0,2.775-.5,2.855,2.855,0,0,0,1.558-2.8,2.7,2.7,0,0,0-1.657-2.747,7.446,7.446,0,0,0-2.775-.4H24.242v6.443Zm.949,9.6a4.286,4.286,0,0,0,3.7-1.5,3.779,3.779,0,0,0,.694-2.294,3.052,3.052,0,0,0-2.025-3.087,7.665,7.665,0,0,0-2.846-.439H24.242v7.321ZM21.481,14.2h8.935q3.653,0,5.2,2.181a5.039,5.039,0,0,1,.906,2.974A4.682,4.682,0,0,1,35.4,22.582,5.467,5.467,0,0,1,33.729,23.8a7.069,7.069,0,0,1,2.393,1.374,4.984,4.984,0,0,1,1.4,3.752,5.8,5.8,0,0,1-1.26,3.639Q34.381,35,30.274,35H21.481Zm28.179-.566a8.524,8.524,0,0,1,6.131,2.082,7.351,7.351,0,0,1,2.421,4.729H55.465A5.717,5.717,0,0,0,53.6,17.257a5.9,5.9,0,0,0-3.915-1.175,6.278,6.278,0,0,0-4.963,2.159q-1.89,2.159-1.89,6.62a9.615,9.615,0,0,0,1.706,5.926,5.962,5.962,0,0,0,5.091,2.273,5.378,5.378,0,0,0,4.744-2.393,9.1,9.1,0,0,0,1.289-3.313h2.747a9.387,9.387,0,0,1-2.436,5.508,8.666,8.666,0,0,1-6.684,2.676A8.821,8.821,0,0,1,43.2,33.343q-3.243-2.9-3.243-8.963A11.45,11.45,0,0,1,42.4,16.833,8.9,8.9,0,0,1,49.66,13.632Zm20.164,18.96a7.788,7.788,0,0,0,2.351-.3,5.17,5.17,0,0,0,2.69-2.124,8.7,8.7,0,0,0,1.2-3.229,12.315,12.315,0,0,0,.212-2.181,10.155,10.155,0,0,0-1.536-6Q73.208,16.62,69.8,16.62h-5V32.593ZM61.965,14.2H70.39a7.941,7.941,0,0,1,6.655,3.044,11.224,11.224,0,0,1,2.11,7.038,14.022,14.022,0,0,1-1.246,5.99A7.688,7.688,0,0,1,70.362,35h-8.4Zm21.084,0H98.215v2.549H85.8v6.315H97.28V25.47H85.8v7.052H98.427V35H83.049Zm19.343,0h14.429v2.549H105.21v6.315h10.209v2.478H105.21V35h-2.818Zm26.437-.538a10.686,10.686,0,0,1,5.069,1.133,7.391,7.391,0,0,1,3.795,5.707H134.9a5.066,5.066,0,0,0-2.11-3.321,7.262,7.262,0,0,0-4.036-1.041,6.324,6.324,0,0,0-4.864,2.167q-1.975,2.167-1.975,6.457a10.318,10.318,0,0,0,1.628,6.039q1.628,2.329,5.31,2.329a6.78,6.78,0,0,0,4.666-1.635q1.848-1.635,1.89-5.289H128.9V23.87h9.133V35h-1.812l-.68-2.676a10.683,10.683,0,0,1-2.535,2.181,9.5,9.5,0,0,1-4.715,1.048,9.187,9.187,0,0,1-6.358-2.393q-2.9-3-2.9-8.241a11.818,11.818,0,0,1,2.832-8.312A9,9,0,0,1,128.829,13.661Zm13.636.538h2.846v8.6H156.13V14.2h2.846V35H156.13V25.272H145.312V35h-2.846Zm21.509,0h2.846V35h-2.846ZM181.6,28.8a8.808,8.808,0,0,1-.779,4.092q-1.444,2.662-5.494,2.662a6.379,6.379,0,0,1-3.993-1.267q-1.657-1.267-1.657-4.51V28.288h2.648v1.487a3.757,3.757,0,0,0,.758,2.556,2.989,2.989,0,0,0,2.358.857,2.885,2.885,0,0,0,2.945-1.543,10.046,10.046,0,0,0,.425-3.583V14.2h2.79Zm4.291-14.6h2.747V24.337L198.78,14.2h3.894l-8.652,8.383L202.915,35h-3.667l-7.278-10.436-3.328,3.186V35h-2.747Zm19.343,0h2.818V32.522H218.59V35H205.237Zm16.058,0h4.036l5.976,17.587L237.239,14.2h3.993V35h-2.676V22.723q0-.637.028-2.11t.028-3.158L232.68,35h-2.79l-5.976-17.544v.637q0,.765.035,2.329t.035,2.3V35h-2.69Zm24.228,0h3.328l10.507,16.851V14.2h2.676V35h-3.158L248.213,18.164V35h-2.69Zm29.92-.566q5.508,0,8.156,3.54a11.472,11.472,0,0,1,2.067,7.066,12.365,12.365,0,0,1-2.365,7.746,10.508,10.508,0,0,1-15.463.453,11.977,11.977,0,0,1-2.45-7.731,12.3,12.3,0,0,1,2.1-7.222A9.079,9.079,0,0,1,275.443,13.632Zm.283,19.456a5.866,5.866,0,0,0,5.388-2.669,11.361,11.361,0,0,0,1.664-6.138,8.756,8.756,0,0,0-1.919-5.9,6.549,6.549,0,0,0-5.246-2.237,6.832,6.832,0,0,0-5.268,2.216q-2.039,2.216-2.039,6.535a9.547,9.547,0,0,0,1.749,5.827Q271.8,33.088,275.727,33.088ZM289.292,14.2h9.36a6.345,6.345,0,0,1,4.475,1.565,5.678,5.678,0,0,1,1.7,4.4,6.392,6.392,0,0,1-1.515,4.241,5.741,5.741,0,0,1-4.659,1.805H292.11V35h-2.818Zm12.688,5.976a3.13,3.13,0,0,0-1.7-3.115,6.135,6.135,0,0,0-2.563-.439H292.11v7.208h5.607a5.359,5.359,0,0,0,3.08-.807A3.2,3.2,0,0,0,301.979,20.174ZM327.4,34.943l-1.416,1.713-3.214-2.45a11.977,11.977,0,0,1-2.513,1.02,10.822,10.822,0,0,1-2.952.382,9.511,9.511,0,0,1-7.59-3.172,12.144,12.144,0,0,1-2.421-7.731,12.3,12.3,0,0,1,2.1-7.222,9.079,9.079,0,0,1,7.958-3.852q5.508,0,8.156,3.54a11.472,11.472,0,0,1,2.067,7.066,14.913,14.913,0,0,1-.5,3.866,9.993,9.993,0,0,1-2.535,4.616Zm-9.756-1.855a10.575,10.575,0,0,0,1.643-.12,3.514,3.514,0,0,0,1.331-.474l-2.28-1.784,1.416-1.742,2.719,2.11a7.878,7.878,0,0,0,1.749-3.3,14.315,14.315,0,0,0,.46-3.5,8.756,8.756,0,0,0-1.919-5.9,6.549,6.549,0,0,0-5.246-2.237,6.888,6.888,0,0,0-5.338,2.145q-1.968,2.145-1.968,6.606a8.919,8.919,0,0,0,1.89,5.976A6.872,6.872,0,0,0,317.641,33.088Zm22.954-9.36a5.461,5.461,0,0,0,3.136-.793,3.228,3.228,0,0,0,1.154-2.86,3.069,3.069,0,0,0-1.614-3.03,5.275,5.275,0,0,0-2.308-.425h-6.882v7.108Zm-9.332-9.53h9.629a9.6,9.6,0,0,1,3.922.694,4.913,4.913,0,0,1,2.931,4.914,5.525,5.525,0,0,1-.772,3.059,5.576,5.576,0,0,1-2.159,1.912,4.255,4.255,0,0,1,1.834,1.3,4.679,4.679,0,0,1,.687,2.62l.1,2.79a8.575,8.575,0,0,0,.2,1.77,1.74,1.74,0,0,0,.906,1.274V35h-3.455a2.6,2.6,0,0,1-.227-.694,13.316,13.316,0,0,1-.142-1.643l-.17-3.469a2.915,2.915,0,0,0-1.515-2.733,6.267,6.267,0,0,0-2.535-.382h-6.415V35h-2.818Zm22.444,14.089a5.685,5.685,0,0,0,.835,2.875q1.4,2.067,4.942,2.067a8.747,8.747,0,0,0,2.889-.453,3.21,3.21,0,0,0,2.521-3.144,2.714,2.714,0,0,0-1.062-2.421,10.723,10.723,0,0,0-3.37-1.232l-2.818-.637a12.76,12.76,0,0,1-3.908-1.374,4.351,4.351,0,0,1-1.982-3.894,6,6,0,0,1,1.94-4.6,7.783,7.783,0,0,1,5.494-1.8,9.543,9.543,0,0,1,5.558,1.579,5.7,5.7,0,0,1,2.287,5.048h-2.648a5.212,5.212,0,0,0-.906-2.563q-1.289-1.628-4.375-1.628a5.062,5.062,0,0,0-3.583,1.048,3.279,3.279,0,0,0-1.09,2.436,2.378,2.378,0,0,0,1.274,2.237,18.7,18.7,0,0,0,3.781,1.133l2.917.666a8.937,8.937,0,0,1,3.257,1.317,4.931,4.931,0,0,1,1.982,4.234,5.285,5.285,0,0,1-2.513,4.942,11.256,11.256,0,0,1-5.841,1.487,8.734,8.734,0,0,1-6.075-1.982,6.689,6.689,0,0,1-2.152-5.338ZM386.346,14.2v2.478h-7.009V35h-2.86V16.677h-7.009V14.2Zm5.636,0V27.056a7.563,7.563,0,0,0,.85,3.767,4.465,4.465,0,0,0,4.248,2.266q3.583,0,4.871-2.45a7.8,7.8,0,0,0,.694-3.583V14.2h2.86V25.881a13.516,13.516,0,0,1-1.034,5.9q-1.9,3.767-7.165,3.767t-7.151-3.767a13.516,13.516,0,0,1-1.034-5.9V14.2Zm19.527,0,5.976,17.714,5.9-17.714h3.158L418.957,35h-2.988l-7.576-20.8Zm19.074,0L434.5,31.12l4.7-16.921h3.059l4.7,16.921L450.888,14.2h3.087L448.509,35h-2.959l-4.8-17.247L435.92,35h-2.959l-5.437-20.8ZM458.364,35h-3.4l7.448-10.663L455.433,14.2h3.526l5.31,7.958,5.268-7.958h3.356l-6.981,10.139L473.232,35h-3.5l-5.607-8.553Zm15.944-20.8h3.285l5.976,10,5.976-10h3.3l-7.859,12.418V35h-2.818V26.617Zm19.414,18.465L506.48,16.677H494.657V14.2h15.449V16.62l-12.829,15.9h12.829V35H493.722ZM7.845,49.723a5.991,5.991,0,0,1,5.692,3.243A14.508,14.508,0,0,1,14.9,59.833a16.537,16.537,0,0,1-1.232,6.839,6.031,6.031,0,0,1-5.834,3.88A5.842,5.842,0,0,1,2.393,67.38,14.523,14.523,0,0,1,.906,60.272,17.563,17.563,0,0,1,1.8,54.339Q3.469,49.723,7.845,49.723ZM7.816,68.23a3.627,3.627,0,0,0,3.158-1.756q1.175-1.756,1.175-6.542a16.163,16.163,0,0,0-.85-5.685A3.233,3.233,0,0,0,8,52.017a3.449,3.449,0,0,0-3.292,2.117,14.618,14.618,0,0,0-1.041,6.238,15.317,15.317,0,0,0,.666,4.984Q5.353,68.23,7.816,68.23ZM18.9,55.642V53.688a10.383,10.383,0,0,0,3.852-.9q1.09-.63,1.628-2.981h2.011V70H23.676V55.642ZM33.163,70a11.826,11.826,0,0,1,1.083-4.56,8.769,8.769,0,0,1,3.675-3.526l2.719-1.572A12.8,12.8,0,0,0,43.2,58.53a3.957,3.957,0,0,0,.1-5.5,3.871,3.871,0,0,0-2.832-1.041,3.7,3.7,0,0,0-3.625,1.982,7.1,7.1,0,0,0-.595,2.945H33.659a9.1,9.1,0,0,1,.977-4.319q1.657-2.945,5.848-2.945,3.483,0,5.091,1.883a6.3,6.3,0,0,1,1.607,4.191,5.7,5.7,0,0,1-1.713,4.163,16.774,16.774,0,0,1-3.554,2.436L39.974,63.4a12.566,12.566,0,0,0-2.181,1.458,5.313,5.313,0,0,0-1.784,2.733H47.083V70Zm22.755.552q-3.6,0-5.218-1.975a7.331,7.331,0,0,1-1.621-4.807h2.662a6.6,6.6,0,0,0,.736,2.86,3.873,3.873,0,0,0,3.583,1.6,4.7,4.7,0,0,0,3.229-1.076,3.534,3.534,0,0,0,1.218-2.775,3.231,3.231,0,0,0-1.281-2.931,6.484,6.484,0,0,0-3.561-.835q-.255,0-.517.007t-.531.021V58.389q.4.042.666.057t.581.014a5.321,5.321,0,0,0,2.351-.453,2.879,2.879,0,0,0,1.614-2.832,2.765,2.765,0,0,0-1.076-2.336,4.015,4.015,0,0,0-2.506-.821,3.716,3.716,0,0,0-3.526,1.7,5.89,5.89,0,0,0-.609,2.662H49.589a7.648,7.648,0,0,1,.906-3.852q1.558-2.832,5.48-2.832a7.427,7.427,0,0,1,4.8,1.381,4.854,4.854,0,0,1,1.7,4,4.464,4.464,0,0,1-1.005,3.03,4.223,4.223,0,0,1-1.614,1.133,4.4,4.4,0,0,1,2.5,1.692,5.12,5.12,0,0,1,.9,3.066,6.248,6.248,0,0,1-1.912,4.729A7.539,7.539,0,0,1,55.918,70.552ZM74.1,62.821v-9.19l-6.5,9.19ZM74.143,70V65.044H65.25V62.552l9.289-12.886h2.152V62.821h2.988v2.223H76.691V70Zm10.082-5.168a3.534,3.534,0,0,0,2.025,3.016,4.887,4.887,0,0,0,2.1.425A3.934,3.934,0,0,0,91.7,66.828a5.187,5.187,0,0,0,1.09-3.2,4.183,4.183,0,0,0-1.3-3.285,4.5,4.5,0,0,0-3.108-1.161,4.681,4.681,0,0,0-2.259.51,4.838,4.838,0,0,0-1.607,1.416l-2.209-.127,1.543-10.917H94.392v2.464H85.768L84.9,58.162a6.333,6.333,0,0,1,1.345-.807,6.829,6.829,0,0,1,2.62-.467,6.7,6.7,0,0,1,4.729,1.8,5.948,5.948,0,0,1,1.94,4.56,7.824,7.824,0,0,1-1.777,5.069Q91.984,70.51,88.09,70.51a7.223,7.223,0,0,1-4.383-1.395,5.532,5.532,0,0,1-2.131-4.283Zm21.028-15.194q3.4,0,4.737,1.763a5.946,5.946,0,0,1,1.338,3.632h-2.521a4.648,4.648,0,0,0-.722-1.883,3.214,3.214,0,0,0-2.79-1.274,3.861,3.861,0,0,0-3.4,1.975,11.382,11.382,0,0,0-1.4,5.657,5.542,5.542,0,0,1,2.209-1.926,6.37,6.37,0,0,1,2.719-.566,6.614,6.614,0,0,1,4.446,1.628,6.049,6.049,0,0,1,1.9,4.857,7.368,7.368,0,0,1-1.8,4.892,6.335,6.335,0,0,1-5.126,2.131,6.574,6.574,0,0,1-4.914-2.159q-2.067-2.159-2.067-7.271a19.569,19.569,0,0,1,.92-6.415Q100.551,49.638,105.252,49.638Zm-.184,18.621a3.5,3.5,0,0,0,3.009-1.352,5.228,5.228,0,0,0,1-3.193,5.459,5.459,0,0,0-.892-2.967,3.535,3.535,0,0,0-3.243-1.409,4.228,4.228,0,0,0-2.882,1.09,4.147,4.147,0,0,0-1.239,3.285,4.791,4.791,0,0,0,1.126,3.236A3.9,3.9,0,0,0,105.068,68.258Zm23-18.2v2.223a23.685,23.685,0,0,0-2.6,3.3,33.453,33.453,0,0,0-2.867,5.069,34.644,34.644,0,0,0-1.869,4.829q-.411,1.4-1.062,4.517H116.85A34.7,34.7,0,0,1,121.1,58.445a36.579,36.579,0,0,1,4.078-5.82H113.961V50.063Zm8.85,8.156a3.575,3.575,0,0,0,2.634-.942,3.053,3.053,0,0,0,.949-2.244,2.958,2.958,0,0,0-.906-2.082A3.653,3.653,0,0,0,136.83,52a3.348,3.348,0,0,0-2.662.949,3.29,3.29,0,0,0-.821,2.223,2.652,2.652,0,0,0,1.062,2.237A4.024,4.024,0,0,0,136.915,58.219Zm.156,10.04a4.488,4.488,0,0,0,2.938-.956,3.471,3.471,0,0,0,1.168-2.853,3.7,3.7,0,0,0-1.2-2.988,4.611,4.611,0,0,0-3.087-1.02,4.281,4.281,0,0,0-2.981,1.041,3.683,3.683,0,0,0-1.154,2.882,3.924,3.924,0,0,0,1.055,2.74A4.215,4.215,0,0,0,137.07,68.258ZM133.445,59.2a5.069,5.069,0,0,1-1.657-1.062,4.012,4.012,0,0,1-1.119-2.945,5.291,5.291,0,0,1,1.643-3.894,6.333,6.333,0,0,1,4.659-1.628,6.467,6.467,0,0,1,4.574,1.536,4.753,4.753,0,0,1,1.657,3.59,4.694,4.694,0,0,1-.963,3.073,5.769,5.769,0,0,1-1.671,1.3A6.485,6.485,0,0,1,142.55,60.5,5.126,5.126,0,0,1,143.9,64.18a6.289,6.289,0,0,1-1.8,4.538,6.738,6.738,0,0,1-5.083,1.862,7.854,7.854,0,0,1-5.006-1.607,5.578,5.578,0,0,1-2.046-4.666,5.179,5.179,0,0,1,3.483-5.112Zm15.562,5.9a3.222,3.222,0,0,0,1.628,2.917,3.606,3.606,0,0,0,1.756.425,3.946,3.946,0,0,0,3.115-1.522q1.289-1.522,1.827-6.181a4.723,4.723,0,0,1-2.1,1.89,6.688,6.688,0,0,1-2.7.545,6.038,6.038,0,0,1-4.637-1.827,6.612,6.612,0,0,1-1.706-4.7,7.526,7.526,0,0,1,1.685-4.857,6,6,0,0,1,4.97-2.1,6.112,6.112,0,0,1,6.117,3.993,14.076,14.076,0,0,1,.935,5.494,18.1,18.1,0,0,1-1.119,6.6q-1.855,4.786-6.287,4.786a6.088,6.088,0,0,1-4.517-1.558A5.326,5.326,0,0,1,146.43,65.1Zm3.866-4.163a4.34,4.34,0,0,0,2.768-1,4.229,4.229,0,0,0,1.253-3.49,4.465,4.465,0,0,0-1.126-3.335,3.938,3.938,0,0,0-2.867-1.1,3.743,3.743,0,0,0-2.967,1.253,4.9,4.9,0,0,0-1.1,3.349,4.8,4.8,0,0,0,.963,3.151A3.758,3.758,0,0,0,152.873,60.938Zm25.049-12.079a49.442,49.442,0,0,0-2.889,6.358,23.244,23.244,0,0,0-1.005,7.165,23.355,23.355,0,0,0,1.147,7.5,45.32,45.32,0,0,0,2.79,6.032h-1.713q-2.067-3.229-2.563-4.121a19.14,19.14,0,0,1-1.076-2.421,19.9,19.9,0,0,1-1.1-4.475,18.764,18.764,0,0,1-.156-2.351,19.851,19.851,0,0,1,1.317-7.462,42.949,42.949,0,0,1,3.483-6.23Zm4.432.34h2.875v6.839l-.694,9.006h-1.444l-.736-9.006Zm0,17.856h2.818V70h-2.818Zm22.387-9.7a2.393,2.393,0,0,0-.588-1.579,2,2,0,0,0-1.621-.7,3.347,3.347,0,0,0-2.8,1.9,7.14,7.14,0,0,0-1.182,3.788,3.225,3.225,0,0,0,.609,2.117,1.91,1.91,0,0,0,1.529.729,3.292,3.292,0,0,0,2.981-2.23A9.468,9.468,0,0,0,204.742,57.355Zm-2.818,13.254q-5.919,0-9.119-3.7a10.136,10.136,0,0,1-2.563-6.839,10.879,10.879,0,0,1,3.115-7.845,12.261,12.261,0,0,1,9.275-3.6q5.041,0,7.93,2.549a7.971,7.971,0,0,1,2.7,6.245,8.26,8.26,0,0,1-1.933,5.515,5.61,5.61,0,0,1-4.326,2.287,2.8,2.8,0,0,1-2.067-.673,2.222,2.222,0,0,1-.666-1.621,1.983,1.983,0,0,1,.028-.326q.028-.17.071-.354a4.95,4.95,0,0,1-1.9,2.3,4.617,4.617,0,0,1-2.365.673,3.548,3.548,0,0,1-2.825-1.26,4.8,4.8,0,0,1-1.083-3.243,7.4,7.4,0,0,1,1.848-4.97,5.261,5.261,0,0,1,3.972-2.152,3.462,3.462,0,0,1,2.386.835,2.787,2.787,0,0,1,1,2.011l.708-2.379H208.2l-1.883,6.2q-.212.722-.312,1.161a3.584,3.584,0,0,0-.1.779,1.081,1.081,0,0,0,.389.927,1.443,1.443,0,0,0,.885.29,3.638,3.638,0,0,0,2.9-1.685,7.082,7.082,0,0,0,1.281-4.4,6.306,6.306,0,0,0-2.294-5.161,9.46,9.46,0,0,0-6.174-1.876q-5.381,0-8.227,3.144a9.614,9.614,0,0,0-2.436,6.726,8.234,8.234,0,0,0,2.322,5.947q2.719,2.846,7.746,2.846a12.6,12.6,0,0,0,4.375-.743,14.5,14.5,0,0,0,3.71-2l.935,1.274a12.811,12.811,0,0,1-3.809,2.124A15.194,15.194,0,0,1,201.924,70.609Zm15-8.553h3.3l1.331-4.871h-3.285l.439-1.643h3.285l1.685-6.344h2.11l-1.713,6.344H227.2l1.742-6.344h2.082l-1.713,6.344h3.285l-.439,1.643h-3.285l-1.345,4.871h3.3l-.439,1.643h-3.257L225.387,70h-2.082l1.713-6.3h-3.158L220.176,70h-2.11l1.713-6.3h-3.285Zm8.5,0,1.345-4.871h-3.129l-1.3,4.871Zm15.859,6.471a3.7,3.7,0,0,0,3.342-1.77,3.923,3.923,0,0,0,.481-1.968,3.086,3.086,0,0,0-1.3-2.69,8.313,8.313,0,0,0-2.521-1.02Zm-4.8-13.665a2.733,2.733,0,0,0,.927,2.195,5.388,5.388,0,0,0,2.5,1.1V51.507a3.236,3.236,0,0,0-2.641,1.133A3.684,3.684,0,0,0,236.475,54.863Zm-2.549.17a5.607,5.607,0,0,1,1.579-3.88A5.775,5.775,0,0,1,239.93,49.4V47.514h1.345v1.855a6.662,6.662,0,0,1,4.326,1.664,5.389,5.389,0,0,1,1.579,3.873H244.7a4.213,4.213,0,0,0-.581-1.855,3.255,3.255,0,0,0-2.846-1.5v6.882a16.751,16.751,0,0,1,4.46,1.728,4.486,4.486,0,0,1,1.912,3.937q0,3.767-2.45,5.353a9.159,9.159,0,0,1-3.922,1.161v2.747H239.93V70.609q-4.121-.269-5.593-2.917a7.875,7.875,0,0,1-.807-3.866h2.506a6.954,6.954,0,0,0,.609,2.832,3.766,3.766,0,0,0,3.257,1.8V60.739a9.018,9.018,0,0,1-4.517-1.94A4.9,4.9,0,0,1,233.926,55.033Zm34.593,5.112a4.931,4.931,0,1,1-3.5,1.444A4.747,4.747,0,0,1,268.519,60.145Zm-2.053-10.337h1.572L256.7,70.538h-1.572ZM254.614,58.19a2.925,2.925,0,1,0-2.06-.857A2.825,2.825,0,0,0,254.614,58.19Zm0-7.859a4.943,4.943,0,1,1-3.483,1.451A4.752,4.752,0,0,1,254.614,50.332Zm13.905,17.658a2.925,2.925,0,1,0-2.074-.857A2.809,2.809,0,0,0,268.519,67.989Zm14.3-10.705a10.778,10.778,0,0,0,1.855-1.543,3.185,3.185,0,0,0,.835-2.138,2.269,2.269,0,0,0-.609-1.586,2.117,2.117,0,0,0-1.643-.666,2.2,2.2,0,0,0-2.492,2.223,3.181,3.181,0,0,0,.474,1.657A15.322,15.322,0,0,0,282.821,57.284Zm-.651,10.96a4.925,4.925,0,0,0,2.7-.722,5.906,5.906,0,0,0,1.742-1.614l-4.7-5.735a14.314,14.314,0,0,0-2.605,2.039,3.784,3.784,0,0,0-.935,2.591,2.976,2.976,0,0,0,1.211,2.549A4.279,4.279,0,0,0,282.169,68.244ZM280.5,58.431a10.689,10.689,0,0,1-1.763-2.549,5.028,5.028,0,0,1-.446-2,4.46,4.46,0,0,1,1.359-3.335,4.992,4.992,0,0,1,3.639-1.324,4.544,4.544,0,0,1,3.384,1.232A4.043,4.043,0,0,1,287.89,53.4a5.274,5.274,0,0,1-1.26,3.5,11.86,11.86,0,0,1-2.464,2.025l3.795,4.531q.382-1.133.531-1.692t.3-1.565h2.421a15.458,15.458,0,0,1-.963,3.83q-.722,1.834-.722,1.48l3.7,4.489h-3.285l-1.954-2.379a10.225,10.225,0,0,1-2.124,1.841,7.346,7.346,0,0,1-3.88,1.02q-3.243,0-4.715-1.749a5.961,5.961,0,0,1-1.473-3.944,5.68,5.68,0,0,1,1.43-3.951A15.675,15.675,0,0,1,280.5,58.431Zm15.789,14.528a1.786,1.786,0,0,0,1.374-1.374,3.888,3.888,0,0,0,.212-1.232q0-.1-.007-.177a.975.975,0,0,0-.035-.177h-1.543V66.913h3.03v2.86a6.2,6.2,0,0,1-.68,2.959,3.1,3.1,0,0,1-2.351,1.572Zm8.128-6.046h2.959V70h-2.959Zm12.56.142h2.818V70h-2.818ZM312.2,55.712a6.946,6.946,0,0,1,1.728-4.921,6.153,6.153,0,0,1,4.744-1.862,6.221,6.221,0,0,1,4.468,1.593,5.367,5.367,0,0,1,1.678,4.071,4.354,4.354,0,0,1-.616,2.436,19.387,19.387,0,0,1-2.485,2.747,7.948,7.948,0,0,0-1.763,2.23,6.962,6.962,0,0,0-.4,2.7h-2.521a9.179,9.179,0,0,1,.481-3.264,8.794,8.794,0,0,1,2.11-2.839l1.133-1.119a4.687,4.687,0,0,0,.821-1.005,3.6,3.6,0,0,0,.566-1.912,3.7,3.7,0,0,0-.828-2.407,4.034,4.034,0,0,0-6.011.736,6.809,6.809,0,0,0-.581,2.818Zm17.134-.68H332.3V58.12h-2.959Zm0,11.88H332.3V70h-2.959Zm8.057,6.046a1.77,1.77,0,0,0,1.374-1.317,4.1,4.1,0,0,0,.2-1.3.867.867,0,0,0-.007-.12q-.007-.05-.021-.219h-1.543V66.913h3.016v2.86a6.423,6.423,0,0,1-.439,2.535,3.272,3.272,0,0,1-2.577,2Zm0-17.927h3.016V58.12h-3.016Zm5.848,20.886a49.989,49.989,0,0,0,2.9-6.4,23.106,23.106,0,0,0,.991-7.137,23.307,23.307,0,0,0-1.147-7.491,45.321,45.321,0,0,0-2.79-6.032h1.713q2.181,3.483,2.641,4.3a16.617,16.617,0,0,1,1,2.244,18.139,18.139,0,0,1,.97,3.5,20.085,20.085,0,0,1,.29,3.328,19.773,19.773,0,0,1-1.331,7.477,41.064,41.064,0,0,1-3.469,6.216Z" transform="translate(20838 2068)"/></g></svg>