<svg xmlns="http://www.w3.org/2000/svg" xmlns:xlink="http://www.w3.org/1999/xlink" viewBox="20812.699 1378.3 459.873 205.18"><defs><style>.a{filter:url(#a);}</style><filter id="a" x="20820.1" y="1378.3" width="334.67" height="83.1" filterUnits="userSpaceOnUse"><feOffset dx="5" dy="3" input="SourceAlpha"/><feGaussianBlur result="b"/><feFlood flood-color="#00e7ff"/><feComposite operator="in" in2="b"/><feComposite in="SourceGraphic"/></filter></defs><g class="a" transform="matrix(1, 0, 0, 1, 0, 0)"><path d="M8.1,0h8.64V-63H8.1ZM39.78-48.6H31.59V0h8.19V-36.72c4.77-3.24,8.46-4.86,15.66-4.86,4.95,0,6.3,1.35,6.3,4.95V0h8.19V-36.9c0-8.28-3.87-12.15-13.59-12.15-8.73,0-12.24,2.97-16.56,7.2Zm56.07-.36c-10.35,0-14.22,3.87-14.22,12.33v24.66C81.63-3.51,85.5.36,95.85.36c9.27,0,12.87-2.97,17.1-7.2V0h8.19V-65.7h-8.19v23.94C108.72-45.99,105.12-48.96,95.85-48.96Zm-6.03,12.6c0-3.78,1.35-5.13,6.93-5.13,7.74,0,11.43,1.62,16.2,4.86v24.66c-4.77,3.24-8.46,4.86-16.2,4.86-5.58,0-6.93-1.35-6.93-5.13ZM164.16,0h8.19V-48.6h-8.19v36.72c-4.77,3.24-8.46,4.86-15.66,4.86-4.95,0-6.3-1.35-6.3-4.95V-48.6h-8.19v36.9c0,8.28,3.87,12.15,13.59,12.15,8.73,0,12.24-2.97,16.56-7.2Zm47.79-34.29h8.01v-1.62c0-8.82-3.87-12.69-12.06-12.69H196.02c-8.19,0-12.06,3.87-12.06,13.77,0,8.19,3.24,10.89,10.53,12.15l13.86,2.25c3.33.54,4.59,1.35,4.59,6.48,0,5.58-1.35,7.02-4.86,7.02H196.2c-3.42,0-4.86-1.44-4.86-6.12v-2.07h-8.01v1.89C183.33-3.87,187.2,0,195.39,0h13.68c8.19,0,12.06-3.87,12.06-14.49,0-8.91-3.24-11.61-10.53-12.87l-13.86-2.25c-3.33-.54-4.59-1.35-4.59-5.76,0-4.86,1.35-6.3,4.86-6.3h10.08c3.51,0,4.86,1.44,4.86,5.49Zm30.51-7.38h11.61V-48.6H242.46V-60.3h-8.1v11.7h-7.29v6.93h7.2v29.61C234.27-3.87,238.14,0,246.33,0h7.74V-7.11h-6.75c-3.42,0-4.86-1.44-4.86-4.86Zm48.06.9V-48.6h-3.6c-7.11,0-10.98,3.33-14.94,7.2v-7.2h-8.19V0h8.19V-36c4.41-2.7,8.46-4.77,14.22-4.77Zm47.25-7.83H329.4L316.08-9.45,303.12-48.6h-8.64L311.94,0l-5.13,14.4h7.83Z" transform="translate(20812 1444)"/></g><path d="M5.712,13.88c-2.548,0-3.752,1.2-3.752,3.752v.5H4.508v-.56c0-1.092.42-1.512,1.512-1.512H9.408c1.092,0,1.512.42,1.512,1.512v2.3c-2.268.084-4.284.28-5.628.42-2.52.28-3.836,1.232-3.836,4.4,0,3.136,1.2,4.424,4.284,4.424,2.744,0,4-.812,5.18-2.268V29h2.548V17.632c0-2.548-1.2-3.752-3.752-3.752Zm5.208,7.672v3.724A7.58,7.58,0,0,1,6.02,26.9C4.424,26.9,4,26.368,4,24.548c0-1.792.448-2.128,1.624-2.3Zm14.42-7.784a6.4,6.4,0,0,0-5.32,2.24V8.56H17.472V29H20.02V26.872a6.4,6.4,0,0,0,5.32,2.24c3.22,0,4.424-1.2,4.424-3.836V17.6C29.764,14.972,28.56,13.768,25.34,13.768Zm1.876,11.424c0,1.176-.448,1.6-2.156,1.6a7.677,7.677,0,0,1-5.04-1.512V17.6a7.677,7.677,0,0,1,5.04-1.512c1.708,0,2.156.42,2.156,1.6ZM36.988,13.88c-2.548,0-3.752,1.2-3.752,3.752v7.616c0,2.548,1.2,3.752,3.752,3.752h4.144c2.548,0,3.752-1.2,3.752-3.752V23.932H42.336V25.22c0,1.064-.42,1.512-1.512,1.512H37.3c-1.064,0-1.512-.448-1.512-1.512V17.66c0-1.064.448-1.512,1.512-1.512h3.528c1.092,0,1.512.448,1.512,1.512v1.288h2.548V17.632c0-2.548-1.2-3.752-3.752-3.752Zm15.484-.112c-3.22,0-4.424,1.2-4.424,3.836v7.672c0,2.632,1.2,3.836,4.424,3.836a6.359,6.359,0,0,0,5.32-2.24V29H60.34V8.56H57.792v7.448A6.359,6.359,0,0,0,52.472,13.768ZM50.6,17.688c0-1.176.42-1.6,2.156-1.6a7.677,7.677,0,0,1,5.04,1.512v7.672a7.677,7.677,0,0,1-5.04,1.512c-1.736,0-2.156-.42-2.156-1.6Zm16.1,4.368h9.352V17.632c0-2.548-1.2-3.752-3.752-3.752H67.9c-2.548,0-3.752,1.2-3.752,3.752v7.616C64.148,27.8,65.352,29,67.9,29h4.4c2.548,0,3.752-1.2,3.752-3.752V24.212H73.5v1.12c0,1.064-.448,1.512-1.512,1.512h-3.78c-1.064,0-1.512-.448-1.512-1.512Zm5.292-6.02c1.092,0,1.512.448,1.512,1.512v2.6H66.7v-2.6c0-1.064.448-1.512,1.512-1.512ZM87.052,10.66V8.56h-2.52c-2.576,0-3.752,1.2-3.752,3.752V13.88H78.26v2.156h2.492V29H83.3V16.036h4.032V13.88H83.3V12.172c0-1.092.448-1.512,1.512-1.512Zm14.5,3.22H99.008v2.128a6.359,6.359,0,0,0-5.32-2.24c-3.22,0-4.424,1.2-4.424,3.836v7.168c0,2.66,1.2,3.864,4.424,3.864a6.439,6.439,0,0,0,5.32-2.24v3.416c0,1.092-.42,1.512-1.512,1.512H91V33.48h6.8c2.548,0,3.752-1.2,3.752-3.752ZM91.812,17.6c0-1.092.42-1.512,2.156-1.512a7.677,7.677,0,0,1,5.04,1.512v7.2a7.837,7.837,0,0,1-5.04,1.512c-1.736,0-2.156-.42-2.156-1.512ZM108.248,8.56H105.7V29h2.548V17.576a7.5,7.5,0,0,1,4.872-1.512c1.54,0,1.96.42,1.96,1.54V29h2.548V17.52c0-2.576-1.2-3.78-4.228-3.78a6.276,6.276,0,0,0-5.152,2.24ZM124.4,11.78V8.924h-2.828V11.78Zm-.14,2.1h-2.548V29h2.548Zm7.5-2.1V8.924H128.94V11.78Zm-.14,2.1h-2.576V29.672c0,.924-.644,1.316-1.456,1.624l-1.652.7v1.792l1.932-.392c2.464-.5,3.752-1.4,3.752-3.752ZM145.32,29h2.8l-5.236-9.352,4.844-5.768h-3.08l-6.216,7.784V8.56h-2.548V29h2.548V24.94l2.856-3.388ZM150.7,8.56V29h2.548V8.56Zm23.044,5.152a6.509,6.509,0,0,0-5.012,2.352c-.392-1.6-1.624-2.352-3.836-2.352a6.092,6.092,0,0,0-4.872,2.24V13.88h-2.548V29h2.548V17.548a7.247,7.247,0,0,1,4.592-1.512c1.288,0,1.736.42,1.736,1.54V28.832L166.32,29H168.9V17.52a7.487,7.487,0,0,1,4.564-1.484c1.288,0,1.736.42,1.736,1.54V29h2.548V17.492C177.744,14.916,176.54,13.712,173.74,13.712Zm10.556.168h-2.548V29H184.3V17.576a7.5,7.5,0,0,1,4.872-1.512c1.54,0,1.96.42,1.96,1.54V29h2.548V17.52c0-2.576-1.2-3.78-4.228-3.78a6.276,6.276,0,0,0-5.152,2.24Zm16.772,0c-2.548,0-3.752,1.2-3.752,3.752v7.616c0,2.548,1.2,3.752,3.752,3.752h4.592c2.548,0,3.752-1.2,3.752-3.752V17.632c0-2.548-1.2-3.752-3.752-3.752Zm5.768,11.34c0,1.064-.42,1.512-1.512,1.512h-3.948c-1.092,0-1.512-.448-1.512-1.512V17.66c0-1.064.42-1.512,1.512-1.512h3.948c1.092,0,1.512.448,1.512,1.512Zm14.252-11.452a6.4,6.4,0,0,0-5.32,2.24V13.88H213.22v19.6h2.548V26.872a6.4,6.4,0,0,0,5.32,2.24c3.22,0,4.424-1.2,4.424-3.836V17.6C225.512,14.972,224.308,13.768,221.088,13.768Zm1.876,11.424c0,1.176-.448,1.6-2.156,1.6a7.677,7.677,0,0,1-5.04-1.512V17.6a7.677,7.677,0,0,1,5.04-1.512c1.708,0,2.156.42,2.156,1.6Zm10.444-11.424c-3.22,0-4.424,1.2-4.424,3.836v7.672c0,2.632,1.2,3.836,4.424,3.836a6.359,6.359,0,0,0,5.32-2.24V33.48h2.548V13.88h-2.548v2.128A6.359,6.359,0,0,0,233.408,13.768Zm-1.876,3.92c0-1.176.42-1.6,2.156-1.6a7.677,7.677,0,0,1,5.04,1.512v7.672a7.677,7.677,0,0,1-5.04,1.512c-1.736,0-2.156-.42-2.156-1.6Zm22.2-1.372V13.88h-1.12a6.145,6.145,0,0,0-4.648,2.24V13.88H245.42V29h2.548V17.8a7.976,7.976,0,0,1,4.424-1.484Zm10.724,2.016h2.492v-.5c0-2.744-1.2-3.948-3.752-3.948h-3.7c-2.548,0-3.752,1.2-3.752,4.284,0,2.548,1.008,3.388,3.276,3.78l4.312.7c1.036.168,1.428.42,1.428,2.016,0,1.736-.42,2.184-1.512,2.184h-3.7c-1.064,0-1.512-.448-1.512-1.9V24.3h-2.492v.588c0,2.912,1.2,4.116,3.752,4.116h4.256c2.548,0,3.752-1.2,3.752-4.508,0-2.772-1.008-3.612-3.276-4l-4.312-.7c-1.036-.168-1.428-.42-1.428-1.792,0-1.512.42-1.96,1.512-1.96h3.136c1.092,0,1.512.448,1.512,1.708Zm9.492-2.3h3.612V13.88h-3.612V10.24h-2.52v3.64h-2.268v2.156h2.24v9.212c0,2.548,1.2,3.752,3.752,3.752h2.408V26.788h-2.1c-1.064,0-1.512-.448-1.512-1.512ZM289.716,29h2.548V13.88h-2.548V25.3a7.5,7.5,0,0,1-4.872,1.512c-1.54,0-1.96-.42-1.96-1.54V13.88h-2.548V25.36c0,2.576,1.2,3.78,4.228,3.78a6.276,6.276,0,0,0,5.152-2.24Zm18.368-15.12h-2.6L301.5,26.788,297.528,13.88h-2.716L299.936,29h3.024ZM325.416,29l4.06-15.12H326.9l-2.856,12.432L320.656,13.88h-2.492l-3.388,12.432L311.92,13.88h-2.688L313.376,29h2.8l3.248-11.956L322.672,29Zm11.62-5.74,3.92,5.74h2.8l-5.264-7.616,5.1-7.5h-2.632l-3.78,5.6-3.78-5.6h-2.828l5.152,7.476L330.512,29h2.66Zm21.308-9.38h-2.6L351.6,26.06l-4.032-12.18h-2.688L350.308,29l-1.6,4.48h2.436Zm1.54,13.412V29h10.864V26.844h-7.756l7.784-11.284V13.88H360.22v2.156h7.42ZM13.048,56.652,14.84,62h2.912L10.976,42.4h-3.5L.7,62H3.5l1.792-5.348Zm-.812-2.464H6.1L9.156,45ZM21,42.4V62h9.912c2.688,0,3.948-1.26,3.948-5.516,0-3.052-.644-4.088-2.072-4.592,1.2-.532,1.848-1.484,1.848-4.256,0-3.976-1.26-5.236-3.948-5.236Zm2.688,8.316v-5.88H30.38c1.12,0,1.54.42,1.54,2.94s-.42,2.94-1.54,2.94Zm0,8.848v-6.5H30.6c1.12,0,1.54.42,1.54,3.248s-.42,3.248-1.54,3.248ZM48.58,62c2.66,0,3.92-1.344,3.92-3.92V55.588H49.812V58c0,1.12-.42,1.54-1.54,1.54H42.84c-1.12,0-1.54-.42-1.54-1.54V46.4c0-1.12.42-1.54,1.54-1.54h5.432c1.12,0,1.54.42,1.54,1.54v2.408H52.5V46.32c0-2.66-1.26-3.92-3.92-3.92H42.532c-2.66,0-3.92,1.26-3.92,3.92V58.08c0,2.576,1.26,3.92,3.92,3.92ZM56.7,42.4V62H66.78c2.66,0,3.92-1.26,3.92-3.92V46.32c0-2.66-1.26-3.92-3.92-3.92Zm2.688,17.136V44.864H66.5c1.092,0,1.512.42,1.512,1.54V58c0,1.12-.42,1.54-1.512,1.54ZM75.264,42.4V62H87.92V59.536H77.952V53.208h8.316V50.744H77.952v-5.88H87.92V42.4ZM91.924,62h2.688V53.4h8.316V50.968H94.612v-6.1h9.968V42.4H91.924Zm26.908-13.58h2.688v-2.1c0-2.66-1.26-3.92-3.92-3.92h-6.272c-2.66,0-3.92,1.26-3.92,3.92V58.08c0,2.66,1.26,3.92,3.92,3.92H117.6c2.66,0,3.92-1.26,3.92-3.92V51.612h-7.336V54.02h4.648V58c0,1.12-.42,1.54-1.54,1.54h-5.656c-1.12,0-1.54-.42-1.54-1.54V46.4c0-1.12.42-1.54,1.54-1.54h5.656c1.12,0,1.54.42,1.54,1.54ZM126,62h2.688V53.208h8.988V62h2.688V42.4h-2.688v8.344h-8.988V42.4H126Zm19.432,0h2.688V42.4h-2.688Zm18.9-19.6h-2.688V58c0,1.12-.42,1.54-1.512,1.54H155.9c-1.12,0-1.54-.42-1.54-1.54V54.524h-2.688V58.08c0,2.66,1.26,3.92,3.92,3.92h4.816c2.66,0,3.92-1.26,3.92-3.92ZM181.5,62h3.08l-7.224-11.76,6.72-7.84h-3.248L171.78,53.124V42.4h-2.66V62h2.66V56.708l3.78-4.4Zm5.628-19.6V62H199.08V59.536h-9.268V42.4Zm34.02,0H217.98l-6.1,13.412L205.8,42.4h-3.164V62h2.548V46.768l5.572,12.488h2.184l5.572-12.488V62h2.632Zm17.276,0V57.66L229.068,42.4h-2.884V62h2.576V46.432L238.308,62H241V42.4ZM256.032,62c2.66,0,3.92-1.26,3.92-3.92V46.32c0-2.66-1.26-3.92-3.92-3.92h-6.524c-2.66,0-3.92,1.26-3.92,3.92V58.08c0,2.66,1.26,3.92,3.92,3.92Zm-7.756-15.6c0-1.12.42-1.54,1.54-1.54h5.908c1.12,0,1.54.42,1.54,1.54V58c0,1.12-.42,1.54-1.54,1.54h-5.908c-1.12,0-1.54-.42-1.54-1.54Zm16.212-4V62h2.688V54.748h7.14c2.6,0,3.92-1.344,3.92-3.92V46.32c0-2.576-1.316-3.92-3.92-3.92Zm2.688,9.884v-7.42h6.86a1.345,1.345,0,0,1,1.512,1.54v4.34a1.356,1.356,0,0,1-1.512,1.54Zm18.4-9.884c-2.66,0-3.92,1.26-3.92,3.92V58.08c0,2.66,1.26,3.92,3.92,3.92h1.876v3.556h2.688V62h1.848c2.66,0,3.92-1.26,3.92-3.92V46.32c0-2.66-1.26-3.92-3.92-3.92ZM293.216,58c0,1.12-.42,1.54-1.54,1.54h-5.8c-1.12,0-1.54-.42-1.54-1.54V46.4c0-1.12.42-1.54,1.54-1.54h5.8c1.12,0,1.54.42,1.54,1.54Zm21.56,4-4-7.756c2.3-.168,3.388-1.428,3.388-3.892V46.32c0-2.66-1.26-3.92-3.92-3.92h-9.8V62h2.688V54.3h4.732l3.976,7.7ZM303.128,51.864V44.836h6.832c1.092,0,1.512.42,1.512,1.54v3.976c0,1.092-.42,1.512-1.512,1.512Zm25.816-3.612h2.632V46.32c0-2.66-1.26-3.92-3.92-3.92h-5.628c-2.66,0-3.92,1.26-3.92,3.92V48.7c0,2.8,1.764,3.5,4.032,4l5.4,1.2c1.148.28,1.652.644,1.652,1.848v2.352c0,1.092-.42,1.512-1.54,1.512h-5.432c-1.092,0-1.512-.42-1.512-1.512V55.924h-2.66V58.08c0,2.66,1.26,3.92,3.92,3.92h5.992c2.66,0,3.92-1.26,3.92-3.92V55.392c0-2.8-1.764-3.5-4.032-4l-5.4-1.232c-1.148-.252-1.652-.616-1.652-1.82V46.292c0-1.092.42-1.512,1.54-1.512H327.4c1.12,0,1.54.42,1.54,1.512Zm19.544-3.416V42.4H334.236v2.436h5.8V62h2.688V44.836ZM365.624,42.4h-2.688V58c0,1.12-.42,1.54-1.512,1.54h-5.6c-1.12,0-1.54-.42-1.54-1.54V42.4H351.6V58.08c0,2.66,1.26,3.92,3.92,3.92H361.7c2.66,0,3.92-1.26,3.92-3.92Zm19.152,0h-2.828l-5.236,16.632L371.56,42.4h-2.94L375.144,62h3.108ZM405.384,62l5.18-19.6h-2.772l-3.808,16.156L399.644,42.4h-2.352l-4.34,16.156L389.144,42.4h-2.856L391.44,62h2.94l4.088-15.2L402.556,62Zm14.476-7.784,5.1,7.784h3.024l-6.524-10,6.328-9.6h-2.856l-4.872,7.448-4.9-7.448h-3.024L418.4,52l-6.468,10h2.856ZM438.4,62V55.14l6.776-12.74h-2.856l-5.236,10-5.236-10h-2.912l6.776,12.74V62Zm8.54-1.988V62h13.58V59.592H450.184l10.388-15.2V42.4h-13.16v2.408h9.912ZM11.956,95c2.66,0,3.92-1.26,3.92-3.92V79.32c0-2.66-1.26-3.92-3.92-3.92H5.964c-2.66,0-3.92,1.26-3.92,3.92V91.08c0,2.66,1.26,3.92,3.92,3.92ZM4.732,79.4c0-1.12.42-1.54,1.54-1.54h5.376c1.12,0,1.54.42,1.54,1.54V91c0,1.12-.42,1.54-1.54,1.54H6.272c-1.12,0-1.54-.42-1.54-1.54ZM23.044,95h2.688V75.4H23.52L19.1,77.192v2.38l3.948-1.4Zm10.3-13.748h-2.66V79.32c0-2.66,1.26-3.92,3.92-3.92h5.04c2.66,0,3.92,1.26,3.92,3.92v2.66c0,2.128-1.428,2.828-4.032,4.032l-4.7,2.128c-1.064.5-1.708.84-1.708,1.652v2.744h10.5V95H30.436V89.484c0-2.128,1.4-2.828,4.032-4.032l4.676-2.128c1.092-.5,1.736-.84,1.736-1.652V79.4c0-1.12-.42-1.54-1.54-1.54H34.888c-1.12,0-1.54.42-1.54,1.54Zm16.24,8.008H46.9v.364C46.9,93.74,48.16,95,50.82,95h5.74c2.66,0,3.92-1.26,3.92-5.488,0-3.136-.644-4.116-2.044-4.564,1.176-.532,1.82-1.428,1.82-4.312,0-3.976-1.26-5.236-3.92-5.236H51.044c-2.66,0-3.92,1.26-3.92,5.348v.392h2.688V80.8c0-2.548.42-2.968,1.54-2.968h4.7c1.092,0,1.512.42,1.512,2.968,0,2.492-.42,2.912-1.512,2.912H51.24v2.408h5.04c1.092,0,1.512.616,1.512,3.22s-.42,3.22-1.512,3.22H51.128c-1.12,0-1.54-.42-1.54-3.052Zm29.2,1.036V87.86H75.88V75.4H73.108L63.056,88.14l.476,2.156H73.22V95h2.66V90.3ZM66.3,87.86l6.944-8.876V87.86Zm18.228-10h9.884V75.4H81.844v9.912l2.688.756a8.635,8.635,0,0,1,5.236-1.484c1.9,0,2.324.42,2.324,1.54V91c0,1.12-.42,1.54-1.54,1.54H85.876c-1.12,0-1.54-.42-1.54-1.54V89.26H81.648v1.82c0,2.66,1.26,3.92,3.92,3.92h5.264c2.66,0,3.948-1.288,3.948-3.948V86.1c0-2.66-1.26-3.92-4.76-3.92a6.454,6.454,0,0,0-5.488,2.24Zm24.444,3.108h2.688V79.32c0-2.66-1.26-3.92-3.92-3.92h-5.152c-2.66,0-3.92,1.26-3.92,3.92V91.08c0,2.66,1.26,3.92,3.92,3.92H108c2.66,0,3.92-1.26,3.92-3.92V86.628c0-2.66-1.26-3.92-4.9-3.92-3.164,0-4.452.98-5.656,2.24V79.4a1.376,1.376,0,0,1,1.54-1.54h4.536a1.376,1.376,0,0,1,1.54,1.54Zm-7.616,5.656a8.89,8.89,0,0,1,5.4-1.484c2.044,0,2.464.42,2.464,1.54V91c0,1.12-.42,1.54-1.54,1.54H102.9c-1.12,0-1.54-.42-1.54-1.54Zm26.768-9.38V75.4H114.436v2.436h10.612L116.7,95h2.884Zm14.168,7.7c1.148-.532,1.82-1.428,1.82-4.312,0-3.976-1.26-5.236-3.92-5.236h-5.6c-2.66,0-3.92,1.26-3.92,5.236,0,2.884.672,3.78,1.82,4.312-1.372.448-2.044,1.428-2.044,4.564,0,4.228,1.26,5.488,3.92,5.488h6.048c2.66,0,3.92-1.26,3.92-5.488C144.34,86.376,143.668,85.4,142.3,84.948Zm-2.408-7.112c1.12,0,1.54.42,1.54,2.968,0,2.492-.42,2.912-1.54,2.912H134.9c-1.12,0-1.54-.42-1.54-2.912,0-2.548.42-2.968,1.54-2.968ZM134.68,92.564c-1.12,0-1.54-.616-1.54-3.22s.42-3.22,1.54-3.22h5.432c1.12,0,1.54.616,1.54,3.22s-.42,3.22-1.54,3.22Zm16.268-3.136H148.26V91.08c0,2.66,1.26,3.92,3.92,3.92h5.152c2.66,0,3.92-1.26,3.92-3.92V79.32c0-2.66-1.26-3.92-3.92-3.92h-5.4c-2.66,0-3.92,1.26-3.92,3.92v4.256c0,2.66,1.26,3.92,4.9,3.92,3.164,0,4.452-.952,5.656-2.24V91c0,1.092-.448,1.54-1.54,1.54h-4.536c-1.092,0-1.54-.448-1.54-1.54Zm7.616-5.824a8.891,8.891,0,0,1-5.4,1.484c-2.044,0-2.464-.42-2.464-1.54V79.4c0-1.12.42-1.54,1.54-1.54h4.788c1.12,0,1.54.42,1.54,1.54Zm19.8-7.532V73.608h-1.876c-2.66,0-3.92,1.26-3.92,3.92v16.52c0,2.66,1.26,3.92,3.92,3.92h1.876V95.5h-1.568c-1.12,0-1.54-.42-1.54-1.54V77.612c0-1.12.42-1.54,1.54-1.54Zm6.692,12.964.672-13.636H182.5l.672,13.636ZM185.724,95V91.668H182.5V95ZM194.6,75.4c-2.66,0-3.92,1.26-3.92,3.92V95.56c0,2.66,1.26,3.92,3.92,3.92h14.308V97.688H194.684c-1.456,0-2.072-.616-2.072-2.072V79.264c0-1.456.616-2.072,2.072-2.072H208.1c1.456,0,2.072.616,2.072,2.072V89.68c0,1.708-.588,2.352-2.072,2.352h-1.344V81.14H204.9l-.56,2.016a5.721,5.721,0,0,0-4.648-2.128c-2.884,0-4.144,1.26-4.144,3.92v4.984c0,2.66,1.26,3.92,4.144,3.92a5.721,5.721,0,0,0,4.648-2.128l.56,1.9h3.276c2.66,0,3.92-1.26,3.92-3.92V79.32c0-2.66-1.26-3.92-3.92-3.92Zm9.716,14.784a6.32,6.32,0,0,1-4.368,1.568c-1.568,0-1.988-.5-1.988-1.708V84.836c0-1.2.42-1.708,2.016-1.708a6.3,6.3,0,0,1,4.34,1.568Zm26.908-7.56h3.752v-2.3h-3.052l1.484-4.928h-2.492L229.4,80.328H224.2L225.68,75.4h-2.492l-1.512,4.928h-4v2.3h3.3l-1.344,4.48h-3.864v2.3h3.164L217.224,95h2.52l1.708-5.6h5.208L224.952,95h2.52l1.708-5.6h3.892V87.1h-3.22Zm-2.52,0-1.372,4.48h-5.208l1.344-4.48Zm17.108,1.316v-6.1h1.428c1.12,0,1.54.42,1.54,2.52v.9h2.66v-.728c0-3.864-1.26-5.124-3.92-5.124h-1.54V72.74h-2.268V75.4h-1.736c-2.688,0-3.948,1.26-3.948,5.124,0,3.976,1.736,4.648,4.06,5.18l1.792.392v6.468h-1.736c-1.092,0-1.512-.42-1.512-2.688v-.952h-2.66v.812c0,4,1.26,5.264,3.92,5.264h1.82v2.66h2.268V95h1.9c2.688,0,3.948-1.26,3.948-5.264,0-4.144-1.736-4.816-4.06-5.348Zm-1.932-.448-.9-.2c-1.848-.42-2.24-.756-2.24-2.94,0-2.1.42-2.52,1.54-2.52h1.6Zm1.932,9.072v-6.02l1.12.252c1.9.448,2.184.756,2.184,3.08,0,2.268-.42,2.688-1.54,2.688ZM256.956,75.4c-1.4,0-1.988.588-1.988,1.988V81.14c0,1.372.616,1.988,1.988,1.988h2.212c1.4,0,1.988-.588,1.988-1.988V77.388c0-1.4-.588-1.988-1.988-1.988Zm11.676,0H266.42L256.312,95h2.212Zm-9.156,5.544c0,.476-.14.616-.616.616h-1.6c-.476,0-.616-.14-.616-.616v-3.36c0-.476.14-.616.616-.616h1.6c.476,0,.616.14.616.616Zm6.272,6.328c-1.4,0-1.988.588-1.988,1.988v3.752c0,1.372.616,1.988,1.988,1.988h2.212c1.4,0,1.988-.588,1.988-1.988V89.26c0-1.4-.588-1.988-1.988-1.988Zm2.548,5.544c0,.476-.14.616-.616.616h-1.6c-.476,0-.616-.14-.616-.616v-3.36c0-.476.14-.616.616-.616h1.6c.476,0,.616.14.616.616Zm18.424-6.692H288.9V83.716H277.648c-1.12,0-1.54-.42-1.54-2.912,0-2.548.42-2.968,1.54-2.968H281.9c1.092,0,1.512.42,1.512,1.54V81.14H286.1V79.32c0-2.66-1.26-3.92-3.92-3.92H277.34c-2.66,0-3.92,1.26-3.92,5.208,0,2.856.672,3.808,1.82,4.34-1.372.448-2.044,1.484-2.044,4.564,0,4.228,1.26,5.488,3.92,5.488H282.8c2.66,0,3.92-1.26,3.92-3.92Zm-2.688,0v4.9c0,1.12-.42,1.54-1.54,1.54h-5.068c-1.12,0-1.54-.42-1.54-3.22s.42-3.22,1.54-3.22ZM294.588,95V91.64h-3.276V95Zm6.524-3.36h-3.276V95h1.456l-1.9,3.556h1.26l1.316-1.792c.924-1.344,1.148-1.736,1.148-2.744Zm6.272-16.24c-2.66,0-3.92,1.26-3.92,3.92v2.044h2.688V79.4c0-1.12.42-1.54,1.54-1.54h5.264c1.12,0,1.54.42,1.54,1.54v1.652c0,.784-.448,1.12-1.652,1.736l-.84.476c-2.408,1.288-4.032,2.156-4.032,4.032v2.184h2.688V87.552c0-.56.448-.924,1.652-1.568l.868-.448c2.324-1.232,4-2.24,4-4.172V79.32c0-2.66-1.26-3.92-3.92-3.92Zm3.248,16.212h-2.688V95h2.688Zm12.656-8.372V79.88h-3.276v3.36Zm0,11.76V91.64h-3.276V95Zm6.524-11.76V79.88h-3.276v3.36Zm0,8.4h-3.276V95h1.456l-1.9,3.556h1.26l1.316-1.792c.924-1.344,1.148-1.736,1.148-2.744Zm3.36-18.032v2.464h1.568c1.12,0,1.54.42,1.54,1.54V93.964c0,1.12-.42,1.54-1.54,1.54h-1.568v2.464h1.876c2.66,0,3.92-1.26,3.92-3.92V77.528c0-2.66-1.26-3.92-3.92-3.92Z" transform="translate(20812 1484)"/></svg>