<svg xmlns="http://www.w3.org/2000/svg" xmlns:xlink="http://www.w3.org/1999/xlink" viewBox="0 0 478.645 227.261"><defs><style>.a{filter:url(#a);}</style><filter id="a" x="5.973" y="0" width="351.59" height="94.89" filterUnits="userSpaceOnUse"><feOffset dx="5" dy="3" input="SourceAlpha"/><feGaussianBlur result="b"/><feFlood flood-color="#00e7ff"/><feComposite operator="in" in2="b"/><feComposite in="SourceGraphic"/></filter></defs><g transform="translate(-20838.957 -1934.51)"><g class="a" transform="matrix(1, 0, 0, 1, 20838.96, 1934.51)"><path d="M15.12-32.94V-55.98H27.18c9.36,0,13.32,4.32,13.32,11.61,0,7.02-3.96,11.43-13.32,11.43ZM48.87-44.37c0-10.26-6.93-18.36-21.69-18.36H6.93V0h8.19V-26.19H27.18C42.75-26.19,48.87-34.83,48.87-44.37Zm56.97,19.62c0-15.57-10.89-25.38-24.93-25.38-13.95,0-24.93,9.81-24.93,25.38C55.98-9.09,66.6.81,80.55.81,94.59.81,105.84-9.09,105.84-24.75Zm-41.49,0c0-12.42,7.83-18.27,16.47-18.27,8.46,0,16.65,5.85,16.65,18.27,0,12.51-8.37,18.36-16.92,18.36S64.35-12.24,64.35-24.75Zm60.48-15.48v-9.09h-8.19V23.4h8.19V-9.09A21.334,21.334,0,0,0,143.28.81c13.23,0,23.4-10.35,23.4-25.65,0-15.39-10.17-25.29-23.4-25.29C134.28-50.13,127.8-45.45,124.83-40.23Zm33.48,15.39c0,11.61-7.65,18.45-16.74,18.45-8.91,0-16.74-6.75-16.74-18.36,0-11.43,7.83-18.27,16.74-18.27C150.66-43.02,158.31-36.45,158.31-24.84Zm27.36-15.39v-9.09h-8.19V23.4h8.19V-9.09A21.334,21.334,0,0,0,204.12.81c13.23,0,23.4-10.35,23.4-25.65,0-15.39-10.17-25.29-23.4-25.29C195.12-50.13,188.64-45.45,185.67-40.23Zm33.48,15.39c0,11.61-7.65,18.45-16.74,18.45-8.91,0-16.74-6.75-16.74-18.36,0-11.43,7.83-18.27,16.74-18.27C211.5-43.02,219.15-36.45,219.15-24.84ZM238.32,0h8.19V-49.32h-8.19Zm4.23-57.33a5.457,5.457,0,0,0,5.4-5.58,5.457,5.457,0,0,0-5.4-5.58,5.5,5.5,0,0,0-5.58,5.58A5.5,5.5,0,0,0,242.55-57.33ZM296.55,0h8.1V-29.07c0-14.13-8.73-21.15-20.16-21.15-6.66,0-12.6,2.79-15.84,7.92v-7.02h-8.19V0h8.19V-27.27c0-10.62,5.76-15.84,14.13-15.84,8.28,0,13.77,5.13,13.77,15.21Zm56.97-13.41c-.36-17.64-28.98-11.25-28.98-22.95,0-3.96,3.6-6.84,9.63-6.84,6.57,0,10.35,3.6,10.71,8.55h8.19c-.54-9.63-7.74-15.48-18.63-15.48-10.98,0-18.09,6.21-18.09,13.77,0,18.36,29.16,11.97,29.16,22.95,0,4.05-3.6,7.29-10.08,7.29-6.93,0-11.16-3.6-11.61-8.37h-8.46c.54,9,8.64,15.3,20.16,15.3C346.41.81,353.52-5.31,353.52-13.41Z" transform="translate(-0.96 68.49)"/></g><path d="M1.247-8c0,4.93,3.277,8.265,7.511,8.265A6.637,6.637,0,0,0,14.7-2.958V0h2.668V-15.892H14.7v2.9a6.6,6.6,0,0,0-5.916-3.161C4.524-16.153,1.247-12.963,1.247-8ZM14.7-7.975c0,3.741-2.494,5.916-5.394,5.916S3.944-4.263,3.944-8s2.465-5.858,5.365-5.858S14.7-11.658,14.7-7.975Zm9.773-4.959V-21.46H21.837V0h2.639V-2.929A6.631,6.631,0,0,0,30.421.261c4.263,0,7.54-3.335,7.54-8.265,0-4.959-3.248-8.149-7.54-8.149A6.733,6.733,0,0,0,24.476-12.934ZM35.264-8c0,3.741-2.465,5.945-5.394,5.945-2.871,0-5.394-2.175-5.394-5.916,0-3.683,2.523-5.887,5.394-5.887C32.8-13.862,35.264-11.745,35.264-8Zm5.191.029c0,5.046,3.219,8.236,7.743,8.236,3.944,0,6.525-2.2,7.337-5.365H52.693a4.263,4.263,0,0,1-4.5,3.132c-2.9,0-5.046-2.059-5.046-6,0-3.886,2.146-5.945,5.046-5.945a4.33,4.33,0,0,1,4.5,3.132h2.842c-.812-3.335-3.393-5.365-7.337-5.365C43.674-16.153,40.455-12.963,40.455-7.975ZM58.058-8c0,4.93,3.277,8.265,7.54,8.265a6.527,6.527,0,0,0,5.916-3.248V0h2.668V-21.46H71.514v8.41a6.931,6.931,0,0,0-5.887-3.1C61.335-16.153,58.058-12.963,58.058-8Zm13.456.029c0,3.741-2.494,5.916-5.394,5.916S60.755-4.263,60.755-8s2.465-5.858,5.365-5.858S71.514-11.658,71.514-7.975ZM85.4-13.92c2.726,0,5.046,1.711,5.017,4.814H80.388A4.922,4.922,0,0,1,85.4-13.92ZM92.829-4.9H89.987a4.368,4.368,0,0,1-4.466,2.929A5,5,0,0,1,80.359-6.96h12.7a14.306,14.306,0,0,0,.087-1.595,7.285,7.285,0,0,0-7.627-7.6c-4.64,0-7.859,3.161-7.859,8.178C77.662-2.929,81,.261,85.521.261,89.465.261,92.017-2,92.829-4.9ZM97.121,0H99.76V-13.717H103.1v-2.175H99.76v-1.131c0-2.059.783-2.929,3.161-2.929v-2.2c-4.06,0-5.8,1.6-5.8,5.133v1.131H95.062v2.175h2.059Zm8.062-8c0,4.93,3.277,8.265,7.54,8.265a6.641,6.641,0,0,0,5.916-3.248V.348c0,3.393-2.117,5.191-4.93,5.191-2.61,0-4.5-1.305-5.075-3.219h-2.61c.522,3.393,3.509,5.51,7.685,5.51,4.669,0,7.6-3.1,7.6-7.482v-16.24h-2.668v2.9a6.55,6.55,0,0,0-5.916-3.161C108.46-16.153,105.183-12.963,105.183-8Zm13.456.029c0,3.741-2.494,5.916-5.394,5.916S107.88-4.263,107.88-8s2.465-5.858,5.365-5.858S118.639-11.658,118.639-7.975ZM125.773,0h2.639V-8.787c0-3.422,1.856-5.1,4.553-5.1,2.668,0,4.437,1.653,4.437,4.9V0h2.61V-9.367c0-4.553-2.813-6.815-6.351-6.815a5.98,5.98,0,0,0-5.249,2.581V-21.46h-2.639Zm18.56,0h2.639V-15.892h-2.639ZM145.7-18.473a1.758,1.758,0,0,0,1.74-1.8,1.758,1.758,0,0,0-1.74-1.8,1.771,1.771,0,0,0-1.8,1.8A1.771,1.771,0,0,0,145.7-18.473Zm7.192,0a1.764,1.764,0,0,0,1.769-1.8,1.764,1.764,0,0,0-1.769-1.8,1.764,1.764,0,0,0-1.769,1.8A1.764,1.764,0,0,0,152.888-18.473Zm-1.334,2.581V3.393c0,1.392-.551,1.914-2,1.914h-1.1V7.54h1.537c2.7,0,4.205-1.218,4.205-4.089V-15.892ZM158.659,0H161.3V-7.018L167.533,0h3.6l-7.511-7.975,7.482-7.917h-3.683L161.3-8.845V-21.46h-2.639Zm14.935,0h2.639V-21.46h-2.639Zm30.073,0h2.61V-9.367c0-4.553-2.813-6.815-6.438-6.815a5.883,5.883,0,0,0-5.626,3.538,5.98,5.98,0,0,0-5.829-3.538,5.745,5.745,0,0,0-5.017,2.581v-2.291h-2.639V0h2.639V-8.758c0-3.422,1.827-5.133,4.5-5.133,2.61,0,4.35,1.653,4.35,4.9V0h2.61V-8.758c0-3.422,1.827-5.133,4.5-5.133,2.61,0,4.35,1.653,4.35,4.9Zm18.56,0h2.61V-9.367c0-4.553-2.813-6.815-6.5-6.815a5.871,5.871,0,0,0-5.1,2.552v-2.262H210.6V0h2.639V-8.787c0-3.422,1.856-5.1,4.553-5.1,2.668,0,4.437,1.653,4.437,4.9Zm22.011-7.975a7.757,7.757,0,0,0-8.033-8.178,7.773,7.773,0,0,0-8.033,8.178c0,5.046,3.422,8.236,7.917,8.236A7.88,7.88,0,0,0,244.238-7.975Zm-13.369,0c0-4,2.523-5.887,5.307-5.887,2.726,0,5.365,1.885,5.365,5.887,0,4.031-2.7,5.916-5.452,5.916S230.869-3.944,230.869-7.975Zm19.488-4.988v-2.929h-2.639V7.54h2.639V-2.929A6.874,6.874,0,0,0,256.3.261c4.263,0,7.54-3.335,7.54-8.265,0-4.959-3.277-8.149-7.54-8.149A6.713,6.713,0,0,0,250.357-12.963ZM261.145-8c0,3.741-2.465,5.945-5.394,5.945-2.871,0-5.394-2.175-5.394-5.916,0-3.683,2.523-5.887,5.394-5.887C258.68-13.862,261.145-11.745,261.145-8Zm5.191,0c0,4.93,3.277,8.265,7.482,8.265a6.739,6.739,0,0,0,5.974-3.19V7.54h2.668V-15.892h-2.668v2.9a6.579,6.579,0,0,0-5.887-3.161C269.613-16.153,266.336-12.963,266.336-8Zm13.456.029c0,3.741-2.494,5.916-5.394,5.916s-5.365-2.2-5.365-5.945,2.465-5.858,5.365-5.858S279.792-11.658,279.792-7.975Zm9.773-.667c0-3.683,1.914-4.814,4.437-4.814h.7v-2.726a5.352,5.352,0,0,0-5.133,2.871v-2.581h-2.639V0h2.639Zm19.6,4.321c-.116-5.684-9.338-3.625-9.338-7.4,0-1.276,1.16-2.2,3.1-2.2,2.117,0,3.335,1.16,3.451,2.755h2.639c-.174-3.1-2.494-4.988-6-4.988-3.538,0-5.829,2-5.829,4.437,0,5.916,9.4,3.857,9.4,7.4,0,1.305-1.16,2.349-3.248,2.349-2.233,0-3.6-1.16-3.741-2.7h-2.726c.174,2.9,2.784,4.93,6.5,4.93C306.878.261,309.169-1.711,309.169-4.321Zm4.292-.029c0,3.19,1.6,4.35,4.408,4.35h2.378V-2.233H318.3c-1.624,0-2.2-.551-2.2-2.117v-9.367h4.147v-2.175H316.1v-4h-2.639v4H311.4v2.175h2.059Zm24.07-11.542h-2.639v8.729c0,3.422-1.827,5.1-4.553,5.1-2.668,0-4.437-1.653-4.437-4.872v-8.961h-2.61v9.309c0,4.553,2.871,6.815,6.525,6.815a5.842,5.842,0,0,0,5.075-2.581V0h2.639Zm2.581,0L346.347,0h3.074l6.235-15.892h-2.813l-4.93,13.456-4.959-13.456ZM361.369,0H364.1l3.828-12.615L371.751,0h2.726l4.959-15.892h-2.61l-3.6,13.369-3.857-13.369h-2.7l-3.944,13.34-3.654-13.34h-2.7ZM390.34,0h2.987l-5.133-8.033,5.1-7.859h-2.755l-3.6,5.887-3.77-5.887H380.19l5.133,8L380.19,0h2.755l3.625-5.916Zm11.629-3.016-4.988-12.876h-2.929L400.461-.174l-3.132,7.656h2.726l9.57-23.374H406.9Zm20.01-12.876h-10.7v2.146h7.656L411.22-2.175V0h10.817V-2.175h-7.8l7.743-11.571ZM15.805,43h2.784L11.31,22.9H8.265L.957,43H3.741l1.624-4.495h8.816Zm-2.378-6.641H6.119L9.773,26.151Zm19.836.957c0,2.2-1.566,3.509-4.176,3.509H24.418V33.691H29C31.581,33.691,33.263,35.083,33.263,37.316Zm-.522-9.077c0,2.059-1.421,3.277-3.886,3.277H24.418V24.962H28.8C31.378,24.962,32.741,26.238,32.741,28.239ZM35.9,37.577a5.046,5.046,0,0,0-4-4.988,4.73,4.73,0,0,0,3.538-4.669c0-2.813-2.146-5.133-6.409-5.133h-7.25V43h7.54C33.495,43,35.9,40.622,35.9,37.577Zm2.668-4.7a9.916,9.916,0,0,0,10.092,10.3c4.379,0,7.859-2.175,9.367-6.061H54.868a6.379,6.379,0,0,1-6.206,3.77c-4.234,0-7.4-3.074-7.4-8,0-4.959,3.161-8.033,7.4-8.033a6.359,6.359,0,0,1,6.206,3.8h3.161c-1.508-3.915-4.988-6.119-9.367-6.119A9.965,9.965,0,0,0,38.57,32.879ZM68.237,22.787H61.944V43h6.293c6.641,0,10.73-3.8,10.73-10.063S74.878,22.787,68.237,22.787ZM64.583,40.825V24.933h3.654c5.278,0,8.033,3.074,8.033,8s-2.755,7.888-8.033,7.888ZM93.322,22.758H82.447V43H93.322V40.825H85.086v-6.96h7.366V31.69H85.086V24.933h8.236Zm4,20.242h2.639V33.894H107.1V31.748H99.963V24.933h8.787V22.787H97.324ZM121.1,22.555a9.97,9.97,0,0,0-10.15,10.324,9.946,9.946,0,0,0,10.15,10.3,9.8,9.8,0,0,0,9.918-9.048V32.1H120.147v2.146h8.062a6.815,6.815,0,0,1-7.1,6.554c-4.263,0-7.453-3.074-7.453-7.917,0-4.872,3.19-7.946,7.453-7.946a6.449,6.449,0,0,1,6.148,3.712h3.161A9.557,9.557,0,0,0,121.1,22.555ZM147.436,43h2.639V22.787h-2.639v8.874h-10.3V22.787H134.5V43h2.639V33.836h10.3Zm7.1,0h2.639V22.787h-2.639Zm14.645-5.278c0,1.682-.841,3.132-2.929,3.132s-2.958-1.479-2.987-3.335h-2.639a5.283,5.283,0,0,0,5.626,5.684c3.335,0,5.6-2.117,5.6-5.481V22.787h-2.668ZM188.007,43h3.451l-9.251-10.092,9.164-10.121h-3.335l-8.352,9.367V22.787h-2.639V43h2.639V33.778Zm6.409-20.213V43h9.715V40.854h-7.076V22.787ZM206.944,43h2.639V28.007L216.282,43h1.856l6.67-14.964V43h2.639V22.932h-2.813L217.21,39.52l-7.424-16.588h-2.842Zm38.222-20.242V38.824L234.552,22.758h-2.639V43h2.639V26.905L245.166,43H247.8V22.758Zm26.448,10.121a10.151,10.151,0,1,0-20.3,0,10.151,10.151,0,1,0,20.3,0Zm-17.6,0c0-4.959,3.19-8.033,7.453-8.033s7.453,3.074,7.453,8.033c0,4.93-3.19,8.033-7.453,8.033S254.011,37.809,254.011,32.879Zm23.722-.493V24.962h3.886c3.016,0,4.292,1.392,4.292,3.741,0,2.262-1.276,3.683-4.292,3.683ZM288.608,28.7c0-3.306-2.233-5.916-6.989-5.916h-6.525V43h2.639V34.561h3.886C286.636,34.561,288.608,31.777,288.608,28.7Zm4.988,4.176c0-4.959,3.19-8.033,7.453-8.033s7.453,3.074,7.453,8.033c0,4.93-3.19,8.033-7.453,8.033S293.6,37.809,293.6,32.879Zm17.6,0a10.151,10.151,0,1,0-20.3,0A9.97,9.97,0,0,0,301.049,43.2a11.471,11.471,0,0,0,3.016-.406l4.031,4.031h3.422l-5.1-5.075A10.076,10.076,0,0,0,311.2,32.879Zm14.355-4.147c0,2.262-1.3,3.886-4.292,3.886h-3.886V24.962h3.886C324.278,24.962,325.554,26.441,325.554,28.732Zm-10.817-5.945V43h2.639V34.735h3.19L325.38,43h3.161l-5.075-8.468a5.7,5.7,0,0,0,4.814-5.8c0-3.306-2.262-5.945-7.018-5.945Zm30.769,14.7c0-7.482-10.9-4.234-10.9-9.454,0-2.175,1.711-3.306,3.886-3.248,2.465.029,3.741,1.566,3.915,2.929h2.9c-.319-3.074-2.842-5.191-6.7-5.191-4,0-6.7,2.262-6.7,5.6,0,7.511,10.933,4.031,10.933,9.483,0,1.914-1.508,3.364-4.06,3.364-2.813,0-4-1.682-4.176-3.364h-2.813c.058,3.335,2.929,5.6,6.989,5.6C343.157,43.2,345.506,40.361,345.506,37.49Zm2.639-12.557h5.539V43h2.639V24.933h5.51V22.787H348.145Zm16.878,10.614c0,5.249,3.422,7.656,7.6,7.656s7.627-2.407,7.627-7.656V22.787h-2.639V35.576c0,3.712-1.972,5.307-4.959,5.307s-4.988-1.6-4.988-5.307V22.787h-2.639Zm27.2,4.669-6.351-17.429h-2.813L390.688,43h3.045l7.627-20.213h-2.784Zm16.124,2.813L411.278,43l4.872-16.269L420.848,43h2.958l5.858-20.213h-2.842l-4.437,17.081-4.64-17.081h-2.958l-4.872,17.139-4.408-17.139h-2.813Zm35.7-.029h2.987l-6.206-10.092,6.235-10.121h-2.958l-4.64,7.917-4.872-7.917h-2.958l6.206,10.121L431.665,43h2.929l4.611-7.888ZM455.5,35.373V43h2.639V35.373l6.583-12.586H461.8l-4.988,10.237L451.82,22.787h-2.929Zm24.041-12.586H466.726v2.291h9.686l-9.8,15.834V43H479.6V40.709h-9.86l9.8-15.834ZM1.8,75.3C1.8,81.389,3.306,86,9.106,86c5.771,0,7.279-4.611,7.279-10.7,0-6-1.508-10.585-7.279-10.585C3.306,64.714,1.8,69.3,1.8,75.3Zm11.977,0c0,4.524-.551,8.294-4.669,8.294-4.147,0-4.7-3.77-4.7-8.294,0-4.35.551-8.178,4.7-8.178C13.224,67.121,13.775,70.949,13.775,75.3ZM22.1,86h2.668V65.033H19.314V67.44H22.1Zm6.873-.232H42.92v-2.2H32.944c3.741-3.045,9.367-7.482,9.367-12.7,0-3.886-2.552-6.206-6.5-6.206-3.77,0-6.583,2.32-6.757,6.786H31.61c.116-2.639,1.508-4.524,4.234-4.524,2.842,0,3.857,1.74,3.857,4.06,0,4.292-5.22,8.468-10.73,12.905ZM45.907,70.311h2.581c.261-2.03,1.74-3.422,4.205-3.422,2.523,0,3.857,1.392,3.857,3.393,0,2.436-1.885,3.509-5.394,3.538h-.7v2.2h.667c3.77,0,5.829,1.131,5.829,4.089,0,2.146-1.334,3.8-4.147,3.8a4.35,4.35,0,0,1-4.669-3.944H45.588c.319,4.06,3.277,6.177,7.25,6.177,4.379,0,6.641-2.552,6.641-5.8a5.106,5.106,0,0,0-4.089-5.394v-.145A4.74,4.74,0,0,0,59.1,70.021c0-3.016-2.233-5.394-6.322-5.394C48.894,64.627,46.168,66.715,45.907,70.311ZM73.138,86h2.61V81.331h2.9V79.04h-2.9v-13.8H72.587L62.408,79.33v2h10.73Zm-7.685-6.96,7.8-11.049V79.04ZM82.041,65V76.836h2.494a4.5,4.5,0,0,1,4.35-2.755c3.045,0,4.582,1.74,4.582,4.727,0,2.871-1.421,5.017-4.611,5.017a4.408,4.408,0,0,1-4.669-3.509H81.606c.522,3.393,3.045,5.742,7.221,5.742,4.9,0,7.163-3.248,7.163-7.308,0-3.248-1.624-6.931-6.728-6.931a6.073,6.073,0,0,0-4.785,2.117V67.324H94.656V65Zm31.581,5.017c-.348-2.929-2.378-5.423-6.38-5.423-5.307,0-7.424,4.06-7.424,10.643,0,6.351,1.479,10.817,7.685,10.817,4.582,0,6.844-3.132,6.844-6.96,0-4.408-2.639-6.989-6.554-6.989a5.993,5.993,0,0,0-5.684,3.219c-.029-6.235,1.769-8.526,5.1-8.526a3.618,3.618,0,0,1,3.973,3.219Zm-6.38,4.321c3.016,0,4.553,1.885,4.553,4.843,0,2.842-1.711,4.669-4.437,4.669-3.306,0-4.93-2.175-4.93-4.959C102.428,75.763,104.835,74.342,107.242,74.342Zm9.831-9.251v2.262h11.194L120.089,86h2.668l8.062-18.908v-2Zm20.5,10a5.24,5.24,0,0,0-3.886,5.249c0,3.8,2.987,6.235,7.395,6.235,4.437,0,7.453-2.436,7.453-6.235a5.281,5.281,0,0,0-3.915-5.249,5.038,5.038,0,0,0,3.364-4.814c0-3.045-2.349-5.568-6.9-5.568s-6.873,2.494-6.873,5.568A4.875,4.875,0,0,0,137.576,75.1Zm3.509-.87c-2.552,0-4.321-1.421-4.321-3.6,0-2.465,1.74-3.712,4.321-3.712,2.639,0,4.35,1.276,4.35,3.683C145.435,72.776,143.666,74.226,141.085,74.226Zm0,2.03c2.755,0,4.843,1.305,4.843,4,0,2.436-1.856,4.118-4.843,4.118s-4.872-1.653-4.872-4.118C136.213,77.474,138.388,76.256,141.085,76.256ZM153,80.374c.29,3.074,2.32,5.655,6.5,5.655,5.51,0,7.1-3.915,7.1-10.9,0-6.5-1.653-10.5-7.337-10.5-4.524,0-6.9,2.9-6.9,6.9,0,4.437,2.871,6.844,6.728,6.844a5.591,5.591,0,0,0,5.191-2.784c.087,6.148-1.566,8.236-4.64,8.236a3.86,3.86,0,0,1-4.205-3.451Zm6.525-4.234c-3.132,0-4.64-1.972-4.64-4.669,0-2.784,1.711-4.64,4.437-4.64,3.016,0,4.64,2,4.64,4.843A4.208,4.208,0,0,1,159.529,76.14Zm28.507,15.254v-.261a22.479,22.479,0,0,1-6.09-15.747,22.183,22.183,0,0,1,6.525-16.211v-.261h-2.755c-4.118,3.8-6.322,9.918-6.322,16.472,0,6.525,2.2,12.383,5.887,16.008Zm4.524-11.107h2.2l.319-14.5h-2.842Zm2.958,4.089a1.769,1.769,0,1,0-1.74,1.8A1.758,1.758,0,0,0,195.518,84.376ZM219.037,86.2c4.031,0,6.293-4.64,6.293-9.106,0-5.742-3.973-9.686-10.527-9.686a14.34,14.34,0,0,0-14.645,14.732c0,5.887,4.147,9.628,10.411,9.628a14.8,14.8,0,0,0,5.684-1.073l-.348-1.8a11.547,11.547,0,0,1-4.814.986c-5.452,0-8.758-2.813-8.729-7.975,0-7.105,5.1-12.644,12.122-12.644,5.539,0,8.7,2.929,8.7,7.975,0,3.045-1.247,7.163-3.741,7.163-1.479,0-1.711-1.1-1.45-2.755l1.45-8.381h-2.291l-.319,1.8a3.692,3.692,0,0,0-3.712-2.088c-4.234,0-7.134,3.915-7.134,8.236,0,3.016,1.74,4.988,4.727,4.988a6.419,6.419,0,0,0,5.191-2.7A2.8,2.8,0,0,0,219.037,86.2Zm-2.784-7.366c-.174,2.987-2.2,5.307-4.756,5.307-2.03,0-3.045-1.363-3.045-3.335,0-2.871,1.769-5.8,4.669-5.8C215.383,75.009,216.427,76.72,216.253,78.837Zm25.81-.957h-6.09l1.1-5.22h6.09ZM240.323,86h2.523l1.247-5.8h4.5V77.88h-4l1.1-5.22h4.524V70.34h-4.031l1.247-5.8H244.9l-1.247,5.8h-6.09l1.247-5.8h-2.523l-1.247,5.8h-4.988v2.32h4.495l-1.1,5.22H228.4V80.2h4.553L231.71,86h2.523l1.247-5.8h6.09Zm19.227,2.523h1.566V86.174c3.944-.261,5.974-3.016,5.974-5.713,0-4.031-3.1-4.872-5.974-5.6V67.788a3.549,3.549,0,0,1,2.9,2.929h2.813c-.29-2.929-2.407-4.872-5.713-5.162V63.148H259.55v2.407c-3.625.232-6,2.465-6,5.6,0,4,3.1,4.843,6,5.6V84a3.509,3.509,0,0,1-3.161-3.248h-2.813c.058,3.074,2.494,5.1,5.974,5.423Zm4.9-7.917a3.416,3.416,0,0,1-3.335,3.422V77.184C262.972,77.735,264.451,78.547,264.451,80.606Zm-8.207-9.6c0-2.059,1.363-3.1,3.306-3.277v6.7C257.694,73.849,256.244,73.066,256.244,71.007Zm14.819-1.247a4.235,4.235,0,1,0,4.234-4.321A4.065,4.065,0,0,0,271.063,69.76Zm4.234-2.7c1.276,0,2.146.87,2.146,2.7,0,1.8-.87,2.726-2.146,2.726s-2.117-.928-2.117-2.726C273.18,67.933,274.021,67.063,275.3,67.063ZM273.644,86h2.61L288,65.758h-2.61Zm8.526-4a4.221,4.221,0,1,0,4.234-4.35A4.065,4.065,0,0,0,282.17,82Zm4.2-2.7c1.276,0,2.146.87,2.146,2.7,0,1.8-.87,2.668-2.146,2.668s-2.146-.87-2.146-2.668C284.229,80.171,285.1,79.3,286.375,79.3Zm19.894-9.193c.145-2.7-1.8-4.727-4.988-4.727-3.277,0-5.336,1.914-5.336,4.5a5.8,5.8,0,0,0,1.74,4.06c-3.161,1.247-4.756,3.48-4.756,6.264,0,3.741,2.871,6.148,7.076,6.148a9.055,9.055,0,0,0,6.96-3.016L309.6,86h3.451L308.5,81.447c.406-.58.783-1.16,1.16-1.827L312.04,75.5H309.2l-1.972,3.306c-.174.29-.348.551-.522.812l-6.032-6.061c-1.421-1.508-2.088-2.494-2.088-3.683a2.347,2.347,0,0,1,2.581-2.32,2.31,2.31,0,0,1,2.465,2.552ZM300,84.086c-2.639,0-4.437-1.711-4.437-3.973,0-2.03,1.189-3.538,3.712-4.5l5.945,5.974A6.639,6.639,0,0,1,300,84.086Zm13.224,6.061H315l3.248-7.8h-2.9Zm10.614-5.771a1.769,1.769,0,1,0-1.74,1.8A1.758,1.758,0,0,0,323.843,84.376Zm2.349-13.021h2.494c0-2.262,1.479-3.625,3.857-3.625A3.556,3.556,0,0,1,336.4,71.5c0,3.509-2.813,4.147-6.119,4.147h-.841l.116,4.582h2.291l.087-2.755c4.06,0,6.989-1.74,6.989-5.974,0-3.683-2.61-5.974-6.409-5.974S326.163,67.846,326.192,71.355Zm6.235,13.021a1.769,1.769,0,1,0-1.74,1.8A1.758,1.758,0,0,0,332.427,84.376Zm12.7,0a1.769,1.769,0,1,0-1.74,1.8A1.758,1.758,0,0,0,345.129,84.376Zm0-12.412a1.769,1.769,0,1,0-1.74,1.8A1.758,1.758,0,0,0,345.129,71.964ZM352,71.935a1.769,1.769,0,1,0-1.74,1.8A1.758,1.758,0,0,0,352,71.935Zm-4.843,18.212h1.769l3.248-7.8h-2.9Zm8.381,1.247v-.261a22.479,22.479,0,0,0,6.09-15.747,22.183,22.183,0,0,0-6.525-16.211v-.261h2.755c4.118,3.8,6.322,9.918,6.322,16.472,0,6.525-2.2,12.383-5.887,16.008Z" transform="translate(20838 2070)"/></g></svg>