<svg xmlns="http://www.w3.org/2000/svg" xmlns:xlink="http://www.w3.org/1999/xlink" viewBox="21378.262 1574.97 543.299 202.801"><defs><style>.a{filter:url(#a);}</style><filter id="a" x="21385.02" y="1574.97" width="536.541" height="64.11" filterUnits="userSpaceOnUse"><feOffset dx="5" dy="3" input="SourceAlpha"/><feGaussianBlur result="b"/><feFlood flood-color="#00e7ff"/><feComposite operator="in" in2="b"/><feComposite in="SourceGraphic"/></filter></defs><g transform="translate(540 -368)"><g class="a" transform="matrix(1, 0, 0, 1, -540, 368)"><path d="M7.02-60.03H31.14A20.154,20.154,0,0,1,41.265-57.6a16.251,16.251,0,0,1,6.48,6.57,19.032,19.032,0,0,1,2.205,9.09,18.727,18.727,0,0,1-2.25,9.09,16.556,16.556,0,0,1-6.525,6.57A19.965,19.965,0,0,1,31.14-23.85H14.49V0H7.02ZM42.21-41.94a10.906,10.906,0,0,0-3.33-8.235,11.962,11.962,0,0,0-8.64-3.195H14.49v22.86H30.24a11.962,11.962,0,0,0,8.64-3.2A10.906,10.906,0,0,0,42.21-41.94Zm17.37-1.53h6.75v7.02a22.425,22.425,0,0,1,6.525-5.76,15.655,15.655,0,0,1,7.965-2.16v6.93a12.873,12.873,0,0,0-2.7-.27,13.129,13.129,0,0,0-6.66,2.16,14.223,14.223,0,0,0-5.13,4.77V0H59.58ZM108.27,1.08A20.831,20.831,0,0,1,96.93-1.98a20.653,20.653,0,0,1-7.515-8.28A25.04,25.04,0,0,1,86.76-21.78,25.04,25.04,0,0,1,89.415-33.3a20.338,20.338,0,0,1,7.515-8.235,21.067,21.067,0,0,1,11.34-3.015,21.067,21.067,0,0,1,11.34,3.015,20.338,20.338,0,0,1,7.515,8.235,25.04,25.04,0,0,1,2.655,11.52,25.04,25.04,0,0,1-2.655,11.52,20.653,20.653,0,0,1-7.515,8.28A20.831,20.831,0,0,1,108.27,1.08Zm0-6.03a13.042,13.042,0,0,0,7.74-2.3,14.611,14.611,0,0,0,4.95-6.165,20.476,20.476,0,0,0,1.71-8.37,20.163,20.163,0,0,0-1.71-8.325,14.663,14.663,0,0,0-4.95-6.12,13.042,13.042,0,0,0-7.74-2.3,13.248,13.248,0,0,0-7.785,2.3,14.535,14.535,0,0,0-5,6.12,20.163,20.163,0,0,0-1.71,8.325,20.476,20.476,0,0,0,1.71,8.37,14.484,14.484,0,0,0,5,6.165A13.248,13.248,0,0,0,108.27-4.95Zm44.82-12.87L140.04,0H132.3l16.65-22.32L133.2-43.47h7.83l12.06,16.56,12.06-16.56h7.83L157.23-22.32,173.97,0h-7.83Zm31.95-32.67a4.39,4.39,0,0,1-3.15-1.305,4.272,4.272,0,0,1-1.35-3.195,4.419,4.419,0,0,1,1.35-3.24,4.317,4.317,0,0,1,3.15-1.35,4.419,4.419,0,0,1,3.24,1.35,4.419,4.419,0,0,1,1.35,3.24,4.272,4.272,0,0,1-1.35,3.195A4.5,4.5,0,0,1,185.04-50.49Zm-3.33,7.02h6.75V0h-6.75Zm72.72,13.95a10.061,10.061,0,0,0-1.98-6.615q-1.98-2.385-6.03-2.385a12.338,12.338,0,0,0-6.48,1.98,15.853,15.853,0,0,0-5.04,4.68V0h-6.75V-29.52q0-9-8.01-9a11.979,11.979,0,0,0-6.345,1.98,16.555,16.555,0,0,0-5.085,4.77V0h-6.75V-43.47h6.75v6.3a16.982,16.982,0,0,1,5.67-4.95,16.059,16.059,0,0,1,8.37-2.43,12.478,12.478,0,0,1,7.74,2.25,10.712,10.712,0,0,1,3.96,5.85,17.254,17.254,0,0,1,6.03-5.67,16.36,16.36,0,0,1,8.55-2.43q5.94,0,9.045,3.33t3.1,9.81V0h-6.75ZM301.86-4.95q-5.49,6.03-14.4,6.03a16.724,16.724,0,0,1-7.335-1.665,14.079,14.079,0,0,1-5.67-4.95,13.637,13.637,0,0,1-2.2-7.785,13.583,13.583,0,0,1,2.2-7.83,13.858,13.858,0,0,1,5.67-4.86,17.111,17.111,0,0,1,7.335-1.62q9.27,0,14.4,5.94v-7.83a8.138,8.138,0,0,0-3.06-6.75,12.35,12.35,0,0,0-7.92-2.43,17.078,17.078,0,0,0-7.2,1.485,19.794,19.794,0,0,0-6.12,4.545l-3.15-4.68a22.534,22.534,0,0,1,7.785-5.445,25.029,25.029,0,0,1,9.585-1.755q7.47,0,12.15,3.6t4.68,11.07V0h-6.75Zm0-12.42a12.1,12.1,0,0,0-5.085-4,17.017,17.017,0,0,0-6.885-1.395,11.215,11.215,0,0,0-7.695,2.655,8.746,8.746,0,0,0-3.015,6.885A8.647,8.647,0,0,0,282.2-6.435,11.215,11.215,0,0,0,289.89-3.78a17.016,17.016,0,0,0,6.885-1.4A12.1,12.1,0,0,0,301.86-9.18Zm51.21-31.05V0H345.6V-60.03h7.65L387.81-12.6V-60.03h7.47V0h-7.2Zm74.97,49.5A20.831,20.831,0,0,1,416.7-1.98a20.653,20.653,0,0,1-7.515-8.28,25.04,25.04,0,0,1-2.655-11.52,25.04,25.04,0,0,1,2.655-11.52,20.338,20.338,0,0,1,7.515-8.235,21.067,21.067,0,0,1,11.34-3.015,21.067,21.067,0,0,1,11.34,3.015,20.338,20.338,0,0,1,7.515,8.235,25.04,25.04,0,0,1,2.655,11.52,25.04,25.04,0,0,1-2.655,11.52,20.653,20.653,0,0,1-7.515,8.28A20.831,20.831,0,0,1,428.04,1.08Zm0-6.03a13.042,13.042,0,0,0,7.74-2.3,14.611,14.611,0,0,0,4.95-6.165,20.475,20.475,0,0,0,1.71-8.37,20.163,20.163,0,0,0-1.71-8.325,14.663,14.663,0,0,0-4.95-6.12,13.042,13.042,0,0,0-7.74-2.3,13.248,13.248,0,0,0-7.785,2.3,14.535,14.535,0,0,0-4.995,6.12,20.164,20.164,0,0,0-1.71,8.325,20.476,20.476,0,0,0,1.71,8.37,14.484,14.484,0,0,0,4.995,6.165A13.248,13.248,0,0,0,428.04-4.95Zm26.01-38.52h7.29L475.83-7.83l14.4-35.64h7.38L479.52,0h-7.38ZM531.81-4.95q-5.49,6.03-14.4,6.03a16.724,16.724,0,0,1-7.335-1.665,14.079,14.079,0,0,1-5.67-4.95,13.637,13.637,0,0,1-2.2-7.785,13.583,13.583,0,0,1,2.2-7.83,13.858,13.858,0,0,1,5.67-4.86,17.111,17.111,0,0,1,7.335-1.62q9.27,0,14.4,5.94v-7.83a8.138,8.138,0,0,0-3.06-6.75,12.35,12.35,0,0,0-7.92-2.43,17.078,17.078,0,0,0-7.2,1.485,19.794,19.794,0,0,0-6.12,4.545l-3.15-4.68a22.534,22.534,0,0,1,7.785-5.445,25.029,25.029,0,0,1,9.585-1.755q7.47,0,12.15,3.6t4.68,11.07V0h-6.75Zm0-12.42a12.1,12.1,0,0,0-5.085-4,17.016,17.016,0,0,0-6.885-1.395,11.215,11.215,0,0,0-7.7,2.655,8.746,8.746,0,0,0-3.015,6.885,8.647,8.647,0,0,0,3.015,6.795,11.215,11.215,0,0,0,7.7,2.655,17.016,17.016,0,0,0,6.885-1.4A12.1,12.1,0,0,0,531.81-9.18Z" transform="translate(21378 1635)"/></g><path d="M10.933-1.6A5.978,5.978,0,0,1,6.293.348,5.389,5.389,0,0,1,3.929-.189,4.537,4.537,0,0,1,2.1-1.784a4.394,4.394,0,0,1-.711-2.508A4.377,4.377,0,0,1,2.1-6.815,4.465,4.465,0,0,1,3.929-8.381,5.513,5.513,0,0,1,6.293-8.9a5.8,5.8,0,0,1,4.64,1.914V-9.512a2.622,2.622,0,0,0-.986-2.175,3.98,3.98,0,0,0-2.552-.783,5.5,5.5,0,0,0-2.32.479A6.378,6.378,0,0,0,3.1-10.527L2.088-12.035A7.261,7.261,0,0,1,4.6-13.789a8.065,8.065,0,0,1,3.088-.566A6.242,6.242,0,0,1,11.6-13.2a4.216,4.216,0,0,1,1.508,3.567V0H10.933Zm0-4a3.9,3.9,0,0,0-1.639-1.29,5.483,5.483,0,0,0-2.218-.45,3.614,3.614,0,0,0-2.48.855,2.818,2.818,0,0,0-.971,2.219A2.786,2.786,0,0,0,4.6-2.074a3.614,3.614,0,0,0,2.48.856,5.483,5.483,0,0,0,2.218-.45,3.9,3.9,0,0,0,1.639-1.29Zm6.525-13.746h2.175v7.453A6.328,6.328,0,0,1,21.721-13.7a5.5,5.5,0,0,1,2.639-.653,5.8,5.8,0,0,1,3.233.914,6.16,6.16,0,0,1,2.2,2.581,8.877,8.877,0,0,1,.8,3.872,8.949,8.949,0,0,1-.8,3.9,5.962,5.962,0,0,1-2.2,2.552A5.945,5.945,0,0,1,24.36.348a5.572,5.572,0,0,1-2.668-.667,6.083,6.083,0,0,1-2.059-1.769V0H17.458ZM19.633-3.8a4.581,4.581,0,0,0,1.755,1.566,5.012,5.012,0,0,0,2.421.638A4.024,4.024,0,0,0,27.115-3.1a5.989,5.989,0,0,0,1.218-3.886,6.049,6.049,0,0,0-1.218-3.9,4.009,4.009,0,0,0-3.306-1.523,4.926,4.926,0,0,0-2.421.653,4.594,4.594,0,0,0-1.755,1.609ZM33.321-7.018a7.913,7.913,0,0,1,.885-3.741A6.622,6.622,0,0,1,36.671-13.4a6.887,6.887,0,0,1,3.639-.957,6.447,6.447,0,0,1,3.016.638,6.456,6.456,0,0,1,2.117,1.8l-1.45,1.334a4.2,4.2,0,0,0-3.567-1.827A4.448,4.448,0,0,0,36.9-10.9a5.686,5.686,0,0,0-1.319,3.886,5.741,5.741,0,0,0,1.319,3.9A4.429,4.429,0,0,0,40.426-1.6a4.247,4.247,0,0,0,3.567-1.827l1.45,1.334a6.456,6.456,0,0,1-2.117,1.8A6.447,6.447,0,0,1,40.31.348a6.887,6.887,0,0,1-3.639-.957,6.622,6.622,0,0,1-2.465-2.639A7.975,7.975,0,0,1,33.321-7.018Zm25.317,4.93A6.083,6.083,0,0,1,56.579-.319a5.572,5.572,0,0,1-2.668.667,5.945,5.945,0,0,1-3.234-.884,5.962,5.962,0,0,1-2.2-2.552,8.949,8.949,0,0,1-.8-3.9,9.017,9.017,0,0,1,.783-3.872,6.027,6.027,0,0,1,2.2-2.581,5.875,5.875,0,0,1,3.248-.914,5.528,5.528,0,0,1,2.625.653,6.281,6.281,0,0,1,2.1,1.813v-7.453h2.175V0H58.638Zm0-8.062a4.837,4.837,0,0,0-1.784-1.609,4.926,4.926,0,0,0-2.422-.653,3.978,3.978,0,0,0-3.277,1.523,6.049,6.049,0,0,0-1.218,3.9A5.989,5.989,0,0,0,51.156-3.1,3.994,3.994,0,0,0,54.433-1.6a4.984,4.984,0,0,0,2.436-.638A4.855,4.855,0,0,0,58.638-3.8Zm5.713,3.132a7.69,7.69,0,0,1,.9-3.683,6.976,6.976,0,0,1,2.465-2.668,6.5,6.5,0,0,1,3.538-.986,6.442,6.442,0,0,1,3.581.986,6.414,6.414,0,0,1,2.335,2.7,8.817,8.817,0,0,1,.812,3.828v.551H66.642A5.3,5.3,0,0,0,68.15-2.842,4.733,4.733,0,0,0,71.688-1.45a6.24,6.24,0,0,0,2.363-.464,5.611,5.611,0,0,0,1.958-1.305L77.053-1.8A7.533,7.533,0,0,1,71.485.348,7.29,7.29,0,0,1,67.8-.58a6.53,6.53,0,0,1-2.538-2.61A7.891,7.891,0,0,1,64.351-7.018Zm6.873-5.539a4.2,4.2,0,0,0-2.436.7,4.627,4.627,0,0,0-1.552,1.769,5.52,5.52,0,0,0-.594,2.2h9.193a5.434,5.434,0,0,0-.536-2.2,4.361,4.361,0,0,0-1.537-1.769A4.427,4.427,0,0,0,71.224-12.557Zm10.875.464h-2.32v-1.914H82.1V-15.08a4.776,4.776,0,0,1,1.1-3.35,3.815,3.815,0,0,1,2.958-1.2,3.944,3.944,0,0,1,2.117.493l-.551,1.624a2.443,2.443,0,0,0-1.247-.319,1.97,1.97,0,0,0-1.639.711,3.219,3.219,0,0,0-.565,2.045v1.073h2.842v1.914H84.274V0H82.1ZM90.77,1.972A4.962,4.962,0,0,0,92.7,3.437a6.864,6.864,0,0,0,2.625.45,4.962,4.962,0,0,0,3.219-1.03A3.837,3.837,0,0,0,99.818-.319v-2a6.087,6.087,0,0,1-2.03,1.8,5.389,5.389,0,0,1-2.668.7A6.02,6.02,0,0,1,91.887-.7a5.9,5.9,0,0,1-2.2-2.508,8.759,8.759,0,0,1-.8-3.872,8.92,8.92,0,0,1,.783-3.857,5.851,5.851,0,0,1,2.2-2.537,6.018,6.018,0,0,1,3.248-.885,5.444,5.444,0,0,1,2.61.653,6.328,6.328,0,0,1,2.088,1.813v-2.117h2.175v13.6q0,3.219-1.885,4.655a7.673,7.673,0,0,1-4.785,1.435,9.764,9.764,0,0,1-3.161-.45A6.6,6.6,0,0,1,89.668,3.6ZM99.818-10.15a4.618,4.618,0,0,0-1.74-1.609,4.9,4.9,0,0,0-2.436-.653,4.015,4.015,0,0,0-3.292,1.479,5.918,5.918,0,0,0-1.2,3.857,5.884,5.884,0,0,0,1.218,3.843A4.009,4.009,0,0,0,95.642-1.74a4.843,4.843,0,0,0,2.422-.667,4.7,4.7,0,0,0,1.754-1.624Zm16.008.928a3.176,3.176,0,0,0-.812-2.465,3.417,3.417,0,0,0-2.349-.725,4.747,4.747,0,0,0-2.335.638,5.607,5.607,0,0,0-1.812,1.537V0h-2.175V-19.343h2.175v7.366a7.122,7.122,0,0,1,2.175-1.668,6.07,6.07,0,0,1,2.842-.711q4.466,0,4.466,4.466V0h-2.175Zm7.6-7.047a1.415,1.415,0,0,1-1.015-.421,1.377,1.377,0,0,1-.435-1.029,1.424,1.424,0,0,1,.435-1.044,1.391,1.391,0,0,1,1.015-.435,1.424,1.424,0,0,1,1.044.435,1.424,1.424,0,0,1,.435,1.044,1.377,1.377,0,0,1-.435,1.029A1.449,1.449,0,0,1,123.424-16.269Zm-1.073,2.262h2.175V0h-2.175Zm7.6-2.262a1.415,1.415,0,0,1-1.015-.421,1.377,1.377,0,0,1-.435-1.029,1.424,1.424,0,0,1,.435-1.044,1.391,1.391,0,0,1,1.015-.435,1.424,1.424,0,0,1,1.044.435,1.424,1.424,0,0,1,.435,1.044,1.377,1.377,0,0,1-.435,1.029A1.449,1.449,0,0,1,129.949-16.269Zm1.1,17.632a4.453,4.453,0,0,1-1.073,3.19,4,4,0,0,1-3.045,1.131,5.22,5.22,0,0,1-1.566-.2l.29-1.827A2.857,2.857,0,0,0,126.7,3.8q2.175,0,2.175-2.436v-15.37h2.175ZM139.9-6.293,137.576-4V0H135.4V-19.343h2.175V-6.554l7.366-7.453H147.7l-6.206,6.351L147.726,0h-2.784Zm10.411-13.05h2.175V0h-2.175Zm23.432,9.831a3.242,3.242,0,0,0-.638-2.131,2.381,2.381,0,0,0-1.943-.769,3.976,3.976,0,0,0-2.088.638,5.108,5.108,0,0,0-1.624,1.508V0h-2.175V-9.512q0-2.9-2.581-2.9a3.86,3.86,0,0,0-2.045.638,5.334,5.334,0,0,0-1.638,1.537V0h-2.175V-14.007h2.175v2.03a5.472,5.472,0,0,1,1.827-1.6,5.175,5.175,0,0,1,2.7-.783,4.021,4.021,0,0,1,2.494.725,3.452,3.452,0,0,1,1.276,1.885,5.56,5.56,0,0,1,1.943-1.827A5.272,5.272,0,0,1,172-14.355a3.792,3.792,0,0,1,2.915,1.073,4.478,4.478,0,0,1,1,3.161V0h-2.175Zm15.979.348a3.27,3.27,0,0,0-.812-2.508,3.327,3.327,0,0,0-2.32-.74,4.8,4.8,0,0,0-2.363.638,5.3,5.3,0,0,0-1.783,1.537V0h-2.175V-14.007h2.175v2.03a7.122,7.122,0,0,1,2.175-1.668,6.014,6.014,0,0,1,2.813-.711q4.466,0,4.466,4.524V0h-2.175ZM202.362.348a6.712,6.712,0,0,1-3.654-.986,6.655,6.655,0,0,1-2.421-2.668,8.068,8.068,0,0,1-.855-3.712,8.068,8.068,0,0,1,.855-3.712,6.553,6.553,0,0,1,2.421-2.653,6.788,6.788,0,0,1,3.654-.972,6.788,6.788,0,0,1,3.654.972,6.553,6.553,0,0,1,2.422,2.653,8.068,8.068,0,0,1,.855,3.712,8.068,8.068,0,0,1-.855,3.712,6.655,6.655,0,0,1-2.422,2.668A6.712,6.712,0,0,1,202.362.348Zm0-1.943a4.2,4.2,0,0,0,2.494-.74,4.708,4.708,0,0,0,1.6-1.987,6.6,6.6,0,0,0,.551-2.7,6.5,6.5,0,0,0-.551-2.683,4.725,4.725,0,0,0-1.6-1.972,4.2,4.2,0,0,0-2.494-.74,4.269,4.269,0,0,0-2.508.74,4.683,4.683,0,0,0-1.61,1.972,6.5,6.5,0,0,0-.551,2.683,6.6,6.6,0,0,0,.551,2.7,4.667,4.667,0,0,0,1.61,1.987A4.269,4.269,0,0,0,202.362-1.6Zm10.469,6.931V-14.007h2.175v2.088a5.807,5.807,0,0,1,2.03-1.769,5.63,5.63,0,0,1,2.7-.667,6.018,6.018,0,0,1,3.248.885,5.836,5.836,0,0,1,2.2,2.552,9.091,9.091,0,0,1,.783,3.9,9.091,9.091,0,0,1-.783,3.9,5.931,5.931,0,0,1-2.2,2.567,5.945,5.945,0,0,1-3.248.9,5.688,5.688,0,0,1-2.654-.638,5.764,5.764,0,0,1-2.073-1.827V5.336ZM223.677-7.018a5.989,5.989,0,0,0-1.218-3.886,3.994,3.994,0,0,0-3.277-1.508,4.926,4.926,0,0,0-2.422.653,4.689,4.689,0,0,0-1.754,1.58v6.322a4.594,4.594,0,0,0,1.754,1.61,4.926,4.926,0,0,0,2.422.652,3.978,3.978,0,0,0,3.277-1.523A6.049,6.049,0,0,0,223.677-7.018ZM239.6,5.336V-2.117A5.8,5.8,0,0,1,237.539-.29,5.6,5.6,0,0,1,234.9.348a5.945,5.945,0,0,1-3.248-.9,5.931,5.931,0,0,1-2.2-2.567,9.091,9.091,0,0,1-.783-3.9,9.091,9.091,0,0,1,.783-3.9,5.836,5.836,0,0,1,2.2-2.552,6.018,6.018,0,0,1,3.248-.885,5.546,5.546,0,0,1,2.682.667,5.845,5.845,0,0,1,2.016,1.769v-2.088h2.175V5.336Zm0-15.515a4.512,4.512,0,0,0-1.74-1.595,4.984,4.984,0,0,0-2.436-.638,3.994,3.994,0,0,0-3.277,1.508,5.989,5.989,0,0,0-1.218,3.886,6.049,6.049,0,0,0,1.218,3.9A3.978,3.978,0,0,0,235.422-1.6a4.9,4.9,0,0,0,2.436-.652,4.618,4.618,0,0,0,1.74-1.61Zm6.525-3.828H248.3v2.262a7.225,7.225,0,0,1,2.1-1.856,5.045,5.045,0,0,1,2.566-.7v2.233a4.148,4.148,0,0,0-.87-.087,4.23,4.23,0,0,0-2.146.7A4.583,4.583,0,0,0,248.3-9.918V0h-2.175Zm9.483,10.585A5.734,5.734,0,0,0,257.592-2a6.214,6.214,0,0,0,2.625.58,4.056,4.056,0,0,0,2.436-.638,1.989,1.989,0,0,0,.87-1.682,1.667,1.667,0,0,0-.9-1.552,11,11,0,0,0-2.7-.943,21.418,21.418,0,0,1-2.625-.754,4.331,4.331,0,0,1-1.725-1.189,3.1,3.1,0,0,1-.725-2.146,3.5,3.5,0,0,1,.624-2.016,4.346,4.346,0,0,1,1.8-1.464,6.539,6.539,0,0,1,2.8-.551,7.029,7.029,0,0,1,5.191,2.03l-1.015,1.508a4.911,4.911,0,0,0-1.769-1.276,5.826,5.826,0,0,0-2.407-.493,3.921,3.921,0,0,0-2.262.58,1.785,1.785,0,0,0-.841,1.537,1.465,1.465,0,0,0,.855,1.378,11.522,11.522,0,0,0,2.566.855,20.791,20.791,0,0,1,2.683.783,4.559,4.559,0,0,1,1.813,1.262,3.362,3.362,0,0,1,.754,2.305,3.763,3.763,0,0,1-1.45,3.045A6.234,6.234,0,0,1,260.13.348a7.419,7.419,0,0,1-5.655-2.2Zm17.11,3.77a3.018,3.018,0,0,1-2.32-.841,3.448,3.448,0,0,1-.783-2.436v-9.164h-2.32v-1.914h2.32v-3.828h2.175v3.828h2.842v1.914h-2.842v8.7a2.152,2.152,0,0,0,.362,1.305,1.232,1.232,0,0,0,1.059.493,2.28,2.28,0,0,0,.841-.16,1.635,1.635,0,0,0,.638-.421l.638,1.624A3.659,3.659,0,0,1,272.716.348Zm14.442-2.32a7.221,7.221,0,0,1-2.189,1.653,6.12,6.12,0,0,1-2.8.667q-4.466,0-4.466-4.466v-9.889h2.175v9.222a3.211,3.211,0,0,0,.8,2.465,3.36,3.36,0,0,0,2.335.725,4.975,4.975,0,0,0,2.363-.609,5.027,5.027,0,0,0,1.784-1.508V-14.007h2.175V0h-2.175ZM291.6-14.007h2.349l4.669,11.484,4.64-11.484h2.378L299.8,0h-2.378Zm24.766,2.755L312.707,0h-2.175l-4.466-14.007h2.262L311.75-2.842l3.683-11.165h1.856l3.683,11.165,3.422-11.165h2.262L322.19,0h-2.175Zm17.69,5.51L329.846,0h-2.494l5.365-7.192-5.075-6.815h2.523l3.886,5.336,3.886-5.336h2.523l-5.075,6.815L340.779,0h-2.523Zm8.787,9.251a2.9,2.9,0,0,0,1.189.232,2.253,2.253,0,0,0,1.247-.319,2.443,2.443,0,0,0,.841-1.16l.928-2.117-5.858-14.152h2.349L348.2-2.523l4.64-11.484h2.378L348.2,2.842a4.489,4.489,0,0,1-1.639,2.146,4.638,4.638,0,0,1-2.479.7,5.9,5.9,0,0,1-1.6-.2Zm13.978-5.191,7.714-10.411h-7.714v-1.914h10.556v1.653L359.6-1.885h7.888V0H356.816ZM14.442,30.708H4.64L2.929,35H.261L8.033,15.657H11.02L18.821,35H16.153ZM5.336,28.562h8.381L9.541,17.8ZM21.344,15.657h8.613a5.58,5.58,0,0,1,3.958,1.363,4.646,4.646,0,0,1,1.464,3.567,4.493,4.493,0,0,1-.986,2.943,4.114,4.114,0,0,1-2.407,1.493,3.857,3.857,0,0,1,1.885.841A4.985,4.985,0,0,1,35.25,27.6a4.916,4.916,0,0,1,.507,2.175,5.009,5.009,0,0,1-1.493,3.785A5.675,5.675,0,0,1,30.16,35H21.344Zm8.207,8.381a3.334,3.334,0,0,0,2.465-.87A3.3,3.3,0,0,0,32,18.688a3.312,3.312,0,0,0-2.45-.885h-5.8v6.235Zm.116,8.816a3.7,3.7,0,0,0,2.639-.9,3.182,3.182,0,0,0,.957-2.436,3.254,3.254,0,0,0-.943-2.378,3.556,3.556,0,0,0-2.653-.957H23.751v6.67Zm19,2.494a10.067,10.067,0,0,1-4.988-1.262,9.2,9.2,0,0,1-3.567-3.552A10.3,10.3,0,0,1,38.8,25.343a10.3,10.3,0,0,1,1.305-5.191A9.2,9.2,0,0,1,43.674,16.6a10.067,10.067,0,0,1,4.988-1.261A8.743,8.743,0,0,1,53,16.368a9.288,9.288,0,0,1,3.089,2.8L54.056,20.3a6.56,6.56,0,0,0-5.394-2.813,7.107,7.107,0,0,0-6.395,3.8,8.4,8.4,0,0,0-.972,4.06,8.319,8.319,0,0,0,.972,4.046,7.251,7.251,0,0,0,2.653,2.8A7.1,7.1,0,0,0,48.662,33.2a6.5,6.5,0,0,0,3.118-.769,6.137,6.137,0,0,0,2.276-2.044l2.059,1.131A8.808,8.808,0,0,1,48.662,35.348ZM59.189,15.657H65.8a10.477,10.477,0,0,1,5.191,1.262,8.833,8.833,0,0,1,3.494,3.48,10.007,10.007,0,0,1,1.232,4.944,9.9,9.9,0,0,1-1.232,4.945,8.889,8.889,0,0,1-3.494,3.451A10.477,10.477,0,0,1,65.8,35H59.189Zm6.612,17.2a7.628,7.628,0,0,0,3.973-1,6.662,6.662,0,0,0,2.566-2.712,8.148,8.148,0,0,0,.884-3.8,8.323,8.323,0,0,0-.87-3.828A6.564,6.564,0,0,0,69.8,18.8a7.686,7.686,0,0,0-4-1H61.6V32.854Zm13.688-17.2H92.162V17.8H81.9v6.235H91.959v2.146H81.9v6.67H92.162V35H79.489Zm16.5,0h12.673V17.8H98.4v6.235H108.46v2.146H98.4V35H95.99Zm15.167,9.686a10.19,10.19,0,0,1,1.32-5.205,9.3,9.3,0,0,1,3.6-3.538,10.205,10.205,0,0,1,5.032-1.261,9.229,9.229,0,0,1,7.511,3.625L126.7,20.152a6.616,6.616,0,0,0-2.422-1.943,7.178,7.178,0,0,0-3.175-.725,7.387,7.387,0,0,0-3.8,1,7.056,7.056,0,0,0-2.683,2.8,8.4,8.4,0,0,0-.971,4.06,8.4,8.4,0,0,0,.971,4.06,7.158,7.158,0,0,0,2.683,2.813,7.306,7.306,0,0,0,3.8,1.015,7.123,7.123,0,0,0,2.972-.624,7.438,7.438,0,0,0,2.218-1.464V27.2h-6.641V25.053H128.7v6.989a9.853,9.853,0,0,1-3.349,2.451,10.656,10.656,0,0,1-9.28-.377,9.269,9.269,0,0,1-3.6-3.553A10.269,10.269,0,0,1,111.157,25.343Zm35.177.783h-11.31V35h-2.407V15.657h2.407V23.98h11.31V15.657h2.407V35h-2.407Zm6.931-10.469h2.407V35h-2.407ZM159.5,31.288a4.678,4.678,0,0,0,3.654,1.914,3.713,3.713,0,0,0,2.827-1.117,4.1,4.1,0,0,0,1.059-2.943V15.657h2.407V29.171a5.948,5.948,0,0,1-1.711,4.6,6.28,6.28,0,0,1-4.437,1.58,7.052,7.052,0,0,1-2.813-.536,6.086,6.086,0,0,1-2.233-1.7ZM178.321,26.3l-1.943,2.2V35h-2.407V15.657h2.407v10l8.555-10h3.016l-8.062,9.193L188.645,35h-2.987ZM191.4,15.657h2.407v17.2h8.99V35H191.4Zm31.32,3.248L216.137,35h-.986L208.6,18.905V35H206.19V15.657h3.451l6,14.732,6.032-14.732h3.451V35H222.72Zm9.338.493V35h-2.407V15.657h2.465L243.252,30.94V15.657h2.407V35h-2.32ZM249.4,25.343a10.781,10.781,0,0,1,1.2-5.118A8.967,8.967,0,0,1,254,16.643a10.213,10.213,0,0,1,9.99,0,9.1,9.1,0,0,1,3.393,3.581,10.677,10.677,0,0,1,1.218,5.118,10.677,10.677,0,0,1-1.218,5.119,9.1,9.1,0,0,1-3.393,3.581,10.213,10.213,0,0,1-9.99,0,8.967,8.967,0,0,1-3.393-3.581A10.781,10.781,0,0,1,249.4,25.343Zm16.7,0a8.984,8.984,0,0,0-.884-4.045A6.688,6.688,0,0,0,259,17.484a6.89,6.89,0,0,0-3.755,1.015,6.707,6.707,0,0,0-2.479,2.8,9.11,9.11,0,0,0-.87,4.045,9.135,9.135,0,0,0,.87,4.031,6.656,6.656,0,0,0,2.494,2.813A6.91,6.91,0,0,0,259,33.2a6.669,6.669,0,0,0,6.221-3.828A9.009,9.009,0,0,0,266.1,25.343Zm6.264-9.686h7.772a6.494,6.494,0,0,1,3.263.783,5.236,5.236,0,0,1,2.088,2.117,6.133,6.133,0,0,1,.711,2.929,6.034,6.034,0,0,1-.725,2.929,5.335,5.335,0,0,1-2.1,2.117,6.433,6.433,0,0,1-3.233.783h-5.365V35h-2.407Zm11.339,5.829a3.514,3.514,0,0,0-1.073-2.653,3.854,3.854,0,0,0-2.784-1.03h-5.075v7.366h5.075a3.854,3.854,0,0,0,2.784-1.03A3.514,3.514,0,0,0,283.707,21.486Zm24.1,3.857a11.316,11.316,0,0,1-.681,3.959,9.1,9.1,0,0,1-1.958,3.176l1.827,1.972-1.682,1.45-1.856-2a9.7,9.7,0,0,1-5.249,1.45,9.582,9.582,0,0,1-5-1.305,8.966,8.966,0,0,1-3.393-3.581,10.781,10.781,0,0,1-1.2-5.119,10.781,10.781,0,0,1,1.2-5.118,8.966,8.966,0,0,1,3.393-3.581,10.213,10.213,0,0,1,9.991,0,9.1,9.1,0,0,1,3.393,3.581A10.677,10.677,0,0,1,307.806,25.343Zm-9.6,7.859a7.152,7.152,0,0,0,3.683-.986l-2.755-2.987,1.682-1.421,2.726,2.929a7.777,7.777,0,0,0,1.3-2.421,9.254,9.254,0,0,0,.464-2.973,8.984,8.984,0,0,0-.885-4.045,6.688,6.688,0,0,0-6.22-3.813,6.89,6.89,0,0,0-3.755,1.015,6.707,6.707,0,0,0-2.48,2.8,9.11,9.11,0,0,0-.87,4.045,9.135,9.135,0,0,0,.87,4.031,6.656,6.656,0,0,0,2.494,2.813A6.91,6.91,0,0,0,298.207,33.2Zm19.633-5.887h-3.857V35h-2.407V15.657h7.772a6.766,6.766,0,0,1,3.147.711,5.149,5.149,0,0,1,2.146,2.044,6.047,6.047,0,0,1,.768,3.074,5.932,5.932,0,0,1-.681,2.915,4.977,4.977,0,0,1-1.827,1.914,5.8,5.8,0,0,1-2.508.8L325.612,35H322.77Zm5.075-5.829a3.514,3.514,0,0,0-1.073-2.653,3.854,3.854,0,0,0-2.784-1.03h-5.075v7.4h5.075a3.824,3.824,0,0,0,2.784-1.044A3.561,3.561,0,0,0,322.915,21.486Zm6.554,8.961a8.821,8.821,0,0,0,2.639,1.972,7.607,7.607,0,0,0,3.451.783,5.023,5.023,0,0,0,3.451-1,3.065,3.065,0,0,0,1.1-2.334,2.433,2.433,0,0,0-.652-1.755,4.45,4.45,0,0,0-1.609-1.058,27.5,27.5,0,0,0-2.639-.841,28.164,28.164,0,0,1-3.437-1.073,5.691,5.691,0,0,1-2.2-1.58,4.178,4.178,0,0,1-.914-2.828,4.67,4.67,0,0,1,.87-2.784,5.764,5.764,0,0,1,2.378-1.9,8.15,8.15,0,0,1,3.393-.681,9.013,9.013,0,0,1,6.873,2.7l-1.45,1.769a6.62,6.62,0,0,0-2.494-1.74,8.277,8.277,0,0,0-3.1-.58,4.563,4.563,0,0,0-2.857.855,2.67,2.67,0,0,0-1.117,2.219,1.977,1.977,0,0,0,.624,1.494,4.383,4.383,0,0,0,1.523.928q.9.334,2.552.769a28.536,28.536,0,0,1,3.495,1.146,5.983,5.983,0,0,1,2.306,1.711,4.572,4.572,0,0,1,.957,3.031,5.619,5.619,0,0,1-.725,2.8,5.231,5.231,0,0,1-2.335,2.088,9.159,9.159,0,0,1-4.074.8,10.487,10.487,0,0,1-4.277-.826,9.115,9.115,0,0,1-3.147-2.247ZM350.813,17.8h-6.119V15.657h14.674V17.8H353.22V35h-2.407Zm11.745-2.146h2.407V27.431a6,6,0,0,0,1.421,4.234,6.131,6.131,0,0,0,8.12,0,6,6,0,0,0,1.421-4.234V15.657h2.407v11.8a8.015,8.015,0,0,1-2.016,5.785,9.252,9.252,0,0,1-11.745,0,7.973,7.973,0,0,1-2.016-5.756Zm18.3,0h2.755l6.525,16.7,6.525-16.7h2.755L391.616,35h-2.987Zm31.61,3.741L408.2,35h-2.61l-5.51-19.343h2.668l4.292,16.124,4.437-16.124h2l4.437,16.124,4.263-16.124h2.668L419.34,35h-2.61Zm22.272,7.366L428.562,35h-2.929l7.54-9.918-7.105-9.425H429l5.742,7.743,5.713-7.743h2.929l-7.076,9.4L443.816,35h-2.9Zm17.342.058-7.627-11.165h2.813l6,8.99,6-8.99h2.813l-7.6,11.165V35h-2.407ZM463.739,33l10.875-15.2H463.739V15.657h13.949v2l-10.875,15.2h11.078V35H463.739ZM1.479,60.343a14.653,14.653,0,0,1,.783-4.8A8.538,8.538,0,0,1,4.7,51.817a6.1,6.1,0,0,1,4.176-1.45,6.115,6.115,0,0,1,4.161,1.45,8.481,8.481,0,0,1,2.45,3.726,15.1,15.1,0,0,1,0,9.6,8.584,8.584,0,0,1-2.45,3.741,6.078,6.078,0,0,1-4.161,1.465,6.078,6.078,0,0,1-4.161-1.465,8.584,8.584,0,0,1-2.45-3.741A14.653,14.653,0,0,1,1.479,60.343Zm12.325,0a11.878,11.878,0,0,0-1.189-5.554,3.946,3.946,0,0,0-3.741-2.276,3.946,3.946,0,0,0-3.741,2.276,11.878,11.878,0,0,0-1.189,5.554,11.947,11.947,0,0,0,1.189,5.583A3.946,3.946,0,0,0,8.874,68.2a3.946,3.946,0,0,0,3.741-2.277A11.947,11.947,0,0,0,13.8,60.343Zm9.106-6.5-3.1,3.277-1.45-1.479L23.2,50.657h2.117V70H22.91Zm6.235,14.239q4-3.161,6.192-5.09A20.471,20.471,0,0,0,38.7,59.357a5.868,5.868,0,0,0,1.174-3.306,3.1,3.1,0,0,0-1.189-2.639,4.577,4.577,0,0,0-2.842-.9,6.868,6.868,0,0,0-3.031.653A6.105,6.105,0,0,0,30.6,54.949l-1.479-1.537A7.279,7.279,0,0,1,32,51.164a9.3,9.3,0,0,1,3.843-.8,7.894,7.894,0,0,1,3.161.638,5.678,5.678,0,0,1,2.407,1.928,5.2,5.2,0,0,1,.928,3.118,7.07,7.07,0,0,1-1.16,3.756,18.806,18.806,0,0,1-3.132,3.727q-1.972,1.856-5.1,4.321h9.483V70H29.145ZM46.893,65.65a6.23,6.23,0,0,0,2.291,1.856,6.958,6.958,0,0,0,3.1.7,5.146,5.146,0,0,0,3.32-.972,3.227,3.227,0,0,0,1.2-2.654A2.866,2.866,0,0,0,55.521,62,6.4,6.4,0,0,0,52,61.155q-1.711,0-2,.029v-2.2q.319.029,2,.029a5.958,5.958,0,0,0,3.233-.8,2.643,2.643,0,0,0,1.262-2.392A2.822,2.822,0,0,0,55.259,53.4a5.163,5.163,0,0,0-3.088-.884,6.426,6.426,0,0,0-2.77.58,7.658,7.658,0,0,0-2.334,1.769l-1.334-1.508a8.274,8.274,0,0,1,2.813-2.175,8.628,8.628,0,0,1,3.8-.812,7.656,7.656,0,0,1,4.713,1.377A4.467,4.467,0,0,1,58.9,55.529a3.909,3.909,0,0,1-1.276,3.06,5.8,5.8,0,0,1-2.9,1.435,5.124,5.124,0,0,1,2.016.653,5.016,5.016,0,0,1,1.74,1.61,4.325,4.325,0,0,1,.71,2.494,5.146,5.146,0,0,1-.826,2.885,5.485,5.485,0,0,1-2.378,1.972,8.67,8.67,0,0,1-3.639.711,9.087,9.087,0,0,1-4.118-.9,7.1,7.1,0,0,1-2.755-2.291ZM70.9,65.1H61.712v-2l8.294-12.441h3.306V62.982h2.726V65.1H73.312V70H70.9Zm-6.786-2.117H70.9V52.89Zm16.24,2.668A6.438,6.438,0,0,0,85.7,68.2a4.473,4.473,0,0,0,3.219-1.189,4.235,4.235,0,0,0,.015-5.989,4.519,4.519,0,0,0-3.2-1.146,6.137,6.137,0,0,0-4.466,1.827L79.489,61.1V50.657H91.321V52.8H81.9v6.728a5.906,5.906,0,0,1,1.943-1.247,6.672,6.672,0,0,1,2.581-.493,6.579,6.579,0,0,1,3.059.725,5.539,5.539,0,0,1,2.248,2.132,6.349,6.349,0,0,1,.841,3.32,6.252,6.252,0,0,1-.9,3.364A5.989,5.989,0,0,1,89.2,69.565a7.737,7.737,0,0,1-3.509.783,9.243,9.243,0,0,1-4.017-.8,7.5,7.5,0,0,1-2.8-2.305Zm15.2-5.278a14.116,14.116,0,0,1,.856-5,8.05,8.05,0,0,1,2.624-3.639,6.961,6.961,0,0,1,4.379-1.363,6.78,6.78,0,0,1,5.365,2.32l-1.218,1.8a6.057,6.057,0,0,0-1.769-1.465,5.033,5.033,0,0,0-2.378-.507,4.4,4.4,0,0,0-3.016,1.073,6.546,6.546,0,0,0-1.827,2.8,11.12,11.12,0,0,0-.609,3.727,7.342,7.342,0,0,0,.029.754,6.66,6.66,0,0,1,2.247-2.088,6.111,6.111,0,0,1,3.234-.928,7.249,7.249,0,0,1,3.2.7,5.33,5.33,0,0,1,2.276,2.088,6.447,6.447,0,0,1,.841,3.393,6.133,6.133,0,0,1-3.19,5.452,7.177,7.177,0,0,1-3.6.87,6.229,6.229,0,0,1-5.626-2.827A12.932,12.932,0,0,1,95.555,60.372Zm11.8,3.741a3.87,3.87,0,0,0-1.247-3.1,4.76,4.76,0,0,0-3.219-1.073,5.153,5.153,0,0,0-2.726.8,6.38,6.38,0,0,0-2.117,2.1,7.356,7.356,0,0,0,1.392,3.755,4.056,4.056,0,0,0,3.48,1.61,4.572,4.572,0,0,0,2.422-.609,4.065,4.065,0,0,0,1.508-1.551A4.023,4.023,0,0,0,107.358,64.113ZM122.525,52.8H112.114V50.657h13.195V52.31L117.392,70h-2.668Zm5.133,12.3a4.343,4.343,0,0,1,1.32-3.161,7.516,7.516,0,0,1,3.291-1.914,7.11,7.11,0,0,1-3.074-1.7,3.919,3.919,0,0,1-1.218-2.944,4.2,4.2,0,0,1,.942-2.784,5.622,5.622,0,0,1,2.465-1.682,9.594,9.594,0,0,1,6.409,0,5.725,5.725,0,0,1,2.479,1.682,4.163,4.163,0,0,1,.957,2.784,3.919,3.919,0,0,1-1.218,2.944,7.108,7.108,0,0,1-3.1,1.7,7.516,7.516,0,0,1,3.292,1.914,4.343,4.343,0,0,1,1.32,3.161,4.394,4.394,0,0,1-.928,2.784,5.9,5.9,0,0,1-2.508,1.827,9.969,9.969,0,0,1-7.018,0,5.8,5.8,0,0,1-2.494-1.827A4.439,4.439,0,0,1,127.658,65.1Zm11.136-9.4a2.724,2.724,0,0,0-1.2-2.32,5.638,5.638,0,0,0-6.018,0,2.734,2.734,0,0,0-1.189,2.32,2.488,2.488,0,0,0,1.363,2.306,8.906,8.906,0,0,0,2.842,1.03,8.906,8.906,0,0,0,2.842-1.03A2.488,2.488,0,0,0,138.794,55.7Zm.29,9.135a2.685,2.685,0,0,0-.812-1.972,5.707,5.707,0,0,0-1.856-1.247,6.842,6.842,0,0,0-1.827-.522,7.025,7.025,0,0,0-1.842.522,5.666,5.666,0,0,0-1.87,1.247,2.685,2.685,0,0,0-.812,1.972,2.85,2.85,0,0,0,1.32,2.436,5.947,5.947,0,0,0,6.38,0A2.85,2.85,0,0,0,139.084,64.838Zm7.569,1.363a5.985,5.985,0,0,0,1.783,1.465,5.053,5.053,0,0,0,2.363.507,4.5,4.5,0,0,0,3.089-1.087,6.263,6.263,0,0,0,1.8-2.813,11.706,11.706,0,0,0,.566-3.668,7.731,7.731,0,0,0-.029-.783,6.694,6.694,0,0,1-2.233,2.088,6.038,6.038,0,0,1-3.219.928,7.342,7.342,0,0,1-3.219-.7,5.311,5.311,0,0,1-2.291-2.088,6.447,6.447,0,0,1-.841-3.393,6.219,6.219,0,0,1,.826-3.132,6.129,6.129,0,0,1,2.363-2.32,7.117,7.117,0,0,1,3.567-.87,6.257,6.257,0,0,1,5.655,2.827,12.99,12.99,0,0,1,1.827,7.177,14,14,0,0,1-.855,4.988,8.058,8.058,0,0,1-2.625,3.625,6.961,6.961,0,0,1-4.379,1.363A6.78,6.78,0,0,1,145.435,68Zm9.483-8.323a7.237,7.237,0,0,0-1.363-3.77,4.042,4.042,0,0,0-3.48-1.624,4.508,4.508,0,0,0-2.407.623,4.139,4.139,0,0,0-1.522,1.566,3.971,3.971,0,0,0-.508,1.9,3.869,3.869,0,0,0,1.247,3.1,4.76,4.76,0,0,0,3.219,1.073,5.3,5.3,0,0,0,2.741-.783A5.726,5.726,0,0,0,156.136,57.878Zm16.849,17.893a20.838,20.838,0,0,1-3.031-6.017,22.375,22.375,0,0,1,0-13.6,20.838,20.838,0,0,1,3.031-6.017l1.3.986a31.273,31.273,0,0,0-2.277,5.728,25.566,25.566,0,0,0,0,12.209,29.513,29.513,0,0,0,2.277,5.7Zm3.8-25.114h2.726l-.464,13.92h-1.8Zm-.232,18.038a1.516,1.516,0,0,1,.479-1.131,1.588,1.588,0,0,1,2.711,1.131,1.6,1.6,0,0,1-3.19,0Zm5.945-5.771a10.724,10.724,0,0,1,1.609-5.684,12.041,12.041,0,0,1,4.263-4.19A11,11,0,0,1,194.01,51.5a9.178,9.178,0,0,1,4.756,1.232A8.574,8.574,0,0,1,202,56.065a9.51,9.51,0,0,1,1.145,4.626,8.746,8.746,0,0,1-.725,3.727,5.617,5.617,0,0,1-1.87,2.334,4.221,4.221,0,0,1-2.422.783,2.589,2.589,0,0,1-1.87-.682,2.431,2.431,0,0,1-.768-1.668l-.029-.174a6.282,6.282,0,0,1-2.016,1.813,5.069,5.069,0,0,1-2.566.711,4.2,4.2,0,0,1-3.219-1.305,4.814,4.814,0,0,1-1.218-3.422,7.126,7.126,0,0,1,.971-3.625,7.513,7.513,0,0,1,2.552-2.668,6.131,6.131,0,0,1,3.292-.986,4.1,4.1,0,0,1,2.305.638,3.721,3.721,0,0,1,1.406,1.624l.377-1.8h1.972l-1.653,7.859a3.764,3.764,0,0,0-.058.609A1.511,1.511,0,0,0,198,65.577a1.319,1.319,0,0,0,.971.392,2.4,2.4,0,0,0,1.392-.522,3.96,3.96,0,0,0,1.232-1.711,7.818,7.818,0,0,0,.508-3.045,8.6,8.6,0,0,0-1.03-4.22,7.44,7.44,0,0,0-2.885-2.929,8.511,8.511,0,0,0-4.292-1.058,9.782,9.782,0,0,0-5.133,1.45,11.039,11.039,0,0,0-3.843,3.857,9.756,9.756,0,0,0-1.435,5.075,8.27,8.27,0,0,0,1.073,4.191A7.764,7.764,0,0,0,187.528,70a8.544,8.544,0,0,0,4.278,1.073,9.981,9.981,0,0,0,5.394-1.624l.522.754a10.968,10.968,0,0,1-6.032,1.827,9.259,9.259,0,0,1-4.684-1.2,8.786,8.786,0,0,1-3.306-3.291A9.068,9.068,0,0,1,182.5,62.924ZM196.62,59.3a3.414,3.414,0,0,0-1.059-1.493,2.876,2.876,0,0,0-1.928-.653,4.542,4.542,0,0,0-2.581.8,5.678,5.678,0,0,0-1.871,2.073,5.588,5.588,0,0,0-.681,2.668,3.366,3.366,0,0,0,.8,2.32,2.742,2.742,0,0,0,2.16.9,4.266,4.266,0,0,0,2.465-.754,7.061,7.061,0,0,0,1.856-1.856Zm16.269,5.452H209.67L207.93,70h-1.8l1.769-5.249h-3.074l.493-1.537h3.1l1.914-5.771h-3.132l.464-1.508h3.19l1.74-5.278h1.8l-1.74,5.278h3.19l1.74-5.278h1.769l-1.769,5.278h3.1l-.435,1.508h-3.161l-1.943,5.771h3.219l-.464,1.537h-3.277L212.889,70H211.12Zm-.783-7.308-1.914,5.771h3.19l1.914-5.771Zm24.969,7.221a5.34,5.34,0,0,1-1.508,3.8,6.842,6.842,0,0,1-4.64,1.827V72.9h-1.769V70.319a9.958,9.958,0,0,1-3.828-.928,8.632,8.632,0,0,1-2.813-2.117l1.45-1.827a8.516,8.516,0,0,0,2.262,1.784,7.7,7.7,0,0,0,2.929.913V61.1a21.384,21.384,0,0,1-3.1-1.044,5.429,5.429,0,0,1-2.088-1.61,4.225,4.225,0,0,1-.841-2.712,4.675,4.675,0,0,1,.783-2.653,5.666,5.666,0,0,1,2.146-1.885,7.754,7.754,0,0,1,3.1-.826V47.728h1.769v2.7a8.491,8.491,0,0,1,5.713,2.639l-1.45,1.769a6.78,6.78,0,0,0-4.263-2.2v6.293a19.538,19.538,0,0,1,3.161,1.131,5.788,5.788,0,0,1,2.132,1.725A4.612,4.612,0,0,1,237.075,64.664ZM225.62,55.587a2,2,0,0,0,.913,1.755,9.33,9.33,0,0,0,2.624,1.117V52.542a4.168,4.168,0,0,0-2.552.928A2.666,2.666,0,0,0,225.62,55.587Zm5.307,12.528a4.09,4.09,0,0,0,2.8-1.1,3.084,3.084,0,0,0,.885-2.146,2.4,2.4,0,0,0-.943-2.044,8.994,8.994,0,0,0-2.74-1.261ZM239.4,55.181a5.024,5.024,0,0,1,.594-2.451,4.466,4.466,0,0,1,4.046-2.363,4.675,4.675,0,0,1,2.436.638,4.468,4.468,0,0,1,1.667,1.725,5.024,5.024,0,0,1,.594,2.451,4.964,4.964,0,0,1-.594,2.422,4.266,4.266,0,0,1-1.667,1.7,4.848,4.848,0,0,1-2.436.609,4.768,4.768,0,0,1-2.422-.609,4.2,4.2,0,0,1-1.638-1.7A5.064,5.064,0,0,1,239.4,55.181Zm15.167-4.524h1.6L243.774,70h-1.566Zm-7.569,4.524a3.5,3.5,0,0,0-.826-2.393,2.7,2.7,0,0,0-2.132-.942,2.63,2.63,0,0,0-2.088.942,3.535,3.535,0,0,0-.812,2.393,3.451,3.451,0,0,0,.812,2.334,2.63,2.63,0,0,0,2.088.943,2.717,2.717,0,0,0,2.117-.943A3.378,3.378,0,0,0,246.993,55.181Zm2.494,10.44a5.024,5.024,0,0,1,.594-2.451,4.466,4.466,0,0,1,4.046-2.364,4.6,4.6,0,0,1,2.421.638,4.5,4.5,0,0,1,1.653,1.726,5.024,5.024,0,0,1,.594,2.451,4.964,4.964,0,0,1-.594,2.422,4.294,4.294,0,0,1-1.653,1.7,5.119,5.119,0,0,1-4.843,0,4.2,4.2,0,0,1-1.639-1.7A5.064,5.064,0,0,1,249.487,65.621Zm7.6,0a3.5,3.5,0,0,0-.826-2.393,2.7,2.7,0,0,0-2.132-.943,2.662,2.662,0,0,0-2.117.943,3.535,3.535,0,0,0-.812,2.393,3.414,3.414,0,0,0,.827,2.334,2.673,2.673,0,0,0,2.1.943,2.717,2.717,0,0,0,2.117-.943A3.378,3.378,0,0,0,257.085,65.621Zm16.617.725q1.363,1.392,3.77,3.654h-3.016q-.87-.783-2.117-2.03a7.753,7.753,0,0,1-5.568,2.378,6.566,6.566,0,0,1-4.335-1.407,4.889,4.889,0,0,1-1.7-3.987,4.952,4.952,0,0,1,1.131-3.364,11.2,11.2,0,0,1,3.161-2.407,8.721,8.721,0,0,1-1.508-4.321,4.217,4.217,0,0,1,.652-2.305,4.516,4.516,0,0,1,1.769-1.61,5.235,5.235,0,0,1,2.451-.58,4.819,4.819,0,0,1,3.161,1,3.42,3.42,0,0,1,1.218,2.8,4.023,4.023,0,0,1-.667,2.334,5.982,5.982,0,0,1-1.624,1.61q-.957.638-2.61,1.508.667.928,2.2,2.755.58.638.841.957l1.479,1.624a15.85,15.85,0,0,0,1.247-2.277,18.609,18.609,0,0,0,.812-2.132l1.885.812A25.591,25.591,0,0,1,273.7,66.346Zm-7.917-11.455a7.217,7.217,0,0,0,1.16,3.335,13.4,13.4,0,0,0,2.871-1.812,2.773,2.773,0,0,0,.957-2.161,2.038,2.038,0,0,0-.638-1.609,2.4,2.4,0,0,0-1.653-.565,2.58,2.58,0,0,0-1.914.8A2.759,2.759,0,0,0,265.785,54.891Zm1.189,13.659a5.71,5.71,0,0,0,4.06-1.914q-1.914-2-2.668-2.929-1.595-1.914-2.407-3.074a7.868,7.868,0,0,0-2.117,1.813,3.739,3.739,0,0,0-.754,2.363,3.45,3.45,0,0,0,1.146,2.741A4.026,4.026,0,0,0,266.974,68.55Zm12.963,4.234a4.491,4.491,0,0,0,1.261-1.232,3.319,3.319,0,0,0,.624-1.465,1,1,0,0,1-.406.058,1.307,1.307,0,0,1-1-.42,1.493,1.493,0,0,1-.392-1.059,1.53,1.53,0,0,1,.45-1.1,1.458,1.458,0,0,1,1.087-.464,1.678,1.678,0,0,1,1.29.595,2.313,2.313,0,0,1,.536,1.609,4.894,4.894,0,0,1-.667,2.451,5.993,5.993,0,0,1-1.711,1.928Zm6.757-4.089a1.516,1.516,0,0,1,.479-1.131,1.589,1.589,0,0,1,2.247,2.247,1.6,1.6,0,0,1-2.726-1.117Zm9.686-6.409a3.2,3.2,0,0,1,.391-1.595,4.534,4.534,0,0,1,.928-1.174,18.407,18.407,0,0,1,1.465-1.146,10.562,10.562,0,0,0,1.856-1.508,2.36,2.36,0,0,0,.609-1.653,2.448,2.448,0,0,0-.884-1.928,3.756,3.756,0,0,0-2.538-.769,5.378,5.378,0,0,0-2.639.609,6.272,6.272,0,0,0-1.972,1.769l-1.45-1.566a7.455,7.455,0,0,1,2.682-2.175,8.145,8.145,0,0,1,3.611-.783,7.108,7.108,0,0,1,3,.595,4.7,4.7,0,0,1,1.987,1.624,3.977,3.977,0,0,1,.7,2.276,4.21,4.21,0,0,1-.449,1.986,4.82,4.82,0,0,1-1.1,1.421,20.46,20.46,0,0,1-1.7,1.29,12.424,12.424,0,0,0-1.812,1.465,2.008,2.008,0,0,0-.566,1.436,1.531,1.531,0,0,0,.217.74,2.394,2.394,0,0,0,.566.681l-1.769.754A2.964,2.964,0,0,1,296.38,62.286Zm.145,6.409A1.516,1.516,0,0,1,297,67.564a1.589,1.589,0,0,1,2.248,2.247,1.6,1.6,0,0,1-2.726-1.117Zm10.237-11.31a1.516,1.516,0,0,1,.479-1.131,1.589,1.589,0,0,1,2.247,2.248,1.6,1.6,0,0,1-2.726-1.116Zm0,11.31a1.516,1.516,0,0,1,.479-1.131,1.589,1.589,0,0,1,2.247,2.247,1.6,1.6,0,0,1-2.726-1.117Zm8.265-9.715a1.589,1.589,0,0,1-1.116-2.726,1.588,1.588,0,0,1,2.711,1.131,1.635,1.635,0,0,1-1.6,1.595Zm-1.682,13.8a4.491,4.491,0,0,0,1.261-1.232,3.319,3.319,0,0,0,.624-1.465,1,1,0,0,1-.406.058,1.307,1.307,0,0,1-1-.42,1.493,1.493,0,0,1-.392-1.059,1.53,1.53,0,0,1,.45-1.1,1.458,1.458,0,0,1,1.087-.464,1.678,1.678,0,0,1,1.29.595A2.313,2.313,0,0,1,316.8,69.3a4.894,4.894,0,0,1-.667,2.451,5.993,5.993,0,0,1-1.711,1.928Zm8.555-9.831a22.753,22.753,0,0,0-.754-6.119,31.162,31.162,0,0,0-2.291-5.713l1.3-.986a21.118,21.118,0,0,1,3.045,6.017,22.179,22.179,0,0,1,0,13.63,20.7,20.7,0,0,1-3.045,5.988l-1.3-1.015a30.257,30.257,0,0,0,2.291-5.7A22.794,22.794,0,0,0,321.9,62.953Z" transform="translate(20838 2070)"/></g></svg>