<svg xmlns="http://www.w3.org/2000/svg" viewBox="0 0 32.86 28.33"><defs><style>.cls-1{fill:#6058a6;}</style></defs><title>Asset 3</title><g id="Layer_2" data-name="Layer 2"><g id="Layer_1-2" data-name="Layer 1"><path class="cls-1" d="M28.59,23.51l3.67-1.84L22.27,18,26,28l1.84-3.67,3.85,3.85a.57.57,0,1,0,.8-.8Zm-4.41-3.61,5.23,1.93-2.2,1.1-1.1,2.2Z"/><path class="cls-1" d="M14.47,8.59a.57.57,0,0,0-.87.48V17a.57.57,0,0,0,.87.48l6.23-4a.57.57,0,0,0,0-1ZM14.73,16V10.1L19.34,13Z"/><path class="cls-1" d="M32.3,0H.57A.57.57,0,0,0,0,.57V25.5a.57.57,0,0,0,.57.57h21a.57.57,0,0,0,0-1.13H6.8V1.13H26.06V13a.57.57,0,0,0,.57.57h5.1v5.67a.57.57,0,1,0,1.13,0V.57A.57.57,0,0,0,32.3,0ZM1.13,13.6H5.67v5.1H1.13Zm4.53-1.13H1.13V7.37H5.67ZM1.13,24.93v-5.1H5.67v5.1ZM5.67,6.23H1.13V1.13H5.67Zm26.06-5.1v5.1H27.2V1.13ZM27.2,12.47V7.37h4.53v5.1Z"/></g></g></svg>