<?xml version="1.0" encoding="utf-8"?>
<!-- Generator: Adobe Illustrator 28.1.0, SVG Export Plug-In . SVG Version: 6.00 Build 0)  -->
<svg version="1.1" id="Capa_1" xmlns="http://www.w3.org/2000/svg" xmlns:xlink="http://www.w3.org/1999/xlink" x="0px" y="0px"
	 viewBox="0 0 95.3 95.3" style="enable-background:new 0 0 95.3 95.3;" xml:space="preserve">
<style type="text/css">
	.st0{fill:#E40F37;}
</style>
<g>
	<g>
		<path class="st0" d="M30.5,43.9c-2.3-0.7-4.7-1-7-1c-3.5,0-6.5,0.8-8.8,1.8c2.2-8.1,7.5-22,18-23.5c1-0.1,1.8-0.9,2-1.8l2.3-8.2
			c0.2-0.7,0.1-1.4-0.3-2s-1-1-1.8-1.1s-1.6-0.2-2.4-0.2C20.1,7.9,7.6,21,2.3,39.9c-3.1,11.1-4,27.7,3.6,38.2
			c4.3,5.9,10.5,9,18.5,9.3h0.1c9.9,0,18.7-6.7,21.3-16.2c1.6-5.7,0.9-11.7-2-16.9C41,49.3,36.2,45.6,30.5,43.9z"/>
		<path class="st0" d="M92.5,54.4c-2.9-5.1-7.6-8.8-13.3-10.5c-2.3-0.7-4.7-1-7-1c-3.5,0-6.5,0.8-8.8,1.8c2.2-8.1,7.5-22,18-23.5
			c1-0.1,1.8-0.9,2-1.8l2.3-8.2c0.2-0.7,0.1-1.4-0.3-2s-1-1-1.8-1.1S82,7.9,81.2,7.9c-12.5,0-25,13.1-30.3,32
			c-3.1,11.1-4,27.7,3.6,38.2c4.3,5.9,10.5,9,18.5,9.3h0.1c9.9,0,18.7-6.7,21.3-16.2C96.1,65.6,95.4,59.6,92.5,54.4z"/>
	</g>
</g>
</svg>
