<svg xmlns="http://www.w3.org/2000/svg" viewBox="0 0 32.86 31.77"><defs><style>.cls-1{fill:#179dd9;}</style></defs><title>Asset 2</title><g id="Layer_2" data-name="Layer 2"><g id="Layer_1-2" data-name="Layer 1"><path class="cls-1" d="M16.43,22.46a.55.55,0,1,0-.55-.55A.55.55,0,0,0,16.43,22.46Z"/><path class="cls-1" d="M7.67,8.22a.55.55,0,1,0,.55.55A.55.55,0,0,0,7.67,8.22Z"/><path class="cls-1" d="M4,6l1.91-2.4A.55.55,0,0,0,5,2.95L2.86,5.69a.55.55,0,0,0,0,.68L5,9.11a.55.55,0,0,0,.86-.68Z"/><path class="cls-1" d="M30.4,0H2.46A2.47,2.47,0,0,0,0,2.46V22.73A2.47,2.47,0,0,0,2.46,25.2h9.78a2.73,2.73,0,0,1-1.11,2.45l-1,.7a.68.68,0,0,0-.19.2,1.64,1.64,0,0,0,.45,3.22h12a1.64,1.64,0,0,0,.45-3.22.68.68,0,0,0-.19-.2l-1-.7a2.73,2.73,0,0,1-1.11-2.45H30.4a2.47,2.47,0,0,0,2.46-2.46V2.46A2.47,2.47,0,0,0,30.4,0ZM1.1,2.46A1.37,1.37,0,0,1,2.46,1.1H30.4a1.37,1.37,0,0,1,1.37,1.37V19.17H1.1ZM22.46,30.67h-12a.55.55,0,1,1,0-1.1h12a.55.55,0,0,1,0,1.1ZM19.52,25.2A3.84,3.84,0,0,0,21,28.48H11.85a3.84,3.84,0,0,0,1.49-3.29Zm12.25-2.47A1.37,1.37,0,0,1,30.4,24.1H2.46A1.37,1.37,0,0,1,1.1,22.73V20.27H31.77v2.47Z"/><path class="cls-1" d="M7.67,2.74a.55.55,0,0,0-.55.55V6.57a.55.55,0,1,0,1.1,0V3.29A.55.55,0,0,0,7.67,2.74Z"/><path class="cls-1" d="M11,8.22H9.86a.55.55,0,1,0,0,1.1H11a.55.55,0,0,0,0-1.1Z"/><path class="cls-1" d="M14.24,8.22h-1.1a.55.55,0,1,0,0,1.1h1.1a.55.55,0,1,0,0-1.1Z"/></g></g></svg>