<svg xmlns="http://www.w3.org/2000/svg" viewBox="0 0 28.74 28.78"><defs><style>.cls-1,.cls-2{fill:none;stroke:#53c2ca;stroke-linecap:round;stroke-linejoin:round;}.cls-2{stroke-width:0.55px;}</style></defs><title>Asset 1</title><g id="Layer_2" data-name="Layer 2"><g id="Layer_1-2" data-name="Layer 1"><g id="Desgin_Icon" data-name="Desgin Icon"><path id="Path_20" data-name="Path 20" class="cls-1" d="M24.42,25.41s0-4.3,3.82-5.26c-4.78-4.78-8.6-13.86-8.6-13.86s-3.82,8.6-8.6,13.39c3.82,1,3.82,5.74,3.82,5.74"/><line id="Line_2" data-name="Line 2" class="cls-2" x1="19.64" y1="17.76" x2="19.64" y2="6.28"/><rect id="Rectangle_47" data-name="Rectangle 47" class="cls-1" x="18.27" y="1.06" width="2.72" height="2.72" transform="translate(4.04 14.6) rotate(-45)"/><circle id="Ellipse_43" data-name="Ellipse 43" class="cls-1" cx="1.47" cy="2.46" r="0.96"/><line id="Line_3" data-name="Line 3" class="cls-1" x1="17.72" y1="2.46" x2="2.43" y2="2.46"/><circle id="Ellipse_44" data-name="Ellipse 44" class="cls-2" cx="19.64" cy="19.67" r="1.91"/><path id="Path_21" data-name="Path 21" class="cls-1" d="M13.9,28.28v-1H25.37v1"/><path id="Path_22" data-name="Path 22" class="cls-1" d="M17.72,2.46A15.28,15.28,0,0,0,2.43,17.73s0,0,0,0"/><rect id="Rectangle_48" data-name="Rectangle 48" class="cls-1" x="1.06" y="18.27" width="2.72" height="2.72" transform="translate(-13.17 7.47) rotate(-45)"/></g></g></g></svg>